v -0.002266 0.477387 0.405415
v -0.049706 0.516426 0.388629
v -0.027894 0.497612 0.360846
v -0.013892 0.486710 0.421826
v 0.008458 0.468361 0.417516
v -0.035124 0.556038 0.410830
v 0.000985 0.471260 0.426752
v 0.034628 0.444489 0.425464
v -0.000290 0.516670 0.435156
v 0.017764 0.445892 0.454428
v 0.048461 0.426811 0.452689
v 0.026792 0.533386 0.430133
v 0.034412 0.524048 0.446190
v 0.000284 0.573013 0.399917
v 0.026291 0.554009 0.370570
v 0.038385 0.524643 0.412340
v 0.049879 0.519829 0.427877
v 0.076065 0.529572 0.436516
v 0.009744 0.500259 0.447273
v 0.067860 0.526680 0.462778
v 0.097340 0.520615 0.453124
v 0.056182 0.506569 0.480659
v 0.033058 0.476997 0.473763
v 0.086162 0.510490 0.474015
v 0.105982 0.485069 0.461042
v 0.113834 0.499031 0.445752
v 0.108043 0.479675 0.456764
v 0.116179 0.493416 0.442590
v 0.106072 0.459480 0.434792
v 0.112670 0.469696 0.425058
v 0.082626 0.486404 0.496803
v 0.086626 0.490654 0.456564
v 0.090241 0.486900 0.471159
v 0.039540 0.425934 0.474047
v 0.093287 0.477417 0.494832
v 0.095521 0.481834 0.464217
v 0.061589 0.453484 0.490550
v 0.074690 0.445503 0.489560
v 0.050570 0.419243 0.473103
v 0.109993 0.470589 0.470274
v 0.068629 0.415192 0.454904
v 0.059075 0.423492 0.448647
v 0.095100 0.439529 0.464658
v 0.113070 0.470261 0.461397
v 0.091290 0.483070 0.456630
v 0.099105 0.439842 0.454810
v 0.105102 0.478874 0.441463
v 0.085077 0.489578 0.445461
v 0.091390 0.488716 0.434611
v 0.092686 0.450378 0.434667
v 0.069035 0.470055 0.419841
v 0.074452 0.415291 0.445273
v 0.066948 0.426445 0.430508
v 0.054453 0.441536 0.420261
v 0.055623 0.429825 0.437416
v 0.050380 0.440949 0.430888
v 0.086626 0.490654 0.456564
v 0.105982 0.485069 0.461042
v 0.086162 0.510490 0.474015
v 0.092749 0.482109 0.448739
v 0.108043 0.479675 0.456764
v 0.106072 0.459480 0.434792
v 0.096733 0.462486 0.430430
v 0.228462 0.568604 -0.121015
v 0.204711 0.618195 -0.113823
v 0.242248 0.631630 -0.118481
v 0.249447 0.574760 -0.124604
v 0.233010 0.549271 -0.122241
v 0.274474 0.630997 -0.083648
v 0.247903 0.554710 -0.127936
v 0.226307 0.511284 -0.120879
v 0.270384 0.574089 -0.096332
v 0.254385 0.513748 -0.138963
v 0.241389 0.477448 -0.129600
v 0.266769 0.565064 -0.065685
v 0.275464 0.549393 -0.070547
v 0.263407 0.617912 -0.046614
v 0.223340 0.602394 -0.039307
v 0.244673 0.559761 -0.061639
v 0.256424 0.544113 -0.061218
v 0.269220 0.529106 -0.037854
v 0.273762 0.556053 -0.103403
v 0.292291 0.523827 -0.052110
v 0.275022 0.507126 -0.033324
v 0.300581 0.513695 -0.078461
v 0.283828 0.514755 -0.112527
v 0.294505 0.501274 -0.045944
v 0.277683 0.476097 -0.033990
v 0.259692 0.487511 -0.027879
v 0.273441 0.470123 -0.034497
v 0.256409 0.481308 -0.027977
v 0.255202 0.449272 -0.042972
v 0.243592 0.457558 -0.037180
v 0.305497 0.479004 -0.078660
v 0.275059 0.487465 -0.058105
v 0.280508 0.476921 -0.065223
v 0.261984 0.481087 -0.142677
v 0.301018 0.464790 -0.078212
v 0.274648 0.465797 -0.064743
v 0.287938 0.477058 -0.114002
v 0.285055 0.461418 -0.111691
v 0.259354 0.467926 -0.140631
v 0.283849 0.448372 -0.070134
v 0.247486 0.451965 -0.131034
v 0.239229 0.463615 -0.125924
v 0.269230 0.443771 -0.101486
v 0.275997 0.443588 -0.066156
v 0.264508 0.465637 -0.062612
v 0.260972 0.438065 -0.096376
v 0.256351 0.447144 -0.056899
v 0.252140 0.469933 -0.056026
v 0.245163 0.460571 -0.051549
v 0.241980 0.442192 -0.084976
v 0.220948 0.465302 -0.072147
v 0.239935 0.444870 -0.125249
v 0.225068 0.450958 -0.114634
v 0.212036 0.464562 -0.103112
v 0.226639 0.464226 -0.117692
v 0.219519 0.471314 -0.108118
v 0.275059 0.487465 -0.058105
v 0.294505 0.501274 -0.045944
v 0.277683 0.476097 -0.033990
v 0.269525 0.475945 -0.050898
v 0.273441 0.470123 -0.034497
v 0.255202 0.449272 -0.042972
v 0.252741 0.453171 -0.052413
v 0.038385 0.524643 0.412340
v 0.017126 0.523163 0.351181
v 0.026291 0.554009 0.370570
v 0.030760 0.502358 0.399823
v 0.046464 0.503723 0.414487
v 0.049879 0.519829 0.427877
v 0.076065 0.529572 0.436516
v -0.002266 0.477387 0.405415
v -0.027894 0.497612 0.360846
v 0.032172 0.487206 0.412483
v 0.008458 0.468361 0.417516
v 0.034628 0.444489 0.425464
v 0.062084 0.490791 0.417928
v 0.055128 0.472862 0.419555
v 0.048461 0.426811 0.452689
v 0.070115 0.456497 0.463245
v 0.059075 0.423492 0.448647
v 0.082215 0.501213 0.433612
v 0.097340 0.520615 0.453124
v 0.100549 0.495331 0.434919
v 0.113834 0.499031 0.445752
v 0.116179 0.493416 0.442590
v 0.086626 0.490654 0.456564
v 0.092749 0.482109 0.448739
v 0.090241 0.486900 0.471159
v 0.096733 0.462486 0.430430
v 0.078779 0.452568 0.457002
v 0.055623 0.429825 0.437416
v 0.095521 0.481834 0.464217
v 0.103416 0.472839 0.420607
v 0.112670 0.469696 0.425058
v 0.106072 0.459480 0.434792
v 0.076218 0.456940 0.446959
v 0.050380 0.440949 0.430888
v 0.091290 0.483070 0.456630
v 0.062737 0.470635 0.431382
v 0.054453 0.441536 0.420261
v 0.085077 0.489578 0.445461
v 0.069035 0.470055 0.419841
v 0.091390 0.488716 0.434611
v 0.244673 0.559761 -0.061639
v 0.223340 0.602394 -0.039307
v 0.196000 0.602196 -0.064410
v 0.226281 0.559715 -0.080558
v 0.238744 0.542847 -0.071692
v 0.256424 0.544113 -0.061218
v 0.269220 0.529106 -0.037854
v 0.228462 0.568604 -0.121015
v 0.204711 0.618195 -0.113823
v 0.232225 0.544754 -0.092436
v 0.233010 0.549271 -0.122241
v 0.226307 0.511284 -0.120879
v 0.237174 0.522263 -0.068634
v 0.231508 0.515724 -0.086031
v 0.241389 0.477448 -0.129600
v 0.262153 0.476044 -0.097611
v 0.239229 0.463615 -0.125924
v 0.255897 0.503151 -0.057838
v 0.275022 0.507126 -0.033324
v 0.253183 0.486679 -0.044394
v 0.259692 0.487511 -0.027879
v 0.256409 0.481308 -0.027977
v 0.275059 0.487465 -0.058105
v 0.269525 0.475945 -0.050898
v 0.280508 0.476921 -0.065223
v 0.252741 0.453171 -0.052413
v 0.257721 0.463509 -0.095092
v 0.226639 0.464226 -0.117692
v 0.274648 0.465797 -0.064743
v 0.240694 0.461586 -0.046870
v 0.243592 0.457558 -0.037180
v 0.255202 0.449272 -0.042972
v 0.246902 0.462784 -0.088715
v 0.219519 0.471314 -0.108118
v 0.264508 0.465637 -0.062612
v 0.228515 0.474793 -0.077242
v 0.212036 0.464562 -0.103112
v 0.252140 0.469933 -0.056026
v 0.220948 0.465302 -0.072147
v 0.245163 0.460571 -0.051549
f 1 2 3
f 1 4 2
f 5 4 1
f 4 6 2
f 5 7 4
f 8 7 5
f 4 9 6
f 7 9 4
f 7 8 10
f 11 10 8
f 9 12 6
f 13 12 9
f 12 14 6
f 12 15 14
f 12 16 15
f 13 16 12
f 13 17 16
f 13 18 17
f 7 19 9
f 7 10 19
f 19 13 9
f 18 13 20
f 20 21 18
f 22 13 19
f 20 13 22
f 23 19 10
f 19 23 22
f 21 20 24
f 22 24 20
f 25 21 24
f 26 21 25
f 25 27 26
f 26 27 28
f 29 28 27
f 28 29 30
f 24 22 31
f 23 31 22
f 24 31 32
f 33 32 31
f 34 23 10
f 10 11 34
f 35 33 31
f 35 36 33
f 31 23 37
f 23 34 37
f 37 35 31
f 34 38 37
f 35 37 38
f 34 11 39
f 38 34 39
f 36 35 40
f 38 40 35
f 11 41 39
f 41 11 42
f 39 43 38
f 40 38 43
f 43 39 41
f 36 40 44
f 43 44 40
f 44 45 36
f 41 46 43
f 44 43 46
f 45 44 47
f 46 47 44
f 47 48 45
f 48 47 49
f 50 49 47
f 47 46 50
f 49 50 51
f 46 41 52
f 42 52 41
f 52 50 46
f 53 51 50
f 50 52 53
f 42 53 52
f 51 53 54
f 53 42 55
f 55 54 53
f 54 55 56
f 57 58 59
f 58 57 60
f 60 61 58
f 60 62 61
f 62 60 63
f 64 65 66
f 64 66 67
f 68 64 67
f 67 66 69
f 68 67 70
f 71 68 70
f 67 69 72
f 70 67 72
f 70 73 71
f 74 71 73
f 72 69 75
f 76 72 75
f 75 69 77
f 75 77 78
f 75 78 79
f 76 75 79
f 76 79 80
f 76 80 81
f 70 72 82
f 70 82 73
f 82 72 76
f 81 83 76
f 83 81 84
f 85 82 76
f 83 85 76
f 86 73 82
f 82 85 86
f 84 87 83
f 85 83 87
f 88 87 84
f 89 88 84
f 88 89 90
f 89 91 90
f 92 90 91
f 91 93 92
f 87 94 85
f 86 85 94
f 87 95 94
f 96 94 95
f 97 73 86
f 73 97 74
f 98 94 96
f 98 96 99
f 94 100 86
f 86 100 97
f 100 94 98
f 97 100 101
f 98 101 100
f 97 102 74
f 101 102 97
f 99 103 98
f 101 98 103
f 74 102 104
f 104 105 74
f 102 101 106
f 103 106 101
f 106 104 102
f 99 107 103
f 106 103 107
f 107 99 108
f 104 106 109
f 107 109 106
f 108 110 107
f 109 107 110
f 110 108 111
f 111 112 110
f 113 110 112
f 110 113 109
f 112 114 113
f 109 115 104
f 115 109 113
f 105 104 115
f 116 113 114
f 113 116 115
f 105 115 116
f 114 117 116
f 116 118 105
f 118 116 117
f 117 119 118
f 120 121 122
f 122 123 120
f 123 122 124
f 123 124 125
f 125 126 123
f 127 128 129
f 127 130 128
f 131 130 127
f 132 131 127
f 133 131 132
f 130 134 128
f 134 135 128
f 136 134 130
f 131 136 130
f 136 137 134
f 138 137 136
f 139 131 133
f 131 139 136
f 136 140 138
f 140 136 139
f 140 141 138
f 142 141 140
f 142 140 139
f 142 143 141
f 144 139 133
f 133 145 144
f 145 146 144
f 146 145 147
f 146 147 148
f 144 149 139
f 139 149 142
f 146 149 144
f 149 146 150
f 142 149 151
f 146 152 150
f 143 142 153
f 151 153 142
f 153 154 143
f 153 151 155
f 148 156 146
f 152 146 156
f 156 148 157
f 157 152 156
f 152 157 158
f 154 153 159
f 155 159 153
f 159 160 154
f 159 155 161
f 160 159 162
f 161 162 159
f 163 160 162
f 162 161 164
f 163 162 165
f 165 162 164
f 165 164 166
f 167 168 169
f 167 169 170
f 171 167 170
f 172 167 171
f 173 172 171
f 170 169 174
f 174 169 175
f 176 170 174
f 171 170 176
f 176 174 177
f 178 176 177
f 179 173 171
f 171 176 179
f 176 178 180
f 180 179 176
f 180 178 181
f 182 180 181
f 182 179 180
f 182 181 183
f 184 173 179
f 173 184 185
f 185 184 186
f 186 187 185
f 186 188 187
f 184 179 189
f 179 182 189
f 186 184 189
f 189 190 186
f 182 191 189
f 186 190 192
f 183 193 182
f 191 182 193
f 193 183 194
f 193 195 191
f 188 186 196
f 192 196 186
f 196 197 188
f 197 196 192
f 192 198 197
f 194 199 193
f 195 193 199
f 199 194 200
f 199 201 195
f 200 202 199
f 201 199 202
f 203 202 200
f 202 204 201
f 203 205 202
f 205 204 202
f 205 206 204
