v -0.082411 0.028936 -0.110536
v -0.100145 0.029769 -0.153266
v -0.088652 0.023303 -0.161136
v -0.068849 0.022360 -0.119276
v -0.072069 -0.000071 -0.176971
v -0.046846 -0.000502 -0.125832
v -0.021744 -0.000924 -0.198442
v 0.001373 -0.001104 -0.150510
v 0.006322 -0.001249 -0.179596
v -0.100145 0.029769 -0.153266
v -0.082411 0.028936 -0.110536
v -0.085948 0.014206 -0.113978
v -0.101433 0.014881 -0.151374
v -0.084722 -0.000386 -0.114109
v -0.100204 0.000074 -0.151447
v -0.100204 0.000074 -0.151447
v -0.102353 -0.000288 -0.107686
v -0.117199 0.000153 -0.143505
v -0.121136 -0.000006 -0.121334
v -0.029891 0.002577 0.097417
v -0.038664 0.002019 0.076685
v -0.023397 0.000906 0.059225
v -0.011562 0.002212 0.101392
v -0.004786 0.000470 0.061579
v -0.012453 0.017042 0.101171
v -0.011562 0.002212 0.101392
v -0.005692 0.015084 0.061307
v -0.010453 0.031928 0.102306
v -0.002688 0.029627 0.056748
v -0.002688 0.029627 0.056748
v 0.002359 0.025329 0.107613
v -0.010453 0.031928 0.102306
v 0.012331 0.022882 0.062447
v 0.021519 0.001329 0.120052
v 0.034742 0.000043 0.064613
v 0.075326 -0.000501 0.129845
v 0.087235 -0.000537 0.077979
v 0.098510 -0.000885 0.105242
v -0.035162 0.225200 -0.170512
v -0.017451 0.220425 -0.148568
v -0.044114 0.151353 -0.143443
v -0.059581 0.155656 -0.157324
v -0.061628 0.100443 -0.140191
v -0.060460 0.233325 -0.172889
v -0.075866 0.103760 -0.152323
v -0.076974 0.161285 -0.158064
v -0.092581 0.167100 -0.145420
v -0.085767 0.242517 -0.152711
v -0.086996 0.244276 -0.123307
v -0.095080 0.169057 -0.124918
v -0.089789 0.109839 -0.151345
v -0.103668 0.115025 -0.141282
v -0.106124 0.117885 -0.122108
v -0.117298 0.095918 -0.119527
v -0.079039 0.086804 -0.155245
v -0.062957 0.088392 -0.140830
v -0.054202 0.069348 -0.149027
v -0.117085 0.093321 -0.139105
v -0.098203 0.088228 -0.153189
v -0.124680 0.070121 -0.142861
v -0.125550 0.071299 -0.115690
v -0.104827 0.067840 -0.157720
v -0.075767 0.065966 -0.163687
v -0.125158 0.037435 -0.141726
v -0.126010 0.038182 -0.118142
v -0.054319 0.042895 -0.181749
v -0.037138 0.050113 -0.158982
v -0.100145 0.029769 -0.153266
v -0.085754 0.044831 -0.163559
v -0.101433 0.014881 -0.151374
v -0.088652 0.023303 -0.161136
v -0.119369 0.016258 -0.142882
v -0.100204 0.000074 -0.151447
v -0.120341 0.016408 -0.121413
v -0.117199 0.000153 -0.143505
v -0.121136 -0.000006 -0.121334
v -0.070560 0.014977 -0.178449
v -0.072069 -0.000071 -0.176971
v -0.023215 0.016923 -0.197852
v -0.021744 -0.000924 -0.198442
v 0.006322 -0.001249 -0.179596
v 0.008023 0.015273 -0.180207
v -0.019789 0.029455 -0.192247
v -0.003905 0.033281 -0.173836
v 0.052968 0.230781 0.067793
v 0.039632 0.153117 0.060269
v 0.062888 0.221364 0.042675
v 0.029260 0.160395 0.077295
v 0.024682 0.102889 0.073025
v 0.029397 0.239611 0.076633
v 0.014959 0.108826 0.088229
v 0.012764 0.166326 0.082537
v -0.006365 0.169684 0.074787
v -0.001504 0.244891 0.064412
v -0.012231 0.240644 0.037281
v -0.015434 0.167463 0.056260
v 0.001167 0.114794 0.090663
v -0.015465 0.118035 0.084860
v -0.024113 0.116968 0.067368
v -0.033897 0.096482 0.071769
v 0.012946 0.090621 0.097066
v 0.024446 0.090218 0.078813
v 0.034780 0.070868 0.086979
v -0.006108 0.092222 0.099965
v -0.028254 0.096115 0.090807
v -0.012198 0.071199 0.107580
v -0.035134 0.073019 0.097726
v -0.042715 0.072453 0.071486
v 0.017468 0.068975 0.106586
v -0.037233 0.040014 0.096387
v -0.043292 0.040244 0.073568
v 0.040507 0.044019 0.120260
v 0.052304 0.050755 0.094169
v -0.010453 0.031928 0.102306
v 0.007575 0.048024 0.110387
v -0.012453 0.017042 0.101171
v 0.002359 0.025329 0.107613
v -0.031795 0.018718 0.096832
v -0.011562 0.002212 0.101392
v -0.037513 0.018402 0.076119
v -0.029891 0.002577 0.097417
v -0.038664 0.002019 0.076685
v 0.023536 0.016358 0.120979
v 0.021519 0.001329 0.120052
v 0.073890 0.017357 0.129675
v 0.075326 -0.000501 0.129845
v 0.098510 -0.000885 0.105242
v 0.100424 0.015622 0.105533
v 0.076079 0.029901 0.123506
v 0.087511 0.033741 0.102047
v -0.002637 0.231366 0.012381
v -0.015434 0.167463 0.056260
v -0.012231 0.240644 0.037281
v -0.007115 0.159816 0.035768
v 0.032270 0.219594 0.004306
v -0.017116 0.112406 0.053958
v -0.024113 0.116968 0.067368
v 0.014957 0.153417 0.034870
v 0.055227 0.216910 0.018009
v -0.025081 0.092793 0.054741
v -0.033897 0.096482 0.071769
v 0.001833 0.105572 0.050539
v 0.031957 0.150428 0.041583
v 0.062888 0.221364 0.042675
v 0.039632 0.153117 0.060269
v 0.024682 0.102889 0.073025
v 0.018996 0.104072 0.059655
v 0.018175 0.086694 0.060081
v 0.024446 0.090218 0.078813
v 0.034780 0.070868 0.086979
v -0.001219 0.087220 0.052546
v -0.006477 0.067800 0.052139
v 0.028367 0.066321 0.065106
v 0.052790 0.042463 0.070247
v 0.052304 0.050755 0.094169
v -0.028433 0.070436 0.050861
v -0.042715 0.072453 0.071486
v 0.018614 0.044748 0.061346
v -0.030067 0.037883 0.054446
v -0.043292 0.040244 0.073568
v -0.002688 0.029627 0.056748
v 0.012331 0.022882 0.062447
v -0.005692 0.015084 0.061307
v -0.025128 0.016798 0.057665
v -0.004786 0.000470 0.061579
v -0.037513 0.018402 0.076119
v -0.023397 0.000906 0.059225
v -0.038664 0.002019 0.076685
v 0.055019 0.014601 0.064254
v 0.034742 0.000043 0.064613
v 0.086766 0.016909 0.076777
v 0.087235 -0.000537 0.077979
v 0.085652 0.030189 0.084086
v 0.087511 0.033741 0.102047
v 0.100424 0.015622 0.105533
v 0.098510 -0.000885 0.105242
v -0.069667 0.239612 -0.101488
v -0.086996 0.244276 -0.123307
v -0.095080 0.169057 -0.124918
v -0.080418 0.165185 -0.107096
v -0.033857 0.227864 -0.102871
v -0.095068 0.115703 -0.111035
v -0.106124 0.117885 -0.122108
v -0.059163 0.157949 -0.112073
v -0.016582 0.221335 -0.122389
v -0.104059 0.094153 -0.105182
v -0.117298 0.095918 -0.119527
v -0.075937 0.108701 -0.112587
v -0.045236 0.152811 -0.123147
v -0.017451 0.220425 -0.148568
v -0.044114 0.151353 -0.143443
v -0.061628 0.100443 -0.140191
v -0.063262 0.104289 -0.122791
v -0.063769 0.087126 -0.120915
v -0.062957 0.088392 -0.140830
v -0.054202 0.069348 -0.149027
v -0.080372 0.088689 -0.108701
v -0.084872 0.069651 -0.104623
v -0.054913 0.066287 -0.126075
v -0.031214 0.042114 -0.135691
v -0.037138 0.050113 -0.158982
v -0.106571 0.070845 -0.099056
v -0.125550 0.071299 -0.115690
v -0.062886 0.045056 -0.118641
v -0.108814 0.036655 -0.102391
v -0.126010 0.038182 -0.118142
v -0.082411 0.028936 -0.110536
v -0.068849 0.022360 -0.119276
v -0.085948 0.014206 -0.113978
v -0.104132 0.015600 -0.106144
v -0.084722 -0.000386 -0.114109
v -0.120341 0.016408 -0.121413
v -0.102353 -0.000288 -0.107686
v -0.121136 -0.000006 -0.121334
v -0.027242 0.014354 -0.130107
v -0.046846 -0.000502 -0.125832
v 0.001076 0.016333 -0.149130
v 0.001373 -0.001104 -0.150510
v -0.001712 0.029637 -0.155932
v -0.003905 0.033281 -0.173836
v 0.008023 0.015273 -0.180207
v 0.006322 -0.001249 -0.179596
f 1 2 3
f 1 3 4
f 4 3 5
f 4 5 6
f 7 6 5
f 7 8 6
f 7 9 8
f 10 11 12
f 12 13 10
f 13 12 14
f 14 15 13
f 16 14 17
f 16 17 18
f 18 17 19
f 20 21 22
f 23 20 22
f 23 22 24
f 24 25 26
f 25 24 27
f 27 28 25
f 28 27 29
f 30 31 32
f 30 33 31
f 33 34 31
f 33 35 34
f 36 34 35
f 36 35 37
f 36 37 38
f 39 40 41
f 41 42 39
f 41 43 42
f 44 39 42
f 42 43 45
f 42 46 44
f 42 45 46
f 47 44 46
f 44 47 48
f 49 48 47
f 47 50 49
f 46 51 47
f 46 45 51
f 47 52 50
f 47 51 52
f 50 52 53
f 53 52 54
f 45 43 55
f 43 56 55
f 57 55 56
f 52 51 58
f 52 58 54
f 51 45 59
f 45 55 59
f 51 59 58
f 58 60 54
f 54 60 61
f 59 62 58
f 55 62 59
f 58 62 60
f 55 57 63
f 63 62 55
f 60 64 61
f 61 64 65
f 63 57 66
f 57 67 66
f 62 68 60
f 60 68 64
f 62 63 69
f 69 68 62
f 63 66 69
f 70 64 68
f 71 68 69
f 72 65 64
f 64 70 72
f 73 72 70
f 65 72 74
f 72 73 75
f 75 74 72
f 74 75 76
f 77 71 69
f 69 66 77
f 71 77 78
f 79 78 77
f 77 66 79
f 78 79 80
f 79 81 80
f 82 81 79
f 79 66 83
f 83 82 79
f 66 67 83
f 84 82 83
f 84 83 67
f 85 86 87
f 86 85 88
f 86 88 89
f 90 88 85
f 88 91 89
f 88 90 92
f 88 92 91
f 93 92 90
f 90 94 93
f 95 93 94
f 93 95 96
f 92 93 97
f 92 97 91
f 93 96 98
f 93 98 97
f 96 99 98
f 99 100 98
f 91 101 89
f 89 101 102
f 103 102 101
f 97 104 91
f 91 104 101
f 98 105 97
f 98 100 105
f 97 105 104
f 101 104 106
f 104 105 106
f 105 100 107
f 105 107 106
f 100 108 107
f 101 109 103
f 109 101 106
f 107 108 110
f 108 111 110
f 109 112 103
f 103 112 113
f 106 107 114
f 107 110 114
f 106 115 109
f 115 106 114
f 109 115 112
f 116 114 110
f 117 115 114
f 118 110 111
f 110 118 116
f 119 116 118
f 111 120 118
f 118 121 119
f 121 118 120
f 120 122 121
f 123 115 117
f 115 123 112
f 117 124 123
f 125 123 124
f 123 125 112
f 124 126 125
f 125 126 127
f 128 125 127
f 125 129 112
f 129 125 128
f 112 129 113
f 130 129 128
f 130 113 129
f 131 132 133
f 132 131 134
f 135 134 131
f 132 134 136
f 137 132 136
f 134 135 138
f 139 138 135
f 137 136 140
f 141 137 140
f 134 142 136
f 138 142 134
f 138 139 143
f 144 143 139
f 143 144 145
f 143 145 146
f 143 147 138
f 147 143 146
f 138 147 142
f 148 147 146
f 147 148 142
f 148 146 149
f 149 150 148
f 142 151 136
f 136 151 140
f 142 148 151
f 151 152 140
f 148 152 151
f 153 148 150
f 153 152 148
f 153 150 154
f 150 155 154
f 140 152 156
f 141 140 156
f 157 141 156
f 152 153 158
f 153 154 158
f 157 156 159
f 160 157 159
f 152 161 156
f 158 161 152
f 156 161 159
f 162 161 158
f 163 159 161
f 159 164 160
f 159 163 164
f 165 164 163
f 166 160 164
f 164 165 167
f 164 167 166
f 168 166 167
f 169 162 158
f 158 154 169
f 162 169 170
f 171 170 169
f 169 154 171
f 170 171 172
f 171 154 173
f 173 154 155
f 155 174 173
f 174 175 173
f 173 175 171
f 171 175 172
f 175 176 172
f 177 178 179
f 179 180 177
f 181 177 180
f 179 182 180
f 183 182 179
f 180 184 181
f 185 181 184
f 183 186 182
f 187 186 183
f 180 182 188
f 184 180 188
f 184 189 185
f 190 185 189
f 189 191 190
f 189 192 191
f 189 184 193
f 193 192 189
f 184 188 193
f 194 192 193
f 193 188 194
f 194 195 192
f 195 194 196
f 188 182 197
f 182 186 197
f 188 197 194
f 197 186 198
f 194 197 198
f 199 196 194
f 199 194 198
f 199 200 196
f 196 200 201
f 186 202 198
f 187 202 186
f 203 202 187
f 198 204 199
f 199 204 200
f 203 205 202
f 206 205 203
f 198 202 207
f 204 198 207
f 202 205 207
f 208 204 207
f 209 207 205
f 205 206 210
f 205 210 209
f 211 209 210
f 212 210 206
f 210 213 211
f 210 212 213
f 214 213 212
f 215 204 208
f 204 215 200
f 208 216 215
f 217 215 216
f 215 217 200
f 216 218 217
f 217 219 200
f 219 201 200
f 201 219 220
f 220 219 221
f 219 217 221
f 217 218 221
f 221 218 222
