v 0.122407 0.831368 0.228240
v 0.123319 0.829292 0.226578
v 0.122228 0.830002 0.224186
v 0.123841 0.827232 0.226739
v 0.122297 0.826851 0.223407
v 0.109080 0.831070 0.234416
v 0.106255 0.829643 0.231718
v 0.107346 0.828941 0.234110
v 0.105633 0.826485 0.230955
v 0.107009 0.826859 0.234464
v 0.061935 0.851265 0.189045
v 0.067748 0.843018 0.197805
v 0.060876 0.858376 0.199344
v 0.117638 0.852501 0.163249
v 0.126065 0.859818 0.169273
v 0.120974 0.844200 0.173188
v 0.121322 0.867271 0.244928
v 0.120853 0.853508 0.243298
v 0.133559 0.872192 0.236359
v 0.134539 0.857483 0.233919
v 0.138950 0.881073 0.222940
v 0.125559 0.843590 0.237665
v 0.120384 0.844688 0.241669
v 0.119024 0.843681 0.238851
v 0.139424 0.860405 0.221029
v 0.137479 0.871422 0.203979
v 0.137026 0.862236 0.203039
v 0.134233 0.858849 0.190411
v 0.139840 0.852882 0.224128
v 0.134154 0.847855 0.232201
v 0.140710 0.853989 0.216855
v 0.122813 0.842186 0.238419
v 0.121332 0.840637 0.237848
v 0.119293 0.840401 0.239276
v 0.119730 0.830505 0.239525
v 0.125058 0.843117 0.234655
v 0.133432 0.846062 0.230836
v 0.138444 0.849449 0.223469
v 0.122007 0.830475 0.237142
v 0.119646 0.828606 0.239613
v 0.123288 0.842049 0.236508
v 0.130997 0.846024 0.226316
v 0.125269 0.844757 0.228779
v 0.123198 0.842300 0.228826
v 0.135550 0.847778 0.221550
v 0.124884 0.842415 0.227061
v 0.124363 0.839897 0.226900
v 0.121664 0.841003 0.229725
v 0.122407 0.831368 0.228240
v 0.129453 0.842590 0.222984
v 0.123319 0.829292 0.226578
v 0.123841 0.827232 0.226739
v 0.134259 0.844383 0.217953
v 0.122444 0.828789 0.237391
v 0.123588 0.825295 0.227004
v 0.122297 0.826851 0.223407
v 0.122360 0.826347 0.237479
v 0.119646 0.825798 0.239613
v 0.118824 0.823906 0.237647
v 0.120679 0.824204 0.235705
v 0.117280 0.823547 0.234315
v 0.129706 0.838394 0.222720
v 0.122054 0.824280 0.227903
v 0.119672 0.824104 0.233224
v 0.119715 0.822388 0.227524
v 0.115283 0.821991 0.230043
v 0.114998 0.817925 0.228928
v 0.122128 0.824829 0.223584
v 0.120189 0.819153 0.225614
v 0.122687 0.823036 0.221585
v 0.120779 0.816643 0.224996
v 0.115267 0.814690 0.229353
v 0.124157 0.821442 0.217925
v 0.123951 0.827065 0.220261
v 0.118344 0.815010 0.220476
v 0.113538 0.813400 0.225507
v 0.122228 0.830002 0.224186
v 0.123319 0.829292 0.226578
v 0.123693 0.831963 0.224066
v 0.126602 0.826210 0.215365
v 0.129559 0.832802 0.220046
v 0.124278 0.816521 0.215678
v 0.118919 0.811035 0.219168
v 0.113169 0.809837 0.224480
v 0.110534 0.806450 0.218755
v 0.135461 0.833351 0.213867
v 0.125849 0.819893 0.212620
v 0.120863 0.815323 0.213597
v 0.135624 0.840019 0.217231
v 0.135745 0.846558 0.214983
v 0.130755 0.826607 0.208191
v 0.127804 0.817101 0.199970
v 0.124947 0.814880 0.207201
v 0.123092 0.814522 0.209143
v 0.121691 0.813416 0.212024
v 0.122339 0.808609 0.206397
v 0.115962 0.806686 0.214487
v 0.119114 0.800400 0.212601
v 0.110350 0.798355 0.218242
v 0.106608 0.792587 0.209434
v 0.121422 0.805924 0.200288
v 0.115657 0.794701 0.204910
v 0.100901 0.799950 0.197737
v 0.117206 0.802841 0.193391
v 0.122634 0.812607 0.189123
v 0.108047 0.808983 0.181773
v 0.096184 0.805824 0.187829
v 0.120478 0.815689 0.177948
v 0.117743 0.826325 0.171622
v 0.123820 0.825684 0.173037
v 0.120974 0.844200 0.173188
v 0.125416 0.838661 0.174899
v 0.128173 0.821655 0.189687
v 0.133126 0.833702 0.198639
v 0.129132 0.851196 0.178786
v 0.127145 0.845612 0.167435
v 0.130133 0.860466 0.162186
v 0.137748 0.839104 0.204404
v 0.137737 0.844978 0.211484
v 0.137216 0.853088 0.200013
v 0.132726 0.862694 0.184920
v 0.137210 0.878975 0.169622
v 0.136984 0.881142 0.163497
v 0.137658 0.851418 0.208032
v 0.137095 0.848824 0.213571
v 0.139682 0.850304 0.217224
v 0.136752 0.848404 0.217464
v 0.121322 0.867271 0.244928
v 0.106735 0.871597 0.248889
v 0.120853 0.853508 0.243298
v 0.104817 0.856819 0.248069
v 0.092380 0.880051 0.244123
v 0.114034 0.843330 0.243368
v 0.120384 0.844688 0.241669
v 0.119024 0.843681 0.238851
v 0.091674 0.859345 0.243449
v 0.079384 0.870132 0.230866
v 0.079537 0.860962 0.229999
v 0.071521 0.857460 0.219304
v 0.094045 0.851868 0.245208
v 0.103995 0.847191 0.246102
v 0.088006 0.852821 0.241633
v 0.116410 0.842041 0.241587
v 0.116800 0.840538 0.239765
v 0.119293 0.840401 0.239276
v 0.119730 0.830505 0.239525
v 0.111815 0.842819 0.240743
v 0.103357 0.845398 0.244649
v 0.094451 0.848465 0.244076
v 0.114308 0.841858 0.240254
v 0.116194 0.830345 0.239693
v 0.119646 0.828606 0.239613
v 0.101781 0.845375 0.239936
v 0.107072 0.844353 0.237225
v 0.108674 0.841972 0.235548
v 0.094878 0.846886 0.240094
v 0.106081 0.842011 0.235435
v 0.106419 0.839500 0.235081
v 0.110392 0.840744 0.235163
v 0.109080 0.831070 0.234416
v 0.100237 0.841942 0.236604
v 0.107346 0.828941 0.234110
v 0.107009 0.826859 0.234464
v 0.093249 0.843475 0.236851
v 0.115941 0.828651 0.239957
v 0.107784 0.824944 0.234359
v 0.105633 0.826485 0.230955
v 0.116379 0.826218 0.240206
v 0.119646 0.825798 0.239613
v 0.118824 0.823906 0.237647
v 0.116331 0.824097 0.238135
v 0.117280 0.823547 0.234315
v 0.099800 0.837730 0.236355
v 0.089866 0.845543 0.236151
v 0.092053 0.839058 0.237396
v 0.091041 0.847397 0.238456
v 0.088933 0.849175 0.240662
v 0.087711 0.847733 0.236287
v 0.083068 0.850205 0.233371
v 0.085792 0.843826 0.235468
v 0.077334 0.851761 0.228063
v 0.066252 0.849800 0.207855
v 0.068312 0.861267 0.214887
v 0.089497 0.832336 0.235124
v 0.080849 0.837845 0.230746
v 0.052729 0.858749 0.197977
v 0.053319 0.877113 0.208669
v 0.048645 0.879181 0.204373
v 0.059311 0.844109 0.198862
v 0.066125 0.837349 0.202332
v 0.079463 0.832520 0.223007
v 0.098203 0.832108 0.234493
v 0.088817 0.825668 0.228059
v 0.084485 0.816139 0.219870
v 0.076227 0.820511 0.213670
v 0.104975 0.831551 0.232352
v 0.106255 0.829643 0.231718
v 0.096611 0.825554 0.229090
v 0.066146 0.824410 0.199482
v 0.067748 0.843018 0.197805
v 0.069218 0.825241 0.194145
v 0.102250 0.826584 0.230256
v 0.095521 0.819222 0.226697
v 0.079922 0.811653 0.209096
v 0.072544 0.814629 0.199854
v 0.083784 0.808449 0.193035
v 0.087046 0.802170 0.207292
v 0.107346 0.828941 0.234110
v 0.100485 0.820923 0.228569
v 0.104237 0.822624 0.230296
v 0.106155 0.824471 0.231116
v 0.089291 0.805214 0.214839
v 0.100901 0.799950 0.197737
v 0.096184 0.805824 0.187829
v 0.096938 0.794289 0.213196
v 0.106608 0.792587 0.209434
v 0.100311 0.799988 0.220975
v 0.110350 0.798355 0.218242
v 0.110534 0.806450 0.218755
v 0.093291 0.807968 0.219841
v 0.103747 0.806419 0.220206
v 0.105070 0.810730 0.225183
v 0.113169 0.809837 0.224480
v 0.113538 0.813400 0.225507
v 0.092058 0.814148 0.222546
v 0.097765 0.812889 0.222933
v 0.106382 0.814751 0.225930
v 0.115267 0.814690 0.229353
v 0.098904 0.815956 0.227397
v 0.094904 0.813896 0.222394
v 0.099415 0.814850 0.223327
v 0.108042 0.816368 0.230555
v 0.114998 0.817925 0.228928
v 0.109001 0.818909 0.230964
v 0.110751 0.822189 0.231960
v 0.115283 0.821991 0.230043
v 0.109233 0.823998 0.233549
v 0.114887 0.823998 0.235406
v 0.068312 0.861267 0.214887
v 0.062109 0.866661 0.207950
v 0.053319 0.877113 0.208669
v 0.048645 0.879181 0.204373
v 0.052729 0.858749 0.197977
v 0.060876 0.858376 0.199344
v 0.067748 0.843018 0.197805
v 0.059311 0.844109 0.198862
v 0.066125 0.837349 0.202332
v 0.125416 0.838661 0.174899
v 0.120974 0.844200 0.173188
v 0.127145 0.845612 0.167435
v 0.130133 0.860466 0.162186
v 0.126065 0.859818 0.169273
v 0.131392 0.868195 0.175712
v 0.136984 0.881142 0.163497
v 0.137210 0.878975 0.169622
v 0.132726 0.862694 0.184920
f 1 2 3
f 2 4 5
f 6 7 8
f 8 9 10
f 11 12 13
f 14 15 16
f 17 18 19
f 18 20 19
f 21 19 20
f 18 22 20
f 18 23 22
f 24 22 23
f 20 25 21
f 26 21 25
f 27 26 25
f 28 26 27
f 29 25 20
f 30 20 22
f 20 30 29
f 31 27 25
f 29 31 25
f 24 32 22
f 24 33 32
f 33 24 34
f 33 34 35
f 22 36 30
f 32 36 22
f 29 30 37
f 30 36 37
f 31 29 38
f 38 29 37
f 35 39 33
f 39 35 40
f 32 33 41
f 36 32 41
f 42 37 36
f 41 43 36
f 42 36 43
f 41 44 43
f 44 41 33
f 37 45 38
f 42 45 37
f 46 43 44
f 42 43 46
f 46 44 47
f 44 33 48
f 44 48 47
f 49 48 33
f 48 49 47
f 49 33 39
f 50 42 46
f 46 47 50
f 49 39 51
f 39 52 51
f 42 50 53
f 53 45 42
f 52 39 54
f 40 54 39
f 54 55 52
f 55 56 52
f 40 57 54
f 55 54 57
f 57 40 58
f 57 58 59
f 59 60 57
f 57 60 55
f 60 59 61
f 53 50 62
f 62 50 47
f 63 55 60
f 61 64 60
f 63 60 64
f 61 65 64
f 64 65 63
f 65 61 66
f 67 65 66
f 55 63 68
f 63 65 68
f 68 56 55
f 65 67 69
f 68 65 69
f 70 56 68
f 68 69 70
f 71 69 67
f 67 72 71
f 70 69 73
f 73 69 71
f 56 70 74
f 70 73 74
f 75 71 72
f 75 72 76
f 77 56 74
f 56 77 78
f 77 74 79
f 49 77 79
f 47 49 79
f 74 80 79
f 74 73 80
f 79 81 47
f 81 79 80
f 47 81 62
f 82 73 71
f 82 71 75
f 83 75 76
f 76 84 83
f 83 84 85
f 86 62 81
f 81 80 86
f 80 73 87
f 87 73 82
f 88 82 75
f 83 88 75
f 62 86 89
f 62 89 53
f 53 89 90
f 53 90 45
f 91 86 80
f 91 80 87
f 87 92 91
f 93 87 82
f 92 87 93
f 88 94 82
f 82 94 93
f 88 83 95
f 88 95 94
f 93 94 96
f 95 96 94
f 96 92 93
f 95 83 97
f 97 96 95
f 85 97 83
f 85 98 97
f 96 97 98
f 98 85 99
f 98 99 100
f 96 98 101
f 92 96 101
f 100 102 98
f 101 98 102
f 100 103 102
f 102 104 101
f 104 102 103
f 105 92 101
f 105 101 104
f 103 106 104
f 106 103 107
f 106 108 104
f 104 108 105
f 109 108 106
f 108 109 110
f 110 105 108
f 111 110 109
f 110 111 112
f 105 110 113
f 113 92 105
f 112 113 110
f 113 114 92
f 114 113 112
f 115 114 112
f 115 112 116
f 91 92 114
f 116 117 115
f 114 118 91
f 118 114 115
f 91 118 86
f 118 119 86
f 119 89 86
f 119 90 89
f 120 118 115
f 118 120 119
f 115 117 121
f 121 117 122
f 123 122 117
f 115 121 28
f 28 120 115
f 27 120 28
f 120 27 124
f 124 119 120
f 124 27 31
f 119 125 90
f 125 119 124
f 124 31 126
f 126 125 124
f 126 31 38
f 127 90 125
f 126 127 125
f 126 38 127
f 90 127 45
f 38 45 127
f 128 129 130
f 130 129 131
f 132 131 129
f 130 131 133
f 130 133 134
f 135 134 133
f 131 132 136
f 137 136 132
f 138 136 137
f 139 138 137
f 140 131 136
f 141 133 131
f 131 140 141
f 142 136 138
f 140 136 142
f 135 133 143
f 135 143 144
f 144 145 135
f 144 146 145
f 133 141 147
f 143 133 147
f 140 148 141
f 141 148 147
f 142 149 140
f 149 148 140
f 143 150 144
f 147 150 143
f 146 144 151
f 151 152 146
f 153 147 148
f 150 147 154
f 153 154 147
f 150 154 155
f 155 144 150
f 148 149 156
f 153 148 156
f 153 157 154
f 157 155 154
f 157 158 155
f 155 159 144
f 155 158 159
f 160 144 159
f 160 151 144
f 159 158 160
f 161 157 153
f 157 161 158
f 160 162 151
f 151 162 163
f 153 164 161
f 164 153 156
f 163 165 151
f 152 151 165
f 165 163 166
f 166 163 167
f 152 165 168
f 166 168 165
f 168 169 152
f 168 170 169
f 170 168 171
f 168 166 171
f 171 172 170
f 164 173 161
f 173 158 161
f 164 156 174
f 173 164 175
f 164 174 175
f 174 156 176
f 149 176 156
f 177 176 149
f 177 149 142
f 176 178 174
f 177 178 176
f 179 177 142
f 177 179 178
f 179 142 138
f 180 174 178
f 180 175 174
f 178 179 180
f 181 179 138
f 179 181 180
f 138 139 181
f 139 182 181
f 182 139 183
f 180 184 175
f 173 175 184
f 185 180 181
f 181 182 185
f 185 184 180
f 182 183 186
f 183 187 186
f 188 186 187
f 189 182 186
f 182 189 190
f 185 182 191
f 182 190 191
f 184 192 173
f 158 173 192
f 193 184 185
f 191 193 185
f 193 191 194
f 191 190 195
f 195 194 191
f 196 158 192
f 158 196 160
f 160 196 197
f 192 184 198
f 193 198 184
f 192 198 196
f 190 199 195
f 199 190 200
f 200 201 199
f 197 196 202
f 202 196 198
f 193 203 198
f 203 193 194
f 204 195 199
f 195 204 194
f 205 199 201
f 199 205 204
f 201 206 205
f 207 204 205
f 206 207 205
f 197 202 167
f 167 208 197
f 202 198 209
f 198 203 209
f 167 202 210
f 210 202 209
f 210 211 167
f 211 166 167
f 204 207 212
f 204 212 194
f 213 207 206
f 206 214 213
f 207 213 215
f 215 212 207
f 216 215 213
f 216 217 215
f 212 215 217
f 217 216 218
f 217 218 219
f 194 212 220
f 220 212 217
f 219 221 217
f 220 217 221
f 219 222 221
f 222 219 223
f 224 222 223
f 220 225 194
f 194 225 203
f 221 226 220
f 226 221 222
f 222 224 227
f 227 224 228
f 225 229 203
f 203 229 209
f 225 220 230
f 226 230 220
f 229 225 230
f 231 226 222
f 231 230 226
f 222 227 231
f 231 229 230
f 231 227 229
f 227 228 232
f 229 227 232
f 229 232 209
f 233 232 228
f 209 232 234
f 232 233 234
f 210 209 234
f 211 210 234
f 235 234 233
f 211 234 235
f 233 236 235
f 235 236 172
f 237 211 235
f 166 211 237
f 237 171 166
f 172 238 235
f 238 237 235
f 237 238 171
f 172 171 238
f 239 240 241
f 241 240 242
f 243 242 240
f 240 244 243
f 244 245 243
f 243 245 246
f 247 246 245
f 248 249 250
f 251 250 249
f 252 251 249
f 253 251 252
f 251 253 254
f 255 254 253
f 256 255 253
