v -0.058032 0.398376 -0.236238
v -0.055540 0.400278 -0.237392
v -0.056554 0.413185 -0.227920
v -0.062102 0.401776 -0.228607
v -0.069544 0.406622 -0.225869
v -0.068808 0.416356 -0.223498
v -0.094234 0.358399 -0.223213
v -0.090742 0.356169 -0.224133
v -0.089141 0.354751 -0.227800
v -0.068808 0.416356 -0.223498
v -0.060926 0.415062 -0.234267
v -0.069544 0.406622 -0.225869
v -0.065514 0.403240 -0.233560
v -0.094234 0.358399 -0.223213
v -0.092674 0.356998 -0.226939
v -0.058032 0.398376 -0.236238
v -0.055540 0.400278 -0.237392
v -0.089141 0.354751 -0.227800
v -0.042276 0.424358 -0.239409
v -0.053430 0.417816 -0.228064
v -0.042779 0.420889 -0.240089
v -0.046347 0.427757 -0.231778
v -0.053789 0.432604 -0.229040
v -0.062205 0.428052 -0.224589
v -0.022761 0.476264 -0.237598
v -0.019269 0.474034 -0.238518
v -0.017668 0.472616 -0.242185
v -0.062205 0.428052 -0.224589
v -0.053789 0.432604 -0.229040
v -0.058366 0.419935 -0.235230
v -0.049759 0.429222 -0.236731
v -0.022761 0.476264 -0.237598
v -0.021201 0.474864 -0.241324
v -0.042276 0.424358 -0.239409
v -0.042779 0.420889 -0.240089
v -0.017668 0.472616 -0.242185
v -0.045721 0.409027 -0.233970
v -0.062058 0.420952 -0.217850
v -0.070226 0.415250 -0.222848
v -0.055540 0.400278 -0.237392
v -0.061459 0.430133 -0.224487
v -0.042779 0.420889 -0.240089
v -0.062058 0.420952 -0.217850
v -0.070226 0.415250 -0.222848
v -0.052486 0.411931 -0.243789
v -0.055540 0.400278 -0.237392
v -0.070000 0.424361 -0.229379
v -0.070000 0.424361 -0.229379
v -0.061459 0.430133 -0.224487
v -0.042779 0.420889 -0.240089
v -0.094234 0.358399 -0.223213
v -0.092674 0.356998 -0.226939
v -0.090742 0.356169 -0.224133
v -0.089141 0.354751 -0.227800
v -0.129638 0.460769 -0.168759
v -0.123854 0.464808 -0.165549
v -0.123362 0.471119 -0.170022
v -0.129178 0.467094 -0.173277
v -0.017668 0.472616 -0.242185
v -0.021201 0.474864 -0.241324
v -0.019269 0.474034 -0.238518
v -0.022761 0.476264 -0.237598
v -0.110043 0.456040 -0.168773
v -0.123362 0.471119 -0.170022
v -0.123822 0.464795 -0.165503
v -0.108887 0.471588 -0.179855
v -0.104480 0.451396 -0.179185
v -0.103735 0.461494 -0.186389
v -0.062058 0.420952 -0.217850
v -0.061459 0.430133 -0.224487
v -0.104480 0.451396 -0.179185
v -0.070226 0.415250 -0.222848
v -0.062058 0.420952 -0.217850
v -0.113761 0.444961 -0.184371
v -0.110043 0.456040 -0.168773
v -0.124326 0.446127 -0.176748
v -0.123822 0.464795 -0.165503
v -0.129638 0.460769 -0.168759
v -0.123171 0.461675 -0.187830
v -0.129178 0.467094 -0.173277
v -0.123362 0.471119 -0.170022
v -0.108887 0.471588 -0.179855
v -0.113016 0.455060 -0.191575
v -0.103735 0.461494 -0.186389
v -0.070000 0.424361 -0.229379
v -0.061459 0.430133 -0.224487
v -0.124326 0.446127 -0.176748
v -0.129638 0.460769 -0.168759
v -0.129178 0.467094 -0.173277
v -0.123171 0.461675 -0.187830
v -0.113761 0.444961 -0.184371
v -0.113016 0.455060 -0.191575
v -0.070226 0.415250 -0.222848
v -0.070000 0.424361 -0.229379
v -0.044245 0.392363 -0.247802
v -0.045721 0.409027 -0.233970
v -0.055540 0.400278 -0.237392
v -0.035462 0.401386 -0.245227
v -0.042779 0.420889 -0.240089
v -0.031934 0.412664 -0.250280
v 0.153544 0.276273 -0.418395
v 0.150716 0.267788 -0.414787
v 0.144210 0.260881 -0.416517
v 0.176700 0.248647 -0.442516
v -0.044245 0.392363 -0.247802
v -0.055540 0.400278 -0.237392
v -0.052486 0.411931 -0.243789
v -0.040717 0.403641 -0.252856
v -0.042779 0.420889 -0.240089
v -0.031934 0.412664 -0.250280
v 0.153544 0.276273 -0.418395
v 0.147038 0.269366 -0.420126
v 0.144210 0.260881 -0.416517
v 0.176700 0.248647 -0.442516
f 1 2 3
f 3 4 1
f 4 3 5
f 6 5 3
f 5 7 4
f 8 4 7
f 4 8 1
f 9 1 8
f 10 11 12
f 13 12 11
f 12 13 14
f 15 14 13
f 11 16 13
f 13 16 15
f 16 11 17
f 18 15 16
f 19 20 21
f 20 19 22
f 22 23 20
f 24 20 23
f 23 22 25
f 26 25 22
f 22 19 26
f 27 26 19
f 28 29 30
f 31 30 29
f 29 32 31
f 33 31 32
f 30 31 34
f 31 33 34
f 34 35 30
f 36 34 33
f 37 38 39
f 39 40 37
f 41 37 42
f 37 41 43
f 44 45 46
f 45 44 47
f 45 48 49
f 49 50 45
f 51 52 53
f 54 53 52
f 55 56 57
f 57 58 55
f 59 60 61
f 62 61 60
f 63 64 65
f 64 63 66
f 67 66 63
f 66 67 68
f 69 68 67
f 68 69 70
f 71 72 73
f 72 71 74
f 75 74 71
f 74 75 76
f 77 76 75
f 76 77 78
f 79 80 81
f 81 82 79
f 83 79 82
f 82 84 83
f 85 83 84
f 84 86 85
f 87 88 89
f 89 90 87
f 91 87 90
f 90 92 91
f 93 91 92
f 92 94 93
f 95 96 97
f 96 95 98
f 98 99 96
f 99 98 100
f 98 101 100
f 95 102 98
f 101 98 102
f 102 95 103
f 102 104 101
f 103 104 102
f 105 106 107
f 107 108 105
f 108 107 109
f 109 110 108
f 108 110 111
f 105 108 112
f 111 112 108
f 112 113 105
f 112 111 114
f 113 112 114
