v -0.010762 0.002174 0.100889
v -0.023145 0.000839 0.058088
v -0.003835 0.000320 0.061104
v -0.029672 0.002594 0.096620
v -0.039354 0.002258 0.077736
v -0.117466 0.000130 -0.143667
v -0.102138 -0.000381 -0.107565
v -0.122351 0.000130 -0.123122
v -0.099476 0.000015 -0.152183
v -0.084052 -0.000557 -0.114742
v -0.019645 -0.000931 -0.199297
v 0.009302 -0.001259 -0.178005
v 0.001622 -0.001396 -0.148692
v -0.033590 -0.000633 -0.127799
v -0.057165 -0.000153 -0.183256
v -0.067305 0.009918 -0.120109
v -0.085540 0.010231 -0.162610
v -0.080867 0.013435 -0.111300
v -0.098634 0.014267 -0.154080
v -0.098634 0.014267 -0.154080
v -0.080867 0.013435 -0.111300
v -0.084052 -0.000557 -0.114742
v -0.099476 0.000015 -0.152183
v 0.076469 -0.000511 0.129366
v 0.085797 -0.000809 0.075334
v 0.099971 -0.000893 0.102218
v 0.047661 -0.000259 0.062414
v 0.037241 0.001083 0.121665
v 0.013873 0.010460 0.062277
v 0.005401 0.012245 0.107803
v -0.001220 0.014145 0.056632
v -0.009196 0.016449 0.102245
v -0.009196 0.016449 0.102245
v -0.003835 0.000320 0.061104
v -0.001220 0.014145 0.056632
v -0.010762 0.002174 0.100889
v 0.068020 0.258835 0.059603
v 0.011851 0.273239 0.054590
v 0.044081 0.267601 0.067078
v 0.083304 0.251915 0.033903
v 0.002165 0.268860 0.028852
v 0.070279 0.244957 0.009384
v 0.011613 0.259552 0.003694
v 0.046763 0.247688 -0.004466
v 0.002165 0.268860 0.028852
v -0.041589 0.205437 0.046688
v 0.011851 0.273239 0.054590
v -0.023037 0.209160 0.079988
v 0.044081 0.267601 0.067078
v 0.026826 0.200478 0.099406
v 0.068020 0.258835 0.059603
v 0.053666 0.189232 0.084624
v 0.083304 0.251915 0.033903
v 0.068617 0.177147 0.054297
v 0.070279 0.244957 0.009384
v 0.057198 0.172463 0.024890
v 0.046763 0.247688 -0.004466
v 0.028808 0.175514 0.004537
v 0.011613 0.259552 0.003694
v -0.024422 0.192619 0.013142
v 0.002165 0.268860 0.028852
v -0.041589 0.205437 0.046688
v -0.071196 0.272774 -0.126560
v -0.070272 0.271454 -0.154531
v -0.116955 0.209442 -0.116167
v -0.110844 0.205536 -0.153690
v -0.043862 0.261803 -0.175279
v -0.069603 0.190598 -0.186032
v -0.018822 0.253449 -0.174267
v -0.039202 0.181122 -0.178552
v 0.003245 0.249939 -0.153337
v -0.015332 0.174484 -0.152979
v 0.000339 0.249672 -0.125713
v -0.015975 0.176308 -0.121112
v -0.017332 0.256287 -0.105961
v -0.036528 0.184799 -0.093809
v -0.053459 0.268127 -0.104584
v -0.089969 0.202606 -0.088125
v -0.071196 0.272774 -0.126560
v -0.116955 0.209442 -0.116167
v -0.018822 0.253449 -0.174267
v -0.043862 0.261803 -0.175279
v -0.070272 0.271454 -0.154531
v 0.003245 0.249939 -0.153337
v -0.071196 0.272774 -0.126560
v 0.000339 0.249672 -0.125713
v -0.053459 0.268127 -0.104584
v -0.017332 0.256287 -0.105961
v -0.061448 0.161621 0.056440
v -0.010981 0.240631 0.036652
v -0.045224 0.147057 0.016598
v -0.001515 0.231354 0.011738
v 0.013933 0.136375 0.015521
v 0.033643 0.219582 0.003699
v 0.045545 0.130615 0.026218
v 0.056655 0.216896 0.017341
v 0.056621 0.136726 0.064462
v 0.064305 0.221352 0.042002
v 0.036821 0.151833 0.102236
v 0.054370 0.230766 0.067194
v 0.009666 0.162041 0.112636
v 0.030527 0.239601 0.076009
v -0.043839 0.166962 0.097028
v -0.000216 0.244881 0.063781
v -0.061448 0.161621 0.056440
v -0.010981 0.240631 0.036652
v -0.085206 0.244270 -0.123960
v -0.083900 0.242508 -0.153427
v -0.138042 0.165649 -0.109876
v -0.134866 0.161949 -0.154164
v -0.058916 0.233315 -0.173584
v -0.089588 0.151260 -0.184838
v -0.033284 0.225189 -0.171146
v -0.060495 0.141907 -0.181915
v -0.015556 0.220413 -0.149291
v -0.028845 0.133530 -0.150292
v -0.014645 0.221329 -0.123043
v -0.026449 0.135674 -0.110200
v -0.032333 0.227852 -0.103534
v -0.053469 0.145088 -0.091120
v -0.067973 0.239601 -0.102192
v -0.109600 0.158424 -0.075208
v -0.085206 0.244270 -0.123960
v -0.138042 0.165649 -0.109876
v -0.009950 0.209740 0.044165
v -0.088230 0.112381 0.065222
v -0.004450 0.213821 0.066166
v -0.068099 0.120819 0.106853
v 0.023779 0.208885 0.077474
v -0.005130 0.121338 0.124716
v 0.048196 0.200172 0.069842
v 0.028330 0.114349 0.113495
v 0.051550 0.193588 0.048427
v 0.048573 0.098824 0.075077
v 0.052083 0.186668 0.021831
v 0.033540 0.093376 0.036261
v 0.026890 0.191063 0.011896
v 0.002824 0.092850 0.024398
v 0.002078 0.198502 0.014049
v -0.067268 0.100372 0.023203
v -0.009950 0.209740 0.044165
v -0.088230 0.112381 0.065222
v -0.086250 0.212502 -0.124864
v -0.088394 0.211861 -0.147841
v -0.166241 0.115585 -0.100380
v -0.160284 0.115990 -0.146826
v -0.065252 0.203316 -0.166396
v -0.106590 0.109787 -0.183002
v -0.039717 0.195046 -0.165297
v -0.071262 0.103439 -0.181874
v -0.028991 0.192627 -0.145509
v -0.039577 0.094749 -0.149764
v -0.020261 0.191101 -0.119457
v -0.040972 0.097870 -0.107930
v -0.040630 0.198647 -0.103182
v -0.065894 0.101303 -0.086921
v -0.064788 0.206810 -0.098750
v -0.132868 0.110214 -0.065210
v -0.086250 0.212502 -0.124864
v -0.166241 0.115585 -0.100380
v -0.102253 0.052887 0.074431
v -0.027234 0.167114 0.055690
v -0.080804 0.045036 0.032377
v -0.016144 0.156418 0.026131
v -0.007426 0.053902 0.031623
v 0.017079 0.146240 0.025208
v 0.034460 0.062790 0.049046
v 0.033400 0.144081 0.034313
v 0.042701 0.075096 0.088717
v 0.044147 0.147949 0.061199
v 0.018927 0.081223 0.125676
v 0.029263 0.158417 0.085646
v -0.022681 0.079575 0.139320
v 0.014186 0.164810 0.093830
v -0.086036 0.064911 0.116099
v -0.013547 0.169640 0.082609
v -0.102253 0.052887 0.074431
v -0.027234 0.167114 0.055690
v -0.182357 0.053246 -0.099832
v -0.149957 0.050117 -0.064592
v -0.105582 0.169380 -0.121392
v -0.085590 0.164192 -0.095294
v -0.079408 0.058250 -0.084235
v -0.053362 0.152657 -0.103244
v -0.045210 0.063889 -0.112398
v -0.041089 0.147919 -0.116366
v -0.047198 0.073441 -0.153622
v -0.039766 0.145821 -0.145590
v -0.079247 0.076767 -0.183991
v -0.061764 0.152008 -0.165546
v -0.124421 0.071342 -0.185879
v -0.079178 0.157463 -0.169432
v -0.178286 0.060150 -0.145286
v -0.101850 0.165825 -0.151156
v -0.182357 0.053246 -0.099832
v -0.105582 0.169380 -0.121392
v 0.026269 0.119156 0.050859
v 0.033594 0.122246 0.071015
v 0.028034 0.086678 0.082185
v 0.018405 0.087212 0.064031
v -0.013724 0.129410 0.046151
v 0.023442 0.072693 0.065994
v 0.034124 0.072586 0.085174
v -0.021780 0.092628 0.056644
v -0.022741 0.136025 0.063689
v -0.032720 0.094963 0.074688
v -0.025746 0.076294 0.055950
v -0.039617 0.078209 0.074083
v 0.054536 0.044685 0.069507
v 0.054254 0.052963 0.092781
v 0.015681 0.045387 0.060189
v -0.028774 0.015450 0.054700
v -0.045347 0.017601 0.076087
v -0.023145 0.000839 0.058088
v -0.039354 0.002258 0.077736
v -0.003835 0.000320 0.061104
v -0.001220 0.014145 0.056632
v 0.013873 0.010460 0.062277
v 0.049609 0.017181 0.062274
v 0.047661 -0.000259 0.062414
v 0.087692 0.017380 0.074464
v 0.085797 -0.000809 0.075334
v 0.099971 -0.000893 0.102218
v 0.101954 0.015617 0.102565
v 0.087253 0.040253 0.081961
v 0.084602 0.043900 0.099531
v 0.021272 0.129433 0.090260
v 0.028034 0.086678 0.082185
v 0.033594 0.122246 0.071015
v 0.014563 0.089363 0.099066
v -0.014424 0.138092 0.084018
v 0.017757 0.074646 0.102630
v 0.034124 0.072586 0.085174
v -0.025933 0.094910 0.094148
v -0.022741 0.136025 0.063689
v -0.032720 0.094963 0.074688
v -0.031708 0.078346 0.095543
v -0.039617 0.078209 0.074083
v 0.046205 0.045670 0.116981
v 0.054254 0.052963 0.092781
v 0.008977 0.048012 0.109871
v -0.036038 0.017578 0.096589
v -0.045347 0.017601 0.076087
v -0.029672 0.002594 0.096620
v -0.039354 0.002258 0.077736
v -0.010762 0.002174 0.100889
v -0.009196 0.016449 0.102245
v 0.005401 0.012245 0.107803
v 0.039268 0.018959 0.122621
v 0.037241 0.001083 0.121665
v 0.077461 0.017296 0.129540
v 0.076469 -0.000511 0.129366
v 0.099971 -0.000893 0.102218
v 0.101954 0.015617 0.102565
v 0.080458 0.040154 0.123572
v 0.084602 0.043900 0.099531
v 0.026269 0.119156 0.050859
v 0.033594 0.122246 0.071015
v 0.037647 0.080132 0.086511
v 0.028848 0.077034 0.059485
v 0.045215 0.064713 0.089638
v 0.035200 0.059082 0.066126
v -0.000148 0.078690 0.044317
v -0.013724 0.129410 0.046151
v -0.003917 0.059914 0.039570
v 0.019853 0.039429 0.056951
v 0.001247 0.032875 0.036506
v -0.030769 0.081703 0.047378
v -0.022741 0.136025 0.063689
v -0.047106 0.085968 0.072052
v -0.036894 0.066536 0.043902
v -0.036670 0.022964 0.040215
v -0.053977 0.070030 0.071812
v -0.056456 0.021255 0.071379
v 0.021272 0.129433 0.090260
v 0.037647 0.080132 0.086511
v 0.033594 0.122246 0.071015
v 0.017673 0.084450 0.108265
v 0.045215 0.064713 0.089638
v 0.026545 0.062256 0.109095
v -0.007266 0.090645 0.115446
v -0.014424 0.138092 0.084018
v -0.014594 0.070244 0.122460
v 0.008858 0.043663 0.115019
v -0.017433 0.036102 0.130619
v -0.035688 0.092751 0.101459
v -0.022741 0.136025 0.063689
v -0.047106 0.085968 0.072052
v -0.046705 0.071808 0.104823
v -0.047842 0.026207 0.109433
v -0.053977 0.070030 0.071812
v -0.056456 0.021255 0.071379
v -0.070276 0.123131 -0.161384
v -0.052525 0.119278 -0.146017
v -0.060318 0.084419 -0.145456
v -0.077893 0.085258 -0.158388
v -0.102438 0.134720 -0.145728
v -0.075138 0.071815 -0.160912
v -0.054623 0.071121 -0.147947
v -0.115509 0.091675 -0.143686
v -0.103313 0.137131 -0.123881
v -0.116506 0.094009 -0.123543
v -0.120822 0.075539 -0.142691
v -0.123593 0.076813 -0.119973
v -0.048188 0.044617 -0.180965
v -0.034869 0.052322 -0.159160
v -0.123753 0.014969 -0.142603
v -0.128046 0.015381 -0.120631
v -0.084663 0.044815 -0.164020
v -0.117466 0.000130 -0.143667
v -0.122351 0.000130 -0.123122
v -0.099476 0.000015 -0.152183
v -0.098634 0.014267 -0.154080
v -0.085540 0.010231 -0.162610
v -0.055800 0.017738 -0.184700
v -0.057165 -0.000153 -0.183256
v -0.019176 0.016884 -0.199576
v -0.019645 -0.000931 -0.199297
v 0.009302 -0.001259 -0.178005
v 0.010719 0.015259 -0.178719
v -0.014877 0.039734 -0.194256
v -0.005427 0.043404 -0.171805
v -0.052922 0.120613 -0.124326
v -0.060318 0.084419 -0.145456
v -0.052525 0.119278 -0.146017
v -0.064290 0.087112 -0.125833
v -0.089528 0.133659 -0.109208
v -0.059968 0.072449 -0.127001
v -0.054623 0.071121 -0.147947
v -0.101252 0.093674 -0.108853
v -0.103313 0.137131 -0.123881
v -0.116506 0.094009 -0.123543
v -0.105912 0.076279 -0.105580
v -0.123593 0.076813 -0.119973
v -0.029325 0.044327 -0.136550
v -0.034869 0.052322 -0.159160
v -0.107702 0.014191 -0.103248
v -0.128046 0.015381 -0.120631
v -0.065651 0.045692 -0.117535
v -0.102138 -0.000381 -0.107565
v -0.122351 0.000130 -0.123122
v -0.084052 -0.000557 -0.114742
v -0.080867 0.013435 -0.111300
v -0.067305 0.009918 -0.120109
v -0.031660 0.016838 -0.128183
v -0.033590 -0.000633 -0.127799
v 0.003126 0.016800 -0.148188
v 0.001622 -0.001396 -0.148692
v 0.009302 -0.001259 -0.178005
v 0.010719 0.015259 -0.178719
v 0.001157 0.039703 -0.155145
v -0.005427 0.043404 -0.171805
v -0.052922 0.120613 -0.124326
v -0.051876 0.078545 -0.150592
v -0.052525 0.119278 -0.146017
v -0.053269 0.077248 -0.122343
v -0.044798 0.063103 -0.154284
v -0.048359 0.059044 -0.128938
v -0.076226 0.081146 -0.101231
v -0.089528 0.133659 -0.109208
v -0.078596 0.063232 -0.093350
v -0.061057 0.040039 -0.114929
v -0.074630 0.032784 -0.092657
v -0.108690 0.082184 -0.096568
v -0.103313 0.137131 -0.123881
v -0.130705 0.084572 -0.116768
v -0.113166 0.067329 -0.090739
v -0.111964 0.021950 -0.087643
v -0.136852 0.068726 -0.113756
v -0.138305 0.018921 -0.113529
v -0.070276 0.123131 -0.161384
v -0.052525 0.119278 -0.146017
v -0.051876 0.078545 -0.150592
v -0.077081 0.079323 -0.167503
v -0.044798 0.063103 -0.154284
v -0.067367 0.059158 -0.168569
v -0.103095 0.084854 -0.168445
v -0.102438 0.134720 -0.145728
v -0.111194 0.065796 -0.172145
v -0.085492 0.040154 -0.168733
v -0.113747 0.032921 -0.180406
v -0.126583 0.088783 -0.147906
v -0.103313 0.137131 -0.123881
v -0.130705 0.084572 -0.116768
v -0.137819 0.068275 -0.147587
v -0.138187 0.022972 -0.152701
v -0.136852 0.068726 -0.113756
v -0.138305 0.018921 -0.113529
f 1 2 3
f 1 4 2
f 4 5 2
f 6 7 8
f 9 7 6
f 9 10 7
f 11 12 13
f 11 13 14
f 11 14 15
f 16 15 14
f 16 17 15
f 18 17 16
f 18 19 17
f 20 21 22
f 22 23 20
f 24 25 26
f 24 27 25
f 24 28 27
f 29 27 28
f 29 28 30
f 31 29 30
f 31 30 32
f 33 34 35
f 34 33 36
f 37 38 39
f 37 40 38
f 38 40 41
f 41 40 42
f 43 41 42
f 43 42 44
f 45 46 47
f 48 47 46
f 47 48 49
f 50 49 48
f 49 50 51
f 52 51 50
f 51 52 53
f 54 53 52
f 53 54 55
f 56 55 54
f 55 56 57
f 58 57 56
f 57 58 59
f 60 59 58
f 59 60 61
f 62 61 60
f 63 64 65
f 66 65 64
f 64 67 66
f 68 66 67
f 67 69 68
f 70 68 69
f 69 71 70
f 72 70 71
f 71 73 72
f 74 72 73
f 73 75 74
f 76 74 75
f 75 77 76
f 78 76 77
f 77 79 78
f 80 78 79
f 81 82 83
f 81 83 84
f 83 85 84
f 85 86 84
f 87 86 85
f 87 88 86
f 89 90 91
f 92 91 90
f 91 92 93
f 94 93 92
f 93 94 95
f 96 95 94
f 95 96 97
f 98 97 96
f 97 98 99
f 100 99 98
f 99 100 101
f 102 101 100
f 101 102 103
f 104 103 102
f 103 104 105
f 106 105 104
f 107 108 109
f 110 109 108
f 108 111 110
f 112 110 111
f 111 113 112
f 114 112 113
f 113 115 114
f 116 114 115
f 115 117 116
f 118 116 117
f 117 119 118
f 120 118 119
f 119 121 120
f 122 120 121
f 121 123 122
f 124 122 123
f 125 126 127
f 128 127 126
f 127 128 129
f 130 129 128
f 129 130 131
f 132 131 130
f 131 132 133
f 134 133 132
f 133 134 135
f 136 135 134
f 135 136 137
f 138 137 136
f 137 138 139
f 140 139 138
f 139 140 141
f 142 141 140
f 143 144 145
f 146 145 144
f 144 147 146
f 148 146 147
f 147 149 148
f 150 148 149
f 149 151 150
f 152 150 151
f 151 153 152
f 154 152 153
f 153 155 154
f 156 154 155
f 155 157 156
f 158 156 157
f 157 159 158
f 160 158 159
f 161 162 163
f 164 163 162
f 163 164 165
f 166 165 164
f 165 166 167
f 168 167 166
f 167 168 169
f 170 169 168
f 169 170 171
f 172 171 170
f 171 172 173
f 174 173 172
f 173 174 175
f 176 175 174
f 175 176 177
f 178 177 176
f 179 180 181
f 182 181 180
f 180 183 182
f 184 182 183
f 183 185 184
f 186 184 185
f 185 187 186
f 188 186 187
f 187 189 188
f 190 188 189
f 189 191 190
f 192 190 191
f 191 193 192
f 194 192 193
f 193 195 194
f 196 194 195
f 197 198 199
f 199 200 197
f 201 197 200
f 199 202 200
f 202 199 203
f 200 204 201
f 205 201 204
f 204 206 205
f 200 207 204
f 206 204 207
f 207 200 202
f 207 208 206
f 202 203 209
f 203 210 209
f 207 202 211
f 202 209 211
f 208 207 212
f 211 212 207
f 212 213 208
f 214 213 212
f 213 214 215
f 212 216 214
f 216 212 217
f 212 211 217
f 218 217 211
f 219 218 211
f 211 209 219
f 218 219 220
f 221 220 219
f 219 209 221
f 220 221 222
f 221 223 222
f 224 223 221
f 221 209 225
f 225 224 221
f 209 210 225
f 226 224 225
f 226 225 210
f 227 228 229
f 228 227 230
f 231 230 227
f 228 230 232
f 232 233 228
f 230 231 234
f 235 234 231
f 234 235 236
f 230 234 237
f 236 237 234
f 237 232 230
f 237 236 238
f 232 239 233
f 233 239 240
f 237 241 232
f 232 241 239
f 238 242 237
f 241 237 242
f 242 238 243
f 244 242 243
f 243 245 244
f 242 244 246
f 246 247 242
f 242 247 241
f 248 241 247
f 249 241 248
f 241 249 239
f 248 250 249
f 251 249 250
f 249 251 239
f 250 252 251
f 251 252 253
f 254 251 253
f 251 255 239
f 255 251 254
f 239 255 240
f 256 255 254
f 256 240 255
f 257 258 259
f 259 260 257
f 261 260 259
f 260 261 262
f 260 263 257
f 264 257 263
f 262 265 260
f 260 265 263
f 265 262 266
f 266 267 265
f 263 268 264
f 263 265 268
f 269 264 268
f 268 270 269
f 265 267 271
f 268 265 271
f 268 271 270
f 271 267 272
f 270 271 273
f 271 272 274
f 273 271 274
f 275 276 277
f 276 275 278
f 279 276 278
f 278 280 279
f 278 275 281
f 282 281 275
f 280 278 283
f 278 281 283
f 283 284 280
f 284 283 285
f 281 282 286
f 281 286 283
f 287 286 282
f 286 287 288
f 283 289 285
f 286 289 283
f 286 288 289
f 289 290 285
f 288 291 289
f 289 292 290
f 291 292 289
f 293 294 295
f 295 296 293
f 297 293 296
f 295 298 296
f 298 295 299
f 296 300 297
f 301 297 300
f 300 302 301
f 296 303 300
f 302 300 303
f 303 296 298
f 303 304 302
f 298 299 305
f 299 306 305
f 304 303 307
f 307 308 304
f 303 298 309
f 298 305 309
f 309 307 303
f 310 308 307
f 308 310 311
f 307 312 310
f 312 307 313
f 307 309 313
f 314 313 309
f 315 314 309
f 309 305 315
f 314 315 316
f 317 316 315
f 315 305 317
f 316 317 318
f 317 319 318
f 320 319 317
f 317 305 321
f 321 320 317
f 305 306 321
f 322 320 321
f 322 321 306
f 323 324 325
f 324 323 326
f 327 326 323
f 324 326 328
f 328 329 324
f 326 327 330
f 331 330 327
f 330 331 332
f 326 330 333
f 332 333 330
f 333 328 326
f 333 332 334
f 328 335 329
f 329 335 336
f 334 337 333
f 337 334 338
f 333 339 328
f 328 339 335
f 339 333 337
f 340 337 338
f 338 341 340
f 337 340 342
f 342 343 337
f 337 343 339
f 344 339 343
f 345 339 344
f 339 345 335
f 344 346 345
f 347 345 346
f 345 347 335
f 346 348 347
f 347 348 349
f 350 347 349
f 347 351 335
f 351 347 350
f 335 351 336
f 352 351 350
f 352 336 351
f 353 354 355
f 354 353 356
f 357 354 356
f 356 358 357
f 356 353 359
f 360 359 353
f 358 356 361
f 356 359 361
f 361 362 358
f 362 361 363
f 359 360 364
f 359 364 361
f 365 364 360
f 364 365 366
f 361 367 363
f 364 367 361
f 364 366 367
f 367 368 363
f 366 369 367
f 367 370 368
f 369 370 367
f 371 372 373
f 373 374 371
f 375 374 373
f 374 375 376
f 374 377 371
f 378 371 377
f 376 379 374
f 374 379 377
f 379 376 380
f 380 381 379
f 377 382 378
f 377 379 382
f 383 378 382
f 382 384 383
f 379 381 385
f 382 379 385
f 382 385 384
f 385 381 386
f 384 385 387
f 385 386 388
f 387 385 388
