v 0.007542 0.599129 0.062733
v -0.059760 0.591339 0.073085
v -0.023120 0.603020 0.085624
v 0.013567 0.592354 0.044431
v -0.069806 0.582390 0.055940
v -0.061095 0.575325 0.034140
v 0.007338 0.583794 0.025909
v -0.028042 0.572266 0.010466
v -0.031658 0.568375 -0.202961
v -0.026855 0.559845 -0.183847
v -0.039140 0.527008 -0.191285
v -0.050555 0.533318 -0.213839
v -0.046676 0.576592 -0.214363
v -0.050156 0.488724 -0.201507
v -0.084431 0.584938 -0.215194
v -0.058811 0.493591 -0.219731
v -0.052732 0.485931 -0.203279
v -0.083786 0.536781 -0.213037
v -0.107591 0.576973 -0.183297
v -0.104888 0.533829 -0.186551
v -0.106631 0.568527 -0.163172
v -0.088590 0.496941 -0.218566
v -0.065204 0.490189 -0.220127
v -0.087327 0.492058 -0.214618
v -0.063540 0.473045 -0.231017
v -0.048054 0.476173 -0.206309
v -0.047031 0.459465 -0.212501
v -0.085821 0.527130 -0.166506
v -0.087586 0.559624 -0.150224
v -0.097473 0.489784 -0.178763
v -0.109410 0.495987 -0.201769
v -0.104554 0.492722 -0.195510
v -0.092099 0.487618 -0.178905
v -0.118247 0.458595 -0.202112
v -0.100215 0.456070 -0.182849
v -0.051773 0.446381 -0.230763
v -0.048563 0.456551 -0.213370
v -0.053866 0.446945 -0.225839
v -0.061861 0.438683 -0.214493
v -0.074070 0.450310 -0.241274
v -0.100076 0.457481 -0.228509
v -0.116768 0.440071 -0.201973
v -0.121936 0.440323 -0.205762
v -0.107912 0.430031 -0.228557
v -0.083871 0.424820 -0.241425
v -0.079006 0.424309 -0.235044
v -0.067928 0.426941 -0.223970
v -0.106699 0.440117 -0.191316
v -0.077168 0.418594 -0.229914
v -0.099993 0.428856 -0.220560
v -0.067306 0.418892 -0.215325
v -0.115514 0.431809 -0.198147
v -0.098425 0.439018 -0.185181
v -0.097242 0.422958 -0.216352
v -0.073177 0.408768 -0.215270
v -0.088771 0.415573 -0.200685
v -0.105669 0.429466 -0.183803
v -0.068381 0.409859 -0.209863
v -0.099996 0.430458 -0.179805
v -0.091388 0.442604 -0.182628
v -0.088975 0.438973 -0.176315
v -0.084020 0.416344 -0.195886
v -0.088975 0.438973 -0.176315
v -0.073328 0.425118 -0.190170
v -0.063890 0.437691 -0.188279
v -0.054513 0.426277 -0.200826
v -0.060037 0.418869 -0.202753
v -0.063068 0.423630 -0.210857
v -0.058510 0.430519 -0.208738
v -0.053866 0.446945 -0.225839
v -0.048563 0.456551 -0.213370
v -0.046057 0.451225 -0.212572
v -0.052664 0.443008 -0.222744
v -0.061861 0.438683 -0.214493
v -0.043206 0.443123 -0.200171
v -0.045794 0.432816 -0.208919
v -0.043466 0.439613 -0.196970
v -0.054587 0.433136 -0.208653
v -0.046036 0.429794 -0.205475
v -0.058836 0.430458 -0.186073
v -0.060604 0.424439 -0.190229
v -0.067154 0.427765 -0.192817
v -0.046676 0.576592 -0.214363
v -0.084431 0.584938 -0.215194
v -0.107591 0.576973 -0.183297
v -0.031658 0.568375 -0.202961
v -0.106631 0.568527 -0.163172
v -0.087586 0.559624 -0.150224
v -0.026855 0.559845 -0.183847
v -0.047927 0.551819 -0.150142
v -0.061095 0.575325 0.034140
v -0.046130 0.543854 0.044812
v -0.069806 0.582390 0.055940
v -0.050498 0.548927 0.072541
v -0.059760 0.591339 0.073085
v -0.043591 0.505791 0.059683
v -0.018983 0.555183 0.081899
v -0.023120 0.603020 0.085624
v 0.008533 0.555679 0.062906
v 0.007542 0.599129 0.062733
v 0.013567 0.592354 0.044431
v 0.005736 0.550049 0.037651
v 0.007338 0.583794 0.025909
v 0.007692 0.511871 0.051218
v 0.010112 0.515427 0.071237
v 0.005809 0.514908 0.059064
v -0.014675 0.514282 0.087341
v -0.041228 0.510170 0.085703
v -0.017877 0.501999 0.083655
v 0.003333 0.509239 0.079068
v -0.041547 0.499207 0.074467
v -0.038593 0.504189 0.054305
v 0.015657 0.492889 0.080262
v 0.014391 0.509102 0.055876
v 0.025338 0.492645 0.051538
v -0.038506 0.461144 0.069108
v -0.033327 0.472496 0.045849
v 0.032366 0.475197 0.067554
v 0.025373 0.489250 0.052025
v 0.028163 0.475998 0.063573
v 0.019564 0.467789 0.052933
v 0.019242 0.466042 0.082451
v -0.031885 0.445587 0.059085
v -0.028962 0.452065 0.045289
v -0.010502 0.462502 0.084103
v -0.034421 0.442741 0.064652
v -0.008106 0.437012 0.076587
v 0.019361 0.442085 0.077303
v 0.020269 0.444748 0.069527
v 0.022714 0.454147 0.055888
v 0.021204 0.441063 0.062116
v -0.005450 0.440750 0.065871
v 0.022509 0.447151 0.046235
v -0.029932 0.439125 0.052213
v -0.024235 0.452202 0.036137
v -0.003019 0.437241 0.058842
v 0.021526 0.435577 0.046183
v -0.000394 0.435135 0.040907
v -0.026723 0.440628 0.035582
v 0.022531 0.438767 0.039746
v -0.024187 0.444145 0.030015
v -0.021080 0.458855 0.032361
v -0.020154 0.457199 0.024829
v 0.001134 0.438133 0.034923
v -0.020154 0.457199 0.024829
v 0.003565 0.451347 0.027894
v 0.005842 0.466957 0.025527
v 0.022848 0.460434 0.030545
v 0.022492 0.451386 0.032406
v 0.021715 0.453789 0.042008
v 0.022053 0.462112 0.039903
v 0.028163 0.475998 0.063573
v 0.029564 0.485260 0.049031
v 0.025373 0.489250 0.052025
v 0.029796 0.473328 0.059050
v 0.019564 0.467789 0.052933
v 0.032724 0.476875 0.038523
v 0.034798 0.466187 0.046941
v 0.033452 0.473396 0.035044
v 0.026014 0.463295 0.047328
v 0.035518 0.463219 0.043340
v 0.023888 0.459381 0.024595
v 0.024664 0.452980 0.028578
v 0.017499 0.453194 0.031052
v -0.047927 0.551819 -0.150142
v -0.039140 0.527008 -0.191285
v -0.026855 0.559845 -0.183847
v -0.058250 0.522232 -0.164330
v -0.050156 0.488724 -0.201507
v -0.085821 0.527130 -0.166506
v -0.087586 0.559624 -0.150224
v -0.097473 0.489784 -0.178763
v -0.068024 0.484741 -0.177701
v -0.092099 0.487618 -0.178905
v -0.067453 0.483566 -0.183372
v -0.052732 0.485931 -0.203279
v -0.100215 0.456070 -0.182849
v -0.048054 0.476173 -0.206309
v -0.067343 0.455437 -0.188642
v -0.087402 0.432076 -0.208861
v -0.106699 0.440117 -0.191316
v -0.098425 0.439018 -0.185181
v -0.059879 0.445381 -0.200562
v -0.047031 0.459465 -0.212501
v -0.061861 0.438683 -0.214493
v -0.057290 0.447662 -0.205399
v -0.048563 0.456551 -0.213370
v -0.067928 0.426941 -0.223970
v -0.046057 0.451225 -0.212572
v -0.052460 0.443779 -0.199505
v -0.061861 0.438683 -0.214493
v -0.043206 0.443123 -0.200171
v -0.054587 0.433136 -0.208653
v -0.067154 0.427765 -0.192817
v -0.043466 0.439613 -0.196970
v -0.064891 0.433914 -0.188574
v -0.058836 0.430458 -0.186073
v -0.067154 0.427765 -0.192817
v -0.060604 0.424439 -0.190229
v -0.082944 0.425224 -0.201349
v -0.067306 0.418892 -0.215325
v -0.091388 0.442604 -0.182628
v -0.077272 0.429184 -0.197351
v -0.063068 0.423630 -0.210857
v -0.068330 0.441345 -0.195547
v -0.058510 0.430519 -0.208738
v -0.063890 0.437691 -0.188279
v -0.054513 0.426277 -0.200826
v -0.088975 0.438973 -0.176315
v -0.091388 0.442604 -0.182628
v -0.028042 0.572266 0.010466
v -0.046130 0.543854 0.044812
v -0.061095 0.575325 0.034140
v -0.024910 0.542175 0.026762
v -0.043591 0.505791 0.059683
v 0.005736 0.550049 0.037651
v 0.007338 0.583794 0.025909
v 0.007692 0.511871 0.051218
v -0.020388 0.505165 0.041980
v -0.038593 0.504189 0.054305
v -0.015610 0.510780 0.047143
v 0.005809 0.514908 0.059064
v -0.033327 0.472496 0.045849
v 0.014391 0.509102 0.055876
v -0.003482 0.486679 0.038804
v -0.002093 0.451538 0.051310
v -0.028962 0.452065 0.045289
v -0.024235 0.452202 0.036137
v 0.013774 0.477425 0.040499
v 0.025338 0.492645 0.051538
v 0.019564 0.467789 0.052933
v 0.017029 0.479492 0.044916
v 0.025373 0.489250 0.052025
v 0.022714 0.454147 0.055888
v 0.029564 0.485260 0.049031
v 0.023435 0.474114 0.038702
v 0.019564 0.467789 0.052933
v 0.032724 0.476875 0.038523
v 0.026014 0.463295 0.047328
v 0.017499 0.453194 0.031052
v 0.033452 0.473396 0.035044
v 0.016723 0.459648 0.027069
v 0.023888 0.459381 0.024595
v 0.017499 0.453194 0.031052
v 0.024664 0.452980 0.028578
v 0.001102 0.446381 0.041289
v 0.022509 0.447151 0.046235
v -0.021080 0.458855 0.032361
v 0.002239 0.452812 0.036679
v 0.021715 0.453789 0.042008
v 0.004047 0.467865 0.034591
v 0.022053 0.462112 0.039903
v 0.005842 0.466957 0.025527
v 0.022848 0.460434 0.030545
v -0.020154 0.457199 0.024829
v -0.021080 0.458855 0.032361
v -0.031885 0.445587 0.059085
v -0.034421 0.442741 0.064652
v -0.038506 0.461144 0.069108
v -0.005450 0.440750 0.065871
v -0.008106 0.437012 0.076587
v 0.020269 0.444748 0.069527
v 0.019361 0.442085 0.077303
v 0.019242 0.466042 0.082451
v -0.074070 0.450310 -0.241274
v -0.079006 0.424309 -0.235044
v -0.083871 0.424820 -0.241425
v -0.107912 0.430031 -0.228557
v -0.099993 0.428856 -0.220560
v -0.121936 0.440323 -0.205762
v -0.116768 0.440071 -0.201973
v -0.118247 0.458595 -0.202112
f 1 2 3
f 1 4 2
f 2 4 5
f 5 4 6
f 6 4 7
f 6 7 8
f 9 10 11
f 11 12 9
f 13 9 12
f 12 11 14
f 15 13 12
f 14 16 12
f 17 16 14
f 15 12 18
f 18 12 16
f 19 15 18
f 19 18 20
f 21 19 20
f 18 16 22
f 20 18 22
f 16 17 23
f 16 23 22
f 22 23 24
f 25 23 17
f 24 23 25
f 25 17 26
f 26 27 25
f 28 21 20
f 29 21 28
f 30 28 20
f 20 22 31
f 30 20 31
f 22 24 31
f 31 32 30
f 31 24 32
f 30 32 33
f 34 33 32
f 24 34 32
f 33 34 35
f 36 25 27
f 36 27 37
f 37 38 36
f 39 36 38
f 25 36 40
f 25 40 24
f 39 40 36
f 34 24 41
f 40 41 24
f 34 42 35
f 34 41 43
f 44 43 41
f 45 44 41
f 41 40 45
f 46 40 39
f 39 47 46
f 48 35 42
f 46 47 49
f 46 49 50
f 47 51 49
f 52 48 42
f 52 53 48
f 50 54 42
f 54 50 49
f 52 42 54
f 49 55 54
f 55 49 51
f 54 56 52
f 56 54 55
f 53 52 57
f 57 52 56
f 58 55 51
f 55 58 56
f 53 57 59
f 53 59 60
f 61 60 59
f 56 62 57
f 59 57 62
f 62 56 58
f 59 62 63
f 63 62 64
f 62 58 64
f 64 65 63
f 65 64 66
f 58 51 67
f 64 58 67
f 67 66 64
f 67 51 68
f 67 68 66
f 69 66 68
f 70 71 72
f 73 70 72
f 70 73 74
f 72 75 73
f 73 76 74
f 73 75 76
f 75 77 76
f 78 74 76
f 77 79 76
f 76 79 78
f 79 77 80
f 80 81 79
f 79 81 78
f 82 78 81
f 83 84 85
f 83 85 86
f 85 87 86
f 87 88 86
f 88 89 86
f 88 90 89
f 91 92 93
f 92 94 93
f 93 94 95
f 96 94 92
f 95 94 97
f 95 97 98
f 98 97 99
f 98 99 100
f 100 99 101
f 102 101 99
f 101 102 103
f 99 104 102
f 104 99 105
f 97 105 99
f 106 104 105
f 94 107 97
f 97 107 105
f 96 108 94
f 94 108 107
f 107 108 109
f 105 107 110
f 105 110 106
f 107 109 110
f 108 96 111
f 108 111 109
f 96 112 111
f 113 106 110
f 109 113 110
f 113 114 106
f 114 113 115
f 116 111 112
f 109 111 116
f 112 117 116
f 118 115 113
f 118 119 115
f 119 118 120
f 121 120 118
f 113 122 118
f 113 109 122
f 121 118 122
f 116 117 123
f 124 123 117
f 116 125 109
f 122 109 125
f 116 126 125
f 127 125 126
f 128 125 127
f 125 128 122
f 129 121 122
f 121 129 130
f 129 131 130
f 129 132 131
f 130 131 133
f 134 123 124
f 134 124 135
f 132 123 136
f 136 131 132
f 134 136 123
f 131 136 137
f 137 133 131
f 136 134 138
f 138 137 136
f 135 139 134
f 139 138 134
f 140 133 137
f 137 138 140
f 135 141 139
f 135 142 141
f 143 141 142
f 138 139 144
f 141 144 139
f 144 140 138
f 141 145 144
f 145 146 144
f 144 146 140
f 146 145 147
f 147 148 146
f 140 149 133
f 146 149 140
f 149 146 148
f 149 150 133
f 149 148 150
f 151 150 148
f 152 153 154
f 155 153 152
f 152 156 155
f 153 155 157
f 155 156 158
f 155 158 157
f 157 158 159
f 160 158 156
f 159 158 161
f 158 160 161
f 161 162 159
f 162 161 163
f 161 160 163
f 164 163 160
f 165 166 167
f 165 168 166
f 169 166 168
f 165 170 168
f 165 171 170
f 168 170 172
f 168 172 173
f 169 168 173
f 172 174 173
f 175 169 173
f 173 174 175
f 169 175 176
f 177 175 174
f 175 178 176
f 175 177 179
f 175 179 178
f 177 180 179
f 180 177 181
f 181 182 180
f 178 179 183
f 183 184 178
f 179 185 183
f 185 179 180
f 184 183 186
f 185 186 183
f 186 187 184
f 180 188 185
f 189 187 186
f 186 190 189
f 186 191 190
f 192 189 190
f 193 190 191
f 193 194 190
f 195 192 190
f 196 190 194
f 190 196 195
f 197 195 196
f 196 198 197
f 199 197 198
f 180 200 188
f 200 180 182
f 201 188 200
f 182 202 200
f 200 203 201
f 203 200 202
f 204 201 203
f 205 203 202
f 203 205 204
f 206 204 205
f 205 207 206
f 208 206 207
f 207 205 209
f 210 209 205
f 211 212 213
f 211 214 212
f 214 215 212
f 211 216 214
f 211 217 216
f 218 214 216
f 214 219 215
f 218 219 214
f 215 219 220
f 221 219 218
f 219 221 220
f 218 222 221
f 223 220 221
f 221 222 224
f 221 225 223
f 221 224 225
f 223 225 226
f 226 227 223
f 227 226 228
f 224 229 225
f 229 224 230
f 225 229 231
f 231 226 225
f 230 232 229
f 231 229 232
f 232 230 233
f 226 231 234
f 235 232 233
f 232 235 236
f 232 236 237
f 238 236 235
f 239 237 236
f 239 236 240
f 241 236 238
f 242 240 236
f 236 241 242
f 243 242 241
f 242 243 244
f 245 244 243
f 226 234 246
f 246 228 226
f 247 246 234
f 228 246 248
f 246 247 249
f 249 248 246
f 250 249 247
f 251 248 249
f 249 250 251
f 252 251 250
f 251 252 253
f 254 253 252
f 253 255 251
f 256 251 255
f 257 258 259
f 260 258 257
f 258 260 261
f 262 261 260
f 261 262 263
f 264 263 262
f 265 266 267
f 268 267 266
f 266 269 268
f 270 268 269
f 269 271 270
f 271 272 270
