v 0.176856 0.815414 0.219308
v 0.181941 0.809341 0.230243
v 0.180945 0.791267 0.231993
v 0.166110 0.804123 0.198747
v 0.175723 0.784325 0.211305
v 0.173688 0.793068 0.186572
v 0.174806 0.765915 0.227817
v 0.174274 0.775131 0.246046
v 0.178563 0.764885 0.192072
v 0.199669 0.787369 0.163615
v 0.161737 0.758553 0.241499
v 0.163133 0.771889 0.253468
v 0.157621 0.719513 0.223893
v 0.176055 0.731789 0.203181
v 0.191648 0.751701 0.167770
v 0.208728 0.779862 0.140700
v 0.178031 0.695046 0.210302
v 0.156925 0.682060 0.216139
v 0.213992 0.753479 0.144379
v 0.237564 0.781784 0.110512
v 0.252826 0.757134 0.117156
v 0.242824 0.729797 0.129041
v 0.206140 0.708015 0.182289
v 0.175053 0.637276 0.197161
v 0.156451 0.635681 0.206739
v 0.224026 0.721291 0.145185
v 0.237116 0.696037 0.117343
v 0.211110 0.655914 0.158000
v 0.165662 0.603996 0.171646
v 0.144673 0.607163 0.190086
v 0.222113 0.684540 0.129515
v 0.228157 0.680420 0.095618
v 0.155713 0.599854 0.159441
v 0.137089 0.597267 0.183180
v 0.148093 0.605812 0.166005
v 0.125928 0.600319 0.182140
v 0.142111 0.593048 0.157422
v 0.112062 0.580345 0.164845
v 0.212827 0.649826 0.112373
v 0.217080 0.668373 0.105801
v 0.204949 0.645668 0.100121
v 0.203126 0.625870 0.126065
v 0.210340 0.673714 0.086701
v 0.220305 0.683449 0.076976
v 0.175643 0.720390 0.060817
v 0.168207 0.693245 0.067895
v 0.192765 0.616699 0.118531
v 0.177788 0.616158 0.113003
v 0.181350 0.630364 0.095136
v 0.150648 0.657860 0.055173
v 0.160208 0.599670 0.125752
v 0.163886 0.603066 0.086556
v 0.139286 0.631722 0.052929
v 0.128341 0.585129 0.042474
v 0.148077 0.577797 0.108762
v 0.152419 0.579338 0.087251
v 0.130270 0.570259 0.126697
v 0.142822 0.553284 0.075383
v 0.130860 0.571579 0.035596
v 0.135819 0.560646 0.108871
v 0.129516 0.541779 0.123952
v 0.099762 0.541107 0.159342
v 0.132709 0.534905 0.059815
v 0.124267 0.552094 0.030480
v 0.135318 0.518005 0.083239
v 0.128330 0.526390 0.094796
v 0.115867 0.506767 0.108550
v 0.083094 0.500725 0.136498
v 0.151271 0.774109 0.259524
v 0.161737 0.758553 0.241499
v 0.163133 0.771889 0.253468
v 0.145152 0.762116 0.252498
v 0.134686 0.789223 0.259213
v 0.157621 0.719513 0.223893
v 0.136088 0.723709 0.245022
v 0.126581 0.778030 0.252147
v 0.149447 0.689240 0.240226
v 0.156925 0.682060 0.216139
v 0.146807 0.631622 0.226731
v 0.156451 0.635681 0.206739
v 0.121317 0.691338 0.271089
v 0.127129 0.596443 0.211986
v 0.144673 0.607163 0.190086
v 0.107315 0.635658 0.266661
v 0.115240 0.591934 0.201811
v 0.137089 0.597267 0.183180
v 0.107056 0.600906 0.202603
v 0.125928 0.600319 0.182140
v 0.100569 0.588081 0.194550
v 0.112062 0.580345 0.164845
v 0.074383 0.593727 0.242463
v 0.068175 0.594902 0.227755
v 0.053067 0.620354 0.265486
v 0.080865 0.602135 0.254057
v 0.066552 0.588448 0.209661
v 0.064655 0.625816 0.273855
v 0.048297 0.604561 0.234427
v 0.073503 0.563454 0.177643
v 0.052887 0.566406 0.193570
v 0.057625 0.538361 0.178006
v 0.099762 0.541107 0.159342
v 0.026564 0.586632 0.209109
v 0.040329 0.556107 0.180561
v 0.045430 0.503677 0.158255
v 0.083094 0.500725 0.136498
v 0.028967 0.521889 0.167007
v 0.014939 0.512695 0.168969
v 0.005247 0.546974 0.175580
v -0.007474 0.528740 0.159208
v 0.013542 0.572746 0.190931
v -0.030061 0.564186 0.153163
v -0.033328 0.545151 0.142446
v -0.023126 0.578064 0.154386
v -0.007948 0.614136 0.183739
v -0.003016 0.634262 0.206851
v 0.007198 0.665558 0.234332
v 0.042458 0.653694 0.288609
v 0.005011 0.686356 0.255708
v 0.032836 0.666206 0.305752
v 0.049056 0.671738 0.312806
v 0.060987 0.655304 0.294660
v 0.076945 0.676834 0.297748
v 0.060687 0.690895 0.315475
v 0.079558 0.705559 0.295012
v 0.059575 0.720474 0.315932
v 0.074989 0.730782 0.287778
v 0.037373 0.743729 0.322916
v 0.030775 0.756699 0.310030
v 0.067280 0.756699 0.286659
v 0.097349 0.735672 0.265076
v 0.088591 0.768646 0.278487
v 0.119119 0.752853 0.254303
v 0.108089 0.779800 0.255247
v 0.113328 0.797356 0.242694
v 0.124041 0.813065 0.250564
v 0.131335 0.807098 0.259895
v 0.113328 0.797356 0.242694
v 0.124041 0.813065 0.250564
v 0.126866 0.814362 0.230642
v 0.111562 0.802445 0.229697
v 0.124969 0.809143 0.204351
v 0.137063 0.812775 0.212190
v 0.111325 0.806572 0.196721
v 0.098656 0.793877 0.235432
v 0.108089 0.779800 0.255247
v 0.073519 0.795815 0.223575
v 0.102598 0.808205 0.188891
v 0.064223 0.790611 0.258755
v 0.088591 0.768646 0.278487
v 0.067280 0.756699 0.286659
v 0.047702 0.788467 0.193343
v 0.076491 0.792641 0.161083
v 0.027017 0.785751 0.232669
v 0.029047 0.782738 0.260942
v 0.012736 0.772873 0.291448
v 0.030775 0.756699 0.310030
v -0.001355 0.779938 0.268028
v 0.034274 0.772842 0.153675
v 0.061551 0.768059 0.142086
v 0.028234 0.708305 0.093549
v -0.006562 0.773300 0.236720
v -0.039193 0.753998 0.248259
v 0.003619 0.767265 0.183647
v -0.026082 0.745682 0.217568
v -0.058043 0.710495 0.243252
v -0.050771 0.698593 0.232811
v 0.012567 0.712639 0.099347
v 0.021125 0.660408 0.073422
v -0.014546 0.709496 0.125611
v -0.044426 0.705521 0.166788
v 0.010106 0.662476 0.078596
v 0.027180 0.607216 0.066376
v -0.011248 0.660294 0.092467
v 0.001996 0.610924 0.075069
v 0.023539 0.578392 0.058171
v -0.031394 0.645073 0.132645
v -0.043314 0.662560 0.200263
v 0.007198 0.665558 0.234332
v 0.005011 0.686356 0.255708
v -0.003016 0.634262 0.206851
v -0.024828 0.622749 0.166771
v -0.007948 0.614136 0.183739
v -0.023126 0.578064 0.154386
v -0.028591 0.605843 0.115572
v -0.001172 0.582832 0.064953
v -0.032085 0.578018 0.110040
v -0.030061 0.564186 0.153163
v -0.033328 0.545151 0.142446
v -0.037697 0.560608 0.102484
v -0.019801 0.564385 0.069611
v 0.000009 0.564552 0.052407
v 0.014048 0.564865 0.043365
v 0.124969 0.809143 0.204351
v 0.137063 0.812775 0.212190
v 0.158311 0.815743 0.212567
v 0.153083 0.807747 0.195419
v 0.111325 0.806572 0.196721
v 0.166110 0.804123 0.198747
v 0.176856 0.815414 0.219308
v 0.150496 0.804436 0.180455
v 0.173688 0.793068 0.186572
v 0.137600 0.808601 0.156489
v 0.102598 0.808205 0.188891
v 0.176060 0.809456 0.143089
v 0.199669 0.787369 0.163615
v 0.208728 0.779862 0.140700
v 0.107214 0.800385 0.130334
v 0.076491 0.792641 0.161083
v 0.145484 0.808998 0.108649
v 0.177730 0.807022 0.106702
v 0.214709 0.803223 0.092731
v 0.237564 0.781784 0.110512
v 0.185535 0.811432 0.078031
v 0.070615 0.780167 0.115631
v 0.061551 0.768059 0.142086
v 0.028234 0.708305 0.093549
v 0.099235 0.786034 0.083548
v 0.155470 0.803932 0.073453
v 0.169414 0.797073 0.037648
v 0.137779 0.775307 0.047438
v 0.164660 0.766136 0.007279
v 0.154147 0.751686 0.011923
v 0.033425 0.716034 0.078925
v 0.021125 0.660408 0.073422
v 0.060370 0.721649 0.052838
v 0.102186 0.729057 0.023906
v 0.026932 0.664520 0.063101
v 0.027180 0.607216 0.066376
v 0.043327 0.666824 0.043817
v 0.042231 0.612839 0.044964
v 0.023539 0.578392 0.058171
v 0.086977 0.659226 0.027103
v 0.140329 0.690674 0.019320
v 0.168207 0.693245 0.067895
v 0.175643 0.720390 0.060817
v 0.150648 0.657860 0.055173
v 0.122644 0.640411 0.035007
v 0.139286 0.631722 0.052929
v 0.128341 0.585129 0.042474
v 0.089907 0.611481 0.026864
v 0.037393 0.584595 0.037305
v 0.088653 0.584801 0.021108
v 0.130860 0.571579 0.035596
v 0.124267 0.552094 0.030480
v 0.087283 0.566109 0.014059
v 0.049946 0.567459 0.019922
v 0.027280 0.565758 0.033047
v 0.014048 0.564865 0.043365
v -0.013028 0.668198 0.259748
v -0.050771 0.698593 0.232811
v 0.005011 0.686356 0.255708
v -0.049000 0.664642 0.253578
v -0.008733 0.618935 0.281407
v -0.058043 0.710495 0.243252
v -0.052025 0.611389 0.272297
v -0.009181 0.570953 0.310859
v -0.052094 0.569672 0.295696
v -0.014651 0.552765 0.320827
v -0.068493 0.683525 0.284589
v -0.072931 0.633957 0.301958
v -0.069373 0.586617 0.321562
v -0.068399 0.721382 0.277420
v -0.039193 0.753998 0.248259
v -0.043878 0.758949 0.273664
v -0.001355 0.779938 0.268028
v -0.025655 0.764023 0.304070
v 0.012736 0.772873 0.291448
v -0.051192 0.746460 0.312425
v -0.007410 0.752358 0.331626
v 0.030775 0.756699 0.310030
v -0.064910 0.687264 0.309113
v -0.062117 0.663391 0.310431
v -0.043540 0.679306 0.341174
v -0.070053 0.640175 0.325808
v 0.017595 0.728890 0.341500
v 0.037373 0.743729 0.322916
v 0.059575 0.720474 0.315932
v -0.035978 0.725586 0.339619
v 0.004784 0.706528 0.351377
v -0.040526 0.658333 0.340846
v 0.045541 0.705147 0.332744
v 0.060687 0.690895 0.315475
v 0.037431 0.689682 0.340528
v 0.049056 0.671738 0.312806
v -0.003310 0.673485 0.348541
v 0.024177 0.672676 0.342386
v 0.032836 0.666206 0.305752
v -0.000802 0.661491 0.348742
v 0.014365 0.661369 0.339934
v -0.030803 0.636643 0.358236
v 0.006887 0.632309 0.364021
v 0.034132 0.660507 0.317119
v -0.050054 0.639961 0.350820
v 0.013864 0.660187 0.291682
v 0.005011 0.686356 0.255708
v -0.013028 0.668198 0.259748
v -0.037986 0.605629 0.365049
v -0.057152 0.605545 0.357545
v -0.056035 0.579178 0.364858
v -0.070259 0.598259 0.339455
v 0.029959 0.615067 0.338454
v 0.012310 0.615204 0.306740
v -0.008733 0.618935 0.281407
v -0.009181 0.570953 0.310859
v -0.006425 0.598053 0.370888
v 0.013796 0.582550 0.349012
v -0.000833 0.569328 0.347362
v -0.014651 0.552765 0.320827
v -0.017512 0.581276 0.365530
v 0.005649 0.562477 0.347645
v -0.003416 0.537384 0.328858
v -0.018456 0.581604 0.377121
v 0.026291 0.554009 0.370570
v 0.017126 0.523163 0.351181
v 0.000284 0.573013 0.399917
v -0.054681 0.571945 0.382527
v -0.035124 0.556038 0.410830
v -0.049706 0.516426 0.388629
v -0.065700 0.538216 0.353769
v -0.027894 0.497612 0.360846
v -0.075355 0.557465 0.335600
v -0.058971 0.541901 0.312085
v -0.049253 0.524300 0.333016
v -0.003416 0.537384 0.328858
v 0.017126 0.523163 0.351181
v 0.175991 0.719948 0.030763
v 0.175643 0.720390 0.060817
v 0.154147 0.751686 0.011923
v 0.170995 0.751755 -0.006421
v 0.176965 0.699722 -0.002068
v 0.164660 0.766136 0.007279
v 0.175237 0.726090 -0.039845
v 0.185908 0.666168 -0.037586
v 0.182451 0.701744 -0.067898
v 0.189724 0.654533 -0.055718
v 0.208047 0.764252 -0.013400
v 0.214893 0.742462 -0.042481
v 0.216500 0.711426 -0.070319
v 0.202435 0.784538 0.001665
v 0.169414 0.797073 0.037648
v 0.194372 0.804337 0.034141
v 0.185535 0.811432 0.078031
v 0.229264 0.801506 0.053459
v 0.214709 0.803223 0.092731
v 0.240552 0.791275 0.026090
v 0.259729 0.781418 0.071756
v 0.237564 0.781784 0.110512
v 0.234386 0.763893 -0.005628
v 0.230982 0.752129 -0.014789
v 0.258580 0.732956 0.006509
v 0.237969 0.734863 -0.037656
v 0.268709 0.746712 0.090631
v 0.252826 0.757134 0.117156
v 0.242824 0.729797 0.129041
v 0.266416 0.763001 0.035772
v 0.272029 0.722916 0.065948
v 0.251961 0.722008 -0.003527
v 0.253179 0.709732 0.106182
v 0.237116 0.696037 0.117343
v 0.253664 0.693687 0.085882
v 0.228157 0.680420 0.095618
v 0.258232 0.702530 0.036563
v 0.249574 0.686310 0.061887
v 0.220305 0.683449 0.076976
v 0.251576 0.695458 0.028686
v 0.243219 0.684670 0.044505
v 0.258169 0.693436 -0.011440
v 0.253484 0.664185 0.013965
v 0.218745 0.680512 0.061643
v 0.256419 0.711136 -0.023746
v 0.200211 0.696381 0.047821
v 0.175643 0.720390 0.060817
v 0.175991 0.719948 0.030763
v 0.254438 0.681442 -0.038638
v 0.252588 0.697853 -0.051546
v 0.249568 0.678406 -0.070299
v 0.237100 0.710815 -0.064315
v 0.218771 0.648544 0.021322
v 0.193819 0.673058 0.009979
v 0.176965 0.699722 -0.002068
v 0.185908 0.666168 -0.037586
v 0.248504 0.653809 -0.022529
v 0.217802 0.640930 -0.017250
v 0.216131 0.642159 -0.037415
v 0.189724 0.654533 -0.055718
v 0.241142 0.652298 -0.042391
v 0.212110 0.631531 -0.039568
v 0.186989 0.633858 -0.062045
v 0.251418 0.645828 -0.046080
v 0.223340 0.602394 -0.039307
v 0.196000 0.602196 -0.064410
v 0.263407 0.617912 -0.046614
v 0.261046 0.665146 -0.078073
v 0.274474 0.630997 -0.083648
v 0.242248 0.631630 -0.118481
v 0.224568 0.668526 -0.106334
v 0.204711 0.618195 -0.113823
v 0.219704 0.693581 -0.096294
v 0.188517 0.683846 -0.093335
v 0.196327 0.658783 -0.102925
v 0.186989 0.633858 -0.062045
v 0.196000 0.602196 -0.064410
f 1 2 3
f 4 1 3
f 3 5 4
f 6 4 5
f 3 7 5
f 3 8 7
f 5 9 6
f 10 6 9
f 8 11 7
f 8 12 11
f 7 11 13
f 5 7 14
f 5 14 9
f 7 13 14
f 15 10 9
f 15 9 14
f 15 16 10
f 14 13 17
f 17 13 18
f 19 16 15
f 19 20 16
f 20 19 21
f 21 19 22
f 23 15 14
f 14 17 23
f 23 19 15
f 24 17 18
f 23 17 24
f 24 18 25
f 19 26 22
f 26 19 23
f 22 26 27
f 23 24 28
f 28 26 23
f 24 25 29
f 28 24 29
f 29 25 30
f 26 31 27
f 31 26 28
f 27 31 32
f 33 29 30
f 33 30 34
f 35 33 34
f 36 35 34
f 37 35 36
f 37 36 38
f 39 31 28
f 32 31 40
f 40 31 39
f 39 41 40
f 42 39 28
f 28 29 42
f 42 41 39
f 43 32 40
f 40 41 43
f 43 44 32
f 43 45 44
f 46 45 43
f 41 46 43
f 47 42 29
f 47 41 42
f 47 29 33
f 48 47 33
f 48 41 47
f 35 48 33
f 49 46 41
f 48 49 41
f 49 50 46
f 35 51 48
f 49 48 51
f 37 51 35
f 50 49 52
f 49 51 52
f 50 52 53
f 53 52 54
f 37 55 51
f 55 52 51
f 54 52 56
f 56 52 55
f 55 37 57
f 57 37 38
f 58 54 56
f 59 54 58
f 56 55 60
f 60 55 57
f 60 58 56
f 38 61 57
f 61 60 57
f 62 61 38
f 59 58 63
f 59 63 64
f 63 58 65
f 66 58 60
f 58 66 65
f 66 60 61
f 67 65 66
f 66 61 67
f 67 61 62
f 67 62 68
f 69 70 71
f 69 72 70
f 73 72 69
f 72 74 70
f 72 75 74
f 73 76 72
f 76 75 72
f 75 77 74
f 77 78 74
f 79 78 77
f 79 80 78
f 75 81 77
f 81 79 77
f 79 82 80
f 82 83 80
f 81 84 79
f 84 82 79
f 85 83 82
f 85 86 83
f 87 86 85
f 88 86 87
f 89 88 87
f 89 90 88
f 91 85 82
f 85 92 87
f 92 85 91
f 92 91 93
f 91 82 94
f 84 94 82
f 91 94 93
f 87 92 95
f 89 87 95
f 94 84 96
f 94 96 93
f 92 93 97
f 97 95 92
f 98 90 89
f 89 95 99
f 99 98 89
f 90 98 100
f 101 90 100
f 97 102 95
f 99 95 102
f 103 98 99
f 100 98 103
f 104 101 100
f 104 105 101
f 106 104 100
f 106 100 103
f 104 106 107
f 108 107 106
f 106 103 108
f 109 107 108
f 110 103 99
f 110 99 102
f 103 110 108
f 111 109 108
f 111 112 109
f 111 108 113
f 108 110 113
f 113 110 102
f 114 113 102
f 115 114 102
f 115 102 97
f 97 116 115
f 97 93 116
f 93 117 116
f 116 117 118
f 117 119 118
f 117 120 119
f 121 117 93
f 117 121 120
f 96 121 93
f 120 121 122
f 121 96 122
f 123 120 122
f 96 84 122
f 124 123 122
f 122 84 124
f 125 123 124
f 84 81 124
f 126 125 124
f 124 81 126
f 127 125 126
f 128 127 126
f 126 129 128
f 81 130 126
f 126 130 129
f 81 75 130
f 130 131 129
f 130 75 132
f 130 132 131
f 131 132 133
f 76 132 75
f 76 133 132
f 133 76 134
f 73 134 76
f 134 73 135
f 135 73 136
f 137 138 139
f 137 139 140
f 140 139 141
f 141 139 142
f 143 140 141
f 137 140 144
f 143 144 140
f 144 145 137
f 143 146 144
f 143 147 146
f 144 148 145
f 144 146 148
f 149 145 148
f 150 149 148
f 147 151 146
f 147 152 151
f 153 148 146
f 151 153 146
f 154 150 148
f 154 148 153
f 150 154 155
f 156 150 155
f 155 154 157
f 153 157 154
f 152 158 151
f 159 158 152
f 159 160 158
f 153 161 157
f 162 157 161
f 151 163 153
f 153 163 161
f 158 163 151
f 161 164 162
f 161 163 164
f 164 165 162
f 166 165 164
f 160 167 158
f 167 160 168
f 158 169 163
f 167 169 158
f 170 164 163
f 170 166 164
f 170 163 169
f 167 168 171
f 167 171 169
f 171 168 172
f 169 171 173
f 170 169 173
f 171 172 174
f 173 171 174
f 175 174 172
f 170 173 176
f 176 173 174
f 166 170 177
f 177 170 176
f 178 166 177
f 178 179 166
f 177 180 178
f 177 181 180
f 177 176 181
f 180 181 182
f 181 183 182
f 181 176 184
f 176 174 184
f 181 184 183
f 175 185 174
f 185 184 174
f 186 183 184
f 185 186 184
f 187 183 186
f 186 188 187
f 186 189 188
f 190 189 186
f 185 190 186
f 191 190 185
f 175 191 185
f 175 192 191
f 193 194 195
f 196 193 195
f 197 193 196
f 198 196 195
f 198 195 199
f 198 200 196
f 197 196 200
f 200 198 201
f 197 200 202
f 197 202 203
f 200 201 204
f 200 204 202
f 205 204 201
f 206 204 205
f 203 202 207
f 203 207 208
f 209 202 204
f 207 202 209
f 210 204 206
f 210 209 204
f 206 211 210
f 212 211 206
f 211 213 210
f 209 210 213
f 208 207 214
f 215 208 214
f 215 214 216
f 207 209 217
f 214 207 217
f 209 213 218
f 209 218 217
f 219 218 213
f 218 219 220
f 218 220 217
f 220 219 221
f 222 220 221
f 216 214 223
f 223 224 216
f 214 217 225
f 223 214 225
f 226 217 220
f 226 220 222
f 225 217 226
f 223 227 224
f 223 225 227
f 227 228 224
f 225 229 227
f 226 229 225
f 227 230 228
f 229 230 227
f 231 228 230
f 226 232 229
f 232 230 229
f 222 233 226
f 233 232 226
f 234 233 222
f 234 222 235
f 233 234 236
f 233 236 237
f 233 237 232
f 236 238 237
f 237 238 239
f 237 240 232
f 232 240 230
f 237 239 240
f 231 230 241
f 241 230 240
f 242 240 239
f 241 240 242
f 242 239 243
f 242 243 244
f 242 244 245
f 246 242 245
f 241 242 246
f 247 241 246
f 231 241 247
f 231 247 248
f 249 250 251
f 249 252 250
f 253 252 249
f 252 254 250
f 255 252 253
f 255 253 256
f 256 257 255
f 257 256 258
f 259 254 252
f 255 260 252
f 259 252 260
f 261 255 257
f 261 260 255
f 254 259 262
f 254 262 263
f 262 264 263
f 264 265 263
f 264 266 265
f 265 266 267
f 268 264 262
f 268 266 264
f 269 267 266
f 266 268 269
f 270 267 269
f 271 262 259
f 271 268 262
f 259 260 272
f 272 271 259
f 268 271 273
f 273 271 272
f 272 260 274
f 260 261 274
f 275 270 269
f 275 276 270
f 276 275 277
f 269 268 278
f 268 273 278
f 269 278 279
f 269 279 275
f 278 273 279
f 273 272 280
f 272 274 280
f 275 281 277
f 277 281 282
f 283 281 275
f 281 283 282
f 279 283 275
f 283 284 282
f 279 273 285
f 285 283 279
f 285 273 280
f 283 286 284
f 285 286 283
f 287 284 286
f 288 286 285
f 288 285 280
f 286 289 287
f 289 286 288
f 280 290 288
f 288 291 289
f 291 288 290
f 287 289 292
f 292 289 291
f 280 293 290
f 280 274 293
f 294 287 292
f 294 295 287
f 296 295 294
f 290 293 297
f 291 290 297
f 274 298 293
f 293 298 297
f 297 298 299
f 274 300 298
f 298 300 299
f 261 300 274
f 300 261 299
f 294 292 301
f 301 292 291
f 296 294 302
f 302 294 301
f 303 296 302
f 304 303 302
f 297 305 291
f 305 301 291
f 302 301 306
f 304 302 306
f 305 306 301
f 307 304 306
f 307 306 305
f 308 304 307
f 305 297 309
f 299 309 297
f 309 307 305
f 310 308 307
f 311 308 310
f 312 307 309
f 310 307 312
f 313 311 310
f 313 314 311
f 315 313 310
f 315 310 312
f 312 309 316
f 315 312 316
f 316 309 299
f 317 315 316
f 318 317 316
f 318 316 319
f 316 299 319
f 320 318 319
f 299 321 319
f 261 321 299
f 321 261 257
f 321 257 322
f 319 321 322
f 258 322 257
f 319 322 323
f 322 258 323
f 320 319 323
f 324 323 258
f 320 323 324
f 325 320 324
f 326 327 328
f 326 328 329
f 330 326 329
f 329 328 331
f 332 330 329
f 332 333 330
f 333 332 334
f 334 335 333
f 336 329 331
f 332 329 337
f 336 337 329
f 338 334 332
f 338 332 337
f 331 339 336
f 331 340 339
f 339 340 341
f 341 340 342
f 341 342 343
f 342 344 343
f 345 339 341
f 345 341 343
f 346 343 344
f 346 345 343
f 346 344 347
f 348 336 339
f 348 339 345
f 336 349 337
f 349 336 348
f 345 350 348
f 350 349 348
f 349 351 337
f 337 351 338
f 352 346 347
f 352 347 353
f 353 354 352
f 346 355 345
f 345 355 350
f 346 356 355
f 352 356 346
f 355 356 350
f 357 349 350
f 349 357 351
f 352 354 358
f 354 359 358
f 360 352 358
f 358 359 360
f 356 352 360
f 360 359 361
f 356 362 350
f 362 356 360
f 362 357 350
f 360 361 363
f 362 360 363
f 364 363 361
f 365 362 363
f 365 357 362
f 363 364 366
f 366 365 363
f 357 365 367
f 365 366 368
f 368 367 365
f 364 369 366
f 369 368 366
f 357 367 370
f 357 370 351
f 371 369 364
f 371 364 372
f 373 371 372
f 367 374 370
f 368 374 367
f 351 370 375
f 370 374 375
f 374 376 375
f 351 375 377
f 375 376 377
f 338 351 377
f 377 376 338
f 371 378 369
f 378 368 369
f 373 379 371
f 379 378 371
f 380 379 373
f 381 379 380
f 374 368 382
f 382 368 378
f 379 383 378
f 381 383 379
f 382 378 383
f 384 383 381
f 384 382 383
f 385 384 381
f 382 386 374
f 376 374 386
f 386 382 384
f 387 384 385
f 388 387 385
f 389 386 384
f 387 389 384
f 390 387 388
f 390 388 391
f 392 387 390
f 392 389 387
f 389 393 386
f 392 393 389
f 393 376 386
f 394 393 392
f 395 393 394
f 395 396 393
f 393 396 376
f 397 396 395
f 376 396 398
f 338 376 398
f 398 334 338
f 398 399 334
f 396 399 398
f 335 334 399
f 396 400 399
f 399 400 335
f 397 400 396
f 401 335 400
f 397 401 400
f 402 401 397
