v 0.079384 0.870132 0.230866
v 0.068312 0.861267 0.214887
v 0.071521 0.857460 0.219304
v 0.074915 0.876549 0.224234
v 0.062109 0.866661 0.207950
v 0.092380 0.880051 0.244123
v 0.093123 0.888519 0.242639
v 0.106872 0.880188 0.247331
v 0.106735 0.871597 0.248889
v 0.121322 0.867271 0.244928
v 0.120516 0.878220 0.243652
v 0.105902 0.891075 0.242691
v 0.118350 0.889221 0.239557
v 0.112374 0.903290 0.227434
v 0.099130 0.903328 0.233522
v 0.106113 0.911743 0.214194
v 0.092870 0.911781 0.220282
v 0.097586 0.918716 0.196258
v 0.089550 0.901077 0.233655
v 0.087173 0.918808 0.201505
v 0.090235 0.921005 0.180627
v 0.081034 0.895439 0.231260
v 0.078151 0.912102 0.210950
v 0.073730 0.903473 0.217699
v 0.078019 0.919754 0.186346
v 0.083052 0.916336 0.164818
v 0.066715 0.882446 0.213025
v 0.069150 0.914345 0.194924
v 0.063701 0.900971 0.202042
v 0.072538 0.915123 0.169462
v 0.077766 0.899605 0.152679
v 0.059485 0.883186 0.195145
v 0.062457 0.911797 0.177896
v 0.071648 0.899727 0.156964
v 0.077466 0.883957 0.150873
v 0.056840 0.900444 0.185190
v 0.059680 0.867065 0.188579
v 0.060876 0.858376 0.199344
v 0.061935 0.851265 0.189045
v 0.062310 0.882286 0.163912
v 0.078725 0.867432 0.153089
v 0.060570 0.899590 0.167146
v 0.055886 0.881859 0.181241
v 0.063785 0.868317 0.168023
v 0.067116 0.855454 0.170191
v 0.078625 0.855751 0.152487
v 0.137479 0.871422 0.203979
v 0.134233 0.858849 0.190411
v 0.132726 0.862694 0.184920
v 0.134965 0.877884 0.196007
v 0.131392 0.868195 0.175712
v 0.138950 0.881073 0.222940
v 0.136778 0.889488 0.222385
v 0.132078 0.880737 0.235789
v 0.133559 0.872192 0.236359
v 0.121322 0.867271 0.244928
v 0.120516 0.878220 0.243652
v 0.128716 0.891586 0.232240
v 0.118350 0.889221 0.239557
v 0.112374 0.903290 0.227434
v 0.125532 0.903915 0.221434
v 0.106113 0.911743 0.214194
v 0.119272 0.912369 0.208195
v 0.097586 0.918716 0.196258
v 0.132009 0.902016 0.213947
v 0.108268 0.919281 0.191438
v 0.090235 0.921005 0.180627
v 0.135709 0.896652 0.205832
v 0.121638 0.913063 0.190872
v 0.129854 0.904717 0.191461
v 0.102703 0.920303 0.174643
v 0.083052 0.916336 0.164818
v 0.131550 0.883888 0.182616
v 0.115198 0.915360 0.173579
v 0.124441 0.902313 0.173799
v 0.093381 0.915588 0.159660
v 0.077766 0.899605 0.152679
v 0.122618 0.884590 0.165812
v 0.116299 0.901764 0.157581
v 0.106803 0.912773 0.157626
v 0.085060 0.900024 0.150699
v 0.077466 0.883957 0.150873
v 0.118028 0.868362 0.161427
v 0.126065 0.859818 0.169273
v 0.117638 0.852501 0.163249
v 0.100047 0.900459 0.149147
v 0.096901 0.883057 0.147492
v 0.078725 0.867432 0.153089
v 0.114402 0.883164 0.153912
v 0.099926 0.869118 0.151395
v 0.099836 0.856178 0.155023
v 0.078625 0.855751 0.152487
v 0.072038 0.902329 0.155142
v 0.077044 0.905823 0.151314
v 0.073756 0.886879 0.143446
v 0.071121 0.885292 0.149033
v 0.071189 0.863884 0.148254
v 0.073540 0.864479 0.141552
v 0.070451 0.859291 0.146199
v 0.070082 0.857758 0.133861
v 0.065345 0.853104 0.138113
v 0.050916 0.843391 0.115046
v 0.058536 0.849716 0.108482
v 0.055163 0.838844 0.100703
v 0.083226 0.902580 0.149791
v 0.073756 0.886879 0.143446
v 0.077044 0.905823 0.151314
v 0.080185 0.885483 0.145199
v 0.079900 0.864082 0.144083
v 0.073540 0.864479 0.141552
v 0.079162 0.859482 0.142028
v 0.070082 0.857758 0.133861
v 0.076533 0.853355 0.132763
v 0.068775 0.843788 0.106953
v 0.058536 0.849716 0.108482
v 0.055163 0.838844 0.100703
v 0.077466 0.883873 0.150873
v 0.083226 0.902580 0.149791
v 0.078488 0.901398 0.154044
v 0.080185 0.885483 0.145199
v 0.077450 0.862869 0.150183
v 0.079900 0.864082 0.144083
v 0.075990 0.855682 0.146762
v 0.079162 0.859482 0.142028
v 0.071980 0.848839 0.137530
v 0.076533 0.853355 0.132763
v 0.060971 0.837639 0.113002
v 0.068775 0.843788 0.106953
v 0.055163 0.838844 0.100703
v 0.077466 0.883873 0.150873
v 0.078488 0.901398 0.154044
v 0.072038 0.902329 0.155142
v 0.071121 0.885292 0.149033
v 0.077450 0.862869 0.150183
v 0.071189 0.863884 0.148254
v 0.075990 0.855682 0.146762
v 0.070451 0.859291 0.146199
v 0.071980 0.848839 0.137530
v 0.065345 0.853104 0.138113
v 0.060971 0.837639 0.113002
v 0.050916 0.843391 0.115046
v 0.055163 0.838844 0.100703
v 0.121585 0.935997 0.248894
v 0.107019 0.908287 0.216073
v 0.119072 0.883881 0.240922
v 0.102535 0.952416 0.208751
v 0.082999 0.950890 0.166287
v 0.086593 0.917694 0.172421
v 0.077766 0.899605 0.152679
v 0.070530 0.933945 0.138340
v 0.071173 0.919632 0.147564
v 0.073972 0.919601 0.145341
v 0.077766 0.899605 0.152679
v 0.069440 0.930824 0.135947
v 0.073266 0.899765 0.155977
v 0.075184 0.915184 0.168107
v 0.081993 0.945877 0.163807
v 0.081719 0.930450 0.178231
v 0.081002 0.919823 0.184637
v 0.090562 0.914009 0.209975
v 0.092959 0.932465 0.205344
v 0.094177 0.950989 0.190638
v 0.111330 0.940422 0.227112
v 0.105528 0.922867 0.233893
v 0.100411 0.902054 0.232888
v 0.121032 0.931557 0.247352
v 0.114682 0.911850 0.249052
v 0.108716 0.891144 0.241159
v 0.122191 0.909981 0.248966
v 0.119072 0.883881 0.240922
v 0.119072 0.883881 0.240922
v 0.126982 0.912125 0.243244
v 0.122191 0.909981 0.248966
v 0.125548 0.891518 0.233435
v 0.121032 0.931557 0.247352
v 0.124505 0.902580 0.221803
v 0.121079 0.923210 0.226802
v 0.111330 0.940422 0.227112
v 0.112953 0.914497 0.199964
v 0.106877 0.932777 0.198549
v 0.094177 0.950989 0.190638
v 0.081993 0.945877 0.163807
v 0.093765 0.930718 0.172689
v 0.099283 0.920235 0.176102
v 0.090735 0.915527 0.161016
v 0.077761 0.919769 0.144909
v 0.069440 0.930824 0.135947
v 0.083442 0.899986 0.151686
v 0.073972 0.919601 0.145341
v 0.077766 0.899605 0.152679
f 1 2 3
f 2 1 4
f 4 5 2
f 6 4 1
f 4 6 7
f 8 7 6
f 6 9 8
f 10 8 9
f 8 10 11
f 11 12 8
f 7 8 12
f 12 11 13
f 14 12 13
f 12 14 15
f 7 12 15
f 16 15 14
f 15 16 17
f 18 17 16
f 15 19 7
f 19 15 17
f 17 18 20
f 21 20 18
f 22 7 19
f 4 7 22
f 17 23 19
f 23 17 20
f 22 19 24
f 4 22 24
f 23 24 19
f 20 21 25
f 26 25 21
f 24 27 4
f 5 4 27
f 23 20 28
f 25 28 20
f 24 23 29
f 27 24 29
f 29 23 28
f 25 26 30
f 31 30 26
f 32 5 27
f 27 29 32
f 28 25 33
f 30 33 25
f 30 31 34
f 33 30 34
f 31 35 34
f 29 28 36
f 33 36 28
f 36 32 29
f 5 32 37
f 37 38 5
f 37 39 38
f 35 40 34
f 41 40 35
f 33 34 42
f 36 33 42
f 42 34 40
f 32 36 43
f 36 42 43
f 43 37 32
f 40 43 42
f 44 39 37
f 43 44 37
f 43 40 44
f 44 40 41
f 39 44 45
f 44 41 46
f 46 45 44
f 47 48 49
f 49 50 47
f 50 49 51
f 52 47 50
f 50 53 52
f 54 52 53
f 52 54 55
f 56 55 54
f 54 57 56
f 57 54 58
f 53 58 54
f 58 59 57
f 60 59 58
f 58 61 60
f 53 61 58
f 62 60 61
f 61 63 62
f 64 62 63
f 61 53 65
f 65 63 61
f 63 66 64
f 67 64 66
f 68 65 53
f 50 68 53
f 63 65 69
f 69 66 63
f 68 70 65
f 50 70 68
f 69 65 70
f 66 71 67
f 72 67 71
f 70 50 73
f 51 73 50
f 69 74 66
f 71 66 74
f 70 75 69
f 73 75 70
f 75 74 69
f 71 76 72
f 77 72 76
f 78 73 51
f 73 78 75
f 75 79 74
f 79 75 78
f 74 80 71
f 76 71 80
f 80 74 79
f 76 81 77
f 80 81 76
f 77 81 82
f 51 83 78
f 83 51 84
f 83 84 85
f 79 86 80
f 80 86 81
f 82 81 87
f 86 87 81
f 88 82 87
f 78 89 79
f 79 89 86
f 89 78 83
f 87 86 89
f 90 83 85
f 89 83 90
f 89 90 87
f 90 88 87
f 85 91 90
f 90 92 88
f 92 90 91
f 93 94 95
f 95 96 93
f 95 97 96
f 97 95 98
f 98 99 97
f 99 98 100
f 100 101 99
f 100 102 101
f 102 100 103
f 103 104 102
f 105 106 107
f 106 105 108
f 106 108 109
f 109 110 106
f 110 109 111
f 111 112 110
f 112 111 113
f 112 113 114
f 114 115 112
f 115 114 116
f 117 118 119
f 117 120 118
f 120 117 121
f 121 122 120
f 122 121 123
f 123 124 122
f 124 123 125
f 125 126 124
f 126 125 127
f 127 128 126
f 128 127 129
f 130 131 132
f 130 132 133
f 133 134 130
f 134 133 135
f 135 136 134
f 136 135 137
f 137 138 136
f 138 137 139
f 139 140 138
f 140 139 141
f 141 142 140
f 143 144 145
f 143 146 144
f 147 144 146
f 147 148 144
f 149 148 147
f 147 150 149
f 151 152 153
f 151 154 152
f 151 153 155
f 156 151 155
f 157 154 151
f 158 151 156
f 151 158 157
f 159 158 156
f 160 158 159
f 157 158 161
f 158 160 161
f 157 161 162
f 163 162 161
f 160 164 161
f 163 161 164
f 160 165 164
f 166 163 164
f 165 167 164
f 166 164 167
f 165 168 167
f 169 166 167
f 170 167 168
f 170 169 167
f 171 172 173
f 171 174 172
f 173 172 175
f 176 172 174
f 175 172 177
f 176 177 172
f 175 177 178
f 179 177 176
f 178 177 180
f 179 180 177
f 178 180 181
f 182 181 180
f 183 180 179
f 182 180 183
f 179 184 183
f 184 185 183
f 186 182 183
f 183 185 186
f 182 186 187
f 185 188 186
f 186 189 187
f 186 188 190
f 186 190 189
