v 0.014111 0.605232 0.046127
v -0.002806 0.567879 0.020008
v -0.044295 0.563934 0.055667
v -0.027379 0.601288 0.081785
v 0.035233 0.590553 0.074912
v -0.069322 0.553238 0.093884
v 0.009394 0.589661 0.092772
v -0.044332 0.590950 0.114378
v -0.009145 0.582809 0.116422
v -0.058128 0.531433 0.141546
v -0.005793 0.569855 0.138361
v -0.040985 0.574646 0.151169
v -0.027795 0.511215 0.169170
v -0.010652 0.554428 0.178793
v 0.008314 0.560234 0.151162
v 0.009585 0.490151 0.180229
v 0.026643 0.533363 0.189940
v 0.030537 0.545914 0.152639
v 0.053820 0.477394 0.166438
v 0.062805 0.520256 0.181773
v 0.056444 0.538506 0.145311
v 0.099272 0.516930 0.160562
v 0.080132 0.544548 0.135357
v 0.090640 0.474068 0.145564
v 0.072459 0.486549 0.120769
v 0.050484 0.489563 0.133878
v 0.009585 0.490151 0.180229
v 0.021552 0.503059 0.137303
v -0.027795 0.511215 0.169170
v -0.000671 0.517372 0.135827
v -0.058128 0.531433 0.141546
v -0.014778 0.526993 0.123026
v -0.069322 0.553238 0.093884
v -0.016586 0.538452 0.104418
v -0.044295 0.563934 0.055667
v 0.000325 0.546799 0.077525
v -0.002806 0.567879 0.020008
v 0.026247 0.547691 0.059577
v 0.014111 0.605232 0.046127
v 0.044650 0.567864 -0.007758
v -0.002806 0.567879 0.020008
v 0.061566 0.605217 0.018361
v 0.035233 0.590553 0.074912
v 0.089723 0.560242 -0.018892
v 0.060533 0.591919 0.056201
v 0.098481 0.597237 0.012939
v 0.089407 0.587151 0.046474
v 0.132266 0.539818 0.006553
v 0.109833 0.574951 0.056194
v 0.133178 0.582321 0.027513
v 0.149336 0.519028 0.043116
v 0.150248 0.561531 0.064075
v 0.117738 0.565056 0.073367
v 0.149093 0.496292 0.081542
v 0.150005 0.538796 0.102502
v 0.112689 0.549538 0.094205
v 0.121949 0.480408 0.117736
v 0.130934 0.523270 0.133071
v 0.097823 0.540321 0.116130
v 0.099272 0.516930 0.160562
v 0.080132 0.544548 0.135357
v 0.090640 0.474068 0.145564
v 0.072459 0.486549 0.120769
v 0.091863 0.491386 0.104697
v 0.149093 0.496292 0.081542
v 0.103704 0.506676 0.078869
v 0.149336 0.519028 0.043116
v 0.108668 0.522194 0.058120
v 0.132266 0.539818 0.006553
v 0.100848 0.532089 0.040859
v 0.089723 0.560242 -0.018892
v 0.083246 0.542847 0.033837
v 0.044650 0.567864 -0.007758
v 0.051548 0.549065 0.040866
v -0.002806 0.567879 0.020008
v 0.026247 0.547691 0.059577
v -0.037697 0.560608 0.102484
v -0.049454 0.524262 0.128224
v -0.033328 0.545151 0.142446
v -0.053944 0.530869 0.079199
v -0.019801 0.564385 0.069611
v -0.059288 0.495850 0.117311
v -0.034567 0.532883 0.046896
v -0.060495 0.504150 0.068384
v -0.010073 0.534576 0.026909
v 0.000009 0.564552 0.052407
v 0.011945 0.531738 0.019411
v 0.014048 0.564865 0.043365
v 0.009521 0.498146 0.007811
v -0.015074 0.502213 0.015886
v 0.014232 0.472771 0.009948
v -0.041708 0.499611 0.036699
v -0.062128 0.481384 0.068681
v -0.011148 0.468590 0.013896
v 0.023454 0.454132 0.024328
v -0.002922 0.447746 0.018715
v -0.042324 0.467300 0.032396
v -0.065274 0.459763 0.067026
v -0.075445 0.406548 0.113019
v -0.039463 0.448151 0.032935
v 0.008261 0.376274 0.016905
v -0.074813 0.389870 0.072770
v -0.066376 0.320374 0.105645
v -0.047431 0.366829 0.024311
v -0.071519 0.344925 0.065788
v -0.046672 0.271011 0.080069
v -0.027142 0.272942 0.046899
v -0.016913 0.275719 0.063760
v 0.016029 0.272255 0.046946
v -0.039326 0.265663 0.087930
v 0.015281 0.268578 0.051971
v -0.048189 0.281723 0.081658
v 0.012988 0.291885 0.042353
v -0.018831 0.303322 0.062940
v -0.070634 0.335747 0.047895
v -0.088156 0.307686 0.055635
v -0.040485 0.346542 0.029764
v -0.010837 0.336838 0.008622
v -0.001630 0.314034 -0.000309
v 0.014048 0.564865 0.043365
v 0.027280 0.565758 0.033047
v 0.011945 0.531738 0.019411
v 0.020039 0.535309 0.010937
v 0.009521 0.498146 0.007811
v 0.049946 0.567459 0.019922
v 0.019296 0.500267 0.001111
v 0.014232 0.472771 0.009948
v 0.049756 0.539085 0.000327
v 0.024234 0.463577 0.009373
v 0.023454 0.454132 0.024328
v 0.035612 0.443321 0.023618
v 0.056064 0.467613 -0.006983
v 0.087151 0.543121 0.000766
v 0.087283 0.566109 0.014059
v 0.051153 0.503548 -0.010324
v 0.126491 0.541176 0.029566
v 0.124267 0.552094 0.030480
v 0.128852 0.510277 0.015784
v 0.086561 0.514130 -0.009927
v 0.093881 0.488358 -0.006986
v 0.106449 0.468041 -0.001058
v 0.160924 0.424713 0.040174
v 0.068053 0.448288 0.003794
v 0.049256 0.375427 0.087801
v 0.134043 0.392044 0.035091
v 0.178715 0.355072 0.089411
v 0.088221 0.357048 0.051250
v 0.140330 0.355042 0.053251
v 0.166558 0.305748 0.124053
v 0.129579 0.293488 0.126713
v 0.133880 0.287972 0.133522
v 0.106376 0.307373 0.161608
v 0.169962 0.295319 0.133213
v 0.111140 0.292908 0.162276
v 0.170979 0.279305 0.128614
v 0.102782 0.276329 0.155473
v 0.129295 0.275803 0.125597
v 0.151386 0.231484 0.091160
v 0.181688 0.233696 0.106093
v 0.115393 0.229919 0.099150
v 0.088632 0.229546 0.125751
v 0.089233 0.230583 0.151985
v 0.126491 0.541176 0.029566
v 0.124267 0.552094 0.030480
v 0.132709 0.534905 0.059815
v 0.133911 0.527344 0.055729
v 0.135318 0.518005 0.083239
v 0.137025 0.502983 0.044693
v 0.128852 0.510277 0.015784
v 0.160924 0.424713 0.040174
v 0.130301 0.506630 0.082836
v 0.115867 0.506767 0.108550
v 0.136082 0.502762 0.078905
v 0.165594 0.454208 0.093252
v 0.126491 0.492638 0.097428
v 0.116331 0.483009 0.102410
v 0.084095 0.467499 0.119898
v 0.083094 0.500725 0.136498
v 0.070573 0.464447 0.132641
v 0.067079 0.440636 0.115798
v 0.074994 0.450272 0.103270
v 0.060554 0.431732 0.098593
v 0.085845 0.457130 0.109584
v 0.137458 0.462181 0.127655
v 0.091425 0.448799 0.138379
v 0.117338 0.413994 0.172753
v 0.094904 0.394768 0.165842
v 0.144472 0.347916 0.211503
v 0.117148 0.332535 0.198400
v 0.150939 0.321259 0.222406
v 0.121469 0.308449 0.202359
v 0.149321 0.288506 0.212082
v 0.124515 0.282166 0.192102
v 0.175728 0.325264 0.219075
v 0.168456 0.353066 0.206895
v 0.152467 0.421829 0.168495
v 0.176819 0.414482 0.142295
v 0.141700 0.235031 0.196025
v 0.116041 0.233246 0.184007
v 0.171112 0.290703 0.209770
v 0.165288 0.236313 0.196780
v 0.194900 0.323029 0.200419
v 0.186410 0.289497 0.191634
v 0.181277 0.236443 0.178628
v 0.191100 0.381088 0.117447
v 0.178715 0.355072 0.089411
v 0.188402 0.349182 0.188134
v 0.189382 0.330246 0.151763
v 0.166558 0.305748 0.124053
v 0.169962 0.295319 0.133213
v 0.191764 0.308037 0.157752
v 0.185909 0.283188 0.154692
v 0.187263 0.235642 0.149740
v 0.170979 0.279305 0.128614
v 0.181688 0.233696 0.106093
v -0.049454 0.524262 0.128224
v -0.007474 0.528740 0.159208
v -0.033328 0.545151 0.142446
v -0.029244 0.510742 0.147360
v 0.014939 0.512695 0.168969
v -0.038487 0.478798 0.135829
v -0.059288 0.495850 0.117311
v -0.075445 0.406548 0.113019
v -0.001393 0.492180 0.157083
v 0.045430 0.503677 0.158255
v -0.011516 0.469414 0.148594
v -0.025850 0.403122 0.152290
v 0.010860 0.456932 0.149204
v 0.025552 0.471901 0.153616
v 0.056207 0.460732 0.134955
v 0.083094 0.500725 0.136498
v 0.070573 0.464447 0.132641
v 0.067079 0.440636 0.115798
v 0.049730 0.431809 0.108511
v 0.060554 0.431732 0.098593
v 0.045920 0.428688 0.111793
v 0.026158 0.402519 0.153689
v 0.049024 0.399490 0.107837
v 0.050573 0.345642 0.118939
v 0.051611 0.340569 0.088869
v 0.039280 0.257622 0.104606
v 0.042774 0.264084 0.076207
v 0.028735 0.229424 0.085249
v 0.034189 0.247047 0.063280
v 0.006132 0.226517 0.055893
v 0.013842 0.250397 0.045701
v 0.011318 0.224037 0.101361
v 0.022770 0.255203 0.122598
v 0.030543 0.342850 0.149099
v -0.005582 0.342369 0.155106
v -0.025482 0.250168 0.006281
v -0.010436 0.272926 -0.000280
v -0.010083 0.219399 0.067920
v -0.043041 0.237633 0.016181
v -0.043156 0.323097 0.139303
v -0.066376 0.320374 0.105645
v -0.002937 0.256355 0.131130
v -0.012439 0.227264 0.112094
v -0.029344 0.225761 0.078895
v -0.061733 0.245468 0.029387
v -0.032886 0.263710 0.116534
v -0.046672 0.271011 0.080069
v -0.039326 0.265663 0.087930
v -0.037549 0.248093 0.105157
v -0.046661 0.251679 0.084299
v -0.076721 0.267357 0.042250
v -0.048189 0.281723 0.081658
v -0.088156 0.307686 0.055635
v -0.003655 0.495651 -0.111295
v -0.076126 0.501732 -0.086323
v 0.015180 0.528420 -0.073046
v -0.046909 0.536835 -0.043391
v 0.030732 0.555611 -0.034895
v -0.096446 0.532867 0.002813
v -0.127191 0.503754 -0.031451
v -0.065643 0.556862 0.032067
v -0.020850 0.552750 -0.006344
v 0.054884 0.563988 0.005563
v -0.035089 0.560028 0.069356
v 0.006554 0.564003 0.032831
v 0.131656 0.507164 0.089194
v 0.164012 0.472565 0.080769
v 0.141636 0.524078 0.046228
v 0.170278 0.493622 0.022605
v 0.129721 0.539612 0.019822
v 0.184164 0.438599 0.070983
v 0.154922 0.515854 -0.010802
v 0.104837 0.552460 0.007700
v 0.191695 0.457878 0.000184
v 0.206730 0.397385 0.057256
v 0.209317 0.411652 -0.029575
v 0.173255 0.480537 -0.043426
v 0.190214 0.433968 -0.079559
v 0.160544 0.446152 -0.100810
v 0.109548 0.528435 -0.035405
v 0.068691 0.563950 0.005247
v 0.061144 0.534966 -0.037750
v 0.115044 0.500107 -0.074384
v 0.124883 0.456230 -0.112253
v 0.059273 0.504257 -0.070430
v 0.060285 0.466316 -0.105421
v 0.021795 0.502342 0.166739
v -0.022667 0.516830 0.163096
v 0.037657 0.501778 0.199617
v -0.016976 0.509583 0.196724
v -0.044695 0.531929 0.143742
v 0.045040 0.464844 0.227940
v -0.052236 0.505135 0.176378
v -0.048679 0.545692 0.116809
v -0.017645 0.467468 0.227821
v 0.051881 0.418228 0.258952
v -0.016021 0.414848 0.257226
v -0.058492 0.462776 0.204841
v -0.060404 0.409088 0.234413
v -0.083571 0.402016 0.199285
v -0.072826 0.491386 0.129363
v -0.039621 0.559166 0.082584
v -0.068689 0.501404 0.076256
v -0.088736 0.451202 0.139657
v -0.095196 0.399132 0.159145
v -0.080863 0.464813 0.076276
v -0.093226 0.422279 0.079322
v 0.012988 0.291885 0.042353
v -0.010436 0.272926 -0.000280
v -0.001630 0.314034 -0.000309
v 0.013842 0.250397 0.045701
v 0.034189 0.247047 0.063280
v 0.015281 0.268578 0.051971
v 0.016029 0.272255 0.046946
v 0.042774 0.264084 0.076207
v 0.039143 0.334251 0.049611
v 0.051611 0.340569 0.088869
v 0.008261 0.376274 0.016905
v 0.046305 0.383926 0.056959
v 0.049024 0.399490 0.107837
v 0.045920 0.428688 0.111793
v 0.028745 0.441864 0.044237
v -0.002922 0.447746 0.018715
v 0.023454 0.454132 0.024328
v 0.040629 0.442200 0.057952
v 0.036181 0.431648 0.071091
v 0.049730 0.431809 0.108511
v 0.060554 0.431732 0.098593
v 0.102782 0.276329 0.155473
v 0.089233 0.230583 0.151985
v 0.116041 0.233246 0.184007
v 0.124515 0.282166 0.192102
v 0.121469 0.308449 0.202359
v 0.111140 0.292908 0.162276
v 0.106376 0.307373 0.161608
v 0.117148 0.332535 0.198400
v 0.073129 0.366257 0.146224
v 0.094904 0.394768 0.165842
v 0.049256 0.375427 0.087801
v 0.057751 0.410904 0.126977
v 0.091425 0.448799 0.138379
v 0.085845 0.457130 0.109584
v 0.036265 0.445305 0.059692
v 0.035612 0.443321 0.023618
v 0.023454 0.454132 0.024328
v 0.040629 0.442200 0.057952
v 0.052370 0.442009 0.076764
v 0.074994 0.450272 0.103270
v 0.060554 0.431732 0.098593
v 0.114091 0.466660 0.170497
v 0.169947 0.399887 0.234317
v 0.226002 0.422203 0.197548
v 0.117607 0.415222 0.274973
v 0.167918 0.478310 0.138181
v 0.065387 0.472366 0.211587
v 0.124467 0.498871 0.099547
v 0.034579 0.494911 0.163252
v 0.087884 0.479462 0.142087
v 0.096706 0.471932 0.154059
v 0.086256 0.463539 0.138843
v 0.098946 0.466621 0.131214
v 0.074557 0.465553 0.148263
v 0.110840 0.474335 0.126538
v 0.065803 0.472366 0.158134
v 0.119530 0.492554 0.147837
v 0.104885 0.511528 0.168117
v 0.119883 0.485512 0.125554
v 0.124778 0.498436 0.128204
v 0.125358 0.511154 0.134667
v 0.120547 0.521721 0.143238
v 0.111794 0.528534 0.153109
v 0.100095 0.530548 0.162529
v 0.087758 0.527466 0.170495
v 0.075864 0.519753 0.175171
v 0.082061 0.490906 0.174338
v 0.061429 0.482933 0.166954
v 0.066821 0.508575 0.176155
v 0.061572 0.495651 0.173167
f 1 2 3
f 1 3 4
f 5 1 4
f 4 3 6
f 5 4 7
f 4 6 8
f 7 4 8
f 7 8 9
f 8 6 10
f 11 9 8
f 8 10 12
f 11 8 12
f 12 10 13
f 11 12 14
f 12 13 14
f 11 14 15
f 14 13 16
f 15 14 17
f 14 16 17
f 15 17 18
f 17 16 19
f 18 17 20
f 17 19 20
f 18 20 21
f 21 20 22
f 21 22 23
f 22 20 24
f 19 24 20
f 19 25 24
f 19 26 25
f 27 26 19
f 27 28 26
f 29 28 27
f 29 30 28
f 31 30 29
f 31 32 30
f 33 32 31
f 33 34 32
f 35 34 33
f 35 36 34
f 37 36 35
f 37 38 36
f 39 40 41
f 39 42 40
f 43 42 39
f 42 44 40
f 43 45 42
f 42 46 44
f 45 46 42
f 45 47 46
f 46 48 44
f 49 46 47
f 46 50 48
f 49 50 46
f 50 51 48
f 49 52 50
f 50 52 51
f 49 53 52
f 52 54 51
f 53 55 52
f 52 55 54
f 53 56 55
f 55 57 54
f 56 58 55
f 55 58 57
f 56 59 58
f 59 60 58
f 59 61 60
f 60 62 58
f 57 58 62
f 57 62 63
f 57 63 64
f 65 57 64
f 65 64 66
f 67 65 66
f 67 66 68
f 69 67 68
f 69 68 70
f 71 69 70
f 71 70 72
f 73 71 72
f 73 72 74
f 75 73 74
f 75 74 76
f 77 78 79
f 77 80 78
f 80 77 81
f 80 82 78
f 80 81 83
f 84 82 80
f 84 80 83
f 85 83 81
f 85 81 86
f 87 85 86
f 88 87 86
f 87 89 85
f 89 90 85
f 90 83 85
f 91 90 89
f 84 83 92
f 90 92 83
f 84 93 82
f 92 93 84
f 91 94 90
f 91 95 94
f 95 96 94
f 97 92 90
f 94 97 90
f 93 92 97
f 96 97 94
f 93 98 82
f 98 93 97
f 82 98 99
f 100 97 96
f 97 100 98
f 101 100 96
f 102 99 98
f 98 100 102
f 102 103 99
f 100 101 104
f 104 102 100
f 102 105 103
f 104 105 102
f 105 106 103
f 101 107 104
f 105 104 107
f 106 105 107
f 108 106 107
f 107 101 109
f 109 108 107
f 110 106 108
f 111 108 109
f 112 110 108
f 111 113 108
f 108 114 112
f 114 108 113
f 115 112 114
f 116 112 115
f 115 114 117
f 114 118 117
f 114 113 118
f 113 119 118
f 120 121 122
f 122 121 123
f 122 123 124
f 123 121 125
f 124 123 126
f 127 124 126
f 123 125 128
f 126 123 128
f 127 126 129
f 127 129 130
f 130 129 131
f 129 126 132
f 131 129 132
f 133 128 125
f 133 125 134
f 126 128 135
f 132 126 135
f 134 136 133
f 134 137 136
f 133 136 138
f 139 128 133
f 139 135 128
f 139 133 138
f 135 139 140
f 139 138 140
f 140 132 135
f 140 138 141
f 141 132 140
f 141 138 142
f 143 131 132
f 132 141 143
f 144 131 143
f 142 145 141
f 141 145 143
f 145 142 146
f 143 147 144
f 147 143 145
f 145 146 148
f 147 145 148
f 148 146 149
f 144 147 150
f 148 150 147
f 149 150 148
f 151 150 149
f 150 152 144
f 152 150 151
f 153 151 149
f 154 152 151
f 155 151 153
f 154 151 156
f 151 155 157
f 157 156 151
f 158 157 155
f 159 158 155
f 158 160 157
f 157 160 161
f 157 161 156
f 156 161 162
f 163 164 165
f 166 163 165
f 166 165 167
f 168 163 166
f 169 163 168
f 168 170 169
f 166 167 171
f 167 172 171
f 173 168 166
f 173 166 171
f 170 168 174
f 173 174 168
f 175 173 171
f 173 175 174
f 172 176 171
f 175 171 176
f 172 177 176
f 172 178 177
f 178 179 177
f 180 177 179
f 181 176 177
f 181 177 180
f 181 175 176
f 182 181 180
f 183 175 181
f 183 184 175
f 184 174 175
f 184 183 185
f 186 184 185
f 186 185 187
f 188 186 187
f 188 187 189
f 189 190 188
f 190 189 191
f 192 190 191
f 192 191 193
f 194 188 190
f 192 194 190
f 195 186 188
f 194 195 188
f 186 196 184
f 195 196 186
f 184 196 197
f 195 197 196
f 184 197 174
f 198 192 193
f 193 199 198
f 192 198 200
f 192 200 194
f 200 198 201
f 202 195 194
f 200 202 194
f 201 203 200
f 203 202 200
f 204 203 201
f 174 197 205
f 205 170 174
f 206 170 205
f 207 197 195
f 207 205 197
f 202 207 195
f 208 206 205
f 205 207 208
f 208 207 202
f 209 206 208
f 210 209 208
f 208 202 211
f 211 202 203
f 210 208 211
f 212 203 204
f 203 212 211
f 210 211 212
f 204 213 212
f 210 212 214
f 212 213 215
f 215 214 212
f 216 217 218
f 219 217 216
f 219 220 217
f 221 219 216
f 222 221 216
f 221 222 223
f 219 224 220
f 220 224 225
f 226 219 221
f 226 224 219
f 223 227 221
f 226 221 227
f 228 224 226
f 226 227 228
f 225 224 229
f 228 229 224
f 225 229 230
f 225 230 231
f 231 230 232
f 233 232 230
f 234 230 229
f 234 233 230
f 234 229 228
f 235 233 234
f 236 234 228
f 236 228 237
f 237 228 227
f 237 238 236
f 239 238 237
f 239 240 238
f 241 240 239
f 241 242 240
f 242 241 243
f 243 244 242
f 245 244 243
f 245 246 244
f 247 243 241
f 245 243 247
f 248 241 239
f 247 241 248
f 239 237 249
f 248 239 249
f 237 250 249
f 237 227 250
f 248 249 250
f 251 246 245
f 246 251 252
f 245 253 251
f 245 247 253
f 253 254 251
f 227 255 250
f 255 227 223
f 256 255 223
f 257 248 250
f 257 250 255
f 258 247 248
f 253 247 258
f 258 248 257
f 254 253 259
f 259 253 258
f 260 254 259
f 261 255 256
f 255 261 257
f 261 258 257
f 262 261 256
f 263 261 262
f 261 264 258
f 264 259 258
f 263 264 261
f 265 260 259
f 259 264 265
f 263 265 264
f 260 265 266
f 263 267 265
f 265 268 266
f 268 265 267
f 269 270 271
f 272 271 270
f 271 272 273
f 272 270 274
f 275 274 270
f 274 276 272
f 277 273 272
f 277 272 276
f 273 277 278
f 276 279 277
f 280 278 277
f 280 277 279
f 281 282 283
f 283 282 284
f 284 285 283
f 282 286 284
f 287 285 284
f 285 287 288
f 284 286 289
f 289 287 284
f 286 290 289
f 289 290 291
f 291 292 289
f 292 287 289
f 293 292 291
f 292 293 294
f 288 287 295
f 287 292 295
f 295 296 288
f 297 296 295
f 298 292 294
f 295 292 298
f 298 297 295
f 298 294 299
f 300 297 298
f 299 300 298
f 301 300 299
f 302 303 304
f 303 305 304
f 305 303 306
f 304 305 307
f 308 305 306
f 306 309 308
f 305 310 307
f 310 305 308
f 307 310 311
f 310 312 311
f 312 310 313
f 313 310 308
f 314 312 313
f 313 315 314
f 309 316 308
f 308 316 313
f 316 309 317
f 318 316 317
f 319 315 313
f 316 319 313
f 319 316 318
f 319 320 315
f 321 319 318
f 320 319 321
f 322 320 321
f 323 324 325
f 324 323 326
f 326 323 327
f 323 328 327
f 327 328 329
f 330 327 329
f 330 329 331
f 332 330 331
f 331 329 333
f 331 334 332
f 331 333 334
f 332 334 335
f 336 335 334
f 334 333 337
f 337 333 338
f 339 337 338
f 339 340 337
f 336 334 341
f 334 337 341
f 340 341 337
f 341 342 336
f 340 343 341
f 343 342 341
f 344 345 346
f 346 347 344
f 347 348 344
f 344 348 349
f 348 350 349
f 351 350 348
f 351 352 350
f 353 352 351
f 352 354 350
f 352 353 355
f 352 355 354
f 353 356 355
f 357 355 356
f 355 358 354
f 358 359 354
f 360 359 358
f 360 358 361
f 357 362 355
f 355 362 358
f 361 358 362
f 362 357 363
f 361 362 364
f 364 362 363
f 365 366 367
f 365 368 366
f 369 365 367
f 368 365 370
f 371 365 369
f 370 365 372
f 365 371 373
f 373 372 365
f 374 375 376
f 374 377 375
f 374 376 378
f 374 379 377
f 380 374 378
f 381 374 380
f 380 378 382
f 380 382 383
f 380 383 384
f 380 384 385
f 381 380 385
f 381 385 386
f 381 386 387
f 381 387 388
f 381 388 389
f 390 379 374
f 381 390 374
f 381 389 390
f 390 391 379
f 390 389 392
f 390 393 391
f 390 392 393
