v -0.037737 0.869217 -0.063003
v -0.022925 0.860817 -0.061254
v -0.020530 0.858154 -0.055185
v -0.028401 0.867188 -0.055720
v -0.046122 0.889587 -0.063868
v -0.029932 0.878624 -0.056588
v -0.043147 0.893181 -0.063347
v -0.025882 0.886620 -0.061531
v -0.018862 0.881348 -0.059221
v -0.046122 0.889587 -0.063868
v -0.043147 0.893181 -0.063347
v -0.025882 0.886620 -0.061531
v -0.037737 0.869217 -0.063003
v -0.018862 0.881348 -0.059221
v -0.022925 0.860817 -0.061254
v -0.016532 0.862785 -0.060858
v -0.020530 0.858154 -0.055185
v -0.002116 0.869392 0.010190
v -0.013247 0.866806 0.011970
v -0.007026 0.873131 0.016785
v -0.020900 0.877441 0.028065
v -0.023787 0.873634 0.028762
v -0.013128 0.856415 0.006822
v -0.018201 0.855278 0.017957
v -0.006757 0.848640 0.000121
v -0.006736 0.849014 0.007218
v -0.023787 0.873634 0.028762
v -0.007026 0.873131 0.016785
v -0.020900 0.877441 0.028065
v -0.018201 0.855278 0.017957
v -0.002116 0.869392 0.010190
v -0.006736 0.849014 0.007218
v -0.000562 0.851524 0.004571
v -0.006757 0.848640 0.000121
v 0.034673 0.851036 -0.036395
v 0.036819 0.849205 -0.040589
v 0.034923 0.851105 -0.039718
v 0.034463 0.852921 -0.039317
v 0.036683 0.849236 -0.035683
v 0.035717 0.845711 -0.035491
v 0.035819 0.845993 -0.040884
v 0.033879 0.844444 -0.040622
v 0.034195 0.852539 -0.036238
v 0.032189 0.853149 -0.030097
v 0.034006 0.850014 -0.032064
v 0.037630 0.855034 -0.036119
v 0.037863 0.855583 -0.039685
v 0.035076 0.846527 -0.030795
v 0.032641 0.855156 -0.030619
v 0.040039 0.857643 -0.036659
v 0.040307 0.858551 -0.039738
v 0.040342 0.861748 -0.039251
v 0.035476 0.856575 -0.032047
v 0.040100 0.860786 -0.035807
v 0.036073 0.866806 -0.037353
v 0.034545 0.859825 -0.031368
v 0.035796 0.865578 -0.034396
v 0.033708 0.870026 -0.036203
v 0.032729 0.857742 -0.029402
v 0.032154 0.861847 -0.030584
v 0.031391 0.857155 -0.027592
v 0.032093 0.868965 -0.031436
v 0.030711 0.865463 -0.030235
v 0.030763 0.872528 -0.029505
v 0.031830 0.873917 -0.035089
v 0.031956 0.876701 -0.026531
v 0.031891 0.878655 -0.034237
v 0.029982 0.864082 -0.026756
v 0.027946 0.867828 -0.027833
v 0.026547 0.870041 -0.026876
v 0.028341 0.867622 -0.022355
v 0.032035 0.880943 -0.025435
v 0.030970 0.882195 -0.033436
v 0.029596 0.887695 -0.032113
v 0.028292 0.887650 -0.016232
v 0.026771 0.893608 -0.030564
v 0.024128 0.895409 -0.012872
v 0.030074 0.863098 -0.018685
v 0.028784 0.873589 -0.022998
v 0.027563 0.866066 -0.012752
v 0.027791 0.861038 -0.009587
v 0.030925 0.856751 -0.020460
v 0.028573 0.873535 -0.012336
v 0.031179 0.880844 -0.016929
v 0.024645 0.884666 -0.005689
v 0.020889 0.890930 -0.003460
v 0.016387 0.883202 0.002004
v 0.030793 0.851219 -0.022286
v 0.030718 0.878120 -0.016529
v 0.026975 0.879669 -0.007325
v 0.021968 0.877960 -0.002069
v 0.015023 0.874916 0.003449
v 0.026949 0.876762 -0.007690
v 0.021933 0.873924 -0.002556
v 0.024540 0.871948 -0.007150
v 0.024505 0.866890 -0.007637
v 0.022298 0.867371 -0.004296
v 0.018169 0.866470 -0.000449
v 0.014865 0.864029 0.001257
v 0.008779 0.866364 0.005122
v 0.021403 0.861626 -0.003130
v 0.021714 0.853111 -0.005600
v 0.008630 0.857987 0.003052
v -0.002116 0.869392 0.010190
v -0.000562 0.851524 0.004571
v 0.029033 0.854134 -0.012736
v 0.027831 0.846985 -0.015831
v 0.032904 0.847572 -0.026967
v 0.029793 0.841957 -0.022581
v 0.008428 0.849892 0.000252
v 0.016383 0.847717 -0.004849
v 0.020982 0.846397 -0.008974
v -0.000601 0.838684 -0.002770
v -0.006757 0.848640 0.000121
v -0.005230 0.838326 -0.005863
v 0.000725 0.830452 -0.011554
v 0.026586 0.838448 -0.019536
v 0.015892 0.836319 -0.011667
v 0.012338 0.840431 -0.006638
v 0.002909 0.833443 -0.008407
v 0.014783 0.827156 -0.020277
v 0.004995 0.823624 -0.027038
v 0.016906 0.829971 -0.017982
v 0.022282 0.823669 -0.031709
v 0.004737 0.822548 -0.037422
v 0.023512 0.822640 -0.041833
v 0.021246 0.832802 -0.018906
v 0.023962 0.824791 -0.028771
v 0.028855 0.823151 -0.035609
v 0.028807 0.823563 -0.043071
v 0.027867 0.829086 -0.028929
v 0.031777 0.828941 -0.035820
v 0.032252 0.829475 -0.042830
v 0.031844 0.835304 -0.041699
v 0.029425 0.832573 -0.027695
v 0.031395 0.834908 -0.034324
v 0.028784 0.838707 -0.022998
v 0.033725 0.836960 -0.035960
v 0.033783 0.836876 -0.041961
v 0.034783 0.840332 -0.041666
v 0.032172 0.838387 -0.030341
v 0.031913 0.841347 -0.027140
v 0.034734 0.840340 -0.035543
v 0.034058 0.844002 -0.031333
v 0.032102 0.842522 -0.031315
v 0.033317 0.843918 -0.034829
v 0.032252 0.829475 -0.042830
v 0.028900 0.831139 -0.048585
v 0.031844 0.835304 -0.041699
v 0.028807 0.823563 -0.043071
v 0.025899 0.825516 -0.049471
v 0.023512 0.822640 -0.041833
v 0.018054 0.826767 -0.049640
v 0.004737 0.822548 -0.037422
v 0.000227 0.826828 -0.045664
v 0.006432 0.833077 -0.054678
v -0.009719 0.837860 -0.054617
v 0.018348 0.828850 -0.052354
v 0.022236 0.833199 -0.052756
v 0.027970 0.837257 -0.047907
v 0.023175 0.836983 -0.053313
v 0.012145 0.839340 -0.056925
v 0.007761 0.836617 -0.056610
v -0.008938 0.841873 -0.057366
v 0.030980 0.838844 -0.046899
v 0.033783 0.836876 -0.041961
v 0.034783 0.840332 -0.041666
v 0.004611 0.844566 -0.059565
v -0.013939 0.848351 -0.058841
v -0.016555 0.846687 -0.054370
v -0.020530 0.858154 -0.055185
v -0.016532 0.862785 -0.060858
v 0.027299 0.841850 -0.050428
v 0.031980 0.842239 -0.046604
v 0.033879 0.844444 -0.040622
v 0.017519 0.844894 -0.057067
v -0.000860 0.849747 -0.060762
v -0.006809 0.860596 -0.061802
v 0.002488 0.857536 -0.061860
v -0.006809 0.869148 -0.061802
v 0.007880 0.862770 -0.061758
v -0.018862 0.881348 -0.059221
v -0.007235 0.877747 -0.060915
v 0.008437 0.855331 -0.060820
v 0.000097 0.874764 -0.061076
v -0.000276 0.885742 -0.059458
v 0.017458 0.854240 -0.057920
v 0.003576 0.876801 -0.060347
v 0.006959 0.871590 -0.060958
v 0.015936 0.869492 -0.058667
v 0.009082 0.876724 -0.058663
v 0.008170 0.883438 -0.057741
v 0.017884 0.862061 -0.058807
v 0.008222 0.887428 -0.057010
v 0.001908 0.893257 -0.056311
v 0.012912 0.892838 -0.053064
v 0.009599 0.899193 -0.051479
v 0.016535 0.900688 -0.043534
v 0.021327 0.892601 -0.044981
v 0.026771 0.893608 -0.030564
v 0.029596 0.887695 -0.032113
v 0.015755 0.887779 -0.054370
v 0.015712 0.884888 -0.054979
v 0.027982 0.883614 -0.040931
v 0.030970 0.882195 -0.033436
v 0.031891 0.878655 -0.034237
v 0.028434 0.879265 -0.041454
v 0.031830 0.873917 -0.035089
v 0.023578 0.886154 -0.047713
v 0.023012 0.883682 -0.048773
v 0.012710 0.880348 -0.055865
v 0.018322 0.880478 -0.052719
v 0.012623 0.875389 -0.057082
v 0.017712 0.873238 -0.054389
v 0.028070 0.874275 -0.039714
v 0.033708 0.870026 -0.036203
v 0.023841 0.877205 -0.044060
v 0.023095 0.872459 -0.040824
v 0.022700 0.871750 -0.046303
v 0.022332 0.868729 -0.051417
v 0.024521 0.870163 -0.041417
v 0.030018 0.870407 -0.039854
v 0.025780 0.867111 -0.044322
v 0.023245 0.862244 -0.052339
v 0.034410 0.866554 -0.040048
v 0.036073 0.866806 -0.037353
v 0.027956 0.867378 -0.041297
v 0.027092 0.860405 -0.046497
v 0.023236 0.856407 -0.052461
v 0.028110 0.855888 -0.045958
v 0.029312 0.863953 -0.042863
v 0.038653 0.861893 -0.042312
v 0.040342 0.861748 -0.039251
v 0.026794 0.851662 -0.050637
v 0.028650 0.860481 -0.045263
v 0.031677 0.861992 -0.044012
v 0.038636 0.858658 -0.042555
v 0.040307 0.858551 -0.039738
v 0.037863 0.855583 -0.039685
v 0.029145 0.857658 -0.045176
v 0.032598 0.858788 -0.044813
v 0.035687 0.856171 -0.042710
v 0.034463 0.852921 -0.039317
v 0.032800 0.853516 -0.042013
v 0.033252 0.852104 -0.042535
v 0.034923 0.851105 -0.039718
v 0.036819 0.849205 -0.040589
v 0.030545 0.852425 -0.046134
v 0.034564 0.850792 -0.044710
v 0.030352 0.849640 -0.048812
v 0.033529 0.847420 -0.045492
v 0.035819 0.845993 -0.040884
v 0.031076 0.845749 -0.045560
v 0.029865 0.846993 -0.048777
v 0.027943 0.845436 -0.048272
v 0.025715 0.845642 -0.052028
v 0.022095 0.847481 -0.054704
v 0.021095 0.844208 -0.055000
f 1 2 3
f 1 3 4
f 4 5 1
f 6 5 4
f 6 7 5
f 6 8 7
f 9 8 6
f 10 11 12
f 10 12 13
f 13 12 14
f 15 13 14
f 16 15 14
f 15 16 17
f 18 19 20
f 19 21 20
f 19 22 21
f 19 23 22
f 23 24 22
f 24 23 25
f 24 25 26
f 27 28 29
f 27 30 28
f 30 31 28
f 32 31 30
f 33 31 32
f 32 34 33
f 35 36 37
f 38 35 37
f 35 39 36
f 39 40 36
f 40 41 36
f 40 42 41
f 38 43 35
f 43 44 35
f 45 39 35
f 44 45 35
f 38 46 43
f 46 38 47
f 45 48 39
f 40 39 48
f 43 49 44
f 43 46 49
f 47 50 46
f 50 47 51
f 51 52 50
f 53 46 50
f 53 49 46
f 54 50 52
f 50 54 53
f 52 55 54
f 53 56 49
f 56 53 54
f 57 54 55
f 55 58 57
f 56 59 49
f 59 44 49
f 54 60 56
f 59 56 60
f 60 54 57
f 59 61 44
f 60 61 59
f 62 57 58
f 57 63 60
f 62 63 57
f 58 64 62
f 58 65 64
f 66 64 65
f 65 67 66
f 68 60 63
f 60 68 61
f 69 63 62
f 62 64 69
f 63 69 68
f 69 64 70
f 66 70 64
f 69 71 68
f 69 70 71
f 66 67 72
f 72 67 73
f 72 73 74
f 72 74 75
f 74 76 75
f 77 75 76
f 68 78 61
f 78 68 71
f 79 71 70
f 66 79 70
f 71 79 80
f 71 80 78
f 78 80 81
f 78 82 61
f 81 82 78
f 83 80 79
f 79 66 83
f 72 84 66
f 84 72 75
f 77 85 75
f 85 77 86
f 87 85 86
f 61 82 88
f 88 44 61
f 84 89 66
f 89 83 66
f 90 84 75
f 90 75 85
f 84 90 89
f 91 85 87
f 91 90 85
f 91 87 92
f 90 93 89
f 91 93 90
f 89 93 83
f 93 91 94
f 91 92 94
f 93 95 83
f 94 95 93
f 95 96 83
f 80 83 96
f 80 96 81
f 96 95 97
f 95 94 97
f 96 97 81
f 94 92 98
f 97 94 98
f 99 98 92
f 100 99 92
f 98 101 97
f 97 101 81
f 98 99 101
f 81 101 102
f 101 99 102
f 99 100 103
f 102 99 103
f 103 100 104
f 104 105 103
f 106 81 102
f 81 106 82
f 82 106 88
f 107 88 106
f 106 102 107
f 88 107 108
f 88 108 44
f 44 108 45
f 48 45 108
f 109 108 107
f 48 108 109
f 110 103 105
f 103 111 102
f 111 103 110
f 112 107 102
f 111 112 102
f 105 113 110
f 114 113 105
f 113 114 115
f 113 115 116
f 107 112 117
f 117 109 107
f 112 111 118
f 112 118 117
f 119 111 110
f 110 113 119
f 111 119 118
f 119 113 120
f 116 120 113
f 120 118 119
f 120 116 121
f 122 121 116
f 123 118 120
f 120 121 123
f 121 122 124
f 125 124 122
f 126 124 125
f 123 127 118
f 117 118 127
f 123 121 128
f 128 121 124
f 127 123 128
f 129 124 126
f 128 124 129
f 126 130 129
f 128 131 127
f 128 129 131
f 132 129 130
f 131 129 132
f 130 133 132
f 133 134 132
f 131 135 127
f 127 135 117
f 131 132 135
f 136 132 134
f 135 132 136
f 117 135 137
f 117 137 109
f 134 138 136
f 138 134 139
f 140 138 139
f 136 141 135
f 135 141 137
f 136 138 141
f 137 142 109
f 137 141 142
f 48 109 142
f 140 143 138
f 143 141 138
f 143 140 42
f 144 48 142
f 48 144 40
f 142 141 145
f 145 141 143
f 145 144 142
f 40 146 42
f 146 143 42
f 145 143 146
f 144 145 146
f 146 40 144
f 147 148 149
f 150 148 147
f 148 150 151
f 152 151 150
f 151 152 153
f 152 154 153
f 154 155 153
f 156 153 155
f 155 157 156
f 158 151 153
f 158 153 156
f 159 148 151
f 158 159 151
f 160 149 148
f 159 161 148
f 161 160 148
f 158 162 159
f 159 162 161
f 163 158 156
f 162 158 163
f 164 156 157
f 164 163 156
f 149 160 165
f 165 166 149
f 167 166 165
f 163 168 162
f 163 164 168
f 157 169 164
f 169 157 170
f 169 170 171
f 171 172 169
f 160 173 165
f 160 161 173
f 167 165 174
f 174 165 173
f 174 175 167
f 162 176 161
f 176 162 168
f 177 164 169
f 164 177 168
f 172 178 169
f 178 177 169
f 179 168 177
f 177 178 179
f 178 172 180
f 179 178 180
f 180 181 179
f 172 182 180
f 183 180 182
f 184 168 179
f 184 176 168
f 179 181 184
f 185 180 183
f 181 180 185
f 183 186 185
f 187 176 184
f 184 181 187
f 185 186 188
f 189 181 185
f 188 189 185
f 190 181 189
f 188 191 189
f 191 190 189
f 192 188 186
f 191 188 192
f 193 187 181
f 193 181 190
f 194 192 186
f 194 186 195
f 194 195 196
f 195 197 196
f 196 197 198
f 198 199 196
f 198 200 199
f 201 199 200
f 194 196 202
f 202 196 199
f 203 192 194
f 194 202 203
f 204 199 201
f 204 201 205
f 204 205 206
f 207 204 206
f 208 207 206
f 209 199 204
f 202 199 209
f 204 207 209
f 209 210 202
f 202 210 203
f 209 207 210
f 192 203 211
f 211 191 192
f 210 212 203
f 203 212 211
f 210 207 212
f 213 191 211
f 211 212 213
f 213 190 191
f 214 213 212
f 214 190 213
f 207 208 215
f 216 215 208
f 217 212 207
f 212 217 214
f 207 218 217
f 207 215 218
f 219 214 217
f 217 218 219
f 220 190 214
f 219 220 214
f 221 218 215
f 221 219 218
f 216 222 215
f 222 221 215
f 221 223 219
f 220 219 223
f 190 220 224
f 190 224 193
f 222 216 225
f 226 225 216
f 221 222 227
f 227 223 221
f 222 225 227
f 220 228 224
f 223 228 220
f 224 229 193
f 228 229 224
f 229 228 230
f 187 193 229
f 223 227 231
f 225 231 227
f 231 228 223
f 225 226 232
f 231 225 232
f 233 232 226
f 229 234 187
f 229 230 234
f 231 235 228
f 235 230 228
f 235 231 236
f 232 236 231
f 232 233 237
f 238 237 233
f 237 238 239
f 236 240 235
f 235 240 230
f 236 232 241
f 237 241 232
f 241 240 236
f 239 242 237
f 241 237 242
f 241 242 240
f 242 239 243
f 244 240 242
f 243 244 242
f 244 230 240
f 243 245 244
f 244 245 230
f 243 246 245
f 245 246 247
f 230 245 248
f 230 248 234
f 245 247 249
f 248 245 249
f 250 234 248
f 248 249 250
f 249 247 251
f 251 250 249
f 251 247 252
f 251 252 175
f 251 175 253
f 253 175 174
f 253 254 251
f 250 251 254
f 255 253 174
f 254 253 255
f 255 174 173
f 255 256 254
f 254 256 250
f 256 255 173
f 250 257 234
f 250 256 257
f 257 187 234
f 176 187 257
f 258 256 173
f 258 257 256
f 176 257 258
f 161 258 173
f 176 258 161
