v -0.064986 0.899056 -0.033504
v -0.067768 0.886299 -0.031345
v -0.075210 0.889305 -0.025914
v -0.068194 0.901642 -0.030458
v -0.070068 0.902878 -0.022490
v -0.077198 0.888214 -0.019529
v -0.053464 0.909821 -0.036659
v -0.079725 0.887169 -0.013840
v -0.055496 0.917343 -0.030883
v -0.028871 0.916145 -0.041856
v -0.028043 0.927818 -0.037143
v -0.006964 0.915108 -0.043556
v -0.069853 0.902565 -0.012715
v -0.080599 0.886681 -0.005577
v -0.069814 0.903412 -0.005375
v -0.052631 0.917465 -0.025092
v -0.054220 0.921265 -0.019960
v -0.053189 0.923187 -0.012446
v -0.051760 0.923798 -0.006185
v -0.052860 0.917366 -0.014673
v -0.021936 0.929443 -0.020326
v -0.052860 0.917366 -0.014673
v -0.020282 0.934692 -0.017752
v -0.018888 0.936394 -0.011978
v 0.002721 0.933228 -0.017818
v -0.001744 0.929298 -0.025451
v 0.000361 0.932503 -0.023400
v 0.010321 0.924820 -0.021057
v 0.008005 0.925095 -0.026031
v 0.012160 0.912361 -0.029512
v 0.014963 0.911354 -0.024573
v -0.022800 0.932663 -0.025526
v -0.021936 0.929443 -0.020326
v -0.024700 0.926712 -0.031509
v -0.003982 0.931786 -0.029329
v -0.001744 0.929298 -0.025451
v -0.005377 0.927528 -0.035103
v -0.007675 0.927948 -0.039833
v 0.005645 0.922890 -0.031613
v 0.012160 0.912361 -0.029512
v 0.008808 0.913734 -0.035267
v 0.003631 0.915093 -0.039178
v -0.001770 0.922997 -0.039401
v -0.053192 0.890755 0.014724
v -0.066275 0.883171 0.009791
v -0.057925 0.879135 0.010169
v -0.057132 0.893906 0.014396
v -0.062423 0.897476 0.008902
v -0.071026 0.883987 0.004993
v -0.040885 0.900795 0.015674
v -0.076203 0.884590 0.001082
v -0.044425 0.909607 0.014093
v -0.015770 0.907051 0.010928
v -0.016292 0.919609 0.010476
v 0.004177 0.907188 0.002394
v -0.066932 0.900261 0.000660
v -0.080599 0.886681 -0.005577
v -0.069814 0.903412 -0.005375
v -0.044855 0.911736 0.008127
v -0.047978 0.916870 0.005537
v -0.050374 0.921150 -0.000533
v -0.051760 0.923798 -0.006185
v -0.049408 0.914955 -0.000724
v -0.018449 0.926971 -0.005891
v -0.049408 0.914955 -0.000724
v -0.017554 0.932846 -0.007056
v -0.018888 0.936394 -0.011978
v 0.002721 0.933228 -0.017818
v 0.002256 0.926750 -0.010686
v 0.003116 0.930603 -0.012339
v 0.010321 0.924820 -0.021057
v 0.010689 0.923348 -0.015943
v 0.014888 0.910507 -0.018816
v 0.014963 0.911354 -0.024573
v -0.017046 0.928284 0.000005
v -0.018449 0.926971 -0.005891
v -0.016278 0.920639 0.003866
v 0.001641 0.927689 -0.005624
v 0.002256 0.926750 -0.010686
v 0.002794 0.920479 0.003595
v 0.002435 0.921730 -0.001397
v 0.010570 0.919319 -0.010795
v 0.014888 0.910507 -0.018816
v 0.014396 0.909760 -0.012049
v 0.011886 0.909409 -0.006116
v 0.007367 0.916374 -0.000896
v 0.014888 0.910507 -0.018816
v 0.021137 0.904533 -0.027221
v 0.014963 0.911354 -0.024573
v 0.019762 0.903000 -0.012313
v 0.014396 0.909760 -0.012049
v 0.011886 0.909409 -0.006116
v 0.024128 0.895409 -0.012872
v 0.026771 0.893608 -0.030564
v 0.014264 0.900581 -0.000291
v 0.020889 0.890930 -0.003460
v 0.004177 0.907188 0.002394
v 0.016387 0.883202 0.002004
v -0.003151 0.897728 0.009408
v -0.015770 0.907051 0.010928
v 0.002676 0.880264 0.008744
v -0.020759 0.875786 0.016428
v 0.015023 0.874916 0.003449
v 0.008779 0.866364 0.005122
v -0.002116 0.869392 0.010190
v -0.013247 0.866806 0.011970
v -0.022751 0.893379 0.015959
v -0.040885 0.900795 0.015674
v -0.042596 0.885506 0.019101
v -0.053192 0.890755 0.014724
v -0.057925 0.879135 0.010169
v -0.023773 0.853653 0.008567
v -0.013128 0.856415 0.006822
v -0.041354 0.868607 0.015952
v -0.056389 0.863159 0.004306
v -0.070573 0.880295 -0.009114
v -0.067410 0.863304 -0.012769
v -0.056524 0.848366 -0.017958
v -0.042858 0.849739 0.001864
v -0.034227 0.837204 -0.007447
v -0.044133 0.839226 -0.022644
v -0.040864 0.830421 -0.024838
v -0.031655 0.828369 -0.012528
v -0.020546 0.827805 -0.007820
v -0.017265 0.839554 -0.003039
v -0.006757 0.848640 0.000121
v -0.005230 0.838326 -0.005863
v 0.012160 0.912361 -0.029512
v 0.014963 0.911354 -0.024573
v 0.021137 0.904533 -0.027221
v 0.012911 0.907677 -0.039479
v 0.008808 0.913734 -0.035267
v 0.003631 0.915093 -0.039178
v 0.016535 0.900688 -0.043534
v 0.026771 0.893608 -0.030564
v 0.003000 0.908783 -0.047945
v 0.009599 0.899193 -0.051479
v -0.006964 0.915108 -0.043556
v 0.001908 0.893257 -0.056311
v -0.017647 0.907814 -0.049151
v -0.028871 0.916145 -0.041856
v -0.013303 0.891563 -0.056807
v -0.038080 0.887947 -0.054166
v -0.000276 0.885742 -0.059458
v -0.007235 0.877747 -0.060915
v -0.018862 0.881348 -0.059221
v -0.029932 0.878624 -0.056588
v -0.038076 0.904274 -0.047313
v -0.053464 0.909821 -0.036659
v -0.057877 0.896294 -0.043562
v -0.064986 0.899056 -0.033504
v -0.067768 0.886299 -0.031345
v -0.038993 0.864288 -0.053244
v -0.028401 0.867188 -0.055720
v -0.056644 0.879417 -0.046833
v -0.064890 0.869431 -0.032165
v -0.070573 0.880295 -0.009114
v -0.067410 0.863304 -0.012769
v -0.056524 0.848366 -0.017958
v -0.052753 0.856995 -0.040382
v -0.041986 0.842888 -0.040422
v -0.044133 0.839226 -0.022644
v -0.040864 0.830421 -0.024838
v -0.038533 0.833099 -0.040059
v -0.030858 0.834908 -0.049056
v -0.029033 0.847801 -0.050901
v -0.020530 0.858154 -0.055185
v -0.016555 0.846687 -0.054370
v -0.078637 0.895836 -0.012327
v -0.077102 0.896851 -0.004605
v -0.066589 0.891449 -0.008177
v -0.078685 0.890671 -0.019789
v -0.075253 0.889427 -0.026523
v -0.065942 0.886734 -0.033190
v -0.075150 0.893356 0.002108
v -0.066589 0.891449 -0.008177
v -0.077102 0.896851 -0.004605
v -0.071886 0.886108 0.006646
v -0.066231 0.883049 0.010400
v -0.055411 0.879105 0.011090
v -0.084513 0.881004 -0.005540
v -0.075150 0.893356 0.002108
v -0.077102 0.896851 -0.004605
v -0.079968 0.878052 0.003189
v -0.071886 0.886108 0.006646
v -0.066231 0.883049 0.010400
v -0.081345 0.865433 -0.002341
v -0.083793 0.861633 -0.009141
v -0.077247 0.868271 0.000178
v -0.070977 0.869347 -0.001130
v -0.069218 0.874924 0.002905
v -0.055411 0.879105 0.011090
v -0.058271 0.870613 -0.001433
v -0.059065 0.864838 -0.005659
v -0.084513 0.881004 -0.005540
v -0.077102 0.896851 -0.004605
v -0.078637 0.895836 -0.012327
v -0.084771 0.881355 -0.015925
v -0.078685 0.890671 -0.019789
v -0.075253 0.889427 -0.026523
v -0.084196 0.867584 -0.014742
v -0.083793 0.861633 -0.009141
v -0.081484 0.871376 -0.017875
v -0.075214 0.872444 -0.019183
v -0.074885 0.879112 -0.021409
v -0.065942 0.886734 -0.033190
v -0.063824 0.874527 -0.024164
v -0.063188 0.867683 -0.022129
v -0.069126 0.881981 -0.002609
v -0.063219 0.851875 -0.015763
v -0.067182 0.882736 -0.009603
v -0.065980 0.850861 -0.006507
v -0.065838 0.834541 -0.018144
v -0.076335 0.882546 -0.000744
v -0.068546 0.834740 -0.008158
v -0.064430 0.831810 -0.018980
v -0.075597 0.851608 -0.004102
v -0.081112 0.883873 -0.005907
v -0.081968 0.853371 -0.010986
v -0.077651 0.838081 -0.005422
v -0.084038 0.841209 -0.012550
v -0.067963 0.832146 -0.006854
v -0.073867 0.807953 -0.020871
v -0.076913 0.808212 -0.008780
v -0.078971 0.836212 -0.003369
v -0.086943 0.840035 -0.012097
v -0.087931 0.812279 -0.005417
v -0.095893 0.816093 -0.014022
v -0.071959 0.884071 -0.014766
v -0.067182 0.882736 -0.009603
v -0.063219 0.851875 -0.015763
v -0.070076 0.853638 -0.022612
v -0.065838 0.834541 -0.018144
v -0.079168 0.884636 -0.012901
v -0.072713 0.837669 -0.025237
v -0.064430 0.831810 -0.018980
v -0.079207 0.854385 -0.020241
v -0.081112 0.883873 -0.005907
v -0.081968 0.853371 -0.010986
v -0.081809 0.841011 -0.022379
v -0.084038 0.841209 -0.012550
v -0.072880 0.835709 -0.027551
v -0.073867 0.807953 -0.020871
v -0.081830 0.811760 -0.029476
v -0.083888 0.839783 -0.024066
v -0.086943 0.840035 -0.012097
v -0.092839 0.815834 -0.025991
v -0.095893 0.816093 -0.014022
v -0.067427 0.861885 -0.013012
v -0.075214 0.872444 -0.019183
v -0.063188 0.867683 -0.022129
v -0.081484 0.871376 -0.017875
v -0.084196 0.867584 -0.014742
v -0.083793 0.861633 -0.009141
v -0.083793 0.861633 -0.009141
v -0.067427 0.861885 -0.013012
v -0.081345 0.865433 -0.002341
v -0.077247 0.868271 0.000178
v -0.070977 0.869347 -0.001130
v -0.059065 0.864838 -0.005659
v -0.095893 0.816093 -0.014022
v -0.076913 0.808212 -0.008780
v -0.087931 0.812279 -0.005417
v -0.073867 0.807953 -0.020871
v -0.095893 0.816093 -0.014022
v -0.081830 0.811760 -0.029476
v -0.073867 0.807953 -0.020871
v -0.092839 0.815834 -0.025991
f 1 2 3
f 3 4 1
f 5 4 3
f 5 3 6
f 7 1 4
f 5 6 8
f 4 9 7
f 4 5 9
f 10 7 9
f 9 11 10
f 12 10 11
f 5 8 13
f 13 8 14
f 13 14 15
f 5 16 9
f 11 9 16
f 5 17 16
f 17 5 13
f 18 13 15
f 15 19 18
f 13 18 20
f 21 20 18
f 13 22 17
f 23 18 19
f 18 23 21
f 23 19 24
f 25 23 24
f 26 21 23
f 23 25 27
f 23 27 26
f 27 25 28
f 29 26 27
f 27 28 29
f 30 26 29
f 29 28 31
f 29 31 30
f 32 17 22
f 22 33 32
f 17 32 34
f 34 16 17
f 16 34 11
f 35 32 33
f 33 36 35
f 37 34 32
f 32 35 37
f 38 11 34
f 34 37 38
f 11 38 12
f 39 35 36
f 39 37 35
f 36 40 39
f 40 41 39
f 41 42 39
f 42 37 39
f 43 38 37
f 43 12 38
f 12 43 42
f 37 42 43
f 44 45 46
f 45 44 47
f 48 45 47
f 48 49 45
f 50 47 44
f 48 51 49
f 47 50 52
f 47 52 48
f 53 52 50
f 52 53 54
f 55 54 53
f 48 56 51
f 56 57 51
f 56 58 57
f 48 52 59
f 54 59 52
f 48 59 60
f 60 56 48
f 61 58 56
f 58 61 62
f 56 63 61
f 64 61 63
f 56 60 65
f 66 62 61
f 61 64 66
f 66 67 62
f 68 67 66
f 69 66 64
f 66 70 68
f 66 69 70
f 70 71 68
f 72 70 69
f 70 72 71
f 73 72 69
f 72 74 71
f 72 73 74
f 75 65 60
f 65 75 76
f 60 77 75
f 77 60 59
f 59 54 77
f 78 76 75
f 76 78 79
f 80 77 54
f 54 55 80
f 81 75 77
f 75 81 78
f 77 80 81
f 82 79 78
f 82 78 81
f 79 82 83
f 83 82 84
f 84 82 85
f 85 82 81
f 86 80 55
f 55 85 86
f 81 86 85
f 86 81 80
f 87 88 89
f 87 90 88
f 90 87 91
f 91 92 90
f 93 88 90
f 94 88 93
f 90 92 95
f 93 90 95
f 95 96 93
f 95 92 97
f 98 96 95
f 95 97 99
f 99 98 95
f 97 100 99
f 98 99 101
f 102 101 99
f 101 103 98
f 101 104 103
f 101 105 104
f 102 105 101
f 102 106 105
f 107 99 100
f 102 99 107
f 100 108 107
f 109 107 108
f 102 107 109
f 109 108 110
f 110 111 109
f 102 112 106
f 106 112 113
f 114 102 109
f 109 111 114
f 102 114 112
f 115 114 111
f 111 116 115
f 116 117 115
f 118 115 117
f 114 115 119
f 119 115 118
f 114 119 112
f 118 120 119
f 112 119 120
f 118 121 120
f 122 120 121
f 120 122 123
f 120 123 124
f 112 125 113
f 120 125 112
f 120 124 125
f 126 113 125
f 125 124 127
f 125 127 126
f 128 129 130
f 128 130 131
f 131 132 128
f 132 131 133
f 134 131 130
f 135 134 130
f 131 136 133
f 134 136 131
f 136 134 137
f 136 138 133
f 139 136 137
f 136 140 138
f 140 136 139
f 138 140 141
f 139 142 140
f 143 140 142
f 142 139 144
f 142 144 145
f 142 145 146
f 143 142 146
f 143 146 147
f 148 141 140
f 143 148 140
f 141 148 149
f 150 149 148
f 143 150 148
f 150 151 149
f 151 150 152
f 143 147 153
f 147 154 153
f 155 150 143
f 150 155 152
f 143 153 155
f 156 152 155
f 152 156 157
f 157 156 158
f 159 158 156
f 155 160 156
f 160 159 156
f 155 153 160
f 159 160 161
f 153 161 160
f 159 161 162
f 163 162 161
f 161 164 163
f 161 165 164
f 153 154 166
f 161 153 166
f 161 166 165
f 167 166 154
f 166 168 165
f 166 167 168
f 169 170 171
f 172 169 171
f 173 172 171
f 174 173 171
f 175 176 177
f 178 176 175
f 179 176 178
f 180 176 179
f 181 182 183
f 184 182 181
f 185 182 184
f 184 186 185
f 187 184 181
f 188 187 181
f 184 187 189
f 184 189 190
f 191 186 184
f 190 191 184
f 191 192 186
f 193 192 191
f 191 190 193
f 193 190 194
f 195 196 197
f 198 195 197
f 199 198 197
f 198 199 200
f 201 195 198
f 202 195 201
f 198 203 201
f 198 204 203
f 205 198 200
f 204 198 205
f 205 200 206
f 207 205 206
f 205 207 204
f 207 208 204
f 209 210 211
f 210 209 212
f 213 210 212
f 214 212 209
f 213 212 215
f 215 216 213
f 212 214 217
f 215 212 217
f 218 217 214
f 217 218 219
f 220 217 219
f 215 217 220
f 220 219 221
f 216 215 222
f 220 222 215
f 222 223 216
f 223 222 224
f 221 225 220
f 222 220 225
f 225 224 222
f 225 221 226
f 224 225 227
f 226 227 225
f 227 226 228
f 229 230 231
f 231 232 229
f 233 232 231
f 234 229 232
f 233 235 232
f 235 233 236
f 232 237 234
f 235 237 232
f 238 234 237
f 237 239 238
f 240 239 237
f 235 240 237
f 240 241 239
f 236 242 235
f 240 235 242
f 242 236 243
f 243 244 242
f 241 240 245
f 242 245 240
f 245 242 244
f 245 246 241
f 244 247 245
f 246 245 247
f 247 248 246
f 249 250 251
f 252 250 249
f 253 252 249
f 254 253 249
f 255 256 257
f 257 256 258
f 258 256 259
f 256 260 259
f 261 262 263
f 261 264 262
f 265 266 267
f 265 268 266
