v -0.000483 0.792564 0.005667
v -0.023591 0.798401 -0.009314
v -0.018788 0.796112 0.009799
v -0.001031 0.793327 -0.008736
v -0.036313 0.806480 -0.036425
v 0.013233 0.787224 -0.007804
v -0.016731 0.790596 -0.043220
v -0.043714 0.817848 -0.050823
v 0.010849 0.788094 -0.040922
v 0.001596 0.789307 -0.040256
v -0.004940 0.787239 -0.063038
v -0.031792 0.809921 -0.055231
v 0.032738 0.773186 -0.029280
v 0.019428 0.769295 -0.003355
v 0.033267 0.758637 -0.015121
v 0.018621 0.758331 -0.000971
v 0.009679 0.748764 -0.002775
v 0.010650 0.785484 -0.070892
v -0.026593 0.830444 -0.057808
v -0.039501 0.835487 -0.060305
v -0.022877 0.841728 -0.053792
v -0.018990 0.831131 -0.054194
v -0.017559 0.814552 -0.061518
v -0.012829 0.818062 -0.063817
v -0.012999 0.806732 -0.072983
v -0.009520 0.813156 -0.072255
v -0.014991 0.795075 -0.073452
v -0.018568 0.798554 -0.061935
v -0.004434 0.783554 -0.076415
v 0.005745 0.782677 -0.084613
v 0.026260 0.771477 -0.071649
v 0.022120 0.767761 -0.088362
v 0.028637 0.772263 -0.052238
v 0.047225 0.756668 -0.079645
v 0.043782 0.749329 -0.093471
v 0.046434 0.763145 -0.063433
v 0.049175 0.763825 -0.045762
v 0.051696 0.758804 -0.031134
v 0.053797 0.744041 -0.022351
v 0.063088 0.758499 -0.049701
v 0.062251 0.756813 -0.068121
v 0.064991 0.753746 -0.036865
v 0.052969 0.742477 -0.088258
v 0.060366 0.748657 -0.080713
v 0.055202 0.735420 -0.091234
v 0.055382 0.734535 -0.095530
v 0.062657 0.735039 -0.089690
v 0.059081 0.716126 -0.091758
v 0.059862 0.716202 -0.094506
v 0.060976 0.700340 -0.092628
v 0.063999 0.702332 -0.084646
v 0.065368 0.682274 -0.092822
v 0.067988 0.717285 -0.090441
v 0.077746 0.748047 -0.043290
v 0.076435 0.751366 -0.054700
v 0.075892 0.750298 -0.062249
v 0.076867 0.743172 -0.075904
v 0.085487 0.745171 -0.058167
v 0.079324 0.730408 -0.082568
v 0.069128 0.742218 -0.027004
v 0.086267 0.743889 -0.047331
v 0.095109 0.737091 -0.053719
v 0.087256 0.737625 -0.067595
v 0.080518 0.739090 -0.031986
v 0.091297 0.724098 -0.072659
v 0.081272 0.720116 -0.082708
v 0.070870 0.701454 -0.084407
v 0.073471 0.726967 -0.021075
v 0.090847 0.734627 -0.038114
v 0.083580 0.706451 -0.077856
v 0.082817 0.725899 -0.027256
v 0.067850 0.693794 -0.071951
v 0.072338 0.692413 -0.070805
v 0.068468 0.690117 -0.056574
v 0.074373 0.688965 -0.056143
v 0.064737 0.691254 -0.040395
v 0.085229 0.698395 -0.068551
v 0.095495 0.710342 -0.061947
v 0.086070 0.694946 -0.056863
v 0.075416 0.690521 -0.041654
v 0.097175 0.725143 -0.059008
v 0.097631 0.725159 -0.052677
v 0.095920 0.708778 -0.049249
v 0.097034 0.726837 -0.047371
v 0.094656 0.714363 -0.039612
v 0.085947 0.696030 -0.044982
v 0.063735 0.695366 -0.027106
v 0.056553 0.698395 -0.024875
v 0.084651 0.711815 -0.028979
v 0.085674 0.702087 -0.035172
v 0.075744 0.697434 -0.030296
v 0.075845 0.708939 -0.022103
v 0.056236 0.726967 -0.015673
v 0.057575 0.707726 -0.017483
v 0.042139 0.726616 -0.014291
v 0.043433 0.710541 -0.016710
v 0.039147 0.747109 -0.015055
v 0.019687 0.730309 -0.006556
v 0.025843 0.748825 -0.009447
v 0.001790 0.744339 -0.003554
v 0.019950 0.703651 -0.002903
v 0.036251 0.670204 -0.014479
v 0.064219 0.671051 -0.033994
v 0.064737 0.691254 -0.040395
v 0.063469 0.650871 -0.037612
v 0.046431 0.639832 -0.022678
v 0.071460 0.671623 -0.055811
v 0.068468 0.690117 -0.056574
v 0.070964 0.651680 -0.055897
v 0.071737 0.671677 -0.072353
v 0.067850 0.693794 -0.071951
v 0.070667 0.655144 -0.073622
v 0.064377 0.660187 -0.092996
v 0.065930 0.631088 -0.037422
v 0.038928 0.606010 -0.018099
v 0.068634 0.629768 -0.054261
v 0.074379 0.628563 -0.076459
v 0.068699 0.628670 -0.094164
v 0.063315 0.590515 -0.094143
v 0.068337 0.589111 -0.071986
v 0.066575 0.566032 -0.096458
v 0.068434 0.565331 -0.070646
v 0.064216 0.594338 -0.054432
v 0.065541 0.572090 -0.049632
v 0.058550 0.603470 -0.031138
v 0.058804 0.580063 -0.027607
v 0.033280 0.583069 -0.008146
v -0.037274 0.774696 -0.151766
v -0.056614 0.776833 -0.148415
v -0.056717 0.782135 -0.129438
v -0.034831 0.777428 -0.138235
v -0.050572 0.796021 -0.105281
v -0.022164 0.770859 -0.145878
v -0.028854 0.781540 -0.102806
v -0.043420 0.809807 -0.101145
v -0.013825 0.777405 -0.118452
v -0.022346 0.778999 -0.114411
v -0.010234 0.783302 -0.088970
v -0.031710 0.803589 -0.094890
v 0.001072 0.759201 -0.135924
v -0.014634 0.752892 -0.150092
v -0.003587 0.741776 -0.146236
v -0.013305 0.741661 -0.152023
v -0.025990 0.730553 -0.144623
v 0.000937 0.781761 -0.096995
v -0.020640 0.823853 -0.097523
v -0.030740 0.828491 -0.101813
v -0.012198 0.833496 -0.102659
v -0.009865 0.823830 -0.097442
v -0.013512 0.810364 -0.086899
v -0.008786 0.814903 -0.082466
v -0.012999 0.806732 -0.072983
v -0.009520 0.813156 -0.072255
v -0.014991 0.795075 -0.073452
v -0.018781 0.794807 -0.085295
v -0.004434 0.783554 -0.076415
v 0.005745 0.782677 -0.084613
v 0.015241 0.767143 -0.102309
v 0.022120 0.767761 -0.088362
v 0.006336 0.763176 -0.117211
v 0.036859 0.752487 -0.108026
v 0.043782 0.749329 -0.093471
v 0.025641 0.754662 -0.121048
v 0.016257 0.750580 -0.135793
v 0.009589 0.741776 -0.146818
v 0.006865 0.725166 -0.150660
v 0.030127 0.745186 -0.140341
v 0.040972 0.748344 -0.125701
v 0.023590 0.737183 -0.149539
v 0.047604 0.740479 -0.101579
v 0.048223 0.743843 -0.113373
v 0.051693 0.734230 -0.099181
v 0.055382 0.734535 -0.095530
v 0.057151 0.732811 -0.104959
v 0.057774 0.715454 -0.096314
v 0.059862 0.716202 -0.094506
v 0.060976 0.700340 -0.092628
v 0.057441 0.699898 -0.100941
v 0.065368 0.682274 -0.092822
v 0.063640 0.715431 -0.103223
v 0.044101 0.738327 -0.143428
v 0.048471 0.739288 -0.137134
v 0.058566 0.735794 -0.126111
v 0.065901 0.724999 -0.119419
v 0.053780 0.732407 -0.144981
v 0.038122 0.732101 -0.151687
v 0.061682 0.727387 -0.137228
v 0.058647 0.722618 -0.152185
v 0.047810 0.728340 -0.153119
v 0.021612 0.723160 -0.156617
v 0.069355 0.715279 -0.132640
v 0.068459 0.714943 -0.117889
v 0.033656 0.720345 -0.159320
v 0.063483 0.698380 -0.105415
v 0.022376 0.706596 -0.159610
v 0.046310 0.716667 -0.160354
v 0.068336 0.700333 -0.119594
v 0.034029 0.706245 -0.160938
v 0.054287 0.688103 -0.110750
v 0.055989 0.684540 -0.114299
v 0.044723 0.680618 -0.121198
v 0.049339 0.678841 -0.125080
v 0.031298 0.677940 -0.130879
v 0.064498 0.690064 -0.125314
v 0.066899 0.698937 -0.139562
v 0.058031 0.683670 -0.133538
v 0.040661 0.676552 -0.136816
v 0.064921 0.712257 -0.146640
v 0.061622 0.710609 -0.151665
v 0.059379 0.694145 -0.148811
v 0.057427 0.710930 -0.155524
v 0.051965 0.697166 -0.156600
v 0.050529 0.681694 -0.142544
v 0.021751 0.678612 -0.141084
v 0.015038 0.681610 -0.139132
v 0.043080 0.685089 -0.150820
v 0.037727 0.692963 -0.157166
v 0.033071 0.680267 -0.147040
v 0.026561 0.689270 -0.155872
v 0.006211 0.706780 -0.152939
v 0.010032 0.688599 -0.147461
v -0.005925 0.707420 -0.144722
v -0.002131 0.692444 -0.139610
v -0.005092 0.728394 -0.146740
v -0.025472 0.711426 -0.137440
v -0.012884 0.731346 -0.146179
v -0.036595 0.725670 -0.135538
v -0.028496 0.688759 -0.131837
v -0.009169 0.664375 -0.128578
v 0.024668 0.665916 -0.134563
v 0.031298 0.677940 -0.130879
v 0.024922 0.649162 -0.131032
v 0.003033 0.637894 -0.129089
v 0.044521 0.668137 -0.123999
v 0.044723 0.680618 -0.121198
v 0.043086 0.650444 -0.123528
v 0.056130 0.669632 -0.112351
v 0.054287 0.688103 -0.110750
v 0.055252 0.654465 -0.110942
v 0.064377 0.660187 -0.092996
v 0.027261 0.629349 -0.132547
v -0.000876 0.619743 -0.135784
v 0.040713 0.628525 -0.122501
v 0.060166 0.627937 -0.110683
v 0.068699 0.628670 -0.094164
v 0.063315 0.590515 -0.094143
v 0.054006 0.594093 -0.114646
v 0.066575 0.566032 -0.096458
v 0.056630 0.574242 -0.118996
v 0.040555 0.602531 -0.124692
v 0.044873 0.587425 -0.132713
v 0.022962 0.615929 -0.137867
v 0.029767 0.601769 -0.145333
v -0.001336 0.609032 -0.148968
v -0.030740 0.828491 -0.101813
v -0.043420 0.809807 -0.101145
v -0.041183 0.832245 -0.097267
v -0.054947 0.813927 -0.091259
v -0.049595 0.836296 -0.084913
v -0.061696 0.814133 -0.076209
v -0.050572 0.796021 -0.105281
v -0.072888 0.777664 -0.088866
v -0.062501 0.740074 -0.053387
v -0.063432 0.791046 -0.100316
v -0.073473 0.776794 -0.124193
v -0.056717 0.782135 -0.129438
v -0.056614 0.776833 -0.148415
v -0.074819 0.770096 -0.136090
v -0.084210 0.759041 -0.116934
v -0.081611 0.758804 -0.135234
v -0.071494 0.732575 -0.069506
v -0.082262 0.736382 -0.117074
v -0.082743 0.740227 -0.137355
v -0.077601 0.720520 -0.133932
v -0.072000 0.713326 -0.117323
v -0.055874 0.713699 -0.131335
v -0.048574 0.694321 -0.063936
v -0.040019 0.698181 -0.053904
v -0.072067 0.722145 -0.097859
v -0.052056 0.691589 -0.085103
v -0.050343 0.690765 -0.115700
v -0.030805 0.666679 -0.061911
v -0.025461 0.667740 -0.055687
v -0.017800 0.632431 -0.058074
v -0.028496 0.688759 -0.131837
v -0.036595 0.725670 -0.135538
v -0.036282 0.664650 -0.103984
v -0.009169 0.664375 -0.128578
v -0.034721 0.666443 -0.082312
v -0.027118 0.634346 -0.078698
v -0.026474 0.603569 -0.062957
v -0.018094 0.637741 -0.116553
v 0.003033 0.637894 -0.129089
v -0.029885 0.637215 -0.096735
v -0.037238 0.612915 -0.103671
v -0.024908 0.618286 -0.122794
v -0.000876 0.619743 -0.135784
v -0.028421 0.604294 -0.137595
v -0.001336 0.609032 -0.148968
v -0.041664 0.598457 -0.117549
v -0.045878 0.591278 -0.094482
v -0.034731 0.582336 -0.068849
v -0.036331 0.608681 -0.084277
v -0.039501 0.835487 -0.060305
v -0.047021 0.836914 -0.069555
v -0.043714 0.817848 -0.050823
v -0.055261 0.818665 -0.061619
v -0.049595 0.836296 -0.084913
v -0.061696 0.814133 -0.076209
v -0.036313 0.806480 -0.036425
v -0.062353 0.785439 -0.037732
v -0.062501 0.740074 -0.053387
v -0.049888 0.801010 -0.034591
v -0.040400 0.793381 -0.004800
v -0.023591 0.798401 -0.009314
v -0.018788 0.796112 0.009799
v -0.039576 0.789253 0.006645
v -0.052436 0.775490 -0.001975
v -0.049080 0.778412 0.010634
v -0.059317 0.737663 -0.036360
v -0.046136 0.754074 0.003935
v -0.046119 0.761383 0.017764
v -0.040779 0.741837 0.017135
v -0.034298 0.731567 0.005164
v -0.017095 0.734078 0.006128
v -0.039525 0.697052 -0.040232
v -0.040019 0.698181 -0.053904
v -0.042370 0.734703 -0.011756
v -0.027921 0.698891 -0.021853
v -0.006810 0.704056 -0.000609
v -0.024883 0.667404 -0.047651
v -0.025461 0.667740 -0.055687
v -0.017800 0.632431 -0.058074
v 0.019950 0.703651 -0.002903
v 0.001790 0.744339 -0.003554
v -0.000363 0.669289 -0.013067
v 0.036251 0.670204 -0.014479
v -0.014306 0.669113 -0.029932
v -0.009909 0.635109 -0.036857
v -0.026474 0.603569 -0.062957
v 0.022865 0.639565 -0.016820
v 0.046431 0.639832 -0.022678
v 0.000449 0.638580 -0.022182
v -0.009901 0.603508 -0.023151
v 0.011308 0.605598 -0.014152
v 0.038928 0.606010 -0.018099
v 0.003493 0.580246 -0.007103
v 0.033280 0.583069 -0.008146
v -0.017979 0.580437 -0.019754
v -0.032610 0.581116 -0.039384
v -0.034731 0.582336 -0.068849
v -0.021347 0.603447 -0.039338
v -0.036196 0.716248 -0.136790
v -0.036595 0.725670 -0.135538
v -0.055874 0.713699 -0.131335
v -0.022234 0.718826 -0.146852
v -0.025990 0.730553 -0.144623
v -0.013305 0.741661 -0.152023
v -0.026519 0.666145 -0.158782
v -0.045269 0.663200 -0.140420
v -0.039831 0.617958 -0.166880
v -0.054337 0.615913 -0.150782
v -0.042946 0.604851 -0.169348
v -0.051783 0.602783 -0.156106
v -0.053367 0.589378 -0.157706
v -0.043165 0.591385 -0.172392
v -0.054683 0.557716 -0.162384
v -0.041795 0.560226 -0.180568
v -0.045256 0.563667 -0.194639
v -0.044502 0.594223 -0.184168
v -0.055619 0.566650 -0.202582
v -0.027154 0.670410 -0.174402
v -0.034635 0.639450 -0.176311
v -0.038570 0.673996 -0.183371
v -0.025721 0.725647 -0.161287
v -0.041194 0.620903 -0.179021
v -0.044292 0.607895 -0.181245
v -0.051991 0.623703 -0.186198
v -0.055361 0.597336 -0.192198
v -0.053575 0.610512 -0.187798
v -0.072744 0.598663 -0.188866
v -0.077048 0.568634 -0.201039
v -0.070402 0.625191 -0.183527
v -0.070994 0.611984 -0.184953
v -0.084443 0.596825 -0.174561
v -0.091997 0.566841 -0.184297
v -0.084531 0.593979 -0.162193
v -0.090327 0.563103 -0.167895
v -0.078047 0.591072 -0.153726
v -0.075849 0.559067 -0.157189
v -0.053367 0.589378 -0.157706
v -0.054683 0.557716 -0.162384
v -0.051783 0.602783 -0.156106
v -0.077288 0.604462 -0.149987
v -0.084738 0.607399 -0.158262
v -0.075156 0.617264 -0.147570
v -0.054337 0.615913 -0.150782
v -0.045269 0.663200 -0.140420
v -0.085110 0.610321 -0.170229
v -0.083119 0.620453 -0.156176
v -0.083925 0.623093 -0.167377
v -0.072297 0.664604 -0.135048
v -0.083348 0.668587 -0.145756
v -0.083426 0.672203 -0.160437
v -0.074796 0.722191 -0.156163
v -0.057875 0.704193 -0.131925
v -0.036196 0.716248 -0.136790
v -0.055874 0.713699 -0.131335
v -0.072011 0.708046 -0.137883
v -0.077601 0.720520 -0.133932
v -0.082743 0.740227 -0.137355
v -0.065146 0.675461 -0.178520
v -0.060167 0.717407 -0.170556
v -0.076007 0.738525 -0.159380
v -0.081611 0.758804 -0.135234
v -0.058960 0.737724 -0.174192
v -0.075612 0.760300 -0.153901
v -0.074819 0.770096 -0.136090
v -0.058886 0.762230 -0.166365
v -0.056614 0.776833 -0.148415
v -0.037274 0.774696 -0.151766
v -0.039260 0.722260 -0.172551
v -0.038927 0.760033 -0.167924
v -0.038338 0.739365 -0.173352
v -0.025914 0.741272 -0.163966
v -0.021658 0.757431 -0.159254
v -0.022164 0.770859 -0.145878
v -0.014634 0.752892 -0.150092
v -0.014027 0.734688 0.001134
v -0.017095 0.734078 0.006128
v 0.001790 0.744339 -0.003554
v 0.001211 0.735542 0.001995
v 0.009679 0.748764 -0.002775
v 0.018621 0.758331 -0.000971
v -0.003932 0.682755 0.012157
v -0.029792 0.682770 0.006553
v -0.016912 0.635376 0.022270
v -0.037857 0.634903 0.016924
v -0.019606 0.624298 0.025646
v -0.034211 0.621872 0.019966
v -0.033593 0.608864 0.021758
v -0.016526 0.612358 0.027627
v -0.027503 0.577698 0.024746
v -0.006426 0.582344 0.031918
v -0.001539 0.585815 0.045396
v -0.010875 0.615311 0.038113
v -0.006002 0.587776 0.058200
v 0.003894 0.686165 0.025668
v -0.005706 0.655220 0.028317
v -0.001021 0.690323 0.038994
v 0.005071 0.741974 0.014813
v -0.011209 0.637734 0.033486
v -0.013468 0.627174 0.036097
v -0.015751 0.640633 0.045195
v -0.015339 0.617539 0.050918
v -0.018063 0.629364 0.047075
v -0.031920 0.616997 0.058598
v -0.023808 0.587235 0.069273
v -0.032314 0.643150 0.053119
v -0.033653 0.630150 0.054929
v -0.049421 0.614281 0.053494
v -0.045214 0.583153 0.064328
v -0.056028 0.611374 0.043322
v -0.053093 0.579079 0.050086
v -0.055825 0.608864 0.032537
v -0.047476 0.576401 0.032915
v -0.033593 0.608864 0.021758
v -0.027503 0.577698 0.024746
v -0.034211 0.621872 0.019966
v -0.058019 0.623421 0.029268
v -0.059674 0.626068 0.040280
v -0.056803 0.637413 0.025754
v -0.037857 0.634903 0.016924
v -0.029792 0.682770 0.006553
v -0.053537 0.628693 0.050730
v -0.058415 0.640511 0.037374
v -0.052808 0.642578 0.047251
v -0.055061 0.687080 0.015960
v -0.058897 0.691513 0.030678
v -0.050671 0.694244 0.042936
v -0.041987 0.745132 0.034356
v -0.039037 0.724991 0.007341
v -0.014027 0.734688 0.001134
v -0.017095 0.734078 0.006128
v -0.048510 0.730156 0.018548
v -0.040779 0.741837 0.017135
v -0.046119 0.761383 0.017764
v -0.025776 0.694641 0.048732
v -0.021529 0.737351 0.039736
v -0.041439 0.761620 0.035173
v -0.049080 0.778412 0.010634
v -0.018936 0.759644 0.041753
v -0.040122 0.782097 0.026266
v -0.039576 0.789253 0.006645
v -0.019707 0.783630 0.031038
v -0.018788 0.796112 0.009799
v -0.000483 0.792564 0.005667
v -0.001600 0.739899 0.030959
v -0.000072 0.778832 0.024974
v 0.000384 0.759430 0.031305
v 0.007699 0.757866 0.017316
v 0.013973 0.774567 0.009276
v 0.013233 0.787224 -0.007804
v 0.019428 0.769295 -0.003355
v 0.070870 0.701454 -0.084407
v 0.072338 0.692413 -0.070805
v 0.068707 0.681397 -0.094042
v 0.066707 0.699867 -0.094632
v 0.067988 0.717285 -0.090441
v 0.064140 0.718315 -0.096283
v 0.063640 0.715431 -0.103223
v 0.063483 0.698380 -0.105415
v 0.055989 0.684540 -0.114299
f 1 2 3
f 2 1 4
f 4 5 2
f 6 4 1
f 7 5 4
f 8 5 7
f 4 6 9
f 10 7 4
f 4 9 10
f 11 7 10
f 8 7 12
f 11 12 7
f 6 13 9
f 14 13 6
f 14 15 13
f 15 14 16
f 17 15 16
f 18 10 9
f 18 11 10
f 19 8 12
f 8 19 20
f 20 19 21
f 19 22 21
f 19 23 22
f 12 23 19
f 24 22 23
f 23 25 24
f 26 24 25
f 23 27 25
f 23 12 28
f 27 23 28
f 11 28 12
f 27 28 11
f 27 11 29
f 29 11 30
f 11 18 30
f 30 18 31
f 32 30 31
f 31 18 33
f 9 33 18
f 13 33 9
f 32 31 34
f 35 32 34
f 33 36 31
f 34 31 36
f 37 33 13
f 37 36 33
f 38 37 13
f 15 38 13
f 39 38 15
f 40 36 37
f 38 40 37
f 41 34 36
f 40 41 36
f 39 42 38
f 38 42 40
f 43 35 34
f 41 44 34
f 44 43 34
f 43 45 35
f 46 35 45
f 47 45 43
f 44 47 43
f 46 45 48
f 47 48 45
f 46 48 49
f 49 48 50
f 50 48 51
f 51 52 50
f 47 53 48
f 53 51 48
f 54 40 42
f 54 55 40
f 55 41 40
f 56 44 41
f 55 56 41
f 57 47 44
f 56 57 44
f 58 56 55
f 58 57 56
f 57 59 47
f 59 53 47
f 54 42 60
f 42 39 60
f 61 55 54
f 61 58 55
f 62 58 61
f 58 63 57
f 63 59 57
f 62 63 58
f 64 54 60
f 61 54 64
f 63 65 59
f 62 65 63
f 59 66 53
f 65 66 59
f 66 67 53
f 53 67 51
f 68 60 39
f 64 60 68
f 69 61 64
f 62 61 69
f 65 70 66
f 66 70 67
f 71 64 68
f 69 64 71
f 67 72 51
f 67 73 72
f 70 73 67
f 73 74 72
f 73 75 74
f 75 76 74
f 70 77 73
f 77 75 73
f 65 78 70
f 78 77 70
f 77 79 75
f 78 79 77
f 75 80 76
f 79 80 75
f 81 78 65
f 62 81 65
f 81 82 78
f 62 82 81
f 78 83 79
f 82 83 78
f 62 84 82
f 62 69 84
f 84 85 82
f 84 69 85
f 82 85 83
f 69 71 85
f 83 86 79
f 79 86 80
f 80 87 76
f 87 88 76
f 85 71 89
f 89 71 68
f 83 85 90
f 83 90 86
f 85 89 90
f 86 91 80
f 86 90 91
f 80 91 87
f 90 89 92
f 90 92 91
f 89 68 92
f 91 92 87
f 92 68 93
f 68 39 93
f 92 94 87
f 92 93 94
f 87 94 88
f 39 95 93
f 94 93 95
f 94 96 88
f 95 96 94
f 95 39 97
f 15 97 39
f 97 98 95
f 95 98 96
f 15 99 97
f 98 97 99
f 15 17 99
f 17 100 99
f 99 100 98
f 100 101 98
f 98 101 96
f 102 96 101
f 102 88 96
f 103 88 102
f 88 103 104
f 105 103 102
f 106 105 102
f 103 107 104
f 104 107 108
f 109 107 103
f 105 109 103
f 108 107 110
f 110 107 109
f 110 111 108
f 110 51 111
f 110 52 51
f 52 110 112
f 110 109 112
f 52 112 113
f 114 105 106
f 106 115 114
f 116 109 105
f 112 109 116
f 114 116 105
f 112 117 113
f 117 112 116
f 113 117 118
f 118 117 119
f 119 117 120
f 116 120 117
f 120 121 119
f 122 121 120
f 123 120 116
f 122 120 123
f 116 114 123
f 122 123 124
f 123 114 125
f 124 123 125
f 125 114 115
f 126 124 125
f 126 125 115
f 115 127 126
f 128 129 130
f 130 131 128
f 131 130 132
f 133 128 131
f 134 131 132
f 135 134 132
f 131 136 133
f 137 131 134
f 131 137 136
f 138 137 134
f 135 139 134
f 138 134 139
f 133 136 140
f 141 133 140
f 141 140 142
f 142 143 141
f 144 143 142
f 145 136 137
f 145 137 138
f 146 139 135
f 135 147 146
f 147 148 146
f 146 148 149
f 146 149 150
f 139 146 150
f 151 150 149
f 150 151 152
f 153 152 151
f 150 152 154
f 150 155 139
f 154 155 150
f 138 139 155
f 154 138 155
f 154 156 138
f 156 157 138
f 138 157 145
f 157 158 145
f 159 158 157
f 158 160 145
f 136 145 160
f 140 136 160
f 159 161 158
f 162 161 159
f 160 158 163
f 161 163 158
f 140 160 164
f 164 160 163
f 140 164 165
f 142 140 165
f 166 142 165
f 167 164 163
f 165 164 167
f 168 163 161
f 167 163 168
f 166 165 169
f 165 167 169
f 170 161 162
f 168 161 171
f 171 161 170
f 170 162 172
f 173 172 162
f 174 170 172
f 171 170 174
f 173 175 172
f 174 172 175
f 173 176 175
f 176 177 175
f 177 178 175
f 178 177 179
f 174 175 180
f 180 175 178
f 181 167 168
f 182 168 171
f 181 168 182
f 183 171 174
f 182 171 183
f 184 174 180
f 183 174 184
f 185 182 183
f 185 181 182
f 186 167 181
f 186 169 167
f 187 183 184
f 185 183 187
f 188 185 187
f 189 181 185
f 189 186 181
f 188 189 185
f 186 190 169
f 169 190 166
f 187 184 191
f 188 187 191
f 184 180 192
f 191 184 192
f 189 193 186
f 193 190 186
f 192 180 194
f 180 178 194
f 195 166 190
f 193 195 190
f 196 193 189
f 188 196 189
f 191 192 197
f 192 194 197
f 198 195 193
f 196 198 193
f 194 178 199
f 194 199 200
f 197 194 200
f 200 199 201
f 200 201 202
f 202 201 203
f 197 200 204
f 204 200 202
f 191 197 205
f 205 197 204
f 204 202 206
f 205 204 206
f 202 203 207
f 206 202 207
f 208 191 205
f 188 191 208
f 208 205 209
f 188 208 209
f 205 206 210
f 209 205 210
f 188 209 211
f 188 211 196
f 211 209 212
f 211 212 196
f 209 210 212
f 196 212 198
f 210 206 213
f 206 207 213
f 207 203 214
f 214 203 215
f 210 216 212
f 210 213 216
f 212 217 198
f 212 216 217
f 217 195 198
f 213 207 218
f 213 218 216
f 207 214 218
f 216 219 217
f 216 218 219
f 217 219 195
f 218 214 219
f 219 220 195
f 195 220 166
f 219 214 221
f 219 221 220
f 214 215 221
f 166 220 222
f 221 222 220
f 221 215 223
f 222 221 223
f 222 224 166
f 142 166 224
f 224 222 225
f 222 223 225
f 142 224 226
f 225 226 224
f 142 226 144
f 144 226 227
f 226 225 227
f 227 225 228
f 225 223 228
f 229 228 223
f 229 223 215
f 230 229 215
f 215 231 230
f 232 229 230
f 233 229 232
f 230 231 234
f 231 235 234
f 236 230 234
f 232 230 236
f 235 237 234
f 237 236 234
f 237 235 238
f 237 238 178
f 237 178 179
f 179 239 237
f 237 239 236
f 179 240 239
f 241 233 232
f 242 233 241
f 243 232 236
f 239 243 236
f 241 232 243
f 239 240 244
f 244 243 239
f 240 245 244
f 245 246 244
f 246 247 244
f 243 244 247
f 247 246 248
f 249 247 248
f 250 243 247
f 249 250 247
f 243 250 241
f 249 251 250
f 250 252 241
f 251 252 250
f 241 252 242
f 253 252 251
f 253 242 252
f 242 253 254
f 255 256 257
f 256 258 257
f 259 257 258
f 259 258 260
f 256 261 258
f 260 258 262
f 260 262 263
f 264 258 261
f 258 264 262
f 261 265 264
f 266 265 261
f 265 266 267
f 267 268 265
f 269 264 265
f 269 265 268
f 269 262 264
f 268 270 269
f 263 262 271
f 269 271 262
f 272 269 270
f 271 269 272
f 270 273 272
f 274 272 273
f 272 274 275
f 275 274 276
f 271 277 263
f 278 263 277
f 272 279 271
f 275 279 272
f 279 280 271
f 280 279 275
f 271 280 277
f 275 276 281
f 275 281 280
f 278 277 282
f 278 282 283
f 283 282 284
f 281 276 285
f 285 276 286
f 281 285 287
f 280 281 287
f 285 288 287
f 277 280 289
f 277 289 282
f 287 289 280
f 290 284 282
f 282 289 290
f 290 291 284
f 287 288 292
f 292 288 293
f 289 287 294
f 289 294 290
f 287 292 294
f 290 294 295
f 292 295 294
f 293 296 292
f 295 292 296
f 296 293 297
f 296 297 298
f 295 296 298
f 299 298 297
f 298 300 295
f 301 295 300
f 301 302 291
f 295 303 290
f 303 295 301
f 291 290 303
f 291 303 301
f 304 305 306
f 306 305 307
f 308 307 305
f 308 309 307
f 306 307 310
f 309 311 307
f 309 312 311
f 313 310 307
f 307 311 313
f 310 313 314
f 315 310 314
f 314 316 315
f 316 314 317
f 318 314 313
f 318 317 314
f 318 313 311
f 317 318 319
f 312 320 311
f 318 311 320
f 321 319 318
f 320 321 318
f 319 321 322
f 323 322 321
f 321 324 323
f 324 325 323
f 320 312 326
f 327 326 312
f 321 320 328
f 324 321 328
f 328 320 329
f 329 324 328
f 320 326 329
f 324 330 325
f 324 329 330
f 327 331 326
f 327 332 331
f 332 333 331
f 330 334 325
f 334 335 325
f 330 336 334
f 329 336 330
f 334 336 337
f 326 338 329
f 326 331 338
f 336 329 338
f 339 331 333
f 331 339 338
f 339 333 340
f 336 341 337
f 341 342 337
f 338 343 336
f 338 339 343
f 336 343 341
f 339 344 343
f 341 343 344
f 342 341 345
f 344 345 341
f 345 346 342
f 345 347 346
f 344 347 345
f 348 346 347
f 347 344 349
f 350 349 344
f 350 340 351
f 340 352 339
f 344 339 352
f 352 350 344
f 340 350 352
f 353 354 355
f 354 353 356
f 356 357 354
f 358 357 356
f 356 353 359
f 353 360 359
f 359 360 361
f 361 360 362
f 362 363 361
f 363 362 364
f 363 364 365
f 365 366 363
f 366 365 367
f 367 368 366
f 368 369 366
f 366 369 370
f 370 363 366
f 369 371 370
f 372 356 359
f 373 359 361
f 373 372 359
f 374 372 373
f 372 375 356
f 374 375 372
f 375 358 356
f 376 361 363
f 376 373 361
f 377 363 370
f 377 376 363
f 378 373 376
f 374 373 378
f 378 376 377
f 370 371 379
f 379 377 370
f 378 377 380
f 380 377 379
f 381 379 371
f 371 382 381
f 380 383 378
f 378 383 374
f 384 380 379
f 379 381 384
f 380 384 383
f 385 381 382
f 385 384 381
f 382 386 385
f 387 385 386
f 388 387 386
f 387 388 389
f 388 390 389
f 391 389 390
f 390 392 391
f 389 391 393
f 387 389 394
f 393 394 389
f 387 395 385
f 395 387 394
f 393 396 394
f 395 394 396
f 396 393 397
f 397 398 396
f 395 399 385
f 384 385 399
f 400 395 396
f 395 400 399
f 399 401 384
f 400 401 399
f 383 384 401
f 398 402 396
f 400 396 402
f 400 403 401
f 403 400 402
f 383 401 404
f 403 404 401
f 404 403 405
f 406 402 398
f 398 407 406
f 408 406 407
f 409 403 402
f 402 406 409
f 406 408 409
f 409 405 403
f 410 409 408
f 410 405 409
f 411 405 410
f 404 412 383
f 412 374 383
f 413 412 404
f 374 412 413
f 404 405 413
f 405 411 414
f 414 411 415
f 414 416 405
f 413 405 416
f 414 415 417
f 416 414 417
f 415 418 417
f 419 417 418
f 417 419 416
f 418 420 419
f 421 419 420
f 374 413 422
f 374 422 375
f 423 416 419
f 419 421 423
f 424 413 416
f 424 422 413
f 416 423 424
f 375 422 425
f 422 424 425
f 423 425 424
f 375 425 358
f 426 423 421
f 423 426 425
f 425 426 358
f 427 426 421
f 426 428 358
f 428 426 427
f 429 430 431
f 431 432 429
f 432 431 433
f 434 432 433
f 432 435 429
f 429 435 436
f 435 437 436
f 437 438 436
f 438 437 439
f 439 440 438
f 439 441 440
f 441 439 442
f 442 443 441
f 443 442 444
f 444 442 445
f 442 446 445
f 446 442 439
f 445 446 447
f 448 435 432
f 449 437 435
f 449 435 448
f 450 449 448
f 448 432 451
f 450 448 451
f 451 432 434
f 452 439 437
f 452 437 449
f 453 446 439
f 453 439 452
f 454 452 449
f 450 454 449
f 454 453 452
f 446 455 447
f 455 446 453
f 454 456 453
f 456 455 453
f 457 447 455
f 447 457 458
f 456 454 459
f 454 450 459
f 460 455 456
f 455 460 457
f 456 459 460
f 461 458 457
f 461 457 460
f 458 461 462
f 463 462 461
f 464 462 463
f 463 465 464
f 464 465 466
f 467 466 465
f 466 467 468
f 465 469 467
f 463 470 465
f 469 465 470
f 463 461 471
f 471 470 463
f 469 470 472
f 471 472 470
f 472 473 469
f 473 472 474
f 460 475 461
f 471 461 475
f 476 472 471
f 471 475 476
f 475 460 477
f 476 475 477
f 459 477 460
f 474 472 478
f 476 478 472
f 476 477 479
f 479 478 476
f 459 480 477
f 479 477 480
f 480 481 479
f 482 474 478
f 474 482 483
f 484 483 482
f 485 478 479
f 478 485 482
f 482 485 484
f 485 479 481
f 486 484 485
f 486 485 481
f 487 486 481
f 480 459 488
f 488 459 450
f 489 480 488
f 450 489 488
f 480 489 481
f 481 490 487
f 490 491 487
f 492 490 481
f 481 489 492
f 490 493 491
f 492 493 490
f 491 493 494
f 495 494 493
f 493 492 495
f 494 495 496
f 497 496 495
f 450 498 489
f 450 451 498
f 499 495 492
f 495 499 497
f 500 492 489
f 500 489 498
f 492 500 499
f 451 501 498
f 498 501 500
f 499 500 501
f 451 434 501
f 502 497 499
f 499 501 502
f 501 434 502
f 503 497 502
f 502 434 504
f 504 503 502
f 505 506 507
f 507 508 505
f 505 508 509
f 510 509 508
f 508 511 510
f 511 508 512
f 512 508 507
f 512 507 513
