v -0.051402 0.587715 -0.096409
v -0.046323 0.578713 -0.066668
v -0.049636 0.582695 -0.065083
v -0.055193 0.591728 -0.094668
v -0.047061 0.595955 -0.063310
v -0.049737 0.595207 -0.120884
v -0.050459 0.604195 -0.090113
v -0.038391 0.596687 -0.065281
v -0.045137 0.604324 -0.090986
v -0.047951 0.615891 -0.116484
v -0.042323 0.615120 -0.113096
v -0.053659 0.599640 -0.120969
v -0.029509 0.602844 -0.139107
v -0.032040 0.607857 -0.140271
v -0.000590 0.606407 -0.152204
v -0.029821 0.627159 -0.136637
v -0.024955 0.617661 -0.130256
v -0.001024 0.628685 -0.151439
v 0.001296 0.620606 -0.139612
v 0.030610 0.616936 -0.147230
v -0.001024 0.628685 -0.151439
v 0.028718 0.616242 -0.139505
v -0.000739 0.611603 -0.154274
v 0.029373 0.601585 -0.150812
v 0.031685 0.605637 -0.152692
v 0.048445 0.588043 -0.137499
v 0.053271 0.591400 -0.138458
v 0.061238 0.571198 -0.122999
v 0.051309 0.603638 -0.131708
v 0.047702 0.604073 -0.127410
v 0.066485 0.590729 -0.118114
v 0.062347 0.592133 -0.114390
v 0.066055 0.574143 -0.124080
v 0.072279 0.560638 -0.098827
v 0.077132 0.563896 -0.099421
v 0.074986 0.584168 -0.095228
v 0.070203 0.585747 -0.093660
v -0.036809 0.576683 -0.036512
v -0.049636 0.582695 -0.065083
v -0.046323 0.578713 -0.066668
v -0.041104 0.580734 -0.034978
v -0.047061 0.595955 -0.063310
v -0.023968 0.575623 -0.014550
v -0.037313 0.594360 -0.036720
v -0.038391 0.596687 -0.065281
v -0.032053 0.594643 -0.038445
v -0.022314 0.596626 -0.011976
v -0.018804 0.597519 -0.017614
v -0.026680 0.579445 -0.011417
v 0.002606 0.578285 -0.005815
v 0.001895 0.582375 -0.002093
v 0.034855 0.579605 -0.006669
v 0.003541 0.601914 0.000359
v 0.004239 0.595558 -0.010339
v 0.035850 0.600708 0.000358
v 0.031938 0.597298 -0.013190
v 0.061225 0.593712 -0.021173
v 0.035850 0.600708 0.000358
v 0.055917 0.595512 -0.026910
v 0.036092 0.583756 -0.003086
v 0.060137 0.577972 -0.022686
v 0.063687 0.581368 -0.020983
v 0.070621 0.571365 -0.047061
v 0.075509 0.574570 -0.047168
v 0.074322 0.561516 -0.070458
v 0.071551 0.588188 -0.047740
v 0.066523 0.589752 -0.049581
v 0.078262 0.581902 -0.070130
v 0.072825 0.584106 -0.070840
v 0.079209 0.564285 -0.070565
v 0.072279 0.560638 -0.098827
v 0.077132 0.563896 -0.099421
v 0.074986 0.584168 -0.095228
v 0.070203 0.585747 -0.093660
v -0.000563 0.608223 -0.151839
v 0.028912 0.603401 -0.150412
v 0.026198 0.577217 -0.167718
v -0.006740 0.584663 -0.169630
v 0.024953 0.548973 -0.185007
v -0.029970 0.604660 -0.138707
v -0.009770 0.553215 -0.191319
v 0.030026 0.509964 -0.196142
v -0.005161 0.511635 -0.208907
v -0.041174 0.582092 -0.158339
v -0.050198 0.597023 -0.120484
v -0.062547 0.574112 -0.135627
v -0.048908 0.548492 -0.177364
v -0.051526 0.504952 -0.193330
v -0.074880 0.541367 -0.150527
v -0.073014 0.492867 -0.158617
v 0.034873 0.581421 -0.006425
v 0.060557 0.545059 -0.003256
v 0.060164 0.579788 -0.022320
v 0.031203 0.554565 0.010606
v 0.063193 0.513748 0.012954
v 0.002633 0.580101 -0.005450
v 0.030917 0.520760 0.027026
v 0.068816 0.477821 0.036659
v 0.035201 0.483986 0.052542
v -0.004968 0.556900 0.011374
v -0.023942 0.577431 -0.014185
v -0.033477 0.555115 -0.003830
v -0.010041 0.519028 0.022510
v -0.012447 0.477097 0.043489
v -0.041840 0.513863 0.002402
v -0.038041 0.459770 0.014367
v 0.054647 0.295296 0.050652
v -0.000216 0.244881 0.063781
v 0.030527 0.239601 0.076009
v 0.030429 0.296463 0.040647
v 0.023809 0.292961 0.023499
v -0.010981 0.240631 0.036652
v -0.001515 0.231354 0.011738
v 0.031686 0.286446 0.003718
v 0.061611 0.315086 0.045378
v 0.040251 0.303436 0.000286
v 0.039305 0.312653 0.034745
v 0.032800 0.308617 0.019181
v 0.037917 0.320953 -0.004931
v 0.037042 0.330376 0.030502
v 0.061721 0.337540 0.040107
v 0.027631 0.324524 0.015392
v 0.020848 0.361534 -0.031239
v 0.025038 0.375031 0.026960
v 0.051020 0.393967 0.034269
v 0.040188 0.453484 0.026604
v 0.009630 0.362808 0.003347
v -0.001203 0.412659 -0.051926
v 0.006733 0.433960 0.017508
v -0.013416 0.415802 -0.010781
v 0.004778 0.497726 0.003942
v 0.044594 0.515648 0.006215
v -0.030314 0.476364 -0.055092
v -0.017321 0.480270 -0.071816
v -0.015624 0.489731 -0.007440
v 0.000767 0.523537 0.002639
v 0.041111 0.547157 -0.001367
v -0.044046 0.492165 -0.069035
v -0.035138 0.507706 -0.081303
v -0.029820 0.477921 -0.027836
v -0.025443 0.506958 -0.007835
v 0.003931 0.548103 -0.001015
v 0.033280 0.583069 -0.008146
v 0.003493 0.580246 -0.007103
v -0.044122 0.488449 -0.049692
v -0.038788 0.489471 -0.030005
v -0.050144 0.516129 -0.072145
v -0.046415 0.536797 -0.074739
v -0.029409 0.529900 -0.008528
v -0.025750 0.554329 -0.012096
v -0.017979 0.580437 -0.019754
v -0.045685 0.506340 -0.030610
v -0.054686 0.509148 -0.060436
v -0.051786 0.540382 -0.067743
v -0.041725 0.566956 -0.070793
v -0.038885 0.558052 -0.031344
v -0.032610 0.581116 -0.039384
v -0.046146 0.532105 -0.030210
v -0.055841 0.535957 -0.056069
v -0.046368 0.562477 -0.053692
v -0.034731 0.582336 -0.068849
v -0.029186 0.291908 -0.168626
v -0.058916 0.233315 -0.173584
v -0.083900 0.242508 -0.153427
v -0.049024 0.297157 -0.151777
v -0.049631 0.297707 -0.133008
v -0.085206 0.244270 -0.123960
v -0.067973 0.239601 -0.102192
v -0.035193 0.294540 -0.116057
v -0.020534 0.312134 -0.170840
v -0.025671 0.312439 -0.119802
v -0.038344 0.314751 -0.153035
v -0.039065 0.314713 -0.135849
v -0.023131 0.332504 -0.118516
v -0.035396 0.334808 -0.152880
v -0.016159 0.335320 -0.171277
v -0.038978 0.333862 -0.134632
v -0.023540 0.379517 -0.103800
v -0.039923 0.382057 -0.161366
v -0.016382 0.394096 -0.181174
v -0.016281 0.456474 -0.186566
v -0.046621 0.377091 -0.132001
v -0.030021 0.435700 -0.091829
v -0.045890 0.445015 -0.162650
v -0.055984 0.435112 -0.126064
v -0.037685 0.522675 -0.171073
v -0.000679 0.535362 -0.187445
v -0.047154 0.494171 -0.105405
v -0.027946 0.494011 -0.096997
v -0.052060 0.514053 -0.153149
v -0.038708 0.549263 -0.164881
v 0.001035 0.578934 -0.170434
v -0.051648 0.507156 -0.086234
v -0.035138 0.507706 -0.081303
v -0.058222 0.499970 -0.129942
v -0.059466 0.532257 -0.147231
v -0.032987 0.577850 -0.153421
v -0.001336 0.609032 -0.148968
v -0.028421 0.604294 -0.137595
v -0.060303 0.506294 -0.104458
v -0.064159 0.510872 -0.124007
v -0.051618 0.516724 -0.079015
v -0.046415 0.536797 -0.074739
v -0.060897 0.554855 -0.139907
v -0.053742 0.578316 -0.128918
v -0.041664 0.598457 -0.117549
v -0.068165 0.527084 -0.118456
v -0.063494 0.523560 -0.087584
v -0.054461 0.541550 -0.077709
v -0.041725 0.566956 -0.070793
v -0.056973 0.574715 -0.105799
v -0.045878 0.591278 -0.094482
v -0.066318 0.551125 -0.113204
v -0.063354 0.547997 -0.085636
v -0.052855 0.571091 -0.082597
v -0.034731 0.582336 -0.068849
v 0.001035 0.578934 -0.170434
v -0.001336 0.609032 -0.148968
v 0.029767 0.601769 -0.145333
v 0.027373 0.572929 -0.164987
v 0.025887 0.536011 -0.178832
v -0.000679 0.535362 -0.187445
v 0.041461 0.559944 -0.152906
v 0.020543 0.455948 -0.185056
v -0.016281 0.456474 -0.186566
v 0.017353 0.400971 -0.181767
v -0.016382 0.394096 -0.181174
v -0.016159 0.335320 -0.171277
v 0.047468 0.453812 -0.157867
v 0.046159 0.568420 -0.135254
v 0.053305 0.527062 -0.124386
v 0.044873 0.587425 -0.132713
v 0.056630 0.574242 -0.118996
v 0.044181 0.529175 -0.155917
v 0.046790 0.514023 -0.126487
v 0.055463 0.554207 -0.121604
v 0.064851 0.543785 -0.100006
v 0.066575 0.566032 -0.096458
v 0.061109 0.518150 -0.104387
v 0.052299 0.499947 -0.104365
v 0.037118 0.495812 -0.111227
v 0.038811 0.490746 -0.101313
v 0.046790 0.449394 -0.126487
v 0.043901 0.401184 -0.159813
v 0.043420 0.396820 -0.132486
v 0.020257 0.332573 -0.168636
v 0.032239 0.331291 -0.158606
v 0.030285 0.330574 -0.138150
v 0.029716 0.304009 -0.159649
v 0.023738 0.304710 -0.133884
v 0.013079 0.306824 -0.173137
v -0.020534 0.312134 -0.170840
v 0.011446 0.277634 -0.155029
v 0.008386 0.281075 -0.136328
v -0.002659 0.283104 -0.167353
v -0.029186 0.291908 -0.168626
v -0.015556 0.220413 -0.149291
v -0.014645 0.221329 -0.123043
v -0.033284 0.225189 -0.171146
v -0.058916 0.233315 -0.173584
v 0.066575 0.566032 -0.096458
v 0.068434 0.565331 -0.070646
v 0.064851 0.543785 -0.100006
v 0.067153 0.545082 -0.074838
v 0.063766 0.518616 -0.081080
v 0.061109 0.518150 -0.104387
v 0.052299 0.499947 -0.104365
v 0.066173 0.552666 -0.054451
v 0.065541 0.572090 -0.049632
v 0.058804 0.580063 -0.027607
v 0.046256 0.487656 -0.086306
v 0.038811 0.490746 -0.101313
v 0.069111 0.538094 -0.040833
v 0.063563 0.503868 -0.070296
v 0.078673 0.442093 -0.050823
v 0.089481 0.452805 -0.023085
v 0.072512 0.516785 -0.041200
v 0.064805 0.519951 -0.012252
v 0.062783 0.544640 -0.019939
v 0.041111 0.547157 -0.001367
v 0.033280 0.583069 -0.008146
v 0.044594 0.515648 0.006215
v 0.073863 0.457138 0.011574
v 0.040188 0.453484 0.026604
v 0.080922 0.404839 0.021223
v 0.051020 0.393967 0.034269
v 0.061721 0.337540 0.040107
v 0.097856 0.403275 -0.008756
v 0.089267 0.392799 -0.032860
v 0.094909 0.337494 0.025112
v 0.102782 0.334923 0.012062
v 0.094640 0.329102 -0.005832
v 0.105752 0.307282 0.019313
v 0.091459 0.301750 -0.002421
v 0.093803 0.312195 0.036941
v 0.061611 0.315086 0.045378
v 0.089188 0.279121 0.027237
v 0.080142 0.278412 0.010387
v 0.079499 0.286888 0.042254
v 0.054647 0.295296 0.050652
v 0.064305 0.221352 0.042002
v 0.056655 0.216896 0.017341
v 0.054370 0.230766 0.067194
v 0.030527 0.239601 0.076009
v -0.068465 0.454018 -0.034233
v -0.078526 0.518799 -0.092376
v -0.088603 0.465805 -0.103155
v -0.059410 0.513306 -0.030846
v -0.046262 0.455826 -0.004622
v -0.067610 0.551857 -0.090347
v -0.037904 0.516258 -0.004123
v -0.051766 0.551796 -0.033477
v -0.046297 0.580528 -0.066303
v -0.033933 0.553551 -0.010161
v -0.037270 0.578491 -0.036111
v -0.023942 0.577431 -0.014185
v -0.046297 0.580528 -0.066303
v -0.051862 0.589523 -0.096009
v -0.067610 0.551857 -0.090347
v -0.050198 0.597023 -0.120484
v -0.064887 0.569649 -0.120528
v -0.075430 0.535545 -0.124175
v -0.078526 0.518799 -0.092376
v -0.086126 0.478890 -0.136745
v -0.088603 0.465805 -0.103155
v 0.071568 0.579880 -0.095104
v 0.064037 0.545273 -0.124914
v 0.060500 0.587997 -0.119642
v 0.048001 0.595947 -0.136855
v 0.052806 0.550751 -0.144911
v 0.074335 0.509773 -0.124676
v 0.056475 0.520332 -0.148357
v 0.082623 0.469589 -0.125151
v 0.061126 0.478096 -0.151752
v 0.106990 0.470123 -0.051882
v 0.096234 0.511147 -0.031281
v 0.112441 0.472611 -0.023759
v 0.093950 0.508675 -0.056206
v 0.082623 0.469589 -0.125151
v 0.084489 0.538010 -0.038024
v 0.074335 0.509773 -0.124676
v 0.085347 0.536575 -0.060115
v 0.070301 0.578964 -0.044712
v 0.064037 0.545273 -0.124914
v 0.073575 0.578316 -0.067222
v 0.071568 0.579880 -0.095104
v -0.035138 0.507706 -0.081303
v 0.002723 0.492111 -0.092596
v -0.017321 0.480270 -0.071816
v 0.016696 0.477135 -0.082097
v 0.038811 0.490746 -0.101313
v 0.046256 0.487656 -0.086306
v -0.001203 0.412659 -0.051926
v 0.027927 0.425049 -0.062100
v 0.078673 0.442093 -0.050823
v 0.089267 0.392799 -0.032860
v 0.044646 0.370514 -0.040662
v 0.020848 0.361534 -0.031239
v 0.094640 0.329102 -0.005832
v 0.060001 0.321800 -0.017780
v 0.037917 0.320953 -0.004931
v 0.091459 0.301750 -0.002421
v 0.065042 0.300507 -0.008964
v 0.040251 0.303436 0.000286
v 0.031686 0.286446 0.003718
v 0.080142 0.278412 0.010387
v 0.054164 0.280983 -0.003653
v -0.001515 0.231354 0.011738
v 0.033643 0.219582 0.003699
v 0.056655 0.216896 0.017341
v -0.035138 0.507706 -0.081303
v -0.027946 0.494011 -0.096997
v 0.002723 0.492111 -0.092596
v 0.006545 0.488525 -0.100704
v 0.038811 0.490746 -0.101313
v 0.037118 0.495812 -0.111227
v -0.030021 0.435700 -0.091829
v 0.002052 0.443840 -0.095117
v 0.046790 0.449394 -0.126487
v 0.043420 0.396820 -0.132486
v 0.002785 0.385178 -0.105328
v -0.023540 0.379517 -0.103800
v 0.030285 0.330574 -0.138150
v 0.001658 0.331642 -0.114181
v -0.023131 0.332504 -0.118516
v 0.023738 0.304710 -0.133884
v 0.000838 0.308220 -0.118773
v -0.025671 0.312439 -0.119802
v -0.035193 0.294540 -0.116057
v 0.008386 0.281075 -0.136328
v -0.011162 0.288673 -0.115461
v -0.067973 0.239601 -0.102192
v -0.032333 0.227852 -0.103534
v -0.014645 0.221329 -0.123043
f 1 2 3
f 3 4 1
f 4 3 5
f 6 1 4
f 5 7 4
f 7 5 8
f 8 9 7
f 10 7 9
f 7 10 4
f 9 11 10
f 4 12 6
f 4 10 12
f 13 6 12
f 12 14 13
f 14 12 10
f 15 13 14
f 16 10 11
f 10 16 14
f 11 17 16
f 18 16 17
f 17 19 18
f 20 18 19
f 16 21 14
f 19 22 20
f 14 23 15
f 23 14 21
f 21 20 23
f 24 15 23
f 23 25 24
f 25 23 20
f 26 24 25
f 25 27 26
f 25 20 27
f 28 26 27
f 29 20 22
f 27 20 29
f 22 30 29
f 31 29 30
f 31 27 29
f 30 32 31
f 27 33 28
f 33 27 31
f 34 28 33
f 33 35 34
f 33 36 35
f 33 31 36
f 36 31 32
f 32 37 36
f 38 39 40
f 39 38 41
f 41 42 39
f 43 41 38
f 42 41 44
f 44 45 42
f 45 44 46
f 47 46 44
f 44 41 47
f 46 47 48
f 41 43 49
f 41 49 47
f 50 49 43
f 49 50 51
f 51 47 49
f 52 51 50
f 53 48 47
f 47 51 53
f 48 53 54
f 55 54 53
f 54 55 56
f 57 56 55
f 53 51 58
f 56 57 59
f 51 52 60
f 60 58 51
f 58 60 57
f 61 60 52
f 60 61 62
f 62 57 60
f 63 62 61
f 62 63 64
f 62 64 57
f 65 64 63
f 66 59 57
f 64 66 57
f 59 66 67
f 68 67 66
f 68 66 64
f 67 68 69
f 64 65 70
f 70 68 64
f 71 70 65
f 70 71 72
f 70 72 73
f 70 73 68
f 73 69 68
f 69 73 74
f 75 76 77
f 77 78 75
f 78 77 79
f 80 75 78
f 79 81 78
f 81 79 82
f 82 83 81
f 78 84 80
f 84 78 81
f 85 80 84
f 84 86 85
f 87 81 83
f 81 87 84
f 86 84 87
f 83 88 87
f 87 89 86
f 89 87 88
f 88 90 89
f 91 92 93
f 92 91 94
f 94 95 92
f 96 94 91
f 95 94 97
f 97 98 95
f 98 97 99
f 94 96 100
f 100 97 94
f 101 100 96
f 100 101 102
f 103 99 97
f 97 100 103
f 102 103 100
f 99 103 104
f 103 102 105
f 105 104 103
f 104 105 106
f 107 108 109
f 108 107 110
f 108 110 111
f 111 112 108
f 111 113 112
f 113 111 114
f 115 110 107
f 116 114 111
f 117 110 115
f 117 111 110
f 111 118 116
f 118 111 117
f 119 116 118
f 120 117 115
f 117 120 118
f 115 121 120
f 118 122 119
f 118 120 122
f 119 122 123
f 120 121 124
f 124 122 120
f 125 124 121
f 126 124 125
f 127 123 122
f 124 127 122
f 123 127 128
f 124 126 129
f 129 127 124
f 130 128 127
f 127 129 130
f 131 129 126
f 126 132 131
f 133 128 130
f 134 128 133
f 130 129 135
f 131 135 129
f 136 131 132
f 132 137 136
f 138 134 133
f 139 134 138
f 130 140 133
f 140 130 135
f 141 135 131
f 136 141 131
f 142 136 137
f 143 142 137
f 142 143 144
f 140 145 133
f 138 133 145
f 140 135 146
f 146 135 141
f 145 140 146
f 139 138 147
f 139 147 148
f 142 149 136
f 149 141 136
f 150 142 144
f 150 149 142
f 151 150 144
f 146 141 152
f 145 146 152
f 152 141 149
f 138 145 153
f 147 138 153
f 145 152 153
f 147 154 148
f 147 153 154
f 155 148 154
f 156 150 151
f 151 157 156
f 158 149 150
f 158 152 149
f 156 158 150
f 153 152 159
f 159 152 158
f 154 153 159
f 159 158 156
f 154 160 155
f 154 159 160
f 159 156 160
f 160 156 157
f 155 160 161
f 157 161 160
f 162 163 164
f 164 165 162
f 164 166 165
f 166 164 167
f 166 167 168
f 168 169 166
f 170 162 165
f 171 166 169
f 172 170 165
f 172 165 166
f 166 171 173
f 173 172 166
f 174 173 171
f 175 170 172
f 172 173 175
f 170 175 176
f 173 174 177
f 173 177 175
f 174 178 177
f 175 179 176
f 179 175 177
f 180 176 179
f 181 180 179
f 182 177 178
f 179 177 182
f 178 183 182
f 179 184 181
f 184 179 182
f 185 182 183
f 182 185 184
f 186 181 184
f 181 186 187
f 188 185 183
f 189 188 183
f 185 190 184
f 186 184 190
f 191 187 186
f 187 191 192
f 193 188 189
f 194 193 189
f 185 188 195
f 195 190 185
f 196 186 190
f 191 186 196
f 197 192 191
f 198 192 197
f 197 199 198
f 195 188 200
f 193 200 188
f 195 201 190
f 201 196 190
f 200 201 195
f 194 202 193
f 194 203 202
f 197 191 204
f 204 191 196
f 205 199 197
f 205 197 204
f 206 199 205
f 201 207 196
f 200 207 201
f 207 204 196
f 193 208 200
f 202 208 193
f 200 208 207
f 202 203 209
f 202 209 208
f 210 209 203
f 211 206 205
f 206 211 212
f 213 205 204
f 213 204 207
f 211 205 213
f 208 214 207
f 214 213 207
f 209 214 208
f 214 211 213
f 210 215 209
f 209 215 214
f 214 215 211
f 215 212 211
f 210 216 215
f 212 215 216
f 217 218 219
f 219 220 217
f 220 221 217
f 222 217 221
f 220 219 223
f 221 220 223
f 221 224 222
f 225 222 224
f 226 225 224
f 225 226 227
f 228 227 226
f 224 221 229
f 226 224 229
f 230 223 219
f 223 230 231
f 232 230 219
f 232 233 230
f 223 234 221
f 234 229 221
f 223 235 234
f 235 223 231
f 229 234 235
f 233 236 230
f 236 231 230
f 233 237 236
f 237 231 236
f 238 237 233
f 239 231 237
f 239 240 231
f 231 240 241
f 241 235 231
f 242 241 240
f 243 235 241
f 235 243 229
f 244 229 243
f 229 244 226
f 243 245 244
f 246 226 244
f 226 246 228
f 247 244 245
f 244 247 246
f 245 248 247
f 249 247 248
f 247 249 246
f 248 250 249
f 246 251 228
f 251 246 249
f 252 228 251
f 253 249 250
f 249 253 251
f 250 254 253
f 251 255 252
f 255 251 253
f 256 252 255
f 257 253 254
f 253 257 255
f 254 258 257
f 259 255 257
f 255 259 256
f 260 256 259
f 261 262 263
f 262 264 263
f 263 264 265
f 266 263 265
f 266 265 267
f 262 268 264
f 264 268 265
f 269 268 262
f 269 270 268
f 265 271 267
f 272 267 271
f 273 265 268
f 268 270 273
f 271 265 274
f 274 265 273
f 275 271 274
f 274 276 275
f 273 277 274
f 276 274 277
f 273 278 277
f 277 278 276
f 279 273 270
f 278 273 279
f 270 280 279
f 279 280 278
f 280 270 281
f 282 278 280
f 278 282 283
f 283 276 278
f 284 283 282
f 285 283 284
f 285 276 283
f 284 286 285
f 287 285 286
f 288 275 276
f 276 285 288
f 275 288 289
f 285 287 290
f 290 288 285
f 291 289 288
f 288 290 291
f 289 291 292
f 293 292 291
f 291 290 293
f 292 293 294
f 290 287 295
f 295 293 290
f 296 295 287
f 297 294 293
f 293 295 297
f 294 297 298
f 295 296 299
f 299 297 295
f 300 299 296
f 301 298 297
f 297 299 301
f 298 301 302
f 303 301 299
f 299 300 303
f 304 303 300
f 305 306 307
f 306 305 308
f 309 308 305
f 308 310 306
f 308 309 311
f 310 308 312
f 311 312 308
f 312 313 310
f 312 311 314
f 313 312 315
f 312 314 316
f 316 315 312
f 317 318 319
f 320 319 318
f 319 320 321
f 319 321 322
f 322 323 319
f 323 322 324
f 324 325 323
f 326 327 328
f 329 328 327
f 327 330 329
f 330 327 331
f 331 332 330
f 332 331 333
f 333 334 332
f 335 336 337
f 336 335 338
f 339 338 335
f 338 340 336
f 338 339 341
f 340 338 342
f 341 342 338
f 342 343 340
f 342 341 344
f 343 342 345
f 342 344 346
f 346 345 342
f 347 348 349
f 350 349 348
f 350 348 351
f 350 351 352
f 353 349 350
f 354 350 352
f 350 354 353
f 352 355 354
f 356 354 355
f 357 353 354
f 356 357 354
f 353 357 358
f 359 357 356
f 360 358 357
f 357 359 360
f 358 360 361
f 362 360 359
f 363 361 360
f 360 362 363
f 361 363 364
f 364 363 365
f 366 363 362
f 367 365 363
f 363 366 367
f 365 367 368
f 369 368 367
f 367 366 369
f 370 369 366
f 371 372 373
f 374 373 372
f 374 375 373
f 374 376 375
f 377 374 372
f 378 376 374
f 374 377 378
f 376 378 379
f 380 379 378
f 381 378 377
f 380 378 381
f 377 382 381
f 383 380 381
f 384 381 382
f 381 384 383
f 382 385 384
f 386 383 384
f 387 384 385
f 384 387 386
f 385 388 387
f 388 389 387
f 390 386 387
f 391 387 389
f 387 391 390
f 389 392 391
f 393 391 392
f 391 393 390
f 394 390 393
