v 0.101554 0.001144 0.143328
v 0.124220 0.000839 0.118893
v 0.156840 0.001610 0.114433
v 0.108832 0.002563 0.174589
v 0.186541 0.003326 0.137064
v 0.131055 0.004128 0.198686
v 0.203843 0.004868 0.164901
v 0.137485 0.006577 0.256991
v 0.238044 0.007484 0.206855
v 0.176572 0.009651 0.308676
v 0.245243 0.009628 0.257285
v 0.214831 0.010178 0.294072
v -0.168086 0.203690 -0.226159
v -0.205570 0.217979 -0.200348
v -0.130886 0.210571 -0.241775
v -0.215087 0.261017 -0.174833
v -0.113337 0.269463 -0.221974
v -0.199283 0.310631 -0.159568
v -0.126295 0.318596 -0.192149
v -0.193238 0.340378 -0.148223
v -0.114791 0.348114 -0.183692
v -0.174794 0.372315 -0.142084
v -0.118417 0.376289 -0.168586
v -0.145383 0.384766 -0.150959
v -0.069980 0.320869 0.072659
v -0.080125 0.274635 0.067021
v -0.068768 0.236275 0.050183
v -0.030862 0.338173 0.057863
v -0.037234 0.217377 0.028481
v -0.003454 0.237297 0.014324
v 0.007687 0.324661 0.029524
v 0.013194 0.283730 0.017397
v -0.003454 0.237297 0.014324
v 0.003576 0.290039 -0.036863
v 0.013194 0.283730 0.017397
v -0.014120 0.239433 -0.036717
v -0.037234 0.217377 0.028481
v -0.062387 0.215195 -0.017998
v -0.068768 0.236275 0.050183
v -0.107386 0.231819 0.011438
v -0.080125 0.274635 0.067021
v -0.121119 0.287842 0.030057
v -0.069980 0.320869 0.072659
v -0.108409 0.343124 0.030888
v -0.030862 0.338173 0.057863
v -0.057744 0.371483 0.007538
v 0.007687 0.324661 0.029524
v -0.011822 0.350967 -0.019329
v 0.003576 0.290039 -0.036863
v 0.013194 0.283730 0.017397
v 0.133764 0.255402 0.211402
v 0.098846 0.258690 0.175853
v 0.082730 0.207253 0.188483
v 0.121401 0.206986 0.225759
v 0.175201 0.253449 0.211144
v 0.178231 0.202057 0.222817
v 0.198910 0.251999 0.175720
v 0.216748 0.200363 0.181787
v 0.195674 0.253548 0.132452
v 0.207257 0.198845 0.121739
v 0.167343 0.255112 0.094248
v 0.170784 0.196335 0.078628
v 0.122718 0.259773 0.098551
v 0.108147 0.197815 0.080581
v 0.087963 0.258751 0.134228
v 0.071932 0.202766 0.124148
v 0.082730 0.207253 0.188483
v 0.098846 0.258690 0.175853
v 0.167343 0.255112 0.094248
v 0.198910 0.251999 0.175720
v 0.195674 0.253548 0.132452
v 0.122718 0.259773 0.098551
v 0.175201 0.253449 0.211144
v 0.133764 0.255402 0.211402
v 0.087963 0.258751 0.134228
v 0.098846 0.258690 0.175853
v 0.130860 0.217773 0.205253
v 0.098055 0.220474 0.175267
v 0.077756 0.143173 0.182380
v 0.118181 0.148285 0.217112
v 0.170326 0.215332 0.205644
v 0.171570 0.147675 0.218480
v 0.195543 0.215271 0.175711
v 0.202762 0.140739 0.178049
v 0.193824 0.216255 0.130854
v 0.204106 0.132599 0.123625
v 0.154427 0.217026 0.095752
v 0.159997 0.125626 0.086387
v 0.116236 0.217987 0.098268
v 0.108874 0.124680 0.089716
v 0.087942 0.218536 0.125767
v 0.077244 0.133499 0.129898
v 0.077756 0.143173 0.182380
v 0.098055 0.220474 0.175267
v -0.022974 0.250206 -0.016138
v -0.027680 0.308914 -0.089678
v -0.006189 0.291405 -0.014623
v -0.044981 0.258659 -0.083583
v -0.054967 0.231201 -0.003145
v -0.086581 0.231583 -0.064067
v -0.084868 0.244804 0.018261
v -0.128387 0.252480 -0.042216
v -0.098364 0.283760 0.035925
v -0.152133 0.299744 -0.027253
v -0.078866 0.332848 0.035305
v -0.134105 0.354080 -0.035523
v -0.047694 0.348999 0.020345
v -0.093158 0.376564 -0.057182
v -0.015975 0.339043 -0.000844
v -0.050024 0.355911 -0.077597
v -0.027680 0.308914 -0.089678
v -0.006189 0.291405 -0.014623
v 0.216748 0.200363 0.181787
v 0.178231 0.202057 0.222817
v 0.121401 0.206986 0.225759
v 0.082730 0.207253 0.188483
v 0.207257 0.198845 0.121739
v 0.071932 0.202766 0.124148
v 0.170784 0.196335 0.078628
v 0.108147 0.197815 0.080581
v -0.107386 0.231819 0.011438
v -0.014120 0.239433 -0.036717
v -0.062387 0.215195 -0.017998
v 0.003576 0.290039 -0.036863
v -0.121119 0.287842 0.030057
v -0.011822 0.350967 -0.019329
v -0.108409 0.343124 0.030888
v -0.057744 0.371483 0.007538
v -0.069907 0.359116 -0.123937
v -0.023126 0.300385 -0.037892
v -0.051352 0.314034 -0.135586
v -0.037513 0.331993 -0.021417
v -0.114037 0.375237 -0.101773
v -0.065238 0.344803 -0.002996
v -0.157440 0.352791 -0.081784
v -0.093458 0.327156 0.008874
v -0.173750 0.304817 -0.073899
v -0.107260 0.289627 0.005651
v -0.153382 0.256004 -0.081791
v -0.100773 0.256599 -0.008917
v -0.106317 0.232811 -0.096424
v -0.071309 0.244896 -0.030572
v -0.067099 0.262047 -0.121929
v -0.039853 0.261940 -0.044416
v -0.051352 0.314034 -0.135586
v -0.023126 0.300385 -0.037892
v 0.127735 0.183159 0.200748
v 0.098213 0.190468 0.170860
v 0.076333 0.091934 0.188111
v 0.119235 0.104340 0.221664
v 0.166211 0.181297 0.199349
v 0.174105 0.110268 0.223602
v 0.191627 0.182060 0.170620
v 0.205265 0.093964 0.181791
v 0.186225 0.185249 0.134568
v 0.200628 0.081482 0.130093
v 0.158369 0.188339 0.105764
v 0.161293 0.075081 0.097754
v 0.123213 0.189842 0.105101
v 0.108790 0.076485 0.101115
v 0.100442 0.191071 0.132474
v 0.073208 0.084084 0.138365
v 0.098213 0.190468 0.170860
v 0.076333 0.091934 0.188111
v 0.189909 0.141373 0.171005
v 0.164477 0.140526 0.199043
v 0.179680 0.084114 0.233317
v 0.207431 0.061508 0.185885
v 0.186837 0.144341 0.131100
v 0.199953 0.035858 0.130800
v 0.159665 0.147636 0.105821
v 0.156809 0.016991 0.101742
v 0.122839 0.149262 0.107614
v 0.104605 0.018524 0.106909
v 0.126792 0.142304 0.201029
v 0.179680 0.084114 0.233317
v 0.164477 0.140526 0.199043
v 0.123403 0.064774 0.226490
v 0.099541 0.146034 0.172298
v 0.077408 0.037399 0.189813
v 0.097138 0.148369 0.135227
v 0.070710 0.025520 0.142394
v 0.122839 0.149262 0.107614
v 0.104605 0.018524 0.106909
v -0.120656 0.264465 -0.043947
v -0.122954 0.230751 -0.129198
v -0.091445 0.253044 -0.065337
v -0.171901 0.261978 -0.117543
v -0.130110 0.299477 -0.026980
v -0.195225 0.318024 -0.114332
v -0.115549 0.333771 -0.024551
v -0.179711 0.365494 -0.130574
v -0.085121 0.350143 -0.038026
v -0.134795 0.386612 -0.148612
v -0.060242 0.269432 -0.078917
v -0.091445 0.253044 -0.065337
v -0.122954 0.230751 -0.129198
v -0.087435 0.269669 -0.157899
v -0.046862 0.306740 -0.075251
v -0.073686 0.329979 -0.175827
v -0.056263 0.339012 -0.059754
v -0.092452 0.372284 -0.169612
v -0.085121 0.350143 -0.038026
v -0.134795 0.386612 -0.148612
v 0.117770 0.116242 0.142611
v 0.148503 0.111954 0.127402
v 0.125975 0.077789 0.127659
v 0.148040 0.078049 0.122232
v 0.121010 0.040520 0.114476
v 0.181040 0.077911 0.145651
v 0.176123 0.110130 0.145850
v 0.153731 0.039948 0.110619
v 0.124220 0.000839 0.118893
v 0.156840 0.001610 0.114433
v 0.189577 0.037079 0.133886
v 0.186541 0.003326 0.137064
v 0.205445 0.035912 0.163224
v 0.203843 0.004868 0.164901
v 0.182094 0.078934 0.184135
v 0.171175 0.115486 0.178600
v 0.233818 0.034081 0.207039
v 0.238044 0.007484 0.206855
v 0.169093 0.085732 0.208348
v 0.145510 0.119820 0.192743
v 0.187364 0.055611 0.240825
v 0.218098 0.050514 0.214306
v 0.241765 0.031609 0.252444
v 0.245243 0.009628 0.257285
v 0.212011 0.040680 0.287834
v 0.214831 0.010178 0.294072
v -0.086723 0.328095 -0.081591
v -0.114585 0.343247 -0.095544
v -0.117911 0.327217 -0.067321
v -0.134953 0.336922 -0.087652
v -0.127939 0.371864 -0.116910
v -0.155169 0.302589 -0.091938
v -0.134447 0.298210 -0.065561
v -0.157819 0.360046 -0.109663
v -0.145383 0.384766 -0.150959
v -0.174794 0.372315 -0.142084
v -0.183062 0.326752 -0.118582
v -0.193238 0.340378 -0.148223
v -0.188580 0.297356 -0.133306
v -0.199283 0.310631 -0.159568
v -0.143960 0.271393 -0.111449
v -0.116635 0.271568 -0.075725
v -0.200369 0.251473 -0.154190
v -0.215087 0.261017 -0.174833
v -0.122696 0.255882 -0.121692
v -0.089274 0.271446 -0.087404
v -0.141810 0.237305 -0.164597
v -0.178388 0.245583 -0.148218
v -0.195278 0.213783 -0.180726
v -0.205570 0.217979 -0.200348
v -0.155195 0.196442 -0.198653
v -0.168086 0.203690 -0.226159
v 0.176572 0.009651 0.308676
v 0.214831 0.010178 0.294072
v 0.212011 0.040680 0.287834
v 0.176313 0.043152 0.301171
v 0.137485 0.006577 0.256991
v 0.187364 0.055611 0.240825
v 0.140299 0.037743 0.255459
v 0.131055 0.004128 0.198686
v 0.156809 0.047890 0.248778
v 0.120458 0.035240 0.203419
v 0.108832 0.002563 0.174589
v 0.142006 0.081215 0.205602
v 0.169093 0.085732 0.208348
v 0.145510 0.119820 0.192743
v 0.115841 0.120087 0.171493
v 0.110966 0.078613 0.177303
v 0.117770 0.116242 0.142611
v 0.100680 0.038506 0.176761
v 0.101554 0.001144 0.143328
v 0.098867 0.038269 0.139072
v 0.124220 0.000839 0.118893
v 0.121010 0.040520 0.114476
v 0.109654 0.078072 0.142624
v 0.125975 0.077789 0.127659
v -0.130886 0.210571 -0.241775
v -0.155195 0.196442 -0.198653
v -0.168086 0.203690 -0.226159
v -0.119466 0.201569 -0.210609
v -0.113337 0.269463 -0.221974
v -0.141810 0.237305 -0.164597
v -0.103930 0.255745 -0.195769
v -0.126295 0.318596 -0.192149
v -0.115840 0.248985 -0.180473
v -0.103292 0.306030 -0.171695
v -0.114791 0.348114 -0.183692
v -0.102697 0.273033 -0.130611
v -0.122696 0.255882 -0.121692
v -0.089274 0.271446 -0.087404
v -0.073106 0.304108 -0.090191
v -0.086539 0.310959 -0.126319
v -0.086723 0.328095 -0.081591
v -0.093042 0.334251 -0.157684
v -0.118417 0.376289 -0.168586
v -0.102317 0.364311 -0.136664
v -0.145383 0.384766 -0.150959
v -0.127939 0.371864 -0.116910
v -0.095761 0.339172 -0.106768
v -0.114585 0.343247 -0.095544
f 1 2 3
f 4 1 3
f 4 3 5
f 6 4 5
f 6 5 7
f 8 6 7
f 8 7 9
f 10 8 9
f 11 10 9
f 12 10 11
f 13 14 15
f 14 16 15
f 15 16 17
f 17 16 18
f 17 18 19
f 19 18 20
f 19 20 21
f 21 20 22
f 21 22 23
f 23 22 24
f 25 26 27
f 28 25 27
f 28 27 29
f 28 29 30
f 28 30 31
f 31 30 32
f 33 34 35
f 33 36 34
f 37 36 33
f 37 38 36
f 39 38 37
f 39 40 38
f 41 40 39
f 41 42 40
f 43 42 41
f 43 44 42
f 45 44 43
f 45 46 44
f 47 46 45
f 47 48 46
f 47 49 48
f 50 49 47
f 51 52 53
f 51 53 54
f 55 51 54
f 55 54 56
f 57 55 56
f 57 56 58
f 59 57 58
f 59 58 60
f 61 59 60
f 61 60 62
f 63 61 62
f 63 62 64
f 65 63 64
f 65 64 66
f 65 66 67
f 68 65 67
f 69 70 71
f 72 70 69
f 72 73 70
f 72 74 73
f 72 75 74
f 75 76 74
f 77 78 79
f 79 80 77
f 81 77 80
f 80 82 81
f 83 81 82
f 82 84 83
f 85 83 84
f 84 86 85
f 87 85 86
f 86 88 87
f 89 87 88
f 88 90 89
f 91 89 90
f 90 92 91
f 92 93 91
f 94 91 93
f 95 96 97
f 96 95 98
f 99 98 95
f 98 99 100
f 101 100 99
f 100 101 102
f 103 102 101
f 102 103 104
f 105 104 103
f 104 105 106
f 107 106 105
f 106 107 108
f 109 108 107
f 108 109 110
f 110 109 111
f 112 111 109
f 113 114 115
f 113 115 116
f 113 116 117
f 118 117 116
f 118 119 117
f 118 120 119
f 121 122 123
f 121 124 122
f 121 125 124
f 126 124 125
f 126 125 127
f 126 127 128
f 129 130 131
f 130 129 132
f 133 132 129
f 132 133 134
f 135 134 133
f 134 135 136
f 137 136 135
f 136 137 138
f 139 138 137
f 138 139 140
f 141 140 139
f 140 141 142
f 143 142 141
f 142 143 144
f 145 144 143
f 144 145 146
f 147 148 149
f 149 150 147
f 151 147 150
f 150 152 151
f 153 151 152
f 152 154 153
f 155 153 154
f 154 156 155
f 157 155 156
f 156 158 157
f 159 157 158
f 158 160 159
f 161 159 160
f 160 162 161
f 163 161 162
f 162 164 163
f 165 166 167
f 167 168 165
f 169 165 168
f 168 170 169
f 171 169 170
f 170 172 171
f 173 171 172
f 172 174 173
f 175 176 177
f 176 175 178
f 179 178 175
f 178 179 180
f 181 180 179
f 180 181 182
f 183 182 181
f 182 183 184
f 185 186 187
f 186 185 188
f 189 188 185
f 188 189 190
f 191 190 189
f 190 191 192
f 193 192 191
f 192 193 194
f 195 196 197
f 197 198 195
f 199 195 198
f 198 200 199
f 201 199 200
f 200 202 201
f 203 201 202
f 202 204 203
f 205 206 207
f 207 206 208
f 207 208 209
f 206 210 208
f 206 211 210
f 209 208 212
f 212 208 210
f 209 212 213
f 213 212 214
f 214 212 215
f 212 210 215
f 214 215 216
f 216 215 217
f 215 210 217
f 216 217 218
f 211 219 210
f 217 210 219
f 211 220 219
f 217 221 218
f 218 221 222
f 220 223 219
f 220 224 223
f 219 223 225
f 219 226 217
f 217 226 221
f 219 225 226
f 222 221 227
f 226 227 221
f 226 225 227
f 222 227 228
f 225 229 227
f 228 227 229
f 228 229 230
f 231 232 233
f 232 234 233
f 232 235 234
f 233 234 236
f 233 236 237
f 235 238 234
f 238 236 234
f 235 239 238
f 239 240 238
f 240 241 238
f 238 241 236
f 240 242 241
f 242 243 241
f 241 243 236
f 242 244 243
f 237 236 245
f 243 245 236
f 237 245 246
f 243 244 247
f 244 248 247
f 246 245 249
f 246 249 250
f 245 251 249
f 245 243 252
f 243 247 252
f 245 252 251
f 248 253 247
f 252 247 253
f 252 253 251
f 248 254 253
f 251 253 255
f 254 255 253
f 254 256 255
f 257 258 259
f 257 259 260
f 261 257 260
f 260 259 262
f 261 260 263
f 264 261 263
f 265 260 262
f 265 263 260
f 266 264 263
f 266 263 265
f 267 264 266
f 268 265 262
f 268 266 265
f 268 262 269
f 270 268 269
f 271 268 270
f 271 272 268
f 266 268 272
f 273 272 271
f 267 266 274
f 274 266 272
f 275 267 274
f 275 274 276
f 276 274 272
f 277 275 276
f 278 277 276
f 273 279 272
f 276 272 279
f 278 276 279
f 280 279 273
f 280 278 279
f 281 282 283
f 281 284 282
f 285 284 281
f 284 286 282
f 285 287 284
f 288 287 285
f 289 286 284
f 289 284 287
f 290 287 288
f 290 289 287
f 291 290 288
f 292 286 289
f 292 289 290
f 292 293 286
f 294 293 292
f 295 294 292
f 295 292 296
f 290 296 292
f 297 295 296
f 291 298 290
f 298 296 290
f 299 298 291
f 299 300 298
f 300 296 298
f 301 300 299
f 302 300 301
f 297 296 303
f 300 303 296
f 302 303 300
f 304 297 303
f 304 303 302
