v -0.072376 0.335766 0.047382
v -0.042347 0.346563 0.029181
v -0.063170 0.351328 -0.004583
v -0.090851 0.340514 0.011269
v -0.089990 0.307703 0.055007
v -0.094067 0.339770 -0.019628
v -0.062348 0.337966 -0.038184
v -0.106987 0.316718 0.013295
v -0.110993 0.304404 -0.023759
v -0.118015 0.343068 -0.071214
v -0.094595 0.345822 -0.083601
v -0.100228 0.284773 0.001203
v -0.078511 0.267381 0.041696
v -0.063626 0.245493 0.028803
v -0.132058 0.355140 -0.088456
v -0.102955 0.357251 -0.101734
v -0.110811 0.380076 -0.123220
v -0.146990 0.377543 -0.106488
v -0.126439 0.390948 -0.152847
v -0.162446 0.388167 -0.136077
v -0.172690 0.342793 -0.114365
v -0.184871 0.355364 -0.140657
v -0.154921 0.318427 -0.101297
v -0.177479 0.304366 -0.132055
v -0.144419 0.287593 -0.104427
v -0.186192 0.322732 -0.155772
v -0.148203 0.313704 -0.085558
v -0.193331 0.254902 -0.150075
v -0.206022 0.265867 -0.173272
v -0.127611 0.311678 -0.070179
v -0.187893 0.222681 -0.167076
v -0.200436 0.230717 -0.191587
v -0.120405 0.285375 -0.078085
v -0.169319 0.249142 -0.144142
v -0.153082 0.205835 -0.184738
v -0.168750 0.214306 -0.215565
v -0.140223 0.247769 -0.150297
v -0.121692 0.271393 -0.115573
v -0.106968 0.276526 -0.085131
v -0.095710 0.271116 -0.031034
v -0.079732 0.262229 -0.037734
v -0.045018 0.237652 0.015460
v 0.149324 0.231497 0.090487
v 0.114598 0.190042 0.100634
v 0.113523 0.229929 0.098573
v 0.147665 0.190866 0.094279
v 0.179737 0.233706 0.105524
v 0.138707 0.163481 0.105912
v 0.107579 0.164719 0.125489
v 0.172694 0.188403 0.108360
v 0.167629 0.157502 0.132028
v 0.136117 0.107323 0.115139
v 0.111647 0.108615 0.125585
v 0.178311 0.187438 0.142710
v 0.185263 0.235650 0.149120
v 0.179298 0.236451 0.177941
v 0.133639 0.072290 0.108692
v 0.105117 0.072920 0.123103
v 0.097928 0.039811 0.116452
v 0.133473 0.039911 0.098235
v 0.101179 0.004955 0.120289
v 0.136696 0.005264 0.102290
v 0.170502 0.038583 0.121839
v 0.170565 0.007041 0.123494
v 0.166567 0.066855 0.136494
v 0.189348 0.039344 0.160006
v 0.172617 0.079876 0.166896
v 0.184170 0.008711 0.156768
v 0.167719 0.084583 0.134887
v 0.222857 0.040270 0.203583
v 0.224660 0.011718 0.204567
v 0.159331 0.108764 0.138323
v 0.230071 0.042946 0.239605
v 0.232870 0.014685 0.243630
v 0.163455 0.110537 0.166363
v 0.205748 0.057177 0.211730
v 0.204542 0.050074 0.272846
v 0.208730 0.015293 0.279198
v 0.180043 0.064467 0.224861
v 0.158836 0.086558 0.192884
v 0.154518 0.113172 0.181251
v 0.169058 0.165225 0.168538
v 0.158278 0.169475 0.184188
v 0.163398 0.236321 0.196189
v -0.079732 0.262229 -0.037734
v -0.027395 0.250188 0.005660
v -0.045018 0.237652 0.015460
v -0.063219 0.271856 -0.046450
v -0.090465 0.285678 -0.093213
v -0.106968 0.276526 -0.085131
v -0.121692 0.271393 -0.115573
v -0.051440 0.301887 -0.052252
v -0.080441 0.317472 -0.093070
v -0.030723 0.280309 -0.027923
v -0.012392 0.272945 -0.000966
v -0.003501 0.314055 -0.000969
v -0.025331 0.324315 -0.030747
v -0.012494 0.336858 0.008183
v -0.100917 0.290137 -0.126843
v -0.083679 0.321858 -0.115652
v -0.094595 0.345822 -0.083601
v -0.062348 0.337966 -0.038184
v -0.102955 0.357251 -0.101734
v -0.037073 0.342173 -0.022148
v -0.063170 0.351328 -0.004583
v -0.042347 0.346563 0.029181
v -0.092070 0.324710 -0.126797
v -0.110811 0.380076 -0.123220
v -0.102867 0.345436 -0.145613
v -0.126439 0.390948 -0.152847
v -0.122641 0.358449 -0.170474
v -0.131600 0.327330 -0.181014
v -0.110712 0.313554 -0.157152
v -0.112631 0.260219 -0.190170
v -0.122122 0.271108 -0.212970
v -0.137234 0.217319 -0.231233
v -0.119106 0.252826 -0.169800
v -0.140223 0.247769 -0.150297
v -0.153082 0.205835 -0.184738
v -0.125509 0.206156 -0.201128
v -0.168750 0.214306 -0.215565
v 0.113523 0.229929 0.098573
v 0.114598 0.190042 0.100634
v 0.086770 0.229553 0.125229
v 0.091843 0.190495 0.124201
v 0.107579 0.164719 0.125489
v 0.088028 0.192546 0.146828
v 0.087309 0.230591 0.151368
v 0.111195 0.164984 0.165557
v 0.111647 0.108615 0.125585
v 0.114773 0.199894 0.181531
v 0.114309 0.233252 0.183510
v 0.139706 0.235041 0.195286
v 0.110716 0.113043 0.158345
v 0.137289 0.169041 0.184973
v 0.102561 0.086946 0.163607
v 0.105117 0.072920 0.123103
v 0.158278 0.169475 0.184188
v 0.163398 0.236321 0.196189
v 0.134011 0.113348 0.182192
v 0.154518 0.113172 0.181251
v 0.158836 0.086558 0.192884
v 0.104965 0.072856 0.163982
v 0.097928 0.039811 0.116452
v 0.129690 0.079804 0.190060
v 0.103132 0.040216 0.158133
v 0.101179 0.004955 0.120289
v 0.109834 0.006594 0.156396
v 0.130177 0.008222 0.183659
v 0.122685 0.041823 0.186877
v 0.143235 0.037962 0.246049
v 0.142366 0.011043 0.247810
v 0.177198 0.013973 0.295067
v 0.155906 0.055004 0.238267
v 0.180043 0.064467 0.224861
v 0.204542 0.050074 0.272846
v 0.177554 0.047780 0.290032
v 0.208730 0.015293 0.279198
v -0.200436 0.230717 -0.191587
v -0.137234 0.217319 -0.231233
v -0.168750 0.214306 -0.215565
v -0.122122 0.271108 -0.212970
v -0.206022 0.265867 -0.173272
v -0.186192 0.322732 -0.155772
v -0.131600 0.327330 -0.181014
v -0.184871 0.355364 -0.140657
v -0.122641 0.358449 -0.170474
v -0.162446 0.388167 -0.136077
v -0.126439 0.390948 -0.152847
v 0.109834 0.006594 0.156396
v 0.101179 0.004955 0.120289
v 0.136696 0.005264 0.102290
v 0.170565 0.007041 0.123494
v 0.130177 0.008222 0.183659
v 0.184170 0.008711 0.156768
v 0.142366 0.011043 0.247810
v 0.224660 0.011718 0.204567
v 0.232870 0.014685 0.243630
v 0.177198 0.013973 0.295067
v 0.208730 0.015293 0.279198
f 1 2 3
f 4 1 3
f 1 4 5
f 3 6 4
f 7 6 3
f 5 4 8
f 8 4 6
f 8 6 9
f 6 7 10
f 9 6 10
f 11 10 7
f 8 12 5
f 8 9 12
f 12 13 5
f 12 14 13
f 9 14 12
f 11 15 10
f 16 15 11
f 17 15 16
f 17 18 15
f 19 18 17
f 19 20 18
f 20 21 18
f 20 22 21
f 18 23 15
f 18 21 23
f 22 24 21
f 21 24 23
f 24 25 23
f 22 26 24
f 23 27 15
f 10 15 27
f 23 25 27
f 26 28 24
f 28 25 24
f 26 29 28
f 10 27 30
f 30 27 25
f 10 30 9
f 29 31 28
f 29 32 31
f 33 9 30
f 30 25 33
f 34 28 31
f 25 28 34
f 32 35 31
f 34 31 35
f 32 36 35
f 34 35 37
f 34 37 38
f 25 34 38
f 33 25 38
f 33 38 39
f 40 9 33
f 33 39 40
f 9 40 14
f 39 41 40
f 40 41 14
f 41 42 14
f 43 44 45
f 46 44 43
f 43 47 46
f 44 46 48
f 49 44 48
f 47 50 46
f 50 48 46
f 50 51 48
f 48 52 49
f 51 52 48
f 53 49 52
f 50 47 54
f 50 54 51
f 54 47 55
f 54 55 56
f 51 54 56
f 53 52 57
f 58 53 57
f 59 58 57
f 59 57 60
f 61 59 60
f 61 60 62
f 62 60 63
f 62 63 64
f 60 57 65
f 60 65 63
f 64 63 66
f 63 65 66
f 66 65 67
f 64 66 68
f 65 57 69
f 52 69 57
f 65 69 67
f 68 66 70
f 70 66 67
f 68 70 71
f 52 72 69
f 72 67 69
f 52 51 72
f 71 70 73
f 71 73 74
f 75 72 51
f 72 75 67
f 76 73 70
f 67 76 70
f 74 73 77
f 76 77 73
f 74 77 78
f 76 79 77
f 76 80 79
f 67 80 76
f 75 80 67
f 75 81 80
f 82 75 51
f 75 82 81
f 51 56 82
f 81 82 83
f 82 56 83
f 83 56 84
f 85 86 87
f 88 86 85
f 88 85 89
f 85 90 89
f 90 91 89
f 88 92 86
f 89 93 88
f 88 93 92
f 92 94 86
f 94 95 86
f 96 95 94
f 96 94 97
f 94 92 97
f 98 96 97
f 91 99 89
f 89 100 93
f 89 99 100
f 101 92 93
f 93 100 101
f 102 92 101
f 92 102 97
f 100 103 101
f 97 102 104
f 104 98 97
f 102 105 104
f 105 98 104
f 106 98 105
f 107 103 100
f 99 107 100
f 108 103 107
f 109 108 107
f 110 108 109
f 111 110 109
f 111 109 112
f 113 109 107
f 109 113 112
f 113 107 99
f 113 114 112
f 114 113 99
f 112 114 115
f 116 115 114
f 117 114 99
f 91 117 99
f 118 117 91
f 118 119 117
f 116 114 120
f 120 114 117
f 119 120 117
f 121 116 120
f 121 120 119
f 122 123 124
f 123 125 124
f 126 125 123
f 125 127 124
f 127 125 126
f 124 127 128
f 129 127 126
f 126 130 129
f 128 127 131
f 131 127 129
f 128 131 132
f 131 133 132
f 129 133 131
f 130 134 129
f 135 133 129
f 135 129 134
f 134 130 136
f 136 130 137
f 135 138 133
f 138 139 133
f 140 135 134
f 135 140 138
f 140 134 136
f 138 140 141
f 141 140 142
f 143 136 137
f 144 143 137
f 140 136 145
f 142 140 145
f 145 136 143
f 146 143 144
f 147 146 144
f 148 146 147
f 148 149 146
f 150 143 146
f 146 149 150
f 150 145 143
f 150 149 151
f 151 145 150
f 149 152 151
f 153 151 152
f 142 145 154
f 154 145 151
f 155 142 154
f 155 154 156
f 153 157 151
f 157 154 151
f 156 154 157
f 158 157 153
f 158 156 157
f 159 160 161
f 159 162 160
f 159 163 162
f 162 163 164
f 162 164 165
f 164 166 165
f 165 166 167
f 167 166 168
f 167 168 169
f 170 171 172
f 170 172 173
f 174 170 173
f 175 174 173
f 176 174 175
f 176 175 177
f 178 176 177
f 178 179 176
f 178 180 179
