v -0.024278 0.883124 -0.064283
v -0.030529 0.878833 -0.047187
v -0.031626 0.874499 -0.049199
v 0.010473 0.886024 -0.070239
v 0.023684 0.879114 -0.058679
v 0.022631 0.883268 -0.056299
v 0.008470 0.906584 0.033142
v 0.006575 0.918139 0.027711
v -0.008757 0.910322 0.029518
v -0.009107 0.922500 0.021829
v 0.004663 0.925828 0.020296
v -0.020297 0.916060 0.020101
v -0.018341 0.907011 0.025600
v -0.024251 0.900186 0.019994
v -0.005895 0.929029 0.015829
v 0.003849 0.931819 0.018466
v 0.001705 0.939342 0.009614
v -0.016963 0.925155 0.013828
v -0.009043 0.933397 0.007677
v -0.001920 0.943187 -0.009658
v -0.027440 0.916330 0.005498
v -0.033180 0.899974 0.001286
v -0.026320 0.892181 0.017938
v -0.028491 0.884232 0.011348
v -0.032526 0.888426 0.000236
v -0.033878 0.886722 -0.011032
v -0.013683 0.936900 -0.009303
v -0.005984 0.941645 -0.034123
v -0.019167 0.931857 0.007093
v -0.018245 0.934470 -0.031035
v -0.008939 0.932282 -0.055919
v -0.024778 0.921773 0.002815
v -0.024015 0.935869 -0.008156
v -0.028061 0.926719 -0.009127
v -0.033420 0.923826 -0.020286
v -0.029199 0.934788 -0.028137
v -0.019496 0.926080 -0.050281
v -0.025410 0.907564 -0.065397
v -0.009408 0.910501 -0.069256
v -0.031460 0.922711 -0.052552
v -0.036743 0.925339 -0.029881
v -0.038720 0.912748 -0.019259
v -0.039156 0.898394 -0.018560
v -0.024278 0.883124 -0.064283
v -0.039010 0.884089 -0.027969
v -0.007612 0.887820 -0.069818
v -0.004330 0.870619 -0.059044
v -0.016189 0.856667 -0.032809
v -0.000322 0.857774 -0.041915
v -0.030529 0.878833 -0.047187
v 0.000907 0.848601 -0.039209
v -0.012136 0.847233 -0.030768
v -0.029822 0.875883 -0.011391
v -0.017537 0.846466 -0.020063
v -0.021397 0.858408 -0.016179
v -0.024208 0.867103 -0.005451
v -0.019436 0.856140 -0.003813
v 0.008470 0.906584 0.033142
v 0.022688 0.912945 0.024128
v 0.006575 0.918139 0.027711
v 0.018510 0.924804 0.017095
v 0.004663 0.925828 0.020296
v 0.029381 0.920205 0.011586
v 0.030838 0.911114 0.017171
v 0.035578 0.905178 0.009739
v 0.012488 0.930563 0.012678
v 0.003849 0.931819 0.018466
v 0.001705 0.939342 0.009614
v 0.022742 0.928468 0.007023
v 0.012015 0.935154 0.004067
v -0.001920 0.943187 -0.009658
v 0.031149 0.921218 -0.004544
v 0.037727 0.905890 -0.010868
v 0.038110 0.897556 0.006894
v 0.039230 0.889882 -0.000259
v 0.038631 0.894362 -0.011960
v 0.036435 0.892589 -0.023084
v 0.010149 0.938889 -0.013387
v -0.005984 0.941645 -0.034123
v 0.021484 0.935249 0.000125
v 0.007594 0.936625 -0.035464
v -0.008939 0.932282 -0.055919
v 0.026910 0.926085 -0.006045
v 0.020301 0.939566 -0.015752
v 0.025216 0.931164 -0.018259
v 0.026973 0.928865 -0.030637
v 0.018687 0.938783 -0.036345
v 0.003741 0.928019 -0.054264
v 0.007222 0.910286 -0.070990
v -0.009408 0.910501 -0.069256
v 0.014658 0.926558 -0.060457
v 0.026646 0.930628 -0.040746
v 0.034026 0.918817 -0.031728
v 0.036973 0.904746 -0.031608
v 0.010473 0.886024 -0.070239
v 0.036029 0.890349 -0.040830
v -0.007612 0.887820 -0.069818
v -0.004330 0.870619 -0.059044
v 0.017622 0.859488 -0.038605
v -0.000322 0.857774 -0.041915
v 0.022631 0.883268 -0.056299
v 0.000907 0.848601 -0.039209
v 0.016047 0.849585 -0.035599
v 0.034290 0.881232 -0.022380
v 0.024734 0.849993 -0.027308
v 0.027686 0.862503 -0.024592
v 0.032448 0.871830 -0.015162
v 0.030318 0.860292 -0.012341
v -0.031626 0.874499 -0.049199
v -0.027124 0.888181 -0.068795
v -0.024278 0.883124 -0.064283
v -0.046006 0.871496 -0.054679
v -0.046915 0.887308 -0.066829
v -0.056094 0.865734 -0.059837
v -0.070081 0.876076 -0.069110
v -0.059968 0.867009 -0.055213
v -0.071779 0.873743 -0.063779
v -0.084237 0.890205 -0.063112
v -0.083593 0.885351 -0.059295
v -0.081704 0.890633 -0.040302
v -0.027984 0.907183 -0.069297
v -0.058611 0.906178 -0.058245
v -0.083238 0.896735 -0.038955
v -0.065869 0.884887 -0.027335
v -0.067003 0.882299 -0.031001
v -0.058370 0.871979 -0.035695
v -0.025410 0.907564 -0.065397
v -0.024278 0.883124 -0.064283
v -0.031460 0.922711 -0.052552
v -0.036069 0.924304 -0.056124
v -0.041141 0.926525 -0.030235
v -0.036743 0.925339 -0.029881
v -0.062931 0.907065 -0.038338
v -0.043780 0.911698 -0.016780
v -0.038720 0.912748 -0.019259
v -0.057011 0.891315 -0.026640
v -0.042565 0.897356 -0.017990
v -0.039156 0.898394 -0.018560
v -0.041157 0.881516 -0.024946
v -0.039010 0.884089 -0.027969
v -0.048372 0.878353 -0.034255
v -0.031626 0.874499 -0.049199
v -0.030529 0.878833 -0.047187
v -0.046006 0.871496 -0.054679
v -0.055833 0.871487 -0.033375
v -0.056094 0.865734 -0.059837
v -0.059968 0.867009 -0.055213
v 0.023684 0.879114 -0.058679
v 0.010473 0.886024 -0.070239
v 0.010812 0.891346 -0.075298
v 0.035726 0.878315 -0.068688
v 0.030006 0.893725 -0.080014
v 0.044329 0.874112 -0.077050
v 0.052601 0.886312 -0.090138
v 0.049255 0.876122 -0.073934
v 0.056320 0.884431 -0.085735
v 0.065474 0.902696 -0.088773
v 0.066919 0.897909 -0.085094
v 0.070595 0.903340 -0.066406
v 0.008387 0.910218 -0.075531
v 0.040684 0.914463 -0.075264
v 0.071485 0.909644 -0.065475
v 0.061085 0.895479 -0.049095
v 0.061343 0.893007 -0.053000
v 0.053425 0.881306 -0.054857
v 0.007222 0.910286 -0.070990
v 0.010473 0.886024 -0.070239
v 0.014658 0.926558 -0.060457
v 0.017505 0.928774 -0.065307
v 0.030428 0.932496 -0.042502
v 0.026646 0.930628 -0.040746
v 0.051142 0.916582 -0.057890
v 0.039720 0.918664 -0.031092
v 0.034026 0.918817 -0.031728
v 0.052044 0.900414 -0.045332
v 0.040499 0.904286 -0.032227
v 0.036973 0.904746 -0.031608
v 0.039439 0.888241 -0.038760
v 0.036029 0.890349 -0.040830
v 0.043578 0.886025 -0.050016
v 0.023684 0.879114 -0.058679
v 0.022631 0.883268 -0.056299
v 0.035726 0.878315 -0.068688
v 0.051912 0.880476 -0.051843
v 0.044329 0.874112 -0.077050
v 0.049255 0.876122 -0.073934
v -0.081704 0.890633 -0.040302
v -0.083593 0.885351 -0.059295
v -0.093836 0.869503 -0.058405
v -0.090108 0.871672 -0.042192
v -0.067003 0.882299 -0.031001
v -0.091155 0.858947 -0.039349
v -0.093972 0.853347 -0.052800
v -0.074612 0.867523 -0.032637
v -0.076954 0.854941 -0.030077
v -0.058370 0.871979 -0.035695
v -0.066736 0.862769 -0.038336
v -0.065355 0.861743 -0.035503
v -0.086373 0.851372 -0.033223
v -0.087989 0.843154 -0.043962
v -0.079481 0.843840 -0.026590
v -0.074732 0.834738 -0.034036
v -0.052785 0.846201 -0.017280
v -0.059102 0.850535 -0.015211
v -0.044337 0.872007 -0.008224
v -0.060569 0.860948 -0.019280
v -0.055300 0.862349 -0.026078
v 0.070595 0.903340 -0.066406
v 0.079290 0.883948 -0.088079
v 0.066919 0.897909 -0.085094
v 0.080837 0.885935 -0.071493
v 0.061343 0.893007 -0.053000
v 0.084800 0.873627 -0.069508
v 0.083872 0.868185 -0.083283
v 0.070257 0.879610 -0.057467
v 0.075307 0.867644 -0.056174
v 0.053425 0.881306 -0.054857
v 0.061813 0.873494 -0.060370
v 0.061631 0.872338 -0.057269
v 0.083600 0.865553 -0.062357
v 0.082873 0.857409 -0.073248
v 0.080598 0.857196 -0.054028
v 0.075185 0.847245 -0.059732
v 0.058474 0.855484 -0.036350
v 0.064335 0.860834 -0.036368
v 0.049459 0.879833 -0.024301
v 0.062675 0.871231 -0.040404
v 0.055302 0.871576 -0.045035
v -0.059968 0.867009 -0.055213
v -0.058370 0.871979 -0.035695
v -0.066736 0.862769 -0.038336
v -0.067731 0.858827 -0.058340
v -0.071779 0.873743 -0.063779
v -0.059165 0.858717 -0.040343
v -0.065355 0.861743 -0.035503
v -0.055300 0.862349 -0.026078
v -0.080263 0.866584 -0.065458
v -0.083593 0.885351 -0.059295
v -0.093836 0.869503 -0.058405
v -0.079125 0.850008 -0.060802
v -0.093972 0.853347 -0.052800
v -0.062396 0.849511 -0.045780
v -0.076436 0.838123 -0.051344
v -0.087989 0.843154 -0.043962
v -0.074732 0.834738 -0.034036
v -0.065248 0.835664 -0.043541
v -0.052785 0.846201 -0.017280
v -0.048343 0.846586 -0.025874
v -0.044337 0.872007 -0.008224
v -0.048952 0.855996 -0.028214
v 0.049255 0.876122 -0.073934
v 0.061813 0.873494 -0.060370
v 0.053425 0.881306 -0.054857
v 0.056757 0.869214 -0.079678
v 0.056320 0.884431 -0.085735
v 0.054762 0.868222 -0.059871
v 0.061631 0.872338 -0.057269
v 0.055302 0.871576 -0.045035
v 0.064806 0.878688 -0.090323
v 0.066919 0.897909 -0.085094
v 0.079290 0.883948 -0.088079
v 0.067957 0.862279 -0.086012
v 0.083872 0.868185 -0.083283
v 0.057450 0.859511 -0.066322
v 0.070499 0.850382 -0.076529
v 0.082873 0.857409 -0.073248
v 0.075185 0.847245 -0.059732
v 0.063073 0.846370 -0.065536
v 0.058474 0.855484 -0.036350
v 0.051439 0.854911 -0.042977
v 0.049459 0.879833 -0.024301
v 0.049715 0.864228 -0.045126
f 1 2 3
f 4 5 6
f 7 8 9
f 9 8 10
f 10 8 11
f 9 10 12
f 12 13 9
f 14 13 12
f 15 10 11
f 15 11 16
f 16 17 15
f 10 18 12
f 18 10 15
f 15 17 19
f 15 19 18
f 20 19 17
f 12 21 14
f 12 18 21
f 22 14 21
f 14 22 23
f 22 24 23
f 22 25 24
f 22 26 25
f 19 20 27
f 28 27 20
f 18 19 29
f 27 29 19
f 27 28 30
f 31 30 28
f 18 32 21
f 32 18 29
f 29 27 33
f 30 33 27
f 34 32 29
f 34 21 32
f 29 33 34
f 21 34 35
f 35 34 33
f 21 35 22
f 33 30 36
f 33 36 35
f 30 31 37
f 37 36 30
f 38 37 31
f 31 39 38
f 38 40 37
f 36 37 40
f 41 36 40
f 41 35 36
f 42 35 41
f 42 22 35
f 43 22 42
f 26 22 43
f 38 39 44
f 43 45 26
f 39 46 44
f 47 44 46
f 47 48 44
f 47 49 48
f 50 44 48
f 45 50 48
f 51 48 49
f 48 51 52
f 26 45 53
f 48 52 54
f 45 55 53
f 48 55 45
f 48 54 55
f 56 53 55
f 55 54 57
f 55 57 56
f 58 59 60
f 59 61 60
f 61 62 60
f 59 63 61
f 63 59 64
f 65 63 64
f 66 62 61
f 66 67 62
f 67 66 68
f 61 63 69
f 69 66 61
f 66 70 68
f 66 69 70
f 71 68 70
f 63 65 72
f 63 72 69
f 73 72 65
f 65 74 73
f 73 74 75
f 73 75 76
f 73 76 77
f 70 78 71
f 79 71 78
f 69 80 70
f 78 70 80
f 78 81 79
f 82 79 81
f 69 72 83
f 83 80 69
f 80 84 78
f 81 78 84
f 85 80 83
f 85 83 72
f 80 85 84
f 72 86 85
f 86 84 85
f 72 73 86
f 84 87 81
f 84 86 87
f 81 88 82
f 88 81 87
f 89 82 88
f 82 89 90
f 89 88 91
f 87 91 88
f 92 91 87
f 92 87 86
f 93 92 86
f 93 86 73
f 94 93 73
f 77 94 73
f 89 95 90
f 94 77 96
f 90 95 97
f 98 97 95
f 98 95 99
f 98 99 100
f 101 99 95
f 96 99 101
f 102 100 99
f 99 103 102
f 77 104 96
f 99 105 103
f 96 104 106
f 99 96 106
f 99 106 105
f 107 106 104
f 106 108 105
f 106 107 108
f 109 110 111
f 110 109 112
f 110 112 113
f 114 113 112
f 114 115 113
f 116 115 114
f 115 116 117
f 118 115 117
f 118 113 115
f 117 119 118
f 120 118 119
f 121 110 113
f 113 118 122
f 113 122 121
f 118 120 123
f 123 122 118
f 124 123 120
f 120 125 124
f 126 124 125
f 110 121 127
f 127 128 110
f 129 127 121
f 121 130 129
f 130 121 122
f 131 129 130
f 131 130 122
f 129 131 132
f 122 123 133
f 122 133 131
f 124 133 123
f 134 132 131
f 134 131 133
f 135 132 134
f 133 136 134
f 133 124 136
f 134 137 135
f 137 134 136
f 135 137 138
f 139 138 137
f 139 137 136
f 138 139 140
f 141 136 124
f 136 141 139
f 142 140 139
f 142 139 141
f 140 142 143
f 142 141 144
f 124 145 141
f 145 144 141
f 124 126 145
f 145 146 144
f 146 145 126
f 126 147 146
f 148 149 150
f 150 151 148
f 150 152 151
f 153 151 152
f 153 152 154
f 155 153 154
f 154 156 155
f 157 156 154
f 157 154 152
f 156 157 158
f 159 158 157
f 160 152 150
f 152 161 157
f 152 160 161
f 157 162 159
f 162 157 161
f 163 159 162
f 159 163 164
f 165 164 163
f 150 166 160
f 166 150 167
f 168 160 166
f 160 168 169
f 169 161 160
f 170 169 168
f 170 161 169
f 168 171 170
f 161 172 162
f 161 170 172
f 163 162 172
f 173 170 171
f 173 172 170
f 174 173 171
f 172 173 175
f 172 175 163
f 173 174 176
f 176 175 173
f 174 177 176
f 178 176 177
f 178 175 176
f 177 179 178
f 180 163 175
f 175 178 180
f 181 178 179
f 181 180 178
f 179 182 181
f 181 183 180
f 163 180 184
f 184 180 183
f 163 184 165
f 184 183 185
f 185 165 184
f 165 185 186
f 187 188 189
f 189 190 187
f 191 187 190
f 189 192 190
f 192 189 193
f 190 194 191
f 192 194 190
f 194 192 195
f 196 191 194
f 194 197 196
f 194 195 197
f 195 198 197
f 193 199 192
f 199 195 192
f 199 193 200
f 200 201 199
f 195 199 201
f 201 200 202
f 201 202 203
f 203 204 201
f 195 201 204
f 203 205 204
f 198 195 206
f 204 206 195
f 204 205 206
f 207 198 206
f 206 205 207
f 208 209 210
f 209 208 211
f 212 211 208
f 209 211 213
f 213 214 209
f 211 212 215
f 213 211 215
f 215 216 213
f 217 215 212
f 215 217 218
f 215 218 216
f 216 218 219
f 214 213 220
f 220 213 216
f 220 221 214
f 221 220 222
f 216 222 220
f 222 223 221
f 222 224 223
f 224 222 225
f 216 225 222
f 224 225 226
f 219 227 216
f 225 216 227
f 225 227 226
f 228 227 219
f 227 228 226
f 229 230 231
f 231 232 229
f 233 229 232
f 232 231 234
f 235 234 231
f 236 234 235
f 232 237 233
f 238 233 237
f 237 239 238
f 239 237 240
f 232 240 237
f 239 240 241
f 240 232 242
f 234 242 232
f 243 241 240
f 242 243 240
f 243 244 241
f 244 243 245
f 246 245 243
f 242 246 243
f 246 247 245
f 242 248 246
f 247 246 248
f 242 234 248
f 248 249 247
f 248 234 250
f 250 249 248
f 236 250 234
f 236 249 250
f 251 252 253
f 252 251 254
f 255 254 251
f 254 256 252
f 257 252 256
f 258 257 256
f 254 255 259
f 260 259 255
f 259 260 261
f 261 262 259
f 254 259 262
f 261 263 262
f 262 264 254
f 256 254 264
f 265 262 263
f 264 262 265
f 265 263 266
f 266 267 265
f 268 265 267
f 264 265 268
f 268 267 269
f 264 268 270
f 269 270 268
f 264 270 256
f 270 269 271
f 270 272 256
f 272 270 271
f 258 256 272
f 258 272 271
