v -0.175175 0.477387 0.365525
v -0.210884 0.516426 0.330068
v -0.179287 0.497612 0.314278
v -0.192701 0.486710 0.375391
v -0.170654 0.468361 0.381049
v -0.207194 0.556038 0.356372
v -0.181359 0.471260 0.386204
v -0.150395 0.444489 0.399423
v -0.186105 0.516670 0.393256
v -0.178023 0.445892 0.418397
v -0.149530 0.426811 0.429949
v -0.159475 0.533386 0.400294
v -0.159452 0.524048 0.418067
v -0.170519 0.573013 0.361645
v -0.134462 0.554009 0.346235
v -0.141388 0.524643 0.389166
v -0.137640 0.519829 0.408126
v -0.117662 0.529572 0.427131
v -0.182215 0.500259 0.408500
v -0.136307 0.526680 0.447364
v -0.105530 0.520615 0.451240
v -0.154509 0.506569 0.458535
v -0.172465 0.476997 0.442414
v -0.124566 0.510490 0.465346
v -0.101103 0.485069 0.462093
v -0.087468 0.499031 0.451629
v -0.097411 0.479675 0.459107
v -0.083996 0.493416 0.449773
v -0.089799 0.459480 0.438402
v -0.079672 0.469696 0.432423
v -0.137506 0.486404 0.484435
v -0.116686 0.490654 0.449769
v -0.119658 0.486900 0.464508
v -0.166727 0.425934 0.445442
v -0.127026 0.477417 0.487211
v -0.111917 0.481834 0.460491
v -0.153850 0.453484 0.469788
v -0.141584 0.445503 0.474494
v -0.156352 0.419243 0.449305
v -0.101425 0.470589 0.472154
v -0.132245 0.415192 0.440574
v -0.138207 0.423492 0.430833
v -0.112486 0.439529 0.460709
v -0.094847 0.470261 0.465445
v -0.112498 0.483070 0.451823
v -0.104655 0.439842 0.453519
v -0.093527 0.478874 0.444017
v -0.113340 0.489578 0.439070
v -0.102994 0.488716 0.431960
v -0.101846 0.450378 0.432566
v -0.116887 0.470055 0.409051
v -0.122863 0.415291 0.434358
v -0.123335 0.426445 0.417802
v -0.130249 0.441536 0.403196
v -0.136526 0.429825 0.419204
v -0.138475 0.440949 0.411061
v -0.116686 0.490654 0.449769
v -0.101103 0.485069 0.462093
v -0.124566 0.510490 0.465346
v -0.107805 0.482109 0.445314
v -0.097411 0.479675 0.459107
v -0.089799 0.459480 0.438402
v -0.096376 0.462486 0.430466
v 0.258476 0.568604 -0.011715
v 0.233930 0.618195 -0.015369
v 0.269855 0.631630 -0.003531
v 0.278980 0.574760 -0.005988
v 0.263112 0.549271 -0.010880
v 0.284094 0.630997 0.041736
v 0.279009 0.554710 -0.009660
v 0.256470 0.511284 -0.012514
v 0.285820 0.574089 0.028521
v 0.289583 0.513748 -0.016857
v 0.273832 0.477448 -0.013949
v 0.269449 0.565064 0.054680
v 0.279388 0.549393 0.054003
v 0.258256 0.617912 0.070483
v 0.218912 0.602394 0.059958
v 0.247744 0.559761 0.048890
v 0.258187 0.544113 0.054296
v 0.259765 0.529106 0.080887
v 0.291897 0.556053 0.023573
v 0.286717 0.523827 0.077864
v 0.263074 0.507126 0.087463
v 0.305477 0.513695 0.057587
v 0.304897 0.514755 0.019629
v 0.286082 0.501274 0.084384
v 0.265764 0.476097 0.087999
v 0.246887 0.487511 0.085831
v 0.262146 0.470123 0.085727
v 0.243961 0.481308 0.084339
v 0.249281 0.449272 0.070267
v 0.236310 0.457558 0.070539
v 0.310006 0.479004 0.059509
v 0.273702 0.487465 0.065077
v 0.281671 0.476921 0.060972
v 0.298041 0.481087 -0.016966
v 0.305766 0.464790 0.057999
v 0.276168 0.465797 0.058900
v 0.309243 0.477058 0.020053
v 0.305650 0.461418 0.020909
v 0.294789 0.467926 -0.016240
v 0.286791 0.448372 0.057960
v 0.279958 0.451965 -0.012639
v 0.270308 0.463615 -0.011550
v 0.286980 0.443771 0.023369
v 0.277992 0.443588 0.058200
v 0.266091 0.465637 0.056492
v 0.277330 0.438065 0.024458
v 0.256274 0.447144 0.058168
v 0.252094 0.469933 0.057158
v 0.243873 0.460571 0.058222
v 0.255287 0.442192 0.026643
v 0.230790 0.465302 0.029248
v 0.270657 0.444870 -0.010638
v 0.252680 0.450958 -0.007399
v 0.235972 0.464562 -0.002554
v 0.255407 0.464226 -0.009491
v 0.244878 0.471314 -0.003880
v 0.273702 0.487465 0.065077
v 0.286082 0.501274 0.084384
v 0.265764 0.476097 0.087999
v 0.265618 0.475945 0.069226
v 0.262146 0.470123 0.085727
v 0.249281 0.449272 0.070267
v 0.251093 0.453171 0.060680
v -0.141388 0.524643 0.389166
v -0.134457 0.523163 0.324789
v -0.134462 0.554009 0.346235
v -0.142929 0.502358 0.374591
v -0.135002 0.503723 0.394560
v -0.137640 0.519829 0.408126
v -0.117662 0.529572 0.427131
v -0.175175 0.477387 0.365525
v -0.179287 0.497612 0.314278
v -0.147065 0.487206 0.386639
v -0.170654 0.468361 0.381049
v -0.150395 0.444489 0.399423
v -0.122353 0.490791 0.404349
v -0.129337 0.472862 0.402846
v -0.149530 0.426811 0.429949
v -0.134468 0.456497 0.448749
v -0.138207 0.423492 0.430833
v -0.110861 0.501213 0.427135
v -0.105530 0.520615 0.451240
v -0.094846 0.495331 0.436155
v -0.087468 0.499031 0.451629
v -0.083996 0.493416 0.449773
v -0.116686 0.490654 0.449769
v -0.107805 0.482109 0.445314
v -0.119658 0.486900 0.464508
v -0.096376 0.462486 0.430466
v -0.123967 0.452568 0.446811
v -0.136526 0.429825 0.419204
v -0.111917 0.481834 0.460491
v -0.086135 0.472839 0.424443
v -0.079672 0.469696 0.432423
v -0.089799 0.459480 0.438402
v -0.121989 0.456940 0.436637
v -0.138475 0.440949 0.411061
v -0.112498 0.483070 0.451823
v -0.127515 0.470635 0.416791
v -0.130249 0.441536 0.403196
v -0.113340 0.489578 0.439070
v -0.116887 0.470055 0.409051
v -0.102994 0.488716 0.431960
v 0.247744 0.559761 0.048890
v 0.218912 0.602394 0.059958
v 0.204929 0.602196 0.025576
v 0.239207 0.559715 0.023924
v 0.246683 0.542847 0.037268
v 0.258187 0.544113 0.054296
v 0.259765 0.529106 0.080887
v 0.258476 0.568604 -0.011715
v 0.233930 0.618195 -0.015369
v 0.249659 0.544754 0.015728
v 0.263112 0.549271 -0.010880
v 0.256470 0.511284 -0.012514
v 0.243955 0.522263 0.039361
v 0.246272 0.515724 0.021212
v 0.273832 0.477448 -0.013949
v 0.278926 0.476044 0.023845
v 0.270308 0.463615 -0.011550
v 0.256266 0.503151 0.057125
v 0.263074 0.507126 0.087463
v 0.248065 0.486679 0.068119
v 0.246887 0.487511 0.085831
v 0.243961 0.481308 0.084339
v 0.273702 0.487465 0.065077
v 0.265618 0.475945 0.069226
v 0.281671 0.476921 0.060972
v 0.251093 0.453171 0.060680
v 0.273842 0.463509 0.024228
v 0.255407 0.464226 -0.009491
v 0.276168 0.465797 0.058900
v 0.237833 0.461586 0.060540
v 0.236310 0.457558 0.070539
v 0.249281 0.449272 0.070267
v 0.261335 0.462784 0.025368
v 0.244878 0.471314 -0.003880
v 0.266091 0.465637 0.056492
v 0.239809 0.474793 0.027877
v 0.235972 0.464562 -0.002554
v 0.252094 0.469933 0.057158
v 0.230790 0.465302 0.029248
v 0.243873 0.460571 0.058222
f 1 2 3
f 1 4 2
f 5 4 1
f 4 6 2
f 5 7 4
f 8 7 5
f 4 9 6
f 7 9 4
f 7 8 10
f 11 10 8
f 9 12 6
f 13 12 9
f 12 14 6
f 12 15 14
f 12 16 15
f 13 16 12
f 13 17 16
f 13 18 17
f 7 19 9
f 7 10 19
f 19 13 9
f 18 13 20
f 20 21 18
f 22 13 19
f 20 13 22
f 23 19 10
f 19 23 22
f 21 20 24
f 22 24 20
f 25 21 24
f 26 21 25
f 25 27 26
f 26 27 28
f 29 28 27
f 28 29 30
f 24 22 31
f 23 31 22
f 24 31 32
f 33 32 31
f 34 23 10
f 10 11 34
f 35 33 31
f 35 36 33
f 31 23 37
f 23 34 37
f 37 35 31
f 34 38 37
f 35 37 38
f 34 11 39
f 38 34 39
f 36 35 40
f 38 40 35
f 11 41 39
f 41 11 42
f 39 43 38
f 40 38 43
f 43 39 41
f 36 40 44
f 43 44 40
f 44 45 36
f 41 46 43
f 44 43 46
f 45 44 47
f 46 47 44
f 47 48 45
f 48 47 49
f 50 49 47
f 47 46 50
f 49 50 51
f 46 41 52
f 42 52 41
f 52 50 46
f 53 51 50
f 50 52 53
f 42 53 52
f 51 53 54
f 53 42 55
f 55 54 53
f 54 55 56
f 57 58 59
f 58 57 60
f 60 61 58
f 60 62 61
f 62 60 63
f 64 65 66
f 64 66 67
f 68 64 67
f 67 66 69
f 68 67 70
f 71 68 70
f 67 69 72
f 70 67 72
f 70 73 71
f 74 71 73
f 72 69 75
f 76 72 75
f 75 69 77
f 75 77 78
f 75 78 79
f 76 75 79
f 76 79 80
f 76 80 81
f 70 72 82
f 70 82 73
f 82 72 76
f 81 83 76
f 83 81 84
f 85 82 76
f 83 85 76
f 86 73 82
f 82 85 86
f 84 87 83
f 85 83 87
f 88 87 84
f 89 88 84
f 88 89 90
f 89 91 90
f 92 90 91
f 91 93 92
f 87 94 85
f 86 85 94
f 87 95 94
f 96 94 95
f 97 73 86
f 73 97 74
f 98 94 96
f 98 96 99
f 94 100 86
f 86 100 97
f 100 94 98
f 97 100 101
f 98 101 100
f 97 102 74
f 101 102 97
f 99 103 98
f 101 98 103
f 74 102 104
f 104 105 74
f 102 101 106
f 103 106 101
f 106 104 102
f 99 107 103
f 106 103 107
f 107 99 108
f 104 106 109
f 107 109 106
f 108 110 107
f 109 107 110
f 110 108 111
f 111 112 110
f 113 110 112
f 110 113 109
f 112 114 113
f 109 115 104
f 115 109 113
f 105 104 115
f 116 113 114
f 113 116 115
f 105 115 116
f 114 117 116
f 116 118 105
f 118 116 117
f 117 119 118
f 120 121 122
f 122 123 120
f 123 122 124
f 123 124 125
f 125 126 123
f 127 128 129
f 127 130 128
f 131 130 127
f 132 131 127
f 133 131 132
f 130 134 128
f 134 135 128
f 136 134 130
f 131 136 130
f 136 137 134
f 138 137 136
f 139 131 133
f 131 139 136
f 136 140 138
f 140 136 139
f 140 141 138
f 142 141 140
f 142 140 139
f 142 143 141
f 144 139 133
f 133 145 144
f 145 146 144
f 146 145 147
f 146 147 148
f 144 149 139
f 139 149 142
f 146 149 144
f 149 146 150
f 142 149 151
f 146 152 150
f 143 142 153
f 151 153 142
f 153 154 143
f 153 151 155
f 148 156 146
f 152 146 156
f 156 148 157
f 157 152 156
f 152 157 158
f 154 153 159
f 155 159 153
f 159 160 154
f 159 155 161
f 160 159 162
f 161 162 159
f 163 160 162
f 162 161 164
f 163 162 165
f 165 162 164
f 165 164 166
f 167 168 169
f 167 169 170
f 171 167 170
f 172 167 171
f 173 172 171
f 170 169 174
f 174 169 175
f 176 170 174
f 171 170 176
f 176 174 177
f 178 176 177
f 179 173 171
f 171 176 179
f 176 178 180
f 180 179 176
f 180 178 181
f 182 180 181
f 182 179 180
f 182 181 183
f 184 173 179
f 173 184 185
f 185 184 186
f 186 187 185
f 186 188 187
f 184 179 189
f 179 182 189
f 186 184 189
f 189 190 186
f 182 191 189
f 186 190 192
f 183 193 182
f 191 182 193
f 193 183 194
f 193 195 191
f 188 186 196
f 192 196 186
f 196 197 188
f 197 196 192
f 192 198 197
f 194 199 193
f 195 193 199
f 199 194 200
f 199 201 195
f 200 202 199
f 201 199 202
f 203 202 200
f 202 204 201
f 203 205 202
f 205 204 202
f 205 206 204
