v 0.013280 0.831368 0.258664
v 0.014814 0.829292 0.257552
v 0.014851 0.830002 0.254923
v 0.015217 0.827232 0.257921
v 0.015246 0.826851 0.254248
v -0.001409 0.831070 0.258550
v -0.002809 0.829643 0.254903
v -0.002845 0.828941 0.257532
v -0.003045 0.826485 0.253947
v -0.003301 0.826859 0.257707
v -0.024629 0.851265 0.197378
v -0.023119 0.843018 0.207782
v -0.029989 0.858376 0.206235
v 0.036755 0.852501 0.197874
v 0.041797 0.859818 0.206922
v 0.035521 0.844200 0.208285
v 0.005163 0.867271 0.273286
v 0.005436 0.853508 0.271613
v 0.019889 0.872192 0.270772
v 0.021818 0.857483 0.268985
v 0.030500 0.881073 0.260946
v 0.012099 0.843590 0.268532
v 0.005709 0.844688 0.269939
v 0.005685 0.843681 0.266810
v 0.031745 0.860405 0.259421
v 0.037277 0.871422 0.243176
v 0.037269 0.862236 0.242133
v 0.040144 0.858849 0.229524
v 0.030797 0.852882 0.262401
v 0.022205 0.847855 0.267268
v 0.034692 0.853989 0.256198
v 0.009295 0.842186 0.268039
v 0.008200 0.840637 0.266891
v 0.005746 0.840401 0.267310
v 0.006035 0.830505 0.267722
v 0.012934 0.843117 0.265597
v 0.022136 0.846062 0.265725
v 0.029816 0.849449 0.261208
v 0.009112 0.830475 0.266541
v 0.005921 0.828606 0.267765
v 0.010540 0.842049 0.266515
v 0.021867 0.846024 0.260598
v 0.015636 0.844757 0.260375
v 0.013744 0.842300 0.259532
v 0.028021 0.847778 0.258236
v 0.016023 0.842415 0.258657
v 0.015620 0.839897 0.258289
v 0.011973 0.841003 0.259689
v 0.013280 0.831368 0.258664
v 0.021896 0.842590 0.256926
v 0.014814 0.829292 0.257552
v 0.015217 0.827232 0.257921
v 0.028392 0.844383 0.254432
v 0.009401 0.828789 0.266953
v 0.014875 0.825295 0.258052
v 0.015246 0.826851 0.254248
v 0.009287 0.826347 0.266996
v 0.005921 0.825798 0.267765
v 0.006019 0.823906 0.265636
v 0.008526 0.824204 0.264673
v 0.006047 0.823547 0.261964
v 0.022238 0.838394 0.256795
v 0.013105 0.824280 0.258208
v 0.008676 0.824104 0.262000
v 0.011151 0.822388 0.256866
v 0.006068 0.821991 0.257249
v 0.006288 0.817925 0.256118
v 0.015018 0.824829 0.254336
v 0.012397 0.819153 0.255342
v 0.016377 0.823036 0.252768
v 0.013195 0.816643 0.255036
v 0.006349 0.814690 0.256618
v 0.019271 0.821442 0.250088
v 0.018087 0.827065 0.252112
v 0.012926 0.815010 0.249909
v 0.006430 0.813400 0.252402
v 0.014851 0.830002 0.254923
v 0.014814 0.829292 0.257552
v 0.016227 0.831963 0.255441
v 0.022576 0.826210 0.248820
v 0.023248 0.832802 0.254315
v 0.020342 0.816521 0.248108
v 0.014005 0.811035 0.248972
v 0.006536 0.809837 0.251316
v 0.006602 0.806450 0.245014
v 0.031225 0.833351 0.251253
v 0.023069 0.819893 0.246015
v 0.018144 0.815323 0.244768
v 0.029935 0.840019 0.254363
v 0.031005 0.846558 0.252383
v 0.029398 0.826607 0.244109
v 0.030245 0.817101 0.235415
v 0.024571 0.814880 0.240732
v 0.022064 0.814522 0.241694
v 0.019565 0.813416 0.243699
v 0.022557 0.808609 0.238890
v 0.013334 0.806686 0.243476
v 0.016989 0.800400 0.243119
v 0.006655 0.798355 0.244471
v 0.007038 0.792587 0.234909
v 0.024339 0.805924 0.232975
v 0.017152 0.794701 0.234688
v 0.006880 0.799950 0.221895
v 0.023477 0.802841 0.224938
v 0.030209 0.812607 0.223400
v 0.020165 0.808983 0.210519
v 0.006852 0.805824 0.210922
v 0.033038 0.815689 0.212376
v 0.033271 0.826325 0.205488
v 0.038158 0.825684 0.209365
v 0.035521 0.844200 0.208285
v 0.038805 0.838661 0.211732
v 0.034975 0.821655 0.226278
v 0.035625 0.833702 0.236488
v 0.040502 0.851196 0.216833
v 0.043560 0.845612 0.205722
v 0.048505 0.860466 0.202255
v 0.037338 0.839104 0.243676
v 0.034302 0.844978 0.250072
v 0.038735 0.853088 0.239479
v 0.041129 0.862694 0.223915
v 0.051724 0.878975 0.212003
v 0.054137 0.881142 0.206369
v 0.035706 0.851418 0.246918
v 0.032828 0.848824 0.251683
v 0.033606 0.850304 0.256092
v 0.030854 0.848404 0.255056
v 0.005163 0.867271 0.273286
v -0.009716 0.871597 0.270630
v 0.005436 0.853508 0.271613
v -0.011100 0.856819 0.269069
v -0.020656 0.880051 0.260185
v -0.000758 0.843330 0.268760
v 0.005709 0.844688 0.269939
v 0.005685 0.843681 0.266810
v -0.021006 0.859345 0.259273
v -0.026735 0.870132 0.242644
v -0.026227 0.860962 0.241925
v -0.028900 0.857460 0.228830
v -0.019614 0.851868 0.261877
v -0.011002 0.847191 0.266939
v -0.023545 0.852821 0.256064
v 0.002152 0.842041 0.268166
v 0.003283 0.840538 0.266686
v 0.005746 0.840401 0.267310
v 0.006035 0.830505 0.267722
v -0.001641 0.842819 0.265438
v -0.010957 0.845398 0.265353
v -0.018763 0.848465 0.261027
v 0.000821 0.841858 0.266062
v 0.002767 0.830345 0.266361
v 0.005921 0.828606 0.267765
v -0.010367 0.845375 0.260419
v -0.004425 0.844353 0.260230
v -0.002259 0.841972 0.259399
v -0.016675 0.846886 0.257611
v -0.004555 0.842011 0.258188
v -0.004099 0.839500 0.258013
v -0.000542 0.840744 0.259786
v -0.001409 0.831070 0.258550
v -0.010338 0.841942 0.256747
v -0.002845 0.828941 0.257532
v -0.003301 0.826859 0.257707
v -0.016761 0.843475 0.253982
v 0.002425 0.828651 0.266492
v -0.002556 0.824944 0.257944
v -0.003045 0.826485 0.253947
v 0.002714 0.826218 0.266904
v 0.005921 0.825798 0.267765
v 0.006019 0.823906 0.265636
v 0.003556 0.824097 0.265012
v 0.006047 0.823547 0.261964
v -0.010627 0.837730 0.256335
v -0.019520 0.845543 0.251903
v -0.018075 0.839058 0.253964
v -0.019443 0.847397 0.254489
v -0.022292 0.849175 0.255582
v -0.021526 0.847733 0.251104
v -0.024477 0.850205 0.246484
v -0.022910 0.843826 0.249543
v -0.027391 0.851761 0.239234
v -0.028769 0.849800 0.216227
v -0.029913 0.861267 0.223466
v -0.019414 0.832336 0.250817
v -0.025360 0.837845 0.243162
v -0.036770 0.858749 0.201516
v -0.040808 0.877113 0.211434
v -0.043197 0.879181 0.205552
v -0.031198 0.844109 0.205130
v -0.026522 0.837349 0.211180
v -0.023304 0.832520 0.235573
v -0.011274 0.832108 0.253968
v -0.017008 0.825668 0.244140
v -0.017423 0.816139 0.234885
v -0.022237 0.820511 0.225749
v -0.004237 0.831551 0.254928
v -0.002809 0.829643 0.254903
v -0.010403 0.825554 0.248404
v -0.025285 0.824410 0.208613
v -0.023119 0.843018 0.207782
v -0.020225 0.825241 0.205102
v -0.005804 0.826584 0.251868
v -0.010366 0.819222 0.245774
v -0.016942 0.811653 0.223194
v -0.019660 0.814629 0.211685
v -0.006583 0.808449 0.210326
v -0.009730 0.802170 0.224609
v -0.002845 0.828941 0.257532
v -0.006679 0.820923 0.249589
v -0.004025 0.822624 0.252755
v -0.002642 0.824471 0.254316
v -0.010927 0.805214 0.232391
v 0.006880 0.799950 0.221895
v 0.006852 0.805824 0.210922
v -0.003312 0.794289 0.234175
v 0.007038 0.792587 0.234909
v -0.003589 0.799988 0.242650
v 0.006655 0.798355 0.244471
v 0.006602 0.806450 0.245014
v -0.009450 0.807968 0.238623
v -0.000154 0.806419 0.243423
v -0.001087 0.810730 0.248489
v 0.006536 0.809837 0.251316
v 0.006430 0.813400 0.252402
v -0.011721 0.814148 0.240541
v -0.006727 0.812889 0.243332
v -0.000220 0.814751 0.249725
v 0.006349 0.814690 0.256618
v -0.007607 0.815956 0.247853
v -0.009084 0.813896 0.241621
v -0.005405 0.814850 0.244393
v -0.000696 0.816368 0.254615
v 0.006288 0.817925 0.256118
v -0.000004 0.818909 0.255395
v 0.001151 0.822189 0.257044
v 0.006068 0.821991 0.257249
v -0.000900 0.823998 0.257831
v 0.003418 0.823998 0.261927
v -0.029913 0.861267 0.223466
v -0.032554 0.866661 0.214542
v -0.040808 0.877113 0.211434
v -0.043197 0.879181 0.205552
v -0.036770 0.858749 0.201516
v -0.029989 0.858376 0.206235
v -0.023119 0.843018 0.207782
v -0.031198 0.844109 0.205130
v -0.026522 0.837349 0.211180
v 0.038805 0.838661 0.211732
v 0.035521 0.844200 0.208285
v 0.043560 0.845612 0.205722
v 0.048505 0.860466 0.202255
v 0.041797 0.859818 0.206922
v 0.043860 0.868195 0.215021
v 0.054137 0.881142 0.206369
v 0.051724 0.878975 0.212003
v 0.041129 0.862694 0.223915
f 1 2 3
f 2 4 5
f 6 7 8
f 8 9 10
f 11 12 13
f 14 15 16
f 17 18 19
f 18 20 19
f 21 19 20
f 18 22 20
f 18 23 22
f 24 22 23
f 20 25 21
f 26 21 25
f 27 26 25
f 28 26 27
f 29 25 20
f 30 20 22
f 20 30 29
f 31 27 25
f 29 31 25
f 24 32 22
f 24 33 32
f 33 24 34
f 33 34 35
f 22 36 30
f 32 36 22
f 29 30 37
f 30 36 37
f 31 29 38
f 38 29 37
f 35 39 33
f 39 35 40
f 32 33 41
f 36 32 41
f 42 37 36
f 41 43 36
f 42 36 43
f 41 44 43
f 44 41 33
f 37 45 38
f 42 45 37
f 46 43 44
f 42 43 46
f 46 44 47
f 44 33 48
f 44 48 47
f 49 48 33
f 48 49 47
f 49 33 39
f 50 42 46
f 46 47 50
f 49 39 51
f 39 52 51
f 42 50 53
f 53 45 42
f 52 39 54
f 40 54 39
f 54 55 52
f 55 56 52
f 40 57 54
f 55 54 57
f 57 40 58
f 57 58 59
f 59 60 57
f 57 60 55
f 60 59 61
f 53 50 62
f 62 50 47
f 63 55 60
f 61 64 60
f 63 60 64
f 61 65 64
f 64 65 63
f 65 61 66
f 67 65 66
f 55 63 68
f 63 65 68
f 68 56 55
f 65 67 69
f 68 65 69
f 70 56 68
f 68 69 70
f 71 69 67
f 67 72 71
f 70 69 73
f 73 69 71
f 56 70 74
f 70 73 74
f 75 71 72
f 75 72 76
f 77 56 74
f 56 77 78
f 77 74 79
f 49 77 79
f 47 49 79
f 74 80 79
f 74 73 80
f 79 81 47
f 81 79 80
f 47 81 62
f 82 73 71
f 82 71 75
f 83 75 76
f 76 84 83
f 83 84 85
f 86 62 81
f 81 80 86
f 80 73 87
f 87 73 82
f 88 82 75
f 83 88 75
f 62 86 89
f 62 89 53
f 53 89 90
f 53 90 45
f 91 86 80
f 91 80 87
f 87 92 91
f 93 87 82
f 92 87 93
f 88 94 82
f 82 94 93
f 88 83 95
f 88 95 94
f 93 94 96
f 95 96 94
f 96 92 93
f 95 83 97
f 97 96 95
f 85 97 83
f 85 98 97
f 96 97 98
f 98 85 99
f 98 99 100
f 96 98 101
f 92 96 101
f 100 102 98
f 101 98 102
f 100 103 102
f 102 104 101
f 104 102 103
f 105 92 101
f 105 101 104
f 103 106 104
f 106 103 107
f 106 108 104
f 104 108 105
f 109 108 106
f 108 109 110
f 110 105 108
f 111 110 109
f 110 111 112
f 105 110 113
f 113 92 105
f 112 113 110
f 113 114 92
f 114 113 112
f 115 114 112
f 115 112 116
f 91 92 114
f 116 117 115
f 114 118 91
f 118 114 115
f 91 118 86
f 118 119 86
f 119 89 86
f 119 90 89
f 120 118 115
f 118 120 119
f 115 117 121
f 121 117 122
f 123 122 117
f 115 121 28
f 28 120 115
f 27 120 28
f 120 27 124
f 124 119 120
f 124 27 31
f 119 125 90
f 125 119 124
f 124 31 126
f 126 125 124
f 126 31 38
f 127 90 125
f 126 127 125
f 126 38 127
f 90 127 45
f 38 45 127
f 128 129 130
f 130 129 131
f 132 131 129
f 130 131 133
f 130 133 134
f 135 134 133
f 131 132 136
f 137 136 132
f 138 136 137
f 139 138 137
f 140 131 136
f 141 133 131
f 131 140 141
f 142 136 138
f 140 136 142
f 135 133 143
f 135 143 144
f 144 145 135
f 144 146 145
f 133 141 147
f 143 133 147
f 140 148 141
f 141 148 147
f 142 149 140
f 149 148 140
f 143 150 144
f 147 150 143
f 146 144 151
f 151 152 146
f 153 147 148
f 150 147 154
f 153 154 147
f 150 154 155
f 155 144 150
f 148 149 156
f 153 148 156
f 153 157 154
f 157 155 154
f 157 158 155
f 155 159 144
f 155 158 159
f 160 144 159
f 160 151 144
f 159 158 160
f 161 157 153
f 157 161 158
f 160 162 151
f 151 162 163
f 153 164 161
f 164 153 156
f 163 165 151
f 152 151 165
f 165 163 166
f 166 163 167
f 152 165 168
f 166 168 165
f 168 169 152
f 168 170 169
f 170 168 171
f 168 166 171
f 171 172 170
f 164 173 161
f 173 158 161
f 164 156 174
f 173 164 175
f 164 174 175
f 174 156 176
f 149 176 156
f 177 176 149
f 177 149 142
f 176 178 174
f 177 178 176
f 179 177 142
f 177 179 178
f 179 142 138
f 180 174 178
f 180 175 174
f 178 179 180
f 181 179 138
f 179 181 180
f 138 139 181
f 139 182 181
f 182 139 183
f 180 184 175
f 173 175 184
f 185 180 181
f 181 182 185
f 185 184 180
f 182 183 186
f 183 187 186
f 188 186 187
f 189 182 186
f 182 189 190
f 185 182 191
f 182 190 191
f 184 192 173
f 158 173 192
f 193 184 185
f 191 193 185
f 193 191 194
f 191 190 195
f 195 194 191
f 196 158 192
f 158 196 160
f 160 196 197
f 192 184 198
f 193 198 184
f 192 198 196
f 190 199 195
f 199 190 200
f 200 201 199
f 197 196 202
f 202 196 198
f 193 203 198
f 203 193 194
f 204 195 199
f 195 204 194
f 205 199 201
f 199 205 204
f 201 206 205
f 207 204 205
f 206 207 205
f 197 202 167
f 167 208 197
f 202 198 209
f 198 203 209
f 167 202 210
f 210 202 209
f 210 211 167
f 211 166 167
f 204 207 212
f 204 212 194
f 213 207 206
f 206 214 213
f 207 213 215
f 215 212 207
f 216 215 213
f 216 217 215
f 212 215 217
f 217 216 218
f 217 218 219
f 194 212 220
f 220 212 217
f 219 221 217
f 220 217 221
f 219 222 221
f 222 219 223
f 224 222 223
f 220 225 194
f 194 225 203
f 221 226 220
f 226 221 222
f 222 224 227
f 227 224 228
f 225 229 203
f 203 229 209
f 225 220 230
f 226 230 220
f 229 225 230
f 231 226 222
f 231 230 226
f 222 227 231
f 231 229 230
f 231 227 229
f 227 228 232
f 229 227 232
f 229 232 209
f 233 232 228
f 209 232 234
f 232 233 234
f 210 209 234
f 211 210 234
f 235 234 233
f 211 234 235
f 233 236 235
f 235 236 172
f 237 211 235
f 166 211 237
f 237 171 166
f 172 238 235
f 238 237 235
f 237 238 171
f 172 171 238
f 239 240 241
f 241 240 242
f 243 242 240
f 240 244 243
f 244 245 243
f 243 245 246
f 247 246 245
f 248 249 250
f 251 250 249
f 252 251 249
f 253 251 252
f 251 253 254
f 255 254 253
f 256 255 253
