v 0.030733 0.001144 0.172989
v 0.061670 0.000839 0.160590
v 0.093065 0.001610 0.170505
v 0.023946 0.002563 0.204360
v 0.110239 0.003326 0.203663
v 0.033733 0.004128 0.235646
v 0.113977 0.004868 0.236224
v 0.014617 0.006577 0.291101
v 0.126957 0.007484 0.288773
v 0.027853 0.009651 0.354536
v 0.111904 0.009628 0.337440
v 0.068683 0.010178 0.357692
v -0.055046 0.203690 -0.276309
v -0.099967 0.217979 -0.269002
v -0.014741 0.210571 -0.274521
v -0.119479 0.261017 -0.250006
v -0.007343 0.269463 -0.249117
v -0.111719 0.310631 -0.229449
v -0.031809 0.318596 -0.227696
v -0.111105 0.340378 -0.216609
v -0.025025 0.348114 -0.215133
v -0.097056 0.372315 -0.203173
v -0.034761 0.376289 -0.203027
v -0.066674 0.384766 -0.198622
v -0.094119 0.320869 0.035766
v -0.100879 0.274635 0.026331
v -0.083414 0.236275 0.015966
v -0.052430 0.338173 0.039115
v -0.045628 0.217377 0.009829
v -0.009038 0.237297 0.011475
v -0.005466 0.324661 0.029978
v 0.004697 0.283730 0.021370
v -0.009038 0.237297 0.011475
v 0.019202 0.290039 -0.031793
v 0.004697 0.283730 0.021370
v 0.003142 0.239433 -0.039227
v -0.045628 0.217377 0.009829
v -0.048494 0.215195 -0.042942
v -0.083414 0.236275 0.015966
v -0.101758 0.231819 -0.035571
v -0.100879 0.274635 0.026331
v -0.122134 0.287842 -0.024611
v -0.094119 0.320869 0.035766
v -0.110998 0.343124 -0.018425
v -0.052430 0.338173 0.039115
v -0.055215 0.371483 -0.017872
v -0.005466 0.324661 0.029978
v -0.002215 0.350967 -0.022526
v 0.019202 0.290039 -0.031793
v 0.004697 0.283730 0.021370
v 0.030745 0.255402 0.248299
v 0.014378 0.258690 0.201234
v -0.005590 0.207253 0.205760
v 0.013431 0.206986 0.255991
v 0.068314 0.253449 0.265782
v 0.066063 0.202057 0.277629
v 0.104892 0.251999 0.243895
v 0.118424 0.200363 0.257007
v 0.120466 0.253548 0.203398
v 0.135518 0.198845 0.198666
v 0.111190 0.255112 0.156749
v 0.120979 0.196335 0.144100
v 0.069009 0.259773 0.141559
v 0.063520 0.197815 0.119084
v 0.022337 0.258751 0.158952
v 0.012155 0.202766 0.142986
v -0.005590 0.207253 0.205760
v 0.014378 0.258690 0.201234
v 0.111190 0.255112 0.156749
v 0.104892 0.251999 0.243895
v 0.120466 0.253548 0.203398
v 0.069009 0.259773 0.141559
v 0.068314 0.253449 0.265782
v 0.030745 0.255402 0.248299
v 0.022337 0.258751 0.158952
v 0.014378 0.258690 0.201234
v 0.030749 0.217773 0.241498
v 0.013914 0.220474 0.200366
v -0.007478 0.143173 0.198117
v 0.014217 0.148285 0.246798
v 0.066259 0.215332 0.258725
v 0.061895 0.147675 0.270861
v 0.101852 0.215271 0.242447
v 0.107379 0.140739 0.247648
v 0.119478 0.216255 0.201162
v 0.131863 0.132599 0.199023
v 0.098870 0.217026 0.152587
v 0.107910 0.125626 0.146501
v 0.063270 0.217987 0.138532
v 0.060271 0.124680 0.127654
v 0.025935 0.218536 0.151294
v 0.014499 0.133499 0.150454
v -0.007478 0.143173 0.198117
v 0.013914 0.220474 0.200366
v -0.013660 0.250206 -0.024409
v 0.013528 0.308914 -0.092900
v 0.000866 0.291405 -0.015863
v -0.004718 0.258659 -0.094788
v -0.048137 0.231201 -0.026342
v -0.050668 0.231583 -0.094932
v -0.084319 0.244804 -0.019775
v -0.097803 0.252480 -0.093052
v -0.104072 0.283760 -0.009578
v -0.125667 0.299744 -0.089679
v -0.086180 0.332848 -0.001801
v -0.105834 0.354080 -0.089447
v -0.051606 0.348999 -0.001997
v -0.059558 0.376564 -0.091520
v -0.013872 0.339043 -0.007591
v -0.011837 0.355911 -0.091532
v 0.013528 0.308914 -0.092900
v 0.000866 0.291405 -0.015863
v 0.118424 0.200363 0.257007
v 0.066063 0.202057 0.277629
v 0.013431 0.206986 0.255991
v -0.005590 0.207253 0.205760
v 0.135518 0.198845 0.198666
v 0.012155 0.202766 0.142986
v 0.120979 0.196335 0.144100
v 0.063520 0.197815 0.119084
v -0.101758 0.231819 -0.035571
v 0.003142 0.239433 -0.039227
v -0.048494 0.215195 -0.042942
v 0.019202 0.290039 -0.031793
v -0.122134 0.287842 -0.024611
v -0.002215 0.350967 -0.022526
v -0.110998 0.343124 -0.018425
v -0.055215 0.371483 -0.017872
v -0.009998 0.359116 -0.141925
v -0.004497 0.300385 -0.044140
v 0.011756 0.314034 -0.144522
v -0.024546 0.331993 -0.035397
v -0.059368 0.375237 -0.140757
v -0.057485 0.344803 -0.030599
v -0.107149 0.352791 -0.141244
v -0.088071 0.327156 -0.031933
v -0.125265 0.304817 -0.141089
v -0.099170 0.289627 -0.040749
v -0.103478 0.256004 -0.139515
v -0.087077 0.256599 -0.051144
v -0.054675 0.232811 -0.132620
v -0.051183 0.244896 -0.058123
v -0.008318 0.262047 -0.138909
v -0.016829 0.261940 -0.057189
v 0.011756 0.314034 -0.144522
v -0.004497 0.300385 -0.044140
v 0.029850 0.183159 0.236090
v 0.015941 0.190468 0.196449
v -0.011214 0.091934 0.202689
v 0.013223 0.104340 0.251364
v 0.065230 0.181297 0.251275
v 0.061997 0.110268 0.276575
v 0.100489 0.182060 0.236171
v 0.108042 0.093964 0.252101
v 0.111020 0.185249 0.201271
v 0.125953 0.081482 0.203384
v 0.098153 0.188339 0.163322
v 0.104222 0.075081 0.157332
v 0.066656 0.189842 0.147693
v 0.055322 0.076485 0.137922
v 0.034368 0.191071 0.162702
v 0.007229 0.084084 0.156383
v 0.015941 0.190468 0.196449
v -0.011214 0.091934 0.202689
v 0.098772 0.141373 0.235785
v 0.063793 0.140526 0.250258
v 0.062883 0.084114 0.287741
v 0.108249 0.061508 0.256728
v 0.113055 0.144341 0.198397
v 0.125041 0.035858 0.203734
v 0.099301 0.147636 0.163928
v 0.098462 0.016991 0.159019
v 0.065244 0.149262 0.149804
v 0.049062 0.018524 0.141371
v 0.028877 0.142304 0.235940
v 0.062883 0.084114 0.287741
v 0.063793 0.140526 0.250258
v 0.014928 0.064774 0.257509
v 0.016527 0.146034 0.198317
v -0.010970 0.037399 0.204688
v 0.030204 0.148369 0.163777
v 0.003249 0.025520 0.158957
v 0.065244 0.149262 0.149804
v 0.049062 0.018524 0.141371
v -0.090074 0.264465 -0.091312
v -0.055703 0.230751 -0.169360
v -0.054523 0.253044 -0.098160
v -0.104933 0.261978 -0.179752
v -0.105875 0.299477 -0.080016
v -0.127391 0.318024 -0.186822
v -0.093751 0.333771 -0.071595
v -0.106422 0.365494 -0.194871
v -0.060483 0.350143 -0.070767
v -0.058107 0.386612 -0.191973
v -0.020510 0.269432 -0.097094
v -0.054523 0.253044 -0.098160
v -0.055703 0.230751 -0.169360
v -0.011323 0.269669 -0.180120
v -0.009981 0.306740 -0.088060
v 0.008771 0.329979 -0.190448
v -0.025106 0.339012 -0.078070
v -0.010850 0.372284 -0.192854
v -0.060483 0.350143 -0.070767
v -0.058107 0.386612 -0.191973
v 0.045698 0.116242 0.179274
v 0.079984 0.111954 0.178665
v 0.059508 0.077789 0.169265
v 0.081775 0.078049 0.173793
v 0.060656 0.040520 0.155226
v 0.101594 0.077911 0.209073
v 0.097064 0.110130 0.207151
v 0.091885 0.039948 0.165728
v 0.061670 0.000839 0.160590
v 0.093065 0.001610 0.170505
v 0.114341 0.037079 0.202088
v 0.110239 0.003326 0.203663
v 0.116142 0.035912 0.235393
v 0.113977 0.004868 0.236224
v 0.086093 0.078934 0.244313
v 0.078588 0.115486 0.234641
v 0.123058 0.034081 0.287132
v 0.126957 0.007484 0.288773
v 0.063988 0.085732 0.260643
v 0.049341 0.119820 0.236453
v 0.066619 0.055611 0.297814
v 0.105741 0.050514 0.286980
v 0.110830 0.031609 0.331576
v 0.111904 0.009628 0.337440
v 0.068802 0.040680 0.350847
v 0.068683 0.010178 0.357692
v -0.043305 0.328095 -0.110834
v -0.062526 0.343247 -0.135360
v -0.077599 0.327217 -0.111268
v -0.084313 0.336922 -0.136934
v -0.065463 0.371864 -0.160383
v -0.100755 0.302589 -0.149451
v -0.093300 0.298210 -0.116747
v -0.095573 0.360046 -0.166608
v -0.066674 0.384766 -0.198622
v -0.097056 0.372315 -0.203173
v -0.114579 0.326752 -0.185463
v -0.111105 0.340378 -0.216609
v -0.113271 0.297356 -0.201133
v -0.111719 0.310631 -0.229449
v -0.082280 0.271393 -0.162296
v -0.072853 0.271568 -0.118320
v -0.115000 0.251473 -0.225051
v -0.119479 0.261017 -0.250006
v -0.058678 0.255882 -0.162465
v -0.043125 0.271446 -0.117179
v -0.057614 0.237305 -0.209422
v -0.097683 0.245583 -0.210255
v -0.099052 0.213783 -0.246864
v -0.099967 0.217979 -0.269002
v -0.055153 0.196442 -0.245932
v -0.055046 0.203690 -0.276309
v 0.027853 0.009651 0.354536
v 0.068683 0.010178 0.357692
v 0.068802 0.040680 0.350847
v 0.030829 0.043152 0.347641
v 0.014617 0.006577 0.291101
v 0.066619 0.055611 0.297814
v 0.017816 0.037743 0.290919
v 0.033733 0.004128 0.235646
v 0.035598 0.047890 0.291939
v 0.022129 0.035240 0.235393
v 0.023946 0.002563 0.204360
v 0.040676 0.081215 0.246579
v 0.063988 0.085732 0.260643
v 0.049341 0.119820 0.236453
v 0.031606 0.120087 0.204558
v 0.024715 0.078613 0.207726
v 0.045698 0.116242 0.179274
v 0.015648 0.038506 0.202838
v 0.030733 0.001144 0.172989
v 0.030123 0.038269 0.167993
v 0.061670 0.000839 0.160590
v 0.060656 0.040520 0.155226
v 0.038356 0.078072 0.175816
v 0.059508 0.077789 0.169265
v -0.014741 0.210571 -0.274521
v -0.055153 0.196442 -0.245932
v -0.055046 0.203690 -0.276309
v -0.017742 0.201569 -0.241464
v -0.007343 0.269463 -0.249117
v -0.057614 0.237305 -0.209422
v -0.010043 0.255745 -0.221407
v -0.031809 0.318596 -0.227696
v -0.027349 0.248985 -0.212672
v -0.019759 0.306030 -0.199371
v -0.025025 0.348114 -0.215133
v -0.036786 0.273033 -0.161977
v -0.058678 0.255882 -0.162465
v -0.043125 0.271446 -0.117179
v -0.027318 0.304108 -0.112787
v -0.024015 0.310959 -0.151189
v -0.043305 0.328095 -0.110834
v -0.016484 0.334251 -0.182323
v -0.034761 0.376289 -0.203027
v -0.033855 0.364311 -0.167286
v -0.066674 0.384766 -0.198622
v -0.065463 0.371864 -0.160383
v -0.040711 0.339172 -0.137458
v -0.062526 0.343247 -0.135360
f 1 2 3
f 4 1 3
f 4 3 5
f 6 4 5
f 6 5 7
f 8 6 7
f 8 7 9
f 10 8 9
f 11 10 9
f 12 10 11
f 13 14 15
f 14 16 15
f 15 16 17
f 17 16 18
f 17 18 19
f 19 18 20
f 19 20 21
f 21 20 22
f 21 22 23
f 23 22 24
f 25 26 27
f 28 25 27
f 28 27 29
f 28 29 30
f 28 30 31
f 31 30 32
f 33 34 35
f 33 36 34
f 37 36 33
f 37 38 36
f 39 38 37
f 39 40 38
f 41 40 39
f 41 42 40
f 43 42 41
f 43 44 42
f 45 44 43
f 45 46 44
f 47 46 45
f 47 48 46
f 47 49 48
f 50 49 47
f 51 52 53
f 51 53 54
f 55 51 54
f 55 54 56
f 57 55 56
f 57 56 58
f 59 57 58
f 59 58 60
f 61 59 60
f 61 60 62
f 63 61 62
f 63 62 64
f 65 63 64
f 65 64 66
f 65 66 67
f 68 65 67
f 69 70 71
f 72 70 69
f 72 73 70
f 72 74 73
f 72 75 74
f 75 76 74
f 77 78 79
f 79 80 77
f 81 77 80
f 80 82 81
f 83 81 82
f 82 84 83
f 85 83 84
f 84 86 85
f 87 85 86
f 86 88 87
f 89 87 88
f 88 90 89
f 91 89 90
f 90 92 91
f 92 93 91
f 94 91 93
f 95 96 97
f 96 95 98
f 99 98 95
f 98 99 100
f 101 100 99
f 100 101 102
f 103 102 101
f 102 103 104
f 105 104 103
f 104 105 106
f 107 106 105
f 106 107 108
f 109 108 107
f 108 109 110
f 110 109 111
f 112 111 109
f 113 114 115
f 113 115 116
f 113 116 117
f 118 117 116
f 118 119 117
f 118 120 119
f 121 122 123
f 121 124 122
f 121 125 124
f 126 124 125
f 126 125 127
f 126 127 128
f 129 130 131
f 130 129 132
f 133 132 129
f 132 133 134
f 135 134 133
f 134 135 136
f 137 136 135
f 136 137 138
f 139 138 137
f 138 139 140
f 141 140 139
f 140 141 142
f 143 142 141
f 142 143 144
f 145 144 143
f 144 145 146
f 147 148 149
f 149 150 147
f 151 147 150
f 150 152 151
f 153 151 152
f 152 154 153
f 155 153 154
f 154 156 155
f 157 155 156
f 156 158 157
f 159 157 158
f 158 160 159
f 161 159 160
f 160 162 161
f 163 161 162
f 162 164 163
f 165 166 167
f 167 168 165
f 169 165 168
f 168 170 169
f 171 169 170
f 170 172 171
f 173 171 172
f 172 174 173
f 175 176 177
f 176 175 178
f 179 178 175
f 178 179 180
f 181 180 179
f 180 181 182
f 183 182 181
f 182 183 184
f 185 186 187
f 186 185 188
f 189 188 185
f 188 189 190
f 191 190 189
f 190 191 192
f 193 192 191
f 192 193 194
f 195 196 197
f 197 198 195
f 199 195 198
f 198 200 199
f 201 199 200
f 200 202 201
f 203 201 202
f 202 204 203
f 205 206 207
f 207 206 208
f 207 208 209
f 206 210 208
f 206 211 210
f 209 208 212
f 212 208 210
f 209 212 213
f 213 212 214
f 214 212 215
f 212 210 215
f 214 215 216
f 216 215 217
f 215 210 217
f 216 217 218
f 211 219 210
f 217 210 219
f 211 220 219
f 217 221 218
f 218 221 222
f 220 223 219
f 220 224 223
f 219 223 225
f 219 226 217
f 217 226 221
f 219 225 226
f 222 221 227
f 226 227 221
f 226 225 227
f 222 227 228
f 225 229 227
f 228 227 229
f 228 229 230
f 231 232 233
f 232 234 233
f 232 235 234
f 233 234 236
f 233 236 237
f 235 238 234
f 238 236 234
f 235 239 238
f 239 240 238
f 240 241 238
f 238 241 236
f 240 242 241
f 242 243 241
f 241 243 236
f 242 244 243
f 237 236 245
f 243 245 236
f 237 245 246
f 243 244 247
f 244 248 247
f 246 245 249
f 246 249 250
f 245 251 249
f 245 243 252
f 243 247 252
f 245 252 251
f 248 253 247
f 252 247 253
f 252 253 251
f 248 254 253
f 251 253 255
f 254 255 253
f 254 256 255
f 257 258 259
f 257 259 260
f 261 257 260
f 260 259 262
f 261 260 263
f 264 261 263
f 265 260 262
f 265 263 260
f 266 264 263
f 266 263 265
f 267 264 266
f 268 265 262
f 268 266 265
f 268 262 269
f 270 268 269
f 271 268 270
f 271 272 268
f 266 268 272
f 273 272 271
f 267 266 274
f 274 266 272
f 275 267 274
f 275 274 276
f 276 274 272
f 277 275 276
f 278 277 276
f 273 279 272
f 276 272 279
f 278 276 279
f 280 279 273
f 280 278 279
f 281 282 283
f 281 284 282
f 285 284 281
f 284 286 282
f 285 287 284
f 288 287 285
f 289 286 284
f 289 284 287
f 290 287 288
f 290 289 287
f 291 290 288
f 292 286 289
f 292 289 290
f 292 293 286
f 294 293 292
f 295 294 292
f 295 292 296
f 290 296 292
f 297 295 296
f 291 298 290
f 298 296 290
f 299 298 291
f 299 300 298
f 300 296 298
f 301 300 299
f 302 300 301
f 297 296 303
f 300 303 296
f 302 303 300
f 304 297 303
f 304 303 302
