v -0.085564 0.335766 0.011901
v -0.050636 0.346563 0.008286
v -0.055024 0.351328 -0.031140
v -0.086825 0.340514 -0.028644
v -0.104747 0.307703 0.011262
v -0.076523 0.339770 -0.057950
v -0.039915 0.337966 -0.061164
v -0.102278 0.316718 -0.033712
v -0.090057 0.304404 -0.068922
v -0.076116 0.343068 -0.114823
v -0.049648 0.345822 -0.116007
v -0.090998 0.284773 -0.041754
v -0.088679 0.267381 0.004137
v -0.069710 0.245493 -0.001154
v -0.081439 0.355140 -0.136414
v -0.049453 0.357251 -0.135973
v -0.047368 0.380076 -0.158755
v -0.087227 0.377543 -0.159099
v -0.048829 0.390948 -0.192220
v -0.088549 0.388167 -0.192454
v -0.107092 0.342793 -0.177207
v -0.106862 0.355364 -0.206182
v -0.096617 0.318427 -0.157796
v -0.103858 0.304366 -0.195246
v -0.085785 0.287593 -0.156136
v -0.101594 0.322732 -0.220411
v -0.097273 0.313704 -0.140696
v -0.110484 0.254902 -0.218313
v -0.112039 0.265867 -0.244710
v -0.085233 0.311678 -0.117990
v -0.098299 0.222681 -0.231357
v -0.099158 0.230717 -0.258878
v -0.075338 0.285375 -0.122056
v -0.091314 0.249142 -0.202684
v -0.059279 0.205835 -0.232440
v -0.060263 0.214306 -0.267007
v -0.062380 0.247769 -0.195808
v -0.060474 0.271393 -0.156495
v -0.060179 0.276526 -0.122680
v -0.073132 0.271116 -0.068964
v -0.055823 0.262229 -0.068189
v -0.047184 0.237652 -0.005260
v 0.096422 0.231497 0.145654
v 0.060691 0.190042 0.139980
v 0.060600 0.229929 0.137657
v 0.093301 0.190866 0.148374
v 0.117486 0.233706 0.172251
v 0.080229 0.163481 0.155059
v 0.043719 0.164719 0.159447
v 0.109907 0.188403 0.171804
v 0.095208 0.157502 0.191034
v 0.073942 0.107323 0.162293
v 0.047356 0.108615 0.161274
v 0.100298 0.187438 0.205257
v 0.103842 0.235650 0.214024
v 0.086127 0.236451 0.237528
v 0.074459 0.072290 0.155406
v 0.042513 0.072920 0.156238
v 0.038859 0.039811 0.147152
v 0.078780 0.039911 0.145881
v 0.040157 0.004955 0.152011
v 0.079959 0.005264 0.150925
v 0.102162 0.038583 0.183051
v 0.101512 0.007041 0.184574
v 0.092339 0.066855 0.194617
v 0.102880 0.039344 0.225611
v 0.084810 0.079876 0.224686
v 0.099584 0.008711 0.220470
v 0.094067 0.084583 0.193656
v 0.114541 0.040270 0.279331
v 0.115750 0.011718 0.280992
v 0.085016 0.108764 0.193177
v 0.105661 0.042946 0.314979
v 0.106471 0.014685 0.319815
v 0.076755 0.110537 0.220287
v 0.095591 0.057177 0.279381
v 0.068371 0.050074 0.334114
v 0.069440 0.015293 0.341647
v 0.066740 0.064467 0.280261
v 0.061240 0.086558 0.242287
v 0.062311 0.113172 0.229925
v 0.080890 0.165225 0.224649
v 0.064454 0.169475 0.234188
v 0.063951 0.236321 0.247226
v -0.055823 0.262229 -0.068189
v -0.027063 0.250188 -0.006585
v -0.047184 0.237652 -0.005260
v -0.037168 0.271856 -0.069008
v -0.041805 0.285678 -0.122931
v -0.060179 0.276526 -0.122680
v -0.060474 0.271393 -0.156495
v -0.024040 0.301887 -0.069217
v -0.032805 0.317472 -0.118516
v -0.015713 0.280309 -0.038366
v -0.010668 0.272945 -0.006160
v -0.002629 0.314055 -0.002362
v -0.009632 0.324315 -0.038614
v -0.014672 0.336858 0.002067
v -0.036875 0.290137 -0.157801
v -0.026077 0.321858 -0.140314
v -0.049648 0.345822 -0.116007
v -0.039915 0.337966 -0.061164
v -0.049453 0.357251 -0.135973
v -0.023923 0.342173 -0.035861
v -0.055024 0.351328 -0.031140
v -0.050636 0.346563 0.008286
v -0.028897 0.324710 -0.153977
v -0.047368 0.380076 -0.158755
v -0.030612 0.345436 -0.175602
v -0.048829 0.390948 -0.192220
v -0.037859 0.358449 -0.206530
v -0.041451 0.327330 -0.219890
v -0.032771 0.313554 -0.189387
v -0.020389 0.260219 -0.220056
v -0.019221 0.271108 -0.244725
v -0.025074 0.217319 -0.267695
v -0.034952 0.252826 -0.204410
v -0.062380 0.247769 -0.195808
v -0.059279 0.205835 -0.232440
v -0.027346 0.206156 -0.235468
v -0.060263 0.214306 -0.267007
v 0.060600 0.229929 0.137657
v 0.060691 0.190042 0.139980
v 0.025020 0.229553 0.150316
v 0.030045 0.190495 0.151555
v 0.043719 0.164719 0.159447
v 0.016922 0.192546 0.170379
v 0.014331 0.230591 0.174176
v 0.029858 0.164984 0.197215
v 0.047356 0.108615 0.161274
v 0.026262 0.199894 0.213185
v 0.024996 0.233252 0.214776
v 0.042920 0.235041 0.236280
v 0.032507 0.113043 0.190491
v 0.045145 0.169041 0.225923
v 0.022886 0.086946 0.191761
v 0.042513 0.072920 0.156238
v 0.064454 0.169475 0.234188
v 0.063951 0.236321 0.247226
v 0.043370 0.113348 0.222007
v 0.062311 0.113172 0.229925
v 0.061240 0.086558 0.242287
v 0.024899 0.072856 0.193127
v 0.038859 0.039811 0.147152
v 0.036100 0.079804 0.227273
v 0.025742 0.040216 0.187056
v 0.040157 0.004955 0.152011
v 0.032543 0.006594 0.188351
v 0.039278 0.008222 0.221695
v 0.031129 0.041823 0.221401
v 0.024407 0.037962 0.283678
v 0.022868 0.011043 0.284898
v 0.034151 0.013973 0.342511
v 0.039188 0.055004 0.282060
v 0.066740 0.064467 0.280261
v 0.068371 0.050074 0.334114
v 0.036626 0.047780 0.338111
v 0.069440 0.015293 0.341647
v -0.099158 0.230717 -0.258878
v -0.025074 0.217319 -0.267695
v -0.060263 0.214306 -0.267007
v -0.019221 0.271108 -0.244725
v -0.112039 0.265867 -0.244710
v -0.101594 0.322732 -0.220411
v -0.041451 0.327330 -0.219890
v -0.106862 0.355364 -0.206182
v -0.037859 0.358449 -0.206530
v -0.088549 0.388167 -0.192454
v -0.048829 0.390948 -0.192220
v 0.032543 0.006594 0.188351
v 0.040157 0.004955 0.152011
v 0.079959 0.005264 0.150925
v 0.101512 0.007041 0.184574
v 0.039278 0.008222 0.221695
v 0.099584 0.008711 0.220470
v 0.022868 0.011043 0.284898
v 0.115750 0.011718 0.280992
v 0.106471 0.014685 0.319815
v 0.034151 0.013973 0.342511
v 0.069440 0.015293 0.341647
f 1 2 3
f 4 1 3
f 1 4 5
f 3 6 4
f 7 6 3
f 5 4 8
f 8 4 6
f 8 6 9
f 6 7 10
f 9 6 10
f 11 10 7
f 8 12 5
f 8 9 12
f 12 13 5
f 12 14 13
f 9 14 12
f 11 15 10
f 16 15 11
f 17 15 16
f 17 18 15
f 19 18 17
f 19 20 18
f 20 21 18
f 20 22 21
f 18 23 15
f 18 21 23
f 22 24 21
f 21 24 23
f 24 25 23
f 22 26 24
f 23 27 15
f 10 15 27
f 23 25 27
f 26 28 24
f 28 25 24
f 26 29 28
f 10 27 30
f 30 27 25
f 10 30 9
f 29 31 28
f 29 32 31
f 33 9 30
f 30 25 33
f 34 28 31
f 25 28 34
f 32 35 31
f 34 31 35
f 32 36 35
f 34 35 37
f 34 37 38
f 25 34 38
f 33 25 38
f 33 38 39
f 40 9 33
f 33 39 40
f 9 40 14
f 39 41 40
f 40 41 14
f 41 42 14
f 43 44 45
f 46 44 43
f 43 47 46
f 44 46 48
f 49 44 48
f 47 50 46
f 50 48 46
f 50 51 48
f 48 52 49
f 51 52 48
f 53 49 52
f 50 47 54
f 50 54 51
f 54 47 55
f 54 55 56
f 51 54 56
f 53 52 57
f 58 53 57
f 59 58 57
f 59 57 60
f 61 59 60
f 61 60 62
f 62 60 63
f 62 63 64
f 60 57 65
f 60 65 63
f 64 63 66
f 63 65 66
f 66 65 67
f 64 66 68
f 65 57 69
f 52 69 57
f 65 69 67
f 68 66 70
f 70 66 67
f 68 70 71
f 52 72 69
f 72 67 69
f 52 51 72
f 71 70 73
f 71 73 74
f 75 72 51
f 72 75 67
f 76 73 70
f 67 76 70
f 74 73 77
f 76 77 73
f 74 77 78
f 76 79 77
f 76 80 79
f 67 80 76
f 75 80 67
f 75 81 80
f 82 75 51
f 75 82 81
f 51 56 82
f 81 82 83
f 82 56 83
f 83 56 84
f 85 86 87
f 88 86 85
f 88 85 89
f 85 90 89
f 90 91 89
f 88 92 86
f 89 93 88
f 88 93 92
f 92 94 86
f 94 95 86
f 96 95 94
f 96 94 97
f 94 92 97
f 98 96 97
f 91 99 89
f 89 100 93
f 89 99 100
f 101 92 93
f 93 100 101
f 102 92 101
f 92 102 97
f 100 103 101
f 97 102 104
f 104 98 97
f 102 105 104
f 105 98 104
f 106 98 105
f 107 103 100
f 99 107 100
f 108 103 107
f 109 108 107
f 110 108 109
f 111 110 109
f 111 109 112
f 113 109 107
f 109 113 112
f 113 107 99
f 113 114 112
f 114 113 99
f 112 114 115
f 116 115 114
f 117 114 99
f 91 117 99
f 118 117 91
f 118 119 117
f 116 114 120
f 120 114 117
f 119 120 117
f 121 116 120
f 121 120 119
f 122 123 124
f 123 125 124
f 126 125 123
f 125 127 124
f 127 125 126
f 124 127 128
f 129 127 126
f 126 130 129
f 128 127 131
f 131 127 129
f 128 131 132
f 131 133 132
f 129 133 131
f 130 134 129
f 135 133 129
f 135 129 134
f 134 130 136
f 136 130 137
f 135 138 133
f 138 139 133
f 140 135 134
f 135 140 138
f 140 134 136
f 138 140 141
f 141 140 142
f 143 136 137
f 144 143 137
f 140 136 145
f 142 140 145
f 145 136 143
f 146 143 144
f 147 146 144
f 148 146 147
f 148 149 146
f 150 143 146
f 146 149 150
f 150 145 143
f 150 149 151
f 151 145 150
f 149 152 151
f 153 151 152
f 142 145 154
f 154 145 151
f 155 142 154
f 155 154 156
f 153 157 151
f 157 154 151
f 156 154 157
f 158 157 153
f 158 156 157
f 159 160 161
f 159 162 160
f 159 163 162
f 162 163 164
f 162 164 165
f 164 166 165
f 165 166 167
f 167 166 168
f 167 168 169
f 170 171 172
f 170 172 173
f 174 170 173
f 175 174 173
f 176 174 175
f 176 175 177
f 178 176 177
f 178 179 176
f 178 180 179
