v 0.049769 0.869957 -0.052062
v 0.051652 0.861237 -0.037617
v 0.046426 0.858467 -0.033519
v 0.045055 0.867661 -0.040838
v 0.048451 0.890511 -0.059924
v 0.045442 0.879135 -0.042556
v 0.048764 0.894028 -0.056383
v 0.051180 0.887093 -0.039528
v 0.050606 0.881661 -0.032508
v 0.048451 0.890511 -0.059924
v 0.048764 0.894028 -0.056383
v 0.051180 0.887093 -0.039528
v 0.049769 0.869957 -0.052062
v 0.050606 0.881661 -0.032508
v 0.051652 0.861237 -0.037617
v 0.052674 0.863060 -0.031210
v 0.046426 0.858467 -0.033519
v -0.012692 0.868713 0.000158
v -0.017059 0.866341 -0.010195
v -0.020201 0.872490 -0.002713
v -0.034515 0.876984 -0.013432
v -0.035907 0.873238 -0.016036
v -0.012097 0.855995 -0.011577
v -0.023945 0.854866 -0.013828
v -0.003950 0.848160 -0.007382
v -0.010734 0.848457 -0.005301
v -0.035907 0.873238 -0.016036
v -0.020201 0.872490 -0.002713
v -0.034515 0.876984 -0.013432
v -0.023945 0.854866 -0.013828
v -0.012692 0.868713 0.000158
v -0.010734 0.848457 -0.005301
v -0.006750 0.850876 -0.000031
v -0.003950 0.848160 -0.007382
v 0.041559 0.850021 0.024312
v 0.046081 0.848183 0.025192
v 0.044811 0.850121 0.023587
v 0.044294 0.851936 0.023262
v 0.041348 0.848167 0.026486
v 0.040998 0.844658 0.025574
v 0.046187 0.845001 0.024105
v 0.045487 0.843491 0.022282
v 0.041559 0.851524 0.024312
v 0.034925 0.852127 0.023721
v 0.037160 0.848976 0.024432
v 0.042039 0.853958 0.027266
v 0.045580 0.854530 0.026953
v 0.036142 0.845459 0.025869
v 0.035556 0.854126 0.024002
v 0.043028 0.856522 0.029502
v 0.046052 0.857452 0.028864
v 0.045772 0.860642 0.029495
v 0.037518 0.855499 0.026387
v 0.042231 0.859650 0.029808
v 0.042829 0.865761 0.025917
v 0.036598 0.858757 0.025694
v 0.040033 0.864510 0.026467
v 0.040981 0.869026 0.023488
v 0.034242 0.856712 0.023983
v 0.035267 0.860825 0.023590
v 0.032296 0.856125 0.023684
v 0.036065 0.867958 0.023283
v 0.034514 0.864479 0.022310
v 0.033831 0.871521 0.022572
v 0.039545 0.872948 0.022471
v 0.031218 0.875641 0.024621
v 0.038747 0.877670 0.022777
v 0.030912 0.863075 0.022123
v 0.031527 0.866867 0.020318
v 0.030318 0.869103 0.019213
v 0.026399 0.866600 0.022287
v 0.030192 0.879875 0.025015
v 0.037713 0.881226 0.022128
v 0.036049 0.886742 0.021197
v 0.020412 0.886574 0.024062
v 0.033920 0.892685 0.019399
v 0.016102 0.894379 0.021009
v 0.023330 0.862015 0.024511
v 0.027144 0.872566 0.022524
v 0.016924 0.864975 0.023832
v 0.013900 0.859917 0.024470
v 0.025275 0.855660 0.024810
v 0.016643 0.872429 0.024463
v 0.021742 0.879723 0.026166
v 0.009142 0.883575 0.022635
v 0.006208 0.889885 0.020100
v -0.000162 0.882210 0.016792
v 0.027099 0.850151 0.024110
v 0.021226 0.876999 0.025842
v 0.011559 0.878532 0.024845
v 0.004954 0.876885 0.020581
v -0.001887 0.873940 0.015362
v 0.011726 0.875633 0.024258
v 0.005524 0.872864 0.020362
v 0.010623 0.870865 0.022066
v 0.011193 0.865814 0.021847
v 0.007294 0.866318 0.020206
v 0.002528 0.865471 0.017328
v 0.000278 0.863075 0.014531
v -0.004960 0.865501 0.009742
v 0.006033 0.860580 0.019644
v 0.008601 0.852081 0.019181
v -0.002909 0.857155 0.008955
v -0.012692 0.868713 0.000158
v -0.006750 0.850876 -0.000031
v 0.017274 0.853012 0.024743
v 0.020001 0.845924 0.022651
v 0.031962 0.846512 0.024858
v 0.027030 0.840920 0.022568
v -0.000287 0.849091 0.007949
v 0.006562 0.846794 0.014211
v 0.011617 0.845421 0.017501
v 0.000552 0.838097 -0.001788
v -0.003950 0.848160 -0.007382
v 0.002282 0.837860 -0.007159
v 0.009343 0.829926 -0.003070
v 0.023411 0.837441 0.020295
v 0.013233 0.835465 0.012173
v 0.007327 0.839615 0.009733
v 0.006852 0.832832 -0.000022
v 0.021263 0.826416 0.008567
v 0.025460 0.823151 -0.002981
v 0.019570 0.829163 0.011309
v 0.034100 0.822868 0.013054
v 0.035558 0.822166 -0.005288
v 0.044145 0.821922 0.011291
v 0.021487 0.831909 0.015281
v 0.031715 0.823944 0.015016
v 0.039513 0.822250 0.018299
v 0.046814 0.822731 0.016542
v 0.032834 0.828156 0.019294
v 0.040448 0.827988 0.021078
v 0.047355 0.828583 0.019995
v 0.046155 0.834404 0.019933
v 0.031991 0.831589 0.021186
v 0.038967 0.833946 0.021646
v 0.027424 0.837692 0.021893
v 0.041095 0.835960 0.023444
v 0.046741 0.835938 0.021800
v 0.046810 0.839363 0.023343
v 0.035206 0.837372 0.023090
v 0.031954 0.840302 0.023815
v 0.040876 0.839317 0.024575
v 0.036476 0.842949 0.024695
v 0.036118 0.841515 0.022740
v 0.039781 0.842911 0.023426
v 0.047355 0.828583 0.019995
v 0.052004 0.830368 0.015073
v 0.046155 0.834404 0.019933
v 0.046814 0.822731 0.016542
v 0.052093 0.824814 0.011900
v 0.044145 0.821922 0.011291
v 0.050608 0.826233 0.004625
v 0.035558 0.822166 -0.005288
v 0.042424 0.826622 -0.011585
v 0.052396 0.832825 -0.008090
v 0.048619 0.837944 -0.023377
v 0.053176 0.828339 0.004162
v 0.054462 0.832604 0.007853
v 0.051259 0.836487 0.014836
v 0.055329 0.836365 0.009089
v 0.056152 0.838989 -0.002733
v 0.054630 0.836357 -0.007379
v 0.051538 0.841965 -0.022929
v 0.050941 0.837997 0.018096
v 0.046741 0.835938 0.021800
v 0.046810 0.839363 0.023343
v 0.056718 0.844399 -0.010796
v 0.051725 0.848557 -0.028231
v 0.046626 0.846916 -0.029934
v 0.046426 0.858467 -0.033519
v 0.052674 0.863060 -0.031210
v 0.053477 0.841118 0.013461
v 0.050949 0.841370 0.019139
v 0.045487 0.843491 0.022282
v 0.057568 0.844421 0.003000
v 0.056678 0.849701 -0.016010
v 0.056234 0.860672 -0.021593
v 0.058533 0.857422 -0.012539
v 0.056120 0.869240 -0.021550
v 0.059774 0.862541 -0.007262
v 0.050606 0.881661 -0.032508
v 0.055148 0.877823 -0.021699
v 0.058863 0.855087 -0.006912
v 0.057089 0.874695 -0.014599
v 0.055318 0.885658 -0.014442
v 0.058366 0.853775 0.002693
v 0.057174 0.876648 -0.010971
v 0.058627 0.871368 -0.007867
v 0.058524 0.869072 0.001063
v 0.056758 0.876450 -0.005581
v 0.055786 0.883164 -0.005731
v 0.059224 0.861603 0.002887
v 0.054988 0.887138 -0.005424
v 0.052888 0.893089 -0.010895
v 0.052346 0.892418 0.000297
v 0.049982 0.898834 -0.002457
v 0.044051 0.900101 0.006619
v 0.046538 0.891930 0.010372
v 0.033920 0.892685 0.019399
v 0.036049 0.886742 0.021197
v 0.054422 0.887314 0.002638
v 0.054817 0.884438 0.001964
v 0.044307 0.882774 0.017504
v 0.037713 0.881226 0.022128
v 0.038747 0.877670 0.022777
v 0.044938 0.878418 0.017785
v 0.039545 0.872948 0.022471
v 0.049806 0.885468 0.011732
v 0.050771 0.883019 0.010839
v 0.055020 0.879967 -0.001253
v 0.053473 0.879944 0.005617
v 0.056046 0.875023 -0.001646
v 0.054833 0.872742 0.004050
v 0.043167 0.873413 0.017942
v 0.040981 0.869026 0.023488
v 0.046212 0.876488 0.012589
v 0.043127 0.871727 0.012727
v 0.048141 0.871071 0.010802
v 0.053042 0.868111 0.008921
v 0.043994 0.869400 0.013963
v 0.043692 0.869515 0.019309
v 0.046965 0.866356 0.013869
v 0.054364 0.861610 0.009983
v 0.045214 0.865570 0.023955
v 0.042829 0.865761 0.025917
v 0.044588 0.866547 0.016874
v 0.049427 0.859642 0.014493
v 0.054478 0.855774 0.009939
v 0.049382 0.855095 0.016079
v 0.046366 0.863106 0.017760
v 0.048210 0.860855 0.026990
v 0.045772 0.860642 0.029495
v 0.053591 0.850937 0.013418
v 0.048585 0.859673 0.016385
v 0.048153 0.861107 0.019689
v 0.048438 0.857613 0.026902
v 0.046052 0.857452 0.028864
v 0.045580 0.854530 0.026953
v 0.048821 0.856834 0.017341
v 0.049187 0.857895 0.020338
v 0.047957 0.855187 0.023948
v 0.044294 0.851936 0.023262
v 0.046566 0.852585 0.021345
v 0.047310 0.851173 0.021582
v 0.044811 0.850121 0.023587
v 0.046081 0.848183 0.025192
v 0.049968 0.851593 0.017946
v 0.049545 0.849854 0.022293
v 0.052651 0.848824 0.017440
v 0.050107 0.846512 0.021031
v 0.046187 0.845001 0.024105
v 0.049399 0.844894 0.018165
v 0.052301 0.846191 0.016528
v 0.051487 0.844673 0.014748
v 0.054722 0.844955 0.011937
v 0.056347 0.846909 0.007653
v 0.056453 0.843651 0.006566
f 1 2 3
f 1 3 4
f 4 5 1
f 6 5 4
f 6 7 5
f 6 8 7
f 9 8 6
f 10 11 12
f 10 12 13
f 13 12 14
f 15 13 14
f 16 15 14
f 15 16 17
f 18 19 20
f 19 21 20
f 19 22 21
f 19 23 22
f 23 24 22
f 24 23 25
f 24 25 26
f 27 28 29
f 27 30 28
f 30 31 28
f 32 31 30
f 33 31 32
f 32 34 33
f 35 36 37
f 38 35 37
f 35 39 36
f 39 40 36
f 40 41 36
f 40 42 41
f 38 43 35
f 43 44 35
f 45 39 35
f 44 45 35
f 38 46 43
f 46 38 47
f 45 48 39
f 40 39 48
f 43 49 44
f 43 46 49
f 47 50 46
f 50 47 51
f 51 52 50
f 53 46 50
f 53 49 46
f 54 50 52
f 50 54 53
f 52 55 54
f 53 56 49
f 56 53 54
f 57 54 55
f 55 58 57
f 56 59 49
f 59 44 49
f 54 60 56
f 59 56 60
f 60 54 57
f 59 61 44
f 60 61 59
f 62 57 58
f 57 63 60
f 62 63 57
f 58 64 62
f 58 65 64
f 66 64 65
f 65 67 66
f 68 60 63
f 60 68 61
f 69 63 62
f 62 64 69
f 63 69 68
f 69 64 70
f 66 70 64
f 69 71 68
f 69 70 71
f 66 67 72
f 72 67 73
f 72 73 74
f 72 74 75
f 74 76 75
f 77 75 76
f 68 78 61
f 78 68 71
f 79 71 70
f 66 79 70
f 71 79 80
f 71 80 78
f 78 80 81
f 78 82 61
f 81 82 78
f 83 80 79
f 79 66 83
f 72 84 66
f 84 72 75
f 77 85 75
f 85 77 86
f 87 85 86
f 61 82 88
f 88 44 61
f 84 89 66
f 89 83 66
f 90 84 75
f 90 75 85
f 84 90 89
f 91 85 87
f 91 90 85
f 91 87 92
f 90 93 89
f 91 93 90
f 89 93 83
f 93 91 94
f 91 92 94
f 93 95 83
f 94 95 93
f 95 96 83
f 80 83 96
f 80 96 81
f 96 95 97
f 95 94 97
f 96 97 81
f 94 92 98
f 97 94 98
f 99 98 92
f 100 99 92
f 98 101 97
f 97 101 81
f 98 99 101
f 81 101 102
f 101 99 102
f 99 100 103
f 102 99 103
f 103 100 104
f 104 105 103
f 106 81 102
f 81 106 82
f 82 106 88
f 107 88 106
f 106 102 107
f 88 107 108
f 88 108 44
f 44 108 45
f 48 45 108
f 109 108 107
f 48 108 109
f 110 103 105
f 103 111 102
f 111 103 110
f 112 107 102
f 111 112 102
f 105 113 110
f 114 113 105
f 113 114 115
f 113 115 116
f 107 112 117
f 117 109 107
f 112 111 118
f 112 118 117
f 119 111 110
f 110 113 119
f 111 119 118
f 119 113 120
f 116 120 113
f 120 118 119
f 120 116 121
f 122 121 116
f 123 118 120
f 120 121 123
f 121 122 124
f 125 124 122
f 126 124 125
f 123 127 118
f 117 118 127
f 123 121 128
f 128 121 124
f 127 123 128
f 129 124 126
f 128 124 129
f 126 130 129
f 128 131 127
f 128 129 131
f 132 129 130
f 131 129 132
f 130 133 132
f 133 134 132
f 131 135 127
f 127 135 117
f 131 132 135
f 136 132 134
f 135 132 136
f 117 135 137
f 117 137 109
f 134 138 136
f 138 134 139
f 140 138 139
f 136 141 135
f 135 141 137
f 136 138 141
f 137 142 109
f 137 141 142
f 48 109 142
f 140 143 138
f 143 141 138
f 143 140 42
f 144 48 142
f 48 144 40
f 142 141 145
f 145 141 143
f 145 144 142
f 40 146 42
f 146 143 42
f 145 143 146
f 144 145 146
f 146 40 144
f 147 148 149
f 150 148 147
f 148 150 151
f 152 151 150
f 151 152 153
f 152 154 153
f 154 155 153
f 156 153 155
f 155 157 156
f 158 151 153
f 158 153 156
f 159 148 151
f 158 159 151
f 160 149 148
f 159 161 148
f 161 160 148
f 158 162 159
f 159 162 161
f 163 158 156
f 162 158 163
f 164 156 157
f 164 163 156
f 149 160 165
f 165 166 149
f 167 166 165
f 163 168 162
f 163 164 168
f 157 169 164
f 169 157 170
f 169 170 171
f 171 172 169
f 160 173 165
f 160 161 173
f 167 165 174
f 174 165 173
f 174 175 167
f 162 176 161
f 176 162 168
f 177 164 169
f 164 177 168
f 172 178 169
f 178 177 169
f 179 168 177
f 177 178 179
f 178 172 180
f 179 178 180
f 180 181 179
f 172 182 180
f 183 180 182
f 184 168 179
f 184 176 168
f 179 181 184
f 185 180 183
f 181 180 185
f 183 186 185
f 187 176 184
f 184 181 187
f 185 186 188
f 189 181 185
f 188 189 185
f 190 181 189
f 188 191 189
f 191 190 189
f 192 188 186
f 191 188 192
f 193 187 181
f 193 181 190
f 194 192 186
f 194 186 195
f 194 195 196
f 195 197 196
f 196 197 198
f 198 199 196
f 198 200 199
f 201 199 200
f 194 196 202
f 202 196 199
f 203 192 194
f 194 202 203
f 204 199 201
f 204 201 205
f 204 205 206
f 207 204 206
f 208 207 206
f 209 199 204
f 202 199 209
f 204 207 209
f 209 210 202
f 202 210 203
f 209 207 210
f 192 203 211
f 211 191 192
f 210 212 203
f 203 212 211
f 210 207 212
f 213 191 211
f 211 212 213
f 213 190 191
f 214 213 212
f 214 190 213
f 207 208 215
f 216 215 208
f 217 212 207
f 212 217 214
f 207 218 217
f 207 215 218
f 219 214 217
f 217 218 219
f 220 190 214
f 219 220 214
f 221 218 215
f 221 219 218
f 216 222 215
f 222 221 215
f 221 223 219
f 220 219 223
f 190 220 224
f 190 224 193
f 222 216 225
f 226 225 216
f 221 222 227
f 227 223 221
f 222 225 227
f 220 228 224
f 223 228 220
f 224 229 193
f 228 229 224
f 229 228 230
f 187 193 229
f 223 227 231
f 225 231 227
f 231 228 223
f 225 226 232
f 231 225 232
f 233 232 226
f 229 234 187
f 229 230 234
f 231 235 228
f 235 230 228
f 235 231 236
f 232 236 231
f 232 233 237
f 238 237 233
f 237 238 239
f 236 240 235
f 235 240 230
f 236 232 241
f 237 241 232
f 241 240 236
f 239 242 237
f 241 237 242
f 241 242 240
f 242 239 243
f 244 240 242
f 243 244 242
f 244 230 240
f 243 245 244
f 244 245 230
f 243 246 245
f 245 246 247
f 230 245 248
f 230 248 234
f 245 247 249
f 248 245 249
f 250 234 248
f 248 249 250
f 249 247 251
f 251 250 249
f 251 247 252
f 251 252 175
f 251 175 253
f 253 175 174
f 253 254 251
f 250 251 254
f 255 253 174
f 254 253 255
f 255 174 173
f 255 256 254
f 254 256 250
f 256 255 173
f 250 257 234
f 250 256 257
f 257 187 234
f 176 187 257
f 258 256 173
f 258 257 256
f 176 257 258
f 161 258 173
f 176 258 161
