v -0.026735 0.870132 0.242644
v -0.029913 0.861267 0.223466
v -0.028900 0.857460 0.228830
v -0.027940 0.876549 0.234738
v -0.032554 0.866661 0.214542
v -0.020656 0.880051 0.260185
v -0.019349 0.888519 0.259160
v -0.008927 0.880188 0.269281
v -0.009716 0.871597 0.270630
v 0.005163 0.867271 0.273286
v 0.004980 0.878220 0.271788
v -0.007819 0.891075 0.264671
v 0.004773 0.889221 0.267160
v 0.004554 0.903290 0.253646
v -0.010021 0.903328 0.253487
v 0.004555 0.911743 0.239001
v -0.010020 0.911781 0.238842
v 0.004515 0.918716 0.219141
v -0.018738 0.901077 0.249511
v -0.007141 0.918808 0.219431
v 0.004553 0.921005 0.201867
v -0.025413 0.895439 0.243705
v -0.019335 0.912102 0.224112
v -0.026218 0.903473 0.228323
v -0.008935 0.919754 0.201814
v 0.004818 0.916336 0.184505
v -0.030560 0.882446 0.221099
v -0.020620 0.914345 0.205777
v -0.028590 0.900971 0.209882
v -0.006671 0.915123 0.184209
v 0.005230 0.899605 0.171272
v -0.029452 0.883186 0.201845
v -0.019390 0.911797 0.187522
v -0.002132 0.899727 0.172529
v 0.005731 0.883957 0.169511
v -0.027587 0.900444 0.191715
v -0.026468 0.867065 0.195992
v -0.029989 0.858376 0.206235
v -0.024629 0.851265 0.197378
v -0.013545 0.882286 0.174818
v 0.005922 0.867432 0.172052
v -0.016500 0.899590 0.176998
v -0.026761 0.881859 0.187736
v -0.013968 0.868317 0.179164
v -0.011885 0.855454 0.182549
v 0.006089 0.855751 0.171465
v 0.037277 0.871422 0.243176
v 0.040144 0.858849 0.229524
v 0.041129 0.862694 0.223915
v 0.038413 0.877884 0.234895
v 0.043860 0.868195 0.215021
v 0.030500 0.881073 0.260946
v 0.028774 0.889488 0.259516
v 0.018794 0.880737 0.269623
v 0.019889 0.872192 0.270772
v 0.005163 0.867271 0.273286
v 0.004980 0.878220 0.271788
v 0.017272 0.891586 0.264977
v 0.004773 0.889221 0.267160
v 0.004554 0.903290 0.253646
v 0.019015 0.903915 0.253848
v 0.004555 0.911743 0.239001
v 0.019016 0.912369 0.239203
v 0.004515 0.918716 0.219141
v 0.028071 0.902016 0.249849
v 0.016233 0.919281 0.219350
v 0.004553 0.921005 0.201867
v 0.034884 0.896652 0.244095
v 0.028561 0.913063 0.224556
v 0.035736 0.904717 0.228601
v 0.018383 0.920303 0.201788
v 0.004818 0.916336 0.184505
v 0.041052 0.883888 0.221330
v 0.030133 0.915360 0.206169
v 0.038394 0.902313 0.210320
v 0.016361 0.915588 0.184259
v 0.005230 0.899605 0.171272
v 0.040161 0.884590 0.202320
v 0.037968 0.901764 0.192178
v 0.029364 0.912773 0.188159
v 0.012670 0.900024 0.172600
v 0.005731 0.883957 0.169511
v 0.037887 0.868362 0.196394
v 0.041797 0.859818 0.206922
v 0.036755 0.852501 0.197874
v 0.026882 0.900459 0.177605
v 0.024746 0.883057 0.174764
v 0.005922 0.867432 0.172052
v 0.037822 0.883164 0.188050
v 0.025812 0.869118 0.179585
v 0.024180 0.856178 0.182827
v 0.006089 0.855751 0.171465
v -0.001001 0.902329 0.171049
v 0.005161 0.905823 0.169729
v 0.005552 0.886879 0.161211
v 0.000782 0.885292 0.165134
v 0.001177 0.863884 0.164459
v 0.006167 0.864479 0.159406
v 0.001389 0.859291 0.162286
v 0.006330 0.857758 0.150975
v 0.000229 0.853104 0.152794
v -0.002952 0.843391 0.125772
v 0.006743 0.849716 0.123096
v 0.007020 0.838844 0.114622
v 0.011400 0.902580 0.170995
v 0.005552 0.886879 0.161211
v 0.005161 0.905823 0.169729
v 0.010615 0.885483 0.165544
v 0.010835 0.864082 0.164413
v 0.006167 0.864479 0.159406
v 0.011047 0.859482 0.162240
v 0.006330 0.857758 0.150975
v 0.012631 0.853355 0.152740
v 0.016653 0.843788 0.126091
v 0.006743 0.849716 0.123096
v 0.007020 0.838844 0.114622
v 0.005731 0.883873 0.169511
v 0.011400 0.902580 0.170995
v 0.005299 0.901398 0.172814
v 0.010615 0.885483 0.165544
v 0.006012 0.862869 0.168880
v 0.010835 0.864082 0.164413
v 0.006154 0.855682 0.165164
v 0.011047 0.859482 0.162240
v 0.006477 0.848839 0.155103
v 0.012631 0.853355 0.152740
v 0.007011 0.837639 0.128224
v 0.016653 0.843788 0.126091
v 0.007020 0.838844 0.114622
v 0.005731 0.883873 0.169511
v 0.005299 0.901398 0.172814
v -0.001001 0.902329 0.171049
v 0.000782 0.885292 0.165134
v 0.006012 0.862869 0.168880
v 0.001177 0.863884 0.164459
v 0.006154 0.855682 0.165164
v 0.001389 0.859291 0.162286
v 0.006477 0.848839 0.155103
v 0.000229 0.853104 0.152794
v 0.007011 0.837639 0.128224
v -0.002952 0.843391 0.125772
v 0.007020 0.838844 0.114622
v 0.003706 0.935997 0.276984
v 0.004571 0.908287 0.241087
v 0.004842 0.883881 0.268703
v 0.003648 0.952416 0.232550
v 0.004143 0.950890 0.185811
v 0.004769 0.917694 0.192893
v 0.005230 0.899605 0.171272
v 0.004820 0.933945 0.155216
v 0.001458 0.919632 0.163829
v 0.004938 0.919601 0.163016
v 0.005230 0.899605 0.171272
v 0.004857 0.930824 0.152586
v -0.000248 0.899765 0.172329
v -0.003700 0.915184 0.184114
v 0.004293 0.945877 0.183138
v -0.002122 0.930450 0.196061
v -0.005508 0.919823 0.201545
v -0.007699 0.914009 0.228537
v -0.003552 0.932465 0.225376
v 0.003836 0.950989 0.212603
v 0.003748 0.940422 0.252909
v -0.004396 0.922867 0.256558
v -0.008592 0.902054 0.253462
v 0.003865 0.931557 0.275354
v -0.002602 0.911850 0.274175
v -0.004620 0.891144 0.264490
v 0.004223 0.909981 0.277309
v 0.004842 0.883881 0.268703
v 0.004842 0.883881 0.268703
v 0.011000 0.912125 0.274184
v 0.004223 0.909981 0.277309
v 0.013898 0.891518 0.264703
v 0.003865 0.931557 0.275354
v 0.017928 0.902580 0.253742
v 0.012694 0.923210 0.256797
v 0.003748 0.940422 0.252909
v 0.016822 0.914497 0.229061
v 0.011935 0.932777 0.225184
v 0.003836 0.950989 0.212603
v 0.004293 0.945877 0.183138
v 0.011138 0.930718 0.196201
v 0.014667 0.920235 0.201646
v 0.013390 0.915527 0.184353
v 0.008548 0.919769 0.164245
v 0.004857 0.930824 0.152586
v 0.010786 0.899986 0.172800
v 0.004938 0.919601 0.163016
v 0.005230 0.899605 0.171272
f 1 2 3
f 2 1 4
f 4 5 2
f 6 4 1
f 4 6 7
f 8 7 6
f 6 9 8
f 10 8 9
f 8 10 11
f 11 12 8
f 7 8 12
f 12 11 13
f 14 12 13
f 12 14 15
f 7 12 15
f 16 15 14
f 15 16 17
f 18 17 16
f 15 19 7
f 19 15 17
f 17 18 20
f 21 20 18
f 22 7 19
f 4 7 22
f 17 23 19
f 23 17 20
f 22 19 24
f 4 22 24
f 23 24 19
f 20 21 25
f 26 25 21
f 24 27 4
f 5 4 27
f 23 20 28
f 25 28 20
f 24 23 29
f 27 24 29
f 29 23 28
f 25 26 30
f 31 30 26
f 32 5 27
f 27 29 32
f 28 25 33
f 30 33 25
f 30 31 34
f 33 30 34
f 31 35 34
f 29 28 36
f 33 36 28
f 36 32 29
f 5 32 37
f 37 38 5
f 37 39 38
f 35 40 34
f 41 40 35
f 33 34 42
f 36 33 42
f 42 34 40
f 32 36 43
f 36 42 43
f 43 37 32
f 40 43 42
f 44 39 37
f 43 44 37
f 43 40 44
f 44 40 41
f 39 44 45
f 44 41 46
f 46 45 44
f 47 48 49
f 49 50 47
f 50 49 51
f 52 47 50
f 50 53 52
f 54 52 53
f 52 54 55
f 56 55 54
f 54 57 56
f 57 54 58
f 53 58 54
f 58 59 57
f 60 59 58
f 58 61 60
f 53 61 58
f 62 60 61
f 61 63 62
f 64 62 63
f 61 53 65
f 65 63 61
f 63 66 64
f 67 64 66
f 68 65 53
f 50 68 53
f 63 65 69
f 69 66 63
f 68 70 65
f 50 70 68
f 69 65 70
f 66 71 67
f 72 67 71
f 70 50 73
f 51 73 50
f 69 74 66
f 71 66 74
f 70 75 69
f 73 75 70
f 75 74 69
f 71 76 72
f 77 72 76
f 78 73 51
f 73 78 75
f 75 79 74
f 79 75 78
f 74 80 71
f 76 71 80
f 80 74 79
f 76 81 77
f 80 81 76
f 77 81 82
f 51 83 78
f 83 51 84
f 83 84 85
f 79 86 80
f 80 86 81
f 82 81 87
f 86 87 81
f 88 82 87
f 78 89 79
f 79 89 86
f 89 78 83
f 87 86 89
f 90 83 85
f 89 83 90
f 89 90 87
f 90 88 87
f 85 91 90
f 90 92 88
f 92 90 91
f 93 94 95
f 95 96 93
f 95 97 96
f 97 95 98
f 98 99 97
f 99 98 100
f 100 101 99
f 100 102 101
f 102 100 103
f 103 104 102
f 105 106 107
f 106 105 108
f 106 108 109
f 109 110 106
f 110 109 111
f 111 112 110
f 112 111 113
f 112 113 114
f 114 115 112
f 115 114 116
f 117 118 119
f 117 120 118
f 120 117 121
f 121 122 120
f 122 121 123
f 123 124 122
f 124 123 125
f 125 126 124
f 126 125 127
f 127 128 126
f 128 127 129
f 130 131 132
f 130 132 133
f 133 134 130
f 134 133 135
f 135 136 134
f 136 135 137
f 137 138 136
f 138 137 139
f 139 140 138
f 140 139 141
f 141 142 140
f 143 144 145
f 143 146 144
f 147 144 146
f 147 148 144
f 149 148 147
f 147 150 149
f 151 152 153
f 151 154 152
f 151 153 155
f 156 151 155
f 157 154 151
f 158 151 156
f 151 158 157
f 159 158 156
f 160 158 159
f 157 158 161
f 158 160 161
f 157 161 162
f 163 162 161
f 160 164 161
f 163 161 164
f 160 165 164
f 166 163 164
f 165 167 164
f 166 164 167
f 165 168 167
f 169 166 167
f 170 167 168
f 170 169 167
f 171 172 173
f 171 174 172
f 173 172 175
f 176 172 174
f 175 172 177
f 176 177 172
f 175 177 178
f 179 177 176
f 178 177 180
f 179 180 177
f 178 180 181
f 182 181 180
f 183 180 179
f 182 180 183
f 179 184 183
f 184 185 183
f 186 182 183
f 183 185 186
f 182 186 187
f 185 188 186
f 186 189 187
f 186 188 190
f 186 190 189
