v 0.081606 0.028534 -0.108895
v 0.117371 0.029216 -0.138245
v 0.128231 0.022790 -0.129492
v 0.093897 0.022006 -0.098413
v 0.148184 -0.000603 -0.118091
v 0.106540 -0.000702 -0.079139
v 0.183306 -0.001605 -0.076138
v 0.144123 -0.001351 -0.040130
v 0.173395 -0.001723 -0.043816
v 0.117371 0.029216 -0.138245
v 0.081606 0.028534 -0.108895
v 0.083873 0.013783 -0.113206
v 0.115183 0.014326 -0.138858
v 0.084350 -0.000803 -0.112000
v 0.115606 -0.000475 -0.137631
v 0.115606 -0.000475 -0.137631
v 0.073097 -0.000776 -0.127016
v 0.103084 -0.000462 -0.151598
v 0.080722 -0.000602 -0.148947
v -0.101494 0.002447 0.000832
v -0.084211 0.001858 -0.013591
v -0.063064 0.000779 -0.004062
v -0.099964 0.002132 0.019526
v -0.059901 0.000393 0.014430
v -0.100018 0.016959 0.018570
v -0.099964 0.002132 0.019526
v -0.059911 0.015004 0.013446
v -0.100528 0.031851 0.020775
v -0.054681 0.029554 0.014954
v -0.054681 0.029554 0.014954
v -0.101875 0.025288 0.034594
v -0.100528 0.031851 0.020775
v -0.055761 0.022850 0.031000
v -0.108192 0.001343 0.056607
v -0.051303 0.000072 0.053132
v -0.101905 -0.000341 0.110941
v -0.048818 -0.000365 0.107244
v -0.071621 -0.000673 0.125964
v 0.150952 0.225507 -0.081656
v 0.133992 0.221272 -0.059019
v 0.122212 0.151752 -0.082177
v 0.131901 0.155632 -0.100656
v 0.114560 0.100548 -0.097301
v 0.147096 0.233126 -0.106929
v 0.122851 0.103481 -0.114141
v 0.128383 0.160921 -0.117814
v 0.112326 0.166550 -0.129970
v 0.121374 0.242015 -0.126714
v 0.092571 0.244017 -0.120747
v 0.091844 0.168645 -0.127416
v 0.118519 0.109302 -0.127525
v 0.105386 0.114312 -0.138624
v 0.086205 0.117299 -0.136372
v 0.080501 0.095245 -0.145669
v 0.125103 0.086395 -0.118213
v 0.115517 0.088250 -0.098890
v 0.126226 0.069126 -0.092889
v 0.099407 0.092547 -0.150651
v 0.118008 0.087602 -0.136152
v 0.100640 0.069358 -0.158855
v 0.074319 0.070619 -0.152129
v 0.120442 0.067185 -0.143916
v 0.134279 0.065522 -0.117661
v 0.099085 0.036786 -0.158883
v 0.076266 0.037568 -0.152873
v 0.158059 0.042394 -0.102679
v 0.141270 0.049779 -0.079675
v 0.117371 0.029216 -0.138245
v 0.131374 0.044303 -0.127088
v 0.115183 0.014326 -0.138858
v 0.128231 0.022790 -0.129492
v 0.101862 0.015635 -0.153574
v 0.115606 -0.000475 -0.137631
v 0.081032 0.015815 -0.148289
v 0.103084 -0.000462 -0.151598
v 0.080722 -0.000602 -0.148947
v 0.150092 0.014441 -0.117143
v 0.148184 -0.000603 -0.118091
v 0.182445 0.016243 -0.077450
v 0.183306 -0.001605 -0.076138
v 0.173395 -0.001723 -0.043816
v 0.174591 0.014797 -0.042434
v 0.178163 0.028827 -0.072599
v 0.165169 0.032833 -0.052080
v -0.052173 0.231854 0.069944
v -0.048045 0.153919 0.056707
v -0.025394 0.222528 0.073672
v -0.067080 0.161065 0.050624
v -0.064004 0.103465 0.046275
v -0.066462 0.240265 0.049045
v -0.081113 0.109276 0.040407
v -0.076164 0.166699 0.035774
v -0.073277 0.169659 0.015276
v -0.062089 0.244903 0.016008
v -0.038358 0.240341 -0.000881
v -0.057495 0.167190 0.002037
v -0.086818 0.114988 0.027499
v -0.085216 0.117886 0.009898
v -0.070337 0.116583 -0.002704
v -0.077576 0.096136 -0.010769
v -0.089456 0.090841 0.041277
v -0.068775 0.090514 0.047514
v -0.073213 0.071072 0.059684
v -0.097345 0.092245 0.023634
v -0.094436 0.095879 -0.000234
v -0.106163 0.071136 0.020284
v -0.103123 0.072797 -0.004535
v -0.080034 0.072142 -0.019165
v -0.096894 0.069097 0.048539
v -0.102661 0.039864 -0.006590
v -0.082591 0.040069 -0.019026
v -0.102884 0.044084 0.074722
v -0.074493 0.050840 0.078399
v -0.100528 0.031851 0.020775
v -0.103264 0.048077 0.040214
v -0.100018 0.016959 0.018570
v -0.101875 0.025288 0.034594
v -0.101495 0.018582 -0.001201
v -0.099964 0.002132 0.019526
v -0.083341 0.018244 -0.012698
v -0.101494 0.002447 0.000832
v -0.084211 0.001858 -0.013591
v -0.108498 0.016377 0.058767
v -0.108192 0.001343 0.056607
v -0.102168 0.017513 0.109470
v -0.101905 -0.000341 0.110941
v -0.071621 -0.000673 0.125964
v -0.071349 0.015840 0.127837
v -0.095634 0.030061 0.109736
v -0.071779 0.033922 0.114420
v -0.011870 0.231149 0.002580
v -0.057495 0.167190 0.002037
v -0.038358 0.240341 -0.000881
v -0.035593 0.159621 0.005297
v 0.004424 0.220016 0.034719
v -0.055628 0.112101 0.000927
v -0.070337 0.116583 -0.002704
v -0.029374 0.153643 0.026616
v -0.003312 0.217828 0.060358
v -0.058782 0.092494 -0.006762
v -0.077576 0.096136 -0.010769
v -0.047720 0.105618 0.018615
v -0.031770 0.151007 0.044791
v -0.025394 0.222528 0.073672
v -0.048045 0.153919 0.056707
v -0.064004 0.103465 0.046275
v -0.051794 0.104271 0.036997
v -0.052365 0.086870 0.036495
v -0.068775 0.090514 0.047514
v -0.073213 0.071072 0.059684
v -0.050275 0.087168 0.015751
v -0.051220 0.067673 0.010762
v -0.053982 0.066449 0.047422
v -0.051460 0.042541 0.071926
v -0.074493 0.050840 0.078399
v -0.056213 0.070183 -0.011195
v -0.080034 0.072142 -0.019165
v -0.053048 0.044794 0.037119
v -0.060448 0.037736 -0.011932
v -0.082591 0.040069 -0.019026
v -0.054681 0.029554 0.014954
v -0.055761 0.022850 0.031000
v -0.059911 0.015004 0.013446
v -0.062082 0.016666 -0.006214
v -0.059901 0.000393 0.014430
v -0.083341 0.018244 -0.012698
v -0.063064 0.000779 -0.004062
v -0.084211 0.001858 -0.013591
v -0.045067 0.014683 0.072389
v -0.051303 0.000072 0.053132
v -0.047812 0.017080 0.106399
v -0.048818 -0.000365 0.107244
v -0.055135 0.030360 0.107425
v -0.071779 0.033922 0.114420
v -0.071349 0.015840 0.127837
v -0.071621 -0.000673 0.125964
v 0.075640 0.239882 -0.098512
v 0.092571 0.244017 -0.120747
v 0.091844 0.168645 -0.127416
v 0.078139 0.165216 -0.108762
v 0.085701 0.228810 -0.063894
v 0.078167 0.115429 -0.122899
v 0.086205 0.117299 -0.136372
v 0.088139 0.158343 -0.089225
v 0.108827 0.222435 -0.051789
v 0.070224 0.093711 -0.129073
v 0.080501 0.095245 -0.145669
v 0.084328 0.108780 -0.104589
v 0.102265 0.153372 -0.078328
v 0.133992 0.221272 -0.059019
v 0.122212 0.151752 -0.082177
v 0.114560 0.100548 -0.097301
v 0.098071 0.104243 -0.094531
v 0.096126 0.087078 -0.094359
v 0.115517 0.088250 -0.098890
v 0.126226 0.069126 -0.092889
v 0.079934 0.088509 -0.107126
v 0.074801 0.069433 -0.110200
v 0.104000 0.066134 -0.087159
v 0.120663 0.041913 -0.067224
v 0.141270 0.049779 -0.079675
v 0.063650 0.070372 -0.129267
v 0.074319 0.070619 -0.152129
v 0.094646 0.044859 -0.092616
v 0.066167 0.036146 -0.131846
v 0.076266 0.037568 -0.152873
v 0.081606 0.028534 -0.108895
v 0.093897 0.022006 -0.098413
v 0.083873 0.013783 -0.113206
v 0.071110 0.015106 -0.128350
v 0.084350 -0.000803 -0.112000
v 0.081032 0.015815 -0.148289
v 0.073097 -0.000776 -0.127016
v 0.080722 -0.000602 -0.148947
v 0.116365 0.014196 -0.061680
v 0.106540 -0.000702 -0.079139
v 0.142843 0.016096 -0.040088
v 0.144123 -0.001351 -0.040130
v 0.148642 0.029339 -0.044782
v 0.165169 0.032833 -0.052080
v 0.174591 0.014797 -0.042434
v 0.173395 -0.001723 -0.043816
f 1 2 3
f 1 3 4
f 4 3 5
f 4 5 6
f 7 6 5
f 7 8 6
f 7 9 8
f 10 11 12
f 12 13 10
f 13 12 14
f 14 15 13
f 16 14 17
f 16 17 18
f 18 17 19
f 20 21 22
f 23 20 22
f 23 22 24
f 24 25 26
f 25 24 27
f 27 28 25
f 28 27 29
f 30 31 32
f 30 33 31
f 33 34 31
f 33 35 34
f 36 34 35
f 36 35 37
f 36 37 38
f 39 40 41
f 41 42 39
f 41 43 42
f 44 39 42
f 42 43 45
f 42 46 44
f 42 45 46
f 47 44 46
f 44 47 48
f 49 48 47
f 47 50 49
f 46 51 47
f 46 45 51
f 47 52 50
f 47 51 52
f 50 52 53
f 53 52 54
f 45 43 55
f 43 56 55
f 57 55 56
f 52 51 58
f 52 58 54
f 51 45 59
f 45 55 59
f 51 59 58
f 58 60 54
f 54 60 61
f 59 62 58
f 55 62 59
f 58 62 60
f 55 57 63
f 63 62 55
f 60 64 61
f 61 64 65
f 63 57 66
f 57 67 66
f 62 68 60
f 60 68 64
f 62 63 69
f 69 68 62
f 63 66 69
f 70 64 68
f 71 68 69
f 72 65 64
f 64 70 72
f 73 72 70
f 65 72 74
f 72 73 75
f 75 74 72
f 74 75 76
f 77 71 69
f 69 66 77
f 71 77 78
f 79 78 77
f 77 66 79
f 78 79 80
f 79 81 80
f 82 81 79
f 79 66 83
f 83 82 79
f 66 67 83
f 84 82 83
f 84 83 67
f 85 86 87
f 86 85 88
f 86 88 89
f 90 88 85
f 88 91 89
f 88 90 92
f 88 92 91
f 93 92 90
f 90 94 93
f 95 93 94
f 93 95 96
f 92 93 97
f 92 97 91
f 93 96 98
f 93 98 97
f 96 99 98
f 99 100 98
f 91 101 89
f 89 101 102
f 103 102 101
f 97 104 91
f 91 104 101
f 98 105 97
f 98 100 105
f 97 105 104
f 101 104 106
f 104 105 106
f 105 100 107
f 105 107 106
f 100 108 107
f 101 109 103
f 109 101 106
f 107 108 110
f 108 111 110
f 109 112 103
f 103 112 113
f 106 107 114
f 107 110 114
f 106 115 109
f 115 106 114
f 109 115 112
f 116 114 110
f 117 115 114
f 118 110 111
f 110 118 116
f 119 116 118
f 111 120 118
f 118 121 119
f 121 118 120
f 120 122 121
f 123 115 117
f 115 123 112
f 117 124 123
f 125 123 124
f 123 125 112
f 124 126 125
f 125 126 127
f 128 125 127
f 125 129 112
f 129 125 128
f 112 129 113
f 130 129 128
f 130 113 129
f 131 132 133
f 132 131 134
f 135 134 131
f 132 134 136
f 137 132 136
f 134 135 138
f 139 138 135
f 137 136 140
f 141 137 140
f 134 142 136
f 138 142 134
f 138 139 143
f 144 143 139
f 143 144 145
f 143 145 146
f 143 147 138
f 147 143 146
f 138 147 142
f 148 147 146
f 147 148 142
f 148 146 149
f 149 150 148
f 142 151 136
f 136 151 140
f 142 148 151
f 151 152 140
f 148 152 151
f 153 148 150
f 153 152 148
f 153 150 154
f 150 155 154
f 140 152 156
f 141 140 156
f 157 141 156
f 152 153 158
f 153 154 158
f 157 156 159
f 160 157 159
f 152 161 156
f 158 161 152
f 156 161 159
f 162 161 158
f 163 159 161
f 159 164 160
f 159 163 164
f 165 164 163
f 166 160 164
f 164 165 167
f 164 167 166
f 168 166 167
f 169 162 158
f 158 154 169
f 162 169 170
f 171 170 169
f 169 154 171
f 170 171 172
f 171 154 173
f 173 154 155
f 155 174 173
f 174 175 173
f 173 175 171
f 171 175 172
f 175 176 172
f 177 178 179
f 179 180 177
f 181 177 180
f 179 182 180
f 183 182 179
f 180 184 181
f 185 181 184
f 183 186 182
f 187 186 183
f 180 182 188
f 184 180 188
f 184 189 185
f 190 185 189
f 189 191 190
f 189 192 191
f 189 184 193
f 193 192 189
f 184 188 193
f 194 192 193
f 193 188 194
f 194 195 192
f 195 194 196
f 188 182 197
f 182 186 197
f 188 197 194
f 197 186 198
f 194 197 198
f 199 196 194
f 199 194 198
f 199 200 196
f 196 200 201
f 186 202 198
f 187 202 186
f 203 202 187
f 198 204 199
f 199 204 200
f 203 205 202
f 206 205 203
f 198 202 207
f 204 198 207
f 202 205 207
f 208 204 207
f 209 207 205
f 205 206 210
f 205 210 209
f 211 209 210
f 212 210 206
f 210 213 211
f 210 212 213
f 214 213 212
f 215 204 208
f 204 215 200
f 208 216 215
f 217 215 216
f 215 217 200
f 216 218 217
f 217 219 200
f 219 201 200
f 201 219 220
f 220 219 221
f 219 217 221
f 217 218 221
f 221 218 222
