v 0.080015 0.589142 -0.079886
v 0.052505 0.579819 -0.067757
v 0.050140 0.583855 -0.070510
v 0.077361 0.593224 -0.083051
v 0.049139 0.597054 -0.066988
v 0.104215 0.596771 -0.083945
v 0.074036 0.605545 -0.077068
v 0.053086 0.597618 -0.059088
v 0.076363 0.605568 -0.071685
v 0.100470 0.617386 -0.080416
v 0.098459 0.616470 -0.074414
v 0.103446 0.601273 -0.087311
v 0.126738 0.604126 -0.068532
v 0.127405 0.609192 -0.070880
v 0.146362 0.607185 -0.043638
v 0.124344 0.628418 -0.067613
v 0.119248 0.618774 -0.061473
v 0.145564 0.629456 -0.043331
v 0.134860 0.621254 -0.038176
v 0.149180 0.617043 -0.011769
v 0.145564 0.629456 -0.043331
v 0.141179 0.616333 -0.011836
v 0.148474 0.612396 -0.043925
v 0.152302 0.601746 -0.014537
v 0.154720 0.605751 -0.012327
v 0.144242 0.587715 0.007386
v 0.146334 0.590988 0.011813
v 0.133277 0.570511 0.023102
v 0.139191 0.603210 0.011940
v 0.134259 0.603684 0.009649
v 0.129610 0.589897 0.029217
v 0.125072 0.591354 0.026251
v 0.135483 0.573364 0.027485
v 0.112600 0.559555 0.039407
v 0.114175 0.562721 0.043510
v 0.109487 0.583000 0.043217
v 0.106939 0.584671 0.038965
v 0.025483 0.577385 -0.051631
v 0.050140 0.583855 -0.070510
v 0.052505 0.579819 -0.067757
v 0.023058 0.581505 -0.054884
v 0.049139 0.597054 -0.066988
v 0.007277 0.575905 -0.033659
v 0.025597 0.595078 -0.051674
v 0.053086 0.597618 -0.059088
v 0.028609 0.595261 -0.046554
v 0.005242 0.596848 -0.030785
v 0.011428 0.597710 -0.028976
v 0.003606 0.579758 -0.035388
v 0.005383 0.577957 -0.005211
v 0.001439 0.582039 -0.005267
v 0.014022 0.578629 0.025469
v -0.000482 0.601509 -0.002437
v 0.010132 0.595223 -0.004420
v 0.007420 0.599648 0.029049
v 0.019537 0.596413 0.021783
v 0.034427 0.592293 0.047971
v 0.007420 0.599648 0.029049
v 0.038779 0.594238 0.041593
v 0.010839 0.582726 0.027737
v 0.035673 0.576592 0.046447
v 0.034960 0.579903 0.050381
v 0.061822 0.569939 0.050530
v 0.062941 0.573052 0.054808
v 0.085347 0.560196 0.047776
v 0.062803 0.586746 0.051723
v 0.063333 0.588425 0.046290
v 0.086010 0.580490 0.052229
v 0.085514 0.582802 0.047189
v 0.086641 0.562866 0.052510
v 0.112600 0.559555 0.039407
v 0.114175 0.562721 0.043510
v 0.109487 0.583000 0.043217
v 0.106939 0.584671 0.038965
v 0.146020 0.609009 -0.043506
v 0.151960 0.603569 -0.014405
v 0.169153 0.577255 -0.023097
v 0.162048 0.585594 -0.054889
v 0.188123 0.546700 -0.030902
v 0.126396 0.605942 -0.068401
v 0.182142 0.554001 -0.065218
v 0.202352 0.505600 -0.038456
v 0.199554 0.512634 -0.075040
v 0.141753 0.583923 -0.085279
v 0.103873 0.598595 -0.083814
v 0.113980 0.576431 -0.099723
v 0.155547 0.552216 -0.097373
v 0.166300 0.511658 -0.110916
v 0.121307 0.546692 -0.112996
v 0.125499 0.501129 -0.117743
v 0.013680 0.580444 0.025600
v 0.018457 0.545151 0.052009
v 0.035331 0.578407 0.046578
v -0.002710 0.553810 0.027184
v 0.001256 0.510712 0.059658
v 0.005041 0.579773 -0.005080
v -0.018681 0.519257 0.031223
v -0.025732 0.472008 0.065311
v -0.045169 0.482193 0.035114
v -0.012924 0.555351 -0.007599
v 0.006935 0.577721 -0.033527
v -0.005682 0.553177 -0.039145
v -0.021967 0.519310 -0.009357
v -0.042175 0.480476 -0.013630
v -0.008640 0.515396 -0.044808
v -0.016984 0.465500 -0.044744
v -0.034751 0.296295 0.066681
v -0.060968 0.244904 0.017120
v -0.065284 0.240265 0.050158
v -0.031010 0.296852 0.040663
v -0.016060 0.293129 0.030217
v -0.037267 0.240341 0.000177
v -0.010662 0.231148 0.004086
v 0.005226 0.286728 0.033552
v -0.028313 0.316139 0.071532
v 0.010366 0.303703 0.040471
v -0.023354 0.313026 0.047661
v -0.009772 0.308754 0.037740
v 0.014619 0.320869 0.036223
v -0.019724 0.330421 0.044176
v -0.023185 0.338501 0.069563
v -0.007419 0.324173 0.031607
v 0.035740 0.360748 0.010856
v -0.019731 0.374573 0.028488
v -0.020616 0.394424 0.054455
v -0.015979 0.453407 0.040646
v -0.000568 0.361748 0.008579
v 0.050210 0.411095 -0.017189
v -0.015501 0.432793 0.006466
v 0.007276 0.413940 -0.019014
v -0.003225 0.496216 -0.002430
v 0.004566 0.514114 0.036944
v 0.045666 0.475586 -0.050487
v 0.065108 0.479698 -0.041736
v 0.003003 0.488350 -0.024696
v -0.003030 0.522125 -0.006689
v 0.010476 0.544563 0.032583
v 0.056001 0.491669 -0.066483
v 0.069635 0.508553 -0.062303
v 0.019317 0.476799 -0.043510
v 0.000810 0.505882 -0.034837
v 0.001052 0.546188 -0.003549
v 0.014978 0.582138 0.023532
v 0.006697 0.579918 -0.005193
v 0.036998 0.487846 -0.062850
v 0.019130 0.488625 -0.052853
v 0.057320 0.516731 -0.073266
v 0.060429 0.537460 -0.070275
v 0.000155 0.529030 -0.038247
v 0.004526 0.553192 -0.034695
v 0.013829 0.580627 -0.028852
v 0.017934 0.505638 -0.059716
v 0.044613 0.508850 -0.075711
v 0.052228 0.540985 -0.073927
v 0.057043 0.567566 -0.064791
v 0.019822 0.557579 -0.052073
v 0.029284 0.581749 -0.047860
v 0.017136 0.531677 -0.059410
v 0.039933 0.535965 -0.074960
v 0.039672 0.562622 -0.064400
v 0.057449 0.583221 -0.056579
v 0.151020 0.292381 -0.076807
v 0.148514 0.233131 -0.105134
v 0.122699 0.242020 -0.125037
v 0.129873 0.297562 -0.091702
v 0.111615 0.298302 -0.087832
v 0.094001 0.244026 -0.118728
v 0.077028 0.239891 -0.096522
v 0.098553 0.295525 -0.069742
v 0.155248 0.312759 -0.069539
v 0.104385 0.313728 -0.062043
v 0.133661 0.315506 -0.082173
v 0.116657 0.315697 -0.078784
v 0.104006 0.334106 -0.059283
v 0.134308 0.335869 -0.079806
v 0.157051 0.336014 -0.065523
v 0.115684 0.335243 -0.078933
v 0.090945 0.381432 -0.055838
v 0.142717 0.383118 -0.086172
v 0.167832 0.394684 -0.068093
v 0.174222 0.457001 -0.069500
v 0.112550 0.378677 -0.085053
v 0.078801 0.437805 -0.059545
v 0.143467 0.446121 -0.092736
v 0.105457 0.436859 -0.093313
v 0.155522 0.524681 -0.085857
v 0.180408 0.536850 -0.053045
v 0.089559 0.496193 -0.079888
v 0.086407 0.495575 -0.058804
v 0.134643 0.516258 -0.095625
v 0.149587 0.551132 -0.084625
v 0.164225 0.580414 -0.046834
v 0.070076 0.509102 -0.079209
v 0.069635 0.508553 -0.062303
v 0.110866 0.502235 -0.095913
v 0.127110 0.534523 -0.101625
v 0.139485 0.580292 -0.075517
v 0.143163 0.609802 -0.043456
v 0.125606 0.605537 -0.067051
v 0.085693 0.508400 -0.092003
v 0.103805 0.513115 -0.100001
v 0.063466 0.517426 -0.076671
v 0.060429 0.537460 -0.070275
v 0.119694 0.557114 -0.099824
v 0.110512 0.580757 -0.090023
v 0.103026 0.599831 -0.075120
v 0.097269 0.529343 -0.102723
v 0.068497 0.525566 -0.091155
v 0.061451 0.542336 -0.078513
v 0.057043 0.567566 -0.064791
v 0.087443 0.576767 -0.087444
v 0.079546 0.592575 -0.073953
v 0.092612 0.553253 -0.098843
v 0.066568 0.549843 -0.089368
v 0.065912 0.572594 -0.078133
v 0.057449 0.583221 -0.056579
v 0.164225 0.580414 -0.046834
v 0.143163 0.609802 -0.043456
v 0.147349 0.601875 -0.012112
v 0.165347 0.573799 -0.020067
v 0.178506 0.537071 -0.025641
v 0.180408 0.536850 -0.053045
v 0.157361 0.560310 -0.003403
v 0.181990 0.456253 -0.033255
v 0.174222 0.457001 -0.069500
v 0.177118 0.401337 -0.035046
v 0.167832 0.394684 -0.068093
v 0.157051 0.336014 -0.065523
v 0.162126 0.454361 -0.000525
v 0.141316 0.568405 0.005894
v 0.132862 0.526749 0.013846
v 0.138854 0.587135 0.005270
v 0.128161 0.573624 0.019312
v 0.161085 0.529923 -0.002217
v 0.133270 0.514717 0.007414
v 0.130607 0.553787 0.017850
v 0.111852 0.542801 0.031326
v 0.108905 0.565048 0.034549
v 0.115466 0.517380 0.025754
v 0.113395 0.499603 0.016612
v 0.116131 0.496307 0.000917
v 0.107181 0.490730 0.003830
v 0.131316 0.450440 0.006072
v 0.162269 0.401764 -0.004241
v 0.135631 0.397850 0.002323
v 0.163504 0.333321 -0.029297
v 0.156869 0.332199 -0.015244
v 0.136490 0.331802 -0.012128
v 0.156678 0.305130 -0.017785
v 0.130280 0.306137 -0.017066
v 0.165612 0.307648 -0.037429
v 0.155248 0.312759 -0.069539
v 0.147696 0.278793 -0.033689
v 0.128905 0.282410 -0.032229
v 0.156427 0.283943 -0.050116
v 0.151020 0.292381 -0.076807
v 0.135398 0.221275 -0.057212
v 0.110135 0.222443 -0.050129
v 0.152310 0.225510 -0.079917
v 0.148514 0.233131 -0.105134
v 0.108905 0.565048 0.034549
v 0.084220 0.564125 0.042456
v 0.111852 0.542801 0.031326
v 0.087973 0.543694 0.039969
v 0.093647 0.517403 0.034653
v 0.115466 0.517380 0.025754
v 0.113395 0.499603 0.016612
v 0.067944 0.550980 0.043996
v 0.063036 0.570801 0.044834
v 0.039995 0.578751 0.043741
v 0.094702 0.487335 0.015942
v 0.107181 0.490730 0.003830
v 0.055530 0.536140 0.049808
v 0.083435 0.503525 0.037004
v 0.068460 0.443092 0.058966
v 0.044304 0.454208 0.076084
v 0.057150 0.516075 0.052324
v 0.027256 0.518791 0.051770
v 0.033577 0.542503 0.048820
v 0.010476 0.544563 0.032583
v 0.014978 0.582138 0.023532
v 0.004566 0.514114 0.036944
v 0.006876 0.458115 0.069530
v -0.015979 0.453407 0.040646
v -0.000528 0.406288 0.080218
v -0.020616 0.394424 0.054455
v -0.023185 0.338501 0.069563
v 0.032805 0.405228 0.089389
v 0.053840 0.394371 0.075038
v -0.000504 0.339508 0.097991
v 0.014164 0.337151 0.102821
v 0.029500 0.330971 0.090658
v 0.007745 0.309471 0.107900
v 0.025373 0.303459 0.089104
v -0.012083 0.314133 0.100867
v -0.028313 0.316139 0.071532
v -0.003613 0.280853 0.095001
v 0.010575 0.279854 0.082232
v -0.020577 0.288445 0.088960
v -0.034751 0.296295 0.066681
v -0.024170 0.222527 0.075171
v -0.002216 0.217827 0.061514
v -0.051003 0.231857 0.071350
v -0.065284 0.240265 0.050158
v 0.017194 0.454819 -0.081399
v 0.072670 0.521675 -0.105832
v 0.077990 0.467285 -0.119904
v 0.017601 0.513329 -0.073187
v -0.005840 0.456688 -0.052160
v 0.072075 0.554863 -0.094098
v -0.003854 0.516792 -0.046646
v 0.020287 0.552315 -0.065850
v 0.052163 0.581642 -0.067625
v 0.001490 0.553543 -0.042944
v 0.025141 0.579201 -0.051499
v 0.006935 0.577721 -0.033527
v 0.052163 0.581642 -0.067625
v 0.079673 0.590958 -0.079754
v 0.072075 0.554863 -0.094098
v 0.103873 0.598595 -0.083814
v 0.101359 0.572044 -0.098539
v 0.103602 0.537895 -0.111430
v 0.072670 0.521675 -0.105832
v 0.110335 0.480980 -0.127613
v 0.077990 0.467285 -0.119904
v 0.108543 0.578796 0.039395
v 0.135808 0.544388 0.025268
v 0.129850 0.587303 0.023371
v 0.143384 0.595635 0.007193
v 0.151971 0.550468 0.009126
v 0.140257 0.511375 0.031406
v 0.157299 0.520325 0.010742
v 0.145275 0.470917 0.037325
v 0.162915 0.478149 0.012771
v 0.084617 0.467239 0.078915
v 0.057906 0.506836 0.076093
v 0.060534 0.466873 0.090774
v 0.080987 0.506699 0.067756
v 0.145275 0.470917 0.037325
v 0.056677 0.535622 0.065058
v 0.140257 0.511375 0.031406
v 0.078126 0.535622 0.059963
v 0.059482 0.577538 0.050906
v 0.135808 0.544388 0.025268
v 0.081920 0.576988 0.048046
v 0.108543 0.578796 0.039395
v 0.069635 0.508553 -0.062303
v 0.089955 0.492561 -0.028784
v 0.065108 0.479698 -0.041736
v 0.083230 0.476784 -0.011558
v 0.107181 0.490730 0.003830
v 0.094702 0.487335 0.015942
v 0.050210 0.411095 -0.017189
v 0.067091 0.424393 0.007712
v 0.068460 0.443092 0.058966
v 0.053840 0.394371 0.075038
v 0.050468 0.370522 0.030830
v 0.035740 0.360748 0.010856
v 0.029500 0.330971 0.090658
v 0.032478 0.322479 0.054473
v 0.014619 0.320869 0.036223
v 0.025373 0.303459 0.089104
v 0.025277 0.301430 0.061944
v 0.010366 0.303703 0.040471
v 0.005226 0.286728 0.033552
v 0.010575 0.279854 0.082232
v 0.017956 0.281761 0.053771
v -0.010662 0.231148 0.004086
v 0.005645 0.220017 0.036006
v -0.002216 0.217827 0.061514
v 0.069635 0.508553 -0.062303
v 0.086407 0.495575 -0.058804
v 0.089955 0.492561 -0.028784
v 0.098436 0.489685 -0.025764
v 0.107181 0.490730 0.003830
v 0.116131 0.496307 0.000917
v 0.078801 0.437805 -0.059545
v 0.089894 0.445671 -0.029284
v 0.131316 0.450440 0.006072
v 0.135631 0.397850 0.002323
v 0.099027 0.386910 -0.030698
v 0.090945 0.381432 -0.055838
v 0.136490 0.331802 -0.012128
v 0.106145 0.333237 -0.033953
v 0.104006 0.334106 -0.059283
v 0.130280 0.306137 -0.017066
v 0.109959 0.309692 -0.035940
v 0.104385 0.313728 -0.062043
v 0.098553 0.295525 -0.069742
v 0.128905 0.282410 -0.032229
v 0.103936 0.289978 -0.046181
v 0.077028 0.239891 -0.096522
v 0.087067 0.228813 -0.062195
v 0.110135 0.222443 -0.050129
f 1 2 3
f 3 4 1
f 4 3 5
f 6 1 4
f 5 7 4
f 7 5 8
f 8 9 7
f 10 7 9
f 7 10 4
f 9 11 10
f 4 12 6
f 4 10 12
f 13 6 12
f 12 14 13
f 14 12 10
f 15 13 14
f 16 10 11
f 10 16 14
f 11 17 16
f 18 16 17
f 17 19 18
f 20 18 19
f 16 21 14
f 19 22 20
f 14 23 15
f 23 14 21
f 21 20 23
f 24 15 23
f 23 25 24
f 25 23 20
f 26 24 25
f 25 27 26
f 25 20 27
f 28 26 27
f 29 20 22
f 27 20 29
f 22 30 29
f 31 29 30
f 31 27 29
f 30 32 31
f 27 33 28
f 33 27 31
f 34 28 33
f 33 35 34
f 33 36 35
f 33 31 36
f 36 31 32
f 32 37 36
f 38 39 40
f 39 38 41
f 41 42 39
f 43 41 38
f 42 41 44
f 44 45 42
f 45 44 46
f 47 46 44
f 44 41 47
f 46 47 48
f 41 43 49
f 41 49 47
f 50 49 43
f 49 50 51
f 51 47 49
f 52 51 50
f 53 48 47
f 47 51 53
f 48 53 54
f 55 54 53
f 54 55 56
f 57 56 55
f 53 51 58
f 56 57 59
f 51 52 60
f 60 58 51
f 58 60 57
f 61 60 52
f 60 61 62
f 62 57 60
f 63 62 61
f 62 63 64
f 62 64 57
f 65 64 63
f 66 59 57
f 64 66 57
f 59 66 67
f 68 67 66
f 68 66 64
f 67 68 69
f 64 65 70
f 70 68 64
f 71 70 65
f 70 71 72
f 70 72 73
f 70 73 68
f 73 69 68
f 69 73 74
f 75 76 77
f 77 78 75
f 78 77 79
f 80 75 78
f 79 81 78
f 81 79 82
f 82 83 81
f 78 84 80
f 84 78 81
f 85 80 84
f 84 86 85
f 87 81 83
f 81 87 84
f 86 84 87
f 83 88 87
f 87 89 86
f 89 87 88
f 88 90 89
f 91 92 93
f 92 91 94
f 94 95 92
f 96 94 91
f 95 94 97
f 97 98 95
f 98 97 99
f 94 96 100
f 100 97 94
f 101 100 96
f 100 101 102
f 103 99 97
f 97 100 103
f 102 103 100
f 99 103 104
f 103 102 105
f 105 104 103
f 104 105 106
f 107 108 109
f 108 107 110
f 108 110 111
f 111 112 108
f 111 113 112
f 113 111 114
f 115 110 107
f 116 114 111
f 117 110 115
f 117 111 110
f 111 118 116
f 118 111 117
f 119 116 118
f 120 117 115
f 117 120 118
f 115 121 120
f 118 122 119
f 118 120 122
f 119 122 123
f 120 121 124
f 124 122 120
f 125 124 121
f 126 124 125
f 127 123 122
f 124 127 122
f 123 127 128
f 124 126 129
f 129 127 124
f 130 128 127
f 127 129 130
f 131 129 126
f 126 132 131
f 133 128 130
f 134 128 133
f 130 129 135
f 131 135 129
f 136 131 132
f 132 137 136
f 138 134 133
f 139 134 138
f 130 140 133
f 140 130 135
f 141 135 131
f 136 141 131
f 142 136 137
f 143 142 137
f 142 143 144
f 140 145 133
f 138 133 145
f 140 135 146
f 146 135 141
f 145 140 146
f 139 138 147
f 139 147 148
f 142 149 136
f 149 141 136
f 150 142 144
f 150 149 142
f 151 150 144
f 146 141 152
f 145 146 152
f 152 141 149
f 138 145 153
f 147 138 153
f 145 152 153
f 147 154 148
f 147 153 154
f 155 148 154
f 156 150 151
f 151 157 156
f 158 149 150
f 158 152 149
f 156 158 150
f 153 152 159
f 159 152 158
f 154 153 159
f 159 158 156
f 154 160 155
f 154 159 160
f 159 156 160
f 160 156 157
f 155 160 161
f 157 161 160
f 162 163 164
f 164 165 162
f 164 166 165
f 166 164 167
f 166 167 168
f 168 169 166
f 170 162 165
f 171 166 169
f 172 170 165
f 172 165 166
f 166 171 173
f 173 172 166
f 174 173 171
f 175 170 172
f 172 173 175
f 170 175 176
f 173 174 177
f 173 177 175
f 174 178 177
f 175 179 176
f 179 175 177
f 180 176 179
f 181 180 179
f 182 177 178
f 179 177 182
f 178 183 182
f 179 184 181
f 184 179 182
f 185 182 183
f 182 185 184
f 186 181 184
f 181 186 187
f 188 185 183
f 189 188 183
f 185 190 184
f 186 184 190
f 191 187 186
f 187 191 192
f 193 188 189
f 194 193 189
f 185 188 195
f 195 190 185
f 196 186 190
f 191 186 196
f 197 192 191
f 198 192 197
f 197 199 198
f 195 188 200
f 193 200 188
f 195 201 190
f 201 196 190
f 200 201 195
f 194 202 193
f 194 203 202
f 197 191 204
f 204 191 196
f 205 199 197
f 205 197 204
f 206 199 205
f 201 207 196
f 200 207 201
f 207 204 196
f 193 208 200
f 202 208 193
f 200 208 207
f 202 203 209
f 202 209 208
f 210 209 203
f 211 206 205
f 206 211 212
f 213 205 204
f 213 204 207
f 211 205 213
f 208 214 207
f 214 213 207
f 209 214 208
f 214 211 213
f 210 215 209
f 209 215 214
f 214 215 211
f 215 212 211
f 210 216 215
f 212 215 216
f 217 218 219
f 219 220 217
f 220 221 217
f 222 217 221
f 220 219 223
f 221 220 223
f 221 224 222
f 225 222 224
f 226 225 224
f 225 226 227
f 228 227 226
f 224 221 229
f 226 224 229
f 230 223 219
f 223 230 231
f 232 230 219
f 232 233 230
f 223 234 221
f 234 229 221
f 223 235 234
f 235 223 231
f 229 234 235
f 233 236 230
f 236 231 230
f 233 237 236
f 237 231 236
f 238 237 233
f 239 231 237
f 239 240 231
f 231 240 241
f 241 235 231
f 242 241 240
f 243 235 241
f 235 243 229
f 244 229 243
f 229 244 226
f 243 245 244
f 246 226 244
f 226 246 228
f 247 244 245
f 244 247 246
f 245 248 247
f 249 247 248
f 247 249 246
f 248 250 249
f 246 251 228
f 251 246 249
f 252 228 251
f 253 249 250
f 249 253 251
f 250 254 253
f 251 255 252
f 255 251 253
f 256 252 255
f 257 253 254
f 253 257 255
f 254 258 257
f 259 255 257
f 255 259 256
f 260 256 259
f 261 262 263
f 262 264 263
f 263 264 265
f 266 263 265
f 266 265 267
f 262 268 264
f 264 268 265
f 269 268 262
f 269 270 268
f 265 271 267
f 272 267 271
f 273 265 268
f 268 270 273
f 271 265 274
f 274 265 273
f 275 271 274
f 274 276 275
f 273 277 274
f 276 274 277
f 273 278 277
f 277 278 276
f 279 273 270
f 278 273 279
f 270 280 279
f 279 280 278
f 280 270 281
f 282 278 280
f 278 282 283
f 283 276 278
f 284 283 282
f 285 283 284
f 285 276 283
f 284 286 285
f 287 285 286
f 288 275 276
f 276 285 288
f 275 288 289
f 285 287 290
f 290 288 285
f 291 289 288
f 288 290 291
f 289 291 292
f 293 292 291
f 291 290 293
f 292 293 294
f 290 287 295
f 295 293 290
f 296 295 287
f 297 294 293
f 293 295 297
f 294 297 298
f 295 296 299
f 299 297 295
f 300 299 296
f 301 298 297
f 297 299 301
f 298 301 302
f 303 301 299
f 299 300 303
f 304 303 300
f 305 306 307
f 306 305 308
f 309 308 305
f 308 310 306
f 308 309 311
f 310 308 312
f 311 312 308
f 312 313 310
f 312 311 314
f 313 312 315
f 312 314 316
f 316 315 312
f 317 318 319
f 320 319 318
f 319 320 321
f 319 321 322
f 322 323 319
f 323 322 324
f 324 325 323
f 326 327 328
f 329 328 327
f 327 330 329
f 330 327 331
f 331 332 330
f 332 331 333
f 333 334 332
f 335 336 337
f 336 335 338
f 339 338 335
f 338 340 336
f 338 339 341
f 340 338 342
f 341 342 338
f 342 343 340
f 342 341 344
f 343 342 345
f 342 344 346
f 346 345 342
f 347 348 349
f 350 349 348
f 350 348 351
f 350 351 352
f 353 349 350
f 354 350 352
f 350 354 353
f 352 355 354
f 356 354 355
f 357 353 354
f 356 357 354
f 353 357 358
f 359 357 356
f 360 358 357
f 357 359 360
f 358 360 361
f 362 360 359
f 363 361 360
f 360 362 363
f 361 363 364
f 364 363 365
f 366 363 362
f 367 365 363
f 363 366 367
f 365 367 368
f 369 368 367
f 367 366 369
f 370 369 366
f 371 372 373
f 374 373 372
f 374 375 373
f 374 376 375
f 377 374 372
f 378 376 374
f 374 377 378
f 376 378 379
f 380 379 378
f 381 378 377
f 380 378 381
f 377 382 381
f 383 380 381
f 384 381 382
f 381 384 383
f 382 385 384
f 386 383 384
f 387 384 385
f 384 387 386
f 385 388 387
f 388 389 387
f 390 386 387
f 391 387 389
f 387 391 390
f 389 392 391
f 393 391 392
f 391 393 390
f 394 390 393
