v 0.066319 0.815414 0.273870
v 0.066241 0.809341 0.285929
v 0.064593 0.791267 0.287085
v 0.065397 0.804123 0.250688
v 0.068717 0.784325 0.266150
v 0.077452 0.793068 0.242922
v 0.060828 0.765915 0.280685
v 0.052553 0.775131 0.296937
v 0.079507 0.764885 0.249979
v 0.110754 0.787369 0.233277
v 0.043164 0.758553 0.287465
v 0.039309 0.771889 0.298883
v 0.046971 0.719513 0.269791
v 0.072490 0.731789 0.258948
v 0.101727 0.751701 0.233604
v 0.128740 0.779862 0.216435
v 0.071232 0.695046 0.266231
v 0.049657 0.682060 0.262483
v 0.131927 0.753479 0.222012
v 0.167715 0.781784 0.201474
v 0.178671 0.757134 0.214005
v 0.164548 0.729797 0.220473
v 0.108620 0.708015 0.252925
v 0.074159 0.637276 0.253078
v 0.053248 0.635681 0.253783
v 0.140652 0.721291 0.227030
v 0.164390 0.696037 0.207458
v 0.123497 0.655914 0.233093
v 0.076578 0.603996 0.225998
v 0.049720 0.607163 0.233693
v 0.145623 0.684540 0.212047
v 0.165579 0.680420 0.183988
v 0.072802 0.599854 0.210711
v 0.045817 0.597267 0.224208
v 0.063107 0.605812 0.213386
v 0.036172 0.600319 0.218496
v 0.061370 0.593048 0.203070
v 0.031033 0.580345 0.196933
v 0.144557 0.649826 0.192581
v 0.151212 0.668373 0.188457
v 0.142674 0.645668 0.178136
v 0.129933 0.625870 0.200810
v 0.153285 0.673714 0.168310
v 0.166452 0.683449 0.163779
v 0.132986 0.720390 0.130076
v 0.123238 0.693245 0.133295
v 0.123788 0.616699 0.189570
v 0.112613 0.616158 0.178169
v 0.123472 0.630364 0.163540
v 0.112804 0.657860 0.114288
v 0.091269 0.599670 0.182178
v 0.111353 0.603066 0.148318
v 0.103492 0.631722 0.107402
v 0.098067 0.585129 0.093270
v 0.087567 0.577797 0.161633
v 0.100690 0.579338 0.144043
v 0.063802 0.570259 0.170232
v 0.097088 0.553284 0.129211
v 0.103285 0.571579 0.088129
v 0.076440 0.560646 0.156490
v 0.064294 0.541779 0.167428
v 0.022266 0.541107 0.186699
v 0.094603 0.534905 0.110814
v 0.099513 0.552094 0.080686
v 0.086946 0.518005 0.133105
v 0.075688 0.526390 0.140565
v 0.058540 0.506767 0.147670
v 0.016965 0.500725 0.158922
v 0.025996 0.774109 0.299286
v 0.043164 0.758553 0.287465
v 0.039309 0.771889 0.298883
v 0.023469 0.762116 0.290318
v 0.011137 0.789223 0.291914
v 0.046971 0.719513 0.269791
v 0.018472 0.723709 0.279684
v 0.006832 0.778030 0.282060
v 0.032599 0.689240 0.281061
v 0.049657 0.682060 0.262483
v 0.035982 0.631622 0.267733
v 0.053248 0.635681 0.253783
v -0.006026 0.691338 0.296933
v 0.024497 0.596443 0.245990
v 0.049720 0.607163 0.233693
v -0.016791 0.635658 0.286944
v 0.018100 0.591934 0.231709
v 0.045817 0.597267 0.224208
v 0.010363 0.600906 0.228926
v 0.036172 0.600319 0.218496
v 0.007942 0.588081 0.218872
v 0.031033 0.580345 0.196933
v -0.036215 0.593727 0.250990
v -0.035538 0.594902 0.235039
v -0.065328 0.620354 0.262688
v -0.035312 0.602135 0.264242
v -0.029270 0.588448 0.217988
v -0.058430 0.625816 0.275208
v -0.056360 0.604561 0.232572
v -0.009297 0.563454 0.192016
v -0.034743 0.566406 0.197599
v -0.023806 0.538361 0.185556
v 0.022266 0.541107 0.186699
v -0.065182 0.586632 0.200393
v -0.040533 0.556107 0.180470
v -0.026385 0.503677 0.162487
v 0.016965 0.500725 0.158922
v -0.045009 0.521889 0.163360
v -0.058530 0.512695 0.159136
v -0.070117 0.546974 0.160968
v -0.074617 0.528740 0.140729
v -0.069182 0.572746 0.178392
v -0.092451 0.564186 0.125608
v -0.090823 0.545151 0.114522
v -0.086705 0.578064 0.129678
v -0.085534 0.614136 0.162702
v -0.090957 0.634262 0.185705
v -0.093474 0.665558 0.214914
v -0.084804 0.653694 0.279056
v -0.104590 0.686356 0.233303
v -0.100833 0.666206 0.290439
v -0.089185 0.671738 0.303750
v -0.070641 0.655304 0.292448
v -0.057537 0.676834 0.302062
v -0.079812 0.690895 0.311136
v -0.054004 0.705559 0.300706
v -0.081013 0.720474 0.311074
v -0.055041 0.730782 0.292213
v -0.104069 0.743729 0.307895
v -0.104524 0.756699 0.293425
v -0.061532 0.756699 0.287905
v -0.025122 0.735672 0.281251
v -0.038773 0.768646 0.289629
v -0.000836 0.752853 0.280820
v -0.011210 0.779800 0.276957
v -0.001108 0.797356 0.267849
v 0.005212 0.813065 0.279544
v 0.007816 0.807098 0.291097
v -0.001108 0.797356 0.267849
v 0.005212 0.813065 0.279544
v 0.016283 0.814362 0.262742
v 0.002853 0.802445 0.255345
v 0.025808 0.809143 0.238164
v 0.033390 0.812775 0.250422
v 0.016737 0.806572 0.225433
v -0.011266 0.793877 0.255011
v -0.011210 0.779800 0.276957
v -0.028921 0.795815 0.233545
v 0.012196 0.808205 0.214624
v -0.052365 0.790611 0.261373
v -0.038773 0.768646 0.289629
v -0.061532 0.756699 0.287905
v -0.039334 0.788467 0.195178
v 0.000484 0.792641 0.178324
v -0.074846 0.785751 0.221885
v -0.085100 0.782738 0.248311
v -0.112887 0.772873 0.268915
v -0.104524 0.756699 0.293425
v -0.115612 0.779938 0.241718
v -0.034512 0.772842 0.153577
v -0.004899 0.768059 0.154762
v -0.014265 0.708305 0.096641
v -0.106933 0.773300 0.211189
v -0.141365 0.753998 0.207670
v -0.075038 0.767265 0.167565
v -0.116390 0.745682 0.185530
v -0.156265 0.710495 0.195083
v -0.145227 0.698593 0.188754
v -0.030907 0.712639 0.095184
v -0.012086 0.660408 0.075407
v -0.066646 0.709496 0.107334
v -0.111263 0.705521 0.131783
v -0.024260 0.662476 0.075373
v -0.003600 0.607216 0.071626
v -0.049494 0.660294 0.078783
v -0.030083 0.610924 0.068717
v -0.003384 0.578392 0.062652
v -0.084884 0.645073 0.106490
v -0.124570 0.662560 0.162519
v -0.093474 0.665558 0.214914
v -0.104590 0.686356 0.233303
v -0.090957 0.634262 0.185705
v -0.093539 0.622749 0.140147
v -0.085534 0.614136 0.162702
v -0.086705 0.578064 0.129678
v -0.075050 0.605843 0.092254
v -0.028622 0.582832 0.058218
v -0.075843 0.578018 0.085760
v -0.092451 0.564186 0.125608
v -0.090823 0.545151 0.114522
v -0.077687 0.560608 0.076530
v -0.047453 0.564385 0.054464
v -0.022191 0.564552 0.047381
v -0.005634 0.564865 0.045210
v 0.025808 0.809143 0.238164
v 0.033390 0.812775 0.250422
v 0.052437 0.815743 0.259847
v 0.055043 0.807747 0.242110
v 0.016737 0.806572 0.225433
v 0.065397 0.804123 0.250688
v 0.066319 0.815414 0.273870
v 0.059102 0.804436 0.227476
v 0.077452 0.793068 0.242922
v 0.057691 0.808601 0.200298
v 0.012196 0.808205 0.214624
v 0.098187 0.809456 0.204628
v 0.110754 0.787369 0.233277
v 0.128740 0.779862 0.216435
v 0.041405 0.800385 0.163662
v 0.000484 0.792641 0.178324
v 0.085271 0.808998 0.160422
v 0.115255 0.807022 0.172448
v 0.154656 0.803223 0.175629
v 0.167715 0.781784 0.201474
v 0.134568 0.811432 0.149867
v 0.014606 0.780167 0.134723
v -0.004899 0.768059 0.154762
v -0.014265 0.708305 0.096641
v 0.054195 0.786034 0.117957
v 0.109347 0.803932 0.132874
v 0.137261 0.797073 0.106469
v 0.104477 0.775307 0.101793
v 0.145948 0.766136 0.076983
v 0.134458 0.751686 0.076686
v -0.003320 0.716034 0.085641
v -0.012086 0.660408 0.075407
v 0.032191 0.721649 0.073578
v 0.082363 0.729057 0.065302
v -0.002424 0.664520 0.068560
v -0.003600 0.607216 0.071626
v 0.020642 0.666824 0.058137
v 0.019160 0.612839 0.058705
v -0.003384 0.578392 0.062652
v 0.067247 0.659226 0.061690
v 0.118805 0.690674 0.077465
v 0.123238 0.693245 0.133295
v 0.132986 0.720390 0.130076
v 0.112804 0.657860 0.114288
v 0.096110 0.640411 0.084084
v 0.103492 0.631722 0.107402
v 0.098067 0.585129 0.093270
v 0.069998 0.611481 0.062726
v 0.018062 0.584595 0.049713
v 0.071325 0.584801 0.056987
v 0.103285 0.571579 0.088129
v 0.099513 0.552094 0.080686
v 0.073100 0.566109 0.050029
v 0.036841 0.567459 0.039366
v 0.010740 0.565758 0.041540
v -0.005634 0.564865 0.045210
v -0.122624 0.668198 0.229242
v -0.145227 0.698593 0.188754
v -0.104590 0.686356 0.233303
v -0.152505 0.664642 0.208285
v -0.128002 0.618935 0.250658
v -0.156265 0.710495 0.195083
v -0.163242 0.611389 0.223913
v -0.140999 0.570953 0.277091
v -0.173309 0.569672 0.245037
v -0.150205 0.552765 0.283763
v -0.183385 0.683525 0.227984
v -0.194822 0.633957 0.241789
v -0.199988 0.586617 0.261031
v -0.180234 0.721382 0.221544
v -0.141365 0.753998 0.207670
v -0.156462 0.758949 0.228632
v -0.115612 0.779938 0.241718
v -0.152988 0.764023 0.263910
v -0.112887 0.772873 0.268915
v -0.179646 0.746460 0.260545
v -0.148277 0.752358 0.296621
v -0.104524 0.756699 0.293425
v -0.190631 0.687264 0.251686
v -0.188669 0.663391 0.254071
v -0.185021 0.679306 0.289805
v -0.202418 0.640175 0.264579
v -0.129894 0.728890 0.316239
v -0.104069 0.743729 0.307895
v -0.081013 0.720474 0.311074
v -0.177520 0.725586 0.291633
v -0.145698 0.706528 0.319690
v -0.182155 0.658333 0.290797
v -0.100887 0.705147 0.320272
v -0.079812 0.690895 0.311136
v -0.111547 0.689682 0.323840
v -0.089185 0.671738 0.303750
v -0.151803 0.673485 0.313665
v -0.124322 0.672676 0.319853
v -0.100833 0.666206 0.290439
v -0.149621 0.661491 0.314920
v -0.132144 0.661369 0.313441
v -0.180801 0.636643 0.310675
v -0.149203 0.632309 0.332019
v -0.104521 0.660507 0.301269
v -0.195033 0.639961 0.295740
v -0.111967 0.660187 0.269608
v -0.104590 0.686356 0.233303
v -0.122624 0.668198 0.229242
v -0.190207 0.605629 0.313763
v -0.204325 0.605545 0.298784
v -0.206442 0.579178 0.305873
v -0.208439 0.598259 0.276827
v -0.117415 0.615067 0.318771
v -0.119811 0.615204 0.282556
v -0.128002 0.618935 0.250658
v -0.140999 0.570953 0.277091
v -0.164172 0.598053 0.332535
v -0.136540 0.582550 0.321405
v -0.149059 0.569328 0.313658
v -0.150205 0.552765 0.283763
v -0.171905 0.581276 0.322951
v -0.143321 0.562477 0.316686
v -0.143482 0.537384 0.295827
v -0.177713 0.581604 0.333026
v -0.134462 0.554009 0.346235
v -0.134457 0.523163 0.324789
v -0.170519 0.573013 0.361645
v -0.212772 0.571945 0.322424
v -0.207194 0.556038 0.356372
v -0.210884 0.516426 0.330068
v -0.210438 0.538216 0.291716
v -0.179287 0.497612 0.314278
v -0.211397 0.557465 0.271164
v -0.186533 0.541901 0.256912
v -0.186697 0.524300 0.279988
v -0.143482 0.537384 0.295827
v -0.134457 0.523163 0.324789
v 0.146150 0.719948 0.103056
v 0.132986 0.720390 0.130076
v 0.134458 0.751686 0.076686
v 0.157532 0.751755 0.067306
v 0.161068 0.699722 0.073794
v 0.145948 0.766136 0.076983
v 0.175657 0.726090 0.038905
v 0.184338 0.666168 0.045510
v 0.194173 0.701744 0.016630
v 0.195539 0.654533 0.030749
v 0.194010 0.764252 0.076839
v 0.212632 0.742462 0.053477
v 0.225987 0.711426 0.028999
v 0.182496 0.784538 0.088058
v 0.137261 0.797073 0.106469
v 0.161322 0.804337 0.113969
v 0.134568 0.811432 0.149867
v 0.184605 0.801506 0.146350
v 0.154656 0.803223 0.175629
v 0.206511 0.791275 0.126435
v 0.204322 0.781418 0.175916
v 0.167715 0.781784 0.201474
v 0.214498 0.763893 0.095126
v 0.215337 0.752129 0.085389
v 0.231179 0.732956 0.116442
v 0.231430 0.734863 0.067705
v 0.204370 0.746712 0.196818
v 0.178671 0.757134 0.214005
v 0.164548 0.729797 0.220473
v 0.225752 0.763001 0.146246
v 0.217924 0.722916 0.175925
v 0.229487 0.722008 0.104539
v 0.183682 0.709732 0.204237
v 0.164390 0.696037 0.207458
v 0.192800 0.693687 0.186092
v 0.165579 0.680420 0.183988
v 0.218016 0.702530 0.143462
v 0.199362 0.686310 0.162652
v 0.166452 0.683449 0.163779
v 0.215367 0.695458 0.133496
v 0.201048 0.684670 0.144222
v 0.238482 0.693436 0.100041
v 0.223385 0.664185 0.121003
v 0.171597 0.680512 0.149251
v 0.242162 0.711136 0.088168
v 0.160751 0.696381 0.128832
v 0.132986 0.720390 0.130076
v 0.146150 0.719948 0.103056
v 0.246737 0.681442 0.073859
v 0.250584 0.697853 0.061399
v 0.255872 0.678406 0.043155
v 0.242042 0.710815 0.043234
v 0.188860 0.648544 0.112813
v 0.171152 0.673058 0.091890
v 0.161068 0.699722 0.073794
v 0.184338 0.666168 0.045510
v 0.234486 0.653809 0.085884
v 0.204474 0.640930 0.077530
v 0.211586 0.642159 0.058586
v 0.195539 0.654533 0.030749
v 0.236323 0.652298 0.064781
v 0.208871 0.631531 0.054921
v 0.195772 0.633858 0.023861
v 0.247190 0.645828 0.065840
v 0.218912 0.602394 0.059958
v 0.204929 0.602196 0.025576
v 0.258256 0.617912 0.070483
v 0.269572 0.665146 0.041034
v 0.284094 0.630997 0.041736
v 0.269855 0.631630 -0.003531
v 0.248679 0.668526 -0.000109
v 0.233930 0.618195 -0.015369
v 0.239989 0.693581 0.006887
v 0.210531 0.683846 -0.003771
v 0.221691 0.658783 -0.009102
v 0.195772 0.633858 0.023861
v 0.204929 0.602196 0.025576
f 1 2 3
f 4 1 3
f 3 5 4
f 6 4 5
f 3 7 5
f 3 8 7
f 5 9 6
f 10 6 9
f 8 11 7
f 8 12 11
f 7 11 13
f 5 7 14
f 5 14 9
f 7 13 14
f 15 10 9
f 15 9 14
f 15 16 10
f 14 13 17
f 17 13 18
f 19 16 15
f 19 20 16
f 20 19 21
f 21 19 22
f 23 15 14
f 14 17 23
f 23 19 15
f 24 17 18
f 23 17 24
f 24 18 25
f 19 26 22
f 26 19 23
f 22 26 27
f 23 24 28
f 28 26 23
f 24 25 29
f 28 24 29
f 29 25 30
f 26 31 27
f 31 26 28
f 27 31 32
f 33 29 30
f 33 30 34
f 35 33 34
f 36 35 34
f 37 35 36
f 37 36 38
f 39 31 28
f 32 31 40
f 40 31 39
f 39 41 40
f 42 39 28
f 28 29 42
f 42 41 39
f 43 32 40
f 40 41 43
f 43 44 32
f 43 45 44
f 46 45 43
f 41 46 43
f 47 42 29
f 47 41 42
f 47 29 33
f 48 47 33
f 48 41 47
f 35 48 33
f 49 46 41
f 48 49 41
f 49 50 46
f 35 51 48
f 49 48 51
f 37 51 35
f 50 49 52
f 49 51 52
f 50 52 53
f 53 52 54
f 37 55 51
f 55 52 51
f 54 52 56
f 56 52 55
f 55 37 57
f 57 37 38
f 58 54 56
f 59 54 58
f 56 55 60
f 60 55 57
f 60 58 56
f 38 61 57
f 61 60 57
f 62 61 38
f 59 58 63
f 59 63 64
f 63 58 65
f 66 58 60
f 58 66 65
f 66 60 61
f 67 65 66
f 66 61 67
f 67 61 62
f 67 62 68
f 69 70 71
f 69 72 70
f 73 72 69
f 72 74 70
f 72 75 74
f 73 76 72
f 76 75 72
f 75 77 74
f 77 78 74
f 79 78 77
f 79 80 78
f 75 81 77
f 81 79 77
f 79 82 80
f 82 83 80
f 81 84 79
f 84 82 79
f 85 83 82
f 85 86 83
f 87 86 85
f 88 86 87
f 89 88 87
f 89 90 88
f 91 85 82
f 85 92 87
f 92 85 91
f 92 91 93
f 91 82 94
f 84 94 82
f 91 94 93
f 87 92 95
f 89 87 95
f 94 84 96
f 94 96 93
f 92 93 97
f 97 95 92
f 98 90 89
f 89 95 99
f 99 98 89
f 90 98 100
f 101 90 100
f 97 102 95
f 99 95 102
f 103 98 99
f 100 98 103
f 104 101 100
f 104 105 101
f 106 104 100
f 106 100 103
f 104 106 107
f 108 107 106
f 106 103 108
f 109 107 108
f 110 103 99
f 110 99 102
f 103 110 108
f 111 109 108
f 111 112 109
f 111 108 113
f 108 110 113
f 113 110 102
f 114 113 102
f 115 114 102
f 115 102 97
f 97 116 115
f 97 93 116
f 93 117 116
f 116 117 118
f 117 119 118
f 117 120 119
f 121 117 93
f 117 121 120
f 96 121 93
f 120 121 122
f 121 96 122
f 123 120 122
f 96 84 122
f 124 123 122
f 122 84 124
f 125 123 124
f 84 81 124
f 126 125 124
f 124 81 126
f 127 125 126
f 128 127 126
f 126 129 128
f 81 130 126
f 126 130 129
f 81 75 130
f 130 131 129
f 130 75 132
f 130 132 131
f 131 132 133
f 76 132 75
f 76 133 132
f 133 76 134
f 73 134 76
f 134 73 135
f 135 73 136
f 137 138 139
f 137 139 140
f 140 139 141
f 141 139 142
f 143 140 141
f 137 140 144
f 143 144 140
f 144 145 137
f 143 146 144
f 143 147 146
f 144 148 145
f 144 146 148
f 149 145 148
f 150 149 148
f 147 151 146
f 147 152 151
f 153 148 146
f 151 153 146
f 154 150 148
f 154 148 153
f 150 154 155
f 156 150 155
f 155 154 157
f 153 157 154
f 152 158 151
f 159 158 152
f 159 160 158
f 153 161 157
f 162 157 161
f 151 163 153
f 153 163 161
f 158 163 151
f 161 164 162
f 161 163 164
f 164 165 162
f 166 165 164
f 160 167 158
f 167 160 168
f 158 169 163
f 167 169 158
f 170 164 163
f 170 166 164
f 170 163 169
f 167 168 171
f 167 171 169
f 171 168 172
f 169 171 173
f 170 169 173
f 171 172 174
f 173 171 174
f 175 174 172
f 170 173 176
f 176 173 174
f 166 170 177
f 177 170 176
f 178 166 177
f 178 179 166
f 177 180 178
f 177 181 180
f 177 176 181
f 180 181 182
f 181 183 182
f 181 176 184
f 176 174 184
f 181 184 183
f 175 185 174
f 185 184 174
f 186 183 184
f 185 186 184
f 187 183 186
f 186 188 187
f 186 189 188
f 190 189 186
f 185 190 186
f 191 190 185
f 175 191 185
f 175 192 191
f 193 194 195
f 196 193 195
f 197 193 196
f 198 196 195
f 198 195 199
f 198 200 196
f 197 196 200
f 200 198 201
f 197 200 202
f 197 202 203
f 200 201 204
f 200 204 202
f 205 204 201
f 206 204 205
f 203 202 207
f 203 207 208
f 209 202 204
f 207 202 209
f 210 204 206
f 210 209 204
f 206 211 210
f 212 211 206
f 211 213 210
f 209 210 213
f 208 207 214
f 215 208 214
f 215 214 216
f 207 209 217
f 214 207 217
f 209 213 218
f 209 218 217
f 219 218 213
f 218 219 220
f 218 220 217
f 220 219 221
f 222 220 221
f 216 214 223
f 223 224 216
f 214 217 225
f 223 214 225
f 226 217 220
f 226 220 222
f 225 217 226
f 223 227 224
f 223 225 227
f 227 228 224
f 225 229 227
f 226 229 225
f 227 230 228
f 229 230 227
f 231 228 230
f 226 232 229
f 232 230 229
f 222 233 226
f 233 232 226
f 234 233 222
f 234 222 235
f 233 234 236
f 233 236 237
f 233 237 232
f 236 238 237
f 237 238 239
f 237 240 232
f 232 240 230
f 237 239 240
f 231 230 241
f 241 230 240
f 242 240 239
f 241 240 242
f 242 239 243
f 242 243 244
f 242 244 245
f 246 242 245
f 241 242 246
f 247 241 246
f 231 241 247
f 231 247 248
f 249 250 251
f 249 252 250
f 253 252 249
f 252 254 250
f 255 252 253
f 255 253 256
f 256 257 255
f 257 256 258
f 259 254 252
f 255 260 252
f 259 252 260
f 261 255 257
f 261 260 255
f 254 259 262
f 254 262 263
f 262 264 263
f 264 265 263
f 264 266 265
f 265 266 267
f 268 264 262
f 268 266 264
f 269 267 266
f 266 268 269
f 270 267 269
f 271 262 259
f 271 268 262
f 259 260 272
f 272 271 259
f 268 271 273
f 273 271 272
f 272 260 274
f 260 261 274
f 275 270 269
f 275 276 270
f 276 275 277
f 269 268 278
f 268 273 278
f 269 278 279
f 269 279 275
f 278 273 279
f 273 272 280
f 272 274 280
f 275 281 277
f 277 281 282
f 283 281 275
f 281 283 282
f 279 283 275
f 283 284 282
f 279 273 285
f 285 283 279
f 285 273 280
f 283 286 284
f 285 286 283
f 287 284 286
f 288 286 285
f 288 285 280
f 286 289 287
f 289 286 288
f 280 290 288
f 288 291 289
f 291 288 290
f 287 289 292
f 292 289 291
f 280 293 290
f 280 274 293
f 294 287 292
f 294 295 287
f 296 295 294
f 290 293 297
f 291 290 297
f 274 298 293
f 293 298 297
f 297 298 299
f 274 300 298
f 298 300 299
f 261 300 274
f 300 261 299
f 294 292 301
f 301 292 291
f 296 294 302
f 302 294 301
f 303 296 302
f 304 303 302
f 297 305 291
f 305 301 291
f 302 301 306
f 304 302 306
f 305 306 301
f 307 304 306
f 307 306 305
f 308 304 307
f 305 297 309
f 299 309 297
f 309 307 305
f 310 308 307
f 311 308 310
f 312 307 309
f 310 307 312
f 313 311 310
f 313 314 311
f 315 313 310
f 315 310 312
f 312 309 316
f 315 312 316
f 316 309 299
f 317 315 316
f 318 317 316
f 318 316 319
f 316 299 319
f 320 318 319
f 299 321 319
f 261 321 299
f 321 261 257
f 321 257 322
f 319 321 322
f 258 322 257
f 319 322 323
f 322 258 323
f 320 319 323
f 324 323 258
f 320 323 324
f 325 320 324
f 326 327 328
f 326 328 329
f 330 326 329
f 329 328 331
f 332 330 329
f 332 333 330
f 333 332 334
f 334 335 333
f 336 329 331
f 332 329 337
f 336 337 329
f 338 334 332
f 338 332 337
f 331 339 336
f 331 340 339
f 339 340 341
f 341 340 342
f 341 342 343
f 342 344 343
f 345 339 341
f 345 341 343
f 346 343 344
f 346 345 343
f 346 344 347
f 348 336 339
f 348 339 345
f 336 349 337
f 349 336 348
f 345 350 348
f 350 349 348
f 349 351 337
f 337 351 338
f 352 346 347
f 352 347 353
f 353 354 352
f 346 355 345
f 345 355 350
f 346 356 355
f 352 356 346
f 355 356 350
f 357 349 350
f 349 357 351
f 352 354 358
f 354 359 358
f 360 352 358
f 358 359 360
f 356 352 360
f 360 359 361
f 356 362 350
f 362 356 360
f 362 357 350
f 360 361 363
f 362 360 363
f 364 363 361
f 365 362 363
f 365 357 362
f 363 364 366
f 366 365 363
f 357 365 367
f 365 366 368
f 368 367 365
f 364 369 366
f 369 368 366
f 357 367 370
f 357 370 351
f 371 369 364
f 371 364 372
f 373 371 372
f 367 374 370
f 368 374 367
f 351 370 375
f 370 374 375
f 374 376 375
f 351 375 377
f 375 376 377
f 338 351 377
f 377 376 338
f 371 378 369
f 378 368 369
f 373 379 371
f 379 378 371
f 380 379 373
f 381 379 380
f 374 368 382
f 382 368 378
f 379 383 378
f 381 383 379
f 382 378 383
f 384 383 381
f 384 382 383
f 385 384 381
f 382 386 374
f 376 374 386
f 386 382 384
f 387 384 385
f 388 387 385
f 389 386 384
f 387 389 384
f 390 387 388
f 390 388 391
f 392 387 390
f 392 389 387
f 389 393 386
f 392 393 389
f 393 376 386
f 394 393 392
f 395 393 394
f 395 396 393
f 393 396 376
f 397 396 395
f 376 396 398
f 338 376 398
f 398 334 338
f 398 399 334
f 396 399 398
f 335 334 399
f 396 400 399
f 399 400 335
f 397 400 396
f 401 335 400
f 397 401 400
f 402 401 397
