v -0.061740 0.601410 0.005910
v -0.093068 0.593185 -0.054241
v -0.093400 0.605087 -0.015933
v -0.042424 0.594688 0.005818
v -0.079982 0.584190 -0.069202
v -0.056714 0.577194 -0.068196
v -0.026799 0.586105 -0.005934
v -0.023610 0.574356 -0.044292
v 0.177118 0.575874 -0.101470
v 0.159987 0.566696 -0.092278
v 0.167216 0.533424 -0.103422
v 0.186175 0.539978 -0.120114
v 0.184640 0.583412 -0.119002
v 0.177713 0.495171 -0.113204
v 0.176918 0.588509 -0.156833
v 0.193330 0.500305 -0.125999
v 0.178661 0.493439 -0.116184
v 0.178667 0.540512 -0.152274
v 0.141652 0.576767 -0.172062
v 0.148721 0.534264 -0.166930
v 0.122779 0.567291 -0.166386
v 0.185847 0.500847 -0.155030
v 0.192370 0.497536 -0.131906
v 0.182489 0.495926 -0.153218
v 0.205357 0.481987 -0.130092
v 0.183618 0.484840 -0.110764
v 0.191400 0.468491 -0.109567
v 0.133413 0.528091 -0.143794
v 0.114719 0.559311 -0.144463
v 0.145786 0.490540 -0.154820
v 0.165429 0.496979 -0.171774
v 0.160675 0.492615 -0.165765
v 0.147483 0.487732 -0.149718
v 0.168709 0.457520 -0.176172
v 0.153560 0.455658 -0.154666
v 0.209976 0.456780 -0.116698
v 0.192304 0.465553 -0.110960
v 0.204823 0.456749 -0.117858
v 0.193810 0.446892 -0.123045
v 0.216082 0.459068 -0.139962
v 0.197895 0.461380 -0.163839
v 0.170846 0.439011 -0.173331
v 0.173260 0.438561 -0.178965
v 0.199063 0.432190 -0.167949
v 0.217059 0.431793 -0.146614
v 0.211902 0.431755 -0.140973
v 0.203253 0.435562 -0.128761
v 0.162766 0.440201 -0.161338
v 0.207816 0.426338 -0.137312
v 0.193246 0.431938 -0.158917
v 0.196028 0.428398 -0.124419
v 0.168302 0.431145 -0.169739
v 0.158386 0.441124 -0.151288
v 0.190194 0.426552 -0.154607
v 0.195084 0.417282 -0.128241
v 0.177039 0.420441 -0.141189
v 0.156181 0.430283 -0.155672
v 0.190900 0.419220 -0.122451
v 0.153486 0.432365 -0.149407
v 0.157409 0.446106 -0.144637
v 0.152016 0.442986 -0.139952
v 0.173599 0.422127 -0.135161
v 0.152016 0.442986 -0.139952
v 0.169903 0.432877 -0.125374
v 0.169329 0.447090 -0.118354
v 0.184249 0.438049 -0.110483
v 0.185478 0.429771 -0.114093
v 0.192520 0.433952 -0.119934
v 0.190774 0.441597 -0.116649
v 0.204823 0.456749 -0.117858
v 0.192304 0.465553 -0.110960
v 0.192670 0.460312 -0.107962
v 0.202552 0.452599 -0.115940
v 0.193810 0.446892 -0.123045
v 0.182018 0.449867 -0.103351
v 0.191705 0.440918 -0.107069
v 0.179275 0.445885 -0.103344
v 0.190151 0.440949 -0.115887
v 0.188909 0.437401 -0.106519
v 0.167969 0.434654 -0.116786
v 0.172695 0.429260 -0.119123
v 0.173786 0.432694 -0.125819
v 0.184640 0.583412 -0.119002
v 0.176918 0.588509 -0.156833
v 0.141652 0.576767 -0.172062
v 0.177118 0.575874 -0.101470
v 0.122779 0.567291 -0.166386
v 0.114719 0.559311 -0.144463
v 0.159987 0.566696 -0.092278
v 0.123484 0.554985 -0.104940
v -0.056714 0.577194 -0.068196
v -0.061949 0.545807 -0.050496
v -0.079982 0.584190 -0.069202
v -0.089515 0.550842 -0.045668
v -0.093068 0.593185 -0.054241
v -0.075266 0.507752 -0.043292
v -0.088231 0.557289 -0.012687
v -0.093400 0.605087 -0.015933
v -0.061443 0.557968 0.007365
v -0.061740 0.601410 0.005910
v -0.042424 0.594688 0.005818
v -0.038439 0.552338 -0.003557
v -0.026799 0.586105 -0.005934
v -0.050678 0.514160 0.002710
v -0.068782 0.517716 0.011751
v -0.058671 0.517181 0.003686
v -0.092012 0.516403 -0.006528
v -0.098840 0.512131 -0.032151
v -0.089590 0.504105 -0.011119
v -0.078586 0.511482 0.007669
v -0.088470 0.501175 -0.036131
v -0.068266 0.506187 -0.039703
v -0.075868 0.495209 0.019179
v -0.053075 0.511429 0.010429
v -0.045518 0.495377 0.019558
v -0.082405 0.463135 -0.035321
v -0.058706 0.474541 -0.037619
v -0.057375 0.477150 0.030908
v -0.046149 0.491951 0.019277
v -0.055128 0.478157 0.025862
v -0.048249 0.470413 0.013807
v -0.076519 0.468384 0.023613
v -0.071119 0.445824 -0.031808
v -0.057823 0.452911 -0.034297
v -0.087588 0.464661 -0.003519
v -0.076895 0.442627 -0.032206
v -0.078667 0.438446 -0.002760
v -0.070463 0.445396 0.023380
v -0.063223 0.448372 0.021124
v -0.050504 0.458305 0.017810
v -0.055921 0.445091 0.019367
v -0.068219 0.442726 -0.004155
v -0.041098 0.453857 0.014723
v -0.063749 0.439880 -0.032022
v -0.047693 0.453239 -0.032433
v -0.060734 0.439705 -0.004413
v -0.039494 0.442429 0.015153
v -0.041837 0.439446 -0.006960
v -0.046333 0.441612 -0.034000
v -0.033910 0.446327 0.013010
v -0.040961 0.445953 -0.033971
v -0.044599 0.460724 -0.031528
v -0.037070 0.460175 -0.033372
v -0.036245 0.443199 -0.008061
v -0.037070 0.460175 -0.033372
v -0.031056 0.457604 -0.009530
v -0.030828 0.473496 -0.009617
v -0.028456 0.469048 0.008824
v -0.029079 0.459862 0.009586
v -0.038546 0.460899 0.012174
v -0.037984 0.469330 0.010912
v -0.055128 0.478157 0.025862
v -0.041786 0.488045 0.021786
v -0.046149 0.491951 0.019277
v -0.050386 0.475655 0.025611
v -0.048249 0.470413 0.013807
v -0.029690 0.480232 0.019235
v -0.035942 0.468857 0.023727
v -0.026560 0.477020 0.017511
v -0.040573 0.466774 0.016090
v -0.032523 0.466164 0.022415
v -0.022623 0.464996 0.001878
v -0.025639 0.458298 0.003559
v -0.031561 0.459366 -0.000968
v 0.123484 0.554985 -0.104940
v 0.167216 0.533424 -0.103422
v 0.159987 0.566696 -0.092278
v 0.137286 0.525490 -0.115992
v 0.177713 0.495171 -0.113204
v 0.133413 0.528091 -0.143794
v 0.114719 0.559311 -0.144463
v 0.145786 0.490540 -0.154820
v 0.151157 0.488121 -0.125500
v 0.147483 0.487732 -0.149718
v 0.156749 0.487373 -0.126601
v 0.178661 0.493439 -0.116184
v 0.153560 0.455658 -0.154666
v 0.183618 0.484840 -0.110764
v 0.165231 0.460106 -0.123580
v 0.184324 0.436531 -0.145031
v 0.162766 0.440201 -0.161338
v 0.158386 0.441124 -0.151288
v 0.179724 0.452423 -0.119206
v 0.191400 0.468491 -0.109567
v 0.193810 0.446892 -0.123045
v 0.184595 0.455338 -0.117415
v 0.192304 0.465553 -0.110960
v 0.203253 0.435562 -0.128761
v 0.192670 0.460312 -0.107962
v 0.180061 0.450157 -0.112537
v 0.193810 0.446892 -0.123045
v 0.182018 0.449867 -0.103351
v 0.190151 0.440949 -0.115887
v 0.173786 0.432694 -0.125819
v 0.179275 0.445885 -0.103344
v 0.168947 0.438202 -0.123438
v 0.167969 0.434654 -0.116786
v 0.173786 0.432694 -0.125819
v 0.172695 0.429260 -0.119123
v 0.178614 0.431160 -0.137086
v 0.196028 0.428398 -0.124419
v 0.157409 0.446106 -0.144637
v 0.175683 0.436188 -0.131777
v 0.192520 0.433952 -0.119934
v 0.175223 0.449921 -0.124801
v 0.190774 0.441597 -0.116649
v 0.169329 0.447090 -0.118354
v 0.184249 0.438049 -0.110483
v 0.152016 0.442986 -0.139952
v 0.157409 0.446106 -0.144637
v -0.023610 0.574356 -0.044292
v -0.061949 0.545807 -0.050496
v -0.056714 0.577194 -0.068196
v -0.037831 0.544281 -0.035695
v -0.075266 0.507752 -0.043292
v -0.038439 0.552338 -0.003557
v -0.026799 0.586105 -0.005934
v -0.050678 0.514160 0.002710
v -0.050790 0.507286 -0.026536
v -0.068266 0.506187 -0.039703
v -0.054169 0.512932 -0.020009
v -0.058671 0.517181 0.003686
v -0.058706 0.474541 -0.037619
v -0.053075 0.511429 0.010429
v -0.042561 0.488915 -0.011912
v -0.054352 0.454117 -0.006863
v -0.057823 0.452911 -0.034297
v -0.047693 0.453239 -0.032433
v -0.039294 0.480644 0.004093
v -0.045518 0.495377 0.019558
v -0.048249 0.470413 0.013807
v -0.042286 0.482513 0.008903
v -0.046149 0.491951 0.019277
v -0.050504 0.458305 0.017810
v -0.041786 0.488045 0.021786
v -0.034268 0.478363 0.011055
v -0.048249 0.470413 0.013807
v -0.029690 0.480232 0.019235
v -0.040573 0.466774 0.016090
v -0.031561 0.459366 -0.000968
v -0.026560 0.477020 0.017511
v -0.028545 0.466148 -0.002648
v -0.022623 0.464996 0.001878
v -0.031561 0.459366 -0.000968
v -0.025639 0.458298 0.003559
v -0.043494 0.450600 -0.006847
v -0.041098 0.453857 0.014723
v -0.044599 0.460724 -0.031528
v -0.039900 0.457687 -0.007704
v -0.038546 0.460899 0.012174
v -0.039847 0.472992 -0.008247
v -0.037984 0.469330 0.010912
v -0.030828 0.473496 -0.009617
v -0.028456 0.469048 0.008824
v -0.037070 0.460175 -0.033372
v -0.044599 0.460724 -0.031528
v -0.071119 0.445824 -0.031808
v -0.076895 0.442627 -0.032206
v -0.082405 0.463135 -0.035321
v -0.068219 0.442726 -0.004155
v -0.078667 0.438446 -0.002760
v -0.063223 0.448372 0.021124
v -0.070463 0.445396 0.023380
v -0.076519 0.468384 0.023613
v 0.216082 0.459068 -0.139962
v 0.211902 0.431755 -0.140973
v 0.217059 0.431793 -0.146614
v 0.199063 0.432190 -0.167949
v 0.193246 0.431938 -0.158917
v 0.173260 0.438561 -0.178965
v 0.170846 0.439011 -0.173331
v 0.168709 0.457520 -0.176172
f 1 2 3
f 1 4 2
f 2 4 5
f 5 4 6
f 6 4 7
f 6 7 8
f 9 10 11
f 11 12 9
f 13 9 12
f 12 11 14
f 15 13 12
f 14 16 12
f 17 16 14
f 15 12 18
f 18 12 16
f 19 15 18
f 19 18 20
f 21 19 20
f 18 16 22
f 20 18 22
f 16 17 23
f 16 23 22
f 22 23 24
f 25 23 17
f 24 23 25
f 25 17 26
f 26 27 25
f 28 21 20
f 29 21 28
f 30 28 20
f 20 22 31
f 30 20 31
f 22 24 31
f 31 32 30
f 31 24 32
f 30 32 33
f 34 33 32
f 24 34 32
f 33 34 35
f 36 25 27
f 36 27 37
f 37 38 36
f 39 36 38
f 25 36 40
f 25 40 24
f 39 40 36
f 34 24 41
f 40 41 24
f 34 42 35
f 34 41 43
f 44 43 41
f 45 44 41
f 41 40 45
f 46 40 39
f 39 47 46
f 48 35 42
f 46 47 49
f 46 49 50
f 47 51 49
f 52 48 42
f 52 53 48
f 50 54 42
f 54 50 49
f 52 42 54
f 49 55 54
f 55 49 51
f 54 56 52
f 56 54 55
f 53 52 57
f 57 52 56
f 58 55 51
f 55 58 56
f 53 57 59
f 53 59 60
f 61 60 59
f 56 62 57
f 59 57 62
f 62 56 58
f 59 62 63
f 63 62 64
f 62 58 64
f 64 65 63
f 65 64 66
f 58 51 67
f 64 58 67
f 67 66 64
f 67 51 68
f 67 68 66
f 69 66 68
f 70 71 72
f 73 70 72
f 70 73 74
f 72 75 73
f 73 76 74
f 73 75 76
f 75 77 76
f 78 74 76
f 77 79 76
f 76 79 78
f 79 77 80
f 80 81 79
f 79 81 78
f 82 78 81
f 83 84 85
f 83 85 86
f 85 87 86
f 87 88 86
f 88 89 86
f 88 90 89
f 91 92 93
f 92 94 93
f 93 94 95
f 96 94 92
f 95 94 97
f 95 97 98
f 98 97 99
f 98 99 100
f 100 99 101
f 102 101 99
f 101 102 103
f 99 104 102
f 104 99 105
f 97 105 99
f 106 104 105
f 94 107 97
f 97 107 105
f 96 108 94
f 94 108 107
f 107 108 109
f 105 107 110
f 105 110 106
f 107 109 110
f 108 96 111
f 108 111 109
f 96 112 111
f 113 106 110
f 109 113 110
f 113 114 106
f 114 113 115
f 116 111 112
f 109 111 116
f 112 117 116
f 118 115 113
f 118 119 115
f 119 118 120
f 121 120 118
f 113 122 118
f 113 109 122
f 121 118 122
f 116 117 123
f 124 123 117
f 116 125 109
f 122 109 125
f 116 126 125
f 127 125 126
f 128 125 127
f 125 128 122
f 129 121 122
f 121 129 130
f 129 131 130
f 129 132 131
f 130 131 133
f 134 123 124
f 134 124 135
f 132 123 136
f 136 131 132
f 134 136 123
f 131 136 137
f 137 133 131
f 136 134 138
f 138 137 136
f 135 139 134
f 139 138 134
f 140 133 137
f 137 138 140
f 135 141 139
f 135 142 141
f 143 141 142
f 138 139 144
f 141 144 139
f 144 140 138
f 141 145 144
f 145 146 144
f 144 146 140
f 146 145 147
f 147 148 146
f 140 149 133
f 146 149 140
f 149 146 148
f 149 150 133
f 149 148 150
f 151 150 148
f 152 153 154
f 155 153 152
f 152 156 155
f 153 155 157
f 155 156 158
f 155 158 157
f 157 158 159
f 160 158 156
f 159 158 161
f 158 160 161
f 161 162 159
f 162 161 163
f 161 160 163
f 164 163 160
f 165 166 167
f 165 168 166
f 169 166 168
f 165 170 168
f 165 171 170
f 168 170 172
f 168 172 173
f 169 168 173
f 172 174 173
f 175 169 173
f 173 174 175
f 169 175 176
f 177 175 174
f 175 178 176
f 175 177 179
f 175 179 178
f 177 180 179
f 180 177 181
f 181 182 180
f 178 179 183
f 183 184 178
f 179 185 183
f 185 179 180
f 184 183 186
f 185 186 183
f 186 187 184
f 180 188 185
f 189 187 186
f 186 190 189
f 186 191 190
f 192 189 190
f 193 190 191
f 193 194 190
f 195 192 190
f 196 190 194
f 190 196 195
f 197 195 196
f 196 198 197
f 199 197 198
f 180 200 188
f 200 180 182
f 201 188 200
f 182 202 200
f 200 203 201
f 203 200 202
f 204 201 203
f 205 203 202
f 203 205 204
f 206 204 205
f 205 207 206
f 208 206 207
f 207 205 209
f 210 209 205
f 211 212 213
f 211 214 212
f 214 215 212
f 211 216 214
f 211 217 216
f 218 214 216
f 214 219 215
f 218 219 214
f 215 219 220
f 221 219 218
f 219 221 220
f 218 222 221
f 223 220 221
f 221 222 224
f 221 225 223
f 221 224 225
f 223 225 226
f 226 227 223
f 227 226 228
f 224 229 225
f 229 224 230
f 225 229 231
f 231 226 225
f 230 232 229
f 231 229 232
f 232 230 233
f 226 231 234
f 235 232 233
f 232 235 236
f 232 236 237
f 238 236 235
f 239 237 236
f 239 236 240
f 241 236 238
f 242 240 236
f 236 241 242
f 243 242 241
f 242 243 244
f 245 244 243
f 226 234 246
f 246 228 226
f 247 246 234
f 228 246 248
f 246 247 249
f 249 248 246
f 250 249 247
f 251 248 249
f 249 250 251
f 252 251 250
f 251 252 253
f 254 253 252
f 253 255 251
f 256 251 255
f 257 258 259
f 260 258 257
f 258 260 261
f 262 261 260
f 261 262 263
f 264 263 262
f 265 266 267
f 268 267 266
f 266 269 268
f 270 268 269
f 269 271 270
f 271 272 270
