v -0.099059 0.002106 0.020758
v -0.061874 0.000725 -0.003976
v -0.059038 0.000259 0.015333
v -0.100527 0.002472 0.000924
v -0.085268 0.002106 -0.013825
v 0.103523 -0.000473 -0.151149
v 0.073253 -0.000862 -0.126454
v 0.082269 -0.000473 -0.150313
v 0.116607 -0.000526 -0.136820
v 0.085372 -0.000961 -0.111232
v 0.184585 -0.001602 -0.074524
v 0.172617 -0.001709 -0.040641
v 0.142336 -0.001617 -0.039477
v 0.112407 -0.000786 -0.066692
v 0.158628 -0.000648 -0.105355
v 0.095258 0.009583 -0.096720
v 0.130632 0.009735 -0.126513
v 0.083003 0.013046 -0.107184
v 0.118780 0.013725 -0.136608
v 0.118780 0.013725 -0.136608
v 0.083003 0.013046 -0.107184
v 0.085372 -0.000961 -0.111232
v 0.116607 -0.000526 -0.136820
v -0.100749 -0.000336 0.112413
v -0.046337 -0.000626 0.105647
v -0.067946 -0.000664 0.127018
v -0.045162 -0.000183 0.065447
v -0.104886 0.001152 0.072682
v -0.055018 0.010445 0.032619
v -0.101042 0.012222 0.037733
v -0.054114 0.014084 0.016581
v -0.099963 0.016380 0.022151
v -0.099963 0.016380 0.022151
v -0.059038 0.000259 0.015333
v -0.054114 0.014084 0.016581
v -0.099059 0.002106 0.020758
v -0.040406 0.260147 0.081927
v -0.049124 0.273453 0.026172
v -0.053371 0.268486 0.060753
v -0.011411 0.253586 0.091718
v -0.026441 0.268784 0.010666
v 0.008899 0.246109 0.072415
v 0.000331 0.259560 0.013987
v 0.016699 0.248344 0.046408
v -0.026441 0.268784 0.010666
v -0.054331 0.204605 -0.026223
v -0.049124 0.273453 0.026172
v -0.082192 0.208817 -0.000361
v -0.053371 0.268486 0.060753
v -0.088922 0.201172 0.052956
v -0.040406 0.260147 0.081927
v -0.068000 0.190384 0.075783
v -0.011411 0.253586 0.091718
v -0.035025 0.178459 0.082999
v 0.008899 0.246109 0.072415
v -0.009334 0.173447 0.064769
v 0.016699 0.248344 0.046408
v 0.003675 0.175873 0.032578
v 0.000331 0.259560 0.013987
v -0.017746 0.191986 -0.017777
v -0.026441 0.268784 0.010666
v -0.054331 0.204605 -0.026223
v 0.100154 0.272774 -0.106445
v 0.127485 0.271210 -0.112229
v 0.078350 0.208664 -0.147239
v 0.116449 0.204544 -0.149835
v 0.153992 0.261887 -0.091546
v 0.157733 0.190102 -0.117564
v 0.159041 0.254021 -0.066810
v 0.157976 0.181274 -0.086276
v 0.143985 0.250977 -0.040633
v 0.138947 0.175339 -0.056482
v 0.116699 0.251038 -0.036435
v 0.107909 0.177422 -0.049798
v 0.093228 0.257507 -0.048869
v 0.076489 0.185776 -0.062842
v 0.083128 0.268662 -0.083696
v 0.057863 0.202614 -0.113747
v 0.100154 0.272774 -0.106445
v 0.078350 0.208664 -0.147239
v 0.159041 0.254021 -0.066810
v 0.153992 0.261887 -0.091546
v 0.127485 0.271210 -0.112229
v 0.143985 0.250977 -0.040633
v 0.100154 0.272774 -0.106445
v 0.116699 0.251038 -0.036435
v 0.083128 0.268662 -0.083696
v 0.093228 0.257507 -0.048869
v -0.068457 0.160461 -0.042244
v -0.037267 0.240341 0.000177
v -0.025946 0.146042 -0.036073
v -0.010662 0.231148 0.004086
v -0.010585 0.136498 0.021316
v 0.005645 0.220017 0.036006
v -0.013298 0.131393 0.054784
v -0.002216 0.217827 0.061514
v -0.047719 0.137871 0.074797
v -0.024170 0.222527 0.075171
v -0.089236 0.152741 0.064060
v -0.051003 0.231857 0.071350
v -0.105881 0.162468 0.040114
v -0.065284 0.240265 0.050158
v -0.103742 0.166298 -0.015625
v -0.060968 0.244904 0.017120
v -0.068457 0.160461 -0.042244
v -0.037267 0.240341 0.000177
v 0.094001 0.244026 -0.118728
v 0.122699 0.242020 -0.125037
v 0.066951 0.164536 -0.165353
v 0.110671 0.160492 -0.172722
v 0.148514 0.233131 -0.105134
v 0.151532 0.150398 -0.136105
v 0.152310 0.225510 -0.079917
v 0.155702 0.141632 -0.106847
v 0.135398 0.221275 -0.057212
v 0.132969 0.134148 -0.068309
v 0.110135 0.222443 -0.050129
v 0.094425 0.136704 -0.056651
v 0.087067 0.228813 -0.062195
v 0.069514 0.145767 -0.077947
v 0.077028 0.239891 -0.096522
v 0.040371 0.158173 -0.129000
v 0.094001 0.244026 -0.118728
v 0.066951 0.164536 -0.165353
v -0.044097 0.209511 0.003845
v -0.084410 0.110985 -0.065410
v -0.064305 0.213783 0.014217
v -0.119495 0.119911 -0.035205
v -0.068356 0.209435 0.044538
v -0.121107 0.121536 0.029745
v -0.054926 0.201157 0.066580
v -0.102073 0.115151 0.059573
v -0.033392 0.194557 0.065113
v -0.060100 0.099861 0.070135
v -0.007551 0.187538 0.058855
v -0.025878 0.093964 0.046538
v -0.003870 0.191414 0.032337
v -0.021904 0.092804 0.013631
v -0.011883 0.198380 0.008739
v -0.038265 0.099159 -0.054880
v -0.044097 0.209511 0.003845
v -0.084410 0.110985 -0.065410
v 0.094510 0.212235 -0.119446
v 0.116285 0.211350 -0.126759
v 0.050025 0.114166 -0.188668
v 0.096732 0.114319 -0.194045
v 0.139796 0.203079 -0.109110
v 0.145415 0.108635 -0.151016
v 0.145021 0.195305 -0.083918
v 0.152939 0.102966 -0.116770
v 0.128394 0.193268 -0.068645
v 0.129697 0.095177 -0.077513
v 0.105422 0.192154 -0.053550
v 0.088789 0.098656 -0.068609
v 0.084609 0.199455 -0.069620
v 0.062176 0.101799 -0.088206
v 0.074203 0.207192 -0.092299
v 0.024512 0.109627 -0.147494
v 0.094510 0.212235 -0.119446
v 0.050025 0.114166 -0.188668
v -0.097804 0.051765 -0.075436
v -0.059513 0.166603 -0.009066
v -0.051492 0.044029 -0.065493
v -0.028227 0.155998 -0.005908
v -0.031345 0.053696 0.004703
v -0.019230 0.146469 0.026726
v -0.036720 0.062935 0.048608
v -0.024062 0.144653 0.044795
v -0.072578 0.075363 0.067603
v -0.047535 0.148842 0.061651
v -0.114621 0.081398 0.055498
v -0.074979 0.159119 0.052833
v -0.139425 0.079514 0.018471
v -0.086565 0.165245 0.040021
v -0.133772 0.064087 -0.048554
v -0.082453 0.169502 0.010200
v -0.097804 0.051765 -0.075436
v -0.059513 0.166603 -0.009066
v 0.044197 0.051880 -0.203168
v 0.018912 0.049324 -0.162081
v 0.086090 0.168785 -0.136612
v 0.065775 0.164215 -0.110508
v 0.056601 0.058189 -0.099664
v 0.081146 0.153229 -0.081366
v 0.093893 0.063866 -0.073707
v 0.097047 0.148605 -0.072302
v 0.132648 0.073265 -0.087537
v 0.125578 0.146271 -0.078024
v 0.153033 0.076233 -0.126744
v 0.139662 0.151856 -0.104351
v 0.142641 0.070229 -0.169826
v 0.139122 0.156937 -0.122449
v 0.088996 0.058601 -0.211473
v 0.116013 0.165039 -0.139730
v 0.044197 0.051880 -0.203168
v 0.086090 0.168785 -0.136612
v -0.041913 0.119659 0.042233
v -0.059651 0.122978 0.054272
v -0.070640 0.087013 0.052214
v -0.055775 0.087395 0.038140
v -0.047084 0.129120 0.001853
v -0.056138 0.072800 0.042986
v -0.071503 0.072792 0.058822
v -0.059351 0.092361 -0.002852
v -0.066205 0.135635 -0.002314
v -0.079566 0.094635 -0.008168
v -0.060242 0.076073 -0.007218
v -0.081393 0.077934 -0.015312
v -0.049953 0.044777 0.074085
v -0.072306 0.053062 0.080574
v -0.052548 0.045418 0.034286
v -0.060152 0.015312 -0.010390
v -0.085544 0.017433 -0.019995
v -0.061874 0.000725 -0.003976
v -0.085268 0.002106 -0.013825
v -0.059038 0.000259 0.015333
v -0.054114 0.014084 0.016581
v -0.055018 0.010445 0.032619
v -0.044462 0.017258 0.067270
v -0.045162 -0.000183 0.065447
v -0.044953 0.017563 0.107208
v -0.046337 -0.000626 0.105647
v -0.067946 -0.000664 0.127018
v -0.067588 0.015846 0.128972
v -0.052141 0.040436 0.108921
v -0.069837 0.044083 0.111530
v -0.081311 0.130005 0.046896
v -0.070640 0.087013 0.052214
v -0.059651 0.122978 0.054272
v -0.090538 0.089600 0.043638
v -0.083820 0.137955 0.010725
v -0.092793 0.074768 0.047642
v -0.071503 0.072792 0.058822
v -0.096681 0.094704 0.003109
v -0.066205 0.135635 -0.002314
v -0.079566 0.094635 -0.008168
v -0.099746 0.078156 -0.001468
v -0.081393 0.077934 -0.015312
v -0.097801 0.045753 0.079900
v -0.072306 0.053062 0.080574
v -0.102096 0.048080 0.041799
v -0.102346 0.017441 -0.005177
v -0.085544 0.017433 -0.019995
v -0.100527 0.002472 0.000924
v -0.085268 0.002106 -0.013825
v -0.099059 0.002106 0.020758
v -0.099963 0.016380 0.022151
v -0.101042 0.012222 0.037733
v -0.105212 0.019028 0.074899
v -0.104886 0.001152 0.072682
v -0.100627 0.017471 0.113412
v -0.100749 -0.000336 0.112413
v -0.067946 -0.000664 0.127018
v -0.067588 0.015846 0.128972
v -0.093932 0.040337 0.114503
v -0.069837 0.044083 0.111530
v -0.041913 0.119659 0.042233
v -0.059651 0.122978 0.054272
v -0.071935 0.080368 0.062125
v -0.048165 0.077164 0.046725
v -0.072554 0.064987 0.070731
v -0.052789 0.059258 0.054776
v -0.041668 0.078613 0.014942
v -0.047084 0.129120 0.001853
v -0.038106 0.059769 0.009913
v -0.048238 0.039474 0.037338
v -0.034024 0.032814 0.013054
v -0.053322 0.081444 -0.014058
v -0.066205 0.135635 -0.002314
v -0.081800 0.085640 -0.023524
v -0.051836 0.066223 -0.021428
v -0.048584 0.022812 -0.022153
v -0.083277 0.069656 -0.029757
v -0.084152 0.021057 -0.032036
v -0.081311 0.130005 0.046896
v -0.071935 0.080368 0.062125
v -0.059651 0.122978 0.054272
v -0.098552 0.084740 0.049330
v -0.072554 0.064987 0.070731
v -0.096481 0.062447 0.058472
v -0.112096 0.090698 0.027332
v -0.083820 0.137955 0.010725
v -0.120935 0.070190 0.022357
v -0.107058 0.043732 0.043181
v -0.129507 0.036026 0.022509
v -0.106282 0.092453 -0.004189
v -0.066205 0.135635 -0.002314
v -0.081800 0.085640 -0.023524
v -0.112867 0.071526 -0.013168
v -0.118064 0.026047 -0.012742
v -0.083277 0.069656 -0.029757
v -0.084152 0.021057 -0.032036
v 0.133321 0.122856 -0.111332
v 0.122799 0.119484 -0.090033
v 0.120797 0.084282 -0.097633
v 0.128584 0.084839 -0.117882
v 0.110421 0.133980 -0.138629
v 0.132027 0.071396 -0.116065
v 0.125465 0.070908 -0.092625
v 0.104329 0.090889 -0.150412
v 0.088964 0.136559 -0.134577
v 0.084589 0.093323 -0.145973
v 0.101606 0.074814 -0.155120
v 0.079176 0.076141 -0.151218
v 0.159271 0.044159 -0.096188
v 0.142387 0.052010 -0.077154
v 0.100503 0.014336 -0.157312
v 0.078232 0.014755 -0.155039
v 0.132524 0.044304 -0.125670
v 0.103523 -0.000473 -0.151149
v 0.082269 -0.000473 -0.150313
v 0.116607 -0.000526 -0.136820
v 0.118780 0.013725 -0.136608
v 0.130632 0.009735 -0.126513
v 0.160696 0.017242 -0.104057
v 0.158628 -0.000648 -0.105355
v 0.185277 0.016205 -0.073743
v 0.184585 -0.001602 -0.074524
v 0.172617 -0.001709 -0.040641
v 0.173887 0.014816 -0.039036
v 0.181373 0.039108 -0.068584
v 0.162748 0.042984 -0.053066
v 0.101692 0.121010 -0.085069
v 0.120797 0.084282 -0.097633
v 0.122799 0.119484 -0.090033
v 0.100805 0.087021 -0.096235
v 0.078242 0.133492 -0.116863
v 0.103695 0.072258 -0.092114
v 0.125465 0.070908 -0.092625
v 0.074734 0.093246 -0.127023
v 0.088964 0.136559 -0.134577
v 0.084589 0.093323 -0.145973
v 0.070424 0.075798 -0.130075
v 0.079176 0.076141 -0.151218
v 0.122134 0.044144 -0.065196
v 0.142387 0.052010 -0.077154
v 0.067506 0.013695 -0.130524
v 0.078232 0.014755 -0.155039
v 0.093275 0.045486 -0.094390
v 0.073253 -0.000862 -0.126454
v 0.082269 -0.000473 -0.150313
v 0.085372 -0.000961 -0.111232
v 0.083003 0.013046 -0.107184
v 0.095258 0.009583 -0.096720
v 0.113449 0.016693 -0.065000
v 0.112407 -0.000786 -0.066692
v 0.142291 0.016586 -0.037891
v 0.142336 -0.001617 -0.039477
v 0.172617 -0.001709 -0.040641
v 0.173887 0.014816 -0.039036
v 0.148718 0.039421 -0.041927
v 0.162748 0.042984 -0.053066
v 0.101692 0.121010 -0.085069
v 0.128680 0.078346 -0.090721
v 0.122799 0.119484 -0.090033
v 0.101069 0.077133 -0.084307
v 0.134268 0.062943 -0.085021
v 0.108806 0.058945 -0.081523
v 0.073964 0.081047 -0.101099
v 0.078242 0.133492 -0.116863
v 0.065734 0.063141 -0.101078
v 0.092001 0.039879 -0.089194
v 0.066975 0.032463 -0.095801
v 0.061108 0.081718 -0.130160
v 0.088964 0.136559 -0.134577
v 0.074158 0.083855 -0.157137
v 0.054055 0.066834 -0.133206
v 0.051336 0.021461 -0.130070
v 0.069604 0.067963 -0.162188
v 0.068456 0.018272 -0.162793
v 0.133321 0.122856 -0.111332
v 0.122799 0.119484 -0.090033
v 0.128680 0.078346 -0.090721
v 0.137428 0.078865 -0.119707
v 0.134268 0.062943 -0.085021
v 0.141498 0.058769 -0.110809
v 0.131634 0.084084 -0.144680
v 0.110421 0.133980 -0.138629
v 0.132823 0.065048 -0.153505
v 0.136680 0.039612 -0.127788
v 0.139584 0.032272 -0.158715
v 0.105379 0.087845 -0.162322
v 0.088964 0.136559 -0.134577
v 0.074158 0.083855 -0.157137
v 0.101758 0.067398 -0.172438
v 0.105974 0.022255 -0.174057
v 0.069604 0.067963 -0.162188
v 0.068456 0.018272 -0.162793
f 1 2 3
f 1 4 2
f 4 5 2
f 6 7 8
f 9 7 6
f 9 10 7
f 11 12 13
f 11 13 14
f 11 14 15
f 16 15 14
f 16 17 15
f 18 17 16
f 18 19 17
f 20 21 22
f 22 23 20
f 24 25 26
f 24 27 25
f 24 28 27
f 29 27 28
f 29 28 30
f 31 29 30
f 31 30 32
f 33 34 35
f 34 33 36
f 37 38 39
f 37 40 38
f 38 40 41
f 41 40 42
f 43 41 42
f 43 42 44
f 45 46 47
f 48 47 46
f 47 48 49
f 50 49 48
f 49 50 51
f 52 51 50
f 51 52 53
f 54 53 52
f 53 54 55
f 56 55 54
f 55 56 57
f 58 57 56
f 57 58 59
f 60 59 58
f 59 60 61
f 62 61 60
f 63 64 65
f 66 65 64
f 64 67 66
f 68 66 67
f 67 69 68
f 70 68 69
f 69 71 70
f 72 70 71
f 71 73 72
f 74 72 73
f 73 75 74
f 76 74 75
f 75 77 76
f 78 76 77
f 77 79 78
f 80 78 79
f 81 82 83
f 81 83 84
f 83 85 84
f 85 86 84
f 87 86 85
f 87 88 86
f 89 90 91
f 92 91 90
f 91 92 93
f 94 93 92
f 93 94 95
f 96 95 94
f 95 96 97
f 98 97 96
f 97 98 99
f 100 99 98
f 99 100 101
f 102 101 100
f 101 102 103
f 104 103 102
f 103 104 105
f 106 105 104
f 107 108 109
f 110 109 108
f 108 111 110
f 112 110 111
f 111 113 112
f 114 112 113
f 113 115 114
f 116 114 115
f 115 117 116
f 118 116 117
f 117 119 118
f 120 118 119
f 119 121 120
f 122 120 121
f 121 123 122
f 124 122 123
f 125 126 127
f 128 127 126
f 127 128 129
f 130 129 128
f 129 130 131
f 132 131 130
f 131 132 133
f 134 133 132
f 133 134 135
f 136 135 134
f 135 136 137
f 138 137 136
f 137 138 139
f 140 139 138
f 139 140 141
f 142 141 140
f 143 144 145
f 146 145 144
f 144 147 146
f 148 146 147
f 147 149 148
f 150 148 149
f 149 151 150
f 152 150 151
f 151 153 152
f 154 152 153
f 153 155 154
f 156 154 155
f 155 157 156
f 158 156 157
f 157 159 158
f 160 158 159
f 161 162 163
f 164 163 162
f 163 164 165
f 166 165 164
f 165 166 167
f 168 167 166
f 167 168 169
f 170 169 168
f 169 170 171
f 172 171 170
f 171 172 173
f 174 173 172
f 173 174 175
f 176 175 174
f 175 176 177
f 178 177 176
f 179 180 181
f 182 181 180
f 180 183 182
f 184 182 183
f 183 185 184
f 186 184 185
f 185 187 186
f 188 186 187
f 187 189 188
f 190 188 189
f 189 191 190
f 192 190 191
f 191 193 192
f 194 192 193
f 193 195 194
f 196 194 195
f 197 198 199
f 199 200 197
f 201 197 200
f 199 202 200
f 202 199 203
f 200 204 201
f 205 201 204
f 204 206 205
f 200 207 204
f 206 204 207
f 207 200 202
f 207 208 206
f 202 203 209
f 203 210 209
f 207 202 211
f 202 209 211
f 208 207 212
f 211 212 207
f 212 213 208
f 214 213 212
f 213 214 215
f 212 216 214
f 216 212 217
f 212 211 217
f 218 217 211
f 219 218 211
f 211 209 219
f 218 219 220
f 221 220 219
f 219 209 221
f 220 221 222
f 221 223 222
f 224 223 221
f 221 209 225
f 225 224 221
f 209 210 225
f 226 224 225
f 226 225 210
f 227 228 229
f 228 227 230
f 231 230 227
f 228 230 232
f 232 233 228
f 230 231 234
f 235 234 231
f 234 235 236
f 230 234 237
f 236 237 234
f 237 232 230
f 237 236 238
f 232 239 233
f 233 239 240
f 237 241 232
f 232 241 239
f 238 242 237
f 241 237 242
f 242 238 243
f 244 242 243
f 243 245 244
f 242 244 246
f 246 247 242
f 242 247 241
f 248 241 247
f 249 241 248
f 241 249 239
f 248 250 249
f 251 249 250
f 249 251 239
f 250 252 251
f 251 252 253
f 254 251 253
f 251 255 239
f 255 251 254
f 239 255 240
f 256 255 254
f 256 240 255
f 257 258 259
f 259 260 257
f 261 260 259
f 260 261 262
f 260 263 257
f 264 257 263
f 262 265 260
f 260 265 263
f 265 262 266
f 266 267 265
f 263 268 264
f 263 265 268
f 269 264 268
f 268 270 269
f 265 267 271
f 268 265 271
f 268 271 270
f 271 267 272
f 270 271 273
f 271 272 274
f 273 271 274
f 275 276 277
f 276 275 278
f 279 276 278
f 278 280 279
f 278 275 281
f 282 281 275
f 280 278 283
f 278 281 283
f 283 284 280
f 284 283 285
f 281 282 286
f 281 286 283
f 287 286 282
f 286 287 288
f 283 289 285
f 286 289 283
f 286 288 289
f 289 290 285
f 288 291 289
f 289 292 290
f 291 292 289
f 293 294 295
f 295 296 293
f 297 293 296
f 295 298 296
f 298 295 299
f 296 300 297
f 301 297 300
f 300 302 301
f 296 303 300
f 302 300 303
f 303 296 298
f 303 304 302
f 298 299 305
f 299 306 305
f 304 303 307
f 307 308 304
f 303 298 309
f 298 305 309
f 309 307 303
f 310 308 307
f 308 310 311
f 307 312 310
f 312 307 313
f 307 309 313
f 314 313 309
f 315 314 309
f 309 305 315
f 314 315 316
f 317 316 315
f 315 305 317
f 316 317 318
f 317 319 318
f 320 319 317
f 317 305 321
f 321 320 317
f 305 306 321
f 322 320 321
f 322 321 306
f 323 324 325
f 324 323 326
f 327 326 323
f 324 326 328
f 328 329 324
f 326 327 330
f 331 330 327
f 330 331 332
f 326 330 333
f 332 333 330
f 333 328 326
f 333 332 334
f 328 335 329
f 329 335 336
f 334 337 333
f 337 334 338
f 333 339 328
f 328 339 335
f 339 333 337
f 340 337 338
f 338 341 340
f 337 340 342
f 342 343 337
f 337 343 339
f 344 339 343
f 345 339 344
f 339 345 335
f 344 346 345
f 347 345 346
f 345 347 335
f 346 348 347
f 347 348 349
f 350 347 349
f 347 351 335
f 351 347 350
f 335 351 336
f 352 351 350
f 352 336 351
f 353 354 355
f 354 353 356
f 357 354 356
f 356 358 357
f 356 353 359
f 360 359 353
f 358 356 361
f 356 359 361
f 361 362 358
f 362 361 363
f 359 360 364
f 359 364 361
f 365 364 360
f 364 365 366
f 361 367 363
f 364 367 361
f 364 366 367
f 367 368 363
f 366 369 367
f 367 370 368
f 369 370 367
f 371 372 373
f 373 374 371
f 375 374 373
f 374 375 376
f 374 377 371
f 378 371 377
f 376 379 374
f 374 379 377
f 379 376 380
f 380 381 379
f 377 382 378
f 377 379 382
f 383 378 382
f 382 384 383
f 379 381 385
f 382 379 385
f 382 385 384
f 385 381 386
f 384 385 387
f 385 386 388
f 387 385 388
