v -0.006807 0.791985 -0.007332
v 0.002132 0.797455 -0.033776
v -0.015113 0.795692 -0.024541
v 0.007052 0.792519 -0.011082
v 0.024799 0.804596 -0.051368
v 0.009330 0.786530 0.002688
v 0.036479 0.789276 -0.033885
v 0.036770 0.816704 -0.062763
v 0.040633 0.787689 -0.006713
v 0.037764 0.788651 -0.015549
v 0.058762 0.786377 -0.027271
v 0.043819 0.808785 -0.052916
v 0.034246 0.773171 0.017182
v 0.005944 0.768387 0.008172
v 0.021071 0.758263 0.020671
v 0.003717 0.757263 0.008503
v 0.003417 0.747887 -0.000796
v 0.069779 0.785103 -0.014240
v 0.047111 0.829285 -0.048426
v 0.046725 0.834892 -0.061354
v 0.044522 0.840431 -0.043248
v 0.045633 0.829674 -0.040014
v 0.053057 0.813194 -0.040771
v 0.056288 0.816338 -0.036782
v 0.065124 0.805260 -0.039650
v 0.065384 0.811287 -0.035566
v 0.065800 0.793953 -0.040956
v 0.053618 0.797440 -0.042033
v 0.071884 0.782814 -0.030216
v 0.082291 0.782303 -0.022181
v 0.074642 0.771530 0.001153
v 0.090063 0.767853 -0.007382
v 0.056066 0.772324 0.008283
v 0.088161 0.757378 0.020022
v 0.100620 0.750031 0.012625
v 0.072068 0.763710 0.023062
v 0.055605 0.764336 0.029904
v 0.042051 0.759277 0.036153
v 0.034371 0.744515 0.040670
v 0.062958 0.759399 0.042249
v 0.080517 0.757813 0.036555
v 0.050878 0.754593 0.046886
v 0.098018 0.743401 0.023561
v 0.092255 0.749703 0.032049
v 0.101401 0.736427 0.024877
v 0.105617 0.735565 0.023259
v 0.101685 0.736221 0.032090
v 0.103378 0.717247 0.029348
v 0.105886 0.717354 0.028386
v 0.104587 0.701515 0.030453
v 0.097888 0.703545 0.036163
v 0.106170 0.682838 0.035599
v 0.104013 0.718628 0.037473
v 0.060511 0.749298 0.058356
v 0.071049 0.752655 0.053788
v 0.078290 0.751625 0.051532
v 0.091700 0.744629 0.048999
v 0.076539 0.746735 0.061618
v 0.099140 0.731987 0.050327
v 0.042530 0.743118 0.053752
v 0.066510 0.745400 0.065468
v 0.074849 0.738876 0.072204
v 0.086425 0.739304 0.061484
v 0.050210 0.740334 0.063879
v 0.092505 0.725922 0.064380
v 0.099726 0.721748 0.052194
v 0.099251 0.702835 0.042439
v 0.038004 0.727943 0.059673
v 0.058732 0.736198 0.072114
v 0.095929 0.708122 0.056267
v 0.046351 0.727181 0.067453
v 0.086568 0.695015 0.043123
v 0.086373 0.693741 0.047383
v 0.071973 0.691246 0.047680
v 0.072872 0.690239 0.053088
v 0.055286 0.692162 0.047809
v 0.087329 0.700050 0.060091
v 0.083185 0.712204 0.071096
v 0.076213 0.696541 0.063835
v 0.059136 0.691727 0.057838
v 0.080747 0.727036 0.073601
v 0.074646 0.727013 0.075420
v 0.071272 0.710571 0.075146
v 0.069395 0.728638 0.076390
v 0.061508 0.716057 0.076279
v 0.064809 0.697533 0.067167
v 0.041928 0.696152 0.049799
v 0.038225 0.698982 0.043898
v 0.048708 0.713150 0.069163
v 0.055106 0.703499 0.068799
v 0.047898 0.698555 0.060583
v 0.039738 0.709992 0.062146
v 0.028864 0.727470 0.045399
v 0.030984 0.708275 0.046154
v 0.023842 0.726723 0.031636
v 0.026707 0.710701 0.032629
v 0.023073 0.747360 0.028270
v 0.010604 0.729935 0.012136
v 0.013827 0.748489 0.015083
v 0.002168 0.743767 -0.007115
v 0.007527 0.703232 0.013317
v 0.023004 0.670281 0.026728
v 0.048957 0.671310 0.049716
v 0.055286 0.692162 0.047809
v 0.052026 0.650940 0.047492
v 0.033236 0.639977 0.034307
v 0.071770 0.671913 0.050896
v 0.071973 0.691246 0.047680
v 0.071420 0.651688 0.049985
v 0.087915 0.671967 0.047314
v 0.086568 0.695015 0.043123
v 0.088644 0.655083 0.045465
v 0.105820 0.660057 0.034687
v 0.052331 0.631195 0.049990
v 0.026150 0.605598 0.027089
v 0.069352 0.629829 0.048686
v 0.092095 0.628548 0.048324
v 0.107965 0.628601 0.038571
v 0.105629 0.589584 0.032146
v 0.085421 0.588120 0.042518
v 0.108905 0.565048 0.034549
v 0.084220 0.564125 0.042456
v 0.067419 0.593437 0.042629
v 0.063036 0.570801 0.044834
v 0.043475 0.602692 0.042929
v 0.039995 0.578751 0.043741
v 0.014978 0.582138 0.023532
v 0.136458 0.774521 -0.082723
v 0.127179 0.777184 -0.100082
v 0.108815 0.781578 -0.095125
v 0.123877 0.776871 -0.076325
v 0.087939 0.794319 -0.082405
v 0.134869 0.770149 -0.066423
v 0.091194 0.780380 -0.060641
v 0.085480 0.808579 -0.075184
v 0.110302 0.776901 -0.050716
v 0.103961 0.778267 -0.057697
v 0.082617 0.782509 -0.039043
v 0.082264 0.802391 -0.062444
v 0.131636 0.758934 -0.041123
v 0.140852 0.751724 -0.061397
v 0.140326 0.740982 -0.048120
v 0.142447 0.740204 -0.062010
v 0.131980 0.729385 -0.070544
v 0.093146 0.781281 -0.030009
v 0.087201 0.822441 -0.052309
v 0.089004 0.827469 -0.062939
v 0.094286 0.831688 -0.045091
v 0.089797 0.821930 -0.041799
v 0.078527 0.808853 -0.043226
v 0.075429 0.812988 -0.037330
v 0.065124 0.805260 -0.039650
v 0.065384 0.811287 -0.035566
v 0.065800 0.793953 -0.040956
v 0.076321 0.793663 -0.047610
v 0.071884 0.782814 -0.030216
v 0.082291 0.782303 -0.022181
v 0.102217 0.767067 -0.017278
v 0.090063 0.767853 -0.007382
v 0.114635 0.763046 -0.029890
v 0.113001 0.753120 0.002642
v 0.100620 0.750031 0.012625
v 0.122721 0.755089 -0.011550
v 0.134798 0.750870 -0.024031
v 0.143927 0.741959 -0.033289
v 0.147102 0.725311 -0.036599
v 0.142432 0.745857 -0.012317
v 0.130942 0.749199 0.002031
v 0.149739 0.737747 -0.020875
v 0.109610 0.741371 0.014927
v 0.120848 0.744812 0.012182
v 0.108047 0.735230 0.019711
v 0.105617 0.735565 0.023259
v 0.115047 0.733955 0.023300
v 0.107298 0.716576 0.026275
v 0.105886 0.717354 0.028386
v 0.104587 0.701515 0.030453
v 0.111979 0.701080 0.025524
v 0.106170 0.682838 0.035599
v 0.115157 0.716736 0.030057
v 0.148936 0.739395 0.000877
v 0.143892 0.740433 0.006474
v 0.135760 0.737122 0.019010
v 0.131372 0.726486 0.028017
v 0.152891 0.733749 0.009819
v 0.155619 0.733078 -0.006918
v 0.147538 0.728890 0.019719
v 0.161320 0.724152 0.013383
v 0.159460 0.729584 0.002067
v 0.156287 0.723732 -0.023912
v 0.145149 0.716950 0.028482
v 0.130537 0.716484 0.030952
v 0.162204 0.721268 -0.012585
v 0.117497 0.699707 0.029682
v 0.159836 0.707222 -0.023182
v 0.166123 0.717926 -0.001013
v 0.132483 0.701897 0.031252
v 0.163861 0.707184 -0.012697
v 0.120851 0.689232 0.020026
v 0.124400 0.685165 0.020756
v 0.128650 0.681580 0.008664
v 0.133188 0.679947 0.011629
v 0.134760 0.678619 -0.006757
v 0.137245 0.691567 0.026286
v 0.151348 0.700600 0.024533
v 0.143639 0.685066 0.018078
v 0.142590 0.677513 0.000698
v 0.157722 0.713928 0.021041
v 0.161686 0.712212 0.016381
v 0.158707 0.695686 0.015432
v 0.164275 0.712456 0.011203
v 0.164234 0.698555 0.005988
v 0.150482 0.682953 0.008652
v 0.142156 0.679108 -0.018487
v 0.138681 0.681900 -0.024475
v 0.156640 0.686211 -0.000511
v 0.161211 0.693977 -0.008019
v 0.150686 0.681091 -0.009209
v 0.157361 0.689980 -0.018048
v 0.149556 0.706932 -0.037019
v 0.145425 0.688820 -0.031772
v 0.138450 0.707199 -0.046877
v 0.134835 0.692291 -0.041305
v 0.140554 0.728371 -0.048207
v 0.126770 0.710770 -0.064360
v 0.137982 0.731125 -0.055589
v 0.121301 0.725006 -0.076905
v 0.120706 0.688004 -0.065170
v 0.122691 0.664124 -0.045011
v 0.136763 0.665878 -0.013802
v 0.134760 0.678619 -0.006757
v 0.133344 0.648949 -0.012490
v 0.125979 0.637718 -0.033721
v 0.131332 0.668236 0.008157
v 0.128650 0.681580 0.008664
v 0.130466 0.650246 0.006921
v 0.122927 0.669807 0.022367
v 0.120851 0.689232 0.020026
v 0.121209 0.654289 0.021981
v 0.105820 0.660057 0.034687
v 0.135359 0.629173 -0.010648
v 0.130794 0.619873 -0.039231
v 0.128793 0.628380 0.004948
v 0.122162 0.627815 0.026845
v 0.107965 0.628601 0.038571
v 0.105629 0.589584 0.032146
v 0.123412 0.593292 0.018520
v 0.108905 0.565048 0.034549
v 0.128161 0.573624 0.019312
v 0.129863 0.601959 0.002968
v 0.138854 0.587135 0.005270
v 0.138395 0.615639 -0.017044
v 0.147349 0.601875 -0.012112
v 0.143163 0.609802 -0.043456
v 0.089004 0.827469 -0.062939
v 0.085480 0.808579 -0.075184
v 0.082192 0.831673 -0.071830
v 0.072953 0.812721 -0.083974
v 0.068321 0.836105 -0.076966
v 0.056873 0.812973 -0.086693
v 0.087939 0.794319 -0.082405
v 0.066487 0.775261 -0.099798
v 0.035554 0.737671 -0.079555
v 0.079910 0.788971 -0.093444
v 0.099332 0.776024 -0.109268
v 0.108815 0.781578 -0.095125
v 0.127179 0.777184 -0.100082
v 0.109923 0.770172 -0.114379
v 0.089724 0.758087 -0.117609
v 0.106667 0.759239 -0.121498
v 0.048656 0.730110 -0.092430
v 0.091221 0.735191 -0.116092
v 0.109455 0.740456 -0.123091
v 0.108592 0.720429 -0.116484
v 0.094729 0.712112 -0.105932
v 0.112136 0.713371 -0.094308
v 0.049876 0.692833 -0.067793
v 0.042358 0.696808 -0.057062
v 0.076145 0.720070 -0.099844
v 0.069583 0.690132 -0.076404
v 0.099657 0.689484 -0.082195
v 0.052878 0.666313 -0.049071
v 0.048010 0.667412 -0.043018
v 0.052063 0.632500 -0.036206
v 0.120706 0.688004 -0.065170
v 0.121301 0.725006 -0.076905
v 0.092301 0.664238 -0.065250
v 0.122691 0.664124 -0.045011
v 0.071552 0.666046 -0.058331
v 0.069785 0.634354 -0.050331
v 0.053692 0.604256 -0.047292
v 0.108759 0.637619 -0.050647
v 0.125979 0.637718 -0.033721
v 0.086704 0.637161 -0.057349
v 0.090742 0.613731 -0.067267
v 0.112289 0.618858 -0.059847
v 0.130794 0.619873 -0.039231
v 0.125606 0.605537 -0.067051
v 0.143163 0.609802 -0.043456
v 0.103026 0.599831 -0.075120
v 0.079546 0.592575 -0.073953
v 0.057449 0.583221 -0.056579
v 0.071922 0.609520 -0.062135
v 0.046725 0.834892 -0.061354
v 0.053909 0.836624 -0.070911
v 0.036770 0.816704 -0.062763
v 0.044377 0.817505 -0.076666
v 0.068321 0.836105 -0.076966
v 0.056873 0.812973 -0.086693
v 0.024799 0.804596 -0.051368
v 0.019575 0.782898 -0.076560
v 0.035554 0.737671 -0.079555
v 0.019558 0.798767 -0.064001
v -0.005929 0.792107 -0.048987
v 0.002132 0.797455 -0.033776
v -0.015113 0.795692 -0.024541
v -0.017053 0.788460 -0.046286
v -0.011671 0.774010 -0.059858
v -0.022657 0.777763 -0.054072
v 0.019835 0.735268 -0.072476
v -0.016234 0.752609 -0.051307
v -0.029592 0.760727 -0.049318
v -0.027948 0.741356 -0.043673
v -0.014420 0.730278 -0.038405
v -0.011783 0.733612 -0.022681
v 0.029244 0.695625 -0.053074
v 0.042358 0.696808 -0.057062
v 0.000119 0.732742 -0.050263
v 0.014160 0.697601 -0.037870
v -0.001300 0.703087 -0.012061
v 0.040489 0.667084 -0.040131
v 0.048010 0.667412 -0.043018
v 0.052063 0.632500 -0.036206
v 0.007527 0.703232 0.013317
v 0.002168 0.743767 -0.007115
v 0.012904 0.669144 -0.008099
v 0.023004 0.670281 0.026728
v 0.025913 0.668861 -0.025645
v 0.033475 0.635239 -0.023317
v 0.053692 0.604256 -0.047292
v 0.021926 0.639732 0.013020
v 0.033236 0.639977 0.034307
v 0.021635 0.638748 -0.009881
v 0.019144 0.603951 -0.021477
v 0.015606 0.605675 0.001325
v 0.026150 0.605598 0.027089
v 0.006697 0.579918 -0.005193
v 0.014978 0.582138 0.023532
v 0.013829 0.580627 -0.028852
v 0.029284 0.581749 -0.047860
v 0.057449 0.583221 -0.056579
v 0.032230 0.604073 -0.036438
v 0.120751 0.716606 -0.081401
v 0.121301 0.725006 -0.076905
v 0.112136 0.713371 -0.094308
v 0.133803 0.717705 -0.071244
v 0.131980 0.729385 -0.070544
v 0.142447 0.740204 -0.062010
v 0.139587 0.664742 -0.084448
v 0.116678 0.664650 -0.098144
v 0.138575 0.618561 -0.104457
v 0.119353 0.617973 -0.114338
v 0.139402 0.607536 -0.108435
v 0.124612 0.605019 -0.114265
v 0.126488 0.592049 -0.115508
v 0.142943 0.595589 -0.108749
v 0.133350 0.560951 -0.115004
v 0.153764 0.565620 -0.106104
v 0.166573 0.569550 -0.112589
v 0.154172 0.598877 -0.112536
v 0.171849 0.572044 -0.125075
v 0.154639 0.668427 -0.089179
v 0.150667 0.638596 -0.100207
v 0.160309 0.672875 -0.102339
v 0.146779 0.724114 -0.078317
v 0.150085 0.621307 -0.108875
v 0.150745 0.610756 -0.112267
v 0.154624 0.624657 -0.120555
v 0.159447 0.601631 -0.125022
v 0.154889 0.613380 -0.123272
v 0.152175 0.601540 -0.141582
v 0.165920 0.572113 -0.145289
v 0.147405 0.627518 -0.137659
v 0.148072 0.614586 -0.140007
v 0.135765 0.598793 -0.149927
v 0.146690 0.568100 -0.156213
v 0.123844 0.595566 -0.146920
v 0.131358 0.563576 -0.150850
v 0.117108 0.592651 -0.138581
v 0.124055 0.560188 -0.134449
v 0.126488 0.592049 -0.115508
v 0.133350 0.560951 -0.115004
v 0.124612 0.605019 -0.114265
v 0.112830 0.607071 -0.137462
v 0.119103 0.610138 -0.146669
v 0.111145 0.620873 -0.133677
v 0.119353 0.617973 -0.114338
v 0.116678 0.664650 -0.098144
v 0.130621 0.613098 -0.150045
v 0.117584 0.624397 -0.143471
v 0.128244 0.626808 -0.147040
v 0.104547 0.669190 -0.122253
v 0.112102 0.673927 -0.135613
v 0.126477 0.676910 -0.139040
v 0.128308 0.725311 -0.124052
v 0.109389 0.706688 -0.102145
v 0.120751 0.716606 -0.081401
v 0.112136 0.713371 -0.094308
v 0.111274 0.711578 -0.116990
v 0.108592 0.720429 -0.116484
v 0.109455 0.740456 -0.123091
v 0.148808 0.677414 -0.126168
v 0.145523 0.719078 -0.114969
v 0.131446 0.741280 -0.124733
v 0.106667 0.759239 -0.121498
v 0.150395 0.739639 -0.113178
v 0.126386 0.762177 -0.121222
v 0.109923 0.770172 -0.114379
v 0.143284 0.763695 -0.108880
v 0.127179 0.777184 -0.100082
v 0.136458 0.774521 -0.082723
v 0.153625 0.721794 -0.094544
v 0.150740 0.760162 -0.090821
v 0.155351 0.739105 -0.093114
v 0.150153 0.740067 -0.078043
v 0.147519 0.756538 -0.071279
v 0.134869 0.770149 -0.066423
v 0.140852 0.751724 -0.061397
v -0.007681 0.734734 -0.024256
v -0.011783 0.733612 -0.022681
v 0.002168 0.743767 -0.007115
v -0.004141 0.734673 -0.009924
v 0.003417 0.747887 -0.000796
v 0.003717 0.757263 0.008503
v -0.017168 0.682007 -0.016953
v -0.019430 0.683853 -0.043282
v -0.031498 0.635925 -0.029758
v -0.032807 0.636704 -0.051222
v -0.035397 0.625801 -0.031399
v -0.034896 0.623703 -0.047805
v -0.036141 0.610855 -0.046281
v -0.036346 0.614372 -0.028420
v -0.036829 0.579796 -0.039218
v -0.037001 0.584557 -0.017185
v -0.048190 0.588051 -0.008183
v -0.044449 0.617317 -0.019556
v -0.061678 0.589981 -0.008235
v -0.027710 0.684967 -0.005584
v -0.033278 0.654724 -0.015999
v -0.041715 0.689583 -0.005961
v -0.015171 0.740715 -0.002552
v -0.040461 0.638039 -0.021087
v -0.043615 0.628548 -0.022491
v -0.052923 0.641296 -0.021533
v -0.057937 0.619553 -0.019609
v -0.055280 0.630882 -0.023244
v -0.070558 0.619019 -0.033070
v -0.077840 0.589310 -0.021383
v -0.065368 0.644882 -0.034539
v -0.067839 0.632118 -0.036206
v -0.071212 0.616547 -0.051124
v -0.080183 0.585098 -0.043497
v -0.063686 0.613716 -0.060813
v -0.069246 0.580986 -0.055540
v -0.053307 0.611183 -0.063751
v -0.051130 0.578362 -0.055695
v -0.036141 0.610855 -0.046281
v -0.036829 0.579796 -0.039218
v -0.034896 0.623703 -0.047805
v -0.051166 0.626198 -0.067711
v -0.062123 0.628952 -0.065597
v -0.046812 0.640434 -0.066244
v -0.032807 0.636704 -0.051222
v -0.019430 0.683853 -0.043282
v -0.070052 0.631378 -0.056277
v -0.058513 0.643715 -0.064367
v -0.065933 0.645508 -0.055766
v -0.035481 0.690079 -0.064317
v -0.050503 0.694901 -0.063258
v -0.059730 0.697151 -0.051871
v -0.046406 0.746559 -0.043387
v -0.020374 0.726357 -0.047103
v -0.007681 0.734734 -0.024256
v -0.011783 0.733612 -0.022681
v -0.033393 0.732040 -0.053089
v -0.027948 0.741356 -0.043673
v -0.029592 0.760727 -0.049318
v -0.057933 0.695778 -0.026410
v -0.046639 0.738007 -0.021854
v -0.046223 0.762634 -0.041888
v -0.022657 0.777763 -0.054072
v -0.047360 0.760307 -0.018962
v -0.036398 0.782425 -0.042521
v -0.017053 0.788460 -0.046286
v -0.036114 0.783875 -0.020664
v -0.015113 0.795692 -0.024541
v -0.006807 0.791985 -0.007332
v -0.032680 0.739258 -0.005245
v -0.025810 0.778404 -0.003698
v -0.032025 0.759056 -0.001835
v -0.016453 0.756722 0.001602
v -0.007332 0.773689 0.005946
v 0.009330 0.786530 0.002688
v 0.005944 0.768387 0.008172
v 0.099251 0.702835 0.042439
v 0.086373 0.693741 0.047383
v 0.108079 0.682007 0.038528
v 0.108116 0.701218 0.035898
v 0.104013 0.718628 0.037473
v 0.108714 0.719597 0.032007
v 0.115157 0.716736 0.030057
v 0.117497 0.699707 0.029682
v 0.124400 0.685165 0.020756
f 1 2 3
f 2 1 4
f 4 5 2
f 6 4 1
f 7 5 4
f 8 5 7
f 4 6 9
f 10 7 4
f 4 9 10
f 11 7 10
f 8 7 12
f 11 12 7
f 6 13 9
f 14 13 6
f 14 15 13
f 15 14 16
f 17 15 16
f 18 10 9
f 18 11 10
f 19 8 12
f 8 19 20
f 20 19 21
f 19 22 21
f 19 23 22
f 12 23 19
f 24 22 23
f 23 25 24
f 26 24 25
f 23 27 25
f 23 12 28
f 27 23 28
f 11 28 12
f 27 28 11
f 27 11 29
f 29 11 30
f 11 18 30
f 30 18 31
f 32 30 31
f 31 18 33
f 9 33 18
f 13 33 9
f 32 31 34
f 35 32 34
f 33 36 31
f 34 31 36
f 37 33 13
f 37 36 33
f 38 37 13
f 15 38 13
f 39 38 15
f 40 36 37
f 38 40 37
f 41 34 36
f 40 41 36
f 39 42 38
f 38 42 40
f 43 35 34
f 41 44 34
f 44 43 34
f 43 45 35
f 46 35 45
f 47 45 43
f 44 47 43
f 46 45 48
f 47 48 45
f 46 48 49
f 49 48 50
f 50 48 51
f 51 52 50
f 47 53 48
f 53 51 48
f 54 40 42
f 54 55 40
f 55 41 40
f 56 44 41
f 55 56 41
f 57 47 44
f 56 57 44
f 58 56 55
f 58 57 56
f 57 59 47
f 59 53 47
f 54 42 60
f 42 39 60
f 61 55 54
f 61 58 55
f 62 58 61
f 58 63 57
f 63 59 57
f 62 63 58
f 64 54 60
f 61 54 64
f 63 65 59
f 62 65 63
f 59 66 53
f 65 66 59
f 66 67 53
f 53 67 51
f 68 60 39
f 64 60 68
f 69 61 64
f 62 61 69
f 65 70 66
f 66 70 67
f 71 64 68
f 69 64 71
f 67 72 51
f 67 73 72
f 70 73 67
f 73 74 72
f 73 75 74
f 75 76 74
f 70 77 73
f 77 75 73
f 65 78 70
f 78 77 70
f 77 79 75
f 78 79 77
f 75 80 76
f 79 80 75
f 81 78 65
f 62 81 65
f 81 82 78
f 62 82 81
f 78 83 79
f 82 83 78
f 62 84 82
f 62 69 84
f 84 85 82
f 84 69 85
f 82 85 83
f 69 71 85
f 83 86 79
f 79 86 80
f 80 87 76
f 87 88 76
f 85 71 89
f 89 71 68
f 83 85 90
f 83 90 86
f 85 89 90
f 86 91 80
f 86 90 91
f 80 91 87
f 90 89 92
f 90 92 91
f 89 68 92
f 91 92 87
f 92 68 93
f 68 39 93
f 92 94 87
f 92 93 94
f 87 94 88
f 39 95 93
f 94 93 95
f 94 96 88
f 95 96 94
f 95 39 97
f 15 97 39
f 97 98 95
f 95 98 96
f 15 99 97
f 98 97 99
f 15 17 99
f 17 100 99
f 99 100 98
f 100 101 98
f 98 101 96
f 102 96 101
f 102 88 96
f 103 88 102
f 88 103 104
f 105 103 102
f 106 105 102
f 103 107 104
f 104 107 108
f 109 107 103
f 105 109 103
f 108 107 110
f 110 107 109
f 110 111 108
f 110 51 111
f 110 52 51
f 52 110 112
f 110 109 112
f 52 112 113
f 114 105 106
f 106 115 114
f 116 109 105
f 112 109 116
f 114 116 105
f 112 117 113
f 117 112 116
f 113 117 118
f 118 117 119
f 119 117 120
f 116 120 117
f 120 121 119
f 122 121 120
f 123 120 116
f 122 120 123
f 116 114 123
f 122 123 124
f 123 114 125
f 124 123 125
f 125 114 115
f 126 124 125
f 126 125 115
f 115 127 126
f 128 129 130
f 130 131 128
f 131 130 132
f 133 128 131
f 134 131 132
f 135 134 132
f 131 136 133
f 137 131 134
f 131 137 136
f 138 137 134
f 135 139 134
f 138 134 139
f 133 136 140
f 141 133 140
f 141 140 142
f 142 143 141
f 144 143 142
f 145 136 137
f 145 137 138
f 146 139 135
f 135 147 146
f 147 148 146
f 146 148 149
f 146 149 150
f 139 146 150
f 151 150 149
f 150 151 152
f 153 152 151
f 150 152 154
f 150 155 139
f 154 155 150
f 138 139 155
f 154 138 155
f 154 156 138
f 156 157 138
f 138 157 145
f 157 158 145
f 159 158 157
f 158 160 145
f 136 145 160
f 140 136 160
f 159 161 158
f 162 161 159
f 160 158 163
f 161 163 158
f 140 160 164
f 164 160 163
f 140 164 165
f 142 140 165
f 166 142 165
f 167 164 163
f 165 164 167
f 168 163 161
f 167 163 168
f 166 165 169
f 165 167 169
f 170 161 162
f 168 161 171
f 171 161 170
f 170 162 172
f 173 172 162
f 174 170 172
f 171 170 174
f 173 175 172
f 174 172 175
f 173 176 175
f 176 177 175
f 177 178 175
f 178 177 179
f 174 175 180
f 180 175 178
f 181 167 168
f 182 168 171
f 181 168 182
f 183 171 174
f 182 171 183
f 184 174 180
f 183 174 184
f 185 182 183
f 185 181 182
f 186 167 181
f 186 169 167
f 187 183 184
f 185 183 187
f 188 185 187
f 189 181 185
f 189 186 181
f 188 189 185
f 186 190 169
f 169 190 166
f 187 184 191
f 188 187 191
f 184 180 192
f 191 184 192
f 189 193 186
f 193 190 186
f 192 180 194
f 180 178 194
f 195 166 190
f 193 195 190
f 196 193 189
f 188 196 189
f 191 192 197
f 192 194 197
f 198 195 193
f 196 198 193
f 194 178 199
f 194 199 200
f 197 194 200
f 200 199 201
f 200 201 202
f 202 201 203
f 197 200 204
f 204 200 202
f 191 197 205
f 205 197 204
f 204 202 206
f 205 204 206
f 202 203 207
f 206 202 207
f 208 191 205
f 188 191 208
f 208 205 209
f 188 208 209
f 205 206 210
f 209 205 210
f 188 209 211
f 188 211 196
f 211 209 212
f 211 212 196
f 209 210 212
f 196 212 198
f 210 206 213
f 206 207 213
f 207 203 214
f 214 203 215
f 210 216 212
f 210 213 216
f 212 217 198
f 212 216 217
f 217 195 198
f 213 207 218
f 213 218 216
f 207 214 218
f 216 219 217
f 216 218 219
f 217 219 195
f 218 214 219
f 219 220 195
f 195 220 166
f 219 214 221
f 219 221 220
f 214 215 221
f 166 220 222
f 221 222 220
f 221 215 223
f 222 221 223
f 222 224 166
f 142 166 224
f 224 222 225
f 222 223 225
f 142 224 226
f 225 226 224
f 142 226 144
f 144 226 227
f 226 225 227
f 227 225 228
f 225 223 228
f 229 228 223
f 229 223 215
f 230 229 215
f 215 231 230
f 232 229 230
f 233 229 232
f 230 231 234
f 231 235 234
f 236 230 234
f 232 230 236
f 235 237 234
f 237 236 234
f 237 235 238
f 237 238 178
f 237 178 179
f 179 239 237
f 237 239 236
f 179 240 239
f 241 233 232
f 242 233 241
f 243 232 236
f 239 243 236
f 241 232 243
f 239 240 244
f 244 243 239
f 240 245 244
f 245 246 244
f 246 247 244
f 243 244 247
f 247 246 248
f 249 247 248
f 250 243 247
f 249 250 247
f 243 250 241
f 249 251 250
f 250 252 241
f 251 252 250
f 241 252 242
f 253 252 251
f 253 242 252
f 242 253 254
f 255 256 257
f 256 258 257
f 259 257 258
f 259 258 260
f 256 261 258
f 260 258 262
f 260 262 263
f 264 258 261
f 258 264 262
f 261 265 264
f 266 265 261
f 265 266 267
f 267 268 265
f 269 264 265
f 269 265 268
f 269 262 264
f 268 270 269
f 263 262 271
f 269 271 262
f 272 269 270
f 271 269 272
f 270 273 272
f 274 272 273
f 272 274 275
f 275 274 276
f 271 277 263
f 278 263 277
f 272 279 271
f 275 279 272
f 279 280 271
f 280 279 275
f 271 280 277
f 275 276 281
f 275 281 280
f 278 277 282
f 278 282 283
f 283 282 284
f 281 276 285
f 285 276 286
f 281 285 287
f 280 281 287
f 285 288 287
f 277 280 289
f 277 289 282
f 287 289 280
f 290 284 282
f 282 289 290
f 290 291 284
f 287 288 292
f 292 288 293
f 289 287 294
f 289 294 290
f 287 292 294
f 290 294 295
f 292 295 294
f 293 296 292
f 295 292 296
f 296 293 297
f 296 297 298
f 295 296 298
f 299 298 297
f 298 300 295
f 301 295 300
f 301 302 291
f 295 303 290
f 303 295 301
f 291 290 303
f 291 303 301
f 304 305 306
f 306 305 307
f 308 307 305
f 308 309 307
f 306 307 310
f 309 311 307
f 309 312 311
f 313 310 307
f 307 311 313
f 310 313 314
f 315 310 314
f 314 316 315
f 316 314 317
f 318 314 313
f 318 317 314
f 318 313 311
f 317 318 319
f 312 320 311
f 318 311 320
f 321 319 318
f 320 321 318
f 319 321 322
f 323 322 321
f 321 324 323
f 324 325 323
f 320 312 326
f 327 326 312
f 321 320 328
f 324 321 328
f 328 320 329
f 329 324 328
f 320 326 329
f 324 330 325
f 324 329 330
f 327 331 326
f 327 332 331
f 332 333 331
f 330 334 325
f 334 335 325
f 330 336 334
f 329 336 330
f 334 336 337
f 326 338 329
f 326 331 338
f 336 329 338
f 339 331 333
f 331 339 338
f 339 333 340
f 336 341 337
f 341 342 337
f 338 343 336
f 338 339 343
f 336 343 341
f 339 344 343
f 341 343 344
f 342 341 345
f 344 345 341
f 345 346 342
f 345 347 346
f 344 347 345
f 348 346 347
f 347 344 349
f 350 349 344
f 350 340 351
f 340 352 339
f 344 339 352
f 352 350 344
f 340 350 352
f 353 354 355
f 354 353 356
f 356 357 354
f 358 357 356
f 356 353 359
f 353 360 359
f 359 360 361
f 361 360 362
f 362 363 361
f 363 362 364
f 363 364 365
f 365 366 363
f 366 365 367
f 367 368 366
f 368 369 366
f 366 369 370
f 370 363 366
f 369 371 370
f 372 356 359
f 373 359 361
f 373 372 359
f 374 372 373
f 372 375 356
f 374 375 372
f 375 358 356
f 376 361 363
f 376 373 361
f 377 363 370
f 377 376 363
f 378 373 376
f 374 373 378
f 378 376 377
f 370 371 379
f 379 377 370
f 378 377 380
f 380 377 379
f 381 379 371
f 371 382 381
f 380 383 378
f 378 383 374
f 384 380 379
f 379 381 384
f 380 384 383
f 385 381 382
f 385 384 381
f 382 386 385
f 387 385 386
f 388 387 386
f 387 388 389
f 388 390 389
f 391 389 390
f 390 392 391
f 389 391 393
f 387 389 394
f 393 394 389
f 387 395 385
f 395 387 394
f 393 396 394
f 395 394 396
f 396 393 397
f 397 398 396
f 395 399 385
f 384 385 399
f 400 395 396
f 395 400 399
f 399 401 384
f 400 401 399
f 383 384 401
f 398 402 396
f 400 396 402
f 400 403 401
f 403 400 402
f 383 401 404
f 403 404 401
f 404 403 405
f 406 402 398
f 398 407 406
f 408 406 407
f 409 403 402
f 402 406 409
f 406 408 409
f 409 405 403
f 410 409 408
f 410 405 409
f 411 405 410
f 404 412 383
f 412 374 383
f 413 412 404
f 374 412 413
f 404 405 413
f 405 411 414
f 414 411 415
f 414 416 405
f 413 405 416
f 414 415 417
f 416 414 417
f 415 418 417
f 419 417 418
f 417 419 416
f 418 420 419
f 421 419 420
f 374 413 422
f 374 422 375
f 423 416 419
f 419 421 423
f 424 413 416
f 424 422 413
f 416 423 424
f 375 422 425
f 422 424 425
f 423 425 424
f 375 425 358
f 426 423 421
f 423 426 425
f 425 426 358
f 427 426 421
f 426 428 358
f 428 426 427
f 429 430 431
f 431 432 429
f 432 431 433
f 434 432 433
f 432 435 429
f 429 435 436
f 435 437 436
f 437 438 436
f 438 437 439
f 439 440 438
f 439 441 440
f 441 439 442
f 442 443 441
f 443 442 444
f 444 442 445
f 442 446 445
f 446 442 439
f 445 446 447
f 448 435 432
f 449 437 435
f 449 435 448
f 450 449 448
f 448 432 451
f 450 448 451
f 451 432 434
f 452 439 437
f 452 437 449
f 453 446 439
f 453 439 452
f 454 452 449
f 450 454 449
f 454 453 452
f 446 455 447
f 455 446 453
f 454 456 453
f 456 455 453
f 457 447 455
f 447 457 458
f 456 454 459
f 454 450 459
f 460 455 456
f 455 460 457
f 456 459 460
f 461 458 457
f 461 457 460
f 458 461 462
f 463 462 461
f 464 462 463
f 463 465 464
f 464 465 466
f 467 466 465
f 466 467 468
f 465 469 467
f 463 470 465
f 469 465 470
f 463 461 471
f 471 470 463
f 469 470 472
f 471 472 470
f 472 473 469
f 473 472 474
f 460 475 461
f 471 461 475
f 476 472 471
f 471 475 476
f 475 460 477
f 476 475 477
f 459 477 460
f 474 472 478
f 476 478 472
f 476 477 479
f 479 478 476
f 459 480 477
f 479 477 480
f 480 481 479
f 482 474 478
f 474 482 483
f 484 483 482
f 485 478 479
f 478 485 482
f 482 485 484
f 485 479 481
f 486 484 485
f 486 485 481
f 487 486 481
f 480 459 488
f 488 459 450
f 489 480 488
f 450 489 488
f 480 489 481
f 481 490 487
f 490 491 487
f 492 490 481
f 481 489 492
f 490 493 491
f 492 493 490
f 491 493 494
f 495 494 493
f 493 492 495
f 494 495 496
f 497 496 495
f 450 498 489
f 450 451 498
f 499 495 492
f 495 499 497
f 500 492 489
f 500 489 498
f 492 500 499
f 451 501 498
f 498 501 500
f 499 500 501
f 451 434 501
f 502 497 499
f 499 501 502
f 501 434 502
f 503 497 502
f 502 434 504
f 504 503 502
f 505 506 507
f 507 508 505
f 505 508 509
f 510 509 508
f 508 511 510
f 511 508 512
f 512 508 507
f 512 507 513
