v 0.014479 0.900085 -0.070419
v 0.011772 0.887375 -0.073042
v 0.004642 0.890480 -0.078673
v 0.010747 0.902718 -0.072648
v 0.002517 0.903908 -0.072627
v -0.002106 0.889374 -0.079221
v 0.020160 0.910645 -0.060048
v -0.008231 0.888329 -0.080531
v 0.014043 0.918144 -0.060315
v 0.031197 0.916489 -0.037087
v 0.026927 0.928108 -0.034925
v 0.038273 0.915016 -0.016268
v -0.006836 0.903511 -0.070083
v -0.016453 0.887779 -0.079467
v -0.014137 0.904282 -0.068326
v 0.009159 0.918160 -0.056348
v 0.003786 0.921936 -0.056378
v -0.003218 0.923767 -0.053166
v -0.008856 0.924294 -0.050479
v -0.000878 0.917961 -0.053541
v 0.011916 0.929443 -0.024979
v -0.000878 0.917961 -0.053541
v 0.009820 0.934631 -0.022605
v 0.004700 0.936256 -0.019594
v 0.015362 0.932694 -0.000674
v 0.021948 0.928917 -0.006340
v 0.020482 0.932053 -0.003685
v 0.020441 0.924156 0.005745
v 0.024878 0.924522 0.002996
v 0.029241 0.911736 0.005505
v 0.025040 0.910629 0.009210
v 0.016642 0.932732 -0.027316
v 0.011916 0.929443 -0.024979
v 0.022104 0.926872 -0.030459
v 0.025123 0.931496 -0.009651
v 0.021948 0.928917 -0.006340
v 0.030243 0.927322 -0.012662
v 0.034276 0.927826 -0.015780
v 0.029648 0.922417 -0.000927
v 0.029241 0.911736 0.005505
v 0.033950 0.913239 0.001082
v 0.036592 0.914734 -0.004639
v 0.035464 0.922752 -0.009959
v -0.029523 0.891098 -0.047775
v -0.027744 0.883835 -0.061534
v -0.026137 0.879616 -0.053260
v -0.030239 0.894333 -0.051685
v -0.025941 0.898056 -0.057519
v -0.024418 0.884804 -0.067518
v -0.027542 0.900871 -0.035461
v -0.021777 0.885536 -0.073239
v -0.026768 0.909775 -0.038896
v -0.016786 0.906647 -0.011869
v -0.016619 0.919220 -0.012456
v -0.003739 0.906448 0.005089
v -0.019075 0.901016 -0.063816
v -0.016453 0.887779 -0.079467
v -0.014137 0.904282 -0.068326
v -0.021123 0.911957 -0.040540
v -0.019438 0.917175 -0.044325
v -0.014037 0.921562 -0.047967
v -0.008856 0.924294 -0.050479
v -0.013687 0.915352 -0.047055
v -0.001059 0.926765 -0.017906
v -0.013687 0.915352 -0.047055
v 0.000202 0.932632 -0.017344
v 0.004700 0.936256 -0.019594
v 0.015362 0.932694 -0.000674
v 0.008516 0.926155 0.000908
v 0.010523 0.930000 0.001707
v 0.020441 0.924156 0.005745
v 0.015541 0.922623 0.007626
v 0.019509 0.909729 0.010810
v 0.025040 0.910629 0.009210
v -0.006407 0.927986 -0.014807
v -0.001059 0.926765 -0.017906
v -0.009940 0.920296 -0.013451
v 0.003494 0.927055 0.001790
v 0.008516 0.926155 0.000908
v -0.005228 0.919739 0.004615
v -0.000381 0.921043 0.003277
v 0.010807 0.918549 0.008920
v 0.019509 0.909729 0.010810
v 0.012830 0.908928 0.011805
v 0.006538 0.908577 0.011082
v 0.000457 0.915581 0.008186
v 0.019509 0.909729 0.010810
v 0.029138 0.903702 0.014436
v 0.025040 0.910629 0.009210
v 0.014413 0.902069 0.016950
v 0.012830 0.908928 0.011805
v 0.006538 0.908577 0.011082
v 0.016102 0.894379 0.021009
v 0.033920 0.892685 0.019399
v 0.001479 0.899643 0.014593
v 0.006208 0.889885 0.020100
v -0.003739 0.906448 0.005089
v -0.000162 0.882210 0.016792
v -0.012298 0.897072 -0.000517
v -0.016786 0.906647 -0.011869
v -0.010084 0.879494 0.004910
v -0.023278 0.875435 -0.016177
v -0.001887 0.873940 0.015362
v -0.004960 0.865501 0.009742
v -0.012692 0.868713 0.000158
v -0.017059 0.866341 -0.010195
v -0.023347 0.893074 -0.017719
v -0.027542 0.900871 -0.035461
v -0.031152 0.885590 -0.036690
v -0.029523 0.891098 -0.047775
v -0.026137 0.879616 -0.053260
v -0.016175 0.853447 -0.021518
v -0.012097 0.855995 -0.011577
v -0.027778 0.868698 -0.036416
v -0.019853 0.863670 -0.053580
v -0.010613 0.881226 -0.070725
v -0.006083 0.864204 -0.068803
v 0.001703 0.849091 -0.059762
v -0.014216 0.849991 -0.041622
v -0.003081 0.837364 -0.035436
v 0.009101 0.839737 -0.049003
v 0.012263 0.830887 -0.046556
v 0.002352 0.828529 -0.034906
v 0.000618 0.827690 -0.022734
v -0.003347 0.839317 -0.018074
v -0.003950 0.848160 -0.007382
v 0.002282 0.837860 -0.007159
v 0.029241 0.911736 0.005505
v 0.025040 0.910629 0.009210
v 0.029138 0.903702 0.014436
v 0.039057 0.907127 0.003829
v 0.033950 0.913239 0.001082
v 0.036592 0.914734 -0.004639
v 0.044051 0.900101 0.006619
v 0.033920 0.892685 0.019399
v 0.044911 0.908524 -0.007832
v 0.049982 0.898834 -0.002457
v 0.038273 0.915016 -0.016268
v 0.052888 0.893089 -0.010895
v 0.040980 0.907997 -0.028290
v 0.031197 0.916489 -0.037087
v 0.049743 0.891731 -0.025901
v 0.041161 0.888603 -0.049280
v 0.055318 0.885658 -0.014442
v 0.055148 0.877823 -0.021699
v 0.050606 0.881661 -0.032508
v 0.045442 0.879135 -0.042556
v 0.034315 0.904869 -0.047699
v 0.020160 0.910645 -0.060048
v 0.026001 0.897270 -0.065951
v 0.014479 0.900085 -0.070419
v 0.011772 0.887375 -0.073042
v 0.040180 0.864960 -0.050473
v 0.045055 0.867661 -0.040838
v 0.029428 0.880402 -0.066220
v 0.013217 0.870461 -0.070981
v -0.010613 0.881226 -0.070725
v -0.006083 0.864204 -0.068803
v 0.001703 0.849091 -0.059762
v 0.024149 0.857849 -0.061579
v 0.026973 0.843521 -0.051156
v 0.009101 0.839737 -0.049003
v 0.012263 0.830887 -0.046556
v 0.027514 0.833656 -0.047703
v 0.038185 0.835381 -0.042385
v 0.040253 0.848251 -0.041087
v 0.046426 0.858467 -0.033519
v 0.046626 0.846916 -0.029934
v -0.009302 0.896957 -0.078551
v -0.016595 0.897881 -0.075751
v -0.010694 0.892288 -0.066510
v -0.002000 0.891861 -0.080307
v 0.005326 0.890610 -0.078935
v 0.013954 0.887787 -0.071787
v -0.022452 0.894280 -0.071934
v -0.010694 0.892288 -0.066510
v -0.016595 0.897881 -0.075751
v -0.026136 0.886917 -0.067904
v -0.028428 0.883705 -0.061272
v -0.026287 0.879524 -0.050587
v -0.017397 0.882195 -0.083289
v -0.022452 0.894280 -0.071934
v -0.016595 0.897881 -0.075751
v -0.024833 0.879067 -0.076773
v -0.026136 0.886917 -0.067904
v -0.028428 0.883705 -0.061272
v -0.019538 0.866524 -0.079329
v -0.013628 0.862846 -0.083689
v -0.020987 0.869255 -0.074588
v -0.018431 0.870209 -0.069293
v -0.021781 0.875717 -0.066438
v -0.026287 0.879524 -0.050587
v -0.014846 0.871208 -0.056548
v -0.010919 0.865501 -0.058578
v -0.017397 0.882195 -0.083289
v -0.016595 0.897881 -0.075751
v -0.009302 0.896957 -0.078551
v -0.007185 0.882645 -0.085639
v -0.002000 0.891861 -0.080307
v 0.005326 0.890610 -0.078935
v -0.008211 0.868851 -0.085246
v -0.013628 0.862846 -0.083689
v -0.004653 0.872612 -0.083473
v -0.001923 0.873566 -0.077722
v 0.000303 0.880249 -0.078054
v 0.013954 0.887787 -0.071787
v 0.005757 0.875450 -0.067594
v 0.004108 0.868576 -0.066439
v -0.016531 0.882813 -0.067407
v -0.002115 0.852722 -0.065619
v -0.009213 0.883598 -0.067078
v -0.011834 0.851677 -0.066072
v -0.000544 0.835465 -0.069360
v -0.019953 0.883514 -0.073939
v -0.010658 0.835632 -0.069139
v 0.000840 0.832718 -0.067799
v -0.016473 0.852600 -0.074752
v -0.016286 0.884995 -0.080054
v -0.011332 0.854561 -0.082478
v -0.015578 0.839134 -0.077188
v -0.010384 0.842468 -0.085457
v -0.011850 0.833008 -0.068158
v 0.000303 0.809067 -0.078054
v -0.011984 0.809280 -0.078044
v -0.017987 0.837273 -0.078355
v -0.011548 0.841347 -0.088149
v -0.017946 0.813553 -0.087785
v -0.011621 0.817612 -0.097535
v -0.005431 0.885078 -0.073237
v -0.009213 0.883598 -0.067078
v -0.002115 0.852722 -0.065619
v 0.002851 0.854683 -0.073801
v -0.000544 0.835465 -0.069360
v -0.008968 0.885780 -0.079725
v 0.004825 0.838806 -0.077174
v 0.000840 0.832718 -0.067799
v -0.001613 0.855606 -0.082025
v -0.016286 0.884995 -0.080054
v -0.011332 0.854561 -0.082478
v -0.000095 0.842308 -0.085223
v -0.010384 0.842468 -0.085457
v 0.006990 0.836868 -0.078005
v 0.000303 0.809067 -0.078054
v 0.006743 0.813126 -0.087848
v 0.000854 0.841141 -0.088202
v -0.011548 0.841347 -0.088149
v 0.000781 0.817398 -0.097589
v -0.011621 0.817612 -0.097535
v -0.005855 0.862785 -0.068890
v -0.001923 0.873566 -0.077722
v 0.004108 0.868576 -0.066439
v -0.004653 0.872612 -0.083473
v -0.008211 0.868851 -0.085246
v -0.013628 0.862846 -0.083689
v -0.013628 0.862846 -0.083689
v -0.005855 0.862785 -0.068890
v -0.019538 0.866524 -0.079329
v -0.020987 0.869255 -0.074588
v -0.018431 0.870209 -0.069293
v -0.010919 0.865501 -0.058578
v -0.011621 0.817612 -0.097535
v -0.011984 0.809280 -0.078044
v -0.017946 0.813553 -0.087785
v 0.000303 0.809067 -0.078054
v -0.011621 0.817612 -0.097535
v 0.006743 0.813126 -0.087848
v 0.000303 0.809067 -0.078054
v 0.000781 0.817398 -0.097589
f 1 2 3
f 3 4 1
f 5 4 3
f 5 3 6
f 7 1 4
f 5 6 8
f 4 9 7
f 4 5 9
f 10 7 9
f 9 11 10
f 12 10 11
f 5 8 13
f 13 8 14
f 13 14 15
f 5 16 9
f 11 9 16
f 5 17 16
f 17 5 13
f 18 13 15
f 15 19 18
f 13 18 20
f 21 20 18
f 13 22 17
f 23 18 19
f 18 23 21
f 23 19 24
f 25 23 24
f 26 21 23
f 23 25 27
f 23 27 26
f 27 25 28
f 29 26 27
f 27 28 29
f 30 26 29
f 29 28 31
f 29 31 30
f 32 17 22
f 22 33 32
f 17 32 34
f 34 16 17
f 16 34 11
f 35 32 33
f 33 36 35
f 37 34 32
f 32 35 37
f 38 11 34
f 34 37 38
f 11 38 12
f 39 35 36
f 39 37 35
f 36 40 39
f 40 41 39
f 41 42 39
f 42 37 39
f 43 38 37
f 43 12 38
f 12 43 42
f 37 42 43
f 44 45 46
f 45 44 47
f 48 45 47
f 48 49 45
f 50 47 44
f 48 51 49
f 47 50 52
f 47 52 48
f 53 52 50
f 52 53 54
f 55 54 53
f 48 56 51
f 56 57 51
f 56 58 57
f 48 52 59
f 54 59 52
f 48 59 60
f 60 56 48
f 61 58 56
f 58 61 62
f 56 63 61
f 64 61 63
f 56 60 65
f 66 62 61
f 61 64 66
f 66 67 62
f 68 67 66
f 69 66 64
f 66 70 68
f 66 69 70
f 70 71 68
f 72 70 69
f 70 72 71
f 73 72 69
f 72 74 71
f 72 73 74
f 75 65 60
f 65 75 76
f 60 77 75
f 77 60 59
f 59 54 77
f 78 76 75
f 76 78 79
f 80 77 54
f 54 55 80
f 81 75 77
f 75 81 78
f 77 80 81
f 82 79 78
f 82 78 81
f 79 82 83
f 83 82 84
f 84 82 85
f 85 82 81
f 86 80 55
f 55 85 86
f 81 86 85
f 86 81 80
f 87 88 89
f 87 90 88
f 90 87 91
f 91 92 90
f 93 88 90
f 94 88 93
f 90 92 95
f 93 90 95
f 95 96 93
f 95 92 97
f 98 96 95
f 95 97 99
f 99 98 95
f 97 100 99
f 98 99 101
f 102 101 99
f 101 103 98
f 101 104 103
f 101 105 104
f 102 105 101
f 102 106 105
f 107 99 100
f 102 99 107
f 100 108 107
f 109 107 108
f 102 107 109
f 109 108 110
f 110 111 109
f 102 112 106
f 106 112 113
f 114 102 109
f 109 111 114
f 102 114 112
f 115 114 111
f 111 116 115
f 116 117 115
f 118 115 117
f 114 115 119
f 119 115 118
f 114 119 112
f 118 120 119
f 112 119 120
f 118 121 120
f 122 120 121
f 120 122 123
f 120 123 124
f 112 125 113
f 120 125 112
f 120 124 125
f 126 113 125
f 125 124 127
f 125 127 126
f 128 129 130
f 128 130 131
f 131 132 128
f 132 131 133
f 134 131 130
f 135 134 130
f 131 136 133
f 134 136 131
f 136 134 137
f 136 138 133
f 139 136 137
f 136 140 138
f 140 136 139
f 138 140 141
f 139 142 140
f 143 140 142
f 142 139 144
f 142 144 145
f 142 145 146
f 143 142 146
f 143 146 147
f 148 141 140
f 143 148 140
f 141 148 149
f 150 149 148
f 143 150 148
f 150 151 149
f 151 150 152
f 143 147 153
f 147 154 153
f 155 150 143
f 150 155 152
f 143 153 155
f 156 152 155
f 152 156 157
f 157 156 158
f 159 158 156
f 155 160 156
f 160 159 156
f 155 153 160
f 159 160 161
f 153 161 160
f 159 161 162
f 163 162 161
f 161 164 163
f 161 165 164
f 153 154 166
f 161 153 166
f 161 166 165
f 167 166 154
f 166 168 165
f 166 167 168
f 169 170 171
f 172 169 171
f 173 172 171
f 174 173 171
f 175 176 177
f 178 176 175
f 179 176 178
f 180 176 179
f 181 182 183
f 184 182 181
f 185 182 184
f 184 186 185
f 187 184 181
f 188 187 181
f 184 187 189
f 184 189 190
f 191 186 184
f 190 191 184
f 191 192 186
f 193 192 191
f 191 190 193
f 193 190 194
f 195 196 197
f 198 195 197
f 199 198 197
f 198 199 200
f 201 195 198
f 202 195 201
f 198 203 201
f 198 204 203
f 205 198 200
f 204 198 205
f 205 200 206
f 207 205 206
f 205 207 204
f 207 208 204
f 209 210 211
f 210 209 212
f 213 210 212
f 214 212 209
f 213 212 215
f 215 216 213
f 212 214 217
f 215 212 217
f 218 217 214
f 217 218 219
f 220 217 219
f 215 217 220
f 220 219 221
f 216 215 222
f 220 222 215
f 222 223 216
f 223 222 224
f 221 225 220
f 222 220 225
f 225 224 222
f 225 221 226
f 224 225 227
f 226 227 225
f 227 226 228
f 229 230 231
f 231 232 229
f 233 232 231
f 234 229 232
f 233 235 232
f 235 233 236
f 232 237 234
f 235 237 232
f 238 234 237
f 237 239 238
f 240 239 237
f 235 240 237
f 240 241 239
f 236 242 235
f 240 235 242
f 242 236 243
f 243 244 242
f 241 240 245
f 242 245 240
f 245 242 244
f 245 246 241
f 244 247 245
f 246 245 247
f 247 248 246
f 249 250 251
f 252 250 249
f 253 252 249
f 254 253 249
f 255 256 257
f 257 256 258
f 258 256 259
f 256 260 259
f 261 262 263
f 261 264 262
f 265 266 267
f 265 268 266
