v 0.220260 0.409875 -0.118188
v 0.221619 0.412199 -0.116210
v 0.210659 0.423897 -0.116814
v 0.211661 0.411954 -0.121033
v 0.207043 0.415462 -0.128294
v 0.203710 0.424938 -0.128233
v 0.205625 0.364292 -0.146232
v 0.207431 0.362655 -0.142757
v 0.211471 0.361820 -0.141761
v 0.203710 0.424938 -0.128233
v 0.215823 0.425750 -0.122543
v 0.207043 0.415462 -0.128294
v 0.215690 0.413400 -0.125503
v 0.205625 0.364292 -0.146232
v 0.209713 0.363474 -0.145289
v 0.220260 0.409875 -0.118188
v 0.221619 0.412199 -0.116210
v 0.211471 0.361820 -0.141761
v 0.223173 0.437942 -0.106480
v 0.210825 0.428903 -0.114336
v 0.224155 0.434517 -0.106703
v 0.214574 0.440022 -0.109325
v 0.209957 0.443530 -0.116587
v 0.204603 0.437475 -0.123373
v 0.218841 0.491619 -0.093121
v 0.220648 0.489982 -0.089646
v 0.224688 0.489147 -0.088650
v 0.204603 0.437475 -0.123373
v 0.209957 0.443530 -0.116587
v 0.216656 0.430995 -0.120804
v 0.218604 0.441468 -0.113795
v 0.218841 0.491619 -0.093121
v 0.222930 0.490802 -0.092178
v 0.223173 0.437942 -0.106480
v 0.224155 0.434517 -0.106703
v 0.224688 0.489147 -0.088650
v 0.219050 0.421842 -0.106986
v 0.198898 0.429859 -0.121076
v 0.202946 0.423594 -0.129357
v 0.221619 0.412199 -0.116210
v 0.204394 0.439619 -0.122867
v 0.224155 0.434517 -0.106703
v 0.198898 0.429859 -0.121076
v 0.202946 0.423594 -0.129357
v 0.227040 0.424709 -0.115849
v 0.221619 0.412199 -0.116210
v 0.208278 0.433225 -0.131482
v 0.208278 0.433225 -0.131482
v 0.204394 0.439619 -0.122867
v 0.224155 0.434517 -0.106703
v 0.205625 0.364292 -0.146232
v 0.209713 0.363474 -0.145289
v 0.207431 0.362655 -0.142757
v 0.211471 0.361820 -0.141761
v 0.133823 0.455296 -0.181745
v 0.131278 0.459765 -0.175946
v 0.134984 0.466477 -0.177081
v 0.137566 0.462022 -0.182922
v 0.224688 0.489147 -0.088650
v 0.222930 0.490802 -0.092178
v 0.220648 0.489982 -0.089646
v 0.218841 0.491619 -0.093121
v 0.138009 0.453302 -0.162127
v 0.134984 0.466477 -0.177081
v 0.131241 0.459752 -0.175905
v 0.147189 0.469837 -0.164991
v 0.149743 0.450461 -0.158236
v 0.155711 0.461200 -0.160103
v 0.198898 0.429859 -0.121076
v 0.204394 0.439619 -0.122867
v 0.149743 0.450461 -0.158236
v 0.202946 0.423594 -0.129357
v 0.198898 0.429859 -0.121076
v 0.153857 0.443340 -0.167553
v 0.138009 0.453302 -0.162127
v 0.144334 0.442332 -0.176464
v 0.131241 0.459752 -0.175905
v 0.133823 0.455296 -0.181745
v 0.153515 0.458867 -0.179328
v 0.137566 0.462022 -0.182922
v 0.134984 0.466477 -0.177081
v 0.147189 0.469837 -0.164991
v 0.159825 0.454079 -0.169420
v 0.155711 0.461200 -0.160103
v 0.208278 0.433225 -0.131482
v 0.204394 0.439619 -0.122867
v 0.144334 0.442332 -0.176464
v 0.133823 0.455296 -0.181745
v 0.137566 0.462022 -0.182922
v 0.153515 0.458867 -0.179328
v 0.153857 0.443340 -0.167553
v 0.159825 0.454079 -0.169420
v 0.202946 0.423594 -0.129357
v 0.208278 0.433225 -0.131482
v 0.234796 0.406912 -0.106361
v 0.219050 0.421842 -0.106986
v 0.221619 0.412199 -0.116210
v 0.232830 0.416764 -0.098344
v 0.224155 0.434517 -0.106703
v 0.237072 0.428843 -0.097213
v 0.451459 0.335436 0.065823
v 0.448424 0.326342 0.064765
v 0.449733 0.318808 0.058887
v 0.482539 0.313617 0.086782
v 0.234796 0.406912 -0.106361
v 0.221619 0.412199 -0.116210
v 0.227040 0.424709 -0.115849
v 0.239038 0.418991 -0.105230
v 0.224155 0.434517 -0.106703
v 0.237072 0.428843 -0.097213
v 0.451459 0.335436 0.065823
v 0.452768 0.327901 0.059946
v 0.449733 0.318808 0.058887
v 0.482539 0.313617 0.086782
f 1 2 3
f 3 4 1
f 4 3 5
f 6 5 3
f 5 7 4
f 8 4 7
f 4 8 1
f 9 1 8
f 10 11 12
f 13 12 11
f 12 13 14
f 15 14 13
f 11 16 13
f 13 16 15
f 16 11 17
f 18 15 16
f 19 20 21
f 20 19 22
f 22 23 20
f 24 20 23
f 23 22 25
f 26 25 22
f 22 19 26
f 27 26 19
f 28 29 30
f 31 30 29
f 29 32 31
f 33 31 32
f 30 31 34
f 31 33 34
f 34 35 30
f 36 34 33
f 37 38 39
f 39 40 37
f 41 37 42
f 37 41 43
f 44 45 46
f 45 44 47
f 45 48 49
f 49 50 45
f 51 52 53
f 54 53 52
f 55 56 57
f 57 58 55
f 59 60 61
f 62 61 60
f 63 64 65
f 64 63 66
f 67 66 63
f 66 67 68
f 69 68 67
f 68 69 70
f 71 72 73
f 72 71 74
f 75 74 71
f 74 75 76
f 77 76 75
f 76 77 78
f 79 80 81
f 81 82 79
f 83 79 82
f 82 84 83
f 85 83 84
f 84 86 85
f 87 88 89
f 89 90 87
f 91 87 90
f 90 92 91
f 93 91 92
f 92 94 93
f 95 96 97
f 96 95 98
f 98 99 96
f 99 98 100
f 98 101 100
f 95 102 98
f 101 98 102
f 102 95 103
f 102 104 101
f 103 104 102
f 105 106 107
f 107 108 105
f 108 107 109
f 109 110 108
f 108 110 111
f 105 108 112
f 111 112 108
f 112 113 105
f 112 111 114
f 113 112 114
