v -0.006757 0.605232 0.047733
v -0.010882 0.567879 0.016890
v -0.063634 0.563934 0.031386
v -0.059509 0.601288 0.062230
v 0.000030 0.590553 0.082786
v -0.102598 0.553238 0.055234
v -0.030964 0.589661 0.087884
v -0.088770 0.590950 0.084445
v -0.057835 0.582809 0.101336
v -0.112857 0.531433 0.103106
v -0.064185 0.569855 0.122603
v -0.101474 0.574646 0.119134
v -0.097247 0.511215 0.141047
v -0.085864 0.554428 0.157076
v -0.056905 0.560234 0.140206
v -0.068184 0.490151 0.167026
v -0.056915 0.533363 0.183098
v -0.037447 0.545914 0.151043
v -0.022299 0.477394 0.173471
v -0.020733 0.520256 0.191176
v -0.010894 0.538506 0.155495
v 0.021302 0.516930 0.187592
v 0.014775 0.544548 0.156624
v 0.019911 0.474068 0.170344
v 0.014076 0.486549 0.140156
v -0.011394 0.489563 0.142611
v -0.068184 0.490151 0.167026
v -0.039013 0.503059 0.133338
v -0.097247 0.511215 0.141047
v -0.058471 0.517372 0.122501
v -0.112857 0.531433 0.103106
v -0.065751 0.526993 0.104898
v -0.102598 0.553238 0.055234
v -0.059429 0.538452 0.087304
v -0.063634 0.563934 0.031386
v -0.032644 0.546799 0.070223
v -0.010882 0.567879 0.016890
v -0.001536 0.547691 0.065081
v -0.006757 0.605232 0.047733
v 0.043888 0.567864 0.012079
v -0.010882 0.567879 0.016890
v 0.048013 0.605217 0.042923
v 0.000030 0.590553 0.082786
v 0.089394 0.560242 0.021285
v 0.030901 0.591919 0.076688
v 0.083702 0.597237 0.053805
v 0.061161 0.587151 0.080240
v 0.116974 0.539818 0.062477
v 0.075470 0.574951 0.097760
v 0.108837 0.582321 0.081814
v 0.116773 0.519028 0.102827
v 0.108636 0.561531 0.122164
v 0.075274 0.565056 0.116664
v 0.100124 0.496292 0.137461
v 0.091987 0.538796 0.156798
v 0.061801 0.549538 0.133343
v 0.060111 0.480408 0.158573
v 0.061677 0.523270 0.176278
v 0.038988 0.540321 0.146807
v 0.021302 0.516930 0.187592
v 0.014775 0.544548 0.156624
v 0.019911 0.474068 0.170344
v 0.014076 0.486549 0.140156
v 0.038488 0.491386 0.133923
v 0.100124 0.496292 0.137461
v 0.060235 0.506676 0.115638
v 0.116773 0.519028 0.102827
v 0.073594 0.522194 0.099004
v 0.116974 0.539818 0.062477
v 0.073904 0.532089 0.080056
v 0.089394 0.560242 0.021285
v 0.060995 0.542847 0.066182
v 0.043888 0.567864 0.012079
v 0.029335 0.549065 0.058984
v -0.010882 0.567879 0.016890
v -0.001536 0.547691 0.065081
v -0.077687 0.560608 0.076530
v -0.099320 0.524262 0.094771
v -0.090823 0.545151 0.114522
v -0.082418 0.530869 0.048534
v -0.047453 0.564385 0.054464
v -0.103544 0.495850 0.080702
v -0.051090 0.532883 0.027617
v -0.083716 0.504150 0.035957
v -0.020402 0.534576 0.020021
v -0.022191 0.564552 0.047381
v 0.002707 0.531738 0.022657
v -0.005634 0.564865 0.045210
v 0.005475 0.498146 0.011134
v -0.020210 0.502213 0.007918
v 0.008821 0.472771 0.015080
v -0.053186 0.499611 0.015346
v -0.085320 0.481384 0.035526
v -0.015811 0.468590 0.007798
v 0.011009 0.454132 0.032022
v -0.010435 0.447746 0.015672
v -0.051904 0.467300 0.011192
v -0.087456 0.459763 0.032685
v -0.116315 0.406548 0.069914
v -0.049547 0.448151 0.012903
v 0.000448 0.376274 0.018816
v -0.098535 0.389870 0.033800
v -0.104963 0.320374 0.067125
v -0.053063 0.366829 0.001700
v -0.092572 0.344925 0.028896
v -0.076216 0.271011 0.052429
v -0.044379 0.272942 0.030794
v -0.042341 0.275719 0.050409
v -0.005373 0.272255 0.049294
v -0.072936 0.265663 0.062677
v -0.008198 0.268578 0.053517
v -0.078267 0.281723 0.053217
v -0.006159 0.291885 0.043842
v -0.043725 0.303322 0.048848
v -0.084122 0.335747 0.013099
v -0.103271 0.307686 0.012605
v -0.049116 0.346542 0.009599
v -0.013275 0.336838 0.003163
v -0.001134 0.314034 -0.000974
v -0.005634 0.564865 0.045210
v 0.010740 0.565758 0.041540
v 0.002707 0.531738 0.022657
v 0.013647 0.535309 0.018457
v 0.005475 0.498146 0.011134
v 0.036841 0.567459 0.039366
v 0.017177 0.500267 0.009257
v 0.008821 0.472771 0.015080
v 0.045047 0.539085 0.021571
v 0.018108 0.463577 0.018837
v 0.011009 0.454132 0.032022
v 0.022303 0.443321 0.036578
v 0.053875 0.467613 0.017659
v 0.078665 0.543121 0.037956
v 0.073100 0.566109 0.050029
v 0.050864 0.503548 0.012539
v 0.101914 0.541176 0.080810
v 0.099513 0.552094 0.080686
v 0.109941 0.510277 0.069361
v 0.082703 0.514130 0.028038
v 0.088063 0.488358 0.033825
v 0.096890 0.468041 0.044558
v 0.128506 0.424713 0.105122
v 0.060106 0.448288 0.032528
v 0.007196 0.375427 0.100433
v 0.106379 0.392044 0.089034
v 0.123538 0.355072 0.157239
v 0.058047 0.357048 0.084051
v 0.104298 0.355042 0.108138
v 0.097737 0.305748 0.183357
v 0.063171 0.293488 0.169951
v 0.064147 0.287972 0.177945
v 0.027276 0.307373 0.191575
v 0.096898 0.295319 0.193093
v 0.031297 0.292908 0.194216
v 0.099783 0.279305 0.189370
v 0.026650 0.276329 0.184493
v 0.063391 0.275803 0.168821
v 0.098085 0.231484 0.147135
v 0.119093 0.233696 0.173590
v 0.062131 0.229919 0.138969
v 0.026566 0.229546 0.151575
v 0.015893 0.230583 0.175547
v 0.101914 0.541176 0.080810
v 0.099513 0.552094 0.080686
v 0.094603 0.534905 0.110814
v 0.097436 0.527344 0.107634
v 0.086946 0.518005 0.133105
v 0.104970 0.502983 0.098989
v 0.109941 0.510277 0.069361
v 0.128506 0.424713 0.105122
v 0.082583 0.506630 0.130595
v 0.058540 0.506767 0.147670
v 0.089490 0.502762 0.129513
v 0.110034 0.454208 0.155100
v 0.072900 0.492638 0.142158
v 0.061585 0.483009 0.142317
v 0.024967 0.467499 0.144344
v 0.016965 0.500725 0.158922
v 0.007295 0.464447 0.150081
v 0.011337 0.440636 0.133362
v 0.023849 0.450272 0.125421
v 0.012795 0.431732 0.115020
v 0.030959 0.457130 0.135768
v 0.069890 0.462181 0.174171
v 0.023692 0.448799 0.164185
v 0.032420 0.413994 0.206337
v 0.015095 0.394768 0.190498
v 0.040382 0.347916 0.252968
v 0.021283 0.332535 0.229441
v 0.041566 0.321259 0.265589
v 0.023497 0.308449 0.234868
v 0.044517 0.288506 0.255565
v 0.030636 0.282166 0.226897
v 0.065399 0.325264 0.273177
v 0.064033 0.353066 0.259057
v 0.065997 0.421829 0.217507
v 0.099213 0.414482 0.204234
v 0.044494 0.235031 0.237791
v 0.026437 0.233246 0.215957
v 0.065205 0.290703 0.262791
v 0.065494 0.236313 0.248558
v 0.090707 0.323029 0.264508
v 0.086788 0.289497 0.252937
v 0.087709 0.236443 0.238985
v 0.122747 0.381088 0.187878
v 0.123538 0.355072 0.157239
v 0.090085 0.349182 0.250625
v 0.106522 0.330246 0.218165
v 0.097737 0.305748 0.183357
v 0.096898 0.295319 0.193093
v 0.106114 0.308037 0.224598
v 0.102130 0.283188 0.219328
v 0.105472 0.235642 0.215430
v 0.099783 0.279305 0.189370
v 0.119093 0.233696 0.173590
v -0.099320 0.524262 0.094771
v -0.074617 0.528740 0.140729
v -0.090823 0.545151 0.114522
v -0.089232 0.510742 0.120711
v -0.058530 0.512695 0.159136
v -0.092658 0.478798 0.106336
v -0.103544 0.495850 0.080702
v -0.116315 0.406548 0.069914
v -0.068211 0.492180 0.141408
v -0.026385 0.503677 0.162487
v -0.073734 0.469414 0.129406
v -0.088271 0.403122 0.126619
v -0.053767 0.456932 0.139525
v -0.042371 0.471901 0.149795
v -0.006681 0.460732 0.146032
v 0.016965 0.500725 0.158922
v 0.007295 0.464447 0.150081
v 0.011337 0.440636 0.133362
v -0.001230 0.431809 0.119358
v 0.012795 0.431732 0.115020
v -0.006077 0.428688 0.120695
v -0.041854 0.402519 0.150119
v -0.001580 0.399490 0.118446
v -0.004926 0.345642 0.129145
v 0.008869 0.340569 0.102406
v -0.009007 0.257622 0.111360
v 0.006293 0.264084 0.087181
v -0.010264 0.229424 0.089352
v 0.004060 0.247047 0.071824
v -0.018145 0.226517 0.053151
v -0.006818 0.250397 0.047234
v -0.032897 0.224037 0.096471
v -0.031625 0.255203 0.120565
v -0.035928 0.342850 0.147845
v -0.071154 0.342369 0.137830
v -0.025513 0.250168 -0.005214
v -0.009107 0.272926 -0.004713
v -0.037946 0.219399 0.057091
v -0.045619 0.237633 -0.003773
v -0.098364 0.323097 0.107480
v -0.104963 0.320374 0.067125
v -0.058511 0.256355 0.117287
v -0.058962 0.227264 0.096016
v -0.060050 0.225761 0.058776
v -0.068163 0.245468 0.000174
v -0.079344 0.263710 0.091287
v -0.076216 0.271011 0.052429
v -0.072936 0.265663 0.062677
v -0.078696 0.248093 0.079009
v -0.078015 0.251679 0.056258
v -0.087210 0.267357 0.005394
v -0.078267 0.281723 0.053217
v -0.103271 0.307686 0.012605
v 0.044489 0.495651 -0.102170
v -0.031701 0.501732 -0.110581
v 0.045162 0.528420 -0.059541
v -0.023646 0.536835 -0.059279
v 0.042909 0.555611 -0.018403
v -0.088181 0.532867 -0.038691
v -0.101324 0.503754 -0.082809
v -0.072843 0.556862 0.000925
v -0.015927 0.552750 -0.014647
v 0.047444 0.563988 0.028496
v -0.061165 0.560028 0.047698
v -0.007904 0.564003 0.032483
v 0.081089 0.507164 0.136922
v 0.113942 0.472565 0.143140
v 0.108482 0.524078 0.102348
v 0.144473 0.493622 0.093239
v 0.109000 0.539612 0.073383
v 0.136343 0.438599 0.142909
v 0.144874 0.515854 0.056474
v 0.091688 0.552460 0.051785
v 0.173420 0.457878 0.082128
v 0.162611 0.397385 0.140148
v 0.202074 0.411652 0.062760
v 0.175397 0.480537 0.034820
v 0.206175 0.433968 0.009407
v 0.188440 0.446152 -0.022489
v 0.114376 0.528435 0.014833
v 0.060061 0.563950 0.034114
v 0.071622 0.534966 -0.007982
v 0.136010 0.500107 -0.018053
v 0.161095 0.456230 -0.048080
v 0.083903 0.504257 -0.038324
v 0.099778 0.466316 -0.069522
v -0.051379 0.502342 0.160052
v -0.090014 0.516830 0.137748
v -0.051096 0.501778 0.196555
v -0.099247 0.509583 0.170581
v -0.101653 0.531929 0.110834
v -0.056531 0.464844 0.225315
v -0.122423 0.505135 0.137113
v -0.093739 0.545692 0.084784
v -0.113147 0.467468 0.198407
v -0.063606 0.418228 0.256274
v -0.124252 0.414848 0.225682
v -0.140247 0.462776 0.160169
v -0.154620 0.409088 0.186084
v -0.160543 0.402016 0.144424
v -0.120935 0.491386 0.085809
v -0.070917 0.559166 0.057718
v -0.094490 0.501404 0.039569
v -0.139718 0.451202 0.088312
v -0.153891 0.399132 0.103167
v -0.105503 0.464813 0.034382
v -0.117981 0.422279 0.031850
v -0.006159 0.291885 0.043842
v -0.009107 0.272926 -0.004713
v -0.001134 0.314034 -0.000974
v -0.006818 0.250397 0.047234
v 0.004060 0.247047 0.071824
v -0.008198 0.268578 0.053517
v -0.005373 0.272255 0.049294
v 0.006293 0.264084 0.087181
v 0.014382 0.334251 0.061586
v 0.008869 0.340569 0.102406
v 0.000448 0.376274 0.018816
v 0.017715 0.383926 0.071290
v -0.001580 0.399490 0.118446
v -0.006077 0.428688 0.120695
v 0.007280 0.441864 0.052282
v -0.010435 0.447746 0.015672
v 0.011009 0.454132 0.032022
v 0.012159 0.442200 0.069761
v 0.002521 0.431648 0.079737
v -0.001230 0.431809 0.119358
v 0.012795 0.431732 0.115020
v 0.026650 0.276329 0.184493
v 0.015893 0.230583 0.175547
v 0.026437 0.233246 0.215957
v 0.030636 0.282166 0.226897
v 0.023497 0.308449 0.234868
v 0.031297 0.292908 0.194216
v 0.027276 0.307373 0.191575
v 0.021283 0.332535 0.229441
v 0.003798 0.366257 0.163453
v 0.015095 0.394768 0.190498
v 0.007196 0.375427 0.100433
v -0.001874 0.410904 0.139480
v 0.023692 0.448799 0.164185
v 0.030959 0.457130 0.135768
v 0.007470 0.445305 0.069469
v 0.022303 0.443321 0.036578
v 0.011009 0.454132 0.032022
v 0.012159 0.442200 0.069761
v 0.014730 0.442009 0.091787
v 0.023849 0.450272 0.125421
v 0.012795 0.431732 0.115020
v 0.030450 0.466660 0.202909
v 0.053657 0.399887 0.284484
v 0.120051 0.422203 0.275211
v -0.011041 0.415222 0.298858
v 0.092925 0.478310 0.196710
v -0.031146 0.472366 0.219232
v 0.070165 0.498871 0.143208
v -0.038330 0.494911 0.162365
v 0.018906 0.479462 0.166022
v 0.021762 0.471932 0.180616
v 0.018820 0.463539 0.162394
v 0.033554 0.466621 0.160922
v 0.004217 0.465553 0.165907
v 0.046305 0.474335 0.161781
v -0.007916 0.472366 0.171088
v 0.045054 0.492554 0.184751
v 0.023145 0.511528 0.196822
v 0.054901 0.485512 0.164758
v 0.058193 0.498436 0.169247
v 0.055954 0.511154 0.175337
v 0.047940 0.521721 0.181028
v 0.035807 0.528534 0.186208
v 0.021204 0.530548 0.189722
v 0.006645 0.527466 0.191649
v -0.006106 0.519753 0.190791
v -0.000147 0.490906 0.192688
v -0.015641 0.482933 0.177191
v -0.014701 0.508575 0.187814
v -0.018169 0.495651 0.182869
f 1 2 3
f 1 3 4
f 5 1 4
f 4 3 6
f 5 4 7
f 4 6 8
f 7 4 8
f 7 8 9
f 8 6 10
f 11 9 8
f 8 10 12
f 11 8 12
f 12 10 13
f 11 12 14
f 12 13 14
f 11 14 15
f 14 13 16
f 15 14 17
f 14 16 17
f 15 17 18
f 17 16 19
f 18 17 20
f 17 19 20
f 18 20 21
f 21 20 22
f 21 22 23
f 22 20 24
f 19 24 20
f 19 25 24
f 19 26 25
f 27 26 19
f 27 28 26
f 29 28 27
f 29 30 28
f 31 30 29
f 31 32 30
f 33 32 31
f 33 34 32
f 35 34 33
f 35 36 34
f 37 36 35
f 37 38 36
f 39 40 41
f 39 42 40
f 43 42 39
f 42 44 40
f 43 45 42
f 42 46 44
f 45 46 42
f 45 47 46
f 46 48 44
f 49 46 47
f 46 50 48
f 49 50 46
f 50 51 48
f 49 52 50
f 50 52 51
f 49 53 52
f 52 54 51
f 53 55 52
f 52 55 54
f 53 56 55
f 55 57 54
f 56 58 55
f 55 58 57
f 56 59 58
f 59 60 58
f 59 61 60
f 60 62 58
f 57 58 62
f 57 62 63
f 57 63 64
f 65 57 64
f 65 64 66
f 67 65 66
f 67 66 68
f 69 67 68
f 69 68 70
f 71 69 70
f 71 70 72
f 73 71 72
f 73 72 74
f 75 73 74
f 75 74 76
f 77 78 79
f 77 80 78
f 80 77 81
f 80 82 78
f 80 81 83
f 84 82 80
f 84 80 83
f 85 83 81
f 85 81 86
f 87 85 86
f 88 87 86
f 87 89 85
f 89 90 85
f 90 83 85
f 91 90 89
f 84 83 92
f 90 92 83
f 84 93 82
f 92 93 84
f 91 94 90
f 91 95 94
f 95 96 94
f 97 92 90
f 94 97 90
f 93 92 97
f 96 97 94
f 93 98 82
f 98 93 97
f 82 98 99
f 100 97 96
f 97 100 98
f 101 100 96
f 102 99 98
f 98 100 102
f 102 103 99
f 100 101 104
f 104 102 100
f 102 105 103
f 104 105 102
f 105 106 103
f 101 107 104
f 105 104 107
f 106 105 107
f 108 106 107
f 107 101 109
f 109 108 107
f 110 106 108
f 111 108 109
f 112 110 108
f 111 113 108
f 108 114 112
f 114 108 113
f 115 112 114
f 116 112 115
f 115 114 117
f 114 118 117
f 114 113 118
f 113 119 118
f 120 121 122
f 122 121 123
f 122 123 124
f 123 121 125
f 124 123 126
f 127 124 126
f 123 125 128
f 126 123 128
f 127 126 129
f 127 129 130
f 130 129 131
f 129 126 132
f 131 129 132
f 133 128 125
f 133 125 134
f 126 128 135
f 132 126 135
f 134 136 133
f 134 137 136
f 133 136 138
f 139 128 133
f 139 135 128
f 139 133 138
f 135 139 140
f 139 138 140
f 140 132 135
f 140 138 141
f 141 132 140
f 141 138 142
f 143 131 132
f 132 141 143
f 144 131 143
f 142 145 141
f 141 145 143
f 145 142 146
f 143 147 144
f 147 143 145
f 145 146 148
f 147 145 148
f 148 146 149
f 144 147 150
f 148 150 147
f 149 150 148
f 151 150 149
f 150 152 144
f 152 150 151
f 153 151 149
f 154 152 151
f 155 151 153
f 154 151 156
f 151 155 157
f 157 156 151
f 158 157 155
f 159 158 155
f 158 160 157
f 157 160 161
f 157 161 156
f 156 161 162
f 163 164 165
f 166 163 165
f 166 165 167
f 168 163 166
f 169 163 168
f 168 170 169
f 166 167 171
f 167 172 171
f 173 168 166
f 173 166 171
f 170 168 174
f 173 174 168
f 175 173 171
f 173 175 174
f 172 176 171
f 175 171 176
f 172 177 176
f 172 178 177
f 178 179 177
f 180 177 179
f 181 176 177
f 181 177 180
f 181 175 176
f 182 181 180
f 183 175 181
f 183 184 175
f 184 174 175
f 184 183 185
f 186 184 185
f 186 185 187
f 188 186 187
f 188 187 189
f 189 190 188
f 190 189 191
f 192 190 191
f 192 191 193
f 194 188 190
f 192 194 190
f 195 186 188
f 194 195 188
f 186 196 184
f 195 196 186
f 184 196 197
f 195 197 196
f 184 197 174
f 198 192 193
f 193 199 198
f 192 198 200
f 192 200 194
f 200 198 201
f 202 195 194
f 200 202 194
f 201 203 200
f 203 202 200
f 204 203 201
f 174 197 205
f 205 170 174
f 206 170 205
f 207 197 195
f 207 205 197
f 202 207 195
f 208 206 205
f 205 207 208
f 208 207 202
f 209 206 208
f 210 209 208
f 208 202 211
f 211 202 203
f 210 208 211
f 212 203 204
f 203 212 211
f 210 211 212
f 204 213 212
f 210 212 214
f 212 213 215
f 215 214 212
f 216 217 218
f 219 217 216
f 219 220 217
f 221 219 216
f 222 221 216
f 221 222 223
f 219 224 220
f 220 224 225
f 226 219 221
f 226 224 219
f 223 227 221
f 226 221 227
f 228 224 226
f 226 227 228
f 225 224 229
f 228 229 224
f 225 229 230
f 225 230 231
f 231 230 232
f 233 232 230
f 234 230 229
f 234 233 230
f 234 229 228
f 235 233 234
f 236 234 228
f 236 228 237
f 237 228 227
f 237 238 236
f 239 238 237
f 239 240 238
f 241 240 239
f 241 242 240
f 242 241 243
f 243 244 242
f 245 244 243
f 245 246 244
f 247 243 241
f 245 243 247
f 248 241 239
f 247 241 248
f 239 237 249
f 248 239 249
f 237 250 249
f 237 227 250
f 248 249 250
f 251 246 245
f 246 251 252
f 245 253 251
f 245 247 253
f 253 254 251
f 227 255 250
f 255 227 223
f 256 255 223
f 257 248 250
f 257 250 255
f 258 247 248
f 253 247 258
f 258 248 257
f 254 253 259
f 259 253 258
f 260 254 259
f 261 255 256
f 255 261 257
f 261 258 257
f 262 261 256
f 263 261 262
f 261 264 258
f 264 259 258
f 263 264 261
f 265 260 259
f 259 264 265
f 263 265 264
f 260 265 266
f 263 267 265
f 265 268 266
f 268 265 267
f 269 270 271
f 272 271 270
f 271 272 273
f 272 270 274
f 275 274 270
f 274 276 272
f 277 273 272
f 277 272 276
f 273 277 278
f 276 279 277
f 280 278 277
f 280 277 279
f 281 282 283
f 283 282 284
f 284 285 283
f 282 286 284
f 287 285 284
f 285 287 288
f 284 286 289
f 289 287 284
f 286 290 289
f 289 290 291
f 291 292 289
f 292 287 289
f 293 292 291
f 292 293 294
f 288 287 295
f 287 292 295
f 295 296 288
f 297 296 295
f 298 292 294
f 295 292 298
f 298 297 295
f 298 294 299
f 300 297 298
f 299 300 298
f 301 300 299
f 302 303 304
f 303 305 304
f 305 303 306
f 304 305 307
f 308 305 306
f 306 309 308
f 305 310 307
f 310 305 308
f 307 310 311
f 310 312 311
f 312 310 313
f 313 310 308
f 314 312 313
f 313 315 314
f 309 316 308
f 308 316 313
f 316 309 317
f 318 316 317
f 319 315 313
f 316 319 313
f 319 316 318
f 319 320 315
f 321 319 318
f 320 319 321
f 322 320 321
f 323 324 325
f 324 323 326
f 326 323 327
f 323 328 327
f 327 328 329
f 330 327 329
f 330 329 331
f 332 330 331
f 331 329 333
f 331 334 332
f 331 333 334
f 332 334 335
f 336 335 334
f 334 333 337
f 337 333 338
f 339 337 338
f 339 340 337
f 336 334 341
f 334 337 341
f 340 341 337
f 341 342 336
f 340 343 341
f 343 342 341
f 344 345 346
f 346 347 344
f 347 348 344
f 344 348 349
f 348 350 349
f 351 350 348
f 351 352 350
f 353 352 351
f 352 354 350
f 352 353 355
f 352 355 354
f 353 356 355
f 357 355 356
f 355 358 354
f 358 359 354
f 360 359 358
f 360 358 361
f 357 362 355
f 355 362 358
f 361 358 362
f 362 357 363
f 361 362 364
f 364 362 363
f 365 366 367
f 365 368 366
f 369 365 367
f 368 365 370
f 371 365 369
f 370 365 372
f 365 371 373
f 373 372 365
f 374 375 376
f 374 377 375
f 374 376 378
f 374 379 377
f 380 374 378
f 381 374 380
f 380 378 382
f 380 382 383
f 380 383 384
f 380 384 385
f 381 380 385
f 381 385 386
f 381 386 387
f 381 387 388
f 381 388 389
f 390 379 374
f 381 390 374
f 381 389 390
f 390 391 379
f 390 389 392
f 390 393 391
f 390 392 393
