# Pawns/Pawn11/model/Bodyparts/FMagic_m003_g(Clone)  mesh=FMagic_m003_g.mo
v -0.072401 0.392735 0.072713
v -0.062915 0.383392 0.067127
v -0.063734 0.384960 0.062383
v -0.072593 0.394365 0.066720
v -0.074582 0.395742 0.072550
v -0.079355 0.403381 0.068458
v -0.074031 0.399251 0.061452
v -0.081354 0.408432 0.065111
v -0.081535 0.416283 0.057273
v -0.091981 0.410054 0.054941
v -0.089666 0.427581 0.040785
v -0.082649 0.427672 0.043304
v -0.080838 0.436955 0.040756
v -0.087594 0.436981 0.039314
v -0.091129 0.435676 0.027875
v -0.090569 0.398948 0.062145
v -0.079355 0.403381 0.068458
v -0.087066 0.395573 0.065865
v -0.074582 0.395742 0.072550
v -0.080598 0.389705 0.070501
v -0.072401 0.392735 0.072713
v -0.077591 0.387429 0.071136
v -0.066117 0.379870 0.066049
v -0.062915 0.383392 0.067127
v -0.098849 0.394099 0.056649
v -0.081241 0.392553 0.060417
v -0.092528 0.424651 0.028531
v -0.085746 0.433416 0.018550
v -0.086245 0.421986 0.018794
v -0.087704 0.384047 0.025626
v -0.094390 0.380637 0.060708
v -0.084904 0.385896 0.061392
v -0.094793 0.388427 0.039742
v -0.089949 0.374512 0.046332
v -0.083307 0.370955 0.030954
v -0.081114 0.368490 0.033089
v -0.091803 0.377724 0.061804
v -0.077024 0.379487 0.064615
v -0.087202 0.372059 0.047926
v -0.067675 0.365525 0.040910
v -0.077146 0.373565 0.066654
v -0.071927 0.368592 0.054269
v -0.073475 0.375302 0.066801
v -0.068293 0.370574 0.054834
v -0.064425 0.367799 0.042354
v -0.069682 0.389233 0.061939
v -0.076243 0.388910 0.060314
v -0.064593 0.385950 0.051402
v -0.062168 0.382691 0.041349
v -0.067004 0.395882 0.047697
v -0.070542 0.395802 0.058649
v -0.074619 0.395006 0.057720
v 0.086141 0.429038 -0.086549
v 0.084248 0.431169 -0.075249
v 0.088501 0.431889 -0.085056
v 0.081927 0.425303 -0.076161
v 0.090608 0.427548 -0.069528
v 0.060841 0.412337 -0.105969
v 0.090330 0.419034 -0.072461
v 0.103846 0.426556 -0.071617
v 0.101938 0.417043 -0.075525
v 0.080674 0.392740 -0.083930
v 0.096668 0.396036 -0.082886
v 0.082761 0.382705 -0.085160
v 0.080472 0.382673 -0.094722
v 0.084306 0.374676 -0.087187
v 0.069707 0.398394 -0.089529
v 0.061320 0.407734 -0.093105
v 0.052784 0.400617 -0.098166
v 0.051443 0.401577 -0.108811
v 0.049376 0.398146 -0.108329
v 0.064237 0.390053 -0.100071
v 0.047257 0.389758 -0.094493
v 0.043893 0.387308 -0.100510
v 0.043304 0.384647 -0.096413
v 0.046826 0.383189 -0.082766
v 0.050863 0.387948 -0.084140
v 0.057552 0.380705 -0.096071
v 0.076756 0.380322 -0.100572
v 0.068947 0.372591 -0.096721
v 0.058676 0.380776 -0.084890
v 0.069076 0.373748 -0.086273
v 0.061038 0.382165 -0.075411
v 0.046826 0.383189 -0.082766
v 0.068961 0.374579 -0.079504
v 0.058670 0.379110 -0.073778
v 0.066399 0.371612 -0.077844
v 0.088845 0.380768 -0.098119
v 0.090490 0.386481 -0.099337
v 0.085515 0.371178 -0.095931
v 0.082308 0.374567 -0.094909
v 0.082973 0.369674 -0.094614
v 0.069196 0.374693 -0.089064
v 0.070618 0.379393 -0.089831
v 0.072097 0.379282 -0.085121
v 0.070672 0.374475 -0.084417
v 0.072097 0.379282 -0.085121
v 0.066399 0.371612 -0.077844
v 0.069076 0.373748 -0.086273
v 0.068961 0.374579 -0.079504
v 0.064641 0.368947 -0.084517
v 0.068947 0.372591 -0.096721
v 0.054547 0.375588 -0.083201
v 0.058670 0.379110 -0.073778
v 0.046826 0.383189 -0.082766
v 0.043304 0.384647 -0.096413
v 0.052837 0.375415 -0.098120
v 0.043893 0.387308 -0.100510
v 0.064413 0.367769 -0.098738
v 0.054245 0.377506 -0.102319
v 0.066161 0.369531 -0.102786
v 0.061738 0.387618 -0.110977
v 0.049376 0.398146 -0.108329
v 0.074465 0.378417 -0.111169
v 0.076756 0.380322 -0.100572
v 0.064326 0.390689 -0.111917
v 0.051443 0.401577 -0.108811
v 0.060841 0.412337 -0.105969
v 0.077529 0.381181 -0.111692
v 0.080472 0.382673 -0.094722
v 0.073874 0.402875 -0.109223
v 0.087718 0.390857 -0.109076
v 0.090490 0.386481 -0.099337
v 0.095923 0.425691 -0.088156
v 0.103788 0.420049 -0.082688
v 0.086141 0.429038 -0.086549
v 0.088501 0.431889 -0.085056
v 0.098346 0.433203 -0.085453
v 0.105217 0.431697 -0.077721
v 0.103846 0.426556 -0.071617
v 0.101938 0.417043 -0.075525
v 0.096668 0.396036 -0.082886
v 0.095799 0.397587 -0.095140
v 0.094578 0.386057 -0.086422
v 0.082761 0.382705 -0.085160
v 0.092243 0.380277 -0.087378
v 0.092243 0.380277 -0.087378
v 0.088845 0.380768 -0.098119
v 0.087907 0.370776 -0.087513
v 0.085515 0.371178 -0.095931
v 0.084306 0.374676 -0.087187
v 0.087907 0.370776 -0.087513
v 0.085043 0.369505 -0.087318
v 0.072097 0.379282 -0.085121
v 0.070672 0.374475 -0.084417
v 0.085043 0.369505 -0.087318
v 0.082973 0.369674 -0.094614
v 0.069196 0.374693 -0.089064
v 0.070672 0.374475 -0.084417
v -0.086245 0.421986 0.018794
v -0.085746 0.433416 0.018550
v -0.075367 0.431661 0.018098
v -0.075165 0.421892 0.020698
v -0.072689 0.433482 0.030135
v -0.087704 0.384047 0.025626
v -0.074259 0.424516 0.033226
v -0.080838 0.436955 0.040756
v -0.082649 0.427672 0.043304
v -0.074635 0.403032 0.052253
v -0.081535 0.416283 0.057273
v -0.074031 0.399251 0.061452
v -0.081241 0.392553 0.060417
v -0.072593 0.394365 0.066720
v -0.075054 0.393399 0.042752
v -0.075988 0.389039 0.030519
v -0.075254 0.377430 0.032665
v -0.083307 0.370955 0.030954
v -0.081114 0.368490 0.033089
v -0.080278 0.380743 0.047143
v -0.067744 0.371650 0.039664
v -0.067675 0.365525 0.040910
v -0.064425 0.367799 0.042354
v -0.062168 0.382691 0.041349
v -0.068276 0.382569 0.039476
v -0.072098 0.374920 0.052335
v -0.084904 0.385896 0.061392
v -0.077024 0.379487 0.064615
v -0.071089 0.385536 0.049290
v -0.076243 0.388910 0.060314
v -0.070963 0.395028 0.046597
v -0.062168 0.382691 0.041349
v -0.074619 0.395006 0.057720
v -0.067004 0.395882 0.047697
v -0.070542 0.395802 0.058649
v -0.087066 0.395573 0.065865
v -0.090569 0.398948 0.062145
v -0.080598 0.389705 0.070501
v -0.078165 0.388798 0.065452
v -0.077591 0.387429 0.071136
v -0.066117 0.379870 0.066049
v -0.067000 0.381389 0.061398
v -0.063734 0.384960 0.062383
v -0.062915 0.383392 0.067127
v -0.063734 0.384960 0.062383
f 1 2 3
f 3 4 1
f 5 1 4
f 6 5 4
f 7 6 4
f 6 7 8
f 8 7 9
f 8 9 10
f 11 10 9
f 12 11 9
f 12 13 11
f 14 11 13
f 11 14 15
f 10 16 8
f 16 17 8
f 16 18 17
f 17 18 19
f 18 20 19
f 21 19 20
f 21 20 22
f 21 22 23
f 23 24 21
f 16 10 25
f 11 25 10
f 25 26 16
f 11 15 27
f 11 27 25
f 27 15 28
f 27 28 29
f 27 29 30
f 25 31 26
f 26 31 32
f 33 25 27
f 30 33 27
f 25 33 31
f 30 34 33
f 34 31 33
f 34 30 35
f 35 36 34
f 32 31 37
f 37 31 34
f 38 32 37
f 39 34 36
f 34 39 37
f 39 36 40
f 41 37 39
f 37 41 38
f 40 42 39
f 42 41 39
f 41 43 38
f 41 42 43
f 40 44 42
f 42 44 43
f 44 40 45
f 38 43 46
f 44 46 43
f 46 47 38
f 45 48 44
f 46 44 48
f 48 45 49
f 50 48 49
f 48 50 51
f 51 46 48
f 47 46 51
f 51 52 47
f 53 54 55
f 53 56 54
f 56 57 54
f 56 53 58
f 56 59 57
f 59 60 57
f 59 61 60
f 59 62 61
f 62 63 61
f 62 64 63
f 65 64 62
f 65 66 64
f 67 62 59
f 59 56 67
f 65 62 67
f 58 68 56
f 68 67 56
f 58 69 68
f 69 67 68
f 69 58 70
f 69 70 71
f 67 72 65
f 67 69 72
f 71 73 69
f 73 71 74
f 73 74 75
f 76 73 75
f 73 76 77
f 69 73 78
f 69 78 72
f 77 78 73
f 79 65 72
f 78 79 72
f 79 78 80
f 81 80 78
f 78 77 81
f 80 81 82
f 81 77 83
f 83 82 81
f 84 83 77
f 82 83 85
f 84 86 83
f 86 85 83
f 85 86 87
f 88 65 89
f 90 65 88
f 91 65 90
f 90 92 91
f 66 65 91
f 93 91 92
f 94 66 91
f 91 93 94
f 66 94 95
f 96 94 93
f 94 96 97
f 98 99 100
f 99 98 101
f 101 102 99
f 98 103 101
f 103 98 104
f 104 105 103
f 103 105 106
f 106 107 103
f 101 103 107
f 107 106 108
f 107 109 101
f 102 101 109
f 108 110 107
f 110 109 107
f 111 102 109
f 111 109 110
f 108 112 110
f 110 112 111
f 112 108 113
f 114 102 111
f 111 112 114
f 102 114 115
f 112 113 116
f 116 114 112
f 117 116 113
f 116 117 118
f 115 114 119
f 114 116 119
f 120 115 119
f 118 121 116
f 116 121 119
f 122 120 119
f 122 119 121
f 122 123 120
f 118 124 121
f 121 124 122
f 125 122 124
f 124 118 126
f 124 126 127
f 124 127 128
f 125 124 128
f 125 128 129
f 129 130 125
f 131 125 130
f 131 132 125
f 125 133 122
f 125 132 133
f 123 122 133
f 134 133 132
f 133 134 123
f 134 132 135
f 123 134 136
f 137 134 135
f 123 136 138
f 136 139 138
f 138 139 140
f 135 141 137
f 137 141 142
f 142 141 143
f 144 143 141
f 143 144 145
f 146 140 139
f 146 147 140
f 146 148 147
f 148 146 149
f 150 151 152
f 150 152 153
f 153 152 154
f 153 155 150
f 153 154 156
f 156 154 157
f 156 157 158
f 156 158 159
f 159 158 160
f 159 160 161
f 162 159 161
f 162 161 163
f 164 156 159
f 156 164 153
f 162 164 159
f 155 153 165
f 165 153 164
f 155 165 166
f 166 165 164
f 166 167 155
f 166 168 167
f 164 162 169
f 164 169 166
f 168 166 170
f 170 171 168
f 170 172 171
f 173 172 170
f 170 174 173
f 166 175 170
f 166 169 175
f 174 170 175
f 176 169 162
f 175 169 176
f 176 177 175
f 178 175 177
f 175 178 174
f 177 179 178
f 178 180 174
f 180 178 179
f 181 174 180
f 179 182 180
f 181 180 183
f 183 180 182
f 182 184 183
f 185 186 162
f 187 185 162
f 188 187 162
f 187 188 189
f 163 188 162
f 190 189 188
f 191 188 163
f 188 191 190
f 163 192 191
f 193 190 191
f 191 194 193
