# Pawns/Pawn11/model/Bodyparts/FMagic_m000_f(Clone)  mesh=FMagic_m000_f.mo
v 0.010399 0.735362 0.041876
v 0.010614 0.740565 0.042417
v 0.001603 0.741831 0.039980
v 0.001791 0.736803 0.039651
v -0.007360 0.737980 0.034465
v -0.007253 0.743244 0.034710
v 0.004719 0.732940 0.040190
v 0.010177 0.729934 0.041103
v -0.000572 0.734021 0.038149
v -0.011361 0.735831 0.031163
v -0.011587 0.741850 0.030525
v -0.016009 0.740010 0.018157
v 0.002763 0.731067 0.038932
v 0.006700 0.727692 0.039488
v 0.010053 0.726780 0.040224
v 0.009921 0.723362 0.039011
v -0.007430 0.734792 0.034174
v -0.014017 0.731294 0.021661
v -0.016508 0.730630 0.014615
v -0.001604 0.732679 0.037461
v -0.010943 0.729969 0.029178
v -0.014012 0.725723 0.020406
v 0.007057 0.723504 0.037488
v 0.009737 0.719283 0.040036
v 0.001967 0.730304 0.038420
v -0.006346 0.732764 0.034581
v -0.002060 0.732086 0.037157
v 0.002386 0.729257 0.038177
v -0.003266 0.731353 0.036267
v -0.004998 0.730433 0.034186
v 0.005192 0.726752 0.037902
v 0.003649 0.726595 0.035264
v -0.010777 0.725204 0.028209
v -0.005738 0.722696 0.031464
v 0.004461 0.721857 0.033939
v -0.010913 0.720542 0.028257
v 0.007583 0.719051 0.038802
v -0.014180 0.719048 0.017616
v -0.015907 0.720633 0.012910
v -0.013840 0.713654 0.011870
v 0.007846 0.715173 0.040375
v 0.009553 0.715271 0.041359
v 0.009323 0.710359 0.043285
v 0.000705 0.718613 0.033033
v -0.006067 0.718616 0.031333
v -0.010085 0.713747 0.027042
v 0.004931 0.718638 0.034735
v 0.004322 0.712213 0.034728
v 0.005760 0.714555 0.036928
v 0.007542 0.710810 0.042178
v 0.000260 0.712242 0.032784
v -0.012318 0.712847 0.018220
v 0.007525 0.709005 0.041499
v 0.009261 0.708596 0.042159
v 0.009251 0.707781 0.039903
v 0.006960 0.709005 0.039275
v 0.009237 0.706995 0.038142
v 0.005372 0.709737 0.038084
v 0.006352 0.708255 0.037393
v 0.005944 0.707185 0.036392
v 0.009186 0.705594 0.037297
v 0.009124 0.704107 0.037204
v 0.005496 0.711543 0.038478
v 0.004473 0.711924 0.036151
v 0.004430 0.709558 0.036146
v 0.005467 0.705016 0.036045
v 0.009071 0.702822 0.037123
v 0.004404 0.708502 0.034983
v 0.001977 0.707777 0.033562
v 0.005173 0.703682 0.035831
v 0.001439 0.702547 0.032110
v -0.001403 0.706803 0.030935
v 0.004539 0.701158 0.033584
v 0.008987 0.700256 0.034839
v 0.008863 0.697159 0.034167
v 0.000769 0.701241 0.030242
v 0.004108 0.698251 0.032143
v 0.008782 0.694731 0.032118
v -0.001194 0.701908 0.029644
v -0.005331 0.712355 0.030642
v -0.004764 0.706785 0.028664
v 0.000722 0.698840 0.029240
v 0.004036 0.695005 0.030256
v 0.008539 0.688553 0.030391
v -0.008196 0.707162 0.025824
v -0.004672 0.701392 0.026403
v -0.009604 0.706956 0.020396
v -0.006864 0.701320 0.020206
v -0.001580 0.696239 0.025944
v 0.001530 0.695661 0.028502
v 0.004622 0.690048 0.028296
v -0.011041 0.707028 0.014319
v 0.000893 0.692199 0.025788
v 0.003120 0.688262 0.023564
v 0.008505 0.686440 0.025286
v 0.008685 0.688725 0.017671
v -0.012902 0.707761 0.005451
v -0.015454 0.715134 0.004690
v -0.008049 0.701397 0.015091
v -0.003545 0.696548 0.021503
v 0.000749 0.692084 0.013894
v 0.008848 0.690654 0.010267
v -0.000204 0.695029 0.006877
v -0.000793 0.691546 0.019548
v -0.004546 0.695585 0.014563
v -0.006189 0.700621 0.003002
v -0.009094 0.701736 0.009139
v -0.009951 0.707673 -0.001207
v -0.014743 0.716183 -0.001141
v 0.010399 0.735362 0.041876
v 0.019750 0.741062 0.040178
v 0.010614 0.740565 0.042417
v 0.019145 0.736067 0.039841
v 0.028473 0.736461 0.034856
v 0.028806 0.741715 0.035103
v 0.015889 0.732466 0.040312
v 0.010177 0.729934 0.041103
v 0.021295 0.733094 0.038388
v 0.032348 0.733977 0.031639
v 0.033097 0.739955 0.031013
v 0.037616 0.737736 0.018742
v 0.017706 0.730433 0.039095
v 0.013486 0.727404 0.039562
v 0.010053 0.726780 0.040224
v 0.009921 0.723362 0.039011
v 0.028279 0.733277 0.034563
v 0.034817 0.729223 0.022194
v 0.037396 0.728344 0.015203
v 0.022225 0.731668 0.037721
v 0.031479 0.728170 0.029641
v 0.034368 0.723671 0.020934
v 0.018446 0.729606 0.038599
v 0.027018 0.731350 0.034945
v 0.022635 0.731038 0.037426
v 0.017945 0.728597 0.038347
v 0.023794 0.730205 0.036563
v 0.025487 0.729140 0.034518
v 0.016525 0.726049 0.035404
v 0.014944 0.726338 0.038008
v 0.012820 0.723259 0.037551
v 0.009737 0.719283 0.040036
v 0.030932 0.723435 0.028664
v 0.025629 0.721366 0.031806
v 0.015344 0.721396 0.034058
v 0.011890 0.718869 0.038849
v 0.030671 0.718778 0.028711
v 0.011265 0.715028 0.040412
v 0.009553 0.715271 0.041359
v 0.009323 0.710359 0.043285
v 0.034031 0.717004 0.018142
v 0.035988 0.718432 0.013477
v 0.033361 0.711653 0.012385
v 0.018830 0.717844 0.033231
v 0.014586 0.718229 0.034840
v 0.014649 0.711775 0.034841
v 0.013367 0.714233 0.037011
v 0.011160 0.710657 0.042218
v 0.025614 0.717272 0.031679
v 0.029298 0.712077 0.027472
v 0.018740 0.711458 0.032985
v 0.031638 0.710983 0.018699
v 0.011039 0.708856 0.041538
v 0.009261 0.708596 0.042159
v 0.009251 0.707781 0.039903
v 0.011650 0.708806 0.039326
v 0.009237 0.706995 0.038142
v 0.013320 0.709400 0.038171
v 0.012234 0.708006 0.037458
v 0.012571 0.706904 0.036465
v 0.009186 0.705594 0.037297
v 0.009124 0.704107 0.037204
v 0.013340 0.711210 0.038563
v 0.014442 0.711502 0.036260
v 0.014285 0.709140 0.036253
v 0.012870 0.704702 0.036125
v 0.009071 0.702822 0.037123
v 0.014248 0.708085 0.035090
v 0.016635 0.707155 0.033722
v 0.013054 0.703348 0.035917
v 0.016759 0.701897 0.032277
v 0.019976 0.705896 0.031168
v 0.013521 0.700777 0.033682
v 0.008987 0.700256 0.034839
v 0.008863 0.697159 0.034167
v 0.017357 0.700538 0.030423
v 0.013736 0.697843 0.032248
v 0.008782 0.694731 0.032118
v 0.019382 0.701036 0.029868
v 0.024365 0.711096 0.030966
v 0.023372 0.705592 0.028971
v 0.013574 0.694601 0.030360
v 0.008539 0.688553 0.030391
v 0.017222 0.698140 0.029420
v 0.026885 0.705675 0.026207
v 0.022873 0.700224 0.026704
v 0.028388 0.705345 0.020810
v 0.025186 0.699961 0.020555
v 0.019367 0.695351 0.026172
v 0.016164 0.695041 0.028661
v 0.012613 0.689709 0.028383
v 0.029958 0.705289 0.014766
v 0.016565 0.691534 0.025959
v 0.014062 0.687798 0.023684
v 0.008505 0.686440 0.025286
v 0.008685 0.688725 0.017671
v 0.032068 0.705854 0.005942
v 0.035251 0.712984 0.005244
v 0.026484 0.699932 0.015467
v 0.021448 0.695488 0.021776
v 0.016957 0.691396 0.014071
v 0.008848 0.690654 0.010267
v 0.018309 0.694244 0.007079
v 0.018325 0.690735 0.019757
v 0.022514 0.694437 0.014858
v 0.024829 0.699306 0.003341
v 0.027683 0.700176 0.009541
v 0.029265 0.706010 -0.000779
v 0.034758 0.714084 -0.000601
v -0.025066 0.732619 -0.006177
v -0.019721 0.718240 -0.004134
v -0.021830 0.737425 0.000958
v -0.015454 0.715134 0.004690
v -0.018101 0.732268 0.005878
v 0.046543 0.729582 -0.005396
v 0.043570 0.734651 0.001672
v 0.039956 0.715709 -0.003483
v 0.035251 0.712984 0.005244
v 0.039311 0.729833 0.006504
v -0.018843 0.731106 -0.002951
v -0.021830 0.737425 0.000958
v -0.018101 0.732268 0.005878
v -0.022056 0.732263 -0.007616
v -0.025066 0.732619 -0.006177
v -0.014743 0.716183 -0.001141
v -0.019721 0.718240 -0.004134
v -0.015454 0.715134 0.004690
v 0.040145 0.728604 -0.002307
v 0.039311 0.729833 0.006504
v 0.043570 0.734651 0.001672
v 0.043545 0.729481 -0.006900
v 0.046543 0.729582 -0.005396
v 0.034758 0.714084 -0.000601
v 0.039956 0.715709 -0.003483
v 0.035251 0.712984 0.005244
f 1 2 3
f 4 1 3
f 5 4 3
f 6 5 3
f 1 4 7
f 8 1 7
f 4 9 7
f 9 4 5
f 5 6 10
f 11 10 6
f 10 11 12
f 8 7 13
f 7 9 13
f 14 8 13
f 15 8 14
f 14 16 15
f 9 5 17
f 17 5 10
f 10 12 18
f 12 19 18
f 13 9 20
f 20 9 17
f 10 21 17
f 10 18 21
f 18 19 22
f 18 22 21
f 23 16 14
f 24 16 23
f 14 13 25
f 25 13 20
f 26 20 17
f 26 17 21
f 25 20 27
f 20 26 27
f 25 28 14
f 28 25 27
f 26 29 27
f 29 28 27
f 30 26 21
f 26 30 29
f 28 31 14
f 31 23 14
f 29 32 28
f 28 32 31
f 30 32 29
f 31 32 23
f 21 33 30
f 33 21 22
f 30 34 32
f 34 30 33
f 32 35 23
f 32 34 35
f 33 22 36
f 36 34 33
f 35 37 23
f 37 24 23
f 38 36 22
f 38 22 19
f 19 39 38
f 39 40 38
f 37 41 24
f 42 24 41
f 41 43 42
f 34 44 35
f 34 36 45
f 45 44 34
f 38 46 36
f 45 36 46
f 47 37 35
f 44 47 35
f 47 44 48
f 47 49 37
f 41 37 49
f 48 49 47
f 43 41 50
f 49 50 41
f 45 51 44
f 44 51 48
f 52 46 38
f 40 52 38
f 50 53 43
f 54 43 53
f 54 53 55
f 56 55 53
f 55 56 57
f 53 50 58
f 58 56 53
f 59 57 56
f 59 56 58
f 57 59 60
f 60 61 57
f 61 60 62
f 63 58 50
f 50 49 63
f 63 49 64
f 63 64 58
f 48 64 49
f 65 59 58
f 65 58 64
f 59 65 60
f 64 48 65
f 62 60 66
f 67 62 66
f 68 60 65
f 68 65 48
f 60 68 66
f 48 69 68
f 66 68 69
f 48 51 69
f 67 66 70
f 71 66 69
f 70 66 71
f 72 69 51
f 72 71 69
f 67 70 73
f 73 74 67
f 74 73 75
f 71 76 70
f 73 70 76
f 77 75 73
f 76 77 73
f 77 78 75
f 76 71 79
f 72 79 71
f 80 72 51
f 80 51 45
f 80 45 46
f 81 72 80
f 46 81 80
f 81 79 72
f 77 76 82
f 76 79 82
f 78 77 83
f 82 83 77
f 78 83 84
f 81 46 85
f 85 46 52
f 79 81 86
f 79 86 82
f 81 85 86
f 87 85 52
f 40 87 52
f 85 88 86
f 88 85 87
f 86 89 82
f 86 88 89
f 90 83 82
f 89 90 82
f 91 84 83
f 91 83 90
f 40 92 87
f 87 92 88
f 89 93 90
f 93 91 90
f 91 94 84
f 91 93 94
f 95 84 94
f 95 94 96
f 97 92 40
f 40 98 97
f 99 88 92
f 99 92 97
f 89 88 100
f 89 100 93
f 88 99 100
f 101 96 94
f 96 101 102
f 103 102 101
f 104 94 93
f 100 104 93
f 104 101 94
f 105 103 101
f 105 101 104
f 104 100 105
f 100 99 105
f 106 103 105
f 107 105 99
f 105 107 106
f 97 107 99
f 107 97 106
f 108 106 97
f 97 98 108
f 109 108 98
f 110 111 112
f 113 111 110
f 114 111 113
f 115 111 114
f 110 116 113
f 117 116 110
f 113 116 118
f 118 114 113
f 114 119 115
f 120 115 119
f 119 121 120
f 117 122 116
f 116 122 118
f 123 122 117
f 124 123 117
f 123 124 125
f 118 126 114
f 126 119 114
f 119 127 121
f 121 127 128
f 122 129 118
f 129 126 118
f 119 130 127
f 119 126 130
f 127 131 128
f 127 130 131
f 123 132 122
f 132 129 122
f 133 126 129
f 133 130 126
f 132 134 129
f 129 134 133
f 135 134 132
f 132 123 135
f 133 134 136
f 136 134 135
f 137 130 133
f 133 136 137
f 136 135 138
f 137 136 138
f 135 123 139
f 135 139 138
f 139 123 140
f 139 140 138
f 140 123 125
f 141 140 125
f 130 137 142
f 142 131 130
f 137 138 143
f 143 142 137
f 138 140 144
f 138 144 143
f 145 140 141
f 144 140 145
f 142 146 131
f 146 142 143
f 145 141 147
f 148 147 141
f 147 148 149
f 150 131 146
f 150 128 131
f 128 150 151
f 151 150 152
f 143 144 153
f 154 144 145
f 153 144 154
f 154 155 153
f 154 145 156
f 147 156 145
f 155 154 156
f 149 157 147
f 156 147 157
f 143 158 146
f 158 143 153
f 150 146 159
f 158 159 146
f 158 153 160
f 153 155 160
f 152 150 161
f 161 150 159
f 157 149 162
f 163 162 149
f 163 164 162
f 165 162 164
f 164 166 165
f 162 167 157
f 167 162 165
f 168 165 166
f 168 167 165
f 166 169 168
f 169 166 170
f 170 171 169
f 172 157 167
f 157 172 156
f 172 173 156
f 172 167 173
f 155 156 173
f 174 167 168
f 174 173 167
f 168 169 174
f 173 174 155
f 171 175 169
f 176 175 171
f 177 174 169
f 177 155 174
f 169 175 177
f 155 177 178
f 175 178 177
f 155 178 160
f 176 179 175
f 180 178 175
f 179 180 175
f 181 160 178
f 181 178 180
f 176 182 179
f 182 176 183
f 183 184 182
f 180 179 185
f 182 185 179
f 186 182 184
f 185 182 186
f 186 184 187
f 185 188 180
f 181 180 188
f 189 160 181
f 189 158 160
f 189 159 158
f 190 189 181
f 159 189 190
f 190 181 188
f 187 191 186
f 187 192 191
f 186 193 185
f 185 193 188
f 193 186 191
f 190 194 159
f 194 161 159
f 188 195 190
f 188 193 195
f 190 195 194
f 196 161 194
f 152 161 196
f 194 195 197
f 197 196 194
f 195 193 198
f 195 198 197
f 199 193 191
f 198 193 199
f 200 191 192
f 200 199 191
f 152 196 201
f 196 197 201
f 198 199 202
f 202 199 200
f 200 192 203
f 200 203 202
f 204 203 192
f 204 205 203
f 206 152 201
f 152 206 207
f 208 201 197
f 208 206 201
f 198 209 197
f 198 202 209
f 197 209 208
f 210 203 205
f 205 211 210
f 212 210 211
f 213 202 203
f 209 202 213
f 213 203 210
f 214 210 212
f 214 213 210
f 213 214 209
f 209 214 208
f 215 214 212
f 216 208 214
f 214 215 216
f 206 208 216
f 216 215 206
f 217 206 215
f 206 217 207
f 218 207 217
f 219 220 221
f 220 222 221
f 223 221 222
f 224 225 226
f 226 225 227
f 228 227 225
f 229 230 231
f 229 232 230
f 232 233 230
f 229 234 232
f 232 235 233
f 234 235 232
f 235 234 236
f 237 238 239
f 237 239 240
f 240 239 241
f 237 240 242
f 240 241 243
f 242 240 243
f 243 244 242
