# Pawns/Pawn11/model/Bodyparts/FMagic_M000_M00_bh(Clone)  mesh=FMagic_M000_M00_bh.mo
v -0.021739 0.709921 -0.003376
v -0.024995 0.679192 -0.023364
v -0.020418 0.671704 -0.010234
v -0.026975 0.710131 -0.017929
v -0.022105 0.686104 -0.037291
v -0.024495 0.726558 -0.003138
v -0.021255 0.724259 0.002039
v -0.019665 0.736959 0.008480
v -0.023485 0.744229 0.003698
v -0.027092 0.730866 -0.013093
v -0.022500 0.711535 -0.032236
v -0.023466 0.732747 -0.027470
v -0.021589 0.752057 -0.020537
v -0.024493 0.748036 -0.007398
v -0.020279 0.759606 -0.001099
v -0.019459 0.756213 0.009930
v -0.013985 0.712445 -0.039064
v -0.013641 0.689805 -0.043810
v -0.013885 0.733100 -0.035912
v -0.013854 0.768087 0.005300
v -0.014207 0.763918 0.015095
v -0.000540 0.713125 -0.044669
v -0.001143 0.691412 -0.048780
v 0.010380 0.712771 -0.044257
v 0.009525 0.691413 -0.048891
v 0.011217 0.733250 -0.041296
v 0.000717 0.733623 -0.041466
v 0.001455 0.752367 -0.037624
v 0.011963 0.751769 -0.037716
v 0.012514 0.766401 -0.031318
v -0.012732 0.753425 -0.031400
v -0.000023 0.767185 -0.030260
v 0.012781 0.776594 -0.016172
v -0.008983 0.767184 -0.024893
v 0.000844 0.775508 -0.015794
v -0.016382 0.765403 -0.014545
v 0.002522 0.777560 -0.001578
v 0.012685 0.778047 -0.001783
v -0.004495 0.773588 -0.015407
v -0.006392 0.774613 -0.004788
v -0.005623 0.772023 0.011589
v -0.006610 0.767707 0.022652
v 0.001804 0.769101 0.027346
v 0.003450 0.774806 0.013388
v 0.012385 0.774969 0.013782
v 0.011972 0.768954 0.028256
v 0.041245 0.707250 -0.002689
v 0.036844 0.669275 -0.009610
v 0.042323 0.676337 -0.022630
v 0.046796 0.707003 -0.017125
v 0.040333 0.683457 -0.036610
v 0.045394 0.723594 -0.002375
v 0.041859 0.721583 0.002727
v 0.041210 0.734378 0.009144
v 0.045736 0.741294 0.004453
v 0.048562 0.727658 -0.012268
v 0.042769 0.708767 -0.031524
v 0.045423 0.729826 -0.026719
v 0.045036 0.749232 -0.019810
v 0.047303 0.744991 -0.006615
v 0.043948 0.756882 -0.000399
v 0.042603 0.753581 0.010607
v 0.034512 0.710389 -0.038535
v 0.032356 0.687854 -0.043309
v 0.036092 0.730980 -0.035366
v 0.037753 0.765898 0.005863
v 0.037457 0.761727 0.015659
v 0.021298 0.712199 -0.044430
v 0.020151 0.690509 -0.048547
v 0.010380 0.712771 -0.044257
v 0.009525 0.691413 -0.048891
v 0.011217 0.733250 -0.041296
v 0.021712 0.732733 -0.041237
v 0.022479 0.751476 -0.037395
v 0.011963 0.751769 -0.037716
v 0.012514 0.766401 -0.031318
v 0.036566 0.751335 -0.030862
v 0.025046 0.766122 -0.029987
v 0.012781 0.776594 -0.016172
v 0.033855 0.765367 -0.024426
v 0.024572 0.774502 -0.015535
v 0.041757 0.762937 -0.013911
v 0.022765 0.776702 -0.001357
v 0.012685 0.778047 -0.001783
v 0.029432 0.772426 -0.014988
v 0.031537 0.773004 -0.004374
v 0.030195 0.770504 0.011980
v 0.030572 0.766130 0.023057
v 0.022133 0.768239 0.027568
v 0.021280 0.774050 0.013583
v 0.012385 0.774969 0.013782
v 0.011972 0.768954 0.028256
v 0.001804 0.769101 0.027346
v 0.011489 0.759938 0.037517
v 0.011972 0.768954 0.028256
v 0.001686 0.759998 0.035651
v 0.011046 0.750595 0.041800
v -0.006610 0.767707 0.022652
v 0.001528 0.752032 0.039313
v 0.010614 0.740565 0.042419
v 0.001603 0.741831 0.039981
v -0.007387 0.752297 0.033619
v -0.007253 0.743243 0.034711
v -0.007300 0.761224 0.030028
v -0.012261 0.750114 0.028762
v -0.011588 0.741849 0.030526
v -0.013858 0.758960 0.021590
v -0.014207 0.763918 0.015095
v -0.019459 0.756213 0.009930
v -0.016791 0.747309 0.016000
v -0.023485 0.744229 0.003698
v -0.016010 0.740010 0.018157
v -0.019665 0.736959 0.008480
v -0.016509 0.730630 0.014615
v -0.018102 0.732267 0.005878
v -0.015908 0.720632 0.012911
v -0.015455 0.715134 0.004691
v -0.013842 0.713654 0.011871
v 0.022133 0.768239 0.027568
v 0.011972 0.768954 0.028256
v 0.011489 0.759938 0.037517
v 0.021299 0.759167 0.035865
v 0.011046 0.750595 0.041800
v 0.030572 0.766130 0.023057
v 0.020702 0.751219 0.039522
v 0.010614 0.740565 0.042419
v 0.019750 0.741061 0.040179
v 0.029731 0.750723 0.034024
v 0.028807 0.741714 0.035105
v 0.030478 0.759621 0.030440
v 0.034507 0.748131 0.029273
v 0.033098 0.739954 0.031014
v 0.037002 0.756804 0.022145
v 0.037457 0.761727 0.015659
v 0.042603 0.753581 0.010607
v 0.039059 0.744941 0.016610
v 0.045736 0.741294 0.004453
v 0.037617 0.737735 0.018742
v 0.041210 0.734378 0.009144
v 0.037397 0.728344 0.015203
v 0.039313 0.729833 0.006504
v 0.035989 0.718431 0.013477
v 0.035252 0.712983 0.005244
v 0.033362 0.711652 0.012386
v -0.019665 0.736959 0.008480
v -0.018844 0.731106 -0.002951
v -0.018102 0.732267 0.005878
v -0.023485 0.744229 0.003698
v -0.024493 0.748036 -0.007398
v -0.018872 0.734223 -0.025820
v -0.021589 0.752057 -0.020537
v -0.012732 0.753425 -0.031400
v -0.013811 0.718172 -0.013062
v -0.014744 0.716182 -0.001142
v -0.008707 0.707055 -0.014586
v -0.011474 0.720200 -0.024628
v -0.001176 0.707786 -0.025164
v -0.004270 0.721111 -0.033798
v 0.009981 0.707755 -0.027122
v 0.010583 0.719671 -0.035980
v -0.007397 0.734947 -0.035796
v 0.001455 0.752367 -0.037624
v 0.011230 0.734288 -0.038501
v 0.011963 0.751769 -0.037716
v 0.011230 0.734288 -0.038501
v 0.011963 0.751769 -0.037716
v 0.022479 0.751476 -0.037395
v 0.029783 0.733370 -0.035391
v 0.036566 0.751335 -0.030862
v 0.040936 0.731687 -0.025168
v 0.045036 0.749232 -0.019810
v 0.010583 0.719671 -0.035980
v 0.047303 0.744991 -0.006615
v 0.025453 0.719850 -0.033474
v 0.009981 0.707755 -0.027122
v 0.021055 0.706843 -0.024921
v 0.032353 0.718342 -0.024150
v 0.028265 0.705487 -0.014183
v 0.034257 0.716133 -0.012537
v 0.034759 0.714083 -0.000602
v 0.040146 0.728604 -0.002307
v 0.045736 0.741294 0.004453
v 0.041210 0.734378 0.009144
v 0.039313 0.729833 0.006504
f 1 2 3
f 1 4 2
f 5 2 4
f 6 4 1
f 1 7 6
f 8 6 7
f 6 8 9
f 10 4 6
f 9 10 6
f 4 11 5
f 10 12 4
f 11 4 12
f 12 10 13
f 9 14 10
f 14 13 10
f 14 9 15
f 14 15 13
f 16 15 9
f 17 5 11
f 5 17 18
f 19 11 12
f 19 12 13
f 11 19 17
f 20 15 16
f 16 21 20
f 22 18 17
f 23 18 22
f 22 24 23
f 23 24 25
f 22 26 24
f 22 17 27
f 27 26 22
f 27 17 19
f 26 27 28
f 27 19 28
f 28 29 26
f 29 28 30
f 31 28 19
f 13 31 19
f 28 32 30
f 32 28 31
f 30 32 33
f 34 31 13
f 34 32 31
f 32 35 33
f 32 34 35
f 36 34 13
f 36 13 15
f 20 36 15
f 33 35 37
f 33 37 38
f 39 35 34
f 39 34 36
f 37 35 39
f 40 39 36
f 20 40 36
f 37 39 40
f 41 40 20
f 41 37 40
f 41 20 21
f 21 42 41
f 43 41 42
f 44 38 37
f 44 37 41
f 43 44 41
f 45 38 44
f 46 44 43
f 46 45 44
f 47 48 49
f 47 49 50
f 51 50 49
f 52 47 50
f 47 52 53
f 54 53 52
f 52 55 54
f 56 52 50
f 55 52 56
f 50 51 57
f 56 50 58
f 57 58 50
f 58 59 56
f 55 56 60
f 60 56 59
f 60 61 55
f 60 59 61
f 62 55 61
f 63 57 51
f 51 64 63
f 65 58 57
f 65 59 58
f 57 63 65
f 66 62 61
f 62 66 67
f 68 63 64
f 69 68 64
f 68 69 70
f 69 71 70
f 68 70 72
f 68 73 63
f 73 68 72
f 73 65 63
f 72 74 73
f 73 74 65
f 74 72 75
f 75 76 74
f 77 65 74
f 59 65 77
f 74 76 78
f 78 77 74
f 76 79 78
f 80 59 77
f 80 77 78
f 78 79 81
f 78 81 80
f 82 59 80
f 82 61 59
f 66 61 82
f 79 83 81
f 79 84 83
f 85 80 81
f 85 82 80
f 83 85 81
f 86 82 85
f 66 82 86
f 83 86 85
f 87 66 86
f 87 86 83
f 87 67 66
f 67 87 88
f 89 88 87
f 90 83 84
f 90 87 83
f 89 87 90
f 91 90 84
f 92 89 90
f 92 90 91
f 93 94 95
f 93 96 94
f 96 97 94
f 93 98 96
f 99 97 96
f 99 100 97
f 101 100 99
f 102 101 99
f 102 99 96
f 101 102 103
f 96 98 104
f 104 102 96
f 105 103 102
f 102 104 105
f 106 103 105
f 98 107 104
f 105 104 107
f 98 108 107
f 108 109 107
f 105 107 109
f 106 105 110
f 109 110 105
f 111 110 109
f 106 110 112
f 110 111 113
f 113 112 110
f 113 114 112
f 113 115 114
f 116 114 115
f 116 115 117
f 118 116 117
f 119 120 121
f 119 121 122
f 122 121 123
f 119 122 124
f 125 122 123
f 125 123 126
f 127 125 126
f 128 125 127
f 128 122 125
f 127 129 128
f 122 130 124
f 130 122 128
f 131 128 129
f 128 131 130
f 132 131 129
f 124 130 133
f 131 133 130
f 124 133 134
f 134 133 135
f 131 135 133
f 132 136 131
f 135 131 136
f 137 135 136
f 132 138 136
f 136 139 137
f 139 136 138
f 139 138 140
f 139 140 141
f 142 141 140
f 142 143 141
f 144 143 142
f 145 146 147
f 146 145 148
f 146 148 149
f 146 149 150
f 150 149 151
f 150 151 152
f 150 153 146
f 154 146 153
f 154 153 155
f 155 153 156
f 150 156 153
f 157 155 156
f 158 157 156
f 150 158 156
f 159 157 158
f 158 160 159
f 152 161 150
f 158 150 161
f 161 160 158
f 162 161 152
f 160 161 163
f 162 163 161
f 163 162 164
f 165 166 167
f 167 168 165
f 167 169 168
f 169 170 168
f 170 169 171
f 172 165 168
f 170 171 173
f 168 174 172
f 174 168 170
f 174 175 172
f 175 174 176
f 174 177 176
f 170 177 174
f 176 177 178
f 178 177 179
f 170 179 177
f 180 178 179
f 180 179 181
f 170 181 179
f 181 170 173
f 181 173 182
f 181 182 183
f 183 184 181
