# Pawns/Pawn21/model/Bodyparts/FOrc_m001_l(Clone)  mesh=FOrc_m001_l.mo
v 0.076062 0.587868 -0.078265
v 0.049214 0.578726 -0.064446
v 0.046697 0.582701 -0.067264
v 0.073237 0.591878 -0.081373
v 0.045737 0.595955 -0.064098
v 0.099884 0.595474 -0.083722
v 0.070261 0.604316 -0.075308
v 0.050153 0.596682 -0.056372
v 0.072733 0.604445 -0.070232
v 0.096257 0.616137 -0.080587
v 0.094668 0.615342 -0.074114
v 0.098955 0.599908 -0.087110
v 0.123217 0.603174 -0.069654
v 0.123704 0.608196 -0.072254
v 0.144133 0.606768 -0.045716
v 0.120798 0.627480 -0.068898
v 0.116053 0.617941 -0.062521
v 0.143287 0.629039 -0.045734
v 0.132686 0.620906 -0.040183
v 0.148442 0.617244 -0.014402
v 0.143287 0.629039 -0.045734
v 0.140429 0.616512 -0.014067
v 0.146094 0.611973 -0.046456
v 0.151581 0.601910 -0.016805
v 0.154108 0.605964 -0.014764
v 0.144602 0.588289 0.005712
v 0.146736 0.591644 0.009707
v 0.134463 0.571361 0.022142
v 0.139658 0.603851 0.009960
v 0.134543 0.604269 0.007859
v 0.131103 0.590863 0.028344
v 0.126437 0.592251 0.025504
v 0.136865 0.574307 0.026268
v 0.114612 0.560678 0.039567
v 0.116469 0.563936 0.043884
v 0.111721 0.584190 0.043175
v 0.108850 0.585766 0.038892
v 0.023075 0.576543 -0.046915
v 0.046697 0.582701 -0.067264
v 0.049214 0.578726 -0.064446
v 0.020435 0.580593 -0.050132
v 0.045737 0.595955 -0.064098
v 0.005805 0.575368 -0.028059
v 0.023056 0.594227 -0.047379
v 0.050153 0.596682 -0.056372
v 0.026250 0.594510 -0.042730
v 0.003705 0.596357 -0.025828
v 0.010124 0.597273 -0.024093
v 0.001977 0.579182 -0.029732
v 0.005272 0.577967 0.000129
v 0.001319 0.582039 0.000156
v 0.015412 0.579257 0.030444
v -0.000483 0.601560 0.002859
v 0.009899 0.595254 0.000286
v 0.008942 0.600326 0.033753
v 0.020728 0.596978 0.026057
v 0.036887 0.593402 0.051601
v 0.008942 0.600326 0.033753
v 0.040863 0.595232 0.044842
v 0.012341 0.583387 0.032680
v 0.038186 0.577675 0.050286
v 0.037581 0.581059 0.054180
v 0.064469 0.571163 0.053123
v 0.065905 0.574368 0.057532
v 0.087972 0.561425 0.049648
v 0.065445 0.587990 0.053869
v 0.065751 0.589567 0.048561
v 0.088712 0.581803 0.053425
v 0.087900 0.584014 0.048305
v 0.089529 0.564190 0.054275
v 0.114612 0.560678 0.039567
v 0.116469 0.563936 0.043884
v 0.111721 0.584190 0.043175
v 0.108850 0.585766 0.038892
v 0.143755 0.608587 -0.045698
v 0.151203 0.603728 -0.016787
v 0.167061 0.577636 -0.024528
v 0.159263 0.585121 -0.056515
v 0.183104 0.549476 -0.030927
v 0.122838 0.604993 -0.069637
v 0.179033 0.553776 -0.066083
v 0.195440 0.510508 -0.029551
v 0.197419 0.512265 -0.066882
v 0.138467 0.582531 -0.086364
v 0.099506 0.597293 -0.083705
v 0.110518 0.574463 -0.100239
v 0.154487 0.549017 -0.099164
v 0.169171 0.505549 -0.106458
v 0.121198 0.541791 -0.116378
v 0.129712 0.493322 -0.117054
v 0.015033 0.581076 0.030461
v 0.019843 0.544812 0.056098
v 0.037808 0.579493 0.050304
v -0.002050 0.554160 0.032154
v 0.004977 0.513431 0.062477
v 0.004894 0.579785 0.000146
v -0.017998 0.520263 0.036016
v -0.015525 0.477409 0.075286
v -0.040482 0.483354 0.048040
v -0.013397 0.556404 -0.002434
v 0.005427 0.577186 -0.028042
v -0.007107 0.554630 -0.033994
v -0.025674 0.518433 -0.004504
v -0.045932 0.476353 -0.000235
v -0.015716 0.513287 -0.040816
v -0.025577 0.459109 -0.033508
v -0.032064 0.294656 0.065641
v -0.060726 0.244107 0.016758
v -0.063382 0.238807 0.049878
v -0.029628 0.295857 0.039514
v -0.015108 0.292430 0.028272
v -0.037880 0.239972 -0.001413
v -0.011221 0.230820 0.000503
v 0.006306 0.286011 0.030326
v -0.025745 0.314471 0.070316
v 0.011359 0.303032 0.036881
v -0.021978 0.312086 0.045859
v -0.008910 0.308124 0.035260
v 0.015936 0.320603 0.033405
v -0.018151 0.329862 0.043084
v -0.020324 0.336959 0.069323
v -0.006357 0.324092 0.029856
v 0.036083 0.361333 0.009547
v -0.018591 0.374559 0.030216
v -0.018041 0.393432 0.057351
v -0.014136 0.452992 0.045163
v -0.000339 0.362459 0.008975
v 0.049166 0.412576 -0.017357
v -0.015158 0.433549 0.010341
v 0.006271 0.415539 -0.017012
v -0.003193 0.497516 0.004724
v 0.005886 0.515443 0.043080
v 0.043108 0.476337 -0.046293
v 0.062939 0.480274 -0.038355
v 0.001829 0.489565 -0.017985
v -0.003210 0.523305 0.000357
v 0.012508 0.547140 0.038460
v 0.052417 0.492186 -0.063014
v 0.066773 0.507713 -0.058206
v 0.017062 0.477818 -0.037873
v -0.001006 0.506783 -0.028033
v 0.001386 0.548095 0.002863
v 0.016273 0.582731 0.028405
v 0.006656 0.579933 0.000263
v 0.033963 0.488404 -0.057653
v 0.016542 0.489360 -0.047067
v 0.053494 0.516146 -0.069961
v 0.056935 0.536813 -0.067107
v -0.001118 0.529747 -0.031172
v 0.003360 0.554327 -0.028804
v 0.012630 0.580200 -0.023656
v 0.014913 0.506244 -0.053887
v 0.040901 0.509152 -0.071220
v 0.048609 0.540389 -0.070378
v 0.054818 0.566975 -0.061306
v 0.017923 0.558062 -0.046999
v 0.027069 0.580987 -0.043482
v 0.014845 0.532020 -0.053242
v 0.036761 0.535949 -0.070104
v 0.037266 0.562495 -0.060249
v 0.054635 0.582348 -0.053975
v 0.152968 0.292319 -0.078668
v 0.149184 0.233723 -0.108534
v 0.122479 0.242807 -0.126875
v 0.131046 0.297487 -0.092676
v 0.113005 0.297948 -0.087742
v 0.093980 0.244432 -0.119502
v 0.078163 0.239680 -0.096581
v 0.100923 0.294716 -0.069061
v 0.157025 0.312547 -0.071553
v 0.106608 0.312633 -0.061602
v 0.134877 0.315090 -0.083259
v 0.118072 0.314977 -0.079044
v 0.106207 0.332713 -0.058571
v 0.135479 0.335166 -0.080453
v 0.158841 0.335743 -0.067136
v 0.116923 0.334145 -0.078720
v 0.091963 0.379669 -0.054585
v 0.142321 0.382456 -0.087010
v 0.168039 0.394570 -0.070148
v 0.172855 0.456965 -0.071682
v 0.112309 0.377369 -0.084744
v 0.078479 0.435804 -0.057160
v 0.141376 0.445420 -0.093300
v 0.103540 0.435370 -0.092125
v 0.151770 0.522943 -0.086872
v 0.177941 0.535593 -0.056235
v 0.086201 0.494268 -0.077075
v 0.083656 0.494087 -0.056235
v 0.130414 0.514274 -0.095494
v 0.145459 0.549543 -0.086039
v 0.162405 0.579170 -0.049378
v 0.066398 0.507207 -0.075860
v 0.066773 0.507713 -0.058206
v 0.106608 0.500131 -0.094499
v 0.122252 0.532489 -0.101226
v 0.136586 0.577887 -0.076609
v 0.140969 0.609382 -0.045372
v 0.122129 0.604613 -0.068058
v 0.081408 0.506402 -0.089344
v 0.099103 0.511039 -0.098479
v 0.059572 0.516750 -0.073393
v 0.056935 0.536813 -0.067107
v 0.115277 0.555064 -0.099517
v 0.106959 0.578348 -0.089717
v 0.099183 0.598698 -0.074866
v 0.092265 0.527234 -0.101116
v 0.064137 0.523621 -0.087605
v 0.057521 0.541568 -0.075475
v 0.054818 0.566975 -0.061306
v 0.083934 0.574739 -0.085863
v 0.075882 0.591419 -0.072362
v 0.088288 0.551262 -0.096861
v 0.062619 0.548062 -0.086253
v 0.062809 0.571108 -0.075355
v 0.054635 0.582348 -0.053975
v 0.162405 0.579170 -0.049378
v 0.140969 0.609382 -0.045372
v 0.146559 0.602066 -0.014437
v 0.164568 0.573125 -0.022701
v 0.177370 0.536223 -0.028506
v 0.177941 0.535593 -0.056235
v 0.157250 0.560104 -0.005420
v 0.182264 0.456423 -0.035902
v 0.172855 0.456965 -0.071682
v 0.178531 0.401430 -0.037912
v 0.168039 0.394570 -0.070148
v 0.158841 0.335743 -0.067136
v 0.163986 0.454161 -0.002346
v 0.141666 0.568534 0.004192
v 0.133494 0.527150 0.013998
v 0.138987 0.587652 0.003640
v 0.129210 0.574392 0.018726
v 0.160926 0.529339 -0.004131
v 0.133495 0.514122 0.006774
v 0.131445 0.554291 0.017116
v 0.113506 0.543794 0.032123
v 0.110618 0.566067 0.034763
v 0.116547 0.518162 0.027211
v 0.114028 0.499964 0.018584
v 0.116201 0.495901 0.001776
v 0.107413 0.490754 0.006600
v 0.133700 0.449607 0.005945
v 0.165217 0.401545 -0.006054
v 0.138874 0.397063 0.001413
v 0.166998 0.332980 -0.031313
v 0.161006 0.331654 -0.016928
v 0.140797 0.330854 -0.012849
v 0.161064 0.304380 -0.019991
v 0.134615 0.304968 -0.018254
v 0.168953 0.307252 -0.040057
v 0.157025 0.312547 -0.071553
v 0.151771 0.277997 -0.035869
v 0.133092 0.281359 -0.033275
v 0.159559 0.283520 -0.052780
v 0.152968 0.292319 -0.078668
v 0.138475 0.220741 -0.060321
v 0.113676 0.221534 -0.051879
v 0.154301 0.225603 -0.083643
v 0.149184 0.233723 -0.108534
v 0.110618 0.566067 0.034763
v 0.086422 0.565247 0.044042
v 0.113506 0.543794 0.032123
v 0.090022 0.545051 0.041675
v 0.095149 0.518597 0.036732
v 0.116547 0.518162 0.027211
v 0.114028 0.499964 0.018584
v 0.070184 0.552589 0.046572
v 0.065338 0.571912 0.047216
v 0.042320 0.579788 0.047237
v 0.095342 0.487649 0.018295
v 0.107413 0.490754 0.006600
v 0.058075 0.537982 0.053379
v 0.084720 0.503819 0.039168
v 0.071171 0.441912 0.059268
v 0.047691 0.452483 0.077755
v 0.059358 0.516665 0.056156
v 0.029418 0.519772 0.057081
v 0.036180 0.544487 0.053420
v 0.012508 0.547140 0.038460
v 0.016273 0.582731 0.028405
v 0.005886 0.515443 0.043080
v 0.009981 0.456674 0.072927
v -0.014136 0.452992 0.045163
v 0.003175 0.404325 0.082404
v -0.018041 0.393432 0.057351
v -0.020324 0.336959 0.069323
v 0.036816 0.402881 0.089986
v 0.057329 0.392531 0.074460
v 0.003658 0.336966 0.096844
v 0.018546 0.334451 0.100736
v 0.033271 0.328718 0.087536
v 0.012099 0.306786 0.104810
v 0.028849 0.301357 0.085154
v -0.008134 0.311617 0.098795
v -0.025745 0.314471 0.070316
v 0.000486 0.278613 0.091976
v 0.013962 0.277972 0.078461
v -0.016663 0.286300 0.087306
v -0.032064 0.294656 0.065641
v -0.021049 0.220757 0.072010
v 0.000333 0.216407 0.057491
v -0.048013 0.230046 0.069846
v -0.063382 0.238807 0.049878
v 0.012257 0.453907 -0.076470
v 0.064809 0.519016 -0.102372
v 0.072033 0.466059 -0.115772
v 0.011405 0.513186 -0.066546
v -0.009462 0.455505 -0.046743
v 0.065746 0.552057 -0.091782
v -0.008036 0.515943 -0.038548
v 0.016046 0.551690 -0.059875
v 0.048835 0.580545 -0.064429
v -0.001116 0.553280 -0.036143
v 0.022696 0.578362 -0.046897
v 0.005427 0.577186 -0.028042
v 0.048835 0.580545 -0.064429
v 0.075683 0.589686 -0.078248
v 0.065746 0.552057 -0.091782
v 0.099506 0.597293 -0.083705
v 0.095418 0.569913 -0.097610
v 0.095670 0.535840 -0.109186
v 0.064809 0.519016 -0.102372
v 0.104751 0.479242 -0.123020
v 0.072033 0.466059 -0.115772
v 0.110609 0.579912 0.039751
v 0.137402 0.545492 0.023951
v 0.130969 0.588152 0.022302
v 0.143699 0.596195 0.005365
v 0.152798 0.551025 0.006943
v 0.139925 0.509994 0.033168
v 0.157378 0.520624 0.009497
v 0.142934 0.469803 0.040898
v 0.162103 0.478401 0.012699
v 0.080249 0.469909 0.085706
v 0.057131 0.510797 0.081253
v 0.054995 0.472184 0.099136
v 0.080225 0.508513 0.071822
v 0.142934 0.469803 0.040898
v 0.059773 0.537717 0.067986
v 0.139925 0.509994 0.033168
v 0.081625 0.536455 0.063062
v 0.062145 0.578765 0.053618
v 0.137402 0.545492 0.023951
v 0.084478 0.578215 0.049809
v 0.110609 0.579912 0.039751
v 0.066773 0.507713 -0.058206
v 0.088567 0.492120 -0.025364
v 0.062939 0.480274 -0.038355
v 0.082779 0.477149 -0.008775
v 0.107413 0.490754 0.006600
v 0.095342 0.487649 0.018295
v 0.049166 0.412576 -0.017357
v 0.067324 0.424982 0.007452
v 0.071171 0.441912 0.059268
v 0.057329 0.392531 0.074460
v 0.051869 0.370334 0.029546
v 0.036083 0.361333 0.009547
v 0.033271 0.328718 0.087536
v 0.034672 0.321490 0.051229
v 0.015936 0.320603 0.033405
v 0.028849 0.301357 0.085154
v 0.027403 0.300139 0.057819
v 0.011359 0.303032 0.036881
v 0.006306 0.286011 0.030326
v 0.013962 0.277972 0.078461
v 0.019946 0.280594 0.049717
v -0.011221 0.230820 0.000503
v 0.006735 0.219126 0.031537
v 0.000333 0.216407 0.057491
v 0.066773 0.507713 -0.058206
v 0.083656 0.494087 -0.056235
v 0.088567 0.492120 -0.025364
v 0.097531 0.488584 -0.023782
v 0.107413 0.490754 0.006600
v 0.116201 0.495901 0.001776
v 0.078479 0.435804 -0.057160
v 0.090783 0.443940 -0.027484
v 0.133700 0.449607 0.005945
v 0.138874 0.397063 0.001413
v 0.101060 0.385329 -0.029779
v 0.091963 0.379669 -0.054585
v 0.140797 0.330854 -0.012849
v 0.109508 0.331822 -0.033327
v 0.106207 0.332713 -0.058571
v 0.134615 0.304968 -0.018254
v 0.113425 0.308410 -0.035931
v 0.106608 0.312633 -0.061602
v 0.100923 0.294716 -0.069061
v 0.133092 0.281359 -0.033275
v 0.107322 0.288855 -0.046095
v 0.078163 0.239680 -0.096581
v 0.089950 0.227963 -0.062728
v 0.113676 0.221534 -0.051879
f 1 2 3
f 3 4 1
f 4 3 5
f 6 1 4
f 5 7 4
f 7 5 8
f 8 9 7
f 10 7 9
f 7 10 4
f 9 11 10
f 4 12 6
f 4 10 12
f 13 6 12
f 12 14 13
f 14 12 10
f 15 13 14
f 16 10 11
f 10 16 14
f 11 17 16
f 18 16 17
f 17 19 18
f 20 18 19
f 16 21 14
f 19 22 20
f 14 23 15
f 23 14 21
f 21 20 23
f 24 15 23
f 23 25 24
f 25 23 20
f 26 24 25
f 25 27 26
f 25 20 27
f 28 26 27
f 29 20 22
f 27 20 29
f 22 30 29
f 31 29 30
f 31 27 29
f 30 32 31
f 27 33 28
f 33 27 31
f 34 28 33
f 33 35 34
f 33 36 35
f 33 31 36
f 36 31 32
f 32 37 36
f 38 39 40
f 39 38 41
f 41 42 39
f 43 41 38
f 42 41 44
f 44 45 42
f 45 44 46
f 47 46 44
f 44 41 47
f 46 47 48
f 41 43 49
f 41 49 47
f 50 49 43
f 49 50 51
f 51 47 49
f 52 51 50
f 53 48 47
f 47 51 53
f 48 53 54
f 55 54 53
f 54 55 56
f 57 56 55
f 53 51 58
f 56 57 59
f 51 52 60
f 60 58 51
f 58 60 57
f 61 60 52
f 60 61 62
f 62 57 60
f 63 62 61
f 62 63 64
f 62 64 57
f 65 64 63
f 66 59 57
f 64 66 57
f 59 66 67
f 68 67 66
f 68 66 64
f 67 68 69
f 64 65 70
f 70 68 64
f 71 70 65
f 70 71 72
f 70 72 73
f 70 73 68
f 73 69 68
f 69 73 74
f 75 76 77
f 77 78 75
f 78 77 79
f 80 75 78
f 79 81 78
f 81 79 82
f 82 83 81
f 78 84 80
f 84 78 81
f 85 80 84
f 84 86 85
f 87 81 83
f 81 87 84
f 86 84 87
f 83 88 87
f 87 89 86
f 89 87 88
f 88 90 89
f 91 92 93
f 92 91 94
f 94 95 92
f 96 94 91
f 95 94 97
f 97 98 95
f 98 97 99
f 94 96 100
f 100 97 94
f 101 100 96
f 100 101 102
f 103 99 97
f 97 100 103
f 102 103 100
f 99 103 104
f 103 102 105
f 105 104 103
f 104 105 106
f 107 108 109
f 108 107 110
f 108 110 111
f 111 112 108
f 111 113 112
f 113 111 114
f 115 110 107
f 116 114 111
f 117 110 115
f 117 111 110
f 111 118 116
f 118 111 117
f 119 116 118
f 120 117 115
f 117 120 118
f 115 121 120
f 118 122 119
f 118 120 122
f 119 122 123
f 120 121 124
f 124 122 120
f 125 124 121
f 126 124 125
f 127 123 122
f 124 127 122
f 123 127 128
f 124 126 129
f 129 127 124
f 130 128 127
f 127 129 130
f 131 129 126
f 126 132 131
f 133 128 130
f 134 128 133
f 130 129 135
f 131 135 129
f 136 131 132
f 132 137 136
f 138 134 133
f 139 134 138
f 130 140 133
f 140 130 135
f 141 135 131
f 136 141 131
f 142 136 137
f 143 142 137
f 142 143 144
f 140 145 133
f 138 133 145
f 140 135 146
f 146 135 141
f 145 140 146
f 139 138 147
f 139 147 148
f 142 149 136
f 149 141 136
f 150 142 144
f 150 149 142
f 151 150 144
f 146 141 152
f 145 146 152
f 152 141 149
f 138 145 153
f 147 138 153
f 145 152 153
f 147 154 148
f 147 153 154
f 155 148 154
f 156 150 151
f 151 157 156
f 158 149 150
f 158 152 149
f 156 158 150
f 153 152 159
f 159 152 158
f 154 153 159
f 159 158 156
f 154 160 155
f 154 159 160
f 159 156 160
f 160 156 157
f 155 160 161
f 157 161 160
f 162 163 164
f 164 165 162
f 164 166 165
f 166 164 167
f 166 167 168
f 168 169 166
f 170 162 165
f 171 166 169
f 172 170 165
f 172 165 166
f 166 171 173
f 173 172 166
f 174 173 171
f 175 170 172
f 172 173 175
f 170 175 176
f 173 174 177
f 173 177 175
f 174 178 177
f 175 179 176
f 179 175 177
f 180 176 179
f 181 180 179
f 182 177 178
f 179 177 182
f 178 183 182
f 179 184 181
f 184 179 182
f 185 182 183
f 182 185 184
f 186 181 184
f 181 186 187
f 188 185 183
f 189 188 183
f 185 190 184
f 186 184 190
f 191 187 186
f 187 191 192
f 193 188 189
f 194 193 189
f 185 188 195
f 195 190 185
f 196 186 190
f 191 186 196
f 197 192 191
f 198 192 197
f 197 199 198
f 195 188 200
f 193 200 188
f 195 201 190
f 201 196 190
f 200 201 195
f 194 202 193
f 194 203 202
f 197 191 204
f 204 191 196
f 205 199 197
f 205 197 204
f 206 199 205
f 201 207 196
f 200 207 201
f 207 204 196
f 193 208 200
f 202 208 193
f 200 208 207
f 202 203 209
f 202 209 208
f 210 209 203
f 211 206 205
f 206 211 212
f 213 205 204
f 213 204 207
f 211 205 213
f 208 214 207
f 214 213 207
f 209 214 208
f 214 211 213
f 210 215 209
f 209 215 214
f 214 215 211
f 215 212 211
f 210 216 215
f 212 215 216
f 217 218 219
f 219 220 217
f 220 221 217
f 222 217 221
f 220 219 223
f 221 220 223
f 221 224 222
f 225 222 224
f 226 225 224
f 225 226 227
f 228 227 226
f 224 221 229
f 226 224 229
f 230 223 219
f 223 230 231
f 232 230 219
f 232 233 230
f 223 234 221
f 234 229 221
f 223 235 234
f 235 223 231
f 229 234 235
f 233 236 230
f 236 231 230
f 233 237 236
f 237 231 236
f 238 237 233
f 239 231 237
f 239 240 231
f 231 240 241
f 241 235 231
f 242 241 240
f 243 235 241
f 235 243 229
f 244 229 243
f 229 244 226
f 243 245 244
f 246 226 244
f 226 246 228
f 247 244 245
f 244 247 246
f 245 248 247
f 249 247 248
f 247 249 246
f 248 250 249
f 246 251 228
f 251 246 249
f 252 228 251
f 253 249 250
f 249 253 251
f 250 254 253
f 251 255 252
f 255 251 253
f 256 252 255
f 257 253 254
f 253 257 255
f 254 258 257
f 259 255 257
f 255 259 256
f 260 256 259
f 261 262 263
f 262 264 263
f 263 264 265
f 266 263 265
f 266 265 267
f 262 268 264
f 264 268 265
f 269 268 262
f 269 270 268
f 265 271 267
f 272 267 271
f 273 265 268
f 268 270 273
f 271 265 274
f 274 265 273
f 275 271 274
f 274 276 275
f 273 277 274
f 276 274 277
f 273 278 277
f 277 278 276
f 279 273 270
f 278 273 279
f 270 280 279
f 279 280 278
f 280 270 281
f 282 278 280
f 278 282 283
f 283 276 278
f 284 283 282
f 285 283 284
f 285 276 283
f 284 286 285
f 287 285 286
f 288 275 276
f 276 285 288
f 275 288 289
f 285 287 290
f 290 288 285
f 291 289 288
f 288 290 291
f 289 291 292
f 293 292 291
f 291 290 293
f 292 293 294
f 290 287 295
f 295 293 290
f 296 295 287
f 297 294 293
f 293 295 297
f 294 297 298
f 295 296 299
f 299 297 295
f 300 299 296
f 301 298 297
f 297 299 301
f 298 301 302
f 303 301 299
f 299 300 303
f 304 303 300
f 305 306 307
f 306 305 308
f 309 308 305
f 308 310 306
f 308 309 311
f 310 308 312
f 311 312 308
f 312 313 310
f 312 311 314
f 313 312 315
f 312 314 316
f 316 315 312
f 317 318 319
f 320 319 318
f 319 320 321
f 319 321 322
f 322 323 319
f 323 322 324
f 324 325 323
f 326 327 328
f 329 328 327
f 327 330 329
f 330 327 331
f 331 332 330
f 332 331 333
f 333 334 332
f 335 336 337
f 336 335 338
f 339 338 335
f 338 340 336
f 338 339 341
f 340 338 342
f 341 342 338
f 342 343 340
f 342 341 344
f 343 342 345
f 342 344 346
f 346 345 342
f 347 348 349
f 350 349 348
f 350 348 351
f 350 351 352
f 353 349 350
f 354 350 352
f 350 354 353
f 352 355 354
f 356 354 355
f 357 353 354
f 356 357 354
f 353 357 358
f 359 357 356
f 360 358 357
f 357 359 360
f 358 360 361
f 362 360 359
f 363 361 360
f 360 362 363
f 361 363 364
f 364 363 365
f 366 363 362
f 367 365 363
f 363 366 367
f 365 367 368
f 369 368 367
f 367 366 369
f 370 369 366
f 371 372 373
f 374 373 372
f 374 375 373
f 374 376 375
f 377 374 372
f 378 376 374
f 374 377 378
f 376 378 379
f 380 379 378
f 381 378 377
f 380 378 381
f 377 382 381
f 383 380 381
f 384 381 382
f 381 384 383
f 382 385 384
f 386 383 384
f 387 384 385
f 384 387 386
f 385 388 387
f 388 389 387
f 390 386 387
f 391 387 389
f 387 391 390
f 389 392 391
f 393 391 392
f 391 393 390
f 394 390 393
