# Pawns/Pawn21/model/Bodyparts/FOrc_m001_u(Clone)  mesh=FOrc_m001_u.mo
v -0.006708 0.792690 0.000838
v 0.000957 0.798427 -0.025831
v -0.016381 0.796220 -0.016247
v 0.006741 0.793400 -0.004346
v 0.022752 0.806427 -0.046423
v 0.009962 0.787313 0.009624
v 0.034962 0.790555 -0.029666
v 0.034865 0.817833 -0.057115
v 0.040929 0.788092 -0.002448
v 0.037550 0.789299 -0.011069
v 0.057367 0.787220 -0.024160
v 0.042423 0.809911 -0.047218
v 0.035843 0.773215 0.021762
v 0.007043 0.769406 0.016219
v 0.022864 0.758684 0.027012
v 0.004676 0.758452 0.016933
v 0.004172 0.748835 0.007667
v 0.069644 0.785481 -0.011122
v 0.046233 0.830438 -0.043030
v 0.044704 0.835480 -0.056482
v 0.043324 0.841719 -0.038582
v 0.044783 0.831118 -0.035070
v 0.052518 0.814545 -0.035430
v 0.055854 0.818051 -0.031641
v 0.064695 0.806726 -0.034529
v 0.064967 0.813143 -0.030998
v 0.064778 0.795075 -0.036310
v 0.052726 0.798547 -0.036521
v 0.070313 0.783543 -0.027586
v 0.081251 0.782680 -0.020033
v 0.074969 0.771484 0.003677
v 0.089608 0.767776 -0.005546
v 0.057114 0.772272 0.011561
v 0.088610 0.756687 0.021274
v 0.100564 0.749354 0.013188
v 0.072859 0.763149 0.025232
v 0.056773 0.763817 0.032922
v 0.043428 0.758791 0.039608
v 0.035624 0.744026 0.043968
v 0.064309 0.758506 0.044649
v 0.081555 0.756827 0.038181
v 0.052473 0.753738 0.049919
v 0.098500 0.742502 0.024184
v 0.093075 0.748678 0.032933
v 0.101949 0.735447 0.025438
v 0.105915 0.734566 0.023662
v 0.102415 0.735071 0.032609
v 0.103648 0.716155 0.028985
v 0.106194 0.716238 0.028220
v 0.104728 0.700371 0.029903
v 0.098301 0.702359 0.035783
v 0.106507 0.682311 0.034367
v 0.104740 0.717320 0.037464
v 0.062445 0.748053 0.060667
v 0.072933 0.751375 0.055987
v 0.079937 0.750313 0.053080
v 0.093251 0.743201 0.050147
v 0.078779 0.745193 0.063509
v 0.100482 0.730443 0.050596
v 0.044300 0.742206 0.057011
v 0.068806 0.743903 0.067653
v 0.077319 0.737114 0.073914
v 0.088439 0.737649 0.062556
v 0.052300 0.739089 0.066413
v 0.094387 0.724127 0.064843
v 0.101091 0.720148 0.052300
v 0.099790 0.701483 0.041996
v 0.039842 0.726957 0.062664
v 0.061251 0.734639 0.074510
v 0.097241 0.706483 0.056142
v 0.048515 0.725899 0.070025
v 0.087264 0.693813 0.043175
v 0.087210 0.692437 0.047467
v 0.072716 0.690131 0.048049
v 0.073795 0.688976 0.053562
v 0.056104 0.691251 0.049081
v 0.088800 0.698423 0.060365
v 0.085343 0.710368 0.071872
v 0.077765 0.694968 0.064555
v 0.060287 0.690528 0.058889
v 0.083096 0.725171 0.074561
v 0.077119 0.725181 0.076825
v 0.073419 0.708798 0.076194
v 0.071841 0.726854 0.077756
v 0.063793 0.714376 0.077881
v 0.066451 0.696042 0.068062
v 0.043090 0.695357 0.051995
v 0.038994 0.698379 0.046071
v 0.050627 0.711811 0.071097
v 0.056875 0.702091 0.070254
v 0.049392 0.697430 0.062452
v 0.041487 0.708927 0.064661
v 0.030059 0.726948 0.048518
v 0.032117 0.707703 0.049163
v 0.024485 0.726589 0.035133
v 0.027138 0.710512 0.035568
v 0.024325 0.747109 0.032271
v 0.010934 0.730288 0.016612
v 0.015442 0.748870 0.021829
v 0.002154 0.744347 -0.000644
v 0.007378 0.703610 0.017449
v 0.022947 0.670169 0.029375
v 0.049906 0.671050 0.050884
v 0.056104 0.691251 0.049081
v 0.053115 0.650872 0.048645
v 0.033869 0.639817 0.036674
v 0.072810 0.671635 0.051304
v 0.072716 0.690131 0.048049
v 0.072744 0.651701 0.050547
v 0.088785 0.671704 0.046885
v 0.087264 0.693813 0.043175
v 0.089688 0.655171 0.045121
v 0.106309 0.660224 0.033476
v 0.053708 0.631092 0.051434
v 0.027056 0.605846 0.030352
v 0.070651 0.629787 0.049063
v 0.093442 0.628594 0.047928
v 0.108770 0.628712 0.037377
v 0.106920 0.590539 0.031752
v 0.087253 0.589078 0.043067
v 0.110618 0.566067 0.034763
v 0.086422 0.565247 0.044042
v 0.069242 0.594261 0.044022
v 0.065338 0.571912 0.047216
v 0.045254 0.603334 0.045541
v 0.042320 0.579788 0.047237
v 0.016273 0.582731 0.028405
v 0.133444 0.774733 -0.080424
v 0.124046 0.776837 -0.098326
v 0.106191 0.782139 -0.092786
v 0.120992 0.777456 -0.074505
v 0.084522 0.796010 -0.079964
v 0.131955 0.770899 -0.064358
v 0.088427 0.781538 -0.058698
v 0.083120 0.809801 -0.071333
v 0.107862 0.777424 -0.048999
v 0.101506 0.779006 -0.055772
v 0.080634 0.783296 -0.036795
v 0.080437 0.803584 -0.058419
v 0.128858 0.759235 -0.039405
v 0.138039 0.752936 -0.058580
v 0.137826 0.741823 -0.046691
v 0.139894 0.741711 -0.058508
v 0.129670 0.730594 -0.067679
v 0.091829 0.781776 -0.027881
v 0.086093 0.823842 -0.048779
v 0.087021 0.828478 -0.059936
v 0.093133 0.833477 -0.042648
v 0.088932 0.823812 -0.038673
v 0.077828 0.810357 -0.039080
v 0.074949 0.814891 -0.033199
v 0.064695 0.806726 -0.034529
v 0.064967 0.813143 -0.030998
v 0.064778 0.795075 -0.036310
v 0.075180 0.794810 -0.043137
v 0.070313 0.783543 -0.027586
v 0.081251 0.782680 -0.020033
v 0.101133 0.767165 -0.015854
v 0.089608 0.767776 -0.005546
v 0.112930 0.763203 -0.028589
v 0.112777 0.752520 0.003047
v 0.100564 0.749354 0.013188
v 0.121859 0.754700 -0.011726
v 0.133299 0.750624 -0.024796
v 0.141875 0.741819 -0.034643
v 0.144764 0.725213 -0.038348
v 0.141326 0.745227 -0.013439
v 0.130532 0.748382 0.001242
v 0.148243 0.737228 -0.022312
v 0.109981 0.740521 0.015524
v 0.120930 0.743874 0.011924
v 0.108777 0.734270 0.020288
v 0.105915 0.734566 0.023662
v 0.115345 0.732840 0.022856
v 0.107536 0.715486 0.026052
v 0.106194 0.716238 0.028220
v 0.104728 0.700371 0.029903
v 0.112320 0.699945 0.025209
v 0.106507 0.682311 0.034367
v 0.115515 0.715463 0.029336
v 0.148322 0.738378 -0.000874
v 0.143591 0.739338 0.005070
v 0.135948 0.735839 0.017943
v 0.131805 0.725043 0.026970
v 0.152619 0.732464 0.007817
v 0.154655 0.732157 -0.008880
v 0.147668 0.727438 0.017884
v 0.161062 0.722679 0.010753
v 0.158755 0.728397 -0.000189
v 0.154500 0.723209 -0.026103
v 0.145417 0.715331 0.026355
v 0.131041 0.714986 0.029711
v 0.160691 0.720404 -0.015337
v 0.117619 0.698412 0.028548
v 0.157665 0.706649 -0.026200
v 0.165124 0.716734 -0.003833
v 0.132686 0.700375 0.029408
v 0.162206 0.706303 -0.015722
v 0.120222 0.688135 0.018317
v 0.124278 0.684584 0.019307
v 0.127680 0.680659 0.006593
v 0.132363 0.678885 0.009389
v 0.133067 0.677988 -0.008966
v 0.137052 0.690109 0.023972
v 0.151354 0.698991 0.022085
v 0.143030 0.683722 0.015330
v 0.141115 0.676600 -0.002073
v 0.157647 0.712321 0.018333
v 0.161286 0.710673 0.013345
v 0.158086 0.694206 0.012336
v 0.163851 0.710995 0.008361
v 0.163298 0.697226 0.002833
v 0.149412 0.681746 0.005491
v 0.139969 0.678660 -0.021073
v 0.136059 0.681650 -0.027138
v 0.155189 0.685147 -0.003896
v 0.159649 0.693021 -0.011129
v 0.148700 0.680315 -0.012448
v 0.155249 0.689321 -0.021140
v 0.146772 0.706831 -0.039509
v 0.142714 0.688641 -0.034252
v 0.135464 0.707460 -0.048569
v 0.131742 0.692483 -0.043326
v 0.137342 0.728435 -0.048700
v 0.122941 0.711453 -0.065038
v 0.134406 0.731377 -0.056204
v 0.117389 0.725684 -0.075568
v 0.116629 0.688784 -0.066513
v 0.118975 0.664388 -0.047252
v 0.134515 0.665956 -0.016631
v 0.133067 0.677988 -0.008966
v 0.131453 0.649201 -0.015052
v 0.123078 0.637914 -0.035863
v 0.130149 0.668183 0.005550
v 0.127680 0.680659 0.006593
v 0.129509 0.650490 0.004391
v 0.122444 0.669677 0.020027
v 0.120222 0.688135 0.018317
v 0.120927 0.654505 0.019720
v 0.106309 0.660224 0.033476
v 0.133520 0.629389 -0.013462
v 0.128091 0.619893 -0.041549
v 0.127819 0.628568 0.002579
v 0.122196 0.627981 0.024548
v 0.108770 0.628712 0.037377
v 0.106920 0.590539 0.031752
v 0.123875 0.594169 0.017005
v 0.110618 0.566067 0.034763
v 0.129210 0.574392 0.018726
v 0.129526 0.602642 0.001121
v 0.138987 0.587652 0.003640
v 0.136902 0.616076 -0.019679
v 0.146559 0.602066 -0.014437
v 0.140969 0.609382 -0.045372
v 0.087021 0.828478 -0.059936
v 0.083120 0.809801 -0.071333
v 0.079641 0.832237 -0.068640
v 0.070202 0.813918 -0.079705
v 0.065339 0.836291 -0.073358
v 0.053929 0.814118 -0.081721
v 0.084522 0.796010 -0.079964
v 0.062189 0.777634 -0.096861
v 0.031646 0.740026 -0.076054
v 0.075962 0.791022 -0.090890
v 0.096374 0.776786 -0.107131
v 0.106191 0.782139 -0.092786
v 0.124046 0.776837 -0.098326
v 0.107044 0.770088 -0.112309
v 0.086266 0.759028 -0.115282
v 0.104166 0.758791 -0.118606
v 0.044531 0.732531 -0.089573
v 0.086594 0.736361 -0.113815
v 0.105892 0.740220 -0.120453
v 0.104494 0.720519 -0.113888
v 0.089745 0.713315 -0.104696
v 0.108342 0.713704 -0.092076
v 0.045929 0.694286 -0.065757
v 0.038888 0.698143 -0.054668
v 0.071586 0.722125 -0.098010
v 0.065171 0.691565 -0.075407
v 0.094882 0.690763 -0.082733
v 0.048971 0.666636 -0.048116
v 0.044454 0.667700 -0.041605
v 0.049049 0.632392 -0.035023
v 0.116629 0.688784 -0.066513
v 0.117389 0.725684 -0.075568
v 0.087586 0.664634 -0.066036
v 0.118975 0.664388 -0.047252
v 0.067220 0.666413 -0.058177
v 0.066173 0.634320 -0.049842
v 0.050962 0.603541 -0.045049
v 0.105029 0.637744 -0.052001
v 0.123078 0.637914 -0.035863
v 0.082552 0.637199 -0.057849
v 0.086823 0.612992 -0.067002
v 0.108624 0.618410 -0.061102
v 0.128091 0.619893 -0.041549
v 0.122129 0.604613 -0.068058
v 0.140969 0.609382 -0.045372
v 0.099183 0.598698 -0.074866
v 0.075882 0.591419 -0.072362
v 0.054635 0.582348 -0.053975
v 0.068405 0.608714 -0.060858
v 0.044704 0.835480 -0.056482
v 0.051427 0.836905 -0.066337
v 0.034865 0.817833 -0.057115
v 0.041813 0.818643 -0.071341
v 0.065339 0.836291 -0.073358
v 0.053929 0.814118 -0.081721
v 0.022752 0.806427 -0.046423
v 0.016297 0.785373 -0.071941
v 0.031646 0.740026 -0.076054
v 0.017084 0.800952 -0.058919
v -0.008084 0.793396 -0.040519
v 0.000957 0.798427 -0.025831
v -0.016381 0.796220 -0.016247
v -0.019486 0.789321 -0.037306
v -0.014344 0.775501 -0.051197
v -0.025782 0.778499 -0.044862
v 0.016312 0.737611 -0.068184
v -0.018643 0.754062 -0.044064
v -0.031954 0.761459 -0.040118
v -0.029396 0.741909 -0.034727
v -0.016468 0.731539 -0.032522
v -0.011931 0.734096 -0.015107
v 0.025894 0.697004 -0.050360
v 0.038888 0.698143 -0.054668
v -0.002278 0.734661 -0.044818
v 0.011570 0.698839 -0.034214
v -0.002687 0.704003 -0.007750
v 0.037017 0.667356 -0.038577
v 0.044454 0.667700 -0.041605
v 0.049049 0.632392 -0.035023
v 0.007378 0.703610 0.017449
v 0.002154 0.744347 -0.000644
v 0.011106 0.669238 -0.005008
v 0.022947 0.670169 0.029375
v 0.023262 0.669060 -0.023101
v 0.031107 0.635068 -0.021329
v 0.050962 0.603541 -0.045049
v 0.021457 0.639526 0.015952
v 0.033869 0.639817 0.036674
v 0.020069 0.638532 -0.007043
v 0.017631 0.603372 -0.017761
v 0.015293 0.605434 0.005317
v 0.027056 0.605846 0.030352
v 0.006656 0.579933 0.000263
v 0.016273 0.582731 0.028405
v 0.012630 0.580200 -0.023656
v 0.027069 0.580987 -0.043482
v 0.054635 0.582348 -0.053975
v 0.029885 0.603358 -0.033445
v 0.119098 0.716276 -0.075494
v 0.117389 0.725684 -0.075568
v 0.108342 0.713704 -0.092076
v 0.132726 0.718868 -0.064937
v 0.129670 0.730594 -0.067679
v 0.139894 0.741711 -0.058508
v 0.143195 0.666196 -0.072532
v 0.120064 0.663218 -0.085483
v 0.147183 0.618010 -0.086924
v 0.127550 0.615939 -0.096225
v 0.148227 0.604882 -0.091264
v 0.132875 0.602798 -0.096428
v 0.134577 0.589401 -0.097563
v 0.151451 0.591420 -0.092203
v 0.138297 0.557742 -0.100541
v 0.159603 0.560268 -0.093283
v 0.172003 0.563712 -0.100685
v 0.162330 0.594263 -0.096974
v 0.176491 0.566692 -0.113231
v 0.157896 0.670474 -0.077869
v 0.157688 0.639510 -0.085339
v 0.163048 0.674054 -0.091389
v 0.145828 0.725704 -0.072260
v 0.158312 0.620960 -0.092135
v 0.159320 0.607937 -0.095836
v 0.162186 0.623757 -0.104225
v 0.166882 0.597376 -0.109543
v 0.162821 0.610551 -0.106911
v 0.158715 0.598695 -0.125214
v 0.168888 0.568663 -0.132880
v 0.154206 0.625227 -0.121086
v 0.154945 0.612005 -0.123210
v 0.141638 0.596839 -0.132137
v 0.148572 0.566860 -0.142281
v 0.129865 0.593984 -0.128449
v 0.133384 0.563108 -0.136033
v 0.123649 0.591077 -0.119787
v 0.127315 0.559079 -0.119227
v 0.134577 0.589401 -0.097563
v 0.138297 0.557742 -0.100541
v 0.132875 0.602798 -0.096428
v 0.119766 0.604459 -0.118804
v 0.125410 0.607389 -0.128407
v 0.118464 0.617266 -0.115187
v 0.127550 0.615939 -0.096225
v 0.120064 0.663218 -0.085483
v 0.136765 0.610321 -0.132513
v 0.124325 0.620450 -0.125441
v 0.134763 0.623102 -0.129425
v 0.107168 0.664592 -0.109554
v 0.114085 0.668566 -0.123448
v 0.128147 0.672196 -0.127573
v 0.126145 0.722190 -0.118195
v 0.108017 0.704185 -0.094851
v 0.119098 0.716276 -0.075494
v 0.108342 0.713704 -0.092076
v 0.109609 0.708031 -0.110137
v 0.104494 0.720519 -0.113888
v 0.105892 0.740220 -0.120453
v 0.150761 0.675488 -0.115355
v 0.144507 0.717442 -0.108194
v 0.129063 0.738529 -0.120183
v 0.104166 0.758791 -0.118606
v 0.148105 0.737747 -0.108149
v 0.124261 0.760303 -0.117676
v 0.107044 0.770088 -0.112309
v 0.140915 0.762263 -0.105308
v 0.124046 0.776837 -0.098326
v 0.133444 0.774733 -0.080424
v 0.152593 0.722317 -0.088425
v 0.148241 0.760070 -0.086956
v 0.153344 0.739405 -0.088260
v 0.147988 0.741321 -0.073608
v 0.144875 0.757486 -0.068015
v 0.131955 0.770899 -0.064358
v 0.138039 0.752936 -0.058580
v -0.006534 0.734822 -0.013793
v -0.011931 0.734096 -0.015107
v 0.002154 0.744347 -0.000644
v -0.003247 0.735701 0.000763
v 0.004172 0.748835 0.007667
v 0.004676 0.758452 0.016933
v -0.014435 0.682946 -0.000784
v -0.016524 0.682914 -0.027262
v -0.027949 0.635590 -0.010351
v -0.028788 0.635081 -0.032027
v -0.031969 0.624502 -0.012035
v -0.031010 0.622044 -0.028092
v -0.031945 0.609054 -0.026189
v -0.032870 0.612590 -0.008323
v -0.033431 0.577903 -0.019816
v -0.034370 0.582584 0.002262
v -0.045867 0.586100 0.010901
v -0.041362 0.615579 -0.000119
v -0.059329 0.588104 0.010449
v -0.025178 0.686404 0.010540
v -0.030362 0.655452 0.002196
v -0.039306 0.690599 0.009786
v -0.014161 0.742180 0.008881
v -0.037083 0.637988 -0.001989
v -0.040421 0.627416 -0.003523
v -0.049681 0.640919 -0.002922
v -0.054851 0.617843 -0.000540
v -0.052045 0.629635 -0.004384
v -0.066801 0.617301 -0.014191
v -0.075063 0.587572 -0.003604
v -0.062012 0.643439 -0.016621
v -0.064251 0.630435 -0.017658
v -0.066902 0.614556 -0.032384
v -0.076518 0.583461 -0.025571
v -0.059060 0.611610 -0.041824
v -0.065088 0.579334 -0.037173
v -0.048632 0.609069 -0.044338
v -0.047035 0.576610 -0.036618
v -0.031945 0.609054 -0.026189
v -0.033431 0.577903 -0.019816
v -0.031010 0.622044 -0.028092
v -0.046718 0.623603 -0.048457
v -0.057771 0.626282 -0.046807
v -0.042614 0.637598 -0.047559
v -0.028788 0.635081 -0.032027
v -0.016524 0.682914 -0.027262
v -0.065915 0.628942 -0.037859
v -0.054306 0.640727 -0.045941
v -0.062044 0.642833 -0.037756
v -0.032677 0.687236 -0.048852
v -0.047861 0.691707 -0.048147
v -0.057280 0.694483 -0.036951
v -0.046558 0.745351 -0.031389
v -0.019660 0.725128 -0.035809
v -0.006534 0.734822 -0.013793
v -0.011931 0.734096 -0.015107
v -0.033106 0.730314 -0.041738
v -0.029396 0.741909 -0.034727
v -0.031954 0.761459 -0.040118
v -0.055616 0.694922 -0.011210
v -0.045746 0.737607 -0.009871
v -0.047142 0.761841 -0.030332
v -0.025782 0.778499 -0.044862
v -0.047026 0.759901 -0.007194
v -0.037709 0.782278 -0.031097
v -0.019486 0.789321 -0.037306
v -0.036464 0.783848 -0.010093
v -0.016381 0.796220 -0.016247
v -0.006708 0.792690 0.000838
v -0.031621 0.740148 0.006845
v -0.025244 0.779059 0.006555
v -0.031509 0.759669 0.008699
v -0.015977 0.758071 0.011631
v -0.006277 0.774737 0.015166
v 0.009962 0.787313 0.009624
v 0.007043 0.769406 0.016219
v 0.099790 0.701483 0.041996
v 0.087210 0.692437 0.047467
v 0.108588 0.681434 0.037270
v 0.108431 0.699901 0.035101
v 0.104740 0.717320 0.037464
v 0.109218 0.718349 0.031930
v 0.115515 0.715463 0.029336
v 0.117619 0.698412 0.028548
v 0.124278 0.684584 0.019307
f 1 2 3
f 2 1 4
f 4 5 2
f 6 4 1
f 7 5 4
f 8 5 7
f 4 6 9
f 10 7 4
f 4 9 10
f 11 7 10
f 8 7 12
f 11 12 7
f 6 13 9
f 14 13 6
f 14 15 13
f 15 14 16
f 17 15 16
f 18 10 9
f 18 11 10
f 19 8 12
f 8 19 20
f 20 19 21
f 19 22 21
f 19 23 22
f 12 23 19
f 24 22 23
f 23 25 24
f 26 24 25
f 23 27 25
f 23 12 28
f 27 23 28
f 11 28 12
f 27 28 11
f 27 11 29
f 29 11 30
f 11 18 30
f 30 18 31
f 32 30 31
f 31 18 33
f 9 33 18
f 13 33 9
f 32 31 34
f 35 32 34
f 33 36 31
f 34 31 36
f 37 33 13
f 37 36 33
f 38 37 13
f 15 38 13
f 39 38 15
f 40 36 37
f 38 40 37
f 41 34 36
f 40 41 36
f 39 42 38
f 38 42 40
f 43 35 34
f 41 44 34
f 44 43 34
f 43 45 35
f 46 35 45
f 47 45 43
f 44 47 43
f 46 45 48
f 47 48 45
f 46 48 49
f 49 48 50
f 50 48 51
f 51 52 50
f 47 53 48
f 53 51 48
f 54 40 42
f 54 55 40
f 55 41 40
f 56 44 41
f 55 56 41
f 57 47 44
f 56 57 44
f 58 56 55
f 58 57 56
f 57 59 47
f 59 53 47
f 54 42 60
f 42 39 60
f 61 55 54
f 61 58 55
f 62 58 61
f 58 63 57
f 63 59 57
f 62 63 58
f 64 54 60
f 61 54 64
f 63 65 59
f 62 65 63
f 59 66 53
f 65 66 59
f 66 67 53
f 53 67 51
f 68 60 39
f 64 60 68
f 69 61 64
f 62 61 69
f 65 70 66
f 66 70 67
f 71 64 68
f 69 64 71
f 67 72 51
f 67 73 72
f 70 73 67
f 73 74 72
f 73 75 74
f 75 76 74
f 70 77 73
f 77 75 73
f 65 78 70
f 78 77 70
f 77 79 75
f 78 79 77
f 75 80 76
f 79 80 75
f 81 78 65
f 62 81 65
f 81 82 78
f 62 82 81
f 78 83 79
f 82 83 78
f 62 84 82
f 62 69 84
f 84 85 82
f 84 69 85
f 82 85 83
f 69 71 85
f 83 86 79
f 79 86 80
f 80 87 76
f 87 88 76
f 85 71 89
f 89 71 68
f 83 85 90
f 83 90 86
f 85 89 90
f 86 91 80
f 86 90 91
f 80 91 87
f 90 89 92
f 90 92 91
f 89 68 92
f 91 92 87
f 92 68 93
f 68 39 93
f 92 94 87
f 92 93 94
f 87 94 88
f 39 95 93
f 94 93 95
f 94 96 88
f 95 96 94
f 95 39 97
f 15 97 39
f 97 98 95
f 95 98 96
f 15 99 97
f 98 97 99
f 15 17 99
f 17 100 99
f 99 100 98
f 100 101 98
f 98 101 96
f 102 96 101
f 102 88 96
f 103 88 102
f 88 103 104
f 105 103 102
f 106 105 102
f 103 107 104
f 104 107 108
f 109 107 103
f 105 109 103
f 108 107 110
f 110 107 109
f 110 111 108
f 110 51 111
f 110 52 51
f 52 110 112
f 110 109 112
f 52 112 113
f 114 105 106
f 106 115 114
f 116 109 105
f 112 109 116
f 114 116 105
f 112 117 113
f 117 112 116
f 113 117 118
f 118 117 119
f 119 117 120
f 116 120 117
f 120 121 119
f 122 121 120
f 123 120 116
f 122 120 123
f 116 114 123
f 122 123 124
f 123 114 125
f 124 123 125
f 125 114 115
f 126 124 125
f 126 125 115
f 115 127 126
f 128 129 130
f 130 131 128
f 131 130 132
f 133 128 131
f 134 131 132
f 135 134 132
f 131 136 133
f 137 131 134
f 131 137 136
f 138 137 134
f 135 139 134
f 138 134 139
f 133 136 140
f 141 133 140
f 141 140 142
f 142 143 141
f 144 143 142
f 145 136 137
f 145 137 138
f 146 139 135
f 135 147 146
f 147 148 146
f 146 148 149
f 146 149 150
f 139 146 150
f 151 150 149
f 150 151 152
f 153 152 151
f 150 152 154
f 150 155 139
f 154 155 150
f 138 139 155
f 154 138 155
f 154 156 138
f 156 157 138
f 138 157 145
f 157 158 145
f 159 158 157
f 158 160 145
f 136 145 160
f 140 136 160
f 159 161 158
f 162 161 159
f 160 158 163
f 161 163 158
f 140 160 164
f 164 160 163
f 140 164 165
f 142 140 165
f 166 142 165
f 167 164 163
f 165 164 167
f 168 163 161
f 167 163 168
f 166 165 169
f 165 167 169
f 170 161 162
f 168 161 171
f 171 161 170
f 170 162 172
f 173 172 162
f 174 170 172
f 171 170 174
f 173 175 172
f 174 172 175
f 173 176 175
f 176 177 175
f 177 178 175
f 178 177 179
f 174 175 180
f 180 175 178
f 181 167 168
f 182 168 171
f 181 168 182
f 183 171 174
f 182 171 183
f 184 174 180
f 183 174 184
f 185 182 183
f 185 181 182
f 186 167 181
f 186 169 167
f 187 183 184
f 185 183 187
f 188 185 187
f 189 181 185
f 189 186 181
f 188 189 185
f 186 190 169
f 169 190 166
f 187 184 191
f 188 187 191
f 184 180 192
f 191 184 192
f 189 193 186
f 193 190 186
f 192 180 194
f 180 178 194
f 195 166 190
f 193 195 190
f 196 193 189
f 188 196 189
f 191 192 197
f 192 194 197
f 198 195 193
f 196 198 193
f 194 178 199
f 194 199 200
f 197 194 200
f 200 199 201
f 200 201 202
f 202 201 203
f 197 200 204
f 204 200 202
f 191 197 205
f 205 197 204
f 204 202 206
f 205 204 206
f 202 203 207
f 206 202 207
f 208 191 205
f 188 191 208
f 208 205 209
f 188 208 209
f 205 206 210
f 209 205 210
f 188 209 211
f 188 211 196
f 211 209 212
f 211 212 196
f 209 210 212
f 196 212 198
f 210 206 213
f 206 207 213
f 207 203 214
f 214 203 215
f 210 216 212
f 210 213 216
f 212 217 198
f 212 216 217
f 217 195 198
f 213 207 218
f 213 218 216
f 207 214 218
f 216 219 217
f 216 218 219
f 217 219 195
f 218 214 219
f 219 220 195
f 195 220 166
f 219 214 221
f 219 221 220
f 214 215 221
f 166 220 222
f 221 222 220
f 221 215 223
f 222 221 223
f 222 224 166
f 142 166 224
f 224 222 225
f 222 223 225
f 142 224 226
f 225 226 224
f 142 226 144
f 144 226 227
f 226 225 227
f 227 225 228
f 225 223 228
f 229 228 223
f 229 223 215
f 230 229 215
f 215 231 230
f 232 229 230
f 233 229 232
f 230 231 234
f 231 235 234
f 236 230 234
f 232 230 236
f 235 237 234
f 237 236 234
f 237 235 238
f 237 238 178
f 237 178 179
f 179 239 237
f 237 239 236
f 179 240 239
f 241 233 232
f 242 233 241
f 243 232 236
f 239 243 236
f 241 232 243
f 239 240 244
f 244 243 239
f 240 245 244
f 245 246 244
f 246 247 244
f 243 244 247
f 247 246 248
f 249 247 248
f 250 243 247
f 249 250 247
f 243 250 241
f 249 251 250
f 250 252 241
f 251 252 250
f 241 252 242
f 253 252 251
f 253 242 252
f 242 253 254
f 255 256 257
f 256 258 257
f 259 257 258
f 259 258 260
f 256 261 258
f 260 258 262
f 260 262 263
f 264 258 261
f 258 264 262
f 261 265 264
f 266 265 261
f 265 266 267
f 267 268 265
f 269 264 265
f 269 265 268
f 269 262 264
f 268 270 269
f 263 262 271
f 269 271 262
f 272 269 270
f 271 269 272
f 270 273 272
f 274 272 273
f 272 274 275
f 275 274 276
f 271 277 263
f 278 263 277
f 272 279 271
f 275 279 272
f 279 280 271
f 280 279 275
f 271 280 277
f 275 276 281
f 275 281 280
f 278 277 282
f 278 282 283
f 283 282 284
f 281 276 285
f 285 276 286
f 281 285 287
f 280 281 287
f 285 288 287
f 277 280 289
f 277 289 282
f 287 289 280
f 290 284 282
f 282 289 290
f 290 291 284
f 287 288 292
f 292 288 293
f 289 287 294
f 289 294 290
f 287 292 294
f 290 294 295
f 292 295 294
f 293 296 292
f 295 292 296
f 296 293 297
f 296 297 298
f 295 296 298
f 299 298 297
f 298 300 295
f 301 295 300
f 301 302 291
f 295 303 290
f 303 295 301
f 291 290 303
f 291 303 301
f 304 305 306
f 306 305 307
f 308 307 305
f 308 309 307
f 306 307 310
f 309 311 307
f 309 312 311
f 313 310 307
f 307 311 313
f 310 313 314
f 315 310 314
f 314 316 315
f 316 314 317
f 318 314 313
f 318 317 314
f 318 313 311
f 317 318 319
f 312 320 311
f 318 311 320
f 321 319 318
f 320 321 318
f 319 321 322
f 323 322 321
f 321 324 323
f 324 325 323
f 320 312 326
f 327 326 312
f 321 320 328
f 324 321 328
f 328 320 329
f 329 324 328
f 320 326 329
f 324 330 325
f 324 329 330
f 327 331 326
f 327 332 331
f 332 333 331
f 330 334 325
f 334 335 325
f 330 336 334
f 329 336 330
f 334 336 337
f 326 338 329
f 326 331 338
f 336 329 338
f 339 331 333
f 331 339 338
f 339 333 340
f 336 341 337
f 341 342 337
f 338 343 336
f 338 339 343
f 336 343 341
f 339 344 343
f 341 343 344
f 342 341 345
f 344 345 341
f 345 346 342
f 345 347 346
f 344 347 345
f 348 346 347
f 347 344 349
f 350 349 344
f 350 340 351
f 340 352 339
f 344 339 352
f 352 350 344
f 340 350 352
f 353 354 355
f 354 353 356
f 356 357 354
f 358 357 356
f 356 353 359
f 353 360 359
f 359 360 361
f 361 360 362
f 362 363 361
f 363 362 364
f 363 364 365
f 365 366 363
f 366 365 367
f 367 368 366
f 368 369 366
f 366 369 370
f 370 363 366
f 369 371 370
f 372 356 359
f 373 359 361
f 373 372 359
f 374 372 373
f 372 375 356
f 374 375 372
f 375 358 356
f 376 361 363
f 376 373 361
f 377 363 370
f 377 376 363
f 378 373 376
f 374 373 378
f 378 376 377
f 370 371 379
f 379 377 370
f 378 377 380
f 380 377 379
f 381 379 371
f 371 382 381
f 380 383 378
f 378 383 374
f 384 380 379
f 379 381 384
f 380 384 383
f 385 381 382
f 385 384 381
f 382 386 385
f 387 385 386
f 388 387 386
f 387 388 389
f 388 390 389
f 391 389 390
f 390 392 391
f 389 391 393
f 387 389 394
f 393 394 389
f 387 395 385
f 395 387 394
f 393 396 394
f 395 394 396
f 396 393 397
f 397 398 396
f 395 399 385
f 384 385 399
f 400 395 396
f 395 400 399
f 399 401 384
f 400 401 399
f 383 384 401
f 398 402 396
f 400 396 402
f 400 403 401
f 403 400 402
f 383 401 404
f 403 404 401
f 404 403 405
f 406 402 398
f 398 407 406
f 408 406 407
f 409 403 402
f 402 406 409
f 406 408 409
f 409 405 403
f 410 409 408
f 410 405 409
f 411 405 410
f 404 412 383
f 412 374 383
f 413 412 404
f 374 412 413
f 404 405 413
f 405 411 414
f 414 411 415
f 414 416 405
f 413 405 416
f 414 415 417
f 416 414 417
f 415 418 417
f 419 417 418
f 417 419 416
f 418 420 419
f 421 419 420
f 374 413 422
f 374 422 375
f 423 416 419
f 419 421 423
f 424 413 416
f 424 422 413
f 416 423 424
f 375 422 425
f 422 424 425
f 423 425 424
f 375 425 358
f 426 423 421
f 423 426 425
f 425 426 358
f 427 426 421
f 426 428 358
f 428 426 427
f 429 430 431
f 431 432 429
f 432 431 433
f 434 432 433
f 432 435 429
f 429 435 436
f 435 437 436
f 437 438 436
f 438 437 439
f 439 440 438
f 439 441 440
f 441 439 442
f 442 443 441
f 443 442 444
f 444 442 445
f 442 446 445
f 446 442 439
f 445 446 447
f 448 435 432
f 449 437 435
f 449 435 448
f 450 449 448
f 448 432 451
f 450 448 451
f 451 432 434
f 452 439 437
f 452 437 449
f 453 446 439
f 453 439 452
f 454 452 449
f 450 454 449
f 454 453 452
f 446 455 447
f 455 446 453
f 454 456 453
f 456 455 453
f 457 447 455
f 447 457 458
f 456 454 459
f 454 450 459
f 460 455 456
f 455 460 457
f 456 459 460
f 461 458 457
f 461 457 460
f 458 461 462
f 463 462 461
f 464 462 463
f 463 465 464
f 464 465 466
f 467 466 465
f 466 467 468
f 465 469 467
f 463 470 465
f 469 465 470
f 463 461 471
f 471 470 463
f 469 470 472
f 471 472 470
f 472 473 469
f 473 472 474
f 460 475 461
f 471 461 475
f 476 472 471
f 471 475 476
f 475 460 477
f 476 475 477
f 459 477 460
f 474 472 478
f 476 478 472
f 476 477 479
f 479 478 476
f 459 480 477
f 479 477 480
f 480 481 479
f 482 474 478
f 474 482 483
f 484 483 482
f 485 478 479
f 478 485 482
f 482 485 484
f 485 479 481
f 486 484 485
f 486 485 481
f 487 486 481
f 480 459 488
f 488 459 450
f 489 480 488
f 450 489 488
f 480 489 481
f 481 490 487
f 490 491 487
f 492 490 481
f 481 489 492
f 490 493 491
f 492 493 490
f 491 493 494
f 495 494 493
f 493 492 495
f 494 495 496
f 497 496 495
f 450 498 489
f 450 451 498
f 499 495 492
f 495 499 497
f 500 492 489
f 500 489 498
f 492 500 499
f 451 501 498
f 498 501 500
f 499 500 501
f 451 434 501
f 502 497 499
f 499 501 502
f 501 434 502
f 503 497 502
f 502 434 504
f 504 503 502
f 505 506 507
f 507 508 505
f 505 508 509
f 510 509 508
f 508 511 510
f 511 508 512
f 512 508 507
f 512 507 513
