# Pawns/Pawn11/model/Bodyparts/FMagic_m003_u(Clone)  mesh=FMagic_m003_u.mo
v 0.034758 0.714084 -0.000602
v 0.029265 0.706009 -0.000779
v 0.028264 0.705487 -0.014182
v 0.023297 0.699577 -0.018834
v 0.024000 0.695736 -0.010731
v 0.022819 0.685418 -0.022957
v 0.022635 0.692007 -0.004856
v 0.024829 0.699305 0.003341
v 0.024001 0.679194 -0.014569
v 0.018559 0.689634 0.001511
v 0.018309 0.694244 0.007079
v 0.011591 0.687316 0.006242
v 0.008848 0.690654 0.010267
v 0.012766 0.673405 0.006647
v 0.019523 0.674513 -0.000056
v 0.014296 0.668064 0.009496
v 0.023410 0.677169 -0.008800
v 0.022234 0.668716 -0.000324
v 0.018223 0.661825 0.018118
v 0.029310 0.673756 -0.017622
v 0.026583 0.678581 -0.025900
v 0.053049 0.662259 -0.031954
v 0.045648 0.665804 -0.042535
v 0.058611 0.662026 -0.042677
v 0.065896 0.656610 -0.033137
v 0.023310 0.668147 -0.010411
v 0.043137 0.660425 -0.000698
v 0.019679 0.656923 0.019853
v 0.058634 0.657764 -0.018941
v 0.062166 0.648519 -0.013428
v 0.068228 0.640879 -0.023930
v 0.047574 0.653711 0.002556
v 0.062796 0.639353 0.000198
v 0.054197 0.643838 0.008090
v 0.040613 0.643617 0.019493
v 0.039493 0.630483 0.036711
v 0.029258 0.630666 0.043251
v 0.053166 0.630986 0.027118
v 0.036721 0.618705 0.050702
v 0.032630 0.618803 0.052679
v 0.066516 0.633756 -0.007579
v 0.065784 0.623699 -0.027667
v 0.062641 0.630069 0.018864
v 0.067737 0.613940 0.037175
v 0.046555 0.618092 0.046420
v 0.065807 0.628320 0.009024
v 0.041755 0.603327 0.051652
v 0.033056 0.604507 0.056467
v 0.031722 0.593244 0.055976
v 0.050414 0.606892 0.047324
v 0.041941 0.592016 0.049759
v 0.030315 0.586223 0.054282
v 0.049509 0.598125 0.048128
v 0.067178 0.604502 0.038845
v 0.071365 0.611225 0.024146
v 0.071618 0.602011 0.025139
v 0.067122 0.623388 0.000423
v 0.070524 0.608120 0.009108
v 0.065970 0.618564 -0.006035
v 0.059749 0.619022 -0.019875
v 0.046621 0.614025 -0.036286
v 0.049544 0.610993 -0.032095
v 0.060147 0.608821 -0.016234
v 0.049037 0.588738 -0.017421
v 0.065255 0.605923 -0.005673
v 0.069813 0.598375 0.011126
v 0.061879 0.595616 -0.004860
v 0.059341 0.591004 -0.005143
v 0.068637 0.593609 0.023615
v 0.064534 0.588389 0.008758
v 0.051949 0.578599 -0.003921
v 0.047056 0.566289 -0.008474
v 0.054951 0.573319 0.013092
v 0.047260 0.558219 -0.007802
v 0.059224 0.585264 0.004461
v 0.061726 0.582063 0.019406
v 0.063668 0.584737 0.021150
v 0.064883 0.594848 0.038390
v 0.059136 0.582880 0.034548
v 0.061255 0.587007 0.036272
v 0.047668 0.591438 0.047497
v 0.045316 0.585036 0.045317
v 0.051606 0.573458 0.031566
v 0.040774 0.576996 0.041727
v 0.027969 0.578903 0.050640
v 0.029110 0.539999 0.049019
v 0.050009 0.543904 0.029113
v 0.039926 0.540511 0.042089
v 0.051937 0.494521 0.040324
v 0.034613 0.484884 0.051309
v 0.062054 0.508263 0.028754
v 0.062649 0.525581 0.013991
v 0.053338 0.547741 0.012245
v 0.047688 0.551861 -0.007944
v 0.054614 0.537762 -0.007528
v 0.008848 0.690654 0.010267
v -0.000204 0.695029 0.006877
v 0.011591 0.687316 0.006242
v 0.003331 0.689984 0.004709
v -0.006189 0.700621 0.003002
v 0.012766 0.673405 0.006647
v -0.002937 0.692595 0.000516
v -0.009951 0.707673 -0.001207
v 0.006118 0.674990 0.002911
v 0.014296 0.668064 0.009496
v 0.004997 0.669327 0.005126
v 0.018223 0.661825 0.018118
v -0.002447 0.678216 -0.000712
v 0.003137 0.664478 0.022634
v 0.019679 0.656923 0.019853
v -0.003542 0.669214 -0.000074
v -0.024729 0.670975 0.028181
v -0.006680 0.680473 -0.004437
v -0.006515 0.696438 -0.004321
v -0.012320 0.675491 0.000129
v -0.011219 0.686886 -0.011257
v -0.009091 0.700322 -0.012031
v -0.008706 0.707055 -0.014585
v -0.014743 0.716183 -0.001142
v -0.016762 0.680440 -0.007088
v -0.033162 0.674711 0.019037
v -0.037716 0.672359 0.029188
v -0.031329 0.666890 0.038985
v -0.018923 0.666093 0.033855
v -0.015348 0.656844 0.039788
v -0.026232 0.651116 0.044928
v 0.000664 0.658448 0.029189
v -0.020770 0.647586 0.042099
v -0.008843 0.650030 0.039450
v 0.007994 0.646784 0.035211
v 0.017894 0.632589 0.047085
v 0.029258 0.630666 0.043251
v 0.004997 0.635687 0.050723
v 0.028577 0.619499 0.054613
v 0.032630 0.618803 0.052679
v -0.027950 0.643168 0.041771
v -0.030669 0.634751 0.045283
v -0.007157 0.636922 0.053588
v -0.001652 0.620704 0.070502
v 0.019139 0.620764 0.059588
v -0.017131 0.636483 0.050524
v 0.023811 0.605076 0.060270
v 0.033056 0.604507 0.056467
v 0.031722 0.593244 0.055976
v 0.015714 0.610275 0.063990
v 0.020453 0.594111 0.060079
v 0.030315 0.586223 0.054282
v 0.015513 0.601439 0.064456
v -0.001500 0.611197 0.071831
v -0.014393 0.619585 0.065335
v -0.015228 0.610477 0.066850
v -0.025560 0.632522 0.046944
v -0.026014 0.617531 0.055475
v -0.030849 0.628113 0.042626
v -0.035413 0.628610 0.031628
v -0.034636 0.624274 0.023157
v -0.038616 0.620544 0.021304
v -0.038382 0.618878 0.032705
v -0.038257 0.591608 0.026688
v -0.032142 0.615528 0.043245
v -0.025547 0.607671 0.056927
v -0.031194 0.604789 0.041808
v -0.030705 0.599877 0.039963
v -0.015902 0.601850 0.064219
v -0.025717 0.597187 0.052106
v -0.029589 0.581889 0.037044
v -0.031344 0.565601 0.030728
v -0.018858 0.580514 0.048542
v -0.030238 0.555803 0.031266
v -0.026283 0.593600 0.045530
v -0.016744 0.589713 0.057095
v -0.016162 0.592519 0.059492
v -0.001963 0.601364 0.070496
v -0.003300 0.588967 0.064535
v -0.002615 0.593233 0.066948
v 0.015101 0.594612 0.063138
v 0.013847 0.588104 0.060431
v -0.002477 0.578730 0.057543
v 0.012585 0.579744 0.055266
v 0.027969 0.578903 0.050640
v 0.029110 0.539999 0.049019
v -0.003898 0.540381 0.054019
v 0.012813 0.538739 0.054616
v 0.012922 0.489053 0.056389
v 0.034613 0.484884 0.051309
v -0.005227 0.498834 0.056458
v -0.019938 0.514006 0.047997
v -0.017891 0.542909 0.046336
v -0.030234 0.548032 0.030674
v -0.032235 0.525590 0.028234
v -0.008706 0.707055 -0.014585
v -0.001176 0.707786 -0.025163
v -0.009091 0.700322 -0.012031
v -0.008214 0.692423 -0.020786
v 0.009981 0.707755 -0.027121
v -0.011219 0.686886 -0.011257
v 0.004674 0.694009 -0.026954
v -0.018293 0.678717 -0.015752
v -0.016762 0.680440 -0.007088
v -0.025030 0.664960 -0.021975
v -0.005239 0.634343 -0.033992
v -0.039475 0.672475 0.011905
v -0.033162 0.674711 0.019037
v -0.041387 0.659548 -0.005308
v -0.043410 0.669486 0.015351
v -0.037716 0.672359 0.029188
v -0.050618 0.651558 0.012372
v -0.041831 0.625274 -0.008608
v -0.043126 0.632016 0.005079
v -0.033199 0.630237 -0.022063
v -0.020967 0.630933 -0.027780
v -0.018761 0.598354 -0.016140
v -0.006396 0.599102 -0.020463
v -0.032198 0.599050 -0.006939
v -0.042129 0.602950 0.005146
v -0.010118 0.564297 -0.005941
v -0.001835 0.564246 -0.007994
v 0.002708 0.539698 -0.003731
v -0.038616 0.620544 0.021304
v -0.034636 0.624274 0.023157
v -0.038257 0.591608 0.026688
v -0.030529 0.564370 0.013107
v -0.031344 0.565601 0.030728
v -0.030238 0.555803 0.031266
v -0.022288 0.566386 0.001269
v -0.024073 0.541742 0.012241
v -0.030234 0.548032 0.030674
v -0.011699 0.539164 0.000540
v -0.027460 0.523067 0.006400
v -0.032235 0.525590 0.028234
v -0.011585 0.524522 -0.005834
v 0.003864 0.525423 -0.009568
v 0.028264 0.705487 -0.014182
v 0.023297 0.699577 -0.018834
v 0.021055 0.706843 -0.024920
v 0.014159 0.691418 -0.028058
v 0.009981 0.707755 -0.027121
v 0.022819 0.685418 -0.022957
v 0.004674 0.694009 -0.026954
v 0.020447 0.677019 -0.032436
v 0.026583 0.678581 -0.025900
v 0.007614 0.661548 -0.040512
v -0.005239 0.634343 -0.033992
v 0.039043 0.663407 -0.050197
v 0.045648 0.665804 -0.042535
v 0.027306 0.652074 -0.050954
v 0.042832 0.659648 -0.053555
v 0.058611 0.662026 -0.042677
v 0.038273 0.640979 -0.060498
v 0.025101 0.618308 -0.046945
v 0.033831 0.622352 -0.050434
v 0.009500 0.627357 -0.044528
v -0.001643 0.629646 -0.037062
v 0.004383 0.597232 -0.027695
v -0.006396 0.599102 -0.020463
v 0.019817 0.596529 -0.032909
v 0.035718 0.599176 -0.033720
v 0.004673 0.564188 -0.013504
v -0.001835 0.564246 -0.007994
v 0.002708 0.539698 -0.003731
v 0.049544 0.610993 -0.032095
v 0.046621 0.614025 -0.036286
v 0.049037 0.588738 -0.017421
v 0.032011 0.563634 -0.019006
v 0.047056 0.566289 -0.008474
v 0.047260 0.558219 -0.007802
v 0.017610 0.565916 -0.019217
v 0.030726 0.547407 -0.015228
v 0.047688 0.551861 -0.007944
v 0.014615 0.541884 -0.012650
v 0.036835 0.532079 -0.020074
v 0.054614 0.537762 -0.007528
v 0.017195 0.528555 -0.017685
v 0.003864 0.525423 -0.009568
v -0.030669 0.634751 0.045283
v -0.029386 0.615540 0.026261
v -0.034636 0.624274 0.023157
v -0.035746 0.617723 0.046291
v -0.034671 0.579598 0.022971
v -0.051548 0.635754 0.044017
v -0.026232 0.651116 0.044928
v -0.044141 0.578233 0.043279
v -0.043173 0.544420 0.021223
v -0.047167 0.653375 0.045937
v -0.059885 0.628491 0.029443
v -0.031329 0.666890 0.038985
v -0.055013 0.622548 0.041522
v -0.064906 0.585027 0.025235
v -0.051588 0.539471 0.037446
v -0.045616 0.530708 0.021123
v -0.059155 0.581755 0.039840
v -0.050026 0.664204 0.032955
v -0.037716 0.672359 0.029188
v -0.043410 0.669486 0.015351
v -0.056505 0.652372 0.034123
v -0.055025 0.655132 0.021489
v -0.050618 0.651558 0.012372
v -0.056634 0.639440 0.020671
v -0.054820 0.620295 0.016454
v -0.036920 0.626359 0.012076
v -0.045021 0.637671 0.012294
v -0.043126 0.632016 0.005079
v -0.034636 0.624274 0.023157
v -0.029386 0.615540 0.026261
v -0.034671 0.579598 0.022971
v -0.042657 0.577628 0.006827
v -0.059388 0.582846 0.010937
v -0.049347 0.552355 0.006888
v -0.043173 0.544420 0.021223
v -0.062159 0.552236 0.007116
v -0.051416 0.538050 0.004786
v -0.045616 0.530708 0.021123
v -0.065770 0.540882 0.007217
v -0.070294 0.550252 0.022661
v -0.066202 0.541850 0.034416
v -0.074277 0.534490 0.022352
v -0.068340 0.527842 0.010156
v -0.055032 0.525181 0.006858
v -0.067782 0.536785 0.035088
v -0.055857 0.508908 0.009051
v -0.046894 0.508951 0.022682
v -0.070975 0.513212 0.011011
v -0.075367 0.431661 0.018097
v -0.072689 0.433482 0.030135
v -0.085746 0.433417 0.018549
v -0.091129 0.435676 0.027874
v -0.081015 0.517080 0.023779
v -0.087594 0.436981 0.039313
v -0.073706 0.516482 0.038318
v -0.052208 0.532792 0.038037
v -0.046894 0.508951 0.022682
v -0.054377 0.512493 0.040378
v -0.080838 0.436955 0.040755
v -0.072689 0.433482 0.030135
v 0.046621 0.614025 -0.036286
v 0.044622 0.604886 -0.039342
v 0.065784 0.623699 -0.027667
v 0.066446 0.606369 -0.036019
v 0.044618 0.569592 -0.047710
v 0.072842 0.624759 -0.050775
v 0.068228 0.640879 -0.023930
v 0.066225 0.567772 -0.046203
v 0.045482 0.534617 -0.058499
v 0.074260 0.641828 -0.047980
v 0.063428 0.618429 -0.064858
v 0.065896 0.656610 -0.033137
v 0.071787 0.611971 -0.054719
v 0.061829 0.575873 -0.072477
v 0.063689 0.530911 -0.057391
v 0.047744 0.521197 -0.060559
v 0.070841 0.571879 -0.060726
v 0.063134 0.653093 -0.055473
v 0.058611 0.662026 -0.042677
v 0.042832 0.659648 -0.053555
v 0.066022 0.641132 -0.060992
v 0.051725 0.644001 -0.064376
v 0.038273 0.640979 -0.060498
v 0.050528 0.628205 -0.066758
v 0.064702 0.526190 -0.057340
v 0.054236 0.500287 -0.059067
v 0.068500 0.533593 -0.071333
v 0.048877 0.610631 -0.066967
v 0.034777 0.616254 -0.051817
v 0.036593 0.627251 -0.057024
v 0.033831 0.622352 -0.050434
v 0.046621 0.614025 -0.036286
v 0.044622 0.604886 -0.039342
v 0.044618 0.569592 -0.047710
v 0.034582 0.568648 -0.062767
v 0.069878 0.530163 -0.072042
v 0.046635 0.574198 -0.074935
v 0.036169 0.541811 -0.071030
v 0.045482 0.534617 -0.058499
v 0.042941 0.542148 -0.081780
v 0.060208 0.541370 -0.080792
v 0.063226 0.526053 -0.084073
v 0.045632 0.530793 -0.084826
v 0.036455 0.527323 -0.073899
v 0.047744 0.521197 -0.060559
v 0.050965 0.517874 -0.085138
v 0.079569 0.511749 -0.073513
v 0.041655 0.514406 -0.075590
v 0.071673 0.509649 -0.087241
v 0.071722 0.507591 -0.056189
v 0.090608 0.427548 -0.069528
v 0.103844 0.426557 -0.071617
v 0.105217 0.431697 -0.077721
v 0.098345 0.433203 -0.085453
v 0.056845 0.502934 -0.085390
v 0.088500 0.431889 -0.085056
v 0.048076 0.497803 -0.073630
v 0.054236 0.500287 -0.059067
v 0.084248 0.431169 -0.075249
v 0.090608 0.427548 -0.069528
f 1 2 3
f 2 4 3
f 4 2 5
f 4 5 6
f 2 7 5
f 2 8 7
f 9 6 5
f 7 9 5
f 7 8 10
f 11 10 8
f 10 11 12
f 13 12 11
f 10 12 14
f 14 15 10
f 7 10 15
f 15 14 16
f 15 17 7
f 9 7 17
f 16 18 15
f 18 17 15
f 16 19 18
f 20 6 9
f 6 20 21
f 21 20 22
f 22 23 21
f 23 22 24
f 25 24 22
f 26 9 17
f 9 26 20
f 17 18 26
f 22 20 26
f 18 19 27
f 18 27 26
f 27 22 26
f 28 27 19
f 22 29 25
f 22 27 29
f 29 30 25
f 31 25 30
f 32 29 27
f 27 28 32
f 29 32 30
f 33 31 30
f 32 34 30
f 34 33 30
f 28 35 32
f 35 34 32
f 28 36 35
f 37 36 28
f 34 35 38
f 36 38 35
f 36 37 39
f 37 40 39
f 31 33 41
f 42 31 41
f 33 34 43
f 38 43 34
f 43 38 44
f 38 36 45
f 39 45 36
f 38 45 44
f 33 43 46
f 41 33 46
f 44 46 43
f 40 47 39
f 47 40 48
f 48 49 47
f 45 39 50
f 45 50 44
f 50 39 47
f 49 51 47
f 49 52 51
f 50 47 53
f 53 47 51
f 54 44 50
f 53 54 50
f 46 44 55
f 56 44 54
f 44 56 55
f 55 57 46
f 57 41 46
f 57 55 58
f 58 55 56
f 41 57 59
f 58 59 57
f 41 59 60
f 41 60 42
f 60 61 42
f 61 60 62
f 60 63 62
f 60 59 63
f 62 63 64
f 59 58 65
f 63 59 65
f 58 56 66
f 65 58 66
f 63 65 67
f 66 67 65
f 68 64 63
f 68 63 67
f 56 69 66
f 56 54 69
f 70 67 66
f 70 68 67
f 66 69 70
f 71 64 68
f 64 71 72
f 72 71 73
f 74 72 73
f 68 75 71
f 75 68 70
f 71 75 73
f 76 75 70
f 73 75 76
f 77 76 70
f 70 69 77
f 54 78 69
f 54 53 78
f 79 76 77
f 79 73 76
f 77 69 80
f 69 78 80
f 79 77 80
f 81 78 53
f 80 78 81
f 53 51 81
f 80 81 82
f 51 82 81
f 79 80 82
f 52 82 51
f 82 83 79
f 83 73 79
f 82 52 84
f 84 83 82
f 84 52 85
f 85 86 84
f 87 73 83
f 84 87 83
f 88 84 86
f 87 84 88
f 89 88 86
f 86 90 89
f 91 88 89
f 88 91 87
f 92 87 91
f 73 87 93
f 93 87 92
f 73 93 74
f 74 93 94
f 94 93 92
f 92 95 94
f 96 97 98
f 99 98 97
f 97 100 99
f 99 101 98
f 102 99 100
f 103 102 100
f 101 99 104
f 102 104 99
f 104 105 101
f 105 104 106
f 105 106 107
f 104 102 108
f 106 104 108
f 106 109 107
f 110 107 109
f 108 111 106
f 106 111 109
f 109 111 112
f 113 108 102
f 111 108 113
f 103 114 102
f 102 114 113
f 113 115 111
f 112 111 115
f 113 114 116
f 115 113 116
f 117 116 114
f 117 114 103
f 103 118 117
f 119 118 103
f 116 120 115
f 120 112 115
f 112 120 121
f 121 122 112
f 123 112 122
f 112 123 124
f 112 124 109
f 124 123 125
f 126 125 123
f 127 109 124
f 124 125 127
f 109 127 110
f 128 125 126
f 127 125 129
f 129 125 128
f 110 127 130
f 130 127 129
f 110 130 131
f 132 110 131
f 129 133 130
f 131 130 133
f 131 134 132
f 132 134 135
f 126 136 128
f 137 136 126
f 128 138 129
f 133 129 138
f 138 139 133
f 133 140 131
f 134 131 140
f 133 139 140
f 128 141 138
f 136 141 128
f 139 138 141
f 135 134 142
f 142 143 135
f 143 142 144
f 140 145 134
f 140 139 145
f 145 142 134
f 144 142 146
f 144 146 147
f 145 148 142
f 148 146 142
f 149 145 139
f 148 145 149
f 141 150 139
f 151 149 139
f 139 150 151
f 150 141 152
f 152 141 136
f 152 153 150
f 153 151 150
f 136 154 152
f 153 152 154
f 136 155 154
f 136 137 155
f 155 137 156
f 156 157 155
f 155 157 158
f 155 158 154
f 157 159 158
f 154 160 153
f 158 160 154
f 153 161 151
f 160 161 153
f 158 162 160
f 161 160 162
f 163 158 159
f 163 162 158
f 151 161 164
f 151 164 149
f 165 161 162
f 165 162 163
f 161 165 164
f 166 163 159
f 159 167 166
f 167 168 166
f 169 168 167
f 163 166 170
f 170 165 163
f 166 168 170
f 171 165 170
f 168 171 170
f 172 165 171
f 165 172 164
f 149 164 173
f 149 173 148
f 174 172 171
f 174 171 168
f 172 175 164
f 164 175 173
f 174 175 172
f 176 148 173
f 175 176 173
f 148 176 146
f 175 177 176
f 146 176 177
f 174 177 175
f 147 146 177
f 177 174 178
f 178 174 168
f 177 179 147
f 179 177 178
f 179 180 147
f 180 179 181
f 182 178 168
f 179 178 182
f 183 181 179
f 182 183 179
f 184 181 183
f 181 184 185
f 186 184 183
f 183 182 186
f 187 186 182
f 168 188 182
f 188 187 182
f 168 169 188
f 169 189 188
f 189 187 188
f 187 189 190
f 191 192 193
f 192 194 193
f 195 194 192
f 196 193 194
f 195 197 194
f 196 194 198
f 198 199 196
f 197 200 194
f 194 200 198
f 197 201 200
f 199 198 202
f 202 203 199
f 202 198 204
f 200 204 198
f 202 205 203
f 205 202 204
f 206 203 205
f 207 205 204
f 204 208 207
f 209 207 208
f 204 200 210
f 210 208 204
f 201 211 200
f 211 210 200
f 201 212 211
f 210 211 212
f 213 212 201
f 208 210 214
f 210 212 214
f 208 215 209
f 208 214 215
f 213 216 212
f 213 217 216
f 217 218 216
f 209 215 219
f 220 209 219
f 219 215 221
f 221 215 222
f 214 222 215
f 222 223 221
f 222 224 223
f 212 225 214
f 212 216 225
f 222 214 225
f 224 222 226
f 225 226 222
f 226 227 224
f 216 228 225
f 228 216 218
f 226 225 228
f 227 226 229
f 228 229 226
f 229 230 227
f 229 228 231
f 218 231 228
f 231 218 232
f 233 234 235
f 235 234 236
f 237 235 236
f 238 236 234
f 237 236 239
f 238 240 236
f 240 238 241
f 239 236 242
f 236 240 242
f 239 242 243
f 241 244 240
f 244 241 245
f 244 246 240
f 242 240 246
f 244 245 247
f 247 246 244
f 248 247 245
f 249 246 247
f 246 249 250
f 251 250 249
f 246 252 242
f 252 246 250
f 243 242 253
f 253 242 252
f 243 253 254
f 252 254 253
f 255 243 254
f 250 256 252
f 252 256 254
f 250 251 257
f 250 257 256
f 255 254 258
f 255 258 259
f 259 258 260
f 251 261 257
f 262 261 251
f 261 263 257
f 263 264 257
f 256 257 264
f 264 263 265
f 264 265 266
f 254 256 267
f 254 267 258
f 264 267 256
f 266 268 264
f 267 264 268
f 268 266 269
f 258 267 270
f 270 260 258
f 268 270 267
f 269 271 268
f 270 268 271
f 271 269 272
f 271 273 270
f 260 270 273
f 273 274 260
f 275 276 277
f 275 278 276
f 276 278 279
f 280 278 275
f 280 275 281
f 282 279 278
f 282 283 279
f 280 281 284
f 284 285 280
f 284 281 286
f 278 280 287
f 287 282 278
f 285 287 280
f 288 287 285
f 283 282 289
f 289 290 283
f 287 291 282
f 287 288 291
f 291 289 282
f 286 292 284
f 286 293 292
f 294 292 293
f 284 292 295
f 284 295 285
f 296 292 294
f 292 296 295
f 295 296 285
f 297 296 294
f 296 298 285
f 297 298 296
f 285 299 288
f 285 298 299
f 298 300 299
f 297 301 298
f 300 298 301
f 297 302 301
f 300 301 302
f 303 300 302
f 304 300 303
f 305 300 304
f 306 299 300
f 300 305 306
f 307 288 299
f 299 306 307
f 305 308 306
f 308 305 309
f 306 310 307
f 307 310 288
f 310 306 308
f 309 311 308
f 309 312 311
f 308 313 310
f 313 308 311
f 314 288 310
f 314 310 313
f 315 288 314
f 288 315 291
f 289 291 315
f 313 316 314
f 315 314 316
f 311 317 313
f 316 313 317
f 318 311 312
f 317 311 318
f 315 319 289
f 316 319 315
f 312 320 318
f 312 321 320
f 318 322 317
f 318 320 322
f 321 323 320
f 321 324 323
f 320 323 325
f 320 325 322
f 322 325 326
f 317 322 327
f 322 326 327
f 317 327 316
f 327 326 328
f 316 327 329
f 316 329 319
f 327 328 329
f 319 329 330
f 330 289 319
f 289 330 290
f 290 330 331
f 328 332 329
f 332 330 329
f 330 332 331
f 332 328 333
f 332 334 331
f 332 333 334
f 335 336 337
f 337 336 338
f 336 339 338
f 340 337 338
f 340 341 337
f 342 338 339
f 342 339 343
f 340 344 341
f 344 340 345
f 344 346 341
f 338 347 340
f 347 338 342
f 345 340 347
f 348 345 347
f 343 349 342
f 349 343 350
f 347 342 351
f 347 351 348
f 351 342 349
f 346 344 352
f 346 352 353
f 354 353 352
f 344 355 352
f 344 345 355
f 356 354 352
f 352 355 356
f 355 345 356
f 357 354 356
f 356 345 358
f 357 356 358
f 349 350 359
f 350 360 359
f 349 361 351
f 348 351 361
f 345 348 362
f 345 362 358
f 358 362 363
f 357 358 364
f 363 364 358
f 357 364 365
f 363 365 364
f 366 365 363
f 367 366 363
f 368 367 363
f 369 363 362
f 363 369 368
f 359 370 349
f 361 349 370
f 371 362 348
f 362 371 369
f 368 369 372
f 372 373 368
f 369 371 374
f 371 348 374
f 374 372 369
f 361 375 348
f 375 374 348
f 376 361 370
f 361 376 375
f 375 377 374
f 372 374 377
f 377 375 376
f 373 372 378
f 377 378 372
f 373 378 379
f 378 377 380
f 376 380 377
f 376 370 381
f 370 359 381
f 382 379 378
f 380 382 378
f 380 376 383
f 376 381 383
f 384 381 359
f 359 360 384
f 384 360 385
f 384 385 386
f 384 386 387
f 387 381 384
f 383 381 387
f 383 387 388
f 380 383 389
f 389 383 388
f 382 380 389
f 389 388 390
f 379 382 391
f 382 389 391
f 391 389 390
f 379 391 392
f 391 390 393
f 392 391 393
f 392 393 394
