# Pawns/Pawn21/model/Bodyparts/FOrc_m001_b(Clone)  mesh=FOrc_m001_b.mo
v -0.098241 0.001213 0.017288
v -0.060997 0.000060 -0.007307
v -0.058151 -0.000445 0.012152
v -0.099760 0.001629 -0.002348
v -0.084520 0.001373 -0.017177
v 0.104758 0.000369 -0.155726
v 0.074547 -0.000298 -0.130897
v 0.083513 0.000266 -0.154809
v 0.117999 0.000298 -0.141141
v 0.086749 -0.000428 -0.115466
v 0.185944 -0.000554 -0.079070
v 0.174078 -0.000937 -0.045094
v 0.143751 -0.001123 -0.043998
v 0.113526 -0.000395 -0.071438
v 0.159747 0.000260 -0.110102
v 0.096528 0.010082 -0.101259
v 0.131929 0.010572 -0.131046
v 0.084225 0.013546 -0.111726
v 0.119953 0.014560 -0.141114
v 0.119953 0.014560 -0.141114
v 0.084225 0.013546 -0.111726
v 0.086749 -0.000428 -0.115466
v 0.117999 0.000298 -0.141141
v -0.099759 -0.001493 0.109272
v -0.045290 -0.001531 0.102655
v -0.066901 -0.001722 0.123959
v -0.044510 -0.000979 0.061840
v -0.104332 0.000081 0.068940
v -0.054265 0.009706 0.029175
v -0.100198 0.011272 0.034506
v -0.053348 0.013399 0.013099
v -0.099201 0.015480 0.018951
v -0.099201 0.015480 0.018951
v -0.058151 -0.000445 0.012152
v -0.053348 0.013399 0.013099
v -0.098241 0.001213 0.017288
v -0.037009 0.258165 0.080593
v -0.048614 0.272523 0.025571
v -0.051061 0.266869 0.060062
v -0.007391 0.251365 0.088400
v -0.026758 0.268250 0.008666
v 0.011838 0.244516 0.068142
v 0.000176 0.259071 0.010612
v 0.018312 0.247290 0.041946
v -0.026758 0.268250 0.008666
v -0.056288 0.204697 -0.027982
v -0.048614 0.272523 0.025571
v -0.082850 0.208290 -0.000567
v -0.051061 0.266869 0.060062
v -0.086700 0.199574 0.053059
v -0.037009 0.258165 0.080593
v -0.064667 0.188425 0.074288
v -0.007391 0.251365 0.088400
v -0.031404 0.176499 0.079644
v 0.011838 0.244516 0.068142
v -0.006533 0.171939 0.060200
v 0.018312 0.247290 0.041946
v 0.004696 0.175051 0.027147
v 0.000176 0.259071 0.010612
v -0.019252 0.192053 -0.021386
v -0.026758 0.268250 0.008666
v -0.056288 0.204697 -0.027982
v 0.100572 0.272959 -0.106551
v 0.127516 0.271765 -0.113917
v 0.077385 0.209551 -0.147732
v 0.115256 0.205816 -0.152409
v 0.155114 0.262225 -0.094555
v 0.158205 0.191051 -0.122346
v 0.161459 0.253885 -0.070370
v 0.159966 0.181564 -0.091245
v 0.147997 0.250295 -0.043196
v 0.142476 0.174829 -0.060813
v 0.120462 0.249898 -0.038266
v 0.111707 0.176505 -0.052577
v 0.096513 0.256419 -0.049210
v 0.079621 0.184860 -0.063933
v 0.084611 0.268223 -0.083393
v 0.058525 0.202609 -0.113510
v 0.100572 0.272959 -0.106551
v 0.077385 0.209551 -0.147732
v 0.161459 0.253885 -0.070370
v 0.155114 0.262225 -0.094555
v 0.127516 0.271765 -0.113917
v 0.147997 0.250295 -0.043196
v 0.100572 0.272959 -0.106551
v 0.120462 0.249898 -0.038266
v 0.084611 0.268223 -0.083393
v 0.096513 0.256419 -0.049210
v -0.071107 0.160811 -0.043934
v -0.037880 0.239972 -0.001413
v -0.028241 0.146447 -0.040191
v -0.011221 0.230820 0.000503
v -0.009965 0.135841 0.016113
v 0.006735 0.219126 0.031537
v -0.010881 0.130072 0.049714
v 0.000333 0.216407 0.057491
v -0.044327 0.136022 0.071383
v -0.021049 0.220757 0.072010
v -0.086315 0.150930 0.063287
v -0.048013 0.230046 0.069846
v -0.104261 0.161057 0.040278
v -0.063382 0.238807 0.049878
v -0.104928 0.165984 -0.015447
v -0.060726 0.244107 0.016758
v -0.071107 0.160811 -0.043934
v -0.037880 0.239972 -0.001413
v 0.093980 0.244432 -0.119502
v 0.122479 0.242807 -0.126875
v 0.065478 0.165716 -0.166083
v 0.108744 0.162215 -0.175972
v 0.149184 0.233723 -0.108534
v 0.151390 0.151696 -0.141322
v 0.154301 0.225603 -0.083643
v 0.157142 0.142348 -0.112450
v 0.138475 0.220742 -0.060321
v 0.136144 0.133852 -0.073238
v 0.113676 0.221534 -0.051879
v 0.098331 0.135819 -0.059461
v 0.089950 0.227963 -0.062728
v 0.072354 0.145124 -0.079505
v 0.078163 0.239680 -0.096581
v 0.040631 0.158352 -0.128853
v 0.093980 0.244432 -0.119502
v 0.065478 0.165716 -0.166083
v -0.044619 0.209049 0.001675
v -0.087086 0.111503 -0.066905
v -0.064030 0.213037 0.013442
v -0.120945 0.119770 -0.035285
v -0.066707 0.208083 0.043657
v -0.119806 0.120279 0.029922
v -0.052227 0.199430 0.064601
v -0.099329 0.113388 0.058451
v -0.030680 0.192946 0.061910
v -0.056668 0.098058 0.066703
v -0.005088 0.186152 0.054408
v -0.023798 0.092771 0.041090
v -0.002955 0.190562 0.027631
v -0.021368 0.092262 0.008267
v -0.012191 0.197962 0.004588
v -0.040603 0.099709 -0.058870
v -0.044619 0.209049 0.001675
v -0.087086 0.111503 -0.066905
v 0.094714 0.212669 -0.120814
v 0.116120 0.212135 -0.129338
v 0.048435 0.115595 -0.190226
v 0.094764 0.116218 -0.197635
v 0.140609 0.203689 -0.112798
v 0.144890 0.110206 -0.157073
v 0.147037 0.195427 -0.088028
v 0.154101 0.103877 -0.123076
v 0.131077 0.192923 -0.072136
v 0.132753 0.095062 -0.083206
v 0.108892 0.191286 -0.055934
v 0.092289 0.097994 -0.072322
v 0.087333 0.198750 -0.070782
v 0.064889 0.101314 -0.090257
v 0.075941 0.206873 -0.092584
v 0.024628 0.110087 -0.148066
v 0.094714 0.212669 -0.120814
v 0.048435 0.115595 -0.190226
v -0.099824 0.051937 -0.078115
v -0.060491 0.166349 -0.011380
v -0.053236 0.044301 -0.069605
v -0.028989 0.155801 -0.009702
v -0.031332 0.053261 0.000142
v -0.018343 0.145671 0.022085
v -0.035664 0.062128 0.045239
v -0.022299 0.143487 0.040143
v -0.071264 0.074261 0.064766
v -0.044812 0.147245 0.058541
v -0.113423 0.080189 0.053134
v -0.072639 0.157583 0.051411
v -0.138836 0.078419 0.017142
v -0.084942 0.163920 0.039062
v -0.134998 0.063785 -0.050305
v -0.082322 0.168769 0.009491
v -0.099824 0.051937 -0.078115
v -0.060491 0.166349 -0.011380
v 0.043301 0.053230 -0.205901
v 0.019030 0.049970 -0.164447
v 0.085926 0.169521 -0.138326
v 0.066822 0.164228 -0.111615
v 0.058226 0.058236 -0.102869
v 0.083781 0.152753 -0.083207
v 0.095613 0.064037 -0.077729
v 0.099943 0.148076 -0.075244
v 0.134334 0.073772 -0.091622
v 0.128356 0.146112 -0.082189
v 0.154175 0.077215 -0.131035
v 0.140965 0.152377 -0.109278
v 0.142489 0.071759 -0.175102
v 0.139612 0.157835 -0.126952
v 0.087934 0.060349 -0.215260
v 0.115644 0.166102 -0.143140
v 0.043301 0.053230 -0.205901
v 0.085926 0.169521 -0.138326
v -0.040138 0.118475 0.038105
v -0.057136 0.121486 0.051294
v -0.069454 0.085846 0.048785
v -0.054911 0.086449 0.034438
v -0.047320 0.128702 -0.001445
v -0.055080 0.071939 0.039928
v -0.070289 0.071762 0.055790
v -0.059536 0.091850 -0.006211
v -0.066670 0.135225 -0.004733
v -0.079922 0.094095 -0.011109
v -0.059809 0.075530 -0.010260
v -0.081205 0.077349 -0.018269
v -0.049479 0.043939 0.070395
v -0.071903 0.052109 0.076824
v -0.051573 0.044652 0.030939
v -0.059448 0.014676 -0.013871
v -0.084668 0.016710 -0.023064
v -0.060997 0.000060 -0.007307
v -0.084520 0.001373 -0.017177
v -0.058151 -0.000445 0.012152
v -0.053348 0.013399 0.013099
v -0.054265 0.009706 0.029175
v -0.043828 0.016461 0.063849
v -0.044510 -0.000979 0.061840
v -0.044102 0.016666 0.103957
v -0.045290 -0.001531 0.102655
v -0.066901 -0.001722 0.123959
v -0.066748 0.014785 0.125884
v -0.051433 0.039501 0.105821
v -0.069063 0.043061 0.108549
v -0.079228 0.128565 0.045174
v -0.069454 0.085846 0.048785
v -0.057136 0.121486 0.051294
v -0.089541 0.088435 0.040878
v -0.083640 0.137216 0.009146
v -0.091782 0.073716 0.044889
v -0.070289 0.071762 0.055790
v -0.096569 0.093960 0.000829
v -0.066670 0.135225 -0.004733
v -0.079922 0.094095 -0.011109
v -0.099324 0.077396 -0.004134
v -0.081205 0.077349 -0.018269
v -0.097399 0.044694 0.076233
v -0.071903 0.052109 0.076824
v -0.101122 0.047041 0.038802
v -0.101667 0.016605 -0.008501
v -0.084668 0.016710 -0.023064
v -0.099760 0.001629 -0.002348
v -0.084520 0.001373 -0.017177
v -0.098241 0.001213 0.017288
v -0.099201 0.015480 0.018951
v -0.100198 0.011272 0.034506
v -0.104648 0.017951 0.071195
v -0.104332 0.000081 0.068940
v -0.099786 0.016311 0.110365
v -0.099759 -0.001493 0.109272
v -0.066901 -0.001722 0.123959
v -0.066748 0.014785 0.125884
v -0.093279 0.039202 0.111315
v -0.069063 0.043061 0.108549
v -0.040138 0.118475 0.038105
v -0.057136 0.121486 0.051294
v -0.070684 0.079305 0.059306
v -0.047237 0.076315 0.043369
v -0.071295 0.063880 0.067537
v -0.051644 0.058346 0.051290
v -0.041341 0.077994 0.011100
v -0.047320 0.128702 -0.001445
v -0.037855 0.059236 0.005798
v -0.047323 0.038713 0.033586
v -0.033309 0.032226 0.009860
v -0.053129 0.080973 -0.017422
v -0.066670 0.135225 -0.004733
v -0.081583 0.085105 -0.026075
v -0.051560 0.065817 -0.024461
v -0.047862 0.022255 -0.025450
v -0.083230 0.069163 -0.032725
v -0.083443 0.020376 -0.035196
v -0.079228 0.128565 0.045174
v -0.070684 0.079305 0.059306
v -0.057136 0.121486 0.051294
v -0.097421 0.083480 0.046608
v -0.071295 0.063880 0.067537
v -0.095334 0.061311 0.055502
v -0.111450 0.089619 0.025004
v -0.083640 0.137216 0.009146
v -0.120171 0.069188 0.019936
v -0.105935 0.042668 0.040349
v -0.128838 0.034998 0.019385
v -0.106438 0.091749 -0.006304
v -0.066670 0.135225 -0.004733
v -0.081583 0.085105 -0.026075
v -0.112591 0.070791 -0.015855
v -0.117382 0.025162 -0.015882
v -0.083230 0.069163 -0.032725
v -0.083443 0.020376 -0.035196
v 0.134607 0.123477 -0.116256
v 0.125165 0.119562 -0.094551
v 0.122452 0.084699 -0.102018
v 0.129666 0.085578 -0.122610
v 0.110372 0.134976 -0.142194
v 0.133351 0.072163 -0.120195
v 0.126949 0.071426 -0.096813
v 0.104658 0.091903 -0.154296
v 0.089100 0.137283 -0.137023
v 0.085024 0.094149 -0.149372
v 0.102469 0.075777 -0.158825
v 0.079981 0.076942 -0.154816
v 0.160147 0.045024 -0.100698
v 0.143053 0.052657 -0.081851
v 0.101679 0.015194 -0.161769
v 0.079422 0.015500 -0.159400
v 0.133755 0.045172 -0.130148
v 0.104758 0.000369 -0.155726
v 0.083513 0.000266 -0.154809
v 0.117999 0.000298 -0.141141
v 0.119953 0.014560 -0.141114
v 0.131929 0.010572 -0.131046
v 0.161545 0.018157 -0.109043
v 0.159747 0.000260 -0.110102
v 0.186536 0.017259 -0.078338
v 0.185944 -0.000554 -0.079070
v 0.174078 -0.000937 -0.045094
v 0.175167 0.015586 -0.043658
v 0.182475 0.040100 -0.072950
v 0.163796 0.043724 -0.057235
v 0.104234 0.120801 -0.088869
v 0.122452 0.084699 -0.102018
v 0.125165 0.119562 -0.094551
v 0.102407 0.087293 -0.100289
v 0.079137 0.133754 -0.119245
v 0.105140 0.072652 -0.096136
v 0.126949 0.071426 -0.096813
v 0.075394 0.093757 -0.130527
v 0.089100 0.137283 -0.137023
v 0.085024 0.094149 -0.149372
v 0.071521 0.076357 -0.133449
v 0.079981 0.076942 -0.154816
v 0.123012 0.044592 -0.069830
v 0.143053 0.052657 -0.081851
v 0.068796 0.014248 -0.134698
v 0.079422 0.015500 -0.159400
v 0.094812 0.045852 -0.098448
v 0.074547 -0.000298 -0.130897
v 0.083513 0.000266 -0.154809
v 0.086749 -0.000428 -0.115466
v 0.084225 0.013546 -0.111726
v 0.096528 0.010082 -0.101259
v 0.114461 0.017078 -0.069814
v 0.113526 -0.000395 -0.071438
v 0.143656 0.017074 -0.042237
v 0.143751 -0.001123 -0.043998
v 0.174078 -0.000937 -0.045094
v 0.175167 0.015586 -0.043658
v 0.149758 0.039987 -0.046286
v 0.163796 0.043724 -0.057235
v 0.104234 0.120801 -0.088869
v 0.130182 0.078861 -0.095055
v 0.125165 0.119562 -0.094551
v 0.102665 0.077440 -0.088169
v 0.135873 0.063441 -0.089367
v 0.110532 0.059270 -0.085411
v 0.075335 0.081211 -0.104673
v 0.079137 0.133754 -0.119245
v 0.067252 0.063263 -0.104479
v 0.093629 0.040190 -0.093270
v 0.068233 0.032821 -0.099925
v 0.062069 0.082223 -0.133500
v 0.089100 0.137283 -0.137023
v 0.074875 0.084684 -0.160644
v 0.055078 0.067332 -0.136438
v 0.052469 0.021935 -0.134437
v 0.070276 0.068816 -0.165683
v 0.069778 0.019007 -0.166938
v 0.134607 0.123477 -0.116256
v 0.125165 0.119562 -0.094551
v 0.130182 0.078861 -0.095055
v 0.138533 0.079688 -0.124633
v 0.135873 0.063441 -0.089367
v 0.142909 0.059545 -0.115221
v 0.131928 0.085202 -0.149697
v 0.110372 0.134976 -0.142194
v 0.133677 0.066169 -0.157869
v 0.137882 0.040528 -0.132515
v 0.140717 0.033328 -0.162933
v 0.105418 0.089026 -0.166343
v 0.089100 0.137283 -0.137023
v 0.074875 0.084684 -0.160644
v 0.102353 0.068520 -0.176289
v 0.107142 0.023235 -0.178507
v 0.070276 0.068816 -0.165683
v 0.069778 0.019007 -0.166938
f 1 2 3
f 1 4 2
f 4 5 2
f 6 7 8
f 9 7 6
f 9 10 7
f 11 12 13
f 11 13 14
f 11 14 15
f 16 15 14
f 16 17 15
f 18 17 16
f 18 19 17
f 20 21 22
f 22 23 20
f 24 25 26
f 24 27 25
f 24 28 27
f 29 27 28
f 29 28 30
f 31 29 30
f 31 30 32
f 33 34 35
f 34 33 36
f 37 38 39
f 37 40 38
f 38 40 41
f 41 40 42
f 43 41 42
f 43 42 44
f 45 46 47
f 48 47 46
f 47 48 49
f 50 49 48
f 49 50 51
f 52 51 50
f 51 52 53
f 54 53 52
f 53 54 55
f 56 55 54
f 55 56 57
f 58 57 56
f 57 58 59
f 60 59 58
f 59 60 61
f 62 61 60
f 63 64 65
f 66 65 64
f 64 67 66
f 68 66 67
f 67 69 68
f 70 68 69
f 69 71 70
f 72 70 71
f 71 73 72
f 74 72 73
f 73 75 74
f 76 74 75
f 75 77 76
f 78 76 77
f 77 79 78
f 80 78 79
f 81 82 83
f 81 83 84
f 83 85 84
f 85 86 84
f 87 86 85
f 87 88 86
f 89 90 91
f 92 91 90
f 91 92 93
f 94 93 92
f 93 94 95
f 96 95 94
f 95 96 97
f 98 97 96
f 97 98 99
f 100 99 98
f 99 100 101
f 102 101 100
f 101 102 103
f 104 103 102
f 103 104 105
f 106 105 104
f 107 108 109
f 110 109 108
f 108 111 110
f 112 110 111
f 111 113 112
f 114 112 113
f 113 115 114
f 116 114 115
f 115 117 116
f 118 116 117
f 117 119 118
f 120 118 119
f 119 121 120
f 122 120 121
f 121 123 122
f 124 122 123
f 125 126 127
f 128 127 126
f 127 128 129
f 130 129 128
f 129 130 131
f 132 131 130
f 131 132 133
f 134 133 132
f 133 134 135
f 136 135 134
f 135 136 137
f 138 137 136
f 137 138 139
f 140 139 138
f 139 140 141
f 142 141 140
f 143 144 145
f 146 145 144
f 144 147 146
f 148 146 147
f 147 149 148
f 150 148 149
f 149 151 150
f 152 150 151
f 151 153 152
f 154 152 153
f 153 155 154
f 156 154 155
f 155 157 156
f 158 156 157
f 157 159 158
f 160 158 159
f 161 162 163
f 164 163 162
f 163 164 165
f 166 165 164
f 165 166 167
f 168 167 166
f 167 168 169
f 170 169 168
f 169 170 171
f 172 171 170
f 171 172 173
f 174 173 172
f 173 174 175
f 176 175 174
f 175 176 177
f 178 177 176
f 179 180 181
f 182 181 180
f 180 183 182
f 184 182 183
f 183 185 184
f 186 184 185
f 185 187 186
f 188 186 187
f 187 189 188
f 190 188 189
f 189 191 190
f 192 190 191
f 191 193 192
f 194 192 193
f 193 195 194
f 196 194 195
f 197 198 199
f 199 200 197
f 201 197 200
f 199 202 200
f 202 199 203
f 200 204 201
f 205 201 204
f 204 206 205
f 200 207 204
f 206 204 207
f 207 200 202
f 207 208 206
f 202 203 209
f 203 210 209
f 207 202 211
f 202 209 211
f 208 207 212
f 211 212 207
f 212 213 208
f 214 213 212
f 213 214 215
f 212 216 214
f 216 212 217
f 212 211 217
f 218 217 211
f 219 218 211
f 211 209 219
f 218 219 220
f 221 220 219
f 219 209 221
f 220 221 222
f 221 223 222
f 224 223 221
f 221 209 225
f 225 224 221
f 209 210 225
f 226 224 225
f 226 225 210
f 227 228 229
f 228 227 230
f 231 230 227
f 228 230 232
f 232 233 228
f 230 231 234
f 235 234 231
f 234 235 236
f 230 234 237
f 236 237 234
f 237 232 230
f 237 236 238
f 232 239 233
f 233 239 240
f 237 241 232
f 232 241 239
f 238 242 237
f 241 237 242
f 242 238 243
f 244 242 243
f 243 245 244
f 242 244 246
f 246 247 242
f 242 247 241
f 248 241 247
f 249 241 248
f 241 249 239
f 248 250 249
f 251 249 250
f 249 251 239
f 250 252 251
f 251 252 253
f 254 251 253
f 251 255 239
f 255 251 254
f 239 255 240
f 256 255 254
f 256 240 255
f 257 258 259
f 259 260 257
f 261 260 259
f 260 261 262
f 260 263 257
f 264 257 263
f 262 265 260
f 260 265 263
f 265 262 266
f 266 267 265
f 263 268 264
f 263 265 268
f 269 264 268
f 268 270 269
f 265 267 271
f 268 265 271
f 268 271 270
f 271 267 272
f 270 271 273
f 271 272 274
f 273 271 274
f 275 276 277
f 276 275 278
f 279 276 278
f 278 280 279
f 278 275 281
f 282 281 275
f 280 278 283
f 278 281 283
f 283 284 280
f 284 283 285
f 281 282 286
f 281 286 283
f 287 286 282
f 286 287 288
f 283 289 285
f 286 289 283
f 286 288 289
f 289 290 285
f 288 291 289
f 289 292 290
f 291 292 289
f 293 294 295
f 295 296 293
f 297 293 296
f 295 298 296
f 298 295 299
f 296 300 297
f 301 297 300
f 300 302 301
f 296 303 300
f 302 300 303
f 303 296 298
f 303 304 302
f 298 299 305
f 299 306 305
f 304 303 307
f 307 308 304
f 303 298 309
f 298 305 309
f 309 307 303
f 310 308 307
f 308 310 311
f 307 312 310
f 312 307 313
f 307 309 313
f 314 313 309
f 315 314 309
f 309 305 315
f 314 315 316
f 317 316 315
f 315 305 317
f 316 317 318
f 317 319 318
f 320 319 317
f 317 305 321
f 321 320 317
f 305 306 321
f 322 320 321
f 322 321 306
f 323 324 325
f 324 323 326
f 327 326 323
f 324 326 328
f 328 329 324
f 326 327 330
f 331 330 327
f 330 331 332
f 326 330 333
f 332 333 330
f 333 328 326
f 333 332 334
f 328 335 329
f 329 335 336
f 334 337 333
f 337 334 338
f 333 339 328
f 328 339 335
f 339 333 337
f 340 337 338
f 338 341 340
f 337 340 342
f 342 343 337
f 337 343 339
f 344 339 343
f 345 339 344
f 339 345 335
f 344 346 345
f 347 345 346
f 345 347 335
f 346 348 347
f 347 348 349
f 350 347 349
f 347 351 335
f 351 347 350
f 335 351 336
f 352 351 350
f 352 336 351
f 353 354 355
f 354 353 356
f 357 354 356
f 356 358 357
f 356 353 359
f 360 359 353
f 358 356 361
f 356 359 361
f 361 362 358
f 362 361 363
f 359 360 364
f 359 364 361
f 365 364 360
f 364 365 366
f 361 367 363
f 364 367 361
f 364 366 367
f 367 368 363
f 366 369 367
f 367 370 368
f 369 370 367
f 371 372 373
f 373 374 371
f 375 374 373
f 374 375 376
f 374 377 371
f 378 371 377
f 376 379 374
f 374 379 377
f 379 376 380
f 380 381 379
f 377 382 378
f 377 379 382
f 383 378 382
f 382 384 383
f 379 381 385
f 382 379 385
f 382 385 384
f 385 381 386
f 384 385 387
f 385 386 388
f 387 385 388
