# Pawns/Pawn11/model/Bodyparts/FMagic_m002_l(Clone)  mesh=FMagic_m002_l.mo
v 0.006174 0.524206 -0.004184
v -0.001383 0.528773 -0.021012
v -0.001530 0.523357 0.000163
v -0.018507 0.526702 -0.012030
v -0.011335 0.525852 0.010222
v -0.023207 0.509927 -0.017809
v -0.003828 0.512548 -0.028941
v -0.035569 0.527317 0.007384
v -0.013747 0.524138 0.026525
v -0.037467 0.492442 -0.026304
v -0.009902 0.492454 -0.043118
v -0.039171 0.511176 0.004398
v -0.049695 0.494276 0.002272
v -0.040025 0.511926 0.033958
v -0.048018 0.497043 0.037685
v -0.039136 0.527299 0.032753
v -0.004487 0.516676 0.038835
v -0.022663 0.518588 0.051653
v 0.004690 0.507260 0.044942
v -0.024596 0.503159 0.055327
v -0.032175 0.489775 0.061555
v -0.016204 0.480166 0.070845
v -0.006704 0.507667 0.062906
v 0.017997 0.500660 0.045842
v -0.008883 0.494021 0.064285
v 0.004603 0.465187 0.074585
v 0.012434 0.497974 0.066115
v 0.028805 0.502238 0.043355
v 0.035823 0.496968 0.062720
v 0.008987 0.483771 0.068867
v 0.039186 0.466989 0.071286
v 0.036126 0.483065 0.066728
v 0.006174 0.524206 -0.004184
v 0.014639 0.525639 -0.006479
v -0.001383 0.528773 -0.021012
v 0.017004 0.531715 -0.026618
v 0.027691 0.531361 -0.005810
v 0.017507 0.516387 -0.034842
v -0.003828 0.512548 -0.028941
v 0.041921 0.538257 -0.024449
v 0.041012 0.531869 0.004029
v 0.044392 0.521842 -0.028812
v 0.021030 0.499523 -0.050320
v -0.009902 0.492454 -0.043118
v 0.050872 0.505269 -0.037108
v 0.067624 0.527210 -0.009620
v 0.078794 0.515258 -0.015246
v 0.061895 0.541563 -0.008751
v 0.044974 0.523659 0.018516
v 0.066828 0.530042 0.015252
v 0.045168 0.512975 0.028313
v 0.073775 0.514060 0.015521
v 0.085611 0.502594 0.013320
v 0.079970 0.489853 0.033001
v 0.063955 0.516051 0.034238
v 0.038275 0.503523 0.037511
v 0.069418 0.502699 0.034590
v 0.067102 0.473394 0.054141
v 0.054537 0.504297 0.049812
v 0.028805 0.502238 0.043355
v 0.035823 0.496968 0.062720
v 0.057831 0.491020 0.052147
v 0.039186 0.466989 0.071286
v 0.036126 0.483065 0.066728
v 0.003864 0.525423 -0.009568
v 0.002997 0.501750 -0.018315
v -0.011585 0.524522 -0.005834
v -0.016209 0.500079 -0.011076
v -0.027460 0.523067 0.006400
v 0.003374 0.479752 -0.025628
v -0.033387 0.498286 0.005709
v -0.032235 0.525590 0.028234
v -0.034461 0.495953 0.029211
v -0.040777 0.476154 0.006046
v -0.041942 0.460641 0.034899
v -0.031980 0.474564 -0.008881
v -0.044700 0.448191 0.005656
v -0.044451 0.417225 0.043577
v -0.044107 0.414904 0.012720
v -0.034028 0.444379 -0.011474
v -0.032557 0.416932 -0.004930
v -0.015624 0.476119 -0.020059
v -0.014924 0.458052 -0.024021
v 0.005679 0.457623 -0.028315
v -0.014554 0.438656 -0.021030
v -0.010591 0.419697 -0.011160
v -0.001184 0.437179 -0.023596
v 0.009138 0.443963 -0.019843
v 0.008709 0.419600 -0.006334
v 0.015995 0.434717 -0.006179
v 0.003864 0.525423 -0.009568
v 0.017195 0.528556 -0.017685
v 0.002997 0.501750 -0.018315
v 0.021401 0.505879 -0.026582
v 0.036835 0.532079 -0.020074
v 0.003374 0.479752 -0.025628
v 0.045060 0.510382 -0.026635
v 0.054614 0.537763 -0.007528
v 0.064791 0.511257 -0.011711
v 0.055769 0.491945 -0.033667
v 0.080115 0.476600 -0.016365
v 0.040373 0.487357 -0.038238
v 0.064263 0.464457 -0.040142
v 0.080452 0.429938 -0.018759
v 0.062354 0.432883 -0.037847
v 0.044591 0.459597 -0.044410
v 0.045381 0.434484 -0.040729
v 0.020736 0.481953 -0.035056
v 0.021860 0.465358 -0.038985
v 0.005679 0.457623 -0.028315
v 0.026414 0.449185 -0.037999
v 0.031041 0.432183 -0.029487
v 0.016734 0.443382 -0.030826
v 0.009138 0.443963 -0.019843
v 0.023361 0.428372 -0.012826
v 0.015995 0.434717 -0.006179
v -0.020072 0.513964 0.047923
v -0.032363 0.525526 0.028142
v -0.037422 0.510264 0.033240
v -0.023456 0.503701 0.052405
v -0.041842 0.498826 0.035815
v -0.005351 0.498814 0.056403
v -0.027443 0.490988 0.057858
v -0.051404 0.466746 0.042440
v -0.012787 0.470722 0.067572
v 0.012811 0.489055 0.056355
v -0.034726 0.464713 0.063377
v -0.054168 0.451318 0.045361
v 0.007757 0.461214 0.069787
v 0.034514 0.484910 0.051297
v 0.037757 0.461841 0.067924
v 0.039797 0.444999 0.071096
v -0.036326 0.450637 0.066166
v -0.058222 0.416894 0.048187
v -0.040314 0.418962 0.070447
v -0.015571 0.451080 0.072757
v -0.021447 0.418727 0.078830
v 0.005183 0.442645 0.073364
v 0.000875 0.417800 0.078528
v 0.042477 0.419611 0.075045
v 0.054506 0.537790 -0.007544
v 0.062536 0.525627 0.013987
v 0.066205 0.524818 -0.008043
v 0.069934 0.515037 0.014622
v 0.073543 0.515330 -0.011093
v 0.061949 0.508315 0.028756
v 0.079642 0.502748 0.014805
v 0.092421 0.487687 -0.017722
v 0.076671 0.479895 0.034165
v 0.051838 0.494565 0.040322
v 0.092467 0.478225 0.012146
v 0.100569 0.473804 -0.019537
v 0.061842 0.468809 0.053923
v 0.034514 0.484910 0.051297
v 0.037757 0.461841 0.067924
v 0.039797 0.444999 0.071096
v 0.097594 0.465341 0.012705
v 0.111158 0.440447 -0.020712
v 0.106864 0.435012 0.013913
v 0.084545 0.461734 0.036097
v 0.096229 0.431117 0.037421
v 0.068159 0.450895 0.055774
v 0.077447 0.426977 0.057818
v 0.042477 0.419611 0.075045
v 0.035219 0.433029 0.037089
v 0.038042 0.435874 0.035906
v 0.038161 0.449842 0.047558
v 0.053830 0.453084 0.039400
v 0.034613 0.484884 0.051309
v 0.051937 0.494521 0.040324
v 0.056390 0.447352 0.036597
v 0.037372 0.431640 0.032005
v 0.066869 0.475168 0.026805
v 0.062054 0.508263 0.028754
v 0.073642 0.456517 0.027668
v 0.067665 0.502707 0.007833
v 0.062649 0.525581 0.013991
v 0.054614 0.537763 -0.007528
v 0.064791 0.511257 -0.011711
v 0.084949 0.470726 0.008206
v 0.087485 0.437610 0.008046
v 0.080115 0.476600 -0.016365
v 0.080452 0.429938 -0.018759
v 0.035219 0.433029 0.037089
v 0.038161 0.449842 0.047558
v 0.032143 0.429952 0.038176
v 0.021090 0.446237 0.052615
v 0.034613 0.484884 0.051309
v 0.012922 0.489053 0.056389
v 0.018021 0.440012 0.052446
v 0.030498 0.425330 0.034944
v -0.002059 0.465508 0.055188
v -0.005227 0.498834 0.056458
v -0.002627 0.446121 0.060539
v -0.023785 0.488487 0.049680
v -0.019938 0.514006 0.047997
v -0.032235 0.525590 0.028234
v -0.034461 0.495953 0.029211
v -0.026105 0.458824 0.055790
v -0.026963 0.426991 0.062320
v -0.041942 0.460641 0.034899
v -0.044451 0.417225 0.043577
v 0.066205 0.524818 -0.008043
v 0.036745 0.532079 -0.020104
v 0.054506 0.537790 -0.007544
v 0.043985 0.520062 -0.024934
v 0.052011 0.506752 -0.030713
v 0.073543 0.515330 -0.011093
v 0.092421 0.487687 -0.017722
v 0.019006 0.515664 -0.030079
v 0.017108 0.528533 -0.017732
v 0.003772 0.525388 -0.009626
v -0.001020 0.511773 -0.022008
v 0.022900 0.501558 -0.043218
v -0.006044 0.495120 -0.036719
v 0.030894 0.482183 -0.061004
v -0.011866 0.475575 -0.050109
v 0.062140 0.483920 -0.044119
v 0.100569 0.473804 -0.019537
v 0.033694 0.466049 -0.065793
v -0.014295 0.458858 -0.059057
v -0.015666 0.418388 -0.058819
v 0.037235 0.423218 -0.068463
v 0.067148 0.467407 -0.047325
v 0.076481 0.427085 -0.049709
v 0.111158 0.440447 -0.020712
v -0.027565 0.523000 0.006315
v -0.037422 0.510264 0.033240
v -0.032363 0.525526 0.028142
v -0.035759 0.509760 0.006622
v -0.045851 0.495807 0.007577
v -0.041842 0.498826 0.035815
v -0.051404 0.466746 0.042440
v -0.021122 0.508968 -0.013477
v -0.011680 0.524469 -0.005906
v 0.003772 0.525388 -0.009626
v -0.001020 0.511773 -0.022008
v -0.031602 0.493820 -0.020574
v -0.006044 0.495120 -0.036719
v -0.049816 0.473440 -0.028576
v -0.011866 0.475575 -0.050109
v -0.058880 0.470977 0.004000
v -0.054168 0.451318 0.045361
v -0.054776 0.457199 -0.030016
v -0.014295 0.458858 -0.059057
v -0.015666 0.418388 -0.058819
v -0.061264 0.416816 -0.027095
v -0.063095 0.455065 0.003787
v -0.068995 0.415319 0.007038
v -0.058222 0.416894 0.048187
v -0.013717 0.131110 -0.007835
v -0.023175 0.081274 -0.024536
v -0.029960 0.085677 -0.033472
v -0.020888 0.134308 -0.019145
v -0.037217 0.136258 -0.020988
v -0.034744 0.181138 -0.012526
v -0.040159 0.088710 -0.034291
v -0.049658 0.086526 -0.024876
v -0.015986 0.177729 -0.011613
v -0.000810 0.184262 0.008794
v -0.047833 0.134203 -0.010181
v -0.048631 0.081969 -0.014950
v -0.010845 0.201433 -0.004906
v 0.008273 0.241892 0.033776
v -0.046432 0.131126 0.004676
v -0.041486 0.077087 -0.004654
v -0.048844 0.179353 0.002448
v -0.036741 0.125514 0.013470
v -0.029109 0.075428 -0.004368
v -0.043970 0.185126 0.028173
v -0.047190 0.201849 0.012098
v -0.031560 0.208359 -0.003035
v -0.001903 0.248997 0.019034
v -0.000139 0.254652 0.021548
v 0.011643 0.262123 0.037023
v -0.018251 0.253130 0.020499
v -0.031050 0.249459 0.031527
v 0.007966 0.296055 0.019724
v 0.015751 0.307148 0.029943
v 0.006260 0.360866 0.000551
v 0.020866 0.360582 0.022934
v 0.021651 0.417537 0.010699
v 0.008709 0.419600 -0.006334
v -0.010591 0.419697 -0.011160
v -0.028809 0.243630 0.048695
v -0.016592 0.257184 0.021935
v -0.029338 0.255568 0.033744
v -0.027518 0.365939 0.000961
v -0.032557 0.416932 -0.004930
v -0.044107 0.414904 0.012720
v -0.016973 0.296246 0.017430
v -0.043542 0.367602 0.022821
v -0.044451 0.417225 0.043577
v -0.031735 0.297328 0.034228
v -0.042015 0.367829 0.047761
v -0.025989 0.264413 0.054341
v -0.024723 0.381398 0.070137
v -0.026963 0.426991 0.062320
v -0.030800 0.303788 0.051143
v 0.001943 0.386239 0.070844
v -0.002627 0.446121 0.060539
v 0.018021 0.440012 0.052446
v -0.015800 0.312151 0.071394
v 0.020855 0.379185 0.057232
v 0.030498 0.425330 0.034944
v 0.003677 0.317585 0.074257
v -0.012772 0.268381 0.069564
v -0.014450 0.248331 0.068663
v 0.024260 0.368655 0.037894
v 0.021651 0.417537 0.010699
v 0.020866 0.360582 0.022934
v 0.015751 0.307148 0.029943
v 0.018173 0.314323 0.056118
v 0.006253 0.270405 0.072524
v 0.013274 0.266916 0.058092
v 0.011643 0.262123 0.037023
v 0.004742 0.246995 0.072002
v -0.001468 0.227543 0.061003
v 0.012645 0.247259 0.057938
v 0.008273 0.241892 0.033776
v 0.006152 0.229656 0.050476
v -0.000810 0.184262 0.008794
v -0.004540 0.176698 0.025463
v -0.017005 0.231379 0.060454
v -0.029853 0.176544 0.037930
v -0.014851 0.173323 0.034387
v -0.023554 0.122861 0.013720
v -0.012887 0.125286 0.003570
v -0.013717 0.131110 -0.007835
v -0.023340 0.076374 -0.012523
v -0.023175 0.081274 -0.024536
v 0.003695 0.138949 -0.003585
v -0.003290 0.086890 -0.016255
v 0.000138 0.085534 -0.004820
v -0.001138 0.138058 -0.016440
v 0.007153 0.136448 -0.030606
v 0.008691 0.181242 -0.038778
v 0.001888 0.088038 -0.025410
v 0.015159 0.086338 -0.026927
v -0.001826 0.181939 -0.022865
v 0.004495 0.196052 -0.001645
v 0.022275 0.134994 -0.032046
v 0.022777 0.084119 -0.019374
v -0.001785 0.207290 -0.023079
v 0.013275 0.258983 -0.000274
v 0.033400 0.135741 -0.021649
v 0.027111 0.082635 -0.006769
v 0.029241 0.180346 -0.040537
v 0.034876 0.134213 -0.007589
v 0.020148 0.083056 0.003438
v 0.046109 0.192973 -0.023957
v 0.033829 0.204554 -0.041365
v 0.011901 0.210333 -0.039949
v 0.008163 0.261911 -0.017549
v 0.009329 0.271735 -0.016036
v 0.014770 0.280155 0.002323
v 0.019190 0.263653 -0.030346
v 0.035861 0.259593 -0.032825
v 0.009775 0.316367 -0.006613
v 0.015106 0.325450 0.008093
v 0.016572 0.379532 -0.012958
v 0.018595 0.378003 0.013008
v 0.027461 0.424443 0.007925
v 0.023361 0.428372 -0.012826
v 0.031041 0.432183 -0.029487
v 0.047863 0.257174 -0.020309
v 0.019852 0.272853 -0.028991
v 0.036938 0.269865 -0.031416
v 0.032956 0.387062 -0.037551
v 0.045381 0.434484 -0.040729
v 0.023567 0.316257 -0.027560
v 0.056355 0.385112 -0.036180
v 0.062354 0.432883 -0.037847
v 0.080452 0.429938 -0.018759
v 0.045864 0.314145 -0.028543
v 0.074481 0.380639 -0.019572
v 0.051642 0.278924 -0.016673
v 0.085681 0.390950 0.009545
v 0.087485 0.437610 0.008046
v 0.059898 0.317323 -0.015474
v 0.070049 0.395460 0.031083
v 0.073642 0.456517 0.027668
v 0.056390 0.447352 0.036597
v 0.067300 0.321960 0.009601
v 0.046950 0.390667 0.036424
v 0.037372 0.431640 0.032005
v 0.058156 0.327094 0.027126
v 0.056645 0.282682 0.004745
v 0.028822 0.383471 0.025842
v 0.027461 0.424443 0.007925
v 0.018595 0.378003 0.013008
v 0.015106 0.325450 0.008093
v 0.034715 0.327580 0.026890
v 0.047520 0.285836 0.021680
v 0.031451 0.283733 0.018030
v 0.014770 0.280155 0.002323
v 0.055364 0.264151 0.003322
v 0.046313 0.264974 0.020802
v 0.040894 0.244874 0.011701
v 0.030242 0.265681 0.018052
v 0.013275 0.258983 -0.000274
v 0.049981 0.246796 -0.001475
v 0.027866 0.247252 0.010761
v 0.004495 0.196052 -0.001645
v 0.045768 0.189956 -0.005012
v 0.020447 0.192125 0.007249
v 0.034027 0.189017 0.005440
v 0.027271 0.134198 0.003457
v 0.012615 0.136166 0.005203
v 0.003695 0.138949 -0.003585
v 0.010152 0.083221 0.003074
v 0.000138 0.085534 -0.004820
v 0.015995 0.434717 -0.006179
v 0.023361 0.428372 -0.012826
v 0.023097 0.428752 0.008711
v 0.027461 0.424443 0.007925
v 0.033068 0.427448 0.031067
v 0.037372 0.431640 0.032005
v 0.035219 0.433029 0.037089
v 0.038042 0.435874 0.035906
v 0.015995 0.434717 -0.006179
v 0.023097 0.428752 0.008711
v 0.008709 0.419600 -0.006334
v 0.021651 0.417537 0.010699
v 0.033068 0.427448 0.031067
v 0.030498 0.425330 0.034944
v 0.035219 0.433029 0.037089
v 0.032143 0.429952 0.038176
f 1 2 3
f 4 3 2
f 3 4 5
f 2 6 4
f 2 7 6
f 8 5 4
f 5 8 9
f 7 10 6
f 10 7 11
f 4 6 12
f 6 10 12
f 4 12 8
f 12 10 13
f 13 14 12
f 12 14 8
f 14 13 15
f 16 9 8
f 16 8 14
f 9 16 17
f 18 17 16
f 14 18 16
f 17 18 19
f 15 20 14
f 18 14 20
f 20 15 21
f 22 20 21
f 23 19 18
f 20 23 18
f 19 23 24
f 20 22 25
f 20 25 23
f 25 22 26
f 27 24 23
f 25 27 23
f 24 27 28
f 29 28 27
f 30 25 26
f 27 25 30
f 30 29 27
f 30 26 31
f 29 30 32
f 32 30 31
f 33 34 35
f 36 35 34
f 34 37 36
f 35 36 38
f 35 38 39
f 40 36 37
f 37 41 40
f 36 42 38
f 36 40 42
f 39 38 43
f 38 42 43
f 43 44 39
f 42 45 43
f 45 42 46
f 42 40 46
f 46 47 45
f 48 40 41
f 48 46 40
f 41 49 48
f 50 48 49
f 46 48 50
f 49 51 50
f 47 46 52
f 50 52 46
f 52 53 47
f 54 53 52
f 55 50 51
f 52 50 55
f 51 56 55
f 52 57 54
f 52 55 57
f 57 58 54
f 59 55 56
f 57 55 59
f 56 60 59
f 61 59 60
f 62 58 57
f 59 62 57
f 62 59 61
f 62 63 58
f 61 64 62
f 64 63 62
f 65 66 67
f 68 67 66
f 67 68 69
f 66 70 68
f 71 69 68
f 71 72 69
f 72 71 73
f 74 73 71
f 73 74 75
f 68 76 71
f 74 71 76
f 77 75 74
f 76 77 74
f 75 77 78
f 79 78 77
f 80 79 77
f 76 80 77
f 81 79 80
f 70 82 68
f 82 76 68
f 82 70 83
f 76 82 83
f 83 80 76
f 70 84 83
f 85 81 80
f 83 85 80
f 83 84 85
f 86 81 85
f 85 84 87
f 87 86 85
f 84 88 87
f 89 86 87
f 87 88 89
f 88 90 89
f 91 92 93
f 94 93 92
f 92 95 94
f 93 94 96
f 97 94 95
f 97 95 98
f 98 99 97
f 100 97 99
f 99 101 100
f 94 97 102
f 100 102 97
f 103 100 101
f 102 100 103
f 101 104 103
f 105 103 104
f 106 103 105
f 102 103 106
f 107 106 105
f 96 94 108
f 108 94 102
f 108 109 96
f 102 109 108
f 109 102 106
f 96 109 110
f 111 106 107
f 109 106 111
f 109 111 110
f 112 111 107
f 111 113 110
f 113 111 112
f 110 113 114
f 115 113 112
f 113 115 114
f 114 115 116
f 117 118 119
f 119 120 117
f 121 120 119
f 120 122 117
f 120 121 123
f 123 122 120
f 124 123 121
f 122 123 125
f 125 126 122
f 123 124 127
f 127 125 123
f 128 127 124
f 126 125 129
f 129 130 126
f 130 129 131
f 131 129 132
f 127 128 133
f 128 134 133
f 135 133 134
f 136 125 127
f 127 133 136
f 133 135 136
f 136 129 125
f 137 136 135
f 129 136 138
f 136 137 138
f 138 132 129
f 139 138 137
f 138 139 132
f 140 132 139
f 141 142 143
f 144 143 142
f 143 144 145
f 144 142 146
f 144 147 145
f 147 144 146
f 148 145 147
f 146 149 147
f 149 146 150
f 147 151 148
f 151 147 149
f 152 148 151
f 150 153 149
f 153 150 154
f 154 155 153
f 155 156 153
f 151 157 152
f 152 157 158
f 159 158 157
f 160 151 149
f 151 160 157
f 157 160 159
f 160 149 153
f 161 159 160
f 153 162 160
f 160 162 161
f 162 153 156
f 163 161 162
f 162 156 163
f 164 163 156
f 165 166 167
f 167 166 168
f 168 169 167
f 169 168 170
f 166 171 168
f 171 166 172
f 170 168 173
f 171 173 168
f 173 174 170
f 173 171 175
f 174 173 176
f 176 177 174
f 177 176 178
f 179 178 176
f 175 180 173
f 180 176 173
f 176 180 179
f 180 175 181
f 182 179 180
f 180 181 182
f 183 182 181
f 184 185 186
f 185 187 186
f 187 185 188
f 188 189 187
f 186 187 190
f 190 191 186
f 189 192 187
f 190 187 192
f 192 189 193
f 192 194 190
f 193 195 192
f 195 193 196
f 196 197 195
f 198 195 197
f 194 192 199
f 199 192 195
f 195 198 199
f 199 200 194
f 201 199 198
f 199 201 200
f 202 200 201
f 203 204 205
f 204 203 206
f 207 206 203
f 203 208 207
f 208 209 207
f 210 204 206
f 210 206 207
f 211 204 210
f 212 211 210
f 210 213 212
f 213 210 214
f 210 207 214
f 214 215 213
f 215 214 216
f 214 207 216
f 216 217 215
f 218 207 209
f 218 216 207
f 209 219 218
f 217 216 220
f 216 218 220
f 217 220 221
f 221 220 222
f 223 222 220
f 218 224 220
f 220 224 223
f 224 218 219
f 225 223 224
f 224 219 225
f 226 225 219
f 227 228 229
f 228 227 230
f 230 231 228
f 231 232 228
f 232 231 233
f 227 234 230
f 230 234 231
f 235 234 227
f 236 234 235
f 236 237 234
f 238 234 237
f 234 238 231
f 238 237 239
f 239 240 238
f 238 240 231
f 240 239 241
f 242 233 231
f 242 231 240
f 233 242 243
f 241 244 240
f 240 244 242
f 241 245 244
f 245 246 244
f 247 244 246
f 242 244 248
f 244 247 248
f 248 243 242
f 249 248 247
f 248 249 243
f 250 243 249
f 251 252 253
f 253 254 251
f 253 255 254
f 256 254 255
f 255 253 257
f 255 257 258
f 259 251 254
f 254 256 259
f 251 259 260
f 258 261 255
f 256 255 261
f 261 258 262
f 263 260 259
f 259 256 263
f 260 263 264
f 262 265 261
f 265 262 266
f 261 267 256
f 265 267 261
f 266 268 265
f 268 266 269
f 267 265 270
f 265 268 270
f 267 271 256
f 271 267 270
f 272 263 256
f 256 271 272
f 273 264 263
f 263 272 273
f 274 264 273
f 264 274 275
f 273 272 276
f 276 274 273
f 277 272 271
f 272 277 276
f 278 275 274
f 275 278 279
f 280 279 278
f 279 280 281
f 282 281 280
f 280 283 282
f 283 280 284
f 271 285 277
f 285 271 270
f 286 274 276
f 274 286 278
f 287 276 277
f 277 285 287
f 276 287 286
f 284 280 288
f 288 289 284
f 289 288 290
f 278 291 280
f 291 278 286
f 288 280 291
f 288 292 290
f 291 292 288
f 292 293 290
f 294 291 286
f 294 286 287
f 292 291 294
f 293 292 295
f 294 295 292
f 287 296 294
f 296 287 285
f 293 295 297
f 297 298 293
f 295 294 299
f 299 294 296
f 299 297 295
f 300 298 297
f 298 300 301
f 301 300 302
f 297 299 303
f 296 303 299
f 304 302 300
f 305 302 304
f 306 300 297
f 297 303 306
f 306 304 300
f 303 296 307
f 307 306 303
f 285 308 296
f 307 296 308
f 304 309 305
f 309 310 305
f 310 309 311
f 311 309 312
f 313 309 304
f 304 306 313
f 313 312 309
f 306 307 314
f 314 313 306
f 315 312 313
f 313 314 315
f 312 315 316
f 314 307 317
f 317 315 314
f 308 317 307
f 317 308 318
f 319 316 315
f 315 317 319
f 318 319 317
f 316 319 320
f 321 320 319
f 319 318 321
f 320 321 322
f 323 322 321
f 323 321 318
f 324 318 308
f 308 285 324
f 270 324 285
f 324 270 325
f 325 318 324
f 325 270 268
f 318 325 326
f 318 326 323
f 268 327 325
f 326 325 327
f 327 323 326
f 269 327 268
f 328 322 323
f 323 327 328
f 269 328 327
f 322 328 329
f 328 269 330
f 331 329 328
f 328 330 331
f 332 333 334
f 333 332 335
f 333 335 336
f 337 336 335
f 336 338 333
f 336 339 338
f 340 335 332
f 335 340 337
f 332 341 340
f 339 336 342
f 337 342 336
f 342 343 339
f 344 340 341
f 340 344 337
f 341 345 344
f 343 342 346
f 346 347 343
f 342 337 348
f 346 342 348
f 347 346 349
f 349 350 347
f 348 351 346
f 346 351 349
f 348 337 352
f 352 351 348
f 353 337 344
f 337 353 352
f 354 344 345
f 344 354 353
f 355 354 345
f 345 356 355
f 354 357 353
f 357 354 355
f 358 352 353
f 353 357 358
f 359 355 356
f 356 360 359
f 361 359 360
f 360 362 361
f 363 361 362
f 361 363 364
f 364 365 361
f 352 358 366
f 366 351 352
f 367 357 355
f 355 359 367
f 368 358 357
f 358 368 366
f 357 367 368
f 365 369 361
f 369 365 370
f 359 361 371
f 371 367 359
f 369 371 361
f 369 370 372
f 371 369 372
f 370 373 372
f 372 373 374
f 375 367 371
f 375 368 367
f 372 375 371
f 374 376 372
f 375 372 376
f 368 375 377
f 377 366 368
f 374 378 376
f 378 374 379
f 376 380 375
f 380 377 375
f 380 376 378
f 381 378 379
f 379 382 381
f 382 383 381
f 378 384 380
f 377 380 384
f 385 381 383
f 386 385 383
f 387 378 381
f 378 387 384
f 387 381 385
f 384 388 377
f 388 384 387
f 385 386 389
f 386 390 389
f 391 389 390
f 391 392 389
f 393 385 389
f 385 393 387
f 393 389 392
f 394 387 393
f 387 394 388
f 395 393 392
f 393 395 394
f 392 396 395
f 388 397 377
f 366 377 397
f 394 398 388
f 398 394 395
f 397 388 398
f 398 399 397
f 400 395 396
f 395 400 398
f 399 398 400
f 396 401 400
f 397 402 366
f 402 397 399
f 351 366 402
f 403 400 401
f 400 403 399
f 401 404 403
f 402 405 351
f 405 402 399
f 405 349 351
f 406 403 404
f 406 399 403
f 399 407 405
f 399 406 407
f 349 405 408
f 407 408 405
f 408 407 406
f 350 349 408
f 409 406 404
f 406 409 408
f 350 408 409
f 404 410 409
f 409 411 350
f 412 409 410
f 409 412 411
f 413 414 415
f 416 415 414
f 416 417 415
f 416 418 417
f 417 418 419
f 418 420 419
f 421 422 423
f 424 423 422
f 424 422 425
f 424 425 426
f 425 427 426
f 426 427 428
