# Pawns/Pawn21/model/FOrc_Anim/FOrc_m000_b.mo  mesh=FOrc_m000_b.mo
v 0.084065 0.029040 -0.111453
v 0.119792 0.030054 -0.140840
v 0.130692 0.023631 -0.132135
v 0.096399 0.022512 -0.101021
v 0.150769 0.000312 -0.120885
v 0.109171 -0.000278 -0.081888
v 0.185944 -0.000554 -0.078975
v 0.146802 -0.000830 -0.042924
v 0.176071 -0.000925 -0.046644
v 0.119792 0.030054 -0.140840
v 0.084065 0.029040 -0.111453
v 0.086398 0.014323 -0.115848
v 0.117675 0.015157 -0.141532
v 0.086945 -0.000267 -0.114723
v 0.118170 0.000351 -0.140388
v 0.118170 0.000351 -0.140388
v 0.075674 -0.000211 -0.129725
v 0.105631 0.000382 -0.154340
v 0.083273 0.000120 -0.151664
v -0.099420 0.001610 -0.000732
v -0.082142 0.001137 -0.015167
v -0.060985 0.000123 -0.005652
v -0.097878 0.001248 0.017960
v -0.057811 -0.000302 0.012838
v -0.097997 0.016078 0.017046
v -0.097878 0.001248 0.017960
v -0.057885 0.014311 0.011895
v -0.098571 0.030961 0.019293
v -0.052717 0.028879 0.013442
v -0.052717 0.028879 0.013442
v -0.099881 0.024353 0.033094
v -0.098571 0.030961 0.019293
v -0.053759 0.022126 0.029469
v -0.106083 0.000318 0.055043
v -0.049191 -0.000696 0.051534
v -0.099759 -0.001493 0.109368
v -0.046674 -0.001276 0.105643
v -0.069466 -0.001736 0.124375
v 0.154301 0.225603 -0.083548
v 0.138475 0.220741 -0.060226
v 0.126133 0.151630 -0.084294
v 0.134898 0.155984 -0.103126
v 0.118159 0.100694 -0.100140
v 0.149184 0.233723 -0.108439
v 0.125613 0.104056 -0.117288
v 0.130524 0.161606 -0.119979
v 0.113863 0.167353 -0.131231
v 0.122479 0.242807 -0.126780
v 0.093980 0.244432 -0.119407
v 0.093511 0.169216 -0.127661
v 0.120602 0.110122 -0.130322
v 0.106916 0.115252 -0.140672
v 0.087843 0.118024 -0.137446
v 0.082225 0.096038 -0.147403
v 0.127563 0.087112 -0.121184
v 0.118437 0.088645 -0.101606
v 0.128910 0.069645 -0.095623
v 0.101031 0.093530 -0.152892
v 0.120018 0.088513 -0.138922
v 0.102523 0.070342 -0.161266
v 0.076267 0.071396 -0.154200
v 0.122521 0.068141 -0.146590
v 0.136685 0.066314 -0.120520
v 0.101447 0.037650 -0.161415
v 0.078630 0.038290 -0.155375
v 0.160370 0.043294 -0.105256
v 0.143557 0.050442 -0.082194
v 0.119792 0.030054 -0.140840
v 0.133755 0.045172 -0.130052
v 0.117675 0.015157 -0.141532
v 0.130692 0.023631 -0.132135
v 0.104330 0.016483 -0.156225
v 0.118170 0.000351 -0.140388
v 0.083506 0.016535 -0.150916
v 0.105631 0.000382 -0.154340
v 0.083273 0.000120 -0.151664
v 0.152577 0.015364 -0.119859
v 0.150769 0.000312 -0.120885
v 0.184924 0.017292 -0.080195
v 0.185944 -0.000554 -0.078975
v 0.176071 -0.000925 -0.046644
v 0.177123 0.015597 -0.045178
v 0.180537 0.029813 -0.075275
v 0.167532 0.033599 -0.054722
v -0.048013 0.230046 0.069941
v -0.044335 0.152402 0.054975
v -0.021049 0.220757 0.072106
v -0.063679 0.159589 0.050019
v -0.060656 0.102097 0.044382
v -0.063382 0.238807 0.049974
v -0.078062 0.107953 0.039515
v -0.073531 0.165476 0.035769
v -0.071709 0.168847 0.015212
v -0.060726 0.244107 0.016853
v -0.037880 0.239972 -0.001318
v -0.056621 0.166701 0.001135
v -0.084439 0.113893 0.027033
v -0.083752 0.117142 0.009433
v -0.069537 0.116145 -0.003939
v -0.076500 0.095627 -0.012020
v -0.087017 0.089705 0.040162
v -0.066203 0.089400 0.045841
v -0.070911 0.070024 0.058103
v -0.095352 0.091270 0.022780
v -0.093065 0.095179 -0.001072
v -0.104311 0.070205 0.019170
v -0.101578 0.072044 -0.005642
v -0.078685 0.071590 -0.020543
v -0.094703 0.068021 0.047257
v -0.100753 0.039042 -0.008047
v -0.080691 0.039370 -0.020494
v -0.100950 0.043030 0.073276
v -0.072586 0.049899 0.076958
v -0.098571 0.030961 0.019293
v -0.101122 0.047041 0.038898
v -0.097997 0.016078 0.017046
v -0.099881 0.024353 0.033094
v -0.099492 0.017751 -0.002720
v -0.097878 0.001248 0.017960
v -0.081343 0.017524 -0.014228
v -0.099420 0.001610 -0.000732
v -0.082142 0.001137 -0.015167
v -0.106453 0.015345 0.057245
v -0.106083 0.000318 0.055043
v -0.100100 0.016364 0.107949
v -0.099759 -0.001493 0.109368
v -0.069466 -0.001736 0.124375
v -0.069265 0.014772 0.126294
v -0.093621 0.028939 0.108247
v -0.069780 0.032891 0.112929
v -0.011221 0.230820 0.000598
v -0.056621 0.166701 0.001135
v -0.037880 0.239972 -0.001318
v -0.034558 0.159158 0.003117
v 0.006735 0.219126 0.031632
v -0.054647 0.111652 -0.001157
v -0.069537 0.116145 -0.003939
v -0.027234 0.152790 0.023967
v 0.000333 0.216407 0.057586
v -0.057625 0.092027 -0.008551
v -0.076500 0.095627 -0.012020
v -0.045821 0.104857 0.015971
v -0.028685 0.149789 0.042185
v -0.021049 0.220757 0.072106
v -0.044335 0.152402 0.054975
v -0.060656 0.102097 0.044382
v -0.049531 0.103335 0.035047
v -0.050095 0.085955 0.034382
v -0.066203 0.089400 0.045841
v -0.070911 0.070024 0.058103
v -0.048544 0.086492 0.013634
v -0.049594 0.067068 0.008481
v -0.051835 0.065571 0.045592
v -0.049521 0.041718 0.070449
v -0.072586 0.049899 0.076958
v -0.054783 0.069685 -0.012892
v -0.078685 0.071590 -0.020543
v -0.050979 0.044004 0.035162
v -0.058534 0.037113 -0.013417
v -0.080691 0.039370 -0.020494
v -0.052717 0.028879 0.013442
v -0.053759 0.022126 0.029469
v -0.057885 0.014311 0.011895
v -0.060073 0.016020 -0.007759
v -0.057811 -0.000302 0.012838
v -0.081343 0.017524 -0.014228
v -0.060985 0.000123 -0.005652
v -0.082142 0.001137 -0.015167
v -0.043007 0.013887 0.070829
v -0.049191 -0.000696 0.051534
v -0.045745 0.016175 0.104847
v -0.046674 -0.001276 0.105643
v -0.053124 0.029420 0.105915
v -0.069780 0.032891 0.112929
v -0.069265 0.014772 0.126294
v -0.069466 -0.001736 0.124375
v 0.078163 0.239680 -0.096486
v 0.093980 0.244432 -0.119407
v 0.093511 0.169216 -0.127661
v 0.080739 0.165273 -0.108454
v 0.089950 0.227963 -0.062633
v 0.080472 0.115799 -0.123650
v 0.087843 0.118024 -0.137446
v 0.091713 0.158073 -0.089569
v 0.113676 0.221534 -0.051783
v 0.072356 0.094217 -0.130567
v 0.082225 0.096038 -0.147403
v 0.087551 0.108817 -0.105801
v 0.106381 0.152994 -0.079466
v 0.138475 0.220741 -0.060226
v 0.126133 0.151630 -0.084294
v 0.118159 0.100694 -0.100140
v 0.101017 0.104460 -0.096643
v 0.099153 0.087288 -0.096594
v 0.118437 0.088645 -0.101606
v 0.128910 0.069645 -0.095623
v 0.082633 0.088785 -0.108929
v 0.077508 0.069726 -0.112062
v 0.106757 0.066480 -0.089635
v 0.123018 0.042370 -0.069762
v 0.143557 0.050442 -0.082194
v 0.065869 0.070880 -0.131206
v 0.076267 0.071396 -0.154200
v 0.097423 0.045209 -0.095117
v 0.068563 0.036704 -0.134344
v 0.078630 0.038290 -0.155375
v 0.084065 0.029040 -0.111453
v 0.096399 0.022512 -0.101021
v 0.086398 0.014323 -0.115848
v 0.073611 0.015669 -0.130970
v 0.086945 -0.000267 -0.114723
v 0.083506 0.016535 -0.150916
v 0.075674 -0.000211 -0.129725
v 0.083273 0.000120 -0.151664
v 0.118915 0.014594 -0.064361
v 0.109171 -0.000278 -0.081888
v 0.145368 0.016605 -0.042791
v 0.146802 -0.000830 -0.042924
v 0.151044 0.029922 -0.047423
v 0.167532 0.033599 -0.054722
v 0.177123 0.015597 -0.045178
v 0.176071 -0.000925 -0.046644
f 1 2 3
f 1 3 4
f 4 3 5
f 4 5 6
f 7 6 5
f 7 8 6
f 7 9 8
f 10 11 12
f 12 13 10
f 13 12 14
f 14 15 13
f 16 14 17
f 16 17 18
f 18 17 19
f 20 21 22
f 23 20 22
f 23 22 24
f 24 25 26
f 25 24 27
f 27 28 25
f 28 27 29
f 30 31 32
f 30 33 31
f 33 34 31
f 33 35 34
f 36 34 35
f 36 35 37
f 36 37 38
f 39 40 41
f 41 42 39
f 41 43 42
f 44 39 42
f 42 43 45
f 42 46 44
f 42 45 46
f 47 44 46
f 44 47 48
f 49 48 47
f 47 50 49
f 46 51 47
f 46 45 51
f 47 52 50
f 47 51 52
f 50 52 53
f 53 52 54
f 45 43 55
f 43 56 55
f 57 55 56
f 52 51 58
f 52 58 54
f 51 45 59
f 45 55 59
f 51 59 58
f 58 60 54
f 54 60 61
f 59 62 58
f 55 62 59
f 58 62 60
f 55 57 63
f 63 62 55
f 60 64 61
f 61 64 65
f 63 57 66
f 57 67 66
f 62 68 60
f 60 68 64
f 62 63 69
f 69 68 62
f 63 66 69
f 70 64 68
f 71 68 69
f 72 65 64
f 64 70 72
f 73 72 70
f 65 72 74
f 72 73 75
f 75 74 72
f 74 75 76
f 77 71 69
f 69 66 77
f 71 77 78
f 79 78 77
f 77 66 79
f 78 79 80
f 79 81 80
f 82 81 79
f 79 66 83
f 83 82 79
f 66 67 83
f 84 82 83
f 84 83 67
f 85 86 87
f 86 85 88
f 86 88 89
f 90 88 85
f 88 91 89
f 88 90 92
f 88 92 91
f 93 92 90
f 90 94 93
f 95 93 94
f 93 95 96
f 92 93 97
f 92 97 91
f 93 96 98
f 93 98 97
f 96 99 98
f 99 100 98
f 91 101 89
f 89 101 102
f 103 102 101
f 97 104 91
f 91 104 101
f 98 105 97
f 98 100 105
f 97 105 104
f 101 104 106
f 104 105 106
f 105 100 107
f 105 107 106
f 100 108 107
f 101 109 103
f 109 101 106
f 107 108 110
f 108 111 110
f 109 112 103
f 103 112 113
f 106 107 114
f 107 110 114
f 106 115 109
f 115 106 114
f 109 115 112
f 116 114 110
f 117 115 114
f 118 110 111
f 110 118 116
f 119 116 118
f 111 120 118
f 118 121 119
f 121 118 120
f 120 122 121
f 123 115 117
f 115 123 112
f 117 124 123
f 125 123 124
f 123 125 112
f 124 126 125
f 125 126 127
f 128 125 127
f 125 129 112
f 129 125 128
f 112 129 113
f 130 129 128
f 130 113 129
f 131 132 133
f 132 131 134
f 135 134 131
f 132 134 136
f 137 132 136
f 134 135 138
f 139 138 135
f 137 136 140
f 141 137 140
f 134 142 136
f 138 142 134
f 138 139 143
f 144 143 139
f 143 144 145
f 143 145 146
f 143 147 138
f 147 143 146
f 138 147 142
f 148 147 146
f 147 148 142
f 148 146 149
f 149 150 148
f 142 151 136
f 136 151 140
f 142 148 151
f 151 152 140
f 148 152 151
f 153 148 150
f 153 152 148
f 153 150 154
f 150 155 154
f 140 152 156
f 141 140 156
f 157 141 156
f 152 153 158
f 153 154 158
f 157 156 159
f 160 157 159
f 152 161 156
f 158 161 152
f 156 161 159
f 162 161 158
f 163 159 161
f 159 164 160
f 159 163 164
f 165 164 163
f 166 160 164
f 164 165 167
f 164 167 166
f 168 166 167
f 169 162 158
f 158 154 169
f 162 169 170
f 171 170 169
f 169 154 171
f 170 171 172
f 171 154 173
f 173 154 155
f 155 174 173
f 174 175 173
f 173 175 171
f 171 175 172
f 175 176 172
f 177 178 179
f 179 180 177
f 181 177 180
f 179 182 180
f 183 182 179
f 180 184 181
f 185 181 184
f 183 186 182
f 187 186 183
f 180 182 188
f 184 180 188
f 184 189 185
f 190 185 189
f 189 191 190
f 189 192 191
f 189 184 193
f 193 192 189
f 184 188 193
f 194 192 193
f 193 188 194
f 194 195 192
f 195 194 196
f 188 182 197
f 182 186 197
f 188 197 194
f 197 186 198
f 194 197 198
f 199 196 194
f 199 194 198
f 199 200 196
f 196 200 201
f 186 202 198
f 187 202 186
f 203 202 187
f 198 204 199
f 199 204 200
f 203 205 202
f 206 205 203
f 198 202 207
f 204 198 207
f 202 205 207
f 208 204 207
f 209 207 205
f 205 206 210
f 205 210 209
f 211 209 210
f 212 210 206
f 210 213 211
f 210 212 213
f 214 213 212
f 215 204 208
f 204 215 200
f 208 216 215
f 217 215 216
f 215 217 200
f 216 218 217
f 217 219 200
f 219 201 200
f 201 219 220
f 220 219 221
f 219 217 221
f 217 218 221
f 221 218 222
