# Pawns/Pawn21/model/Bodyparts/FOrc_m000_f(Clone)  mesh=FOrc_m000_f.mo(Clone)
v 0.048338 0.869224 -0.055391
v 0.050928 0.860823 -0.040835
v 0.045892 0.858165 -0.036455
v 0.044070 0.867193 -0.044141
v 0.046617 0.889593 -0.063757
v 0.044536 0.878630 -0.045884
v 0.047095 0.893184 -0.060460
v 0.050297 0.886623 -0.043601
v 0.050183 0.881354 -0.036272
v 0.046617 0.889593 -0.063757
v 0.047095 0.893184 -0.060460
v 0.050297 0.886623 -0.043601
v 0.048338 0.869224 -0.055391
v 0.050183 0.881354 -0.036272
v 0.050928 0.860823 -0.040835
v 0.052360 0.862789 -0.034450
v 0.045892 0.858165 -0.036455
v -0.011352 0.869399 0.000031
v -0.016269 0.866816 -0.010010
v -0.019119 0.873136 -0.002647
v -0.033895 0.877448 -0.012678
v -0.035483 0.873642 -0.015320
v -0.011372 0.856421 -0.011431
v -0.023412 0.855283 -0.013061
v -0.003103 0.848646 -0.007549
v -0.009810 0.849022 -0.005001
v -0.035483 0.873642 -0.015320
v -0.019119 0.873136 -0.002647
v -0.033895 0.877448 -0.012678
v -0.023412 0.855283 -0.013061
v -0.011352 0.869399 0.000031
v -0.009810 0.849022 -0.005001
v -0.005560 0.851536 -0.000279
v -0.003103 0.848646 -0.007549
v 0.043850 0.851042 0.021738
v 0.048422 0.849212 0.022429
v 0.047086 0.851113 0.020791
v 0.046637 0.852928 0.020627
v 0.043798 0.849243 0.024007
v 0.043460 0.845716 0.023214
v 0.048467 0.846002 0.021448
v 0.047743 0.844457 0.019711
v 0.043727 0.852544 0.021471
v 0.037138 0.853158 0.021161
v 0.039490 0.850023 0.022137
v 0.044430 0.855041 0.024453
v 0.048005 0.855589 0.023823
v 0.038537 0.846537 0.023588
v 0.037892 0.855163 0.021674
v 0.045659 0.857652 0.026648
v 0.048686 0.858561 0.025954
v 0.048271 0.861759 0.026306
v 0.039991 0.856586 0.023937
v 0.044941 0.860792 0.027063
v 0.045313 0.866816 0.022957
v 0.039136 0.859835 0.023277
v 0.042423 0.865585 0.023544
v 0.043339 0.870036 0.020670
v 0.036573 0.857754 0.021697
v 0.037592 0.861853 0.020954
v 0.034638 0.857166 0.021324
v 0.038415 0.868975 0.020681
v 0.036792 0.865475 0.019623
v 0.036226 0.872534 0.019992
v 0.041772 0.873928 0.019297
v 0.033710 0.876708 0.022041
v 0.040972 0.878661 0.019499
v 0.033243 0.864092 0.019899
v 0.033750 0.867836 0.017829
v 0.032379 0.870050 0.016736
v 0.028674 0.867630 0.019957
v 0.032591 0.880950 0.022210
v 0.039914 0.882202 0.018872
v 0.038280 0.887708 0.017916
v 0.022752 0.887660 0.021485
v 0.036066 0.893615 0.016108
v 0.018330 0.895416 0.018577
v 0.025693 0.863111 0.022499
v 0.029361 0.873597 0.020029
v 0.019252 0.866074 0.021889
v 0.016298 0.861049 0.022951
v 0.027680 0.856759 0.022950
v 0.019078 0.873546 0.022672
v 0.024184 0.880855 0.023847
v 0.011493 0.884675 0.020882
v 0.008428 0.890939 0.018329
v 0.001778 0.883210 0.015330
v 0.029305 0.851225 0.022061
v 0.023744 0.878131 0.023709
v 0.013910 0.879678 0.022970
v 0.007276 0.877966 0.019382
v 0.000059 0.874921 0.014359
v 0.014233 0.876768 0.022705
v 0.007793 0.873936 0.019181
v 0.012913 0.871953 0.020537
v 0.013469 0.866898 0.020386
v 0.009514 0.867378 0.019005
v 0.004602 0.866481 0.016258
v 0.002245 0.864040 0.013908
v -0.003312 0.866374 0.009173
v 0.008164 0.861636 0.018482
v 0.010689 0.853116 0.018153
v -0.001365 0.857999 0.008391
v -0.011352 0.869399 0.000031
v -0.005560 0.851536 -0.000279
v 0.019695 0.854139 0.023310
v 0.022268 0.846997 0.021196
v 0.034269 0.847584 0.022597
v 0.029264 0.841967 0.020970
v 0.001193 0.849902 0.007272
v 0.008460 0.847729 0.013519
v 0.013658 0.846409 0.016561
v 0.001575 0.838694 -0.002043
v -0.003103 0.848646 -0.007549
v 0.003159 0.838331 -0.007342
v 0.010287 0.830457 -0.003596
v 0.025561 0.838455 0.019092
v 0.014850 0.836325 0.011142
v 0.008877 0.840437 0.008831
v 0.007966 0.833450 -0.000361
v 0.022693 0.827163 0.007340
v 0.026358 0.823630 -0.004021
v 0.021172 0.829979 0.010068
v 0.035846 0.823675 0.011463
v 0.036227 0.822554 -0.007021
v 0.045807 0.822648 0.009248
v 0.023396 0.832809 0.014133
v 0.033486 0.824802 0.013603
v 0.041554 0.823156 0.016534
v 0.048587 0.823568 0.014263
v 0.034742 0.829099 0.017441
v 0.042560 0.828948 0.019094
v 0.049307 0.829485 0.017432
v 0.048107 0.835311 0.017318
v 0.034131 0.832581 0.019386
v 0.041001 0.834917 0.019320
v 0.029505 0.838717 0.020166
v 0.043277 0.836971 0.021047
v 0.048851 0.836888 0.019097
v 0.049032 0.840344 0.020542
v 0.037388 0.838397 0.021085
v 0.034210 0.841352 0.021721
v 0.043169 0.840347 0.022078
v 0.038894 0.844007 0.022665
v 0.038360 0.842533 0.020765
v 0.042082 0.843924 0.021023
v 0.049307 0.829485 0.017432
v 0.053862 0.831144 0.012426
v 0.048107 0.835311 0.017318
v 0.048587 0.823568 0.014263
v 0.053753 0.825526 0.009336
v 0.045807 0.822648 0.009248
v 0.051819 0.826779 0.002039
v 0.036227 0.822554 -0.007021
v 0.042853 0.826835 -0.013753
v 0.053160 0.833083 -0.010635
v 0.048423 0.837867 -0.026095
v 0.054371 0.828860 0.001281
v 0.055878 0.833205 0.004971
v 0.053072 0.837263 0.012198
v 0.056828 0.836991 0.005995
v 0.057049 0.839348 -0.005722
v 0.055368 0.836623 -0.010107
v 0.051367 0.841882 -0.025967
v 0.052958 0.838852 0.015336
v 0.048851 0.836888 0.019097
v 0.049032 0.840344 0.020542
v 0.057304 0.844573 -0.013905
v 0.051297 0.848355 -0.031378
v 0.046184 0.846691 -0.032727
v 0.045892 0.858165 -0.036455
v 0.052360 0.862789 -0.034450
v 0.055200 0.841857 0.010576
v 0.052937 0.842245 0.016315
v 0.047743 0.844457 0.019711
v 0.058729 0.844899 -0.000476
v 0.056830 0.849754 -0.019461
v 0.056255 0.860601 -0.025213
v 0.058963 0.857541 -0.016276
v 0.056070 0.869158 -0.025494
v 0.060410 0.862777 -0.011181
v 0.050183 0.881354 -0.036272
v 0.055251 0.877752 -0.025378
v 0.059619 0.855339 -0.010555
v 0.057474 0.874771 -0.018675
v 0.055776 0.885747 -0.018513
v 0.059584 0.854247 -0.000820
v 0.057746 0.876807 -0.015096
v 0.059420 0.871594 -0.011757
v 0.059784 0.869499 -0.002705
v 0.057657 0.876732 -0.009398
v 0.056730 0.883444 -0.009690
v 0.060522 0.862071 -0.000777
v 0.056001 0.887432 -0.009364
v 0.053516 0.893262 -0.015195
v 0.053528 0.892842 -0.003917
v 0.050956 0.899202 -0.006761
v 0.045523 0.900699 0.002534
v 0.048214 0.892607 0.006463
v 0.036066 0.893615 0.016108
v 0.038280 0.887708 0.017916
v 0.055635 0.887785 -0.001647
v 0.056082 0.884899 -0.001985
v 0.046352 0.883624 0.014092
v 0.039914 0.882202 0.018872
v 0.040972 0.878661 0.019499
v 0.046902 0.879271 0.014258
v 0.041772 0.873928 0.019297
v 0.051499 0.886161 0.007732
v 0.052340 0.883687 0.006838
v 0.056171 0.880358 -0.004984
v 0.054811 0.880489 0.001591
v 0.057214 0.875397 -0.005423
v 0.056162 0.873245 0.000113
v 0.045213 0.874280 0.014690
v 0.043339 0.870036 0.020670
v 0.047988 0.877216 0.009039
v 0.044842 0.872471 0.009383
v 0.049905 0.871755 0.007431
v 0.054658 0.868738 0.005410
v 0.045786 0.870174 0.010728
v 0.045828 0.870415 0.016308
v 0.048823 0.867119 0.010707
v 0.055943 0.862250 0.006276
v 0.047439 0.866559 0.020584
v 0.045313 0.866816 0.022957
v 0.046627 0.867386 0.013820
v 0.051360 0.860415 0.011458
v 0.056017 0.856415 0.006301
v 0.051237 0.855897 0.012843
v 0.048421 0.863958 0.014565
v 0.050664 0.861904 0.023687
v 0.048271 0.861759 0.026306
v 0.055294 0.851669 0.010192
v 0.050655 0.860490 0.013389
v 0.050281 0.862000 0.016701
v 0.050872 0.858665 0.023572
v 0.048686 0.858561 0.025954
v 0.048005 0.855589 0.023823
v 0.050778 0.857667 0.014072
v 0.051375 0.858798 0.017221
v 0.050280 0.856178 0.021002
v 0.046637 0.852928 0.020627
v 0.048753 0.853521 0.018506
v 0.049347 0.852110 0.018495
v 0.047086 0.851113 0.020791
v 0.048422 0.849212 0.022429
v 0.051905 0.852435 0.014813
v 0.051806 0.850799 0.019282
v 0.054540 0.849646 0.014147
v 0.052270 0.847428 0.018016
v 0.048467 0.846002 0.021448
v 0.051518 0.845757 0.015456
v 0.054305 0.847001 0.013573
v 0.053338 0.845443 0.011929
v 0.056322 0.845648 0.008675
v 0.057702 0.847493 0.004192
v 0.057821 0.844218 0.003460
f 1 2 3
f 1 3 4
f 4 5 1
f 6 5 4
f 6 7 5
f 6 8 7
f 9 8 6
f 10 11 12
f 10 12 13
f 13 12 14
f 15 13 14
f 16 15 14
f 15 16 17
f 18 19 20
f 19 21 20
f 19 22 21
f 19 23 22
f 23 24 22
f 24 23 25
f 24 25 26
f 27 28 29
f 27 30 28
f 30 31 28
f 32 31 30
f 33 31 32
f 32 34 33
f 35 36 37
f 38 35 37
f 35 39 36
f 39 40 36
f 40 41 36
f 40 42 41
f 38 43 35
f 43 44 35
f 45 39 35
f 44 45 35
f 38 46 43
f 46 38 47
f 45 48 39
f 40 39 48
f 43 49 44
f 43 46 49
f 47 50 46
f 50 47 51
f 51 52 50
f 53 46 50
f 53 49 46
f 54 50 52
f 50 54 53
f 52 55 54
f 53 56 49
f 56 53 54
f 57 54 55
f 55 58 57
f 56 59 49
f 59 44 49
f 54 60 56
f 59 56 60
f 60 54 57
f 59 61 44
f 60 61 59
f 62 57 58
f 57 63 60
f 62 63 57
f 58 64 62
f 58 65 64
f 66 64 65
f 65 67 66
f 68 60 63
f 60 68 61
f 69 63 62
f 62 64 69
f 63 69 68
f 69 64 70
f 66 70 64
f 69 71 68
f 69 70 71
f 66 67 72
f 72 67 73
f 72 73 74
f 72 74 75
f 74 76 75
f 77 75 76
f 68 78 61
f 78 68 71
f 79 71 70
f 66 79 70
f 71 79 80
f 71 80 78
f 78 80 81
f 78 82 61
f 81 82 78
f 83 80 79
f 79 66 83
f 72 84 66
f 84 72 75
f 77 85 75
f 85 77 86
f 87 85 86
f 61 82 88
f 88 44 61
f 84 89 66
f 89 83 66
f 90 84 75
f 90 75 85
f 84 90 89
f 91 85 87
f 91 90 85
f 91 87 92
f 90 93 89
f 91 93 90
f 89 93 83
f 93 91 94
f 91 92 94
f 93 95 83
f 94 95 93
f 95 96 83
f 80 83 96
f 80 96 81
f 96 95 97
f 95 94 97
f 96 97 81
f 94 92 98
f 97 94 98
f 99 98 92
f 100 99 92
f 98 101 97
f 97 101 81
f 98 99 101
f 81 101 102
f 101 99 102
f 99 100 103
f 102 99 103
f 103 100 104
f 104 105 103
f 106 81 102
f 81 106 82
f 82 106 88
f 107 88 106
f 106 102 107
f 88 107 108
f 88 108 44
f 44 108 45
f 48 45 108
f 109 108 107
f 48 108 109
f 110 103 105
f 103 111 102
f 111 103 110
f 112 107 102
f 111 112 102
f 105 113 110
f 114 113 105
f 113 114 115
f 113 115 116
f 107 112 117
f 117 109 107
f 112 111 118
f 112 118 117
f 119 111 110
f 110 113 119
f 111 119 118
f 119 113 120
f 116 120 113
f 120 118 119
f 120 116 121
f 122 121 116
f 123 118 120
f 120 121 123
f 121 122 124
f 125 124 122
f 126 124 125
f 123 127 118
f 117 118 127
f 123 121 128
f 128 121 124
f 127 123 128
f 129 124 126
f 128 124 129
f 126 130 129
f 128 131 127
f 128 129 131
f 132 129 130
f 131 129 132
f 130 133 132
f 133 134 132
f 131 135 127
f 127 135 117
f 131 132 135
f 136 132 134
f 135 132 136
f 117 135 137
f 117 137 109
f 134 138 136
f 138 134 139
f 140 138 139
f 136 141 135
f 135 141 137
f 136 138 141
f 137 142 109
f 137 141 142
f 48 109 142
f 140 143 138
f 143 141 138
f 143 140 42
f 144 48 142
f 48 144 40
f 142 141 145
f 145 141 143
f 145 144 142
f 40 146 42
f 146 143 42
f 145 143 146
f 144 145 146
f 146 40 144
f 147 148 149
f 150 148 147
f 148 150 151
f 152 151 150
f 151 152 153
f 152 154 153
f 154 155 153
f 156 153 155
f 155 157 156
f 158 151 153
f 158 153 156
f 159 148 151
f 158 159 151
f 160 149 148
f 159 161 148
f 161 160 148
f 158 162 159
f 159 162 161
f 163 158 156
f 162 158 163
f 164 156 157
f 164 163 156
f 149 160 165
f 165 166 149
f 167 166 165
f 163 168 162
f 163 164 168
f 157 169 164
f 169 157 170
f 169 170 171
f 171 172 169
f 160 173 165
f 160 161 173
f 167 165 174
f 174 165 173
f 174 175 167
f 162 176 161
f 176 162 168
f 177 164 169
f 164 177 168
f 172 178 169
f 178 177 169
f 179 168 177
f 177 178 179
f 178 172 180
f 179 178 180
f 180 181 179
f 172 182 180
f 183 180 182
f 184 168 179
f 184 176 168
f 179 181 184
f 185 180 183
f 181 180 185
f 183 186 185
f 187 176 184
f 184 181 187
f 185 186 188
f 189 181 185
f 188 189 185
f 190 181 189
f 188 191 189
f 191 190 189
f 192 188 186
f 191 188 192
f 193 187 181
f 193 181 190
f 194 192 186
f 194 186 195
f 194 195 196
f 195 197 196
f 196 197 198
f 198 199 196
f 198 200 199
f 201 199 200
f 194 196 202
f 202 196 199
f 203 192 194
f 194 202 203
f 204 199 201
f 204 201 205
f 204 205 206
f 207 204 206
f 208 207 206
f 209 199 204
f 202 199 209
f 204 207 209
f 209 210 202
f 202 210 203
f 209 207 210
f 192 203 211
f 211 191 192
f 210 212 203
f 203 212 211
f 210 207 212
f 213 191 211
f 211 212 213
f 213 190 191
f 214 213 212
f 214 190 213
f 207 208 215
f 216 215 208
f 217 212 207
f 212 217 214
f 207 218 217
f 207 215 218
f 219 214 217
f 217 218 219
f 220 190 214
f 219 220 214
f 221 218 215
f 221 219 218
f 216 222 215
f 222 221 215
f 221 223 219
f 220 219 223
f 190 220 224
f 190 224 193
f 222 216 225
f 226 225 216
f 221 222 227
f 227 223 221
f 222 225 227
f 220 228 224
f 223 228 220
f 224 229 193
f 228 229 224
f 229 228 230
f 187 193 229
f 223 227 231
f 225 231 227
f 231 228 223
f 225 226 232
f 231 225 232
f 233 232 226
f 229 234 187
f 229 230 234
f 231 235 228
f 235 230 228
f 235 231 236
f 232 236 231
f 232 233 237
f 238 237 233
f 237 238 239
f 236 240 235
f 235 240 230
f 236 232 241
f 237 241 232
f 241 240 236
f 239 242 237
f 241 237 242
f 241 242 240
f 242 239 243
f 244 240 242
f 243 244 242
f 244 230 240
f 243 245 244
f 244 245 230
f 243 246 245
f 245 246 247
f 230 245 248
f 230 248 234
f 245 247 249
f 248 245 249
f 250 234 248
f 248 249 250
f 249 247 251
f 251 250 249
f 251 247 252
f 251 252 175
f 251 175 253
f 253 175 174
f 253 254 251
f 250 251 254
f 255 253 174
f 254 253 255
f 255 174 173
f 255 256 254
f 254 256 250
f 256 255 173
f 250 257 234
f 250 256 257
f 257 187 234
f 176 187 257
f 258 256 173
f 258 257 256
f 176 257 258
f 161 258 173
f 176 258 161
