# Pawns/Pawn11/model/Bodyparts/FMagic_m002_b(Clone)  mesh=FMagic_m002_b.mo
v 0.069796 -0.001267 0.008549
v 0.070545 -0.001291 0.038945
v 0.045980 -0.001329 0.041626
v 0.025601 -0.000716 0.028306
v 0.053920 -0.000778 -0.009835
v 0.013264 0.006107 0.012285
v 0.033050 0.006145 -0.014837
v 0.000207 0.017757 0.001452
v 0.020312 0.017491 -0.026223
v 0.020312 0.017491 -0.026223
v 0.000207 0.017757 0.001452
v -0.000421 0.001256 0.001077
v 0.018896 0.000909 -0.025528
v -0.013473 0.002026 -0.011696
v 0.002621 0.001737 -0.033862
v -0.010346 0.002130 -0.025212
v -0.056387 -0.000310 -0.041000
v -0.042564 -0.000514 -0.048212
v -0.029214 -0.000763 -0.044445
v -0.056918 -0.000389 -0.022704
v -0.024304 -0.000933 -0.026839
v -0.057841 0.016240 -0.022466
v -0.023911 0.015579 -0.026773
v -0.023911 0.015579 -0.026773
v -0.054230 0.005490 -0.005377
v -0.057841 0.016240 -0.022466
v -0.020945 0.004541 -0.009658
v -0.059968 -0.000663 0.015316
v -0.012842 -0.001449 0.009339
v -0.051778 -0.000437 0.038109
v -0.011266 -0.001097 0.033700
v -0.025937 -0.000467 0.053807
v -0.002895 0.094553 -0.031632
v -0.007484 0.066137 -0.015819
v -0.011089 0.095259 -0.014720
v -0.004414 0.065440 -0.025462
v -0.013649 0.047903 -0.014393
v 0.007063 0.063290 -0.026764
v 0.016635 0.093227 -0.032776
v -0.010103 0.049988 -0.028096
v -0.017323 0.031186 -0.011111
v 0.020507 0.059903 -0.019989
v 0.029030 0.092161 -0.021481
v 0.005506 0.045805 -0.034280
v -0.014438 0.035392 -0.027619
v -0.016150 0.022050 -0.013028
v 0.026581 0.055866 -0.003378
v 0.036308 0.091507 -0.003779
v 0.021673 0.045264 -0.022577
v 0.002138 0.030889 -0.037919
v 0.022280 0.029362 -0.029004
v 0.024046 0.065642 0.006869
v 0.034986 0.044584 0.013796
v 0.026942 0.092887 0.011401
v 0.010633 0.093782 0.012775
v 0.013241 0.058092 0.008404
v 0.019269 0.039224 0.019202
v 0.031110 0.024561 0.032851
v 0.040923 0.039479 -0.006710
v 0.000824 0.021832 -0.036379
v 0.020312 0.017491 -0.026223
v 0.039322 0.021001 -0.018697
v 0.059023 0.024882 -0.004732
v 0.049900 0.032059 0.021736
v 0.062129 0.025101 0.031964
v 0.045206 0.012254 0.041418
v 0.069777 0.012485 0.038647
v 0.045980 -0.001329 0.041626
v 0.070545 -0.001291 0.038945
v 0.069570 0.012609 0.007522
v 0.069796 -0.001267 0.008549
v 0.053920 -0.000778 -0.009835
v 0.055138 0.013402 -0.010462
v 0.033050 0.006145 -0.014837
v 0.018896 0.000909 -0.025528
v 0.002621 0.001737 -0.033862
v -0.010346 0.002130 -0.025212
v -0.013722 0.023505 -0.027256
v -0.013473 0.002026 -0.011696
v 0.010633 0.093782 0.012775
v -0.002698 0.095032 0.000886
v -0.009666 0.055870 0.005927
v 0.011768 0.054051 0.018920
v 0.026942 0.092887 0.011401
v 0.032183 0.053039 0.015684
v 0.036308 0.091507 -0.003779
v 0.040039 0.052976 -0.006501
v 0.029030 0.092161 -0.021481
v 0.028523 0.053828 -0.027805
v 0.016635 0.093227 -0.032776
v 0.008069 0.055783 -0.039441
v -0.002895 0.094553 -0.031632
v -0.016605 0.055806 -0.031616
v -0.011089 0.095259 -0.014720
v -0.021761 0.055534 -0.010803
v -0.002698 0.095032 0.000886
v -0.009666 0.055870 0.005927
v 0.029030 0.092161 -0.021481
v 0.016635 0.093227 -0.032776
v -0.002895 0.094553 -0.031632
v -0.011089 0.095259 -0.014720
v -0.002698 0.095032 0.000886
v 0.036308 0.091507 -0.003779
v 0.026942 0.092887 0.011401
v 0.010633 0.093782 0.012775
v -0.053302 0.089829 -0.010444
v -0.042144 0.096471 -0.041482
v -0.054902 0.094151 -0.026601
v -0.023466 0.093992 -0.038477
v -0.015864 0.089803 -0.022990
v -0.043405 0.084840 0.005252
v -0.025329 0.083472 0.006451
v -0.014369 0.085111 -0.005775
v -0.014369 0.085111 -0.005775
v -0.013505 0.052237 -0.032812
v -0.015864 0.089803 -0.022990
v -0.014394 0.048843 -0.008366
v -0.025329 0.083472 0.006451
v -0.028471 0.047594 0.006991
v -0.043405 0.084840 0.005252
v -0.051782 0.049617 0.001723
v -0.053302 0.089829 -0.010444
v -0.063824 0.053250 -0.019767
v -0.054902 0.094151 -0.026601
v -0.062317 0.056230 -0.042379
v -0.042144 0.096471 -0.041482
v -0.042270 0.056048 -0.059131
v -0.023466 0.093992 -0.038477
v -0.021578 0.054099 -0.052525
v -0.015864 0.089803 -0.022990
v -0.013505 0.052237 -0.032812
v -0.042144 0.096471 -0.041482
v -0.023466 0.093992 -0.038477
v -0.031176 0.064244 -0.042402
v -0.040991 0.064740 -0.045676
v -0.029627 0.046711 -0.047878
v -0.049259 0.063006 -0.037267
v -0.054902 0.094151 -0.026601
v -0.043186 0.049875 -0.052019
v -0.026205 0.028190 -0.048709
v -0.052030 0.058479 -0.021586
v -0.053302 0.089829 -0.010444
v -0.057249 0.045975 -0.042249
v -0.041971 0.032525 -0.054292
v -0.028651 0.019117 -0.048236
v -0.042521 0.052853 -0.007871
v -0.043405 0.084840 0.005252
v -0.056460 0.044414 -0.023373
v -0.059066 0.028790 -0.044548
v -0.060961 0.028189 -0.022557
v -0.031425 0.061211 -0.003515
v -0.027435 0.038003 0.005512
v -0.025329 0.083472 0.006451
v -0.014369 0.085111 -0.005775
v -0.024639 0.053611 -0.011817
v -0.015796 0.034123 -0.006686
v -0.011230 0.024036 0.015507
v -0.048836 0.033817 0.001372
v -0.057285 0.019681 -0.044593
v -0.057841 0.016240 -0.022466
v -0.060298 0.020619 -0.002339
v -0.057664 0.025192 0.021392
v -0.030023 0.032160 0.026174
v -0.027249 0.025951 0.041725
v -0.010867 0.012450 0.032215
v -0.025690 0.013343 0.052567
v -0.011266 -0.001097 0.033700
v -0.025937 -0.000467 0.053807
v -0.052347 0.013517 0.036802
v -0.051778 -0.000437 0.038109
v -0.059968 -0.000663 0.015316
v -0.060914 0.013550 0.015588
v -0.054230 0.005490 -0.005377
v -0.056918 -0.000389 -0.022704
v -0.056387 -0.000310 -0.041000
v -0.042564 -0.000514 -0.048212
v -0.042260 0.020684 -0.053011
v -0.029214 -0.000763 -0.044445
v -0.002698 0.095032 0.000886
v 0.013241 0.058092 0.008404
v 0.010633 0.093782 0.012775
v -0.000412 0.060833 -0.001674
v -0.011089 0.095259 -0.014720
v -0.007484 0.066137 -0.015819
v -0.003870 0.049424 0.000044
v -0.013649 0.047903 -0.014393
v -0.001367 0.029693 0.003442
v 0.019269 0.039224 0.019202
v -0.017323 0.031186 -0.011111
v 0.013561 0.020668 0.016755
v 0.031110 0.024561 0.032851
v 0.000207 0.017757 0.001452
v -0.016150 0.022050 -0.013028
v -0.013473 0.002026 -0.011696
v -0.000421 0.001256 0.001077
v 0.013264 0.006107 0.012285
v 0.025601 -0.000716 0.028306
v 0.024751 0.012901 0.030446
v 0.045206 0.012254 0.041418
v 0.045980 -0.001329 0.041626
v -0.015864 0.089803 -0.022990
v -0.014369 0.085111 -0.005775
v -0.024639 0.053611 -0.011817
v -0.024624 0.057762 -0.028838
v -0.023466 0.093992 -0.038477
v -0.031176 0.064244 -0.042402
v -0.022450 0.046472 -0.031811
v -0.029627 0.046711 -0.047878
v -0.021145 0.027431 -0.027675
v -0.015796 0.034123 -0.006686
v -0.026205 0.028190 -0.048709
v -0.016847 0.019100 -0.007834
v -0.011230 0.024036 0.015507
v -0.023911 0.015579 -0.026773
v -0.028651 0.019117 -0.048236
v -0.029214 -0.000763 -0.044445
v -0.024304 -0.000933 -0.026839
v -0.020945 0.004541 -0.009658
v -0.012842 -0.001449 0.009339
v -0.010372 0.012140 0.009184
v -0.010867 0.012450 0.032215
v -0.011266 -0.001097 0.033700
f 1 2 3
f 1 3 4
f 1 4 5
f 6 5 4
f 6 7 5
f 8 7 6
f 8 9 7
f 10 11 12
f 12 13 10
f 13 12 14
f 13 14 15
f 15 14 16
f 17 18 19
f 20 17 19
f 20 19 21
f 21 22 20
f 22 21 23
f 24 25 26
f 24 27 25
f 27 28 25
f 27 29 28
f 30 28 29
f 30 29 31
f 30 31 32
f 33 34 35
f 36 34 33
f 36 37 34
f 33 38 36
f 39 38 33
f 40 37 36
f 40 41 37
f 39 42 38
f 43 42 39
f 38 44 36
f 36 44 40
f 45 41 40
f 45 46 41
f 43 47 42
f 48 47 43
f 42 49 38
f 38 49 44
f 42 47 49
f 44 50 40
f 40 50 45
f 49 51 44
f 44 51 50
f 48 52 47
f 53 47 52
f 54 52 48
f 55 52 54
f 56 52 55
f 52 56 53
f 57 53 56
f 57 58 53
f 47 59 49
f 59 51 49
f 47 53 59
f 50 60 45
f 51 61 50
f 50 61 60
f 51 59 62
f 62 61 51
f 59 53 63
f 59 63 62
f 53 58 64
f 53 64 63
f 64 58 65
f 63 64 65
f 66 65 58
f 65 66 67
f 66 68 67
f 67 68 69
f 65 67 70
f 67 69 70
f 65 70 63
f 70 69 71
f 72 70 71
f 73 63 70
f 70 72 73
f 62 63 73
f 74 73 72
f 73 74 62
f 74 61 62
f 75 76 61
f 60 61 76
f 76 77 60
f 78 60 77
f 45 60 78
f 78 46 45
f 46 78 77
f 77 79 46
f 80 81 82
f 82 83 80
f 84 80 83
f 83 85 84
f 86 84 85
f 85 87 86
f 88 86 87
f 87 89 88
f 90 88 89
f 89 91 90
f 92 90 91
f 91 93 92
f 94 92 93
f 93 95 94
f 96 94 95
f 95 97 96
f 98 99 100
f 98 100 101
f 98 101 102
f 98 102 103
f 102 104 103
f 102 105 104
f 106 107 108
f 106 109 107
f 106 110 109
f 106 111 110
f 110 111 112
f 110 112 113
f 114 115 116
f 115 114 117
f 118 117 114
f 117 118 119
f 120 119 118
f 119 120 121
f 122 121 120
f 121 122 123
f 124 123 122
f 123 124 125
f 126 125 124
f 125 126 127
f 128 127 126
f 127 128 129
f 130 129 128
f 129 130 131
f 132 133 134
f 135 132 134
f 135 134 136
f 132 135 137
f 138 132 137
f 139 135 136
f 139 136 140
f 138 137 141
f 142 138 141
f 137 135 143
f 135 139 143
f 144 139 140
f 144 140 145
f 142 141 146
f 147 142 146
f 141 137 148
f 137 143 148
f 141 148 146
f 143 139 149
f 139 144 149
f 148 143 150
f 143 149 150
f 147 146 151
f 152 151 146
f 153 147 151
f 154 153 151
f 155 154 151
f 151 152 155
f 156 155 152
f 156 152 157
f 146 148 158
f 158 148 150
f 146 158 152
f 149 144 159
f 150 149 160
f 149 159 160
f 150 161 158
f 161 150 160
f 158 162 152
f 158 161 162
f 152 163 157
f 152 162 163
f 163 164 157
f 162 164 163
f 165 157 164
f 164 166 165
f 165 166 167
f 166 168 167
f 164 169 166
f 166 169 168
f 164 162 169
f 169 170 168
f 171 170 169
f 172 169 162
f 169 172 171
f 161 172 162
f 173 171 172
f 172 161 173
f 173 161 160
f 174 160 175
f 159 175 160
f 175 159 176
f 177 176 159
f 144 177 159
f 177 144 145
f 145 176 177
f 176 145 178
f 179 180 181
f 182 180 179
f 183 182 179
f 184 182 183
f 184 185 182
f 185 180 182
f 186 185 184
f 185 187 180
f 186 187 185
f 180 187 188
f 189 187 186
f 190 188 187
f 188 190 191
f 189 192 187
f 187 192 190
f 193 192 189
f 194 192 193
f 192 194 195
f 190 192 196
f 197 190 196
f 198 191 190
f 190 197 198
f 199 191 198
f 200 198 197
f 198 200 199
f 201 202 203
f 204 201 203
f 205 201 204
f 206 205 204
f 206 204 207
f 207 204 203
f 208 206 207
f 207 203 209
f 208 207 209
f 203 210 209
f 211 208 209
f 212 209 210
f 210 213 212
f 211 209 214
f 209 212 214
f 215 211 214
f 216 215 214
f 214 217 216
f 212 218 214
f 219 218 212
f 220 212 213
f 212 220 219
f 221 220 213
f 222 219 220
f 220 221 222
