# Pawns/Pawn11/model/Bodyparts/FMagic_m000_m00_ah(Clone)  mesh=FMagic_m000_m00_ah.mo
v -0.021857 0.660014 0.000181
v -0.025370 0.700208 -0.012119
v -0.023933 0.662149 -0.024878
v -0.025286 0.695967 0.009829
v -0.008971 0.692940 0.028531
v -0.008562 0.659853 0.027182
v -0.010200 0.709715 0.031763
v -0.024160 0.716574 0.015611
v -0.026084 0.722593 -0.004367
v -0.009226 0.729577 0.038084
v -0.023485 0.744229 0.003698
v -0.022654 0.729580 0.020318
v -0.019247 0.743001 0.026519
v -0.004808 0.748143 0.045386
v -0.019459 0.756213 0.009930
v -0.013262 0.754822 0.032564
v -0.001553 0.754645 0.046937
v -0.014110 0.760305 0.020968
v -0.014207 0.763918 0.015095
v -0.007029 0.767448 0.022598
v -0.004993 0.760970 0.036921
v 0.004043 0.756587 0.047721
v 0.004454 0.763754 0.039191
v 0.001804 0.769101 0.027346
v 0.011972 0.768954 0.028256
v 0.011448 0.759723 0.040430
v 0.010850 0.746332 0.043166
v 0.001768 0.746957 0.040485
v -0.007146 0.746776 0.034890
v -0.001553 0.754645 0.046937
v -0.004808 0.748143 0.045386
v -0.011775 0.745156 0.030193
v -0.009226 0.729577 0.038084
v 0.037061 0.657516 0.000824
v 0.039856 0.659444 -0.024182
v 0.044231 0.697256 -0.011359
v 0.043310 0.693058 0.010578
v 0.026609 0.691431 0.028919
v 0.023430 0.658497 0.027531
v 0.029183 0.708045 0.032192
v 0.043807 0.713692 0.016353
v 0.046668 0.719508 -0.003573
v 0.029756 0.727924 0.038509
v 0.045736 0.741294 0.004453
v 0.043305 0.726783 0.021038
v 0.040913 0.740449 0.027175
v 0.026768 0.746804 0.045731
v 0.042603 0.753581 0.010607
v 0.035819 0.752741 0.033099
v 0.023827 0.753569 0.047214
v 0.037226 0.758128 0.021528
v 0.037457 0.761727 0.015659
v 0.030572 0.766130 0.023057
v 0.028008 0.759570 0.037281
v 0.018400 0.755978 0.047878
v 0.018783 0.763146 0.039348
v 0.022133 0.768239 0.027568
v 0.011972 0.768954 0.028256
v 0.011448 0.759723 0.040430
v 0.010850 0.746332 0.043166
v 0.020009 0.746184 0.040684
v 0.028995 0.745244 0.035277
v 0.023827 0.753569 0.047214
v 0.026768 0.746804 0.045731
v 0.033572 0.743232 0.030696
v 0.029756 0.727924 0.038509
v -0.011588 0.741849 0.030526
v -0.007253 0.743243 0.034711
v -0.011775 0.745156 0.030193
v -0.007146 0.746776 0.034890
v 0.001603 0.741831 0.039981
v 0.001768 0.746957 0.040485
v 0.010614 0.740565 0.042419
v 0.010850 0.746332 0.043166
v 0.020009 0.746184 0.040684
v 0.010850 0.746332 0.043166
v 0.010614 0.740565 0.042419
v 0.019750 0.741061 0.040179
v 0.028995 0.745244 0.035277
v 0.028807 0.741714 0.035105
v 0.033572 0.743232 0.030696
v 0.033098 0.739954 0.031014
f 1 2 3
f 2 1 4
f 5 4 1
f 1 6 5
f 4 5 7
f 2 4 8
f 7 8 4
f 8 9 2
f 8 7 10
f 8 11 9
f 10 12 8
f 12 11 8
f 12 10 13
f 11 12 13
f 13 10 14
f 13 15 11
f 14 16 13
f 16 14 17
f 13 18 15
f 18 13 16
f 19 15 18
f 18 20 19
f 17 21 16
f 21 18 16
f 18 21 20
f 21 17 22
f 20 21 23
f 22 23 21
f 23 24 20
f 23 25 24
f 26 25 23
f 23 22 26
f 26 22 27
f 28 27 22
f 29 28 22
f 30 29 22
f 31 29 30
f 31 32 29
f 31 33 32
f 34 35 36
f 36 37 34
f 38 34 37
f 34 38 39
f 37 40 38
f 36 41 37
f 40 37 41
f 41 36 42
f 41 43 40
f 41 42 44
f 43 41 45
f 45 41 44
f 45 46 43
f 44 46 45
f 46 47 43
f 46 44 48
f 47 46 49
f 49 50 47
f 46 48 51
f 51 49 46
f 52 51 48
f 51 52 53
f 50 49 54
f 54 49 51
f 51 53 54
f 54 55 50
f 53 56 54
f 55 54 56
f 56 53 57
f 56 57 58
f 59 56 58
f 56 59 55
f 59 60 55
f 61 55 60
f 62 55 61
f 63 55 62
f 64 63 62
f 64 62 65
f 64 65 66
f 67 68 69
f 70 69 68
f 68 71 70
f 72 70 71
f 73 72 71
f 72 73 74
f 75 76 77
f 77 78 75
f 75 78 79
f 80 79 78
f 79 80 81
f 82 81 80
