# Pawns/Pawn21/model/Bodyparts/FOrc_m001_g(Clone)  mesh=FOrc_m001_g.mo
v -0.059880 0.599477 0.024398
v -0.088949 0.591658 -0.036786
v -0.090617 0.603409 0.001522
v -0.040547 0.592653 0.025178
v -0.075414 0.582650 -0.051317
v -0.052112 0.575527 -0.049398
v -0.024687 0.584033 0.013755
v -0.020080 0.572420 -0.024621
v 0.183923 0.568429 -0.090096
v 0.167020 0.559888 -0.080091
v 0.170690 0.527049 -0.093785
v 0.188745 0.533371 -0.111574
v 0.190519 0.576641 -0.107765
v 0.177390 0.488772 -0.106957
v 0.180290 0.584972 -0.144063
v 0.192279 0.493641 -0.120602
v 0.178174 0.485960 -0.110874
v 0.178361 0.536817 -0.143223
v 0.143057 0.576982 -0.156982
v 0.146980 0.533840 -0.155487
v 0.124044 0.568526 -0.150270
v 0.182484 0.496975 -0.148849
v 0.190714 0.490217 -0.127491
v 0.178921 0.492086 -0.147299
v 0.201375 0.473071 -0.129150
v 0.182209 0.476193 -0.107180
v 0.188088 0.459488 -0.108326
v 0.133284 0.527141 -0.131379
v 0.117086 0.559626 -0.128522
v 0.141834 0.489800 -0.145726
v 0.160359 0.496004 -0.164040
v 0.155705 0.492749 -0.158006
v 0.143536 0.487642 -0.141255
v 0.157739 0.458616 -0.173407
v 0.144549 0.456086 -0.150602
v 0.204255 0.446402 -0.118146
v 0.188503 0.456577 -0.109939
v 0.198885 0.446971 -0.118658
v 0.185859 0.438702 -0.122678
v 0.208107 0.450336 -0.142465
v 0.188316 0.457506 -0.163753
v 0.157813 0.440101 -0.172398
v 0.159862 0.440352 -0.178521
v 0.185846 0.430068 -0.171416
v 0.205226 0.424856 -0.152172
v 0.200485 0.424340 -0.145882
v 0.193090 0.426967 -0.132031
v 0.150516 0.440137 -0.159563
v 0.196084 0.418623 -0.142600
v 0.180508 0.428883 -0.161765
v 0.184868 0.418905 -0.128980
v 0.154536 0.431837 -0.169946
v 0.146917 0.439033 -0.149950
v 0.177254 0.422983 -0.157815
v 0.183037 0.408786 -0.134504
v 0.164573 0.415593 -0.145263
v 0.143551 0.429480 -0.156290
v 0.179199 0.409873 -0.128472
v 0.141352 0.430465 -0.149669
v 0.146931 0.442614 -0.142191
v 0.141736 0.438969 -0.137666
v 0.161432 0.416354 -0.139166
v 0.141736 0.438969 -0.137666
v 0.159399 0.425118 -0.126865
v 0.160437 0.437681 -0.117180
v 0.175082 0.426273 -0.112082
v 0.175362 0.418874 -0.117640
v 0.182263 0.423639 -0.123048
v 0.181507 0.430528 -0.117992
v 0.198885 0.446971 -0.118658
v 0.188503 0.456577 -0.109939
v 0.188614 0.451249 -0.107126
v 0.196389 0.443033 -0.116427
v 0.185859 0.438702 -0.122678
v 0.177616 0.443163 -0.100416
v 0.185236 0.432853 -0.105382
v 0.174446 0.439654 -0.099836
v 0.182358 0.433171 -0.113816
v 0.181933 0.429834 -0.104648
v 0.159916 0.430500 -0.110794
v 0.163247 0.424478 -0.113940
v 0.163921 0.427804 -0.120580
v 0.190519 0.576641 -0.107765
v 0.180290 0.584972 -0.144063
v 0.143057 0.576982 -0.156982
v 0.183923 0.568429 -0.090096
v 0.124044 0.568526 -0.150270
v 0.117086 0.559626 -0.128522
v 0.167020 0.559888 -0.080091
v 0.128690 0.551835 -0.090270
v -0.052112 0.575527 -0.049398
v -0.058235 0.544099 -0.032079
v -0.075414 0.582650 -0.051317
v -0.085958 0.549257 -0.028325
v -0.088949 0.591658 -0.036786
v -0.071768 0.506091 -0.025360
v -0.085823 0.555571 0.004810
v -0.090617 0.603409 0.001522
v -0.059804 0.556031 0.025741
v -0.059880 0.599477 0.024398
v -0.040547 0.592653 0.025178
v -0.036449 0.550316 0.015712
v -0.024687 0.584033 0.013755
v -0.048986 0.512188 0.021334
v -0.067309 0.515807 0.029787
v -0.056816 0.515249 0.022113
v -0.089959 0.514692 0.010405
v -0.095801 0.510554 -0.015329
v -0.087206 0.502393 0.006350
v -0.076775 0.509639 0.025509
v -0.085223 0.499553 -0.018908
v -0.064924 0.504473 -0.021772
v -0.074611 0.493295 0.037207
v -0.051503 0.509433 0.029146
v -0.044512 0.492976 0.038331
v -0.079441 0.461470 -0.017870
v -0.055554 0.472760 -0.019280
v -0.058042 0.475581 0.049414
v -0.045097 0.489583 0.038435
v -0.055330 0.476371 0.044420
v -0.047768 0.468114 0.033004
v -0.075694 0.466460 0.041476
v -0.068296 0.445889 -0.014418
v -0.054283 0.452318 -0.015730
v -0.085810 0.462901 0.013534
v -0.074332 0.443054 -0.015139
v -0.078192 0.437389 0.013556
v -0.071127 0.442494 0.040020
v -0.063406 0.445134 0.038468
v -0.049653 0.454485 0.036835
v -0.056001 0.441422 0.037295
v -0.067212 0.441098 0.013005
v -0.040594 0.447466 0.033567
v -0.061051 0.439402 -0.014288
v -0.044069 0.452433 -0.013802
v -0.059815 0.437567 0.013175
v -0.040772 0.435888 0.032751
v -0.041946 0.435405 0.010383
v -0.044282 0.440847 -0.016443
v -0.034392 0.439054 0.031750
v -0.038248 0.444347 -0.015770
v -0.039363 0.459069 -0.011496
v -0.031893 0.457379 -0.012830
v -0.035769 0.438381 0.010102
v -0.031893 0.457379 -0.012830
v -0.027944 0.451560 0.010997
v -0.025160 0.467161 0.012206
v -0.024927 0.460674 0.030278
v -0.026916 0.451633 0.030383
v -0.036342 0.454082 0.032439
v -0.034325 0.462399 0.031871
v -0.055330 0.476371 0.044420
v -0.041111 0.485585 0.041475
v -0.045097 0.489583 0.038435
v -0.050671 0.473686 0.044571
v -0.047768 0.468114 0.033004
v -0.030047 0.477171 0.041473
v -0.037511 0.466513 0.045928
v -0.026591 0.473686 0.041063
v -0.040458 0.463612 0.037702
v -0.033935 0.463533 0.045389
v -0.018977 0.459614 0.029518
v -0.022562 0.453233 0.031438
v -0.027003 0.453441 0.025451
v 0.128690 0.551835 -0.090270
v 0.170690 0.527049 -0.093785
v 0.167020 0.559888 -0.080091
v 0.139341 0.522251 -0.104170
v 0.177390 0.488772 -0.106957
v 0.133284 0.527141 -0.131379
v 0.117086 0.559626 -0.128522
v 0.141834 0.489800 -0.145726
v 0.149301 0.484763 -0.117433
v 0.143536 0.487642 -0.141255
v 0.154911 0.483592 -0.119069
v 0.178174 0.485960 -0.110874
v 0.144549 0.456086 -0.150602
v 0.182209 0.476193 -0.107180
v 0.159714 0.455458 -0.120520
v 0.172925 0.432098 -0.146244
v 0.150516 0.440137 -0.159563
v 0.146917 0.439033 -0.149950
v 0.173080 0.445398 -0.116797
v 0.188088 0.459488 -0.108326
v 0.185859 0.438702 -0.122678
v 0.178426 0.447687 -0.115828
v 0.188503 0.456577 -0.109939
v 0.193090 0.426967 -0.132031
v 0.188614 0.451249 -0.107126
v 0.174222 0.443817 -0.109236
v 0.185859 0.438702 -0.122678
v 0.177616 0.443163 -0.100416
v 0.182358 0.433171 -0.113816
v 0.163921 0.427804 -0.120580
v 0.174446 0.439654 -0.099836
v 0.160499 0.433953 -0.117547
v 0.159916 0.430500 -0.110794
v 0.163921 0.427804 -0.120580
v 0.163247 0.424478 -0.113940
v 0.166993 0.425242 -0.139676
v 0.184868 0.418905 -0.128980
v 0.146931 0.442614 -0.142191
v 0.165130 0.429193 -0.132769
v 0.182263 0.423639 -0.123048
v 0.166112 0.441346 -0.123502
v 0.181507 0.430528 -0.117992
v 0.160437 0.437681 -0.117180
v 0.175082 0.426273 -0.112082
v 0.141736 0.438969 -0.137666
v 0.146931 0.442614 -0.142191
v -0.020080 0.572420 -0.024621
v -0.058235 0.544099 -0.032079
v -0.052112 0.575527 -0.049398
v -0.034720 0.542387 -0.016563
v -0.071768 0.506091 -0.025360
v -0.036449 0.550316 0.015712
v -0.024687 0.584033 0.013755
v -0.048986 0.512188 0.021334
v -0.048055 0.505430 -0.007936
v -0.064924 0.504473 -0.021772
v -0.051501 0.511066 -0.001608
v -0.056816 0.515249 0.022113
v -0.055554 0.472760 -0.019280
v -0.051503 0.509433 0.029146
v -0.040293 0.486943 0.007190
v -0.052295 0.451837 0.011737
v -0.054283 0.452318 -0.015730
v -0.044069 0.452433 -0.013802
v -0.037373 0.477708 0.024017
v -0.044512 0.492976 0.038331
v -0.047768 0.468114 0.033004
v -0.040656 0.479796 0.028568
v -0.045097 0.489583 0.038435
v -0.049653 0.454485 0.036835
v -0.041111 0.485585 0.041475
v -0.032873 0.474400 0.032523
v -0.047768 0.468114 0.033004
v -0.030047 0.477171 0.041473
v -0.040458 0.463612 0.037702
v -0.027003 0.453441 0.025451
v -0.026591 0.473686 0.041063
v -0.023416 0.459877 0.023346
v -0.018977 0.459614 0.029518
v -0.027003 0.453441 0.025451
v -0.022562 0.453233 0.031438
v -0.041871 0.446653 0.011870
v -0.040594 0.447466 0.033567
v -0.039363 0.459069 -0.011496
v -0.036916 0.453063 0.012060
v -0.036342 0.454082 0.032439
v -0.034291 0.468108 0.013168
v -0.034325 0.462399 0.031871
v -0.025160 0.467161 0.012206
v -0.024927 0.460674 0.030278
v -0.031893 0.457379 -0.012830
v -0.039363 0.459069 -0.011496
v -0.068296 0.445889 -0.014418
v -0.074332 0.443054 -0.015139
v -0.079441 0.461470 -0.017870
v -0.067212 0.441098 0.013005
v -0.078192 0.437389 0.013556
v -0.063406 0.445134 0.038468
v -0.071127 0.442494 0.040020
v -0.075694 0.466460 0.041476
v 0.208107 0.450336 -0.142465
v 0.200485 0.424340 -0.145882
v 0.205226 0.424856 -0.152172
v 0.185846 0.430068 -0.171416
v 0.180508 0.428883 -0.161765
v 0.159862 0.440352 -0.178521
v 0.157813 0.440101 -0.172398
v 0.157739 0.458616 -0.173407
f 1 2 3
f 1 4 2
f 2 4 5
f 5 4 6
f 6 4 7
f 6 7 8
f 9 10 11
f 11 12 9
f 13 9 12
f 12 11 14
f 15 13 12
f 14 16 12
f 17 16 14
f 15 12 18
f 18 12 16
f 19 15 18
f 19 18 20
f 21 19 20
f 18 16 22
f 20 18 22
f 16 17 23
f 16 23 22
f 22 23 24
f 25 23 17
f 24 23 25
f 25 17 26
f 26 27 25
f 28 21 20
f 29 21 28
f 30 28 20
f 20 22 31
f 30 20 31
f 22 24 31
f 31 32 30
f 31 24 32
f 30 32 33
f 34 33 32
f 24 34 32
f 33 34 35
f 36 25 27
f 36 27 37
f 37 38 36
f 39 36 38
f 25 36 40
f 25 40 24
f 39 40 36
f 34 24 41
f 40 41 24
f 34 42 35
f 34 41 43
f 44 43 41
f 45 44 41
f 41 40 45
f 46 40 39
f 39 47 46
f 48 35 42
f 46 47 49
f 46 49 50
f 47 51 49
f 52 48 42
f 52 53 48
f 50 54 42
f 54 50 49
f 52 42 54
f 49 55 54
f 55 49 51
f 54 56 52
f 56 54 55
f 53 52 57
f 57 52 56
f 58 55 51
f 55 58 56
f 53 57 59
f 53 59 60
f 61 60 59
f 56 62 57
f 59 57 62
f 62 56 58
f 59 62 63
f 63 62 64
f 62 58 64
f 64 65 63
f 65 64 66
f 58 51 67
f 64 58 67
f 67 66 64
f 67 51 68
f 67 68 66
f 69 66 68
f 70 71 72
f 73 70 72
f 70 73 74
f 72 75 73
f 73 76 74
f 73 75 76
f 75 77 76
f 78 74 76
f 77 79 76
f 76 79 78
f 79 77 80
f 80 81 79
f 79 81 78
f 82 78 81
f 83 84 85
f 83 85 86
f 85 87 86
f 87 88 86
f 88 89 86
f 88 90 89
f 91 92 93
f 92 94 93
f 93 94 95
f 96 94 92
f 95 94 97
f 95 97 98
f 98 97 99
f 98 99 100
f 100 99 101
f 102 101 99
f 101 102 103
f 99 104 102
f 104 99 105
f 97 105 99
f 106 104 105
f 94 107 97
f 97 107 105
f 96 108 94
f 94 108 107
f 107 108 109
f 105 107 110
f 105 110 106
f 107 109 110
f 108 96 111
f 108 111 109
f 96 112 111
f 113 106 110
f 109 113 110
f 113 114 106
f 114 113 115
f 116 111 112
f 109 111 116
f 112 117 116
f 118 115 113
f 118 119 115
f 119 118 120
f 121 120 118
f 113 122 118
f 113 109 122
f 121 118 122
f 116 117 123
f 124 123 117
f 116 125 109
f 122 109 125
f 116 126 125
f 127 125 126
f 128 125 127
f 125 128 122
f 129 121 122
f 121 129 130
f 129 131 130
f 129 132 131
f 130 131 133
f 134 123 124
f 134 124 135
f 132 123 136
f 136 131 132
f 134 136 123
f 131 136 137
f 137 133 131
f 136 134 138
f 138 137 136
f 135 139 134
f 139 138 134
f 140 133 137
f 137 138 140
f 135 141 139
f 135 142 141
f 143 141 142
f 138 139 144
f 141 144 139
f 144 140 138
f 141 145 144
f 145 146 144
f 144 146 140
f 146 145 147
f 147 148 146
f 140 149 133
f 146 149 140
f 149 146 148
f 149 150 133
f 149 148 150
f 151 150 148
f 152 153 154
f 155 153 152
f 152 156 155
f 153 155 157
f 155 156 158
f 155 158 157
f 157 158 159
f 160 158 156
f 159 158 161
f 158 160 161
f 161 162 159
f 162 161 163
f 161 160 163
f 164 163 160
f 165 166 167
f 165 168 166
f 169 166 168
f 165 170 168
f 165 171 170
f 168 170 172
f 168 172 173
f 169 168 173
f 172 174 173
f 175 169 173
f 173 174 175
f 169 175 176
f 177 175 174
f 175 178 176
f 175 177 179
f 175 179 178
f 177 180 179
f 180 177 181
f 181 182 180
f 178 179 183
f 183 184 178
f 179 185 183
f 185 179 180
f 184 183 186
f 185 186 183
f 186 187 184
f 180 188 185
f 189 187 186
f 186 190 189
f 186 191 190
f 192 189 190
f 193 190 191
f 193 194 190
f 195 192 190
f 196 190 194
f 190 196 195
f 197 195 196
f 196 198 197
f 199 197 198
f 180 200 188
f 200 180 182
f 201 188 200
f 182 202 200
f 200 203 201
f 203 200 202
f 204 201 203
f 205 203 202
f 203 205 204
f 206 204 205
f 205 207 206
f 208 206 207
f 207 205 209
f 210 209 205
f 211 212 213
f 211 214 212
f 214 215 212
f 211 216 214
f 211 217 216
f 218 214 216
f 214 219 215
f 218 219 214
f 215 219 220
f 221 219 218
f 219 221 220
f 218 222 221
f 223 220 221
f 221 222 224
f 221 225 223
f 221 224 225
f 223 225 226
f 226 227 223
f 227 226 228
f 224 229 225
f 229 224 230
f 225 229 231
f 231 226 225
f 230 232 229
f 231 229 232
f 232 230 233
f 226 231 234
f 235 232 233
f 232 235 236
f 232 236 237
f 238 236 235
f 239 237 236
f 239 236 240
f 241 236 238
f 242 240 236
f 236 241 242
f 243 242 241
f 242 243 244
f 245 244 243
f 226 234 246
f 246 228 226
f 247 246 234
f 228 246 248
f 246 247 249
f 249 248 246
f 250 249 247
f 251 248 249
f 249 250 251
f 252 251 250
f 251 252 253
f 254 253 252
f 253 255 251
f 256 251 255
f 257 258 259
f 260 258 257
f 258 260 261
f 262 261 260
f 261 262 263
f 264 263 262
f 265 266 267
f 268 267 266
f 266 269 268
f 270 268 269
f 269 271 270
f 271 272 270
