# Pawns/Pawn21/model/Bodyparts/FOrc_m000_m00_bh(Clone)  mesh=FOrc_m000_m00_bh.mo
v -0.084449 0.940279 -0.071002
v -0.043198 0.952163 -0.051860
v -0.065573 0.970036 -0.076083
v -0.052668 0.934179 -0.050900
v -0.025518 0.935381 -0.045674
v -0.023961 0.928594 -0.043754
v -0.011398 0.938926 -0.049420
v -0.036567 0.951624 -0.045098
v -0.015811 0.958754 -0.052784
v -0.027928 0.984012 -0.051148
v -0.051613 0.972374 -0.045041
v -0.009113 0.925315 -0.050029
v -0.008685 0.910443 -0.054202
v -0.035202 0.910946 -0.054454
v -0.015776 0.907411 -0.067220
v -0.053064 0.914071 -0.062177
v -0.052509 0.935430 -0.049631
v -0.084376 0.914823 -0.073022
v -0.090221 0.942879 -0.064364
v -0.032373 0.906559 -0.061218
v -0.023645 0.899563 -0.083141
v -0.041100 0.903018 -0.076118
v -0.040993 0.888119 -0.090988
v -0.028312 0.886540 -0.095341
v -0.046353 0.899986 -0.077877
v -0.056112 0.914475 -0.061785
v -0.078524 0.906087 -0.071433
v -0.074358 0.890007 -0.082476
v 0.008358 0.932840 -0.127733
v 0.010453 0.962439 -0.123760
v 0.009678 0.947513 -0.086320
v 0.003658 0.925092 -0.095642
v 0.001891 0.933617 -0.059006
v 0.004767 0.918711 -0.078035
v -0.008685 0.910443 -0.054202
v -0.009113 0.925315 -0.050029
v -0.015776 0.907411 -0.067220
v -0.011398 0.938926 -0.049420
v -0.001016 0.912651 -0.079718
v -0.023645 0.899563 -0.083141
v -0.008994 0.909255 -0.095059
v -0.019429 0.892309 -0.103711
v -0.028312 0.886540 -0.095341
v -0.009217 0.907202 -0.099786
v 0.005230 0.926393 -0.097976
v 0.008735 0.923040 -0.122914
v 0.001995 0.904842 -0.127523
v -0.000473 0.940246 -0.060450
v 0.009019 0.946164 -0.087294
v -0.001038 0.960354 -0.076733
v 0.002222 0.957119 -0.122136
v -0.018814 0.979121 -0.103670
v 0.001932 0.959104 -0.067812
v -0.015811 0.958754 -0.052784
v -0.016130 0.986304 -0.058108
v 0.002830 0.982952 -0.077161
v -0.028452 0.894314 -0.150493
v -0.045033 0.911242 -0.161458
v -0.034206 0.938486 -0.151934
v -0.018442 0.918665 -0.144254
v -0.014917 0.925332 -0.124489
v -0.022286 0.951159 -0.120245
v -0.077389 0.884806 -0.121622
v -0.088451 0.927947 -0.119931
v -0.084123 0.903647 -0.138396
v -0.083341 0.906055 -0.105965
v -0.069944 0.914641 -0.092024
v -0.070306 0.941830 -0.091914
v -0.047817 0.920652 -0.075342
v -0.013168 0.908140 -0.064973
v -0.024759 0.913310 -0.053951
v -0.027810 0.912741 -0.085862
v -0.058703 0.915300 -0.096309
v -0.012205 0.927571 -0.096352
v -0.001668 0.917796 -0.067574
v -0.023731 0.922094 -0.116941
v -0.037736 0.908000 -0.104248
v -0.059288 0.898772 -0.119241
v -0.038363 0.902838 -0.131586
v -0.046635 0.898186 -0.122563
v 0.005230 0.926393 -0.097976
v -0.009217 0.907202 -0.099786
v -0.018687 0.905642 -0.120938
v -0.011898 0.926977 -0.125290
v -0.007660 0.910174 -0.151334
v -0.015492 0.892063 -0.146406
v -0.011898 0.926977 -0.125290
v -0.018687 0.905642 -0.120938
v -0.024987 0.893645 -0.153608
v -0.021524 0.905816 -0.157882
v -0.081389 0.882686 -0.120332
v -0.072425 0.915217 -0.089580
v -0.089976 0.892516 -0.117497
v -0.059728 0.897668 -0.096725
v -0.059728 0.897668 -0.096725
v -0.056112 0.914475 -0.061785
v -0.072425 0.915217 -0.089580
v -0.046353 0.899986 -0.077877
v -0.072425 0.915217 -0.089580
v -0.091766 0.893832 -0.101713
v -0.059728 0.897668 -0.096725
v -0.079022 0.879719 -0.108925
v -0.017226 0.924709 -0.045928
v -0.001674 0.918189 -0.039768
v -0.008992 0.927496 -0.049106
v -0.012377 0.912063 -0.037542
v -0.027050 0.913689 -0.049860
v -0.019803 0.904419 -0.040623
v -0.019999 0.897097 -0.050673
v -0.023419 0.908839 -0.059177
v -0.010380 0.895910 -0.061861
v -0.015776 0.907411 -0.067220
v -0.001855 0.927696 -0.054997
v -0.008992 0.927496 -0.049106
v -0.001674 0.918189 -0.039768
v 0.006682 0.915766 -0.048786
v 0.002241 0.919380 -0.067141
v 0.009493 0.910111 -0.057907
v 0.003076 0.901580 -0.064287
v -0.004525 0.912510 -0.070324
v -0.010380 0.895910 -0.061861
v -0.015776 0.907411 -0.067220
v -0.015776 0.907411 -0.067220
v -0.008992 0.927496 -0.049106
v -0.001855 0.927696 -0.054997
v 0.002241 0.919380 -0.067141
v -0.004525 0.912510 -0.070324
v -0.015776 0.907411 -0.067220
v -0.017226 0.924709 -0.045928
v -0.008992 0.927496 -0.049106
v -0.027050 0.913689 -0.049860
v -0.023419 0.908839 -0.059177
v -0.010380 0.895910 -0.061861
v 0.003076 0.901580 -0.064287
v -0.010045 0.891698 -0.062680
v 0.004218 0.895933 -0.066661
v 0.015948 0.908408 -0.056933
v 0.009493 0.910111 -0.057907
v 0.006682 0.915766 -0.048786
v 0.009833 0.885162 -0.070389
v -0.009348 0.881184 -0.064962
v 0.022008 0.895536 -0.064133
v 0.010104 0.869691 -0.070136
v -0.006232 0.864032 -0.065328
v 0.028900 0.874076 -0.064507
v 0.016804 0.855496 -0.064629
v 0.000271 0.849319 -0.059151
v 0.030142 0.860893 -0.060472
v 0.021773 0.838556 -0.052310
v 0.009258 0.835951 -0.048321
v 0.010901 0.830425 -0.047356
v 0.026146 0.833110 -0.049256
v 0.030417 0.840172 -0.049603
v 0.037036 0.834915 -0.044510
v 0.038672 0.864402 -0.051582
v 0.039290 0.847806 -0.043363
v 0.046184 0.846691 -0.032727
v 0.045892 0.858165 -0.036455
v 0.044070 0.867193 -0.044141
v 0.044536 0.878630 -0.045884
v 0.040134 0.886861 -0.052778
v 0.050183 0.881354 -0.036272
v 0.045170 0.901990 -0.036807
v 0.037567 0.899904 -0.051401
v 0.031638 0.911878 -0.048148
v 0.023960 0.918378 -0.042526
v 0.037851 0.913966 -0.035308
v 0.017616 0.921828 -0.036246
v -0.001674 0.918189 -0.039768
v 0.004360 0.921033 -0.028603
v 0.011939 0.921211 -0.015698
v 0.027379 0.921081 -0.025548
v 0.019683 0.917539 -0.003782
v 0.042933 0.911450 -0.026398
v 0.035208 0.917855 -0.014253
v 0.042512 0.910231 -0.004441
v 0.026110 0.911754 0.005206
v 0.031241 0.904462 0.011502
v 0.047412 0.906846 -0.016676
v 0.045523 0.900699 0.002534
v 0.036066 0.893615 0.016108
v 0.050956 0.899202 -0.006761
v 0.053516 0.893262 -0.015195
v 0.052040 0.892580 -0.027406
v 0.055776 0.885747 -0.018513
v 0.054445 0.884236 -0.024737
v 0.055251 0.877752 -0.025378
v -0.010380 0.895910 -0.061861
v -0.010045 0.891698 -0.062680
v -0.019999 0.897097 -0.050673
v -0.020943 0.891045 -0.051816
v -0.021356 0.901160 -0.034924
v -0.019803 0.904419 -0.040623
v -0.012377 0.912063 -0.037542
v -0.023586 0.878669 -0.050673
v -0.009348 0.881184 -0.064962
v -0.026563 0.886099 -0.035477
v -0.019153 0.864007 -0.052876
v -0.006232 0.864032 -0.065328
v -0.023919 0.863814 -0.033345
v -0.013452 0.849617 -0.046778
v 0.000271 0.849319 -0.059151
v -0.017338 0.851668 -0.032460
v -0.000416 0.834245 -0.039219
v 0.009258 0.835951 -0.048321
v 0.010901 0.830425 -0.047356
v 0.001774 0.828375 -0.034877
v -0.002395 0.833797 -0.030245
v 0.000482 0.827812 -0.022944
v -0.014532 0.854065 -0.020192
v -0.003155 0.839559 -0.018321
v 0.003159 0.838331 -0.007342
v -0.003103 0.848646 -0.007549
v -0.011372 0.856421 -0.011431
v -0.016269 0.866816 -0.010010
v -0.022496 0.874692 -0.015827
v -0.011351 0.869398 0.000032
v -0.015372 0.890227 -0.001089
v -0.023844 0.887973 -0.015170
v -0.021804 0.901494 -0.016619
v -0.015437 0.910723 -0.019283
v -0.014210 0.903851 -0.004593
v -0.008245 0.916803 -0.020989
v -0.001674 0.918189 -0.039768
v 0.004360 0.921033 -0.028603
v 0.011939 0.921211 -0.015698
v -0.003253 0.915129 -0.007476
v 0.019683 0.917539 -0.003782
v -0.008171 0.901521 0.003752
v 0.003798 0.911753 0.004278
v 0.011053 0.904119 0.014119
v 0.026110 0.911754 0.005206
v 0.031241 0.904462 0.011502
v -0.000587 0.897520 0.011641
v 0.018330 0.895416 0.018577
v 0.036066 0.893615 0.016108
v 0.008428 0.890939 0.018329
v 0.001778 0.883210 0.015330
v -0.007774 0.880959 0.007883
v 0.000059 0.874921 0.014359
v -0.004227 0.872836 0.009878
v -0.003312 0.866373 0.009173
v -0.061177 0.909269 -0.094245
v -0.062872 0.902940 -0.123943
v -0.060358 0.893015 -0.118006
v -0.068124 0.946734 -0.100021
v -0.050355 0.914609 -0.073241
v -0.055348 0.908642 -0.133889
v -0.048676 0.951649 -0.072065
v -0.018647 0.908947 -0.056953
v -0.018208 0.922221 -0.047914
v -0.054355 0.960106 -0.115257
v -0.032381 0.964036 -0.076716
v -0.009433 0.925574 -0.050487
v -0.002413 0.925290 -0.057232
v -0.017726 0.957663 -0.090325
v -0.005637 0.911475 -0.064628
v -0.007621 0.922912 -0.098453
v -0.031531 0.953843 -0.121610
v -0.041947 0.907005 -0.136288
v -0.019211 0.917423 -0.119004
v -0.035248 0.897894 -0.132821
v -0.008994 0.909255 -0.095059
v -0.023645 0.899563 -0.083141
v -0.033654 0.893890 -0.101976
v -0.015273 0.905949 -0.110860
v -0.040497 0.874091 -0.120094
v -0.025946 0.882922 -0.132931
v -0.041100 0.903018 -0.076118
v -0.033654 0.893890 -0.101976
v -0.023645 0.899563 -0.083141
v -0.052746 0.898669 -0.088751
v -0.040497 0.874091 -0.120094
v -0.060352 0.876237 -0.112633
v -0.082458 0.975640 -0.113489
v -0.066912 0.959094 -0.092588
v -0.063840 0.986932 -0.122500
v -0.048254 0.970210 -0.101588
v -0.042241 0.950627 -0.052570
v -0.021916 0.961745 -0.062147
v -0.044751 0.982966 -0.135735
v -0.063840 0.986932 -0.122500
v -0.029205 0.966420 -0.114834
v -0.048254 0.970210 -0.101588
v -0.001636 0.958516 -0.076526
v -0.021916 0.961745 -0.062147
v -0.071562 0.973173 -0.073235
v -0.021916 0.961745 -0.062147
v -0.054263 0.984027 -0.079880
v -0.042241 0.950627 -0.052570
v -0.042241 0.950627 -0.052570
v -0.011398 0.938926 -0.049420
v -0.021916 0.961745 -0.062147
v -0.025518 0.935381 -0.045674
v -0.001636 0.958516 -0.076526
v -0.021916 0.961745 -0.062147
v -0.011398 0.938926 -0.049420
v -0.000473 0.940246 -0.060450
v -0.021916 0.961745 -0.062147
v -0.001636 0.958516 -0.076526
v -0.013159 0.984521 -0.107692
v -0.029526 0.988833 -0.094474
v -0.043198 0.952163 -0.051860
v -0.070019 0.962725 -0.097577
v -0.052668 0.934179 -0.050900
v -0.079291 0.937570 -0.089277
v -0.100963 0.956143 -0.121811
v -0.105443 0.931568 -0.107946
v -0.048254 0.970210 -0.101588
v -0.061499 0.945421 -0.132202
v -0.066912 0.959094 -0.092588
v -0.076921 0.936179 -0.117646
v -0.073273 0.917597 -0.143862
v -0.087042 0.908970 -0.129956
v -0.048254 0.970210 -0.101588
v -0.029205 0.966420 -0.114834
v -0.061499 0.945421 -0.132202
v -0.039680 0.943414 -0.139618
v -0.055598 0.921032 -0.154290
v -0.034554 0.919168 -0.160923
v -0.027633 0.932951 -0.166480
v -0.045701 0.952941 -0.160201
v -0.033094 0.969899 -0.119362
v -0.014865 0.950088 -0.127288
v -0.048254 0.970210 -0.101588
v -0.029205 0.966420 -0.114834
v -0.039491 0.953632 -0.148191
v -0.066954 0.953572 -0.138763
v -0.087169 0.944368 -0.120062
v -0.048254 0.970210 -0.101588
v -0.066954 0.953572 -0.138763
v -0.066912 0.959094 -0.092588
v -0.070019 0.962725 -0.097577
v -0.102197 0.918464 -0.122488
v -0.079291 0.937570 -0.089277
v -0.094449 0.943469 -0.131441
v -0.014865 0.950088 -0.127288
v -0.033094 0.969899 -0.119362
v 0.009019 0.946164 -0.087294
v -0.001038 0.960354 -0.076733
v -0.033094 0.969899 -0.119362
v -0.014865 0.950088 -0.127288
v -0.038168 0.968343 -0.158858
v -0.017487 0.948658 -0.159838
v -0.061499 0.945421 -0.132202
v -0.039680 0.943414 -0.139618
v -0.051148 0.889116 -0.156671
v -0.031001 0.888707 -0.162514
v -0.061499 0.945421 -0.132202
v -0.072035 0.885058 -0.144348
v -0.076921 0.936179 -0.117646
v -0.084663 0.878281 -0.130854
v 0.009678 0.947513 -0.086320
v 0.003658 0.925092 -0.095642
v -0.022286 0.951159 -0.120245
v -0.014917 0.925332 -0.124489
v -0.022286 0.951159 -0.120245
v -0.014917 0.925332 -0.124489
v -0.009501 0.913763 -0.159667
v -0.010720 0.948477 -0.160662
v -0.070306 0.941830 -0.091914
v -0.099052 0.896364 -0.106834
v -0.069944 0.914641 -0.092024
v -0.109093 0.929363 -0.102624
v -0.069944 0.914641 -0.092024
v -0.053064 0.914071 -0.062177
v -0.070306 0.941830 -0.091914
v -0.052509 0.935430 -0.049631
f 1 2 3
f 2 1 4
f 4 5 2
f 5 4 6
f 7 5 6
f 5 7 8
f 9 8 7
f 10 8 9
f 10 11 8
f 7 6 12
f 12 6 13
f 6 14 13
f 13 14 15
f 6 16 14
f 16 6 17
f 17 18 16
f 18 17 19
f 20 15 14
f 20 21 15
f 21 20 22
f 22 23 21
f 24 21 23
f 14 25 20
f 25 14 26
f 26 27 25
f 28 25 27
f 29 30 31
f 31 32 29
f 32 31 33
f 33 34 32
f 33 35 34
f 36 35 33
f 35 37 34
f 38 36 33
f 39 34 37
f 39 37 40
f 40 41 39
f 41 40 42
f 43 42 40
f 34 39 44
f 44 45 34
f 45 44 46
f 47 46 44
f 38 33 48
f 48 33 49
f 49 50 48
f 50 49 51
f 51 52 50
f 48 53 38
f 54 38 53
f 55 54 53
f 55 53 56
f 57 58 59
f 59 60 57
f 60 59 61
f 62 61 59
f 63 64 65
f 64 63 66
f 66 67 64
f 68 64 67
f 69 70 71
f 70 69 72
f 73 72 69
f 70 72 74
f 74 75 70
f 76 74 72
f 72 73 77
f 72 77 76
f 78 77 73
f 79 76 77
f 77 78 80
f 77 80 79
f 81 82 83
f 83 84 81
f 84 83 85
f 86 85 83
f 87 88 89
f 89 90 87
f 91 92 93
f 92 91 94
f 95 96 97
f 96 95 98
f 99 100 101
f 102 101 100
f 103 104 105
f 104 103 106
f 107 106 103
f 106 107 108
f 108 107 109
f 110 109 107
f 109 110 111
f 112 111 110
f 113 114 115
f 115 116 113
f 117 113 116
f 116 118 117
f 118 119 117
f 120 117 119
f 119 121 120
f 122 120 121
f 123 124 125
f 123 125 126
f 126 127 123
f 128 129 130
f 128 131 129
f 131 128 132
f 133 134 135
f 136 135 134
f 136 134 137
f 138 137 134
f 139 137 138
f 136 140 135
f 141 135 140
f 142 136 137
f 136 142 140
f 140 143 141
f 144 141 143
f 142 145 140
f 143 140 145
f 146 144 143
f 147 144 146
f 145 148 143
f 148 146 143
f 147 146 149
f 147 149 150
f 151 150 149
f 149 152 151
f 146 153 149
f 152 149 153
f 148 153 146
f 153 154 152
f 145 155 148
f 155 153 148
f 153 156 154
f 153 155 156
f 156 157 154
f 156 158 157
f 158 156 159
f 155 159 156
f 160 159 155
f 161 155 145
f 161 160 155
f 145 142 161
f 161 162 160
f 161 163 162
f 161 142 164
f 161 164 163
f 142 165 164
f 163 164 165
f 165 142 137
f 165 137 166
f 139 166 137
f 163 165 167
f 166 167 165
f 166 139 168
f 168 139 169
f 168 169 170
f 168 170 171
f 168 172 166
f 172 168 171
f 167 166 172
f 173 172 171
f 172 174 167
f 167 174 163
f 172 173 175
f 174 172 175
f 175 173 176
f 174 175 176
f 177 176 173
f 178 176 177
f 179 163 174
f 179 174 176
f 178 180 176
f 181 180 178
f 176 180 182
f 182 179 176
f 183 179 182
f 163 179 184
f 183 184 179
f 184 162 163
f 184 183 185
f 184 186 162
f 184 185 186
f 186 187 162
f 186 185 187
f 188 189 190
f 191 190 189
f 191 192 190
f 193 190 192
f 194 193 192
f 191 189 195
f 196 195 189
f 197 192 191
f 191 195 197
f 195 196 198
f 199 198 196
f 197 195 200
f 198 200 195
f 201 198 199
f 202 201 199
f 200 198 203
f 203 198 201
f 202 204 201
f 202 205 204
f 206 204 205
f 204 206 207
f 201 204 208
f 207 208 204
f 203 201 208
f 208 207 209
f 200 203 210
f 210 203 208
f 208 209 211
f 208 211 210
f 211 209 212
f 211 212 213
f 213 214 211
f 210 211 214
f 215 210 214
f 216 200 210
f 216 210 215
f 200 216 197
f 216 215 217
f 216 217 218
f 216 219 197
f 216 218 219
f 197 219 220
f 218 220 219
f 220 192 197
f 220 221 192
f 194 192 221
f 218 222 220
f 221 220 222
f 221 223 194
f 223 224 194
f 223 225 224
f 223 226 225
f 223 221 227
f 227 226 223
f 222 227 221
f 228 226 227
f 227 222 229
f 222 218 229
f 227 230 228
f 229 230 227
f 230 231 228
f 229 231 230
f 232 228 231
f 233 232 231
f 234 229 218
f 234 231 229
f 233 231 235
f 236 233 235
f 231 237 235
f 237 231 234
f 238 237 234
f 218 239 234
f 238 234 239
f 239 218 217
f 239 240 238
f 239 217 241
f 239 241 240
f 241 217 242
f 241 242 240
f 243 244 245
f 244 243 246
f 247 246 243
f 244 246 248
f 246 247 249
f 250 249 247
f 249 250 251
f 252 248 246
f 246 249 252
f 249 251 253
f 253 252 249
f 254 253 251
f 254 255 253
f 256 253 255
f 253 256 252
f 256 255 257
f 257 258 256
f 252 259 248
f 259 252 256
f 259 256 258
f 260 248 259
f 258 261 259
f 260 259 261
f 261 262 260
f 263 264 265
f 265 266 263
f 266 265 267
f 267 268 266
f 269 270 271
f 270 269 272
f 272 273 270
f 273 272 274
f 275 276 277
f 278 277 276
f 276 279 278
f 280 278 279
f 281 282 283
f 284 283 282
f 283 284 285
f 286 285 284
f 287 288 289
f 288 287 290
f 291 292 293
f 292 291 294
f 295 296 297
f 297 298 295
f 299 300 301
f 301 302 299
f 303 304 305
f 306 305 304
f 304 307 306
f 308 306 307
f 309 310 311
f 312 311 310
f 310 313 312
f 314 312 313
f 315 316 317
f 318 317 316
f 317 318 319
f 320 319 318
f 321 322 323
f 323 324 321
f 325 326 327
f 327 328 325
f 329 330 331
f 330 329 332
f 333 334 335
f 334 333 336
f 337 338 339
f 340 339 338
f 341 342 343
f 344 343 342
f 345 346 347
f 348 347 346
f 349 350 351
f 352 351 350
f 353 354 355
f 356 355 354
f 357 358 359
f 359 360 357
f 361 362 363
f 362 361 364
f 365 366 367
f 368 367 366
